<?xml version="1.0" encoding="UTF-8" standalone="no"?>
<!-- Created with Inkscape (http://www.inkscape.org/) -->

<svg
   xmlns:dc="http://purl.org/dc/elements/1.1/"
   xmlns:cc="http://creativecommons.org/ns#"
   xmlns:rdf="http://www.w3.org/1999/02/22-rdf-syntax-ns#"
   xmlns:svg="http://www.w3.org/2000/svg"
   xmlns="http://www.w3.org/2000/svg"
   xmlns:sodipodi="http://sodipodi.sourceforge.net/DTD/sodipodi-0.dtd"
   xmlns:inkscape="http://www.inkscape.org/namespaces/inkscape"
   id="svg2"
   version="1.1"
   inkscape:version="0.48.2 r9819"
   width="183.88326"
   height="162.30518"
   xml:space="preserve"
   sodipodi:docname="A27gOrbit.svg"><metadata
     id="metadata8"><rdf:RDF><cc:Work
         rdf:about=""><dc:format>image/svg+xml</dc:format><dc:type
           rdf:resource="http://purl.org/dc/dcmitype/StillImage" /><dc:title /></cc:Work></rdf:RDF></metadata><defs
     id="defs6"><marker
       inkscape:stockid="Arrow1Mend"
       orient="auto"
       refY="0.0"
       refX="0.0"
       id="Arrow1Mend"
       style="overflow:visible;"><path
         id="path4021"
         d="M 0.0,0.0 L 5.0,-5.0 L -12.5,0.0 L 5.0,5.0 L 0.0,0.0 z "
         style="fill-rule:evenodd;stroke:#000000;stroke-width:1.0pt;marker-start:none;"
         transform="scale(0.4) rotate(180) translate(10,0)" /></marker><marker
       inkscape:stockid="Arrow2Mend"
       orient="auto"
       refY="0.0"
       refX="0.0"
       id="Arrow2Mend"
       style="overflow:visible;"><path
         id="path4039"
         style="font-size:12.0;fill-rule:evenodd;stroke-width:0.62500000;stroke-linejoin:round;"
         d="M 8.7185878,4.0337352 L -2.2072895,0.016013256 L 8.7185884,-4.0017078 C 6.9730900,-1.6296469 6.9831476,1.6157441 8.7185878,4.0337352 z "
         transform="scale(0.6) rotate(180) translate(0,0)" /></marker><marker
       inkscape:stockid="Arrow1Sstart"
       orient="auto"
       refY="0.0"
       refX="0.0"
       id="Arrow1Sstart"
       style="overflow:visible"><path
         id="path4024"
         d="M 0.0,0.0 L 5.0,-5.0 L -12.5,0.0 L 5.0,5.0 L 0.0,0.0 z "
         style="fill-rule:evenodd;stroke:#000000;stroke-width:1.0pt;marker-start:none"
         transform="scale(0.2) translate(6,0)" /></marker><marker
       inkscape:stockid="Arrow2Mstart"
       orient="auto"
       refY="0.0"
       refX="0.0"
       id="Arrow2Mstart"
       style="overflow:visible"><path
         id="path4036"
         style="font-size:12.0;fill-rule:evenodd;stroke-width:0.62500000;stroke-linejoin:round"
         d="M 8.7185878,4.0337352 L -2.2072895,0.016013256 L 8.7185884,-4.0017078 C 6.9730900,-1.6296469 6.9831476,1.6157441 8.7185878,4.0337352 z "
         transform="scale(0.6) translate(0,0)" /></marker><marker
       inkscape:stockid="Arrow2Lstart"
       orient="auto"
       refY="0.0"
       refX="0.0"
       id="Arrow2Lstart"
       style="overflow:visible"><path
         id="path4030"
         style="font-size:12.0;fill-rule:evenodd;stroke-width:0.62500000;stroke-linejoin:round"
         d="M 8.7185878,4.0337352 L -2.2072895,0.016013256 L 8.7185884,-4.0017078 C 6.9730900,-1.6296469 6.9831476,1.6157441 8.7185878,4.0337352 z "
         transform="scale(1.1) translate(1,0)" /></marker><marker
       inkscape:stockid="Arrow1Mstart"
       orient="auto"
       refY="0.0"
       refX="0.0"
       id="Arrow1Mstart"
       style="overflow:visible"><path
         id="path4018"
         d="M 0.0,0.0 L 5.0,-5.0 L -12.5,0.0 L 5.0,5.0 L 0.0,0.0 z "
         style="fill-rule:evenodd;stroke:#000000;stroke-width:1.0pt;marker-start:none"
         transform="scale(0.4) translate(10,0)" /></marker><marker
       inkscape:stockid="Arrow2Lend"
       orient="auto"
       refY="0"
       refX="0"
       id="Arrow2Lend"
       style="overflow:visible"><path
         id="path4033"
         style="font-size:12px;fill-rule:evenodd;stroke-width:0.625;stroke-linejoin:round"
         d="M 8.7185878,4.0337352 -2.2072895,0.01601326 8.7185884,-4.0017078 c -1.7454984,2.3720609 -1.7354408,5.6174519 -6e-7,8.035443 z"
         transform="matrix(-1.1,0,0,-1.1,-1.1,0)"
         inkscape:connector-curvature="0" /></marker><marker
       inkscape:stockid="Arrow2Mend"
       orient="auto"
       refY="0"
       refX="0"
       id="Arrow2Mend-1"
       style="overflow:visible"><path
         inkscape:connector-curvature="0"
         id="path4039-8"
         style="font-size:12px;fill-rule:evenodd;stroke-width:0.625;stroke-linejoin:round"
         d="M 8.7185878,4.0337352 -2.2072895,0.01601326 8.7185884,-4.0017078 c -1.7454984,2.3720609 -1.7354408,5.6174519 -6e-7,8.035443 z"
         transform="scale(-0.6,-0.6)" /></marker></defs><sodipodi:namedview
     pagecolor="#ffffff"
     bordercolor="#666666"
     borderopacity="1"
     objecttolerance="10"
     gridtolerance="10"
     guidetolerance="10"
     inkscape:pageopacity="0"
     inkscape:pageshadow="2"
     inkscape:window-width="1920"
     inkscape:window-height="1011"
     id="namedview4"
     showgrid="false"
     inkscape:zoom="9.9205254"
     inkscape:cx="126.38086"
     inkscape:cy="111.74022"
     inkscape:window-x="-4"
     inkscape:window-y="-4"
     inkscape:window-maximized="1"
     inkscape:current-layer="layer1"
     fit-margin-top="0"
     fit-margin-left="0"
     fit-margin-right="0"
     fit-margin-bottom="0" /><g
     id="g10"
     inkscape:groupmode="layer"
     inkscape:label="A27wurst"
     transform="matrix(1.25,0,0,-1.25,-0.08718696,184.00913)"><path
   style="fill:none;stroke:#000000;stroke-width:1px;stroke-linecap:butt;stroke-linejoin:miter;stroke-opacity:1;marker-end:url(#Arrow2Lend)"
   d="M 67.143075,115.61405 1.1404344,164.93783"
   id="path3239"
   inkscape:connector-curvature="0"
   transform="matrix(0.8,0,0,-0.8,0,152.25)" /><path
   style="fill:none;stroke:#000000;stroke-width:1px;stroke-linecap:butt;stroke-linejoin:miter;stroke-opacity:1;marker-end:url(#Arrow2Lend)"
   d="m 67.28563,115.47149 115.46898,52.60254"
   id="path4819"
   inkscape:connector-curvature="0"
   transform="matrix(0.8,0,0,-0.8,0,152.25)" /><path
   style="fill:none;stroke:#000000;stroke-width:1px;stroke-linecap:butt;stroke-linejoin:miter;stroke-opacity:1;marker-end:url(#Arrow2Lend)"
   d="m 67.143075,115.32894 0,-107.6975543"
   id="path5005"
   inkscape:connector-curvature="0"
   transform="matrix(0.8,0,0,-0.8,0,152.25)"
   sodipodi:nodetypes="cc" /><path
   sodipodi:type="arc"
   style="fill:none;stroke:#007100;stroke-width:2.04626732;stroke-miterlimit:4;stroke-opacity:1;stroke-dasharray:none;stroke-dashoffset:0"
   id="path7651"
   sodipodi:cx="138.29913"
   sodipodi:cy="55.440613"
   sodipodi:rx="17.337791"
   sodipodi:ry="17.539394"
   d="m 155.63692,55.440613 c 0,9.68674 -7.76239,17.539394 -17.33779,17.539394 -9.57539,0 -17.33779,-7.852654 -17.33779,-17.539394 0,-9.68674 7.7624,-17.539395 17.33779,-17.539395 9.5754,0 17.33779,7.852655 17.33779,17.539395 z"
   transform="matrix(0.77261467,0,0,-0.79132025,18.481802,152.44064)" /><text
   xml:space="preserve"
   style="font-size:9.03065491px;font-style:normal;font-weight:normal;line-height:125%;letter-spacing:0px;word-spacing:0px;fill:#000000;fill-opacity:1;stroke:none;font-family:Sans"
   x="24.377808"
   y="-68.057228"
   id="text8415"
   sodipodi:linespacing="125%"
   transform="scale(1.0297675,-0.97109297)"><tspan
     sodipodi:role="line"
     id="tspan8417"
     x="24.377808"
     y="-68.057228">x(0)</tspan></text>

<text
   xml:space="preserve"
   style="font-size:9.03065491px;font-style:normal;font-weight:normal;line-height:125%;letter-spacing:0px;word-spacing:0px;fill:#000000;fill-opacity:1;stroke:none;font-family:Sans"
   x="26.457323"
   y="-103.82711"
   id="text8415-2"
   sodipodi:linespacing="125%"
   transform="scale(1.0297675,-0.97109298)"><tspan
     sodipodi:role="line"
     id="tspan8417-3"
     x="26.457323"
     y="-103.82711">Mx</tspan></text>

<text
   xml:space="preserve"
   style="font-size:9.03065491px;font-style:normal;font-weight:normal;line-height:125%;letter-spacing:0px;word-spacing:0px;fill:#000000;fill-opacity:1;stroke:none;font-family:Sans"
   x="123.02682"
   y="-88.839409"
   id="text8415-2-2"
   sodipodi:linespacing="125%"
   transform="scale(1.0297675,-0.97109298)"><tspan
     sodipodi:role="line"
     id="tspan8417-3-2"
     x="123.02682"
     y="-88.839409">Mx</tspan></text>

<text
   xml:space="preserve"
   style="font-size:9.03065491px;font-style:normal;font-weight:normal;line-height:125%;letter-spacing:0px;word-spacing:0px;fill:#000000;fill-opacity:1;stroke:none;font-family:Sans"
   x="116.38202"
   y="-131.58693"
   id="text8415-2-1"
   sodipodi:linespacing="125%"
   transform="scale(1.0297675,-0.97109298)"><tspan
     sodipodi:role="line"
     id="tspan8417-3-6"
     x="116.38202"
     y="-131.58693">x(t)</tspan></text>

<path
   sodipodi:type="arc"
   style="display:inline;fill:none;stroke:#007100;stroke-width:1.98866696;stroke-miterlimit:4;stroke-opacity:1;stroke-dasharray:none;stroke-dashoffset:0"
   id="path5232"
   sodipodi:cx="58.090878"
   sodipodi:cy="82.648361"
   sodipodi:rx="8.9809208"
   sodipodi:ry="12.651694"
   d="m 67.071798,82.648361 c 0,6.987338 -4.020895,12.651695 -8.98092,12.651695 -4.960026,0 -8.980921,-5.664357 -8.980921,-12.651695 0,-6.987338 4.020895,-12.651694 8.980921,-12.651694 4.960025,0 8.98092,5.664356 8.98092,12.651694 z"
   transform="matrix(0.80914408,0,0,-0.8,-8.7774896,152.07893)" /></g><g
     inkscape:groupmode="layer"
     id="layer1"
     inkscape:label="Wurst"
     style="display:inline"
     transform="translate(-0.08718696,-6.3033673)"><path
       sodipodi:type="arc"
       style="fill:#000000;fill-opacity:1;stroke:#000000;stroke-width:0.80000001;stroke-miterlimit:4;stroke-opacity:1;stroke-dasharray:none;stroke-dashoffset:0"
       id="path3237-4"
       sodipodi:cx="67.285629"
       sodipodi:cy="116.46938"
       sodipodi:rx="2.2808688"
       sodipodi:ry="2.2808688"
       d="m 69.566498,116.46938 c 0,1.25969 -1.02118,2.28087 -2.280869,2.28087 -1.259689,0 -2.280868,-1.02118 -2.280868,-2.28087 0,-1.25969 1.021179,-2.28087 2.280868,-2.28087 1.259689,0 2.280869,1.02118 2.280869,2.28087 z"
       transform="translate(-17.890565,-21.810812)" /><path
       sodipodi:type="arc"
       style="fill:#000000;fill-opacity:1;stroke:#000000;stroke-width:0.80000001;stroke-miterlimit:4;stroke-opacity:1;stroke-dasharray:none;stroke-dashoffset:0"
       id="path3237-0"
       sodipodi:cx="67.285629"
       sodipodi:cy="116.46938"
       sodipodi:rx="2.2808688"
       sodipodi:ry="2.2808688"
       d="m 69.566498,116.46938 c 0,1.25969 -1.02118,2.28087 -2.280869,2.28087 -1.259689,0 -2.280868,-1.02118 -2.280868,-2.28087 0,-1.25969 1.021179,-2.28087 2.280868,-2.28087 1.259689,0 2.280869,1.02118 2.280869,2.28087 z"
       transform="translate(89.519904,-79.227342)" /><path
       sodipodi:type="arc"
       style="fill:#ffffff;fill-opacity:1;stroke:#000000;stroke-width:0.80000001;stroke-miterlimit:4;stroke-opacity:1;stroke-dasharray:none;stroke-dashoffset:0"
       id="path3237"
       sodipodi:cx="67.285629"
       sodipodi:cy="116.46938"
       sodipodi:rx="2.2808688"
       sodipodi:ry="2.2808688"
       d="m 69.566498,116.46938 c 0,1.25969 -1.02118,2.28087 -2.280869,2.28087 -1.259689,0 -2.280868,-1.02118 -2.280868,-2.28087 0,-1.25969 1.021179,-2.28087 2.280868,-2.28087 1.259689,0 2.280869,1.02118 2.280869,2.28087 z"
       transform="translate(0,-0.855325)" /><path
       style="fill:none;stroke:#000000;stroke-width:2;stroke-linecap:butt;stroke-linejoin:miter;stroke-miterlimit:4;stroke-opacity:1;stroke-dasharray:none;marker-start:url(#Arrow1Mend);marker-mid:none;marker-end:none"
       d="m 43.230065,70.831471 c -0.90721,-2e-6 3.882325,-0.167014 3.882325,-0.167014"
       id="path12288"
       inkscape:connector-curvature="0"
       sodipodi:nodetypes="cc" /><path
       style="fill:none;stroke:#000000;stroke-width:2;stroke-linecap:butt;stroke-linejoin:miter;stroke-miterlimit:4;stroke-opacity:1;stroke-dasharray:none;marker-start:none;marker-mid:none;marker-end:url(#Arrow1Mend);display:inline"
       d="m 157.09715,71.225048 c -0.90721,-2e-6 3.88232,-0.167014 3.88232,-0.167014"
       id="path12288-9"
       inkscape:connector-curvature="0"
       sodipodi:nodetypes="cc" /></g></svg>