<?xml version="1.0" encoding="UTF-8" standalone="no"?>
<!-- Created with Inkscape (http://www.inkscape.org/) -->

<svg
   xmlns:dc="http://purl.org/dc/elements/1.1/"
   xmlns:cc="http://creativecommons.org/ns#"
   xmlns:rdf="http://www.w3.org/1999/02/22-rdf-syntax-ns#"
   xmlns:svg="http://www.w3.org/2000/svg"
   xmlns="http://www.w3.org/2000/svg"
   xmlns:sodipodi="http://sodipodi.sourceforge.net/DTD/sodipodi-0.dtd"
   xmlns:inkscape="http://www.inkscape.org/namespaces/inkscape"
   id="svg2"
   version="1.1"
   inkscape:version="0.48.2 r9819"
   width="184.56377"
   height="167.42612"
   xml:space="preserve"
   sodipodi:docname="A27traj.svg"><metadata
     id="metadata8"><rdf:RDF><cc:Work
         rdf:about=""><dc:format>image/svg+xml</dc:format><dc:type
           rdf:resource="http://purl.org/dc/dcmitype/StillImage" /><dc:title /></cc:Work></rdf:RDF></metadata><defs
     id="defs6"><marker
       inkscape:stockid="Arrow1Mstart"
       orient="auto"
       refY="0.0"
       refX="0.0"
       id="Arrow1Mstart"
       style="overflow:visible"><path
         id="path4018"
         d="M 0.0,0.0 L 5.0,-5.0 L -12.5,0.0 L 5.0,5.0 L 0.0,0.0 z "
         style="fill-rule:evenodd;stroke:#000000;stroke-width:1.0pt;marker-start:none"
         transform="scale(0.4) translate(10,0)" /></marker><marker
       inkscape:stockid="Arrow2Mstart"
       orient="auto"
       refY="0.0"
       refX="0.0"
       id="Arrow2Mstart"
       style="overflow:visible"><path
         id="path4036"
         style="font-size:12.0;fill-rule:evenodd;stroke-width:0.62500000;stroke-linejoin:round"
         d="M 8.7185878,4.0337352 L -2.2072895,0.016013256 L 8.7185884,-4.0017078 C 6.9730900,-1.6296469 6.9831476,1.6157441 8.7185878,4.0337352 z "
         transform="scale(0.6) translate(0,0)" /></marker><marker
       inkscape:stockid="Arrow1Lstart"
       orient="auto"
       refY="0.0"
       refX="0.0"
       id="Arrow1Lstart"
       style="overflow:visible"><path
         id="path4012"
         d="M 0.0,0.0 L 5.0,-5.0 L -12.5,0.0 L 5.0,5.0 L 0.0,0.0 z "
         style="fill-rule:evenodd;stroke:#000000;stroke-width:1.0pt;marker-start:none"
         transform="scale(0.8) translate(12.5,0)" /></marker><marker
       inkscape:stockid="Arrow2Mend"
       orient="auto"
       refY="0.0"
       refX="0.0"
       id="Arrow2Mend"
       style="overflow:visible;"><path
         id="path4039"
         style="font-size:12.0;fill-rule:evenodd;stroke-width:0.62500000;stroke-linejoin:round;"
         d="M 8.7185878,4.0337352 L -2.2072895,0.016013256 L 8.7185884,-4.0017078 C 6.9730900,-1.6296469 6.9831476,1.6157441 8.7185878,4.0337352 z "
         transform="scale(0.6) rotate(180) translate(0,0)" /></marker><marker
       inkscape:stockid="Arrow2Lstart"
       orient="auto"
       refY="0.0"
       refX="0.0"
       id="Arrow2Lstart"
       style="overflow:visible"><path
         id="path4030"
         style="font-size:12.0;fill-rule:evenodd;stroke-width:0.62500000;stroke-linejoin:round"
         d="M 8.7185878,4.0337352 L -2.2072895,0.016013256 L 8.7185884,-4.0017078 C 6.9730900,-1.6296469 6.9831476,1.6157441 8.7185878,4.0337352 z "
         transform="scale(1.1) translate(1,0)" /></marker><marker
       inkscape:stockid="Arrow2Send"
       orient="auto"
       refY="0.0"
       refX="0.0"
       id="Arrow2Send"
       style="overflow:visible;"><path
         id="path4045"
         style="font-size:12.0;fill-rule:evenodd;stroke-width:0.62500000;stroke-linejoin:round;"
         d="M 8.7185878,4.0337352 L -2.2072895,0.016013256 L 8.7185884,-4.0017078 C 6.9730900,-1.6296469 6.9831476,1.6157441 8.7185878,4.0337352 z "
         transform="scale(0.3) rotate(180) translate(-2.3,0)" /></marker><marker
       inkscape:stockid="Arrow1Mend"
       orient="auto"
       refY="0.0"
       refX="0.0"
       id="Arrow1Mend"
       style="overflow:visible;"><path
         id="path4021"
         d="M 0.0,0.0 L 5.0,-5.0 L -12.5,0.0 L 5.0,5.0 L 0.0,0.0 z "
         style="fill-rule:evenodd;stroke:#000000;stroke-width:1.0pt;marker-start:none;"
         transform="scale(0.4) rotate(180) translate(10,0)" /></marker><marker
       inkscape:stockid="Arrow2Lend"
       orient="auto"
       refY="0"
       refX="0"
       id="Arrow2Lend"
       style="overflow:visible"><path
         id="path4033"
         style="font-size:12px;fill-rule:evenodd;stroke-width:0.625;stroke-linejoin:round"
         d="M 8.7185878,4.0337352 -2.2072895,0.01601326 8.7185884,-4.0017078 c -1.7454984,2.3720609 -1.7354408,5.6174519 -6e-7,8.035443 z"
         transform="matrix(-1.1,0,0,-1.1,-1.1,0)"
         inkscape:connector-curvature="0" /></marker><marker
       inkscape:stockid="Arrow1Mend"
       orient="auto"
       refY="0"
       refX="0"
       id="Arrow1Mend-1"
       style="overflow:visible"><path
         inkscape:connector-curvature="0"
         id="path4021-7"
         d="M 0,0 5,-5 -12.5,0 5,5 0,0 z"
         style="fill-rule:evenodd;stroke:#000000;stroke-width:1pt;marker-start:none"
         transform="matrix(-0.4,0,0,-0.4,-4,0)" /></marker></defs><sodipodi:namedview
     pagecolor="#ffffff"
     bordercolor="#666666"
     borderopacity="1"
     objecttolerance="10"
     gridtolerance="10"
     guidetolerance="10"
     inkscape:pageopacity="0"
     inkscape:pageshadow="2"
     inkscape:window-width="1920"
     inkscape:window-height="1011"
     id="namedview4"
     showgrid="false"
     inkscape:zoom="3.5074354"
     inkscape:cx="-9.0600166"
     inkscape:cy="96.97742"
     inkscape:window-x="-4"
     inkscape:window-y="-4"
     inkscape:window-maximized="1"
     inkscape:current-layer="layer1"
     fit-margin-top="0"
     fit-margin-left="0"
     fit-margin-right="0"
     fit-margin-bottom="0" /><g
     id="g10"
     inkscape:groupmode="layer"
     inkscape:label="A27wurst"
     transform="matrix(1.25,0,0,-1.25,0.25136357,188.78445)"><path
   style="fill:none;stroke:#000000;stroke-width:1px;stroke-linecap:butt;stroke-linejoin:miter;stroke-opacity:1;marker-end:url(#Arrow2Lend)"
   d="M 67.143075,115.61405 1.1404344,164.93783"
   id="path3239"
   inkscape:connector-curvature="0"
   transform="matrix(0.8,0,0,-0.8,0,152.25)" /><path
   style="fill:none;stroke:#000000;stroke-width:1px;stroke-linecap:butt;stroke-linejoin:miter;stroke-opacity:1;marker-end:url(#Arrow2Lend)"
   d="m 67.28563,115.47149 115.46898,52.60254"
   id="path4819"
   inkscape:connector-curvature="0"
   transform="matrix(0.8,0,0,-0.8,0,152.25)" /><path
   style="fill:none;stroke:#000000;stroke-width:1px;stroke-linecap:butt;stroke-linejoin:miter;stroke-opacity:1;marker-end:url(#Arrow2Lend)"
   d="m 67.143075,115.32894 0,-112.1328031"
   id="path5005"
   inkscape:connector-curvature="0"
   transform="matrix(0.8,0,0,-0.8,0,152.25)"
   sodipodi:nodetypes="cc" /><path
   d="m 39.677429,76.399396 c 16.285,5.886 64.492271,17.659116 42.844184,35.195344"
   style="fill:none;stroke:#0000cd;stroke-width:1.60000000000000010;stroke-linecap:butt;stroke-linejoin:miter;stroke-miterlimit:4;stroke-opacity:1;stroke-dasharray:none;marker-end:none"
   id="path64-9"
   inkscape:connector-curvature="0"
   sodipodi:nodetypes="cc" /><path
   style="fill:none;stroke:#0000cd;stroke-width:2;stroke-linecap:butt;stroke-linejoin:miter;stroke-opacity:1;stroke-miterlimit:4;stroke-dasharray:none"
   d="m 114.61366,97.652204 c 44.46524,6.232206 9.12607,-47.578708 41.91096,-60.157914"
   id="path5455"
   inkscape:connector-curvature="0"
   transform="matrix(0.8,0,0,-0.8,0,152.25)"
   sodipodi:nodetypes="cc" /><text
   xml:space="preserve"
   style="font-size:9.03065491px;font-style:normal;font-weight:normal;line-height:125%;letter-spacing:0px;word-spacing:0px;fill:#000000;fill-opacity:1;stroke:none;font-family:Sans"
   x="116.53736"
   y="-131.07278"
   id="text8415-2-1"
   sodipodi:linespacing="125%"
   transform="scale(1.0297675,-0.97109298)"><tspan
     sodipodi:role="line"
     id="tspan8417-3-6"
     x="116.53736"
     y="-131.07278">x(t)</tspan></text>


<text
   xml:space="preserve"
   style="font-size:9.03065491px;font-style:normal;font-weight:normal;line-height:125%;letter-spacing:0px;word-spacing:0px;fill:#000000;fill-opacity:1;stroke:none;font-family:Sans"
   x="28.604414"
   y="-68.1259"
   id="text8415-2-1-7"
   sodipodi:linespacing="125%"
   transform="scale(1.0297675,-0.97109298)"><tspan
     sodipodi:role="line"
     id="tspan8417-3-6-6"
     x="28.604414"
     y="-68.1259">x(0)</tspan></text>


</g><g
     inkscape:groupmode="layer"
     id="layer1"
     inkscape:label="Wurst"
     style="display:inline"
     transform="translate(0.25136357,-1.5280509)"><path
       sodipodi:type="arc"
       style="fill:#000000;fill-opacity:1;stroke:#000000;stroke-width:0.80000001;stroke-miterlimit:4;stroke-opacity:1;stroke-dasharray:none;stroke-dashoffset:0"
       id="path3237-4"
       sodipodi:cx="67.285629"
       sodipodi:cy="116.46938"
       sodipodi:rx="2.2808688"
       sodipodi:ry="2.2808688"
       d="m 69.566498,116.46938 c 0,1.25969 -1.02118,2.28087 -2.280869,2.28087 -1.259689,0 -2.280868,-1.02118 -2.280868,-2.28087 0,-1.25969 1.021179,-2.28087 2.280868,-2.28087 1.259689,0 2.280869,1.02118 2.280869,2.28087 z"
       transform="translate(-17.890565,-21.810812)" /><path
       sodipodi:type="arc"
       style="fill:#000000;fill-opacity:1;stroke:#000000;stroke-width:0.80000001;stroke-miterlimit:4;stroke-opacity:1;stroke-dasharray:none;stroke-dashoffset:0"
       id="path3237-0"
       sodipodi:cx="67.285629"
       sodipodi:cy="116.46938"
       sodipodi:rx="2.2808688"
       sodipodi:ry="2.2808688"
       d="m 69.566498,116.46938 c 0,1.25969 -1.02118,2.28087 -2.280869,2.28087 -1.259689,0 -2.280868,-1.02118 -2.280868,-2.28087 0,-1.25969 1.021179,-2.28087 2.280868,-2.28087 1.259689,0 2.280869,1.02118 2.280869,2.28087 z"
       transform="translate(89.519904,-79.227342)" /><path
       sodipodi:type="arc"
       style="fill:#ffffff;fill-opacity:1;stroke:#000000;stroke-width:0.80000001;stroke-miterlimit:4;stroke-opacity:1;stroke-dasharray:none;stroke-dashoffset:0"
       id="path3237"
       sodipodi:cx="67.285629"
       sodipodi:cy="116.46938"
       sodipodi:rx="2.2808688"
       sodipodi:ry="2.2808688"
       d="m 69.566498,116.46938 c 0,1.25969 -1.02118,2.28087 -2.280869,2.28087 -1.259689,0 -2.280868,-1.02118 -2.280868,-2.28087 0,-1.25969 1.021179,-2.28087 2.280868,-2.28087 1.259689,0 2.280869,1.02118 2.280869,2.28087 z"
       transform="translate(0,-0.855325)" /><path
       transform="matrix(1.25,0,0,-1.25,0,190.3125)"
       d="m 91.961133,74.097584 c -6.459992,1.96743 -14.741634,5.968969 -21.103157,12.736884 -10.215703,15.746802 6.576023,28.707682 12.015289,24.447712"
       style="fill:none;stroke:#0000cd;stroke-width:1.60000000000000010;stroke-linecap:butt;stroke-linejoin:miter;stroke-miterlimit:4;stroke-opacity:1;stroke-dasharray:none;stroke-dashoffset:0;marker-end:none;marker-start:url(#Arrow1Mstart)"
       id="path64-4-82"
       inkscape:connector-curvature="0"
       sodipodi:nodetypes="ccc" /><path
       style="fill:none;stroke:#000000;stroke-width:2;stroke-linecap:butt;stroke-linejoin:miter;stroke-miterlimit:4;stroke-opacity:1;stroke-dasharray:none;marker-start:none;marker-end:url(#Arrow1Mend)"
       d="m 90.698284,56.051161 -3.4213,3.421304"
       id="path4024"
       inkscape:connector-curvature="0"
       sodipodi:nodetypes="cc" /><path
       style="fill:none;stroke:#000000;stroke-width:2;stroke-linecap:butt;stroke-linejoin:miter;stroke-miterlimit:4;stroke-opacity:1;stroke-dasharray:none;marker-start:none;marker-end:url(#Arrow1Mend);display:inline"
       d="m 147.33199,44.179502 4.27663,-3.991519"
       id="path4024-4"
       inkscape:connector-curvature="0"
       sodipodi:nodetypes="cc" /></g></svg>