<?xml version="1.0" encoding="UTF-8" standalone="no"?>
<!-- Created with Inkscape (http://www.inkscape.org/) -->

<svg
   xmlns:dc="http://purl.org/dc/elements/1.1/"
   xmlns:cc="http://creativecommons.org/ns#"
   xmlns:rdf="http://www.w3.org/1999/02/22-rdf-syntax-ns#"
   xmlns:svg="http://www.w3.org/2000/svg"
   xmlns="http://www.w3.org/2000/svg"
   xmlns:sodipodi="http://sodipodi.sourceforge.net/DTD/sodipodi-0.dtd"
   xmlns:inkscape="http://www.inkscape.org/namespaces/inkscape"
   id="svg2"
   version="1.1"
   inkscape:version="0.48.2 r9819"
   width="183.88326"
   height="166.79787"
   xml:space="preserve"
   sodipodi:docname="A27wurst.svg"><metadata
     id="metadata8"><rdf:RDF><cc:Work
         rdf:about=""><dc:format>image/svg+xml</dc:format><dc:type
           rdf:resource="http://purl.org/dc/dcmitype/StillImage" /><dc:title /></cc:Work></rdf:RDF></metadata><defs
     id="defs6"><marker
       inkscape:stockid="Arrow2Lend"
       orient="auto"
       refY="0"
       refX="0"
       id="Arrow2Lend"
       style="overflow:visible"><path
         id="path4033"
         style="font-size:12px;fill-rule:evenodd;stroke-width:0.625;stroke-linejoin:round"
         d="M 8.7185878,4.0337352 -2.2072895,0.01601326 8.7185884,-4.0017078 c -1.7454984,2.3720609 -1.7354408,5.6174519 -6e-7,8.035443 z"
         transform="matrix(-1.1,0,0,-1.1,-1.1,0)"
         inkscape:connector-curvature="0" /></marker></defs><sodipodi:namedview
     pagecolor="#ffffff"
     bordercolor="#666666"
     borderopacity="1"
     objecttolerance="10"
     gridtolerance="10"
     guidetolerance="10"
     inkscape:pageopacity="0"
     inkscape:pageshadow="2"
     inkscape:window-width="1920"
     inkscape:window-height="1011"
     id="namedview4"
     showgrid="false"
     inkscape:zoom="2.4801314"
     inkscape:cx="31.410709"
     inkscape:cy="71.538472"
     inkscape:window-x="-4"
     inkscape:window-y="-4"
     inkscape:window-maximized="1"
     inkscape:current-layer="g10"
     fit-margin-top="0"
     fit-margin-left="0"
     fit-margin-right="0"
     fit-margin-bottom="0" /><g
     id="g10"
     inkscape:groupmode="layer"
     inkscape:label="A27wurst"
     transform="matrix(1.25,0,0,-1.25,-0.08718696,188.50181)"><g
   id="g12"><g
     id="g14"
     transform="matrix(1,0,0,-1,0,152.25)" /><g
     id="g18"
     transform="matrix(1,0,0,-1,0,152.25)" /><g
     id="g22"
     transform="matrix(1,0,0,-1,0,152.25)" /><g
     id="g26"
     transform="matrix(1,0,0,-1,0,152.25)" /><g
     id="g30"
     transform="matrix(1,0,0,-1,0,152.25)" /><g
     id="g34"
     transform="matrix(1,0,0,-1,0,152.25)" /><g
     id="g38"
     transform="matrix(1,0,0,-1,0,152.25)" /><g
     id="g42"
     transform="matrix(1,0,0,-1,0,152.25)" /><g
     id="g46"
     transform="matrix(1,0,0,-1,0,152.25)" /><g
     id="g50"
     transform="matrix(1,0,0,-1,0,152.25)" /><g
     id="g54"
     transform="matrix(1,0,0,-1,0,152.25)" /><g
     id="g58"
     transform="matrix(1,0,0,-1,0,152.25)" /><g
     id="g62"
     transform="matrix(1,0,0,-1,0,152.25)"><path
       d="M 40.418,76.238 C 56.703,70.352 100.141,71.785 89.902,49.051 80.023,28.422 60.330913,44.827739 66.791913,59.956739"
       style="fill:none;stroke:#000000;stroke-width:1.6;stroke-linecap:butt;stroke-linejoin:miter;stroke-miterlimit:4;stroke-opacity:1;stroke-dasharray:none"
       id="path64"
       inkscape:connector-curvature="0"
       sodipodi:nodetypes="ccc" /></g><g
     id="g66"
     transform="matrix(1,0,0,-1,0,152.25)"><path
       d="m 35.416077,56.871377 c 9.043,-5.969 22.12338,1.687971 31.57638,2.855971"
       style="fill:none;stroke:#000000;stroke-width:1.6;stroke-linecap:butt;stroke-linejoin:miter;stroke-miterlimit:4;stroke-opacity:1;stroke-dasharray:none"
       id="path68"
       inkscape:connector-curvature="0"
       sodipodi:nodetypes="cc" /></g><g
     id="g70"
     transform="matrix(1,0,0,-1,0,152.25)"><path
       d="m 65.551,59.504 c 6.25,2.668 23.677293,-2.177271 14.837293,-9.684271"
       style="fill:none;stroke:#000000;stroke-width:1.6;stroke-linecap:butt;stroke-linejoin:miter;stroke-miterlimit:4;stroke-opacity:1;stroke-dasharray:none"
       id="path72"
       inkscape:connector-curvature="0"
       sodipodi:nodetypes="cc" /></g><g
     id="g74"
     transform="matrix(1,0,0,-1,0,152.25)"><path
       d="m 80.754,50.105 c -10.793,-9.488 -8.168217,4.604479 -6.707217,9.299479"
       style="fill:none;stroke:#000000;stroke-width:1.6;stroke-linecap:butt;stroke-linejoin:miter;stroke-miterlimit:4;stroke-opacity:1;stroke-dasharray:none"
       id="path76"
       inkscape:connector-curvature="0"
       sodipodi:nodetypes="cc" /></g><g
     id="g78"
     transform="matrix(1,0,0,-1,0,152.25)" /><g
     id="g82"
     transform="matrix(1,0,0,-1,0,152.25)" /><g
     id="g86"
     transform="matrix(1,0,0,-1,0,152.25)" /><g
     id="g90"
     transform="matrix(1,0,0,-1,0,152.25)"><path
       d="m 79.424807,67.47832 c 19.625,9.71 21.667223,-15.201132 33.301113,-29.998602"
       style="fill:none;stroke:#000000;stroke-width:1.6;stroke-linecap:butt;stroke-linejoin:miter;stroke-miterlimit:4;stroke-opacity:1;stroke-dasharray:none;marker-start:none"
       id="path92"
       inkscape:connector-curvature="0"
       sodipodi:nodetypes="cc" /></g><g
     id="g94"
     transform="matrix(1,0,0,-1,0,152.25)"><path
       d="m 70.122303,70.252895 c 13.481,10.371 43.233667,13.679823 56.900697,0.282105 6.37555,-6.626715 8.09508,-12.330811 10.53555,-19.135459"
       style="fill:none;stroke:#000000;stroke-width:1.6;stroke-linecap:butt;stroke-linejoin:miter;stroke-miterlimit:4;stroke-opacity:1;stroke-dasharray:none"
       id="path96"
       inkscape:connector-curvature="0"
       sodipodi:nodetypes="ccc" /></g><g
     id="g98"
     transform="matrix(1,0,0,-1,0,152.25)" /><g
     id="g102"
     transform="matrix(1,0,0,-1,0,152.25)" /><g
     id="g106"
     transform="matrix(1,0,0,-1,0,152.25)" /><g
     id="g110"
     transform="matrix(1,0,0,-1,0,152.25)" /><g
     id="g114"
     transform="matrix(1,0,0,-1,0,152.25)" /><g
     id="g118"
     transform="matrix(1,0,0,-1,0,152.25)" /><g
     id="g122"
     transform="matrix(1,0,0,-1,0,152.25)" /><g
     id="g126"
     transform="matrix(1,0,0,-1,0,152.25)" /><g
     id="g130"
     transform="matrix(1,0,0,-1,0,152.25)" /><g
     id="g134"
     transform="matrix(1,0,0,-1,0,152.25)"><path
       d="M 44.379,75.103564 C 46.285,73.267564 47.152,70.551 48.246,68.316"
       style="fill:none;stroke:#000000;stroke-width:0.80000001;stroke-linecap:butt;stroke-linejoin:miter;stroke-miterlimit:4;stroke-opacity:1;stroke-dasharray:none"
       id="path136"
       inkscape:connector-curvature="0"
       sodipodi:nodetypes="cc" /></g><g
     id="g138"
     transform="matrix(1,0,0,-1,0,152.25)"><path
       d="m 52.086,73.305 c 0.555,-1.012 3.047,-5.102 3.734,-6.133"
       style="fill:none;stroke:#000000;stroke-width:0.80000001;stroke-linecap:butt;stroke-linejoin:miter;stroke-miterlimit:4;stroke-opacity:1;stroke-dasharray:none"
       id="path140"
       inkscape:connector-curvature="0" /></g><g
     id="g142"
     transform="matrix(1,0,0,-1,0,152.25)"><path
       d="m 58.444796,72.358845 c 0.675,-0.77 3.415281,-4.201563 4.028281,-4.990563"
       style="fill:none;stroke:#000000;stroke-width:0.80000001;stroke-linecap:butt;stroke-linejoin:miter;stroke-miterlimit:4;stroke-opacity:1;stroke-dasharray:none"
       id="path144"
       inkscape:connector-curvature="0"
       sodipodi:nodetypes="cc" /></g><g
     id="g146"
     transform="matrix(1,0,0,-1,0,152.25)"><path
       d="m 67.688,70.797 c 0.437,-0.961 1.289309,-2.353414 1.766309,-3.263414"
       style="fill:none;stroke:#000000;stroke-width:0.80000001;stroke-linecap:butt;stroke-linejoin:miter;stroke-miterlimit:4;stroke-opacity:1;stroke-dasharray:none"
       id="path148"
       inkscape:connector-curvature="0"
       sodipodi:nodetypes="cc" /></g><g
     id="g150"
     transform="matrix(1,0,0,-1,0,152.25)" /><g
     id="g154"
     transform="matrix(1,0,0,-1,0,152.25)"><path
       d="m 87.219,56.039 c 2.36604,1.320782 0.975867,6.682587 -0.395116,7.536372"
       style="fill:none;stroke:#000000;stroke-width:0.80000001;stroke-linecap:butt;stroke-linejoin:miter;stroke-miterlimit:4;stroke-opacity:1;stroke-dasharray:none"
       id="path156"
       inkscape:connector-curvature="0"
       sodipodi:nodetypes="cc" /></g><g
     id="g158"
     transform="matrix(1,0,0,-1,0,152.25)"><path
       d="m 72.648,44.668 c 0.07081,1.006659 -0.190498,1.525014 1.692077,2.344039"
       style="fill:none;stroke:#000000;stroke-width:0.80000001;stroke-linecap:butt;stroke-linejoin:miter;stroke-miterlimit:4;stroke-opacity:1;stroke-dasharray:none"
       id="path160"
       inkscape:connector-curvature="0"
       sodipodi:nodetypes="cc" /></g><g
     id="g162"
     transform="matrix(1,0,0,-1,0,152.25)"><path
       d="m 78.152,43.172 -0.279641,4.599602"
       style="fill:none;stroke:#000000;stroke-width:0.80000001;stroke-linecap:butt;stroke-linejoin:miter;stroke-miterlimit:4;stroke-opacity:1;stroke-dasharray:none"
       id="path164"
       inkscape:connector-curvature="0"
       sodipodi:nodetypes="cc" /></g><g
     id="g166"
     transform="matrix(1,0,0,-1,0,152.25)"><path
       d="M 78.589884,74.887077 81.227,72.863"
       style="fill:none;stroke:#000000;stroke-width:0.80000001;stroke-linecap:butt;stroke-linejoin:miter;stroke-miterlimit:4;stroke-opacity:1;stroke-dasharray:none"
       id="path168"
       inkscape:connector-curvature="0"
       sodipodi:nodetypes="cc" /></g><g
     id="g170"
     transform="matrix(1,0,0,-1,0,152.25)"><path
       d="m 83.642564,76.895 c 2.227,-1 4.568436,-1.012 6.279436,-3.266"
       style="fill:none;stroke:#000000;stroke-width:0.80000001;stroke-linecap:butt;stroke-linejoin:miter;stroke-miterlimit:4;stroke-opacity:1;stroke-dasharray:none"
       id="path172"
       inkscape:connector-curvature="0"
       sodipodi:nodetypes="cc" /></g><g
     id="g174"
     transform="matrix(1,0,0,-1,0,152.25)"><path
       d="M 94.560409,79.123668 C 95.451409,78.447668 97.488,76.473 98.02,75.641"
       style="fill:none;stroke:#000000;stroke-width:0.80000001;stroke-linecap:butt;stroke-linejoin:miter;stroke-miterlimit:4;stroke-opacity:1;stroke-dasharray:none"
       id="path176"
       inkscape:connector-curvature="0"
       sodipodi:nodetypes="cc" /></g><g
     id="g178"
     transform="matrix(1,0,0,-1,0,152.25)"><path
       d="M 103.06192,79.197475 105.352,75.238"
       style="fill:none;stroke:#000000;stroke-width:0.80000001;stroke-linecap:butt;stroke-linejoin:miter;stroke-miterlimit:4;stroke-opacity:1;stroke-dasharray:none"
       id="path180"
       inkscape:connector-curvature="0"
       sodipodi:nodetypes="cc" /></g><g
     id="g182"
     transform="matrix(1,0,0,-1,0,152.25)"><path
       d="m 111.99592,78.075116 c 0.387,-0.774 1.38708,-3.434116 1.62108,-4.169116"
       style="fill:none;stroke:#000000;stroke-width:0.80000001;stroke-linecap:butt;stroke-linejoin:miter;stroke-miterlimit:4;stroke-opacity:1;stroke-dasharray:none"
       id="path184"
       inkscape:connector-curvature="0"
       sodipodi:nodetypes="cc" /></g><g
     id="g186"
     transform="matrix(1,0,0,-1,0,152.25)"><path
       d="m 120.37508,75.044204 c 0.172,-0.942 1.56992,-4.899204 1.97692,-5.739204"
       style="fill:none;stroke:#000000;stroke-width:0.80000001;stroke-linecap:butt;stroke-linejoin:miter;stroke-miterlimit:4;stroke-opacity:1;stroke-dasharray:none"
       id="path188"
       inkscape:connector-curvature="0"
       sodipodi:nodetypes="cc" /></g><g
     id="g190"
     transform="matrix(1,0,0,-1,0,152.25)"><path
       d="M 129.219,68.459873 128.152,65.105"
       style="fill:none;stroke:#000000;stroke-width:0.80000001;stroke-linecap:butt;stroke-linejoin:miter;stroke-miterlimit:4;stroke-opacity:1;stroke-dasharray:none"
       id="path192"
       inkscape:connector-curvature="0"
       sodipodi:nodetypes="cc" /></g><g
     id="g194"
     transform="matrix(1,0,0,-1,0,152.25)"><path
       d="M 133.42481,61.774426 132.688,58.105"
       style="fill:none;stroke:#000000;stroke-width:0.80000001;stroke-linecap:butt;stroke-linejoin:miter;stroke-miterlimit:4;stroke-opacity:1;stroke-dasharray:none"
       id="path196"
       inkscape:connector-curvature="0"
       sodipodi:nodetypes="cc" /></g><g
     id="g198"
     transform="matrix(1,0,0,-1,0,152.25)"><path
       d="m 135.57369,57.363091 -0.97694,-3.64145"
       style="fill:none;stroke:#000000;stroke-width:0.80000001;stroke-linecap:butt;stroke-linejoin:miter;stroke-miterlimit:4;stroke-opacity:1;stroke-dasharray:none"
       id="path200"
       inkscape:connector-curvature="0"
       sodipodi:nodetypes="cc" /></g><g
     id="g202"
     transform="matrix(1,0,0,-1,0,152.25)" /><g
     id="g206"
     transform="matrix(1,0,0,-1,0,152.25)" /><g
     id="g210"
     transform="matrix(1,0,0,-1,0,152.25)" /><g
     id="g214"
     transform="matrix(1,0,0,-1,0,152.25)" /><g
     id="g218"
     transform="matrix(1,0,0,-1,0,152.25)" /><g
     id="g222"
     transform="matrix(1,0,0,-1,0,152.25)" /><g
     id="g226"
     transform="matrix(1,0,0,-1,0,152.25)" /><g
     id="g230"
     transform="matrix(1,0,0,-1,0,152.25)" /><g
     id="g234"
     transform="matrix(1,0,0,-1,0,152.25)" /><g
     id="g238"
     transform="matrix(1,0,0,-1,0,152.25)" /><g
     id="g242"
     transform="matrix(1,0,0,-1,0,152.25)" /><g
     id="g246"
     transform="matrix(1,0,0,-1,0,152.25)" /><g
     id="g250"
     transform="matrix(1,0,0,-1,0,152.25)" /><g
     id="g254"
     transform="matrix(1,0,0,-1,0,152.25)" /><g
     id="g258"
     transform="matrix(1,0,0,-1,0,152.25)" /></g><path
   style="fill:none;stroke:#000000;stroke-width:1px;stroke-linecap:butt;stroke-linejoin:miter;stroke-opacity:1;marker-end:url(#Arrow2Lend)"
   d="M 67.143075,115.61405 1.1404344,164.93783"
   id="path3239"
   inkscape:connector-curvature="0"
   transform="matrix(0.8,0,0,-0.8,0,152.25)" /><path
   style="fill:none;stroke:#000000;stroke-width:1px;stroke-linecap:butt;stroke-linejoin:miter;stroke-opacity:1;marker-end:url(#Arrow2Lend)"
   d="m 67.28563,115.47149 115.46898,52.60254"
   id="path4819"
   inkscape:connector-curvature="0"
   transform="matrix(0.8,0,0,-0.8,0,152.25)" /><path
   style="fill:none;stroke:#000000;stroke-width:1px;stroke-linecap:butt;stroke-linejoin:miter;stroke-opacity:1"
   d="m 67.143075,115.32894 0,-24.234233"
   id="path5005"
   inkscape:connector-curvature="0"
   transform="matrix(0.8,0,0,-0.8,0,152.25)" /><path
   style="fill:none;stroke:#000000;stroke-width:1px;stroke-linecap:butt;stroke-linejoin:miter;stroke-opacity:1;marker-end:url(#Arrow2Lend)"
   d="m 67.000521,70.286845 0,-67.1481414"
   id="path5009"
   inkscape:connector-curvature="0"
   transform="matrix(0.8,0,0,-0.8,0,152.25)"
   sodipodi:nodetypes="cc" /><path
   style="fill:none;stroke:#007100;stroke-width:2;stroke-linecap:butt;stroke-linejoin:miter;stroke-opacity:1;stroke-miterlimit:4;stroke-dasharray:none"
   d="m 140.86956,46.771716 c 15.26457,-18.230138 28.0009,-6.361193 31.73753,2.761255 1.85275,4.523235 0.0625,15.213723 -1.2452,14.778138"
   id="path5240"
   inkscape:connector-curvature="0"
   transform="matrix(0.8,0,0,-0.8,0,152.25)"
   sodipodi:nodetypes="csc" /><path
   style="fill:none;stroke:#007100;stroke-width:2;stroke-linecap:butt;stroke-linejoin:miter;stroke-miterlimit:4;stroke-opacity:0.57258061000000005;stroke-dasharray:4,2;stroke-dashoffset:0"
   d="M 171.46269,64.31111 C 149.66328,84.33363 135.98433,58.369734 140.91996,46.973318"
   id="path5424"
   inkscape:connector-curvature="0"
   transform="matrix(0.8,0,0,-0.8,0,152.25)"
   sodipodi:nodetypes="cc" /><path
   d="m 39.677429,76.399396 c 16.285,5.886 65.218041,17.901039 42.844184,35.195344"
   style="fill:none;stroke:#0000cd;stroke-width:1.60000000000000010;stroke-linecap:butt;stroke-linejoin:miter;stroke-miterlimit:4;stroke-opacity:1;stroke-dasharray:none"
   id="path64-9"
   inkscape:connector-curvature="0"
   sodipodi:nodetypes="cc" /><path
   d="m 68.238887,92.20243 c -4.065213,13.23701 9.681691,22.99749 14.504305,19.22048"
   style="fill:none;stroke:#0000cd;stroke-width:1.60000000000000010;stroke-linecap:butt;stroke-linejoin:miter;stroke-miterlimit:4;stroke-opacity:0.63709676;stroke-dasharray:3.20000000000000020, 1.60000000000000010;stroke-dashoffset:0"
   id="path64-4"
   inkscape:connector-curvature="0"
   sodipodi:nodetypes="cc" /><path
   style="fill:none;stroke:#0000cd;stroke-width:2;stroke-linecap:butt;stroke-linejoin:miter;stroke-opacity:1;stroke-miterlimit:4;stroke-dasharray:none"
   d="m 114.61366,97.652204 c 44.46524,6.232206 9.12607,-47.578708 41.91096,-60.157914"
   id="path5455"
   inkscape:connector-curvature="0"
   transform="matrix(0.8,0,0,-0.8,0,152.25)"
   sodipodi:nodetypes="cc" /><path
   d="m 91.719212,73.936302 c -5.244501,1.597245 -11.156304,4.185094 -16.659923,8.875481"
   style="fill:none;stroke:#0000cd;stroke-width:1.60000000000000010;stroke-linecap:butt;stroke-linejoin:miter;stroke-miterlimit:4;stroke-opacity:0.63709676;stroke-dasharray:3.20000000000000020, 1.60000000000000010;stroke-dashoffset:0"
   id="path64-4-8"
   inkscape:connector-curvature="0"
   sodipodi:nodetypes="cc" /><text
   xml:space="preserve"
   style="font-size:9.03065491px;font-style:normal;font-weight:normal;line-height:125%;letter-spacing:0px;word-spacing:0px;fill:#000000;fill-opacity:1;stroke:none;font-family:Sans"
   x="117.02468"
   y="-131.85782"
   id="text8415-2-1"
   sodipodi:linespacing="125%"
   transform="scale(1.0297675,-0.97109298)"><tspan
     sodipodi:role="line"
     id="tspan8417-3-6"
     x="117.02468"
     y="-131.85782">x(t)</tspan></text>

<text
   xml:space="preserve"
   style="font-size:9.03065491px;font-style:normal;font-weight:normal;line-height:125%;letter-spacing:0px;word-spacing:0px;fill:#000000;fill-opacity:1;stroke:none;font-family:Sans"
   x="23.406857"
   y="-66.672791"
   id="text8415-2-1-8"
   sodipodi:linespacing="125%"
   transform="scale(1.0297675,-0.97109298)"><tspan
     sodipodi:role="line"
     id="tspan8417-3-6-5"
     x="23.406857"
     y="-66.672791">x(0)</tspan></text>

</g><g
     inkscape:groupmode="layer"
     id="layer1"
     inkscape:label="Wurst"
     style="display:inline"
     transform="translate(-0.08718696,-1.8106852)"><path
       sodipodi:type="arc"
       style="fill:none;stroke:#007100;stroke-width:1.98866696;stroke-miterlimit:4;stroke-opacity:1;stroke-dasharray:none;stroke-dashoffset:0"
       id="path5232"
       sodipodi:cx="58.090878"
       sodipodi:cy="82.648361"
       sodipodi:rx="8.9809208"
       sodipodi:ry="12.651694"
       d="m 67.071798,82.648361 c 0,6.987338 -4.020895,12.651695 -8.98092,12.651695 -4.960026,0 -8.980921,-5.664357 -8.980921,-12.651695 0,-6.987338 4.020895,-12.651694 8.980921,-12.651694 4.960025,0 8.98092,5.664356 8.98092,12.651694 z"
       transform="matrix(1.0114301,0,0,1,-10.971862,0.2138375)" /><path
       sodipodi:type="arc"
       style="fill:#000000;fill-opacity:1;stroke:#000000;stroke-width:0.80000001;stroke-miterlimit:4;stroke-opacity:1;stroke-dasharray:none;stroke-dashoffset:0"
       id="path3237-4"
       sodipodi:cx="67.285629"
       sodipodi:cy="116.46938"
       sodipodi:rx="2.2808688"
       sodipodi:ry="2.2808688"
       d="m 69.566498,116.46938 c 0,1.25969 -1.02118,2.28087 -2.280869,2.28087 -1.259689,0 -2.280868,-1.02118 -2.280868,-2.28087 0,-1.25969 1.021179,-2.28087 2.280868,-2.28087 1.259689,0 2.280869,1.02118 2.280869,2.28087 z"
       transform="translate(-17.890565,-21.810812)" /><path
       sodipodi:type="arc"
       style="fill:#000000;fill-opacity:1;stroke:#000000;stroke-width:0.80000001;stroke-miterlimit:4;stroke-opacity:1;stroke-dasharray:none;stroke-dashoffset:0"
       id="path3237-0"
       sodipodi:cx="67.285629"
       sodipodi:cy="116.46938"
       sodipodi:rx="2.2808688"
       sodipodi:ry="2.2808688"
       d="m 69.566498,116.46938 c 0,1.25969 -1.02118,2.28087 -2.280869,2.28087 -1.259689,0 -2.280868,-1.02118 -2.280868,-2.28087 0,-1.25969 1.021179,-2.28087 2.280868,-2.28087 1.259689,0 2.280869,1.02118 2.280869,2.28087 z"
       transform="translate(89.519904,-79.227342)" /><path
       sodipodi:type="arc"
       style="fill:#ffffff;fill-opacity:1;stroke:#000000;stroke-width:0.80000001;stroke-miterlimit:4;stroke-opacity:1;stroke-dasharray:none;stroke-dashoffset:0"
       id="path3237"
       sodipodi:cx="67.285629"
       sodipodi:cy="116.46938"
       sodipodi:rx="2.2808688"
       sodipodi:ry="2.2808688"
       d="m 69.566498,116.46938 c 0,1.25969 -1.02118,2.28087 -2.280869,2.28087 -1.259689,0 -2.280868,-1.02118 -2.280868,-2.28087 0,-1.25969 1.021179,-2.28087 2.280868,-2.28087 1.259689,0 2.280869,1.02118 2.280869,2.28087 z"
       transform="translate(0,-0.855325)" /></g></svg>