<?xml version="1.0" encoding="UTF-8" standalone="no"?>
<!-- Created with Inkscape (http://www.inkscape.org/) -->

<svg
   xmlns:dc="http://purl.org/dc/elements/1.1/"
   xmlns:cc="http://creativecommons.org/ns#"
   xmlns:rdf="http://www.w3.org/1999/02/22-rdf-syntax-ns#"
   xmlns:svg="http://www.w3.org/2000/svg"
   xmlns="http://www.w3.org/2000/svg"
   xmlns:sodipodi="http://sodipodi.sourceforge.net/DTD/sodipodi-0.dtd"
   xmlns:inkscape="http://www.inkscape.org/namespaces/inkscape"
   width="744.09448819"
   height="1052.3622047"
   id="svg2"
   version="1.1"
   inkscape:version="0.48.4 r9939"
   sodipodi:docname="fiberBundle.svg">
  <defs
     id="defs4">
    <inkscape:path-effect
       effect="envelope"
       id="path-effect11677"
       is_visible="true"
       yy="true"
       xx="true"
       bendpath1="m 146.14704,224.1479 287.56307,0"
       bendpath2="m 433.71011,224.1479 0,145.0836"
       bendpath3="m 146.14704,369.2315 287.56307,0"
       bendpath4="m 146.14704,224.1479 0,145.0836" />
    <marker
       inkscape:stockid="DotS"
       orient="auto"
       refY="0.0"
       refX="0.0"
       id="DotS"
       style="overflow:visible">
      <path
         id="path3860"
         d="M -2.5,-1.0 C -2.5,1.7600000 -4.7400000,4.0 -7.5,4.0 C -10.260000,4.0 -12.5,1.7600000 -12.5,-1.0 C -12.5,-3.7600000 -10.260000,-6.0 -7.5,-6.0 C -4.7400000,-6.0 -2.5,-3.7600000 -2.5,-1.0 z "
         style="fill-rule:evenodd;stroke:#000000;stroke-width:1.0pt"
         transform="scale(0.2) translate(7.4, 1)" />
    </marker>
    <marker
       inkscape:stockid="DotM"
       orient="auto"
       refY="0.0"
       refX="0.0"
       id="DotM"
       style="overflow:visible">
      <path
         id="path3857"
         d="M -2.5,-1.0 C -2.5,1.7600000 -4.7400000,4.0 -7.5,4.0 C -10.260000,4.0 -12.5,1.7600000 -12.5,-1.0 C -12.5,-3.7600000 -10.260000,-6.0 -7.5,-6.0 C -4.7400000,-6.0 -2.5,-3.7600000 -2.5,-1.0 z "
         style="fill-rule:evenodd;stroke:#000000;stroke-width:1.0pt"
         transform="scale(0.4) translate(7.4, 1)" />
    </marker>
    <marker
       inkscape:stockid="DotL"
       orient="auto"
       refY="0.0"
       refX="0.0"
       id="DotL"
       style="overflow:visible">
      <path
         id="path3854"
         d="M -2.5,-1.0 C -2.5,1.7600000 -4.7400000,4.0 -7.5,4.0 C -10.260000,4.0 -12.5,1.7600000 -12.5,-1.0 C -12.5,-3.7600000 -10.260000,-6.0 -7.5,-6.0 C -4.7400000,-6.0 -2.5,-3.7600000 -2.5,-1.0 z "
         style="fill-rule:evenodd;stroke:#000000;stroke-width:1.0pt"
         transform="scale(0.8) translate(7.4, 1)" />
    </marker>
    <inkscape:path-effect
       effect="spiro"
       id="path-effect10441"
       is_visible="true" />
    <marker
       inkscape:stockid="Arrow2Lstart"
       orient="auto"
       refY="0.0"
       refX="0.0"
       id="Arrow2Lstart"
       style="overflow:visible">
      <path
         id="path3811"
         style="fill-rule:evenodd;stroke-width:0.62500000;stroke-linejoin:round"
         d="M 8.7185878,4.0337352 L -2.2072895,0.016013256 L 8.7185884,-4.0017078 C 6.9730900,-1.6296469 6.9831476,1.6157441 8.7185878,4.0337352 z "
         transform="scale(1.1) translate(1,0)" />
    </marker>
    <marker
       inkscape:stockid="Arrow1Mstart"
       orient="auto"
       refY="0.0"
       refX="0.0"
       id="Arrow1Mstart"
       style="overflow:visible">
      <path
         id="path3799"
         d="M 0.0,0.0 L 5.0,-5.0 L -12.5,0.0 L 5.0,5.0 L 0.0,0.0 z "
         style="fill-rule:evenodd;stroke:#000000;stroke-width:1.0pt"
         transform="scale(0.4) translate(10,0)" />
    </marker>
    <marker
       inkscape:stockid="Arrow2Mstart"
       orient="auto"
       refY="0.0"
       refX="0.0"
       id="Arrow2Mstart"
       style="overflow:visible">
      <path
         id="path3817"
         style="fill-rule:evenodd;stroke-width:0.62500000;stroke-linejoin:round"
         d="M 8.7185878,4.0337352 L -2.2072895,0.016013256 L 8.7185884,-4.0017078 C 6.9730900,-1.6296469 6.9831476,1.6157441 8.7185878,4.0337352 z "
         transform="scale(0.6) translate(0,0)" />
    </marker>
    <marker
       inkscape:stockid="Arrow2Mend"
       orient="auto"
       refY="0.0"
       refX="0.0"
       id="Arrow2Mend"
       style="overflow:visible;">
      <path
         id="path3820"
         style="fill-rule:evenodd;stroke-width:0.62500000;stroke-linejoin:round;"
         d="M 8.7185878,4.0337352 L -2.2072895,0.016013256 L 8.7185884,-4.0017078 C 6.9730900,-1.6296469 6.9831476,1.6157441 8.7185878,4.0337352 z "
         transform="scale(0.6) rotate(180) translate(0,0)" />
    </marker>
    <marker
       inkscape:stockid="Arrow2Lend"
       orient="auto"
       refY="0.0"
       refX="0.0"
       id="Arrow2Lend"
       style="overflow:visible;">
      <path
         id="path3814"
         style="fill-rule:evenodd;stroke-width:0.62500000;stroke-linejoin:round;"
         d="M 8.7185878,4.0337352 L -2.2072895,0.016013256 L 8.7185884,-4.0017078 C 6.9730900,-1.6296469 6.9831476,1.6157441 8.7185878,4.0337352 z "
         transform="scale(1.1) rotate(180) translate(1,0)" />
    </marker>
    <marker
       inkscape:stockid="Arrow1Lstart"
       orient="auto"
       refY="0.0"
       refX="0.0"
       id="Arrow1Lstart"
       style="overflow:visible">
      <path
         id="path3793"
         d="M 0.0,0.0 L 5.0,-5.0 L -12.5,0.0 L 5.0,5.0 L 0.0,0.0 z "
         style="fill-rule:evenodd;stroke:#000000;stroke-width:1.0pt"
         transform="scale(0.8) translate(12.5,0)" />
    </marker>
    <marker
       inkscape:stockid="Arrow2Lstart"
       orient="auto"
       refY="0"
       refX="0"
       id="Arrow2Lstart-1"
       style="overflow:visible">
      <path
         inkscape:connector-curvature="0"
         id="path3811-7"
         style="fill-rule:evenodd;stroke-width:0.625;stroke-linejoin:round"
         d="M 8.7185878,4.0337352 -2.2072895,0.01601326 8.7185884,-4.0017078 c -1.7454984,2.3720609 -1.7354408,5.6174519 -6e-7,8.035443 z"
         transform="matrix(1.1,0,0,1.1,1.1,0)" />
    </marker>
    <marker
       inkscape:stockid="Arrow2Lstart"
       orient="auto"
       refY="0"
       refX="0"
       id="Arrow2Lstart-8"
       style="overflow:visible">
      <path
         inkscape:connector-curvature="0"
         id="path3811-3"
         style="fill-rule:evenodd;stroke-width:0.625;stroke-linejoin:round"
         d="M 8.7185878,4.0337352 -2.2072895,0.01601326 8.7185884,-4.0017078 c -1.7454984,2.3720609 -1.7354408,5.6174519 -6e-7,8.035443 z"
         transform="matrix(1.1,0,0,1.1,1.1,0)" />
    </marker>
    <marker
       inkscape:stockid="Arrow2Lstart"
       orient="auto"
       refY="0"
       refX="0"
       id="Arrow2Lstart-9"
       style="overflow:visible">
      <path
         inkscape:connector-curvature="0"
         id="path3811-0"
         style="fill-rule:evenodd;stroke-width:0.625;stroke-linejoin:round"
         d="M 8.7185878,4.0337352 -2.2072895,0.01601326 8.7185884,-4.0017078 c -1.7454984,2.3720609 -1.7354408,5.6174519 -6e-7,8.035443 z"
         transform="matrix(1.1,0,0,1.1,1.1,0)" />
    </marker>
    <marker
       inkscape:stockid="Arrow2Lstart"
       orient="auto"
       refY="0"
       refX="0"
       id="Arrow2Lstart-97"
       style="overflow:visible">
      <path
         inkscape:connector-curvature="0"
         id="path3811-4"
         style="fill-rule:evenodd;stroke-width:0.625;stroke-linejoin:round"
         d="M 8.7185878,4.0337352 -2.2072895,0.01601326 8.7185884,-4.0017078 c -1.7454984,2.3720609 -1.7354408,5.6174519 -6e-7,8.035443 z"
         transform="matrix(1.1,0,0,1.1,1.1,0)" />
    </marker>
    <marker
       inkscape:stockid="Arrow2Lstart"
       orient="auto"
       refY="0"
       refX="0"
       id="Arrow2Lstart-0"
       style="overflow:visible">
      <path
         inkscape:connector-curvature="0"
         id="path3811-9"
         style="fill-rule:evenodd;stroke-width:0.625;stroke-linejoin:round"
         d="M 8.7185878,4.0337352 -2.2072895,0.01601326 8.7185884,-4.0017078 c -1.7454984,2.3720609 -1.7354408,5.6174519 -6e-7,8.035443 z"
         transform="matrix(1.1,0,0,1.1,1.1,0)" />
    </marker>
    <marker
       inkscape:stockid="Arrow2Lstart"
       orient="auto"
       refY="0"
       refX="0"
       id="Arrow2Lstart-4"
       style="overflow:visible">
      <path
         inkscape:connector-curvature="0"
         id="path3811-47"
         style="fill-rule:evenodd;stroke-width:0.625;stroke-linejoin:round"
         d="M 8.7185878,4.0337352 -2.2072895,0.01601326 8.7185884,-4.0017078 c -1.7454984,2.3720609 -1.7354408,5.6174519 -6e-7,8.035443 z"
         transform="matrix(1.1,0,0,1.1,1.1,0)" />
    </marker>
    <marker
       inkscape:stockid="Arrow2Lstart"
       orient="auto"
       refY="0"
       refX="0"
       id="Arrow2Lstart-89"
       style="overflow:visible">
      <path
         inkscape:connector-curvature="0"
         id="path3811-49"
         style="fill-rule:evenodd;stroke-width:0.625;stroke-linejoin:round"
         d="M 8.7185878,4.0337352 -2.2072895,0.01601326 8.7185884,-4.0017078 c -1.7454984,2.3720609 -1.7354408,5.6174519 -6e-7,8.035443 z"
         transform="matrix(1.1,0,0,1.1,1.1,0)" />
    </marker>
    <marker
       inkscape:stockid="Arrow1Mstart"
       orient="auto"
       refY="0"
       refX="0"
       id="Arrow1Mstart-5"
       style="overflow:visible">
      <path
         inkscape:connector-curvature="0"
         id="path3799-3"
         d="M 0,0 5,-5 -12.5,0 5,5 0,0 z"
         style="fill-rule:evenodd;stroke:#000000;stroke-width:1pt"
         transform="matrix(0.4,0,0,0.4,4,0)" />
    </marker>
    <marker
       inkscape:stockid="DotM"
       orient="auto"
       refY="0"
       refX="0"
       id="DotM-5"
       style="overflow:visible">
      <path
         inkscape:connector-curvature="0"
         id="path3857-1"
         d="m -2.5,-1 c 0,2.76 -2.24,5 -5,5 -2.76,0 -5,-2.24 -5,-5 0,-2.76 2.24,-5 5,-5 2.76,0 5,2.24 5,5 z"
         style="fill-rule:evenodd;stroke:#000000;stroke-width:1pt"
         transform="matrix(0.4,0,0,0.4,2.96,0.4)" />
    </marker>
    <marker
       inkscape:stockid="DotM"
       orient="auto"
       refY="0"
       refX="0"
       id="marker13456"
       style="overflow:visible">
      <path
         inkscape:connector-curvature="0"
         id="path13458"
         d="m -2.5,-1 c 0,2.76 -2.24,5 -5,5 -2.76,0 -5,-2.24 -5,-5 0,-2.76 2.24,-5 5,-5 2.76,0 5,2.24 5,5 z"
         style="fill-rule:evenodd;stroke:#000000;stroke-width:1pt"
         transform="matrix(0.4,0,0,0.4,2.96,0.4)" />
    </marker>
    <marker
       inkscape:stockid="DotM"
       orient="auto"
       refY="0"
       refX="0"
       id="marker13460"
       style="overflow:visible">
      <path
         inkscape:connector-curvature="0"
         id="path13462"
         d="m -2.5,-1 c 0,2.76 -2.24,5 -5,5 -2.76,0 -5,-2.24 -5,-5 0,-2.76 2.24,-5 5,-5 2.76,0 5,2.24 5,5 z"
         style="fill-rule:evenodd;stroke:#000000;stroke-width:1pt"
         transform="matrix(0.4,0,0,0.4,2.96,0.4)" />
    </marker>
    <marker
       inkscape:stockid="Arrow1Mstart"
       orient="auto"
       refY="0"
       refX="0"
       id="Arrow1Mstart-8"
       style="overflow:visible">
      <path
         inkscape:connector-curvature="0"
         id="path3799-0"
         d="M 0,0 5,-5 -12.5,0 5,5 0,0 z"
         style="fill-rule:evenodd;stroke:#000000;stroke-width:1pt"
         transform="matrix(0.4,0,0,0.4,4,0)" />
    </marker>
    <marker
       inkscape:stockid="DotM"
       orient="auto"
       refY="0"
       refX="0"
       id="DotM-0"
       style="overflow:visible">
      <path
         inkscape:connector-curvature="0"
         id="path3857-0"
         d="m -2.5,-1 c 0,2.76 -2.24,5 -5,5 -2.76,0 -5,-2.24 -5,-5 0,-2.76 2.24,-5 5,-5 2.76,0 5,2.24 5,5 z"
         style="fill-rule:evenodd;stroke:#000000;stroke-width:1pt"
         transform="matrix(0.4,0,0,0.4,2.96,0.4)" />
    </marker>
    <marker
       inkscape:stockid="DotM"
       orient="auto"
       refY="0"
       refX="0"
       id="marker13456-0"
       style="overflow:visible">
      <path
         inkscape:connector-curvature="0"
         id="path13458-1"
         d="m -2.5,-1 c 0,2.76 -2.24,5 -5,5 -2.76,0 -5,-2.24 -5,-5 0,-2.76 2.24,-5 5,-5 2.76,0 5,2.24 5,5 z"
         style="fill-rule:evenodd;stroke:#000000;stroke-width:1pt"
         transform="matrix(0.4,0,0,0.4,2.96,0.4)" />
    </marker>
    <marker
       inkscape:stockid="DotM"
       orient="auto"
       refY="0"
       refX="0"
       id="marker13460-9"
       style="overflow:visible">
      <path
         inkscape:connector-curvature="0"
         id="path13462-7"
         d="m -2.5,-1 c 0,2.76 -2.24,5 -5,5 -2.76,0 -5,-2.24 -5,-5 0,-2.76 2.24,-5 5,-5 2.76,0 5,2.24 5,5 z"
         style="fill-rule:evenodd;stroke:#000000;stroke-width:1pt"
         transform="matrix(0.4,0,0,0.4,2.96,0.4)" />
    </marker>
    <marker
       inkscape:stockid="Arrow1Mstart"
       orient="auto"
       refY="0"
       refX="0"
       id="Arrow1Mstart-0"
       style="overflow:visible">
      <path
         inkscape:connector-curvature="0"
         id="path3799-5"
         d="M 0,0 5,-5 -12.5,0 5,5 0,0 z"
         style="fill-rule:evenodd;stroke:#000000;stroke-width:1pt"
         transform="matrix(0.4,0,0,0.4,4,0)" />
    </marker>
    <marker
       inkscape:stockid="DotM"
       orient="auto"
       refY="0"
       refX="0"
       id="DotM-2"
       style="overflow:visible">
      <path
         inkscape:connector-curvature="0"
         id="path3857-09"
         d="m -2.5,-1 c 0,2.76 -2.24,5 -5,5 -2.76,0 -5,-2.24 -5,-5 0,-2.76 2.24,-5 5,-5 2.76,0 5,2.24 5,5 z"
         style="fill-rule:evenodd;stroke:#000000;stroke-width:1pt"
         transform="matrix(0.4,0,0,0.4,2.96,0.4)" />
    </marker>
    <marker
       inkscape:stockid="DotM"
       orient="auto"
       refY="0"
       refX="0"
       id="marker13456-6"
       style="overflow:visible">
      <path
         inkscape:connector-curvature="0"
         id="path13458-8"
         d="m -2.5,-1 c 0,2.76 -2.24,5 -5,5 -2.76,0 -5,-2.24 -5,-5 0,-2.76 2.24,-5 5,-5 2.76,0 5,2.24 5,5 z"
         style="fill-rule:evenodd;stroke:#000000;stroke-width:1pt"
         transform="matrix(0.4,0,0,0.4,2.96,0.4)" />
    </marker>
    <marker
       inkscape:stockid="DotM"
       orient="auto"
       refY="0"
       refX="0"
       id="marker13460-8"
       style="overflow:visible">
      <path
         inkscape:connector-curvature="0"
         id="path13462-2"
         d="m -2.5,-1 c 0,2.76 -2.24,5 -5,5 -2.76,0 -5,-2.24 -5,-5 0,-2.76 2.24,-5 5,-5 2.76,0 5,2.24 5,5 z"
         style="fill-rule:evenodd;stroke:#000000;stroke-width:1pt"
         transform="matrix(0.4,0,0,0.4,2.96,0.4)" />
    </marker>
    <marker
       inkscape:stockid="Arrow1Mstart"
       orient="auto"
       refY="0"
       refX="0"
       id="Arrow1Mstart-3"
       style="overflow:visible">
      <path
         inkscape:connector-curvature="0"
         id="path3799-1"
         d="M 0,0 5,-5 -12.5,0 5,5 0,0 z"
         style="fill-rule:evenodd;stroke:#000000;stroke-width:1pt"
         transform="matrix(0.4,0,0,0.4,4,0)" />
    </marker>
    <marker
       inkscape:stockid="DotM"
       orient="auto"
       refY="0"
       refX="0"
       id="DotM-9"
       style="overflow:visible">
      <path
         inkscape:connector-curvature="0"
         id="path3857-8"
         d="m -2.5,-1 c 0,2.76 -2.24,5 -5,5 -2.76,0 -5,-2.24 -5,-5 0,-2.76 2.24,-5 5,-5 2.76,0 5,2.24 5,5 z"
         style="fill-rule:evenodd;stroke:#000000;stroke-width:1pt"
         transform="matrix(0.4,0,0,0.4,2.96,0.4)" />
    </marker>
    <marker
       inkscape:stockid="DotM"
       orient="auto"
       refY="0"
       refX="0"
       id="marker14359"
       style="overflow:visible">
      <path
         inkscape:connector-curvature="0"
         id="path14361"
         d="m -2.5,-1 c 0,2.76 -2.24,5 -5,5 -2.76,0 -5,-2.24 -5,-5 0,-2.76 2.24,-5 5,-5 2.76,0 5,2.24 5,5 z"
         style="fill-rule:evenodd;stroke:#000000;stroke-width:1pt"
         transform="matrix(0.4,0,0,0.4,2.96,0.4)" />
    </marker>
    <marker
       inkscape:stockid="DotM"
       orient="auto"
       refY="0"
       refX="0"
       id="marker14363"
       style="overflow:visible">
      <path
         inkscape:connector-curvature="0"
         id="path14365"
         d="m -2.5,-1 c 0,2.76 -2.24,5 -5,5 -2.76,0 -5,-2.24 -5,-5 0,-2.76 2.24,-5 5,-5 2.76,0 5,2.24 5,5 z"
         style="fill-rule:evenodd;stroke:#000000;stroke-width:1pt"
         transform="matrix(0.4,0,0,0.4,2.96,0.4)" />
    </marker>
    <marker
       inkscape:stockid="Arrow1Mstart"
       orient="auto"
       refY="0"
       refX="0"
       id="marker14367"
       style="overflow:visible">
      <path
         inkscape:connector-curvature="0"
         id="path14369"
         d="M 0,0 5,-5 -12.5,0 5,5 0,0 z"
         style="fill-rule:evenodd;stroke:#000000;stroke-width:1pt"
         transform="matrix(0.4,0,0,0.4,4,0)" />
    </marker>
    <marker
       inkscape:stockid="DotM"
       orient="auto"
       refY="0"
       refX="0"
       id="marker14371"
       style="overflow:visible">
      <path
         inkscape:connector-curvature="0"
         id="path14373"
         d="m -2.5,-1 c 0,2.76 -2.24,5 -5,5 -2.76,0 -5,-2.24 -5,-5 0,-2.76 2.24,-5 5,-5 2.76,0 5,2.24 5,5 z"
         style="fill-rule:evenodd;stroke:#000000;stroke-width:1pt"
         transform="matrix(0.4,0,0,0.4,2.96,0.4)" />
    </marker>
    <marker
       inkscape:stockid="DotM"
       orient="auto"
       refY="0"
       refX="0"
       id="marker14375"
       style="overflow:visible">
      <path
         inkscape:connector-curvature="0"
         id="path14377"
         d="m -2.5,-1 c 0,2.76 -2.24,5 -5,5 -2.76,0 -5,-2.24 -5,-5 0,-2.76 2.24,-5 5,-5 2.76,0 5,2.24 5,5 z"
         style="fill-rule:evenodd;stroke:#000000;stroke-width:1pt"
         transform="matrix(0.4,0,0,0.4,2.96,0.4)" />
    </marker>
    <marker
       inkscape:stockid="DotM"
       orient="auto"
       refY="0"
       refX="0"
       id="marker14379"
       style="overflow:visible">
      <path
         inkscape:connector-curvature="0"
         id="path14381"
         d="m -2.5,-1 c 0,2.76 -2.24,5 -5,5 -2.76,0 -5,-2.24 -5,-5 0,-2.76 2.24,-5 5,-5 2.76,0 5,2.24 5,5 z"
         style="fill-rule:evenodd;stroke:#000000;stroke-width:1pt"
         transform="matrix(0.4,0,0,0.4,2.96,0.4)" />
    </marker>
    <marker
       inkscape:stockid="Arrow1Mstart"
       orient="auto"
       refY="0"
       refX="0"
       id="marker14383"
       style="overflow:visible">
      <path
         inkscape:connector-curvature="0"
         id="path14385"
         d="M 0,0 5,-5 -12.5,0 5,5 0,0 z"
         style="fill-rule:evenodd;stroke:#000000;stroke-width:1pt"
         transform="matrix(0.4,0,0,0.4,4,0)" />
    </marker>
    <marker
       inkscape:stockid="DotM"
       orient="auto"
       refY="0"
       refX="0"
       id="marker14387"
       style="overflow:visible">
      <path
         inkscape:connector-curvature="0"
         id="path14389"
         d="m -2.5,-1 c 0,2.76 -2.24,5 -5,5 -2.76,0 -5,-2.24 -5,-5 0,-2.76 2.24,-5 5,-5 2.76,0 5,2.24 5,5 z"
         style="fill-rule:evenodd;stroke:#000000;stroke-width:1pt"
         transform="matrix(0.4,0,0,0.4,2.96,0.4)" />
    </marker>
    <marker
       inkscape:stockid="DotM"
       orient="auto"
       refY="0"
       refX="0"
       id="marker14391"
       style="overflow:visible">
      <path
         inkscape:connector-curvature="0"
         id="path14393"
         d="m -2.5,-1 c 0,2.76 -2.24,5 -5,5 -2.76,0 -5,-2.24 -5,-5 0,-2.76 2.24,-5 5,-5 2.76,0 5,2.24 5,5 z"
         style="fill-rule:evenodd;stroke:#000000;stroke-width:1pt"
         transform="matrix(0.4,0,0,0.4,2.96,0.4)" />
    </marker>
    <marker
       inkscape:stockid="DotM"
       orient="auto"
       refY="0"
       refX="0"
       id="marker14395"
       style="overflow:visible">
      <path
         inkscape:connector-curvature="0"
         id="path14397"
         d="m -2.5,-1 c 0,2.76 -2.24,5 -5,5 -2.76,0 -5,-2.24 -5,-5 0,-2.76 2.24,-5 5,-5 2.76,0 5,2.24 5,5 z"
         style="fill-rule:evenodd;stroke:#000000;stroke-width:1pt"
         transform="matrix(0.4,0,0,0.4,2.96,0.4)" />
    </marker>
    <marker
       inkscape:stockid="Arrow1Mstart"
       orient="auto"
       refY="0"
       refX="0"
       id="marker14399"
       style="overflow:visible">
      <path
         inkscape:connector-curvature="0"
         id="path14401"
         d="M 0,0 5,-5 -12.5,0 5,5 0,0 z"
         style="fill-rule:evenodd;stroke:#000000;stroke-width:1pt"
         transform="matrix(0.4,0,0,0.4,4,0)" />
    </marker>
    <marker
       inkscape:stockid="DotM"
       orient="auto"
       refY="0"
       refX="0"
       id="marker14403"
       style="overflow:visible">
      <path
         inkscape:connector-curvature="0"
         id="path14405"
         d="m -2.5,-1 c 0,2.76 -2.24,5 -5,5 -2.76,0 -5,-2.24 -5,-5 0,-2.76 2.24,-5 5,-5 2.76,0 5,2.24 5,5 z"
         style="fill-rule:evenodd;stroke:#000000;stroke-width:1pt"
         transform="matrix(0.4,0,0,0.4,2.96,0.4)" />
    </marker>
    <marker
       inkscape:stockid="DotM"
       orient="auto"
       refY="0"
       refX="0"
       id="marker14407"
       style="overflow:visible">
      <path
         inkscape:connector-curvature="0"
         id="path14409"
         d="m -2.5,-1 c 0,2.76 -2.24,5 -5,5 -2.76,0 -5,-2.24 -5,-5 0,-2.76 2.24,-5 5,-5 2.76,0 5,2.24 5,5 z"
         style="fill-rule:evenodd;stroke:#000000;stroke-width:1pt"
         transform="matrix(0.4,0,0,0.4,2.96,0.4)" />
    </marker>
    <marker
       inkscape:stockid="DotM"
       orient="auto"
       refY="0"
       refX="0"
       id="marker14411"
       style="overflow:visible">
      <path
         inkscape:connector-curvature="0"
         id="path14413"
         d="m -2.5,-1 c 0,2.76 -2.24,5 -5,5 -2.76,0 -5,-2.24 -5,-5 0,-2.76 2.24,-5 5,-5 2.76,0 5,2.24 5,5 z"
         style="fill-rule:evenodd;stroke:#000000;stroke-width:1pt"
         transform="matrix(0.4,0,0,0.4,2.96,0.4)" />
    </marker>
    <marker
       inkscape:stockid="Arrow1Mstart"
       orient="auto"
       refY="0"
       refX="0"
       id="Arrow1Mstart-7"
       style="overflow:visible">
      <path
         inkscape:connector-curvature="0"
         id="path3799-8"
         d="M 0,0 5,-5 -12.5,0 5,5 0,0 z"
         style="fill-rule:evenodd;stroke:#000000;stroke-width:1pt"
         transform="matrix(0.4,0,0,0.4,4,0)" />
    </marker>
    <marker
       inkscape:stockid="DotM"
       orient="auto"
       refY="0"
       refX="0"
       id="DotM-1"
       style="overflow:visible">
      <path
         inkscape:connector-curvature="0"
         id="path3857-9"
         d="m -2.5,-1 c 0,2.76 -2.24,5 -5,5 -2.76,0 -5,-2.24 -5,-5 0,-2.76 2.24,-5 5,-5 2.76,0 5,2.24 5,5 z"
         style="fill-rule:evenodd;stroke:#000000;stroke-width:1pt"
         transform="matrix(0.4,0,0,0.4,2.96,0.4)" />
    </marker>
    <marker
       inkscape:stockid="DotM"
       orient="auto"
       refY="0"
       refX="0"
       id="marker14647"
       style="overflow:visible">
      <path
         inkscape:connector-curvature="0"
         id="path14649"
         d="m -2.5,-1 c 0,2.76 -2.24,5 -5,5 -2.76,0 -5,-2.24 -5,-5 0,-2.76 2.24,-5 5,-5 2.76,0 5,2.24 5,5 z"
         style="fill-rule:evenodd;stroke:#000000;stroke-width:1pt"
         transform="matrix(0.4,0,0,0.4,2.96,0.4)" />
    </marker>
    <marker
       inkscape:stockid="DotM"
       orient="auto"
       refY="0"
       refX="0"
       id="marker14651"
       style="overflow:visible">
      <path
         inkscape:connector-curvature="0"
         id="path14653"
         d="m -2.5,-1 c 0,2.76 -2.24,5 -5,5 -2.76,0 -5,-2.24 -5,-5 0,-2.76 2.24,-5 5,-5 2.76,0 5,2.24 5,5 z"
         style="fill-rule:evenodd;stroke:#000000;stroke-width:1pt"
         transform="matrix(0.4,0,0,0.4,2.96,0.4)" />
    </marker>
    <marker
       inkscape:stockid="Arrow1Mstart"
       orient="auto"
       refY="0"
       refX="0"
       id="marker14655"
       style="overflow:visible">
      <path
         inkscape:connector-curvature="0"
         id="path14657"
         d="M 0,0 5,-5 -12.5,0 5,5 0,0 z"
         style="fill-rule:evenodd;stroke:#000000;stroke-width:1pt"
         transform="matrix(0.4,0,0,0.4,4,0)" />
    </marker>
    <marker
       inkscape:stockid="DotM"
       orient="auto"
       refY="0"
       refX="0"
       id="marker14659"
       style="overflow:visible">
      <path
         inkscape:connector-curvature="0"
         id="path14661"
         d="m -2.5,-1 c 0,2.76 -2.24,5 -5,5 -2.76,0 -5,-2.24 -5,-5 0,-2.76 2.24,-5 5,-5 2.76,0 5,2.24 5,5 z"
         style="fill-rule:evenodd;stroke:#000000;stroke-width:1pt"
         transform="matrix(0.4,0,0,0.4,2.96,0.4)" />
    </marker>
    <marker
       inkscape:stockid="DotM"
       orient="auto"
       refY="0"
       refX="0"
       id="marker14663"
       style="overflow:visible">
      <path
         inkscape:connector-curvature="0"
         id="path14665"
         d="m -2.5,-1 c 0,2.76 -2.24,5 -5,5 -2.76,0 -5,-2.24 -5,-5 0,-2.76 2.24,-5 5,-5 2.76,0 5,2.24 5,5 z"
         style="fill-rule:evenodd;stroke:#000000;stroke-width:1pt"
         transform="matrix(0.4,0,0,0.4,2.96,0.4)" />
    </marker>
    <marker
       inkscape:stockid="DotM"
       orient="auto"
       refY="0"
       refX="0"
       id="marker14667"
       style="overflow:visible">
      <path
         inkscape:connector-curvature="0"
         id="path14669"
         d="m -2.5,-1 c 0,2.76 -2.24,5 -5,5 -2.76,0 -5,-2.24 -5,-5 0,-2.76 2.24,-5 5,-5 2.76,0 5,2.24 5,5 z"
         style="fill-rule:evenodd;stroke:#000000;stroke-width:1pt"
         transform="matrix(0.4,0,0,0.4,2.96,0.4)" />
    </marker>
    <marker
       inkscape:stockid="Arrow1Mstart"
       orient="auto"
       refY="0"
       refX="0"
       id="marker14671"
       style="overflow:visible">
      <path
         inkscape:connector-curvature="0"
         id="path14673"
         d="M 0,0 5,-5 -12.5,0 5,5 0,0 z"
         style="fill-rule:evenodd;stroke:#000000;stroke-width:1pt"
         transform="matrix(0.4,0,0,0.4,4,0)" />
    </marker>
    <marker
       inkscape:stockid="DotM"
       orient="auto"
       refY="0"
       refX="0"
       id="marker14675"
       style="overflow:visible">
      <path
         inkscape:connector-curvature="0"
         id="path14677"
         d="m -2.5,-1 c 0,2.76 -2.24,5 -5,5 -2.76,0 -5,-2.24 -5,-5 0,-2.76 2.24,-5 5,-5 2.76,0 5,2.24 5,5 z"
         style="fill-rule:evenodd;stroke:#000000;stroke-width:1pt"
         transform="matrix(0.4,0,0,0.4,2.96,0.4)" />
    </marker>
    <marker
       inkscape:stockid="DotM"
       orient="auto"
       refY="0"
       refX="0"
       id="marker14679"
       style="overflow:visible">
      <path
         inkscape:connector-curvature="0"
         id="path14681"
         d="m -2.5,-1 c 0,2.76 -2.24,5 -5,5 -2.76,0 -5,-2.24 -5,-5 0,-2.76 2.24,-5 5,-5 2.76,0 5,2.24 5,5 z"
         style="fill-rule:evenodd;stroke:#000000;stroke-width:1pt"
         transform="matrix(0.4,0,0,0.4,2.96,0.4)" />
    </marker>
    <marker
       inkscape:stockid="DotM"
       orient="auto"
       refY="0"
       refX="0"
       id="marker14683"
       style="overflow:visible">
      <path
         inkscape:connector-curvature="0"
         id="path14685"
         d="m -2.5,-1 c 0,2.76 -2.24,5 -5,5 -2.76,0 -5,-2.24 -5,-5 0,-2.76 2.24,-5 5,-5 2.76,0 5,2.24 5,5 z"
         style="fill-rule:evenodd;stroke:#000000;stroke-width:1pt"
         transform="matrix(0.4,0,0,0.4,2.96,0.4)" />
    </marker>
    <marker
       inkscape:stockid="Arrow1Mstart"
       orient="auto"
       refY="0"
       refX="0"
       id="marker14687"
       style="overflow:visible">
      <path
         inkscape:connector-curvature="0"
         id="path14689"
         d="M 0,0 5,-5 -12.5,0 5,5 0,0 z"
         style="fill-rule:evenodd;stroke:#000000;stroke-width:1pt"
         transform="matrix(0.4,0,0,0.4,4,0)" />
    </marker>
    <marker
       inkscape:stockid="DotM"
       orient="auto"
       refY="0"
       refX="0"
       id="marker14691"
       style="overflow:visible">
      <path
         inkscape:connector-curvature="0"
         id="path14693"
         d="m -2.5,-1 c 0,2.76 -2.24,5 -5,5 -2.76,0 -5,-2.24 -5,-5 0,-2.76 2.24,-5 5,-5 2.76,0 5,2.24 5,5 z"
         style="fill-rule:evenodd;stroke:#000000;stroke-width:1pt"
         transform="matrix(0.4,0,0,0.4,2.96,0.4)" />
    </marker>
    <marker
       inkscape:stockid="DotM"
       orient="auto"
       refY="0"
       refX="0"
       id="marker14695"
       style="overflow:visible">
      <path
         inkscape:connector-curvature="0"
         id="path14697"
         d="m -2.5,-1 c 0,2.76 -2.24,5 -5,5 -2.76,0 -5,-2.24 -5,-5 0,-2.76 2.24,-5 5,-5 2.76,0 5,2.24 5,5 z"
         style="fill-rule:evenodd;stroke:#000000;stroke-width:1pt"
         transform="matrix(0.4,0,0,0.4,2.96,0.4)" />
    </marker>
    <marker
       inkscape:stockid="DotM"
       orient="auto"
       refY="0"
       refX="0"
       id="marker14699"
       style="overflow:visible">
      <path
         inkscape:connector-curvature="0"
         id="path14701"
         d="m -2.5,-1 c 0,2.76 -2.24,5 -5,5 -2.76,0 -5,-2.24 -5,-5 0,-2.76 2.24,-5 5,-5 2.76,0 5,2.24 5,5 z"
         style="fill-rule:evenodd;stroke:#000000;stroke-width:1pt"
         transform="matrix(0.4,0,0,0.4,2.96,0.4)" />
    </marker>
  </defs>
  <sodipodi:namedview
     id="base"
     pagecolor="#ffffff"
     bordercolor="#666666"
     borderopacity="1.0"
     inkscape:pageopacity="0.0"
     inkscape:pageshadow="2"
     inkscape:zoom="3.959798"
     inkscape:cx="329.06078"
     inkscape:cy="729.17389"
     inkscape:document-units="px"
     inkscape:current-layer="layer1"
     showgrid="false"
     inkscape:window-width="1920"
     inkscape:window-height="1031"
     inkscape:window-x="1280"
     inkscape:window-y="25"
     inkscape:window-maximized="1">
    <inkscape:grid
       type="xygrid"
       id="grid5395" />
  </sodipodi:namedview>
  <metadata
     id="metadata7">
    <rdf:RDF>
      <cc:Work
         rdf:about="">
        <dc:format>image/svg+xml</dc:format>
        <dc:type
           rdf:resource="http://purl.org/dc/dcmitype/StillImage" />
      </cc:Work>
    </rdf:RDF>
  </metadata>
  <g
     inkscape:label="Layer 1"
     inkscape:groupmode="layer"
     id="layer1">
    <path
       sodipodi:type="arc"
       style="fill:none"
       id="path3015"
       sodipodi:cx="310.11682"
       sodipodi:cy="324.54727"
       sodipodi:rx="59.598999"
       sodipodi:ry="74.246216"
       d="m 369.71582,324.54727 a 59.598999,74.246216 0 1 1 -119.198,0 59.598999,74.246216 0 1 1 119.198,0 z" />
    <path
       sodipodi:type="arc"
       style="fill:none"
       id="path3017"
       sodipodi:cx="319.71329"
       sodipodi:cy="302.82898"
       sodipodi:rx="96.469566"
       sodipodi:ry="101.01525"
       d="m 416.18285,302.82898 a 96.469566,101.01525 0 1 1 -192.93913,0 96.469566,101.01525 0 1 1 192.93913,0 z" />
    <path
       style="fill:none;stroke:#000000;stroke-width:0.67167354px;stroke-linecap:butt;stroke-linejoin:miter;stroke-opacity:1"
       d="m 235.36873,262.15058 c 38.44442,-2.1024 61.20705,22.8435 95.95693,1.87102"
       id="path5351"
       inkscape:connector-curvature="0" />
    <path
       style="fill:none;stroke:#000000;stroke-width:0.7148307px;stroke-linecap:butt;stroke-linejoin:miter;stroke-opacity:1"
       d="m 331.45217,263.93181 c -24.34756,39.89094 26.69287,79.49247 31.17587,115.06687"
       id="path5357"
       inkscape:connector-curvature="0" />
    <path
       style="fill:none;stroke:#000000;stroke-width:0.71763307px;stroke-linecap:butt;stroke-linejoin:miter;stroke-opacity:1"
       d="m 235.60282,261.97885 c -24.51238,39.93397 26.87358,79.57822 31.38692,115.191"
       id="path5357-1"
       inkscape:connector-curvature="0" />
    <path
       style="fill:none;stroke:#000000;stroke-width:0.67252702px;stroke-linecap:butt;stroke-linejoin:miter;stroke-opacity:1"
       d="m 266.54908,376.83298 c 38.54509,-2.10224 61.36733,22.84178 96.20823,1.87089"
       id="path5351-1"
       inkscape:connector-curvature="0" />
    <path
       style="fill:none;stroke:#000000;stroke-width:1px;stroke-linecap:butt;stroke-linejoin:miter;stroke-opacity:1;marker-mid:url(#Arrow1Mstart);marker-end:url(#DotS)"
       d="m 191.67227,306.61294 c 0,0 2.46506,5.17957 14.05305,7.64435 11.588,2.46479 32.29894,2.21479 68.7907,-8.64435"
       id="path12159"
       inkscape:connector-curvature="0"
       sodipodi:nodetypes="csc" />
    <path
       style="fill:none;stroke:#000000;stroke-width:1;stroke-linecap:butt;stroke-linejoin:miter;stroke-miterlimit:4;stroke-opacity:1;stroke-dasharray:2, 1;stroke-dashoffset:0;marker-mid:url(#DotM);marker-end:none"
       d="m 275.07852,305.42544 c 19.95891,-5.9864 36.18718,-13.3035 49.375,-20.75"
       id="path12135"
       inkscape:connector-curvature="0" />
    <path
       style="fill:none;stroke:#000000;stroke-width:1px;stroke-linecap:butt;stroke-linejoin:miter;stroke-opacity:1;marker-mid:url(#DotM);marker-end:none"
       d="m 324.45352,284.67544 c 34.73596,-19.61366 47.78125,-40.1875 47.78125,-40.1875"
       id="path11696"
       inkscape:connector-curvature="0" />
    <path
       style="fill:none;stroke:#000000;stroke-width:1.03553246999999993px;stroke-linecap:butt;stroke-linejoin:miter;stroke-opacity:1;marker-mid:url(#Arrow1Mstart);marker-end:url(#DotS)"
       d="m 186.53671,325.81414 c 0,0 2.64335,5.17957 15.06947,7.64435 12.42613,2.46479 34.63505,2.21479 73.76617,-8.64435"
       id="path12159-1"
       inkscape:connector-curvature="0"
       sodipodi:nodetypes="csc" />
    <path
       style="fill:none;stroke:#000000;stroke-width:1.03553247;stroke-linecap:butt;stroke-linejoin:miter;stroke-miterlimit:4;stroke-opacity:1;stroke-dasharray:2.07106504, 1.03553252;stroke-dashoffset:0;marker-mid:url(#DotM);marker-end:none"
       d="m 275.97553,324.62664 c 21.40249,-5.9864 38.80451,-13.3035 52.94618,-20.75"
       id="path12135-1"
       inkscape:connector-curvature="0" />
    <path
       style="fill:none;stroke:#000000;stroke-width:1.03553247px;stroke-linecap:butt;stroke-linejoin:miter;stroke-opacity:1;marker-mid:url(#DotM);marker-end:none"
       d="m 328.92171,303.87664 c 37.24833,-19.61366 51.23715,-40.1875 51.23715,-40.1875"
       id="path11696-4"
       inkscape:connector-curvature="0" />
    <path
       style="fill:none;stroke:#000000;stroke-width:1.06662583000000000px;stroke-linecap:butt;stroke-linejoin:miter;stroke-opacity:1;marker-mid:url(#Arrow1Mstart);marker-end:url(#DotS)"
       d="m 200.1748,356.7347 c 0,0 2.65022,5.48104 15.10863,8.08929 12.45841,2.60825 34.72503,2.3437 73.95781,-9.1475"
       id="path12159-2"
       inkscape:connector-curvature="0"
       sodipodi:nodetypes="csc" />
    <path
       style="fill:none;stroke:#000000;stroke-width:1.06662583;stroke-linecap:butt;stroke-linejoin:miter;stroke-miterlimit:4;stroke-opacity:1;stroke-dasharray:2.13325159, 1.0666258;stroke-dashoffset:0;marker-mid:url(#DotM);marker-end:none"
       d="m 289.84599,355.47808 c 21.4581,-6.33484 38.90533,-14.07783 53.08374,-21.95776"
       id="path12135-9"
       inkscape:connector-curvature="0" />
    <path
       style="fill:none;stroke:#000000;stroke-width:1.06662583px;stroke-linecap:butt;stroke-linejoin:miter;stroke-opacity:1;marker-mid:url(#DotM);marker-end:none"
       d="M 342.92973,333.52032 C 380.27483,312.76505 394.3,290.99371 394.3,290.99371"
       id="path11696-6"
       inkscape:connector-curvature="0" />
    <path
       style="fill:none;stroke:#000000;stroke-width:1.02811801000000003px;stroke-linecap:butt;stroke-linejoin:miter;stroke-opacity:1;marker-mid:url(#Arrow1Mstart);marker-end:url(#DotS)"
       d="m 195.36798,340.71389 c 0,0 2.60564,5.17957 14.85445,7.64435 12.24883,2.46479 34.14084,2.21479 72.7136,-8.64435"
       id="path12159-6"
       inkscape:connector-curvature="0"
       sodipodi:nodetypes="csc" />
    <path
       style="fill:none;stroke:#000000;stroke-width:1.02811801;stroke-linecap:butt;stroke-linejoin:miter;stroke-miterlimit:4;stroke-opacity:1;stroke-dasharray:2.05623598, 1.02811799;stroke-dashoffset:0;marker-mid:url(#DotM);marker-end:none"
       d="m 283.53061,339.52639 c 21.0971,-5.9864 38.25081,-13.3035 52.19069,-20.75"
       id="path12135-7"
       inkscape:connector-curvature="0" />
    <path
       style="fill:none;stroke:#000000;stroke-width:1.02811801px;stroke-linecap:butt;stroke-linejoin:miter;stroke-opacity:1;marker-mid:url(#DotM);marker-end:none"
       d="m 335.7213,318.77639 c 36.71683,-19.61366 50.50605,-40.1875 50.50605,-40.1875"
       id="path11696-2"
       inkscape:connector-curvature="0" />
    <path
       style="fill:none;stroke:#000000;stroke-width:0.94096093999999997px;stroke-linecap:butt;stroke-linejoin:miter;stroke-opacity:1;marker-mid:url(#Arrow1Mstart);marker-end:url(#DotS)"
       d="m 209.52689,312.38317 c 0,0 2.18258,5.17957 12.44267,7.64435 10.2601,2.46479 28.59773,2.21479 60.9078,-8.64435"
       id="path12159-22"
       inkscape:connector-curvature="0"
       sodipodi:nodetypes="csc" />
    <path
       style="fill:none;stroke:#000000;stroke-width:0.94096094;stroke-linecap:butt;stroke-linejoin:miter;stroke-miterlimit:4;stroke-opacity:1;stroke-dasharray:1.88192184, 0.94096092;stroke-dashoffset:0;marker-mid:url(#DotM);marker-end:none"
       d="m 283.3754,311.19567 c 17.67177,-5.9864 32.0404,-13.3035 43.717,-20.75"
       id="path12135-96"
       inkscape:connector-curvature="0" />
    <path
       style="fill:none;stroke:#000000;stroke-width:0.94096094px;stroke-linecap:butt;stroke-linejoin:miter;stroke-opacity:1;marker-mid:url(#DotM);marker-end:none"
       d="m 327.0924,290.44567 c 30.75547,-19.61366 42.30587,-40.1875 42.30587,-40.1875"
       id="path11696-3"
       inkscape:connector-curvature="0" />
    <path
       style="fill:none;stroke:#000000;stroke-width:0.97439562999999996px;stroke-linecap:butt;stroke-linejoin:miter;stroke-opacity:1;marker-mid:url(#Arrow1Mstart);marker-end:url(#DotS)"
       d="m 204.97982,331.58437 c 0,0 2.34044,5.17957 13.34262,7.64435 11.00219,2.46479 30.66613,2.21479 65.31312,-8.64435"
       id="path12159-1-0"
       inkscape:connector-curvature="0"
       sodipodi:nodetypes="csc" />
    <path
       style="fill:none;stroke:#000000;stroke-width:0.97439563;stroke-linecap:butt;stroke-linejoin:miter;stroke-miterlimit:4;stroke-opacity:1;stroke-dasharray:1.94879126, 0.97439563;stroke-dashoffset:0;marker-mid:url(#DotM);marker-end:none"
       d="m 284.16962,330.39687 c 18.94992,-5.9864 34.3578,-13.3035 46.87894,-20.75"
       id="path12135-1-4"
       inkscape:connector-curvature="0" />
    <path
       style="fill:none;stroke:#000000;stroke-width:0.97439563px;stroke-linecap:butt;stroke-linejoin:miter;stroke-opacity:1;marker-mid:url(#DotM);marker-end:none"
       d="m 331.04856,309.64687 c 32.97994,-19.61366 45.36575,-40.1875 45.36575,-40.1875"
       id="path11696-4-8"
       inkscape:connector-curvature="0" />
    <path
       style="fill:none;stroke:#000000;stroke-width:1.00365316999999998px;stroke-linecap:butt;stroke-linejoin:miter;stroke-opacity:1;marker-mid:url(#Arrow1Mstart);marker-end:url(#DotS)"
       d="m 217.05509,362.50493 c 0,0 2.34652,5.48104 13.37728,8.08929 11.03078,2.60825 30.7458,2.3437 65.48281,-9.1475"
       id="path12159-2-9"
       inkscape:connector-curvature="0"
       sodipodi:nodetypes="csc" />
    <path
       style="fill:none;stroke:#000000;stroke-width:1.00365317;stroke-linecap:butt;stroke-linejoin:miter;stroke-miterlimit:4;stroke-opacity:1;stroke-dasharray:2.00730637, 1.00365319;stroke-dashoffset:0;marker-mid:url(#DotM);marker-end:none"
       d="m 296.45063,361.24831 c 18.99916,-6.33484 34.44707,-14.07783 47.00073,-21.95776"
       id="path12135-9-8"
       inkscape:connector-curvature="0" />
    <path
       style="fill:none;stroke:#000000;stroke-width:1.00365317px;stroke-linecap:butt;stroke-linejoin:miter;stroke-opacity:1;marker-mid:url(#DotM);marker-end:none"
       d="m 343.45136,339.29055 c 33.06563,-20.75527 45.48362,-42.52661 45.48362,-42.52661"
       id="path11696-6-5"
       inkscape:connector-curvature="0" />
    <path
       style="fill:none;stroke:#000000;stroke-width:0.96741885000000005px;stroke-linecap:butt;stroke-linejoin:miter;stroke-opacity:1;marker-mid:url(#Arrow1Mstart);marker-end:url(#DotS)"
       d="m 212.79909,346.48412 c 0,0 2.30705,5.17957 13.15224,7.64435 10.8452,2.46479 30.22856,2.21479 64.38116,-8.64435"
       id="path12159-6-6"
       inkscape:connector-curvature="0"
       sodipodi:nodetypes="csc" />
    <path
       style="fill:none;stroke:#000000;stroke-width:0.96741885;stroke-linecap:butt;stroke-linejoin:miter;stroke-miterlimit:4;stroke-opacity:1;stroke-dasharray:1.93483769, 0.96741884;stroke-dashoffset:0;marker-mid:url(#DotM);marker-end:none"
       d="m 290.85894,345.29662 c 18.67953,-5.9864 33.86755,-13.3035 46.21002,-20.75"
       id="path12135-7-0"
       inkscape:connector-curvature="0" />
    <path
       style="fill:none;stroke:#000000;stroke-width:0.96741885px;stroke-linecap:butt;stroke-linejoin:miter;stroke-opacity:1;marker-mid:url(#DotM);marker-end:none"
       d="m 337.06896,324.54662 c 32.50936,-19.61366 44.71844,-40.1875 44.71844,-40.1875"
       id="path11696-2-1"
       inkscape:connector-curvature="0" />
    <path
       style="fill:none;stroke:#000000;stroke-width:0.89342474999999999px;stroke-linecap:butt;stroke-linejoin:miter;stroke-opacity:1;marker-mid:url(#Arrow1Mstart);marker-end:url(#DotS)"
       d="m 220.99494,315.23342 c 0,0 1.96763,5.17957 11.21725,7.64435 9.24964,2.46479 25.78127,2.21479 54.90928,-8.64435"
       id="path12159-22-0"
       inkscape:connector-curvature="0"
       sodipodi:nodetypes="csc" />
    <path
       style="fill:none;stroke:#000000;stroke-width:0.89342475;stroke-linecap:butt;stroke-linejoin:miter;stroke-miterlimit:4;stroke-opacity:1;stroke-dasharray:1.78684954, 0.89342477;stroke-dashoffset:0;marker-mid:url(#DotM);marker-end:none"
       d="m 287.57046,314.04592 c 15.93136,-5.9864 28.88489,-13.3035 39.41151,-20.75"
       id="path12135-96-8"
       inkscape:connector-curvature="0" />
    <path
       style="fill:none;stroke:#000000;stroke-width:0.89342475px;stroke-linecap:butt;stroke-linejoin:miter;stroke-opacity:1;marker-mid:url(#DotM);marker-end:none"
       d="m 326.98197,293.29592 c 27.72652,-19.61366 38.13937,-40.1875 38.13937,-40.1875"
       id="path11696-3-0"
       inkscape:connector-curvature="0" />
    <path
       style="fill:none;stroke:#000000;stroke-width:0.92517042000000005px;stroke-linecap:butt;stroke-linejoin:miter;stroke-opacity:1;marker-mid:url(#Arrow1Mstart);marker-end:url(#DotS)"
       d="m 216.89569,334.43462 c 0,0 2.10995,5.17957 12.02858,7.64435 9.91863,2.46479 27.64596,2.21479 58.88073,-8.64435"
       id="path12159-1-0-8"
       inkscape:connector-curvature="0"
       sodipodi:nodetypes="csc" />
    <path
       style="fill:none;stroke:#000000;stroke-width:0.92517042;stroke-linecap:butt;stroke-linejoin:miter;stroke-miterlimit:4;stroke-opacity:1;stroke-dasharray:1.8503408, 0.9251704;stroke-dashoffset:0;marker-mid:url(#DotM);marker-end:none"
       d="m 288.28646,333.24712 c 17.08364,-5.9864 30.97407,-13.3035 42.26205,-20.75"
       id="path12135-1-4-3"
       inkscape:connector-curvature="0" />
    <path
       style="fill:none;stroke:#000000;stroke-width:0.92517042px;stroke-linecap:butt;stroke-linejoin:miter;stroke-opacity:1;marker-mid:url(#DotM);marker-end:none"
       d="m 330.54851,312.49712 c 29.73191,-19.61366 40.8979,-40.1875 40.8979,-40.1875"
       id="path11696-4-8-4"
       inkscape:connector-curvature="0" />
    <g
       id="g15869"
       transform="matrix(1.0469747,0,0,1,-8.6572999,2.2728432)">
      <path
         sodipodi:nodetypes="csc"
         inkscape:connector-curvature="0"
         id="path12159-2-9-9"
         d="m 227.78173,365.35518 c 0,0 2.11542,5.48105 12.05982,8.08929 9.94441,2.60825 27.71779,2.3437 59.03371,-9.1475"
         style="fill:none;stroke:#000000;stroke-width:0.95294988px;stroke-linecap:butt;stroke-linejoin:miter;stroke-opacity:1;marker-mid:url(#Arrow1Mstart);marker-end:url(#DotS)" />
      <path
         inkscape:connector-curvature="0"
         id="path12135-9-8-4"
         d="m 299.35798,364.09856 c 17.12802,-6.33484 31.05453,-14.07783 42.37185,-21.95775"
         style="fill:none;stroke:#000000;stroke-width:0.95294988;stroke-linecap:butt;stroke-linejoin:miter;stroke-miterlimit:4;stroke-opacity:1;stroke-dasharray:1.90589982, 0.95294991;stroke-dashoffset:0;marker-mid:url(#DotM);marker-end:none" />
      <path
         inkscape:connector-curvature="0"
         id="path11696-6-5-0"
         d="m 341.72983,342.14081 c 29.80915,-20.75528 41.00415,-42.52662 41.00415,-42.52662"
         style="fill:none;stroke:#000000;stroke-width:0.95294988px;stroke-linecap:butt;stroke-linejoin:miter;stroke-opacity:1;marker-mid:url(#DotM);marker-end:none" />
    </g>
    <g
       id="g15874"
       transform="matrix(1.0214205,0,0,1,-4.7871801,0)">
      <path
         sodipodi:nodetypes="csc"
         inkscape:connector-curvature="0"
         id="path12159-6-6-4"
         d="m 223.94488,349.33437 c 0,0 2.07984,5.17957 11.85694,7.64435 9.7771,2.46479 27.25148,2.21479 58.04056,-8.64435"
         style="fill:none;stroke:#000000;stroke-width:0.91854608px;stroke-linecap:butt;stroke-linejoin:miter;stroke-opacity:1;marker-mid:url(#Arrow1Mstart);marker-end:url(#DotS)" />
      <path
         inkscape:connector-curvature="0"
         id="path12135-7-0-4"
         d="m 294.31698,348.14687 c 16.83987,-5.9864 30.53209,-13.3035 41.65901,-20.75"
         style="fill:none;stroke:#000000;stroke-width:0.91854608;stroke-linecap:butt;stroke-linejoin:miter;stroke-miterlimit:4;stroke-opacity:1;stroke-dasharray:1.83709216, 0.91854608;stroke-dashoffset:0;marker-mid:url(#DotM);marker-end:none" />
      <path
         inkscape:connector-curvature="0"
         id="path11696-2-1-9"
         d="m 335.97599,327.39687 c 29.30767,-19.61366 40.31433,-40.1875 40.31433,-40.1875"
         style="fill:none;stroke:#000000;stroke-width:0.91854608px;stroke-linecap:butt;stroke-linejoin:miter;stroke-opacity:1;marker-mid:url(#DotM);marker-end:none" />
    </g>
    <text
       xml:space="preserve"
       style="font-size:24px;font-style:normal;font-weight:normal;line-height:125%;letter-spacing:0px;word-spacing:0px;fill:#000000;fill-opacity:1;stroke:none;font-family:Sans"
       x="236.62823"
       y="289.44449"
       id="text15865"
       sodipodi:linespacing="125%"><tspan
         sodipodi:role="line"
         id="tspan15867"
         x="236.62823"
         y="289.44449">M</tspan></text>
  </g>
</svg>
