<?xml version="1.0" encoding="UTF-8" standalone="no"?>
<!-- Created with Inkscape (http://www.inkscape.org/) -->

<svg
   xmlns:dc="http://purl.org/dc/elements/1.1/"
   xmlns:cc="http://creativecommons.org/ns#"
   xmlns:rdf="http://www.w3.org/1999/02/22-rdf-syntax-ns#"
   xmlns:svg="http://www.w3.org/2000/svg"
   xmlns="http://www.w3.org/2000/svg"
   xmlns:xlink="http://www.w3.org/1999/xlink"
   xmlns:sodipodi="http://sodipodi.sourceforge.net/DTD/sodipodi-0.dtd"
   xmlns:inkscape="http://www.inkscape.org/namespaces/inkscape"
   width="226.59113"
   height="179.5771"
   id="svg2"
   version="1.1"
   inkscape:version="0.48.4 r9939"
   sodipodi:docname="FourierSlice.svg">
  <defs
     id="defs4">
    <marker
       inkscape:stockid="Arrow2Mend"
       orient="auto"
       refY="0"
       refX="0"
       id="Arrow2Mend"
       style="overflow:visible">
      <path
         id="path3815"
         style="fill-rule:evenodd;stroke-width:0.625;stroke-linejoin:round"
         d="M 8.7185878,4.0337352 -2.2072895,0.01601326 8.7185884,-4.0017078 c -1.7454984,2.3720609 -1.7354408,5.6174519 -6e-7,8.035443 z"
         transform="scale(-0.6,-0.6)"
         inkscape:connector-curvature="0" />
    </marker>
    <marker
       inkscape:stockid="Arrow1Mend"
       orient="auto"
       refY="0"
       refX="0"
       id="Arrow1Mend"
       style="overflow:visible">
      <path
         id="path3797"
         d="M 0,0 5,-5 -12.5,0 5,5 0,0 z"
         style="fill-rule:evenodd;stroke:#000000;stroke-width:1pt"
         transform="matrix(-0.4,0,0,-0.4,-4,0)"
         inkscape:connector-curvature="0" />
    </marker>
    <marker
       inkscape:stockid="Arrow1Lend"
       orient="auto"
       refY="0"
       refX="0"
       id="Arrow1Lend"
       style="overflow:visible">
      <path
         id="path3791"
         d="M 0,0 5,-5 -12.5,0 5,5 0,0 z"
         style="fill-rule:evenodd;stroke:#000000;stroke-width:1pt"
         transform="matrix(-0.8,0,0,-0.8,-10,0)"
         inkscape:connector-curvature="0" />
    </marker>
    <marker
       inkscape:stockid="Arrow2Lend"
       orient="auto"
       refY="0"
       refX="0"
       id="Arrow2Lend"
       style="overflow:visible">
      <path
         id="path3809"
         style="fill-rule:evenodd;stroke-width:0.625;stroke-linejoin:round"
         d="M 8.7185878,4.0337352 -2.2072895,0.01601326 8.7185884,-4.0017078 c -1.7454984,2.3720609 -1.7354408,5.6174519 -6e-7,8.035443 z"
         transform="matrix(-1.1,0,0,-1.1,-1.1,0)"
         inkscape:connector-curvature="0" />
    </marker>
    <marker
       inkscape:stockid="Arrow2Lend"
       orient="auto"
       refY="0"
       refX="0"
       id="Arrow2Lend-9"
       style="overflow:visible">
      <path
         inkscape:connector-curvature="0"
         id="path3809-4"
         style="fill-rule:evenodd;stroke-width:0.625;stroke-linejoin:round"
         d="M 8.7185878,4.0337352 -2.2072895,0.01601326 8.7185884,-4.0017078 c -1.7454984,2.3720609 -1.7354408,5.6174519 -6e-7,8.035443 z"
         transform="matrix(-1.1,0,0,-1.1,-1.1,0)" />
    </marker>
    <marker
       inkscape:stockid="Arrow1Mend"
       orient="auto"
       refY="0"
       refX="0"
       id="Arrow1Mend-1"
       style="overflow:visible">
      <path
         id="path3797-7"
         d="M 0,0 5,-5 -12.5,0 5,5 0,0 z"
         style="fill-rule:evenodd;stroke:#000000;stroke-width:1pt"
         transform="matrix(-0.4,0,0,-0.4,-4,0)"
         inkscape:connector-curvature="0" />
    </marker>
    <marker
       inkscape:stockid="Arrow1Mend"
       orient="auto"
       refY="0"
       refX="0"
       id="Arrow1Mend-1-0"
       style="overflow:visible">
      <path
         id="path3797-7-9"
         d="M 0,0 5,-5 -12.5,0 5,5 0,0 z"
         style="fill-rule:evenodd;stroke:#000000;stroke-width:1pt"
         transform="matrix(-0.4,0,0,-0.4,-4,0)"
         inkscape:connector-curvature="0" />
    </marker>
    <marker
       inkscape:stockid="Arrow1Mend"
       orient="auto"
       refY="0"
       refX="0"
       id="Arrow1Mend-1-8"
       style="overflow:visible">
      <path
         id="path3797-7-8"
         d="M 0,0 5,-5 -12.5,0 5,5 0,0 z"
         style="fill-rule:evenodd;stroke:#000000;stroke-width:1pt"
         transform="matrix(-0.4,0,0,-0.4,-4,0)"
         inkscape:connector-curvature="0" />
    </marker>
    <marker
       inkscape:stockid="Arrow2Lend"
       orient="auto"
       refY="0"
       refX="0"
       id="Arrow2Lend-7"
       style="overflow:visible">
      <path
         id="path3809-40"
         style="fill-rule:evenodd;stroke-width:0.625;stroke-linejoin:round"
         d="M 8.7185878,4.0337352 -2.2072895,0.01601326 8.7185884,-4.0017078 c -1.7454984,2.3720609 -1.7354408,5.6174519 -6e-7,8.035443 z"
         transform="matrix(-1.1,0,0,-1.1,-1.1,0)"
         inkscape:connector-curvature="0" />
    </marker>
    <marker
       inkscape:stockid="Arrow2Lend"
       orient="auto"
       refY="0"
       refX="0"
       id="Arrow2Lend-8"
       style="overflow:visible">
      <path
         id="path3809-8"
         style="fill-rule:evenodd;stroke-width:0.625;stroke-linejoin:round"
         d="M 8.7185878,4.0337352 -2.2072895,0.01601326 8.7185884,-4.0017078 c -1.7454984,2.3720609 -1.7354408,5.6174519 -6e-7,8.035443 z"
         transform="matrix(-1.1,0,0,-1.1,-1.1,0)"
         inkscape:connector-curvature="0" />
    </marker>
    <pattern
       patternTransform="matrix(10,0,0,10,110,105)"
       id="pattern5994-1"
       xlink:href="#Polkadots-med-9"
       inkscape:collect="always" />
    <pattern
       inkscape:stockid="Polka dots, medium"
       id="Polkadots-med-9"
       patternTransform="translate(0,0) scale(10,10)"
       height="10"
       width="10"
       patternUnits="userSpaceOnUse"
       inkscape:collect="always">
      <circle
         id="circle4843-8"
         r="0.15"
         cy="0.810"
         cx="2.567"
         style="fill:black;stroke:none" />
      <circle
         id="circle4845-6"
         r="0.15"
         cy="2.33"
         cx="3.048"
         style="fill:black;stroke:none" />
      <circle
         id="circle4847-5"
         r="0.15"
         cy="2.415"
         cx="4.418"
         style="fill:black;stroke:none" />
      <circle
         id="circle4849-0"
         r="0.15"
         cy="3.029"
         cx="1.844"
         style="fill:black;stroke:none" />
      <circle
         id="circle4851-2"
         r="0.15"
         cy="1.363"
         cx="6.08"
         style="fill:black;stroke:none" />
      <circle
         id="circle4853-8"
         r="0.15"
         cy="4.413"
         cx="5.819"
         style="fill:black;stroke:none" />
      <circle
         id="circle4855-6"
         r="0.15"
         cy="4.048"
         cx="4.305"
         style="fill:black;stroke:none" />
      <circle
         id="circle4857-0"
         r="0.15"
         cy="3.045"
         cx="5.541"
         style="fill:black;stroke:none" />
      <circle
         id="circle4859-2"
         r="0.15"
         cy="5.527"
         cx="4.785"
         style="fill:black;stroke:none" />
      <circle
         id="circle4861-48"
         r="0.15"
         cy="5.184"
         cx="2.667"
         style="fill:black;stroke:none" />
      <circle
         id="circle4863-6"
         r="0.15"
         cy="1.448"
         cx="7.965"
         style="fill:black;stroke:none" />
      <circle
         id="circle4865-5"
         r="0.15"
         cy="5.049"
         cx="7.047"
         style="fill:black;stroke:none" />
      <circle
         id="circle4867-0"
         r="0.15"
         cy="0.895"
         cx="4.340"
         style="fill:black;stroke:none" />
      <circle
         id="circle4869-9"
         r="0.15"
         cy="0.340"
         cx="7.125"
         style="fill:black;stroke:none" />
      <circle
         id="circle4871-0"
         r="0.15"
         cy="1.049"
         cx="9.553"
         style="fill:black;stroke:none" />
      <circle
         id="circle4873-0"
         r="0.15"
         cy="2.689"
         cx="7.006"
         style="fill:black;stroke:none" />
      <circle
         id="circle4875-6"
         r="0.15"
         cy="2.689"
         cx="8.909"
         style="fill:black;stroke:none" />
      <circle
         id="circle4877-1"
         r="0.15"
         cy="4.407"
         cx="9.315"
         style="fill:black;stroke:none" />
      <circle
         id="circle4879-3"
         r="0.15"
         cy="3.870"
         cx="7.820"
         style="fill:black;stroke:none" />
      <circle
         id="circle4881-8"
         r="0.15"
         cy="5.948"
         cx="8.270"
         style="fill:black;stroke:none" />
      <circle
         id="circle4883-9"
         r="0.15"
         cy="7.428"
         cx="7.973"
         style="fill:black;stroke:none" />
      <circle
         id="circle4885-3"
         r="0.15"
         cy="8.072"
         cx="9.342"
         style="fill:black;stroke:none" />
      <circle
         id="circle4887-4"
         r="0.15"
         cy="9.315"
         cx="8.206"
         style="fill:black;stroke:none" />
      <circle
         id="circle4889-4"
         r="0.15"
         cy="9.475"
         cx="9.682"
         style="fill:black;stroke:none" />
      <circle
         id="circle4891-6"
         r="0.15"
         cy="6.186"
         cx="9.688"
         style="fill:black;stroke:none" />
      <circle
         id="circle4893-0"
         r="0.15"
         cy="6.296"
         cx="3.379"
         style="fill:black;stroke:none" />
      <circle
         id="circle4895-6"
         r="0.15"
         cy="8.204"
         cx="2.871"
         style="fill:black;stroke:none" />
      <circle
         id="circle4897-6"
         r="0.15"
         cy="8.719"
         cx="4.59"
         style="fill:black;stroke:none" />
      <circle
         id="circle4899-1"
         r="0.15"
         cy="9.671"
         cx="3.181"
         style="fill:black;stroke:none" />
      <circle
         id="circle4901-8"
         r="0.15"
         cy="7.315"
         cx="5.734"
         style="fill:black;stroke:none" />
      <circle
         id="circle4903-4"
         r="0.15"
         cy="6.513"
         cx="6.707"
         style="fill:black;stroke:none" />
      <circle
         id="circle4905-9"
         r="0.15"
         cy="9.670"
         cx="5.730"
         style="fill:black;stroke:none" />
      <circle
         id="circle4907-6"
         r="0.15"
         cy="8.373"
         cx="6.535"
         style="fill:black;stroke:none" />
      <circle
         id="circle4909-3"
         r="0.15"
         cy="7.154"
         cx="4.37"
         style="fill:black;stroke:none" />
      <circle
         id="circle4911-7"
         r="0.15"
         cy="7.25"
         cx="0.622"
         style="fill:black;stroke:none" />
      <circle
         id="circle4913-8"
         r="0.15"
         cy="5.679"
         cx="0.831"
         style="fill:black;stroke:none" />
      <circle
         id="circle4915-8"
         r="0.15"
         cy="8.519"
         cx="1.257"
         style="fill:black;stroke:none" />
      <circle
         id="circle4917-2"
         r="0.15"
         cy="6.877"
         cx="1.989"
         style="fill:black;stroke:none" />
      <circle
         id="circle4919-9"
         r="0.15"
         cy="3.181"
         cx="0.374"
         style="fill:black;stroke:none" />
      <circle
         id="circle4921-1"
         r="0.15"
         cy="1.664"
         cx="1.166"
         style="fill:black;stroke:none" />
      <circle
         id="circle4923-3"
         r="0.15"
         cy="0.093"
         cx="1.151"
         style="fill:black;stroke:none" />
      <circle
         id="circle4925-5"
         r="0.15"
         cy="10.093"
         cx="1.151"
         style="fill:black;stroke:none" />
      <circle
         id="circle4927-9"
         r="0.15"
         cy="4.451"
         cx="1.302"
         style="fill:black;stroke:none" />
      <circle
         id="circle4929-8"
         r="0.15"
         cy="3.763"
         cx="3.047"
         style="fill:black;stroke:none" />
    </pattern>
    <marker
       inkscape:stockid="Arrow2Lend"
       orient="auto"
       refY="0"
       refX="0"
       id="Arrow2Lend-6"
       style="overflow:visible">
      <path
         id="path3809-3"
         style="fill-rule:evenodd;stroke-width:0.625;stroke-linejoin:round"
         d="M 8.7185878,4.0337352 -2.2072895,0.01601326 8.7185884,-4.0017078 c -1.7454984,2.3720609 -1.7354408,5.6174519 -6e-7,8.035443 z"
         transform="matrix(-1.1,0,0,-1.1,-1.1,0)"
         inkscape:connector-curvature="0" />
    </marker>
    <marker
       inkscape:stockid="Arrow1Mend"
       orient="auto"
       refY="0"
       refX="0"
       id="Arrow1Mend-1-07"
       style="overflow:visible">
      <path
         id="path3797-7-97"
         d="M 0,0 5,-5 -12.5,0 5,5 0,0 z"
         style="fill-rule:evenodd;stroke:#000000;stroke-width:1pt"
         transform="matrix(-0.4,0,0,-0.4,-4,0)"
         inkscape:connector-curvature="0" />
    </marker>
  </defs>
  <sodipodi:namedview
     id="base"
     pagecolor="#ffffff"
     bordercolor="#666666"
     borderopacity="1.0"
     inkscape:pageopacity="0.0"
     inkscape:pageshadow="2"
     inkscape:zoom="4"
     inkscape:cx="97.808207"
     inkscape:cy="100.4399"
     inkscape:document-units="px"
     inkscape:current-layer="layer1"
     showgrid="true"
     inkscape:window-width="1323"
     inkscape:window-height="1007"
     inkscape:window-x="1338"
     inkscape:window-y="25"
     inkscape:window-maximized="0"
     fit-margin-top="0"
     fit-margin-left="0"
     fit-margin-right="0"
     fit-margin-bottom="0"
     inkscape:snap-grids="false"
     objecttolerance="20">
    <inkscape:grid
       type="xygrid"
       id="grid6528"
       empspacing="5"
       visible="true"
       enabled="true"
       snapvisiblegridlinesonly="true"
       originx="-272.54515px"
       originy="-806.23899px" />
  </sodipodi:namedview>
  <metadata
     id="metadata7">
    <rdf:RDF>
      <cc:Work
         rdf:about="">
        <dc:format>image/svg+xml</dc:format>
        <dc:type
           rdf:resource="http://purl.org/dc/dcmitype/StillImage" />
        <dc:title></dc:title>
      </cc:Work>
    </rdf:RDF>
  </metadata>
  <g
     inkscape:label="Layer 1"
     inkscape:groupmode="layer"
     id="layer1"
     transform="translate(-272.54515,-66.54613)">
    <flowRoot
       xml:space="preserve"
       id="flowRoot3050"
       style="font-size:13px;font-style:normal;font-weight:normal;line-height:125%;letter-spacing:0px;word-spacing:0px;fill:#000000;fill-opacity:1;stroke:none;font-family:Sans"><flowRegion
         id="flowRegion3052"><rect
           id="rect3054"
           width="21.282385"
           height="19.952236"
           x="465.28613"
           y="186.99693" /></flowRegion><flowPara
         id="flowPara3056" /></flowRoot>    <path
       sodipodi:type="arc"
       style="fill:none;stroke:#000000;stroke-width:2;stroke-miterlimit:4;stroke-opacity:1;stroke-dasharray:4, 2;stroke-dashoffset:0"
       id="path3219"
       sodipodi:cx="-164.5"
       sodipodi:cy="-132.12851"
       sodipodi:rx="150"
       sodipodi:ry="150"
       d="m -14.5,-132.12851 c 0,82.842713 -67.157288,150 -150,150 -82.84271,0 -150,-67.157287 -150,-150 0,-82.84271 67.15729,-150 150,-150 82.842712,0 150,67.15729 150,150 z"
       transform="matrix(0.53333333,0,0,0.53333335,457.41075,236.05656)" />
    <path
       style="fill:#0000c4;fill-opacity:0.14832536;stroke:#000000;stroke-width:0.55903226;stroke-linecap:butt;stroke-linejoin:miter;stroke-miterlimit:4;stroke-opacity:1;stroke-dasharray:none"
       d="m 370.43957,165.58803 0,5.78957 119.23785,0 0,-5.78957"
       id="path6526-0-4-5-0"
       inkscape:connector-curvature="0"
       sodipodi:nodetypes="cccc"
       inkscape:transform-center-x="0.13684011" />
    <path
       style="fill:none;stroke:#000000;stroke-width:1px;stroke-linecap:butt;stroke-linejoin:miter;stroke-opacity:1"
       d="m 369.67742,70.588027 0,95.000003 125,0"
       id="path4075"
       inkscape:connector-curvature="0" />
    <g
       id="g4425">
      <path
         inkscape:connector-curvature="0"
         id="path4423"
         d="m 469.50806,133.01379 c 0,0 12.14124,-17.09649 5.17552,-27.40543 -8.54675,-12.648769 -37.2996,-2.61139 -43.72645,-1.3552 -6.42685,1.25617 -17.89053,4.94464 -24.1838,7.4017 -8.04238,3.36125 -11.86663,6.11651 -12.99183,9.47822 -1.12523,3.36173 4.40293,11.52833 -8.16136,15.62259 -12.56432,4.09432 -28.23571,6.91183 -38.84655,2.9866 -10.61081,-3.9252 -31.20921,-23.17132 -51.80449,-8.43399 -20.59528,14.73732 -21.3736,28.0116 -21.19905,42.03573"
         style="fill:none;stroke:#28c76c;stroke-width:2.421;stroke-linecap:butt;stroke-linejoin:miter;stroke-miterlimit:4;stroke-dasharray:none;stroke-opacity:0.91534394" />
      <path
         inkscape:connector-curvature="0"
         id="path7524-4-8"
         d="m 273.77215,173.33983 c 0.29138,25.18097 38.19608,42.6356 58.46556,21.55693"
         style="fill:none;stroke:#28c76c;stroke-width:2.42113495;stroke-linecap:butt;stroke-linejoin:miter;stroke-miterlimit:4;stroke-dasharray:none;stroke-opacity:0.91534394;marker-end:url(#Arrow1Mend-1)" />
    </g>
    <circle
       sodipodi:ry="67"
       sodipodi:rx="67"
       sodipodi:cy="1653"
       sodipodi:cx="2976"
       cx="2976"
       cy="1653"
       r="67"
       style="fill:#ff00ff;stroke:#ff00ff;stroke-width:8"
       id="circle3016-9-1"
       transform="matrix(0.09773673,0,0,0.10240615,132.26455,-63.689344)"
       d="m 3043,1653 c 0,37.0031 -29.9969,67 -67,67 -37.0031,0 -67,-29.9969 -67,-67 0,-37.0031 29.9969,-67 67,-67 37.0031,0 67,29.9969 67,67 z" />
    <circle
       sodipodi:ry="67"
       sodipodi:rx="67"
       sodipodi:cy="1653"
       sodipodi:cx="2976"
       cx="2976"
       cy="1653"
       r="67"
       style="fill:#ff00ff;stroke:#ff00ff;stroke-width:8"
       id="circle3016-9-6"
       transform="matrix(0.09773673,0,0,0.10240615,158.81291,-1.8281335)"
       d="m 3043,1653 c 0,37.0031 -29.9969,67 -67,67 -37.0031,0 -67,-29.9969 -67,-67 0,-37.0031 29.9969,-67 67,-67 37.0031,0 67,29.9969 67,67 z" />
    <text
       style="font-size:22px;font-style:italic;font-weight:normal;text-anchor:start;fill:#000000;stroke-width:0.025in;font-family:Times"
       xml:space="preserve"
       x="324.31271"
       y="84.877235"
       font-style="italic"
       font-weight="normal"
       font-size="152"
       id="text3060-5"
       transform="scale(0.97693544,1.0236091)">ga</text>
    <circle
       sodipodi:ry="67"
       sodipodi:rx="67"
       sodipodi:cy="2787"
       sodipodi:cx="5385"
       cx="5385"
       cy="2787"
       r="67"
       style="fill:#ff0000;stroke:#ff0000;stroke-width:8"
       id="circle3072-6"
       transform="matrix(0.09773673,0,0,0.10240615,-156.48672,-117.71759)"
       inkscape:transform-center-x="-3.451641"
       inkscape:transform-center-y="-4.9999961"
       d="m 5452,2787 c 0,37.0031 -29.9969,67 -67,67 -37.0031,0 -67,-29.9969 -67,-67 0,-37.0031 29.9969,-67 67,-67 37.0031,0 67,29.9969 67,67 z" />
    <text
       style="font-size:22px;font-style:italic;font-weight:normal;text-anchor:start;fill:#000000;stroke-width:0.025in;font-family:Times"
       xml:space="preserve"
       x="279.89822"
       y="108.49665"
       font-style="italic"
       font-weight="normal"
       font-size="152"
       id="text3066-6"
       transform="scale(0.97693544,1.0236091)"
       inkscape:transform-center-x="13.544027"
       inkscape:transform-center-y="-8.059922">M</text>
    <text
       style="font-size:22px;font-style:italic;font-weight:normal;text-anchor:start;fill:#000000;stroke-width:0.025in;font-family:Times"
       xml:space="preserve"
       x="398.664"
       y="186.40701"
       font-style="italic"
       font-weight="normal"
       font-size="152"
       id="text3062-2"
       transform="scale(0.97693544,1.0236091)"
       inkscape:transform-center-x="-16.402784">M/g</text>
    <text
       xml:space="preserve"
       style="font-size:40px;font-style:italic;font-weight:bold;line-height:125%;letter-spacing:0px;word-spacing:0px;fill:#000000;fill-opacity:1;stroke:none;font-family:Sans;-inkscape-font-specification:Sans Bold Italic"
       x="284.05173"
       y="53.265469"
       id="text4295"
       sodipodi:linespacing="125%"
       transform="translate(94.5,14.490721)"><tspan
         sodipodi:role="line"
         id="tspan4297"
         x="284.05173"
         y="53.265469" /></text>
    <text
       style="font-size:22px;font-style:italic;font-weight:normal;text-anchor:start;fill:#000000;stroke-width:0.025in;font-family:Times"
       xml:space="preserve"
       x="501.08643"
       y="157.62901"
       font-style="italic"
       font-weight="normal"
       font-size="152"
       id="text3060-5-8"
       transform="scale(0.97693544,1.0236091)">x</text>
    <text
       style="font-size:22px;font-style:italic;font-weight:normal;text-anchor:start;fill:#000000;stroke-width:0.025in;font-family:Times"
       xml:space="preserve"
       x="383.31021"
       y="74.713272"
       font-style="italic"
       font-weight="normal"
       font-size="152"
       id="text3060-5-8-1"
       transform="scale(0.97693544,1.0236091)"
       inkscape:transform-center-x="-22.844828"
       inkscape:transform-center-y="46.12069">y</text>
    <text
       style="font-size:22px;font-style:italic;font-weight:normal;text-anchor:start;fill:#000000;stroke-width:0.025in;font-family:Times"
       xml:space="preserve"
       x="363.86987"
       y="187.52661"
       font-style="italic"
       font-weight="normal"
       font-size="152"
       id="text3060-5-1"
       transform="scale(0.97693544,1.0236091)">a*</text>
    <text
       style="font-size:22px;font-style:italic;font-weight:normal;text-anchor:start;fill:#000000;stroke-width:0.025in;font-family:Times"
       xml:space="preserve"
       x="475.82129"
       y="187.09349"
       font-style="italic"
       font-weight="normal"
       font-size="152"
       id="text3060-5-1-5"
       transform="scale(0.97693544,1.0236091)">a'</text>
    <text
       style="font-size:22px;font-style:italic;font-weight:normal;text-anchor:start;fill:#000000;stroke-width:0.025in;font-family:Times"
       xml:space="preserve"
       x="442.57159"
       y="155.09044"
       font-style="italic"
       font-weight="normal"
       font-size="152"
       id="text3060-5-1-4"
       transform="scale(0.97693544,1.0236091)">a</text>
  </g>
</svg>
