<?xml version="1.0" encoding="UTF-8" standalone="no"?>
<!-- Created with Inkscape (http://www.inkscape.org/) -->

<svg
   xmlns:dc="http://purl.org/dc/elements/1.1/"
   xmlns:cc="http://creativecommons.org/ns#"
   xmlns:rdf="http://www.w3.org/1999/02/22-rdf-syntax-ns#"
   xmlns:svg="http://www.w3.org/2000/svg"
   xmlns="http://www.w3.org/2000/svg"
   xmlns:sodipodi="http://sodipodi.sourceforge.net/DTD/sodipodi-0.dtd"
   xmlns:inkscape="http://www.inkscape.org/namespaces/inkscape"
   width="210mm"
   height="297mm"
   viewBox="0 0 744.09448819 1052.3622047"
   id="svg2"
   version="1.1"
   inkscape:version="0.91 r"
   sodipodi:docname="lifetime.svg">
  <defs
     id="defs4">
    <inkscape:path-effect
       effect="spiro"
       id="path-effect4466"
       is_visible="true" />
    <marker
       inkscape:isstock="true"
       style="overflow:visible;"
       id="marker4428"
       refX="0.0"
       refY="0.0"
       orient="auto"
       inkscape:stockid="Arrow2Mend">
      <path
         transform="scale(0.6) rotate(180) translate(0,0)"
         d="M 8.7185878,4.0337352 L -2.2072895,0.016013256 L 8.7185884,-4.0017078 C 6.9730900,-1.6296469 6.9831476,1.6157441 8.7185878,4.0337352 z "
         style="fill-rule:evenodd;stroke-width:0.625;stroke-linejoin:round;stroke:#000000;stroke-opacity:1;fill:#000000;fill-opacity:1"
         id="path4430" />
    </marker>
    <marker
       inkscape:stockid="Arrow2Mend"
       orient="auto"
       refY="0.0"
       refX="0.0"
       id="Arrow2Mend"
       style="overflow:visible;"
       inkscape:isstock="true"
       inkscape:collect="always">
      <path
         id="path4171"
         style="fill-rule:evenodd;stroke-width:0.625;stroke-linejoin:round;stroke:#000000;stroke-opacity:1;fill:#000000;fill-opacity:1"
         d="M 8.7185878,4.0337352 L -2.2072895,0.016013256 L 8.7185884,-4.0017078 C 6.9730900,-1.6296469 6.9831476,1.6157441 8.7185878,4.0337352 z "
         transform="scale(0.6) rotate(180) translate(0,0)" />
    </marker>
  </defs>
  <sodipodi:namedview
     id="base"
     pagecolor="#ffffff"
     bordercolor="#666666"
     borderopacity="1.0"
     inkscape:pageopacity="0.0"
     inkscape:pageshadow="2"
     inkscape:zoom="2.3223339"
     inkscape:cx="158.40836"
     inkscape:cy="978.71171"
     inkscape:document-units="px"
     inkscape:current-layer="layer1"
     showgrid="true"
     inkscape:window-width="1920"
     inkscape:window-height="1148"
     inkscape:window-x="0"
     inkscape:window-y="0"
     inkscape:window-maximized="1">
    <inkscape:grid
       type="xygrid"
       id="grid4136" />
  </sodipodi:namedview>
  <metadata
     id="metadata7">
    <rdf:RDF>
      <cc:Work
         rdf:about="">
        <dc:format>image/svg+xml</dc:format>
        <dc:type
           rdf:resource="http://purl.org/dc/dcmitype/StillImage" />
      </cc:Work>
    </rdf:RDF>
  </metadata>
  <g
     inkscape:label="Layer 1"
     inkscape:groupmode="layer"
     id="layer1">
    <path
       style="fill:none;fill-rule:evenodd;stroke:#000000;stroke-width:1.77061057px;stroke-linecap:butt;stroke-linejoin:miter;stroke-opacity:1;marker-end:url(#Arrow2Mend)"
       d="m 49.4596,205.88677 0,-156.531913"
       id="path4138"
       inkscape:connector-curvature="0" />
    <path
       style="fill:none;fill-rule:evenodd;stroke:#000000;stroke-width:1.99733436px;stroke-linecap:butt;stroke-linejoin:miter;stroke-opacity:1;marker-end:url(#marker4428)"
       d="m 41.94901,197.47955 320.29714,0"
       id="path4420"
       inkscape:connector-curvature="0" />
    <path
       style="fill:#666666;fill-rule:evenodd;stroke:#646464;stroke-width:1.73404777;stroke-linecap:butt;stroke-linejoin:miter;stroke-miterlimit:4;stroke-dasharray:5.20214302, 1.73404767;stroke-dashoffset:0;stroke-opacity:1"
       d="m 113.0465,57.354549 0,140.125001"
       id="path4960"
       inkscape:connector-curvature="0" />
    <path
       style="fill:#666666;fill-rule:evenodd;stroke:#646464;stroke-width:1.733953;stroke-linecap:butt;stroke-linejoin:miter;stroke-miterlimit:4;stroke-dasharray:5.20185899, 1.73395299;stroke-dashoffset:0;stroke-opacity:1"
       d="m 176.72699,57.415619 0,140.109701"
       id="path4960-2"
       inkscape:connector-curvature="0" />
    <path
       style="fill:#666666;fill-rule:evenodd;stroke:#646464;stroke-width:1.734074;stroke-linecap:butt;stroke-linejoin:miter;stroke-miterlimit:4;stroke-dasharray:5.20222201, 1.734074;stroke-dashoffset:0;stroke-opacity:1"
       d="m 262.70518,57.295128 0,140.129262"
       id="path4960-5"
       inkscape:connector-curvature="0" />
    <path
       style="fill:#666666;fill-rule:evenodd;stroke:#646464;stroke-width:1.73417842;stroke-linecap:butt;stroke-linejoin:miter;stroke-miterlimit:4;stroke-dasharray:5.20253544, 1.73417848;stroke-dashoffset:0;stroke-opacity:1"
       d="m 297.31199,57.361774 0,140.146146"
       id="path4960-6"
       inkscape:connector-curvature="0" />
    <path
       style="fill:none;fill-rule:evenodd;stroke:#000000;stroke-width:0.79462713;stroke-linecap:butt;stroke-linejoin:miter;stroke-miterlimit:2;stroke-dasharray:none;stroke-opacity:1"
       d="m 49.4596,197.47955 c 0,0 62.32051,-19.66753 61.5869,-100.886615"
       id="path4997"
       inkscape:connector-curvature="0" />
    <path
       style="fill:none;fill-rule:evenodd;stroke:#000000;stroke-width:0.79462713;stroke-linecap:butt;stroke-linejoin:miter;stroke-miterlimit:4;stroke-dasharray:none;stroke-opacity:1"
       d="m 178.64188,105.00016 c 0,0 37.55299,184.95878 82.61658,0"
       id="path5014"
       inkscape:connector-curvature="0" />
    <path
       style="fill:none;fill-rule:evenodd;stroke:#000000;stroke-width:0.79462713;stroke-linecap:butt;stroke-linejoin:miter;stroke-miterlimit:4;stroke-dasharray:none;stroke-opacity:1"
       d="m 297.30933,105.00016 c 0,0 1.50212,84.07217 54.0763,84.07217"
       id="path5018"
       inkscape:connector-curvature="0" />
    <path
       style="fill:none;fill-rule:evenodd;stroke:#000000;stroke-width:0.79462713;stroke-linecap:butt;stroke-linejoin:miter;stroke-miterlimit:4;stroke-dasharray:none;stroke-opacity:1"
       d="m 111.0465,96.592935 c 0.1904,-2.875639 0.85842,-5.326897 1.60606,-7.837561 0.15446,-0.518726 0.0793,-1.162029 0.22868,-1.663907 0.57728,-1.938586 1.37209,-3.677081 1.37209,-5.759633 0,-1.014768 0.34303,-1.786315 0.34303,-2.815829 0,-0.133675 0.015,-1.535898 0.11431,-1.535898 0.23474,0 0.72163,6.550383 0.80039,7.167556 0.28752,2.252866 -0.19487,4.826954 0.22868,7.039549 0.2892,1.510726 0.36511,0.680497 0.45738,1.919889 0.17568,2.359754 0.0333,4.893236 0.80039,7.039549 0.40391,1.13032 -0.13549,2.76842 0.34303,3.83976 0.17256,0.38635 0.51378,0.76626 0.68604,1.15193 0.16603,0.37172 -0.19616,0.93234 0.11431,1.27991 0.30729,0.34398 0.34303,-0.92146 0.34303,-1.4079 0,-2.2357 0.3533,-4.45524 0.57171,-6.655582 0.16035,-1.615363 0.42903,-3.153362 0.68604,-4.735701 0.19468,-1.198517 -0.008,-2.52415 0.22869,-3.71177 0.23493,-1.18335 0.45738,-2.313633 0.45738,-3.583778 0,-0.781603 -0.0686,0.02556 0.34302,-0.895941 0.17582,-0.393642 -0.14195,-3.199804 0.45737,-3.199804 0.45313,0 0.22868,2.260365 0.22868,2.431855 0,2.070782 0.11431,4.095526 0.68605,6.015617 0.10109,0.339281 0.85337,3.967752 1.02907,3.967752 0.41051,0 1.05414,-4.704191 1.14343,-5.50365 0.0542,-0.486273 0.11431,-0.897941 0.11431,-1.407923 0,-0.127958 0,-0.511966 0,-0.383975 0,0.554641 0,1.109266 0,1.663906 0,0.514287 -0.26311,1.847386 0.57171,1.535898 0.36932,-0.137878 0.88942,-1.479233 1.02907,-1.79188 0.008,-0.01513 0.008,-0.887803 0.11431,-0.767966 0.12062,0.13502 -0.13925,2.962384 0.91473,2.175872 0.62901,-0.469409 0.57171,-2.347127 0.57171,-3.199804 0,-2.040684 0.30273,-4.065865 0.8004,-6.015616 0.16229,-0.635855 0.47057,-1.112696 0.57171,-1.791881 0.23502,-1.578489 0.48736,-3.158911 0.80039,-4.735702 0.1098,-0.553464 0.51293,-0.815701 0.5717,-1.407923 0.055,-0.554321 -0.0349,-1.275694 0.22869,-1.79188 0.30695,-0.601301 0.91473,-1.562364 0.91473,-2.303864 0,-1.960529 0.22868,-3.997985 0.22868,-6.015616 0,-0.123082 -0.11506,-2.496254 0.22868,-2.303847 0.4983,0.278884 0.80041,5.441151 0.80041,6.2716 0,2.666147 -0.11822,5.353934 0.34302,7.935505 0.33059,1.85026 -0.26416,3.923682 0.11431,5.759633 0.17186,0.83366 0.38561,1.116647 0.45737,1.919872 0.0772,0.864985 -0.053,1.845032 0.11431,2.687838 0.0185,0.09315 0.20173,0.0375 0.22868,0.127958 0.12047,0.40474 -0.0539,0.85757 0,1.279915 0.11506,0.90201 0.45777,1.795042 0.57171,2.687838 0.18515,1.450817 0.24439,2.921323 0.45736,4.351727 0.10831,0.726989 0.44804,1.227655 0.57171,1.919872 0.10259,0.574331 -0.10259,1.217567 0,1.791881 0.0804,0.449668 0.3954,0.794415 0.45737,1.279929 0.0638,0.5007 -0.0742,1.0373 0,1.535905 0.17788,1.19465 1.02908,2.42315 1.02908,3.58378 0,0.18272 -0.0721,0.53564 0.11431,0.63996 0.72305,0.40467 1.34191,-5.455455 1.3721,-5.759645 0.40883,-4.118811 0.70466,-8.344766 1.9438,-12.159239 0.35015,-1.077855 0.32311,-2.312068 0.68607,-3.327795 0.31869,-0.891837 0.16266,-4.514037 0.45736,-5.50365 0.24327,-0.816963 0.51559,-1.701234 0.68605,-2.55983 0.19352,-0.9748 -0.0653,-2.066578 0.11431,-3.071812 0.14255,-0.798165 0.43151,-1.519201 0.57171,-2.303847 0.13549,-0.758213 0.11431,-1.652657 0.11431,-2.431855 0,-0.383974 -0.24255,-1.423442 0,-1.151923 0.29897,0.334658 0.0623,1.481217 0.11431,1.791881 0.28473,1.699805 0.54318,3.456039 0.91473,5.119676 0.18192,0.814525 0.002,1.923453 0.34302,2.687838 0.8534,1.91054 1.61776,-4.223736 1.94382,-4.223736 0.0376,0 0.11431,1.660594 0.11431,1.791881 0,1.032456 0.31467,1.728406 0.68605,2.559846 0.29057,0.650517 0.25078,1.354117 0.45737,2.047864 0.11145,0.37439 0.42214,0.817097 0.5717,1.15194 0.13715,0.306947 -0.0979,0.8231 0,1.151923 1.07955,3.625243 0.45737,10.218654 0.45737,14.079113 0,1.86156 0.35537,3.559314 0.57172,5.375655 0.0604,0.507485 -0.13459,1.046595 0,1.535905 0.51832,1.88569 0.48256,0.12577 0.68605,2.17587 0.0715,0.72086 -0.0856,1.45694 0,2.17586 0.24053,2.01946 0.70804,3.94803 0.80039,6.01563 0.046,1.03061 -0.0445,2.60555 0.22868,3.58376 0.015,0.0531 1.04901,2.47647 1.14341,2.68784 0.0161,0.036 -0.053,0.50886 0.11432,0.38398 0.75307,-0.56198 0.72609,-2.79944 0.91473,-3.58378 1.78527,-7.42257 -0.55732,3.4554 1.14342,-3.0718 0.28255,-1.08441 0.36027,-2.22329 0.57171,-3.32779 0.37826,-1.976 0.53286,-3.84599 1.14341,-5.75964 0.58253,-1.82576 0.59633,-3.410475 1.14342,-5.247686 0.16188,-0.54361 0.41316,-4.863693 0.68606,-4.863693 0.0656,0 0.11431,1.042983 0.11431,1.15194 0,0.917581 0.34303,1.774579 0.34303,2.687822 0,1.123742 2.24227,12.198307 3.08721,12.671207 0.66795,0.37384 1.97868,-3.76017 2.05816,-3.96775 0.0961,-0.25109 0.3405,-0.40013 0.45737,-0.63996 0.38421,-0.78846 0.42424,-1.60648 0.5717,-2.43185 0.13009,-0.72798 0.51616,-1.41154 0.80039,-2.047865 0.5161,-1.15541 0.5958,-2.649724 0.91475,-3.839765 0.27637,-1.031263 0.86982,-2.097282 1.14341,-3.199804 0.23735,-0.956456 0.31229,-2.000044 0.57171,-2.943804 0.26349,-0.958541 0.89691,-3.833103 0.91473,-3.839761 0.10965,-0.04086 0.11431,2.945351 0.11431,3.071812 0,2.608087 -0.21082,5.339474 0,7.935488 0.28323,3.487449 0.22868,-0.316784 0.22868,2.431854 0,2.243805 0.35432,7.077485 1.02909,9.343415 0.0532,0.17837 0.28923,3.2299 0.80039,2.94382 1.07917,-0.604 2.04452,-5.20955 2.51551,-6.5276 0.18685,-0.52286 0.52921,-0.88121 0.68606,-1.4079 0.13264,-0.44537 0.0425,-0.99104 0.22869,-1.40791 0.5125,-1.1474 1.36961,-2.16755 1.71512,-3.327795 0.31161,-1.046449 0.3464,-2.439425 0.80038,-3.45579 0.13054,-0.292235 0.11432,-0.804671 0.11432,-1.151923 0,-0.04271 0,-0.42665 0,-0.383975 0,0.502903 0.0604,0.92397 0.11431,1.407907 0.15179,1.359279 0.47767,2.477304 1.02907,3.711771 0.30817,0.68991 0.2287,3.053905 0.2287,3.967755 0,0.46418 0.52808,2.16706 0.12843,1.90968"
       id="path5207"
       inkscape:connector-curvature="0" />
    <path
       style="fill:none;fill-rule:evenodd;stroke:#000000;stroke-width:0.79462713;stroke-linecap:butt;stroke-linejoin:miter;stroke-miterlimit:4;stroke-dasharray:none;stroke-opacity:1"
       d="m 261.25846,105.00016 c 1.38225,-1.01988 1.05051,-3.36975 1.41047,-4.9815 0.18999,-0.850695 0.38172,-0.429225 0.57171,-1.279915 0.37269,-1.668734 -0.2533,-3.60152 0.11431,-5.24767 0.14,-0.626556 0.22869,-0.996978 0.22869,-1.663906 0,-0.597282 0,-1.194581 0,-1.791881 0,-0.127958 -0.11432,-0.383974 0,-0.383974 0.19057,0 0,0.426633 0,0.639957 0,0.718986 0.0476,1.082245 0.22868,1.791881 0.65066,2.549152 0.68444,5.368446 1.25775,7.935508 0.0458,0.20502 0.59233,1.56213 0.68605,1.5359 1.03173,-0.28872 1.30736,-4.149723 1.48645,-4.991689 0.35329,-1.660947 0.74537,-3.413381 0.91473,-5.119676 0.0757,-0.763258 -0.11926,-1.547584 0,-2.303847 0.2442,-1.548979 0.37586,-0.476487 0.57171,-1.791898 0.14345,-0.963551 -0.065,-1.902301 0.34302,-2.815812 0.11927,-0.267131 0,1.194581 0,0.89594 0,-1.817237 0.25867,-3.468246 0.45737,-5.247667 0.0652,-0.58405 -0.14736,-2.332297 0.22868,-1.279915 0.40005,1.119488 -0.11536,7.023524 0,8.703437 0.1394,2.028897 0.7528,4.005451 1.02909,6.015634 0.0762,0.639957 0.15245,1.279914 0.22868,1.919872 0,0.511966 -0.0545,1.02758 0,1.535897 0.18771,1.750989 0.85605,3.321474 1.25776,4.991704 0.26234,1.09074 0.34479,2.22713 0.5717,3.32778 0.31141,1.51054 0.0478,4.20973 0.91473,5.50365 0.4617,0.68907 1.40449,-2.02131 1.94382,-3.71175 0.69192,-2.16866 1.34246,-4.51902 1.71512,-6.78358 1.25118,-7.60289 -0.71278,2.72414 0.22869,-4.863701 0.093,-0.748814 0.46744,-1.428925 0.5717,-2.175855 0.0814,-0.582738 0.11431,-2.141151 0.11431,-2.943821 0,-0.554624 0,1.109265 0,1.663889 0,1.32259 0,2.64518 0,3.967753 0,1.194598 -0.17544,2.405439 0,3.58378 0.099,0.665405 0.44368,1.260695 0.57171,1.919875 0.0647,0.33353 0,0.68263 0,1.02395 0.0762,0.46929 0.12528,0.94515 0.22868,1.4079 0.15797,0.70727 0.54958,1.33502 0.68605,2.04787 0.015,0.0782 0.30568,2.51675 0.91473,2.17587 0.0933,-0.0523 0.7434,-2.87962 1.25776,-2.30386 0.19024,0.21295 0.72179,1.92187 1.02908,1.6639 1.23629,-1.03792 1.37174,-3.62551 1.94381,-5.11967 0.70019,-1.82882 1.97374,-6.172419 2.1725,-8.063505 0.19194,-1.826299 0.0403,-3.824308 0.34302,-5.631641 0.19035,-1.136404 0.68605,-2.398311 0.68605,-3.583779 0,-0.134851 0.0852,-0.514858 0.11431,-0.383974 0.15245,0.682615 0.36179,1.352419 0.45737,2.047864 0.087,0.632525 -0.038,1.281344 0,1.919889 0.38338,6.437238 0.0838,-3.01229 0.45736,4.095744 0.0394,0.74957 -0.044,3.950635 0,4.60771 0.38001,5.671612 1.1578,11.384062 1.82948,17.022922 0.0523,0.43847 0.93654,5.50365 1.14341,5.50365 0.93451,0 0.68683,-1.71062 0.80039,-2.30385 0.3139,-1.63976 1.21679,-3.20357 1.48644,-4.86369 0.10364,-0.63802 0.11536,-1.28528 0.22868,-1.91989 0.11311,-0.6334 0.95542,-4.52525 1.14343,-4.7357 0.16239,-0.18178 0.62118,0.0172 0.80039,-0.38397 0.097,-0.21743 0.45865,-1.5359 0.68605,-1.5359 0.17044,0 0.18734,0.32687 0.22868,0.51196 0.10515,0.47072 0.39187,1.18416 -0.23384,0.2458"
       id="path5209"
       inkscape:connector-curvature="0" />
    <text
       xml:space="preserve"
       style="font-style:normal;font-weight:normal;font-size:20px;line-height:125%;font-family:Sans;letter-spacing:0px;word-spacing:0px;fill:#000000;fill-opacity:1;stroke:none;stroke-width:1px;stroke-linecap:butt;stroke-linejoin:miter;stroke-opacity:1"
       x="140.0208"
       y="222.98514"
       id="text5343"
       sodipodi:linespacing="125%"><tspan
         sodipodi:role="line"
         id="tspan5345"
         x="140.0208"
         y="222.98514">Amplitude</tspan></text>
    <text
       xml:space="preserve"
       style="font-style:normal;font-weight:normal;font-size:20px;line-height:125%;font-family:Sans;letter-spacing:0px;word-spacing:0px;fill:#000000;fill-opacity:1;stroke:none;stroke-width:1px;stroke-linecap:butt;stroke-linejoin:miter;stroke-opacity:1"
       x="-165.67232"
       y="40.521656"
       id="text5347"
       sodipodi:linespacing="125%"
       transform="matrix(0,-1,1,0,0,0)"><tspan
         sodipodi:role="line"
         id="tspan5349"
         x="-165.67232"
         y="40.521656">Lifetime</tspan></text>
  </g>
</svg>
