<?xml version="1.0" encoding="UTF-8" standalone="no"?>
<!-- Created with Inkscape (http://www.inkscape.org/) -->

<svg
   xmlns:ns0="http://www.iki.fi/pav/software/textext/"
   xmlns:dc="http://purl.org/dc/elements/1.1/"
   xmlns:cc="http://creativecommons.org/ns#"
   xmlns:rdf="http://www.w3.org/1999/02/22-rdf-syntax-ns#"
   xmlns:svg="http://www.w3.org/2000/svg"
   xmlns="http://www.w3.org/2000/svg"
   xmlns:sodipodi="http://sodipodi.sourceforge.net/DTD/sodipodi-0.dtd"
   xmlns:inkscape="http://www.inkscape.org/namespaces/inkscape"
   width="210mm"
   height="297mm"
   viewBox="0 0 744.09448819 1052.3622047"
   id="svg2"
   version="1.1"
   inkscape:version="0.91 r"
   sodipodi:docname="nsessp0.svg">
  <sodipodi:namedview
     id="base"
     pagecolor="#ffffff"
     bordercolor="#666666"
     borderopacity="1.0"
     inkscape:pageopacity="0.0"
     inkscape:pageshadow="2"
     inkscape:zoom="1.4"
     inkscape:cx="229.87961"
     inkscape:cy="783.91111"
     inkscape:document-units="px"
     inkscape:current-layer="layer1"
     showgrid="true"
     inkscape:window-width="1920"
     inkscape:window-height="1148"
     inkscape:window-x="0"
     inkscape:window-y="0"
     inkscape:window-maximized="1">
    <inkscape:grid
       type="xygrid"
       id="grid4136" />
  </sodipodi:namedview>
  <defs
     id="defs4">
    <inkscape:path-effect
       effect="spiro"
       id="path-effect4908"
       is_visible="true" />
    <marker
       inkscape:stockid="Arrow1Lend"
       orient="auto"
       refY="0.0"
       refX="0.0"
       id="marker4464"
       style="overflow:visible;"
       inkscape:isstock="true">
      <path
         id="path4466"
         d="M 0.0,0.0 L 5.0,-5.0 L -12.5,0.0 L 5.0,5.0 L 0.0,0.0 z "
         style="fill-rule:evenodd;stroke:#000000;stroke-width:1pt;stroke-opacity:1;fill:#000000;fill-opacity:1"
         transform="scale(0.8) rotate(180) translate(12.5,0)" />
    </marker>
    <marker
       inkscape:isstock="true"
       style="overflow:visible;"
       id="marker4428"
       refX="0.0"
       refY="0.0"
       orient="auto"
       inkscape:stockid="Arrow1Lend"
       inkscape:collect="always">
      <path
         transform="scale(0.8) rotate(180) translate(12.5,0)"
         style="fill-rule:evenodd;stroke:#000000;stroke-width:1pt;stroke-opacity:1;fill:#000000;fill-opacity:1"
         d="M 0.0,0.0 L 5.0,-5.0 L -12.5,0.0 L 5.0,5.0 L 0.0,0.0 z "
         id="path4430" />
    </marker>
    <marker
       inkscape:stockid="Arrow1Lend"
       orient="auto"
       refY="0.0"
       refX="0.0"
       id="Arrow1Lend"
       style="overflow:visible;"
       inkscape:isstock="true"
       inkscape:collect="always">
      <path
         id="path4147"
         d="M 0.0,0.0 L 5.0,-5.0 L -12.5,0.0 L 5.0,5.0 L 0.0,0.0 z "
         style="fill-rule:evenodd;stroke:#000000;stroke-width:1pt;stroke-opacity:1;fill:#000000;fill-opacity:1"
         transform="scale(0.8) rotate(180) translate(12.5,0)" />
    </marker>
    <inkscape:path-effect
       effect="spiro"
       id="path-effect14302"
       is_visible="true" />
    <inkscape:path-effect
       effect="spiro"
       id="path-effect14294"
       is_visible="true" />
  </defs>
  <metadata
     id="metadata7">
    <rdf:RDF>
      <cc:Work
         rdf:about="">
        <dc:format>image/svg+xml</dc:format>
        <dc:type
           rdf:resource="http://purl.org/dc/dcmitype/StillImage" />
        <dc:title></dc:title>
      </cc:Work>
    </rdf:RDF>
  </metadata>
  <g
     inkscape:label="Layer 1"
     inkscape:groupmode="layer"
     id="layer1">
    <path
       style="fill:none;fill-rule:evenodd;stroke:#000000;stroke-width:0.86759996px;stroke-linecap:butt;stroke-linejoin:miter;stroke-opacity:1;marker-end:url(#Arrow1Lend)"
       d="m 130,252.3622 0,-120.43675"
       id="path4138"
       inkscape:connector-curvature="0" />
    <path
       style="fill:none;fill-rule:evenodd;stroke:#000000;stroke-width:1px;stroke-linecap:butt;stroke-linejoin:miter;stroke-opacity:1;marker-end:url(#marker4428)"
       d="m 130,252.3622 -60,90"
       id="path4420"
       inkscape:connector-curvature="0" />
    <path
       style="fill:none;fill-rule:evenodd;stroke:#000000;stroke-width:0.95623136px;stroke-linecap:butt;stroke-linejoin:miter;stroke-opacity:1;marker-end:url(#marker4464)"
       d="m 130,252.3622 128.01298,0"
       id="path4456"
       inkscape:connector-curvature="0" />
    <flowRoot
       xml:space="preserve"
       id="flowRoot4910"
       style="fill:black;stroke:none;stroke-opacity:1;stroke-width:1px;stroke-linejoin:miter;stroke-linecap:butt;fill-opacity:1;font-family:Sans;font-style:normal;font-weight:normal;font-size:40px;line-height:125%;letter-spacing:0px;word-spacing:0px"><flowRegion
         id="flowRegion4912"><rect
           id="rect4914"
           width="40"
           height="50"
           x="40"
           y="342.36221" /></flowRegion><flowPara
         id="flowPara4916" /></flowRoot>    <g
       ns0:preamble="/usr/local/home/burak/svn/siminos/budanur/presentations/DDays15/inkscape/ks1.ini"
       ns0:text="$u_x ({\\bf x}_0, \\tau)$"
       word-spacing="normal"
       letter-spacing="normal"
       font-size-adjust="none"
       font-stretch="normal"
       font-weight="normal"
       font-variant="normal"
       font-style="normal"
       stroke-miterlimit="10.433"
       xml:space="preserve"
       transform="matrix(2,0,0,-2,-410,1310.7143)"
       id="content"
       style="font-style:normal;font-variant:normal;font-weight:normal;font-stretch:normal;letter-spacing:normal;word-spacing:normal;text-anchor:start;fill:none;fill-opacity:1;fill-rule:evenodd;stroke:#000000;stroke-linecap:butt;stroke-linejoin:miter;stroke-miterlimit:10.43299961;stroke-dasharray:none;stroke-dashoffset:0;stroke-opacity:1"><path
         id="path5000"
         d="m 228.33,481.73 -0.03,-0.09 -0.02,-0.08 -0.02,-0.08 -0.03,-0.08 -0.02,-0.08 -0.02,-0.07 -0.02,-0.08 -0.02,-0.07 -0.02,-0.07 -0.02,-0.06 -0.02,-0.07 -0.02,-0.06 -0.04,-0.13 -0.04,-0.11 -0.04,-0.12 -0.03,-0.11 -0.04,-0.1 -0.04,-0.11 -0.04,-0.1 -0.04,-0.11 -0.04,-0.1 -0.04,-0.1 c -0.41,-0.93 -1.21,-2.15 -1.97,-2.15 -0.29,0 -0.37,0.28 -0.23,0.81 l 0.88,3.38 -0.04,0.05 -1.68,-0.26 -0.05,-0.22 0.57,-0.04 c 0.22,-0.02 0.21,-0.16 0.14,-0.44 l -0.64,-2.43 c -0.19,-0.73 -0.12,-1.33 0.62,-1.33 0.88,0 1.84,0.98 2.4,2.04 l 0.01,0 -0.3,-1.05 c -0.17,-0.61 -0.06,-0.99 0.42,-0.99 0.66,0 1.21,0.64 1.54,1.32 l -0.22,0.13 c -0.19,-0.31 -0.59,-0.97 -0.85,-0.97 -0.19,0 -0.19,0.21 -0.12,0.5 l 0.98,3.74 z"
         inkscape:connector-curvature="0"
         style="fill:#000000;stroke-width:0" /><path
         id="path5002"
         d="m 233.08,476.7 -0.03,-0.06 -0.03,-0.06 -0.03,-0.06 -0.04,-0.06 -0.03,-0.06 -0.03,-0.05 -0.02,-0.03 -0.02,-0.03 -0.02,-0.02 -0.01,-0.03 -0.02,-0.02 -0.02,-0.02 -0.01,-0.03 -0.02,-0.02 -0.02,-0.02 -0.02,-0.02 -0.02,-0.01 -0.01,-0.02 -0.02,-0.01 -0.02,-0.01 -0.02,-0.02 -0.02,0 -0.01,-0.01 -0.02,-0.01 -0.02,0 -0.02,0 c -0.13,0 -0.19,0.16 -0.34,0.78 l -0.22,0.91 c 0.25,0.44 0.6,1 0.81,1 0.06,0 0.11,-0.01 0.19,-0.06 0.07,-0.02 0.14,-0.05 0.22,-0.05 0.16,0 0.3,0.14 0.3,0.33 0,0.22 -0.16,0.3 -0.35,0.3 -0.37,0 -0.68,-0.33 -0.93,-0.72 l -0.31,-0.47 -0.01,0 -0.28,1.16 -0.04,0.03 -1.15,-0.35 0.02,-0.16 0.52,0.03 c 0.13,0.01 0.18,-0.03 0.26,-0.35 l 0.25,-1 -0.2,-0.34 c -0.3,-0.51 -0.56,-0.87 -0.72,-0.87 -0.07,0 -0.14,0.03 -0.2,0.07 -0.08,0.03 -0.17,0.1 -0.28,0.1 -0.19,0 -0.3,-0.18 -0.3,-0.35 0,-0.2 0.16,-0.35 0.44,-0.35 0.48,0 0.75,0.47 1.03,0.94 l 0.28,0.45 0.02,0 0.12,-0.54 c 0.13,-0.55 0.27,-0.85 0.62,-0.85 0.51,0 0.77,0.52 0.98,0.94 z"
         inkscape:connector-curvature="0"
         style="fill:#000000;stroke-width:0" /><path
         id="path5004"
         d="m 235.74,479.82 0,0.12 0,0.12 0,0.12 0.01,0.11 0.01,0.22 0.01,0.21 0.02,0.2 0.02,0.19 0.03,0.18 0.03,0.17 0.03,0.16 0.04,0.16 0.04,0.14 0.04,0.14 0.04,0.13 0.05,0.12 0.05,0.11 0.05,0.1 0.05,0.1 0.05,0.09 0.06,0.09 0.05,0.07 0.06,0.07 0.06,0.07 0.06,0.06 0.06,0.05 0.05,0.04 0.06,0.05 0.06,0.03 0.06,0.03 0.06,0.03 0.05,0.02 0.06,0.02 0.06,0.01 0,0.23 c -1.61,-0.06 -2.03,-2.05 -2.03,-3.76 0,-1.71 0.42,-3.7 2.03,-3.76 l 0,0.23 c -0.54,0.11 -1.38,0.89 -1.38,3.53 z"
         inkscape:connector-curvature="0"
         style="fill:#000000;stroke-width:0" /><path
         id="path5006"
         d="m 242.39,477.23 0,0.35 c -0.4,0.03 -0.54,0.11 -0.81,0.45 -0.44,0.6 -0.87,1.22 -1.3,1.86 0.35,0.46 0.69,0.84 1.01,1.17 0.22,0.22 0.41,0.31 0.79,0.32 l 0,0.35 -1.82,0 0,-0.35 0.24,-0.03 c 0.13,-0.02 0.15,-0.1 0.04,-0.25 l -0.55,-0.82 -0.02,0 -0.57,0.87 c -0.06,0.09 -0.05,0.18 0.06,0.19 l 0.21,0.04 0,0.35 -2.39,0 0,-0.35 c 0.41,-0.05 0.5,-0.09 0.68,-0.34 0.38,-0.5 0.77,-1.11 1.22,-1.72 -0.35,-0.45 -0.69,-0.88 -1.04,-1.29 -0.3,-0.33 -0.46,-0.39 -0.94,-0.45 l 0,-0.35 2.03,0 0,0.35 -0.32,0.05 c -0.15,0.02 -0.18,0.11 -0.07,0.27 l 0.63,0.99 0.02,0 0.67,-1.02 c 0.1,-0.16 0.03,-0.24 -0.12,-0.26 l -0.2,-0.03 0,-0.35 z"
         inkscape:connector-curvature="0"
         style="fill:#000000;stroke-width:0" /><path
         id="path5008"
         d="m 243.97,480.47 -0.11,0 -0.1,-0.01 -0.1,-0.02 -0.09,-0.02 -0.09,-0.02 -0.09,-0.03 -0.08,-0.04 -0.07,-0.04 -0.08,-0.05 -0.07,-0.05 -0.06,-0.05 -0.06,-0.06 -0.06,-0.07 -0.06,-0.07 -0.05,-0.07 -0.05,-0.08 -0.04,-0.08 -0.04,-0.09 -0.04,-0.09 -0.03,-0.09 -0.04,-0.1 -0.02,-0.1 -0.03,-0.11 -0.02,-0.1 -0.02,-0.11 -0.02,-0.12 -0.01,-0.11 -0.01,-0.12 -0.01,-0.13 -0.01,-0.12 0,-0.13 0,-0.13 c 0,-1.39 0.41,-2.4 1.56,-2.4 l 0,0.24 c -0.67,0 -0.85,1.03 -0.85,2.16 0,1.14 0.18,2.17 0.85,2.17 l 0,0 c 0.66,0 0.85,-1.03 0.85,-2.17 0,-1.13 -0.19,-2.16 -0.85,-2.16 l 0,-0.24 c 1.15,0 1.56,1.01 1.56,2.4 0,1.39 -0.41,2.41 -1.56,2.41 z"
         inkscape:connector-curvature="0"
         style="fill:#000000;stroke-width:0" /><path
         id="path5010"
         d="m 246.96,475.94 0.04,0.04 0.04,0.04 0.1,0.09 0.09,0.09 0.1,0.1 0.09,0.1 0.09,0.1 0.1,0.1 0.04,0.06 0.04,0.05 0.04,0.06 0.04,0.05 0.04,0.06 0.04,0.06 0.03,0.06 0.04,0.06 0.03,0.06 0.02,0.06 0.03,0.07 0.02,0.06 0.02,0.06 0.02,0.07 0.01,0.06 0.01,0.07 0,0.07 0.01,0.06 c 0,0.51 -0.31,0.84 -0.63,0.83 -0.28,0 -0.45,-0.22 -0.45,-0.46 0,-0.33 0.3,-0.5 0.3,-0.89 0,-0.38 -0.24,-0.74 -0.53,-1.06 z"
         inkscape:connector-curvature="0"
         style="fill:#000000;stroke-width:0" /><path
         id="path5012"
         d="m 251.26,481.14 0.6,0 -0.64,-3.13 c -0.01,-0.08 -0.01,-0.17 -0.01,-0.25 0,-0.35 0.11,-0.64 0.46,-0.64 0.68,0 1.19,0.52 1.51,1.29 l -0.22,0.13 c -0.24,-0.47 -0.61,-0.95 -0.81,-0.95 -0.12,0 -0.15,0.1 -0.15,0.24 0,0.12 0.02,0.26 0.05,0.4 l 0.62,2.91 1.28,0 0.37,0.7 c -0.25,-0.07 -0.56,-0.11 -0.96,-0.11 l -1.96,0 c -0.47,0 -0.95,-0.18 -1.31,-0.75 l 0.14,-0.16 c 0.32,0.21 0.7,0.32 1.03,0.32 z"
         inkscape:connector-curvature="0"
         style="fill:#000000;stroke-width:0" /><path
         id="path5014"
         d="m 256.39,479.82 0,-0.12 -0.01,-0.12 0,-0.12 0,-0.11 -0.01,-0.11 -0.01,-0.11 -0.01,-0.21 -0.02,-0.21 -0.03,-0.19 -0.02,-0.18 -0.03,-0.17 -0.04,-0.16 -0.04,-0.16 -0.04,-0.14 -0.04,-0.14 -0.04,-0.13 -0.05,-0.12 -0.05,-0.11 -0.05,-0.1 -0.06,-0.1 -0.05,-0.09 -0.06,-0.08 -0.05,-0.08 -0.06,-0.07 -0.06,-0.06 -0.05,-0.06 -0.06,-0.05 -0.06,-0.05 -0.06,-0.04 -0.05,-0.03 -0.06,-0.04 -0.05,-0.02 -0.06,-0.02 -0.05,-0.02 -0.05,-0.01 0,-0.23 c 1.61,0.06 2.02,2.05 2.02,3.76 0,1.71 -0.41,3.7 -2.02,3.76 l 0,-0.23 c 0.58,-0.12 1.38,-0.91 1.38,-3.53 z"
         inkscape:connector-curvature="0"
         style="fill:#000000;stroke-width:0" /></g>    <g
       id="g5113"
       transform="matrix(2,0,0,-2,-207.14286,1225.7143)"
       xml:space="preserve"
       stroke="black"
       stroke-linecap="butt"
       stroke-linejoin="miter"
       stroke-miterlimit="10.433"
       stroke-dasharray="none"
       stroke-dashoffset="0"
       stroke-opacity="1"
       fill="none"
       fill-rule="evenodd"
       fill-opacity="1"
       font-style="normal"
       font-variant="normal"
       font-weight="normal"
       font-stretch="normal"
       font-size-adjust="none"
       letter-spacing="normal"
       word-spacing="normal"
       text-anchor="start"
       ns0:text="$u_y ({\\bf x}_0, \\tau)$"
       ns0:preamble="/usr/local/home/burak/svn/siminos/budanur/presentations/DDays15/inkscape/ks1.ini"
       style="font-style:normal;font-variant:normal;font-weight:normal;font-stretch:normal;letter-spacing:normal;word-spacing:normal;text-anchor:start;fill:none;fill-opacity:1;fill-rule:evenodd;stroke:#000000;stroke-linecap:butt;stroke-linejoin:miter;stroke-miterlimit:10.43299961;stroke-dasharray:none;stroke-dashoffset:0;stroke-opacity:1"><path
         d="M228.33,481.73 L228.3,481.64 L228.28,481.56 L228.26,481.48 L228.23,481.4 L228.21,481.32 L228.19,481.25 L228.17,481.17 L228.15,481.1 L228.13,481.03 L228.11,480.97 L228.09,480.9 L228.07,480.84 L228.03,480.71 L227.99,480.6 L227.95,480.48 L227.92,480.37 L227.88,480.27 L227.84,480.16 L227.8,480.06 L227.76,479.95 L227.72,479.85 L227.68,479.75 C227.27,478.82,226.47,477.6,225.71,477.6 C225.42,477.6,225.34,477.88,225.48,478.41 L226.36,481.79 L226.32,481.84 L224.64,481.58 L224.59,481.36 L225.16,481.32 C225.38,481.3,225.37,481.16,225.3,480.88 L224.66,478.45 C224.47,477.72,224.54,477.12,225.28,477.12 C226.16,477.12,227.12,478.1,227.68,479.16 H227.69 L227.39,478.11 C227.22,477.5,227.33,477.12,227.81,477.12 C228.47,477.12,229.02,477.76,229.35,478.44 L229.13,478.57 C228.94,478.26,228.54,477.6,228.28,477.6 C228.09,477.6,228.09,477.81,228.16,478.1 L229.14,481.84 Z "
         stroke-width="0"
         fill="black"
         id="path5115" /><path
         d="M230.27,478.9 L230.29,478.72 L230.77,478.74 C230.92,478.74,230.96,478.63,231.01,478.27 C231.09,477.72,231.24,476.39,231.24,475.83 C231.24,475.62,231.23,475.34,231.07,474.97 C230.95,474.68,230.77,474.48,230.63,474.48 C230.52,474.48,230.45,474.55,230.34,474.69 C230.26,474.8,230.2,474.86,230.1,474.86 C229.92,474.85,229.74,474.64,229.74,474.44 C229.74,474.25,229.95,474.06,230.25,474.06 C230.84,474.06,231.1,474.5,231.71,475.55 C231.85,475.79,232.27,476.53,232.7,477.24 C233.1,477.89,233.54,478.56,233.54,478.84 C233.54,479.09,233.46,479.23,233.41,479.23 C233.28,479.23,233.04,479.18,232.87,479.06 C232.88,478.82,232.86,478.39,232.78,478.1 C232.67,477.71,232.26,476.96,231.8,476.17 H231.78 C231.73,477.23,231.6,478.7,231.5,479.2 L231.44,479.23 Z "
         stroke-width="0"
         fill="black"
         id="path5117" /><path
         d="M235.78,479.82 L235.78,479.94 L235.79,480.06 L235.79,480.18 L235.79,480.29 L235.8,480.51 L235.82,480.72 L235.84,480.92 L235.86,481.11 L235.89,481.29 L235.92,481.46 L235.95,481.62 L235.99,481.78 L236.02,481.92 L236.07,482.06 L236.11,482.19 L236.16,482.31 L236.2,482.42 L236.25,482.52 L236.31,482.62 L236.36,482.71 L236.41,482.8 L236.47,482.87 L236.53,482.94 L236.58,483.01 L236.64,483.07 L236.7,483.12 L236.76,483.16 L236.82,483.21 L236.88,483.24 L236.94,483.27 L236.99,483.3 L237.05,483.32 L237.11,483.34 L237.16,483.35 V483.58 C235.55,483.52,235.14,481.53,235.14,479.82 C235.14,478.11,235.55,476.12,237.16,476.06 V476.29 C236.63,476.4,235.78,477.18,235.78,479.82 Z "
         stroke-width="0"
         fill="black"
         id="path5119" /><path
         d="M242.43,477.23 V477.58 C242.04,477.61,241.89,477.69,241.63,478.03 C241.19,478.63,240.75,479.25,240.32,479.89 C240.67,480.35,241.01,480.73,241.33,481.06 C241.55,481.28,241.75,481.37,242.12,481.38 V481.73 H240.3 V481.38 L240.54,481.35 C240.67,481.33,240.7,481.25,240.59,481.1 L240.04,480.28 H240.02 L239.45,481.15 C239.39,481.24,239.4,481.33,239.51,481.34 L239.72,481.38 V481.73 H237.33 V481.38 C237.73,481.33,237.82,481.29,238.01,481.04 C238.38,480.54,238.77,479.93,239.23,479.32 C238.87,478.87,238.54,478.44,238.18,478.03 C237.89,477.7,237.72,477.64,237.25,477.58 V477.23 H239.28 V477.58 L238.95,477.63 C238.81,477.65,238.77,477.74,238.88,477.9 L239.51,478.89 H239.53 L240.2,477.87 C240.3,477.71,240.24,477.63,240.08,477.61 L239.88,477.58 V477.23 Z "
         stroke-width="0"
         fill="black"
         id="path5121" /><path
         d="M244.01,480.47 L243.91,480.47 L243.8,480.46 L243.71,480.44 L243.61,480.42 L243.53,480.4 L243.44,480.37 L243.36,480.33 L243.28,480.29 L243.21,480.24 L243.14,480.19 L243.07,480.14 L243.01,480.08 L242.95,480.01 L242.9,479.94 L242.85,479.87 L242.8,479.79 L242.76,479.71 L242.72,479.62 L242.68,479.53 L242.64,479.44 L242.61,479.34 L242.58,479.24 L242.56,479.13 L242.53,479.03 L242.51,478.92 L242.5,478.8 L242.48,478.69 L242.47,478.57 L242.46,478.44 L242.46,478.32 L242.45,478.19 L242.45,478.06 C242.45,476.67,242.86,475.66,244.01,475.66 V475.9 C243.35,475.9,243.16,476.93,243.16,478.06 C243.16,479.2,243.35,480.23,244.01,480.23 H244.01 C244.67,480.23,244.86,479.2,244.86,478.06 C244.86,476.93,244.67,475.9,244.01,475.9 V475.66 C245.16,475.66,245.57,476.67,245.57,478.06 C245.57,479.45,245.16,480.47,244.01,480.47 Z "
         stroke-width="0"
         fill="black"
         id="path5123" /><path
         d="M247,475.94 L247.05,475.98 L247.09,476.02 L247.18,476.11 L247.28,476.2 L247.37,476.3 L247.47,476.4 L247.56,476.5 L247.65,476.6 L247.7,476.66 L247.74,476.71 L247.78,476.77 L247.82,476.82 L247.86,476.88 L247.89,476.94 L247.93,477 L247.96,477.06 L247.99,477.12 L248.02,477.18 L248.04,477.25 L248.07,477.31 L248.09,477.37 L248.1,477.44 L248.11,477.5 L248.12,477.57 L248.13,477.64 L248.13,477.7 C248.13,478.21,247.83,478.54,247.51,478.53 C247.22,478.53,247.06,478.31,247.06,478.07 C247.06,477.74,247.36,477.57,247.36,477.18 C247.36,476.8,247.12,476.44,246.83,476.12 Z "
         stroke-width="0"
         fill="black"
         id="path5125" /><path
         d="M251.31,481.14 H251.9 L251.27,478.01 C251.26,477.93,251.25,477.84,251.25,477.76 C251.25,477.41,251.37,477.12,251.72,477.12 C252.39,477.12,252.9,477.64,253.23,478.41 L253.01,478.54 C252.77,478.07,252.4,477.59,252.2,477.59 C252.08,477.59,252.04,477.69,252.04,477.83 C252.04,477.95,252.07,478.09,252.1,478.23 L252.71,481.14 H254 L254.37,481.84 C254.12,481.77,253.8,481.73,253.41,481.73 H251.45 C250.98,481.73,250.5,481.55,250.13,480.98 L250.28,480.82 C250.6,481.03,250.98,481.14,251.31,481.14 Z "
         stroke-width="0"
         fill="black"
         id="path5127" /><path
         d="M256.43,479.82 L256.43,479.7 L256.43,479.58 L256.43,479.46 L256.42,479.35 L256.42,479.24 L256.41,479.13 L256.39,478.92 L256.37,478.71 L256.35,478.52 L256.32,478.34 L256.29,478.17 L256.26,478.01 L256.22,477.85 L256.18,477.71 L256.14,477.57 L256.09,477.44 L256.04,477.32 L255.99,477.21 L255.94,477.11 L255.89,477.01 L255.84,476.92 L255.78,476.84 L255.72,476.76 L255.67,476.69 L255.61,476.63 L255.55,476.57 L255.49,476.52 L255.44,476.47 L255.38,476.43 L255.32,476.4 L255.27,476.36 L255.21,476.34 L255.16,476.32 L255.11,476.3 L255.05,476.29 V476.06 C256.66,476.12,257.08,478.11,257.08,479.82 C257.08,481.53,256.66,483.52,255.05,483.58 V483.35 C255.63,483.23,256.43,482.44,256.43,479.82 Z "
         stroke-width="0"
         fill="black"
         id="path5129" /></g>    <g
       style="font-style:normal;font-variant:normal;font-weight:normal;font-stretch:normal;letter-spacing:normal;word-spacing:normal;text-anchor:start;fill:none;fill-opacity:1;fill-rule:evenodd;stroke:#000000;stroke-linecap:butt;stroke-linejoin:miter;stroke-miterlimit:10.43299961;stroke-dasharray:none;stroke-dashoffset:0;stroke-opacity:1"
       ns0:preamble="/usr/local/home/burak/svn/siminos/budanur/presentations/DDays15/inkscape/ks1.ini"
       ns0:text="$u_z ({\\bf x}_0, \\tau)$"
       text-anchor="start"
       word-spacing="normal"
       letter-spacing="normal"
       font-size-adjust="none"
       font-stretch="normal"
       font-weight="normal"
       font-variant="normal"
       font-style="normal"
       fill-opacity="1"
       fill-rule="evenodd"
       fill="none"
       stroke-opacity="1"
       stroke-dashoffset="0"
       stroke-dasharray="none"
       stroke-miterlimit="10.433"
       stroke-linejoin="miter"
       stroke-linecap="butt"
       stroke="black"
       xml:space="preserve"
       transform="matrix(2,0,0,-2,-344.28572,1078.5714)"
       id="g5246"><path
         id="path5248"
         fill="black"
         stroke-width="0"
         d="M228.33,481.73 L228.3,481.64 L228.28,481.56 L228.26,481.48 L228.23,481.4 L228.21,481.32 L228.19,481.25 L228.17,481.17 L228.15,481.1 L228.13,481.03 L228.11,480.97 L228.09,480.9 L228.07,480.84 L228.03,480.71 L227.99,480.6 L227.95,480.48 L227.92,480.37 L227.88,480.27 L227.84,480.16 L227.8,480.06 L227.76,479.95 L227.72,479.85 L227.68,479.75 C227.27,478.82,226.47,477.6,225.71,477.6 C225.42,477.6,225.34,477.88,225.48,478.41 L226.36,481.79 L226.32,481.84 L224.64,481.58 L224.59,481.36 L225.16,481.32 C225.38,481.3,225.37,481.16,225.3,480.88 L224.66,478.45 C224.47,477.72,224.54,477.12,225.28,477.12 C226.16,477.12,227.12,478.1,227.68,479.16 H227.69 L227.39,478.11 C227.22,477.5,227.33,477.12,227.81,477.12 C228.47,477.12,229.02,477.76,229.35,478.44 L229.13,478.57 C228.94,478.26,228.54,477.6,228.28,477.6 C228.09,477.6,228.09,477.81,228.16,478.1 L229.14,481.84 Z " /><path
         id="path5250"
         fill="black"
         stroke-width="0"
         d="M230.84,479.15 L230.83,479.14 L230.82,479.12 L230.81,479.11 L230.8,479.09 L230.79,479.07 L230.77,479.05 L230.76,479.03 L230.75,479.01 L230.73,478.99 L230.72,478.96 L230.7,478.93 L230.69,478.91 L230.67,478.88 L230.66,478.85 L230.64,478.82 L230.63,478.79 L230.61,478.76 L230.59,478.72 L230.58,478.69 L230.56,478.65 L230.55,478.61 L230.53,478.58 L230.51,478.54 L230.5,478.5 L230.46,478.42 L230.43,478.34 L230.4,478.25 L230.37,478.16 L230.55,478.08 C230.77,478.49,230.88,478.7,231.21,478.7 H232.43 C231.55,477.81,230.74,477.01,229.99,476.24 C229.88,476.13,229.82,475.98,229.82,475.87 C229.82,475.78,229.86,475.66,229.98,475.66 C230.08,475.66,230.31,475.71,230.31,475.82 V476.13 C230.31,476.21,230.35,476.26,230.4,476.26 C230.51,476.26,230.76,476.1,231.17,475.94 C231.54,475.79,231.86,475.66,232.19,475.66 C232.64,475.66,232.85,476.27,233.04,477 L232.85,477.05 C232.67,476.62,232.5,476.2,232.19,476.2 C231.98,476.2,231.66,476.3,231.4,476.4 C231.17,476.48,230.93,476.58,230.75,476.6 C231.52,477.4,232.32,478.23,233.16,479.05 L233.1,479.15 Z " /><path
         id="path5252"
         fill="black"
         stroke-width="0"
         d="M235.4,479.82 L235.4,479.94 L235.41,480.06 L235.41,480.18 L235.41,480.29 L235.42,480.51 L235.44,480.72 L235.46,480.92 L235.48,481.11 L235.51,481.29 L235.54,481.46 L235.57,481.62 L235.61,481.78 L235.65,481.92 L235.69,482.06 L235.73,482.19 L235.78,482.31 L235.83,482.42 L235.88,482.52 L235.93,482.62 L235.98,482.71 L236.04,482.8 L236.09,482.87 L236.15,482.94 L236.21,483.01 L236.26,483.07 L236.32,483.12 L236.38,483.16 L236.44,483.21 L236.5,483.24 L236.56,483.27 L236.61,483.3 L236.67,483.32 L236.73,483.34 L236.78,483.35 V483.58 C235.18,483.52,234.76,481.53,234.76,479.82 C234.76,478.11,235.18,476.12,236.78,476.06 V476.29 C236.25,476.4,235.4,477.18,235.4,479.82 Z " /><path
         id="path5254"
         fill="black"
         stroke-width="0"
         d="M242.06,477.23 V477.58 C241.66,477.61,241.51,477.69,241.25,478.03 C240.81,478.63,240.38,479.25,239.94,479.89 C240.29,480.35,240.63,480.73,240.95,481.06 C241.18,481.28,241.37,481.37,241.74,481.38 V481.73 H239.93 V481.38 L240.16,481.35 C240.29,481.33,240.32,481.25,240.21,481.1 L239.66,480.28 H239.64 L239.07,481.15 C239.01,481.24,239.02,481.33,239.13,481.34 L239.34,481.38 V481.73 H236.95 V481.38 C237.35,481.33,237.45,481.29,237.63,481.04 C238.01,480.54,238.39,479.93,238.85,479.32 C238.49,478.87,238.16,478.44,237.8,478.03 C237.51,477.7,237.35,477.64,236.87,477.58 V477.23 H238.9 V477.58 L238.57,477.63 C238.43,477.65,238.39,477.74,238.5,477.9 L239.14,478.89 H239.15 L239.82,477.87 C239.93,477.71,239.86,477.63,239.71,477.61 L239.5,477.58 V477.23 Z " /><path
         id="path5256"
         fill="black"
         stroke-width="0"
         d="M243.63,480.47 L243.53,480.47 L243.43,480.46 L243.33,480.44 L243.24,480.42 L243.15,480.4 L243.06,480.37 L242.98,480.33 L242.9,480.29 L242.83,480.24 L242.76,480.19 L242.7,480.14 L242.63,480.08 L242.58,480.01 L242.52,479.94 L242.47,479.87 L242.42,479.79 L242.38,479.71 L242.34,479.62 L242.3,479.53 L242.26,479.44 L242.23,479.34 L242.2,479.24 L242.18,479.13 L242.16,479.03 L242.14,478.92 L242.12,478.8 L242.1,478.69 L242.09,478.57 L242.08,478.44 L242.08,478.32 L242.07,478.19 L242.07,478.06 C242.07,476.67,242.48,475.66,243.63,475.66 V475.9 C242.97,475.9,242.78,476.93,242.78,478.06 C242.78,479.2,242.97,480.23,243.63,480.23 H243.63 C244.29,480.23,244.48,479.2,244.48,478.06 C244.48,476.93,244.29,475.9,243.63,475.9 V475.66 C244.78,475.66,245.19,476.67,245.19,478.06 C245.19,479.45,244.78,480.47,243.63,480.47 Z " /><path
         id="path5258"
         fill="black"
         stroke-width="0"
         d="M246.62,475.94 L246.67,475.98 L246.71,476.02 L246.8,476.11 L246.9,476.2 L246.99,476.3 L247.09,476.4 L247.18,476.5 L247.27,476.6 L247.32,476.66 L247.36,476.71 L247.4,476.77 L247.44,476.82 L247.48,476.88 L247.52,476.94 L247.55,477 L247.58,477.06 L247.61,477.12 L247.64,477.18 L247.67,477.25 L247.69,477.31 L247.71,477.37 L247.72,477.44 L247.74,477.5 L247.74,477.57 L247.75,477.64 L247.75,477.7 C247.75,478.21,247.45,478.54,247.13,478.53 C246.84,478.53,246.68,478.31,246.68,478.07 C246.68,477.74,246.98,477.57,246.98,477.18 C246.98,476.8,246.74,476.44,246.45,476.12 Z " /><path
         id="path5260"
         fill="black"
         stroke-width="0"
         d="M250.93,481.14 H251.52 L250.89,478.01 C250.88,477.93,250.87,477.84,250.87,477.76 C250.87,477.41,250.99,477.12,251.34,477.12 C252.01,477.12,252.53,477.64,252.85,478.41 L252.63,478.54 C252.39,478.07,252.02,477.59,251.82,477.59 C251.7,477.59,251.66,477.69,251.66,477.83 C251.66,477.95,251.69,478.09,251.72,478.23 L252.33,481.14 H253.62 L253.99,481.84 C253.74,481.77,253.43,481.73,253.03,481.73 H251.07 C250.6,481.73,250.12,481.55,249.75,480.98 L249.9,480.82 C250.22,481.03,250.6,481.14,250.93,481.14 Z " /><path
         id="path5262"
         fill="black"
         stroke-width="0"
         d="M256.05,479.82 L256.05,479.7 L256.05,479.58 L256.05,479.46 L256.04,479.35 L256.04,479.24 L256.03,479.13 L256.02,478.92 L256,478.71 L255.97,478.52 L255.94,478.34 L255.91,478.17 L255.88,478.01 L255.84,477.85 L255.8,477.71 L255.76,477.57 L255.71,477.44 L255.66,477.32 L255.62,477.21 L255.56,477.11 L255.51,477.01 L255.46,476.92 L255.4,476.84 L255.35,476.76 L255.29,476.69 L255.23,476.63 L255.17,476.57 L255.12,476.52 L255.06,476.47 L255,476.43 L254.94,476.4 L254.89,476.36 L254.83,476.34 L254.78,476.32 L254.73,476.3 L254.68,476.29 V476.06 C256.28,476.12,256.7,478.11,256.7,479.82 C256.7,481.53,256.28,483.52,254.68,483.58 V483.35 C255.25,483.23,256.05,482.44,256.05,479.82 Z " /></g>    <g
       id="g14456"
       transform="matrix(2,0,0,-2,-315.71429,1287.2857)"
       xml:space="preserve"
       stroke-miterlimit="10.433"
       font-style="normal"
       font-variant="normal"
       font-weight="normal"
       font-stretch="normal"
       font-size-adjust="none"
       letter-spacing="normal"
       word-spacing="normal"
       ns0:text="${\\bf u} ({\\bf x}_0, \\tau_i)$"
       ns0:preamble="/usr/local/home/burak/svn/siminos/budanur/presentations/DDays15/inkscape/ks1.ini"
       style="font-style:normal;font-variant:normal;font-weight:normal;font-stretch:normal;letter-spacing:normal;word-spacing:normal;text-anchor:start;fill:#0000d8;fill-opacity:1;fill-rule:evenodd;stroke:#0000d8;stroke-linecap:butt;stroke-linejoin:miter;stroke-miterlimit:10.43299961;stroke-dasharray:none;stroke-dashoffset:0;stroke-opacity:1"><path
         d="m 227.22,477.23 1.91,0 0,0.35 c -0.53,0.03 -0.6,0.07 -0.6,0.45 l 0,3.75 -0.07,0.06 -1.86,-0.27 0,-0.33 0.32,-0.04 c 0.15,-0.02 0.22,-0.1 0.22,-0.47 l 0,-1.94 c 0,-0.15 -0.02,-0.37 -0.07,-0.51 -0.08,-0.21 -0.32,-0.43 -0.73,-0.43 -0.48,0 -0.77,0.28 -0.77,1 l 0,2.93 -0.06,0.06 -1.87,-0.27 0,-0.33 0.32,-0.04 c 0.15,-0.02 0.22,-0.1 0.22,-0.47 l 0,-2.23 c 0,-1.07 0.67,-1.38 1.34,-1.38 0.78,0 1.25,0.43 1.62,0.63 z"
         id="path14458"
         inkscape:connector-curvature="0"
         style="fill:#0000d8;fill-opacity:1;stroke:#0000d8;stroke-width:0;stroke-opacity:1" /><path
         d="m 230.81,479.82 0,0.12 0,0.12 0,0.12 0.01,0.11 0.01,0.22 0.01,0.21 0.02,0.2 0.02,0.19 0.03,0.18 0.03,0.17 0.03,0.16 0.04,0.16 0.04,0.14 0.04,0.14 0.04,0.13 0.05,0.12 0.05,0.11 0.05,0.1 0.05,0.1 0.05,0.09 0.06,0.09 0.05,0.07 0.06,0.07 0.06,0.07 0.06,0.06 0.06,0.05 0.05,0.04 0.06,0.05 0.06,0.03 0.06,0.03 0.06,0.03 0.05,0.02 0.06,0.02 0.05,0.01 0,0.23 c -1.6,-0.06 -2.02,-2.05 -2.02,-3.76 0,-1.71 0.42,-3.7 2.02,-3.76 l 0,0.23 c -0.53,0.11 -1.37,0.89 -1.37,3.53 z"
         id="path14460"
         inkscape:connector-curvature="0"
         style="fill:#0000d8;fill-opacity:1;stroke:#0000d8;stroke-width:0;stroke-opacity:1" /><path
         d="m 237.46,477.23 0,0.35 c -0.4,0.03 -0.54,0.11 -0.81,0.45 -0.44,0.6 -0.87,1.22 -1.3,1.86 0.35,0.46 0.69,0.84 1.01,1.17 0.22,0.22 0.41,0.31 0.79,0.32 l 0,0.35 -1.82,0 0,-0.35 0.24,-0.03 c 0.13,-0.02 0.15,-0.1 0.04,-0.25 l -0.55,-0.82 -0.02,0 -0.57,0.87 c -0.06,0.09 -0.05,0.18 0.06,0.19 l 0.21,0.04 0,0.35 -2.39,0 0,-0.35 c 0.41,-0.05 0.5,-0.09 0.68,-0.34 0.38,-0.5 0.76,-1.11 1.22,-1.72 -0.35,-0.45 -0.68,-0.88 -1.04,-1.29 -0.3,-0.33 -0.46,-0.39 -0.94,-0.45 l 0,-0.35 2.03,0 0,0.35 -0.32,0.05 c -0.15,0.02 -0.19,0.11 -0.08,0.27 l 0.64,0.99 0.02,0 0.67,-1.02 c 0.1,-0.16 0.03,-0.24 -0.12,-0.26 l -0.2,-0.03 0,-0.35 z"
         id="path14462"
         inkscape:connector-curvature="0"
         style="fill:#0000d8;fill-opacity:1;stroke:#0000d8;stroke-width:0;stroke-opacity:1" /><path
         d="m 239.04,480.47 -0.11,0 -0.1,-0.01 -0.1,-0.02 -0.09,-0.02 -0.09,-0.02 -0.09,-0.03 -0.08,-0.04 -0.07,-0.04 -0.08,-0.05 -0.07,-0.05 -0.06,-0.05 -0.06,-0.06 -0.06,-0.07 -0.06,-0.07 -0.05,-0.07 -0.05,-0.08 -0.04,-0.08 -0.04,-0.09 -0.04,-0.09 -0.03,-0.09 -0.04,-0.1 -0.02,-0.1 -0.03,-0.11 -0.02,-0.1 -0.02,-0.11 -0.02,-0.12 -0.01,-0.11 -0.01,-0.12 -0.01,-0.13 -0.01,-0.12 0,-0.13 0,-0.13 c 0,-1.39 0.41,-2.4 1.56,-2.4 l 0,0.24 c -0.67,0 -0.85,1.03 -0.85,2.16 0,1.14 0.18,2.17 0.85,2.17 l 0,0 c 0.66,0 0.84,-1.03 0.84,-2.17 0,-1.13 -0.18,-2.16 -0.84,-2.16 l 0,-0.24 c 1.14,0 1.56,1.01 1.56,2.4 0,1.39 -0.42,2.41 -1.56,2.41 z"
         id="path14464"
         inkscape:connector-curvature="0"
         style="fill:#0000d8;fill-opacity:1;stroke:#0000d8;stroke-width:0;stroke-opacity:1" /><path
         d="m 242.03,475.94 0.04,0.04 0.05,0.04 0.09,0.09 0.09,0.09 0.1,0.1 0.09,0.1 0.1,0.1 0.09,0.1 0.04,0.06 0.04,0.05 0.05,0.06 0.04,0.05 0.03,0.06 0.04,0.06 0.03,0.06 0.04,0.06 0.03,0.06 0.02,0.06 0.03,0.07 0.02,0.06 0.02,0.06 0.02,0.07 0.01,0.06 0.01,0.07 0,0.07 0.01,0.06 c 0,0.51 -0.31,0.84 -0.63,0.83 -0.28,0 -0.45,-0.22 -0.45,-0.46 0,-0.33 0.3,-0.5 0.3,-0.89 0,-0.38 -0.23,-0.74 -0.53,-1.06 z"
         id="path14466"
         inkscape:connector-curvature="0"
         style="fill:#0000d8;fill-opacity:1;stroke:#0000d8;stroke-width:0;stroke-opacity:1" /><path
         d="m 246.33,481.14 0.6,0 -0.64,-3.13 c 0,-0.08 -0.01,-0.17 -0.01,-0.25 0,-0.35 0.12,-0.64 0.46,-0.64 0.68,0 1.19,0.52 1.51,1.29 l -0.22,0.13 c -0.24,-0.47 -0.6,-0.95 -0.81,-0.95 -0.12,0 -0.15,0.1 -0.15,0.24 0,0.12 0.02,0.26 0.05,0.4 l 0.62,2.91 1.28,0 0.37,0.7 c -0.25,-0.07 -0.56,-0.11 -0.96,-0.11 l -1.96,0 c -0.47,0 -0.95,-0.18 -1.31,-0.75 l 0.14,-0.16 c 0.32,0.21 0.7,0.32 1.03,0.32 z"
         id="path14468"
         inkscape:connector-curvature="0"
         style="fill:#0000d8;fill-opacity:1;stroke:#0000d8;stroke-width:0;stroke-opacity:1" /><path
         d="m 250.77,479.01 -0.04,-0.17 0.39,-0.03 c 0.19,-0.01 0.21,-0.08 0.15,-0.32 l -0.58,-2.18 c -0.11,-0.39 -0.02,-0.68 0.36,-0.68 0.5,0 0.89,0.47 1.13,1 l -0.17,0.1 c -0.13,-0.24 -0.43,-0.74 -0.63,-0.74 -0.14,0 -0.13,0.16 -0.07,0.39 l 0.76,2.79 -0.03,0.04 z"
         id="path14470"
         inkscape:connector-curvature="0"
         style="fill:#0000d8;fill-opacity:1;stroke:#0000d8;stroke-width:0;stroke-opacity:1" /><path
         d="m 252,480.69 -0.03,0 -0.02,-0.01 -0.03,0 -0.02,0 -0.03,-0.01 -0.02,-0.01 -0.02,0 -0.03,-0.01 -0.02,-0.01 -0.02,-0.01 -0.02,-0.02 -0.01,-0.01 -0.02,-0.01 -0.02,-0.02 -0.01,-0.01 -0.02,-0.02 -0.01,-0.02 -0.01,-0.01 -0.02,-0.02 -0.01,-0.02 -0.01,-0.02 -0.01,-0.02 0,-0.02 -0.01,-0.02 -0.01,-0.02 0,-0.02 -0.01,-0.02 0,-0.02 -0.01,-0.02 0,-0.02 0,-0.02 0,-0.02 c 0,-0.26 0.17,-0.39 0.38,-0.39 0.27,0 0.45,0.19 0.45,0.46 0,0.28 -0.18,0.39 -0.38,0.39 z"
         id="path14472"
         inkscape:connector-curvature="0"
         style="fill:#0000d8;fill-opacity:1;stroke:#0000d8;stroke-width:0;stroke-opacity:1" /><path
         d="m 255,479.82 0,-0.12 0,-0.12 -0.01,-0.12 0,-0.11 -0.01,-0.11 0,-0.11 -0.02,-0.21 -0.02,-0.21 -0.02,-0.19 -0.03,-0.18 -0.03,-0.17 -0.04,-0.16 -0.03,-0.16 -0.04,-0.14 -0.05,-0.14 -0.04,-0.13 -0.05,-0.12 -0.05,-0.11 -0.05,-0.1 -0.05,-0.1 -0.06,-0.09 -0.05,-0.08 -0.06,-0.08 -0.06,-0.07 -0.05,-0.06 -0.06,-0.06 -0.06,-0.05 -0.06,-0.05 -0.05,-0.04 -0.06,-0.03 -0.06,-0.04 -0.05,-0.02 -0.06,-0.02 -0.05,-0.02 -0.05,-0.01 0,-0.23 c 1.61,0.06 2.02,2.05 2.02,3.76 0,1.71 -0.41,3.7 -2.02,3.76 l 0,-0.23 c 0.58,-0.12 1.38,-0.91 1.38,-3.53 z"
         id="path14474"
         inkscape:connector-curvature="0"
         style="fill:#0000d8;fill-opacity:1;stroke:#0000d8;stroke-width:0;stroke-opacity:1" /></g>    <g
       style="font-style:normal;font-variant:normal;font-weight:normal;font-stretch:normal;letter-spacing:normal;word-spacing:normal;text-anchor:start;fill:#0000d8;fill-opacity:1;fill-rule:evenodd;stroke:#0000d8;stroke-linecap:butt;stroke-linejoin:miter;stroke-miterlimit:10.43299961;stroke-dasharray:none;stroke-dashoffset:0;stroke-opacity:1"
       ns0:preamble="/usr/local/home/burak/svn/siminos/budanur/presentations/DDays15/inkscape/ks1.ini"
       ns0:text="${\\bf u} ({\\bf x}_0, \\tau_f)$"
       word-spacing="normal"
       letter-spacing="normal"
       font-size-adjust="none"
       font-stretch="normal"
       font-weight="normal"
       font-variant="normal"
       font-style="normal"
       stroke-miterlimit="10.433"
       xml:space="preserve"
       transform="matrix(2,0,0,-2,-285.14286,1109)"
       id="g14634"><path
         id="path14636"
         d="m 227.22,477.23 1.91,0 0,0.35 c -0.53,0.03 -0.6,0.07 -0.6,0.45 l 0,3.75 -0.07,0.06 -1.86,-0.27 0,-0.33 0.32,-0.04 c 0.15,-0.02 0.22,-0.1 0.22,-0.47 l 0,-1.94 c 0,-0.15 -0.02,-0.37 -0.07,-0.51 -0.08,-0.21 -0.32,-0.43 -0.73,-0.43 -0.48,0 -0.77,0.28 -0.77,1 l 0,2.93 -0.06,0.06 -1.87,-0.27 0,-0.33 0.32,-0.04 c 0.15,-0.02 0.22,-0.1 0.22,-0.47 l 0,-2.23 c 0,-1.07 0.67,-1.38 1.34,-1.38 0.78,0 1.25,0.43 1.62,0.63 z"
         inkscape:connector-curvature="0"
         style="fill:#0000d8;fill-opacity:1;stroke:#0000d8;stroke-width:0;stroke-opacity:1" /><path
         id="path14638"
         d="m 230.81,479.82 0,0.12 0,0.12 0,0.12 0.01,0.11 0.01,0.22 0.01,0.21 0.02,0.2 0.02,0.19 0.03,0.18 0.03,0.17 0.03,0.16 0.04,0.16 0.04,0.14 0.04,0.14 0.04,0.13 0.05,0.12 0.05,0.11 0.05,0.1 0.05,0.1 0.05,0.09 0.06,0.09 0.05,0.07 0.06,0.07 0.06,0.07 0.06,0.06 0.06,0.05 0.05,0.04 0.06,0.05 0.06,0.03 0.06,0.03 0.06,0.03 0.05,0.02 0.06,0.02 0.05,0.01 0,0.23 c -1.6,-0.06 -2.02,-2.05 -2.02,-3.76 0,-1.71 0.42,-3.7 2.02,-3.76 l 0,0.23 c -0.53,0.11 -1.37,0.89 -1.37,3.53 z"
         inkscape:connector-curvature="0"
         style="fill:#0000d8;fill-opacity:1;stroke:#0000d8;stroke-width:0;stroke-opacity:1" /><path
         id="path14640"
         d="m 237.46,477.23 0,0.35 c -0.4,0.03 -0.54,0.11 -0.81,0.45 -0.44,0.6 -0.87,1.22 -1.3,1.86 0.35,0.46 0.69,0.84 1.01,1.17 0.22,0.22 0.41,0.31 0.79,0.32 l 0,0.35 -1.82,0 0,-0.35 0.24,-0.03 c 0.13,-0.02 0.15,-0.1 0.04,-0.25 l -0.55,-0.82 -0.02,0 -0.57,0.87 c -0.06,0.09 -0.05,0.18 0.06,0.19 l 0.21,0.04 0,0.35 -2.39,0 0,-0.35 c 0.41,-0.05 0.5,-0.09 0.68,-0.34 0.38,-0.5 0.76,-1.11 1.22,-1.72 -0.35,-0.45 -0.68,-0.88 -1.04,-1.29 -0.3,-0.33 -0.46,-0.39 -0.94,-0.45 l 0,-0.35 2.03,0 0,0.35 -0.32,0.05 c -0.15,0.02 -0.19,0.11 -0.08,0.27 l 0.64,0.99 0.02,0 0.67,-1.02 c 0.1,-0.16 0.03,-0.24 -0.12,-0.26 l -0.2,-0.03 0,-0.35 z"
         inkscape:connector-curvature="0"
         style="fill:#0000d8;fill-opacity:1;stroke:#0000d8;stroke-width:0;stroke-opacity:1" /><path
         id="path14642"
         d="m 239.04,480.47 -0.11,0 -0.1,-0.01 -0.1,-0.02 -0.09,-0.02 -0.09,-0.02 -0.09,-0.03 -0.08,-0.04 -0.07,-0.04 -0.08,-0.05 -0.07,-0.05 -0.06,-0.05 -0.06,-0.06 -0.06,-0.07 -0.06,-0.07 -0.05,-0.07 -0.05,-0.08 -0.04,-0.08 -0.04,-0.09 -0.04,-0.09 -0.03,-0.09 -0.04,-0.1 -0.02,-0.1 -0.03,-0.11 -0.02,-0.1 -0.02,-0.11 -0.02,-0.12 -0.01,-0.11 -0.01,-0.12 -0.01,-0.13 -0.01,-0.12 0,-0.13 0,-0.13 c 0,-1.39 0.41,-2.4 1.56,-2.4 l 0,0.24 c -0.67,0 -0.85,1.03 -0.85,2.16 0,1.14 0.18,2.17 0.85,2.17 l 0,0 c 0.66,0 0.84,-1.03 0.84,-2.17 0,-1.13 -0.18,-2.16 -0.84,-2.16 l 0,-0.24 c 1.14,0 1.56,1.01 1.56,2.4 0,1.39 -0.42,2.41 -1.56,2.41 z"
         inkscape:connector-curvature="0"
         style="fill:#0000d8;fill-opacity:1;stroke:#0000d8;stroke-width:0;stroke-opacity:1" /><path
         id="path14644"
         d="m 242.03,475.94 0.04,0.04 0.05,0.04 0.09,0.09 0.09,0.09 0.1,0.1 0.09,0.1 0.1,0.1 0.09,0.1 0.04,0.06 0.04,0.05 0.05,0.06 0.04,0.05 0.03,0.06 0.04,0.06 0.03,0.06 0.04,0.06 0.03,0.06 0.02,0.06 0.03,0.07 0.02,0.06 0.02,0.06 0.02,0.07 0.01,0.06 0.01,0.07 0,0.07 0.01,0.06 c 0,0.51 -0.31,0.84 -0.63,0.83 -0.28,0 -0.45,-0.22 -0.45,-0.46 0,-0.33 0.3,-0.5 0.3,-0.89 0,-0.38 -0.23,-0.74 -0.53,-1.06 z"
         inkscape:connector-curvature="0"
         style="fill:#0000d8;fill-opacity:1;stroke:#0000d8;stroke-width:0;stroke-opacity:1" /><path
         id="path14646"
         d="m 246.33,481.14 0.6,0 -0.64,-3.13 c 0,-0.08 -0.01,-0.17 -0.01,-0.25 0,-0.35 0.12,-0.64 0.46,-0.64 0.68,0 1.19,0.52 1.51,1.29 l -0.22,0.13 c -0.24,-0.47 -0.6,-0.95 -0.81,-0.95 -0.12,0 -0.15,0.1 -0.15,0.24 0,0.12 0.02,0.26 0.05,0.4 l 0.62,2.91 1.28,0 0.37,0.7 c -0.25,-0.07 -0.56,-0.11 -0.96,-0.11 l -1.96,0 c -0.47,0 -0.95,-0.18 -1.31,-0.75 l 0.14,-0.16 c 0.32,0.21 0.7,0.32 1.03,0.32 z"
         inkscape:connector-curvature="0"
         style="fill:#0000d8;fill-opacity:1;stroke:#0000d8;stroke-width:0;stroke-opacity:1" /><path
         id="path14648"
         d="m 253.62,478.94 -0.91,0 0.19,0.79 c 0.14,0.53 0.27,0.72 0.47,0.72 0.18,0 0.31,-0.15 0.46,-0.48 0.04,-0.07 0.08,-0.12 0.19,-0.12 0.14,0 0.34,0.13 0.34,0.3 0,0.3 -0.37,0.55 -0.79,0.55 -0.46,0 -0.75,-0.19 -0.98,-0.48 -0.21,-0.27 -0.35,-0.65 -0.45,-1.02 l -0.07,-0.26 -0.61,0 -0.07,-0.26 0.62,0 -0.81,-4.1 c -0.08,-0.43 -0.15,-0.47 -0.22,-0.47 -0.08,0 -0.19,0.06 -0.37,0.34 -0.05,0.07 -0.1,0.16 -0.19,0.16 -0.15,0 -0.31,-0.18 -0.31,-0.35 0,-0.23 0.3,-0.41 0.63,-0.41 0.7,0 0.99,0.57 1.28,1.9 l 0.65,2.93 0.88,0 z"
         inkscape:connector-curvature="0"
         style="fill:#0000d8;fill-opacity:1;stroke:#0000d8;stroke-width:0;stroke-opacity:1" /><path
         id="path14650"
         d="m 256.6,479.82 0,-0.12 0,-0.12 0,-0.12 -0.01,-0.11 0,-0.11 -0.01,-0.11 -0.01,-0.21 -0.02,-0.21 -0.03,-0.19 -0.03,-0.18 -0.03,-0.17 -0.03,-0.16 -0.04,-0.16 -0.04,-0.14 -0.04,-0.14 -0.05,-0.13 -0.04,-0.12 -0.05,-0.11 -0.05,-0.1 -0.06,-0.1 -0.05,-0.09 -0.06,-0.08 -0.05,-0.08 -0.06,-0.07 -0.06,-0.06 -0.06,-0.06 -0.05,-0.05 -0.06,-0.05 -0.06,-0.04 -0.06,-0.03 -0.05,-0.04 -0.06,-0.02 -0.05,-0.02 -0.05,-0.02 -0.05,-0.01 0,-0.23 c 1.6,0.06 2.02,2.05 2.02,3.76 0,1.71 -0.42,3.7 -2.02,3.76 l 0,-0.23 c 0.57,-0.12 1.37,-0.91 1.37,-3.53 z"
         inkscape:connector-curvature="0"
         style="fill:#0000d8;fill-opacity:1;stroke:#0000d8;stroke-width:0;stroke-opacity:1" /></g>    <path
       style="fill:none;fill-rule:evenodd;stroke:#0000d8;stroke-width:1px;stroke-linecap:butt;stroke-linejoin:miter;stroke-opacity:1"
       d="m 144,321.64788 c -10.85277,-4.58232 -21.8146,-8.90635 -32.87307,-12.96719 -8.01669,-2.94386 -16.108753,-5.75987 -23.73858,-9.59645 -3.69,-1.85548 -7.279752,-3.95779 -10.455795,-6.59818 -3.176043,-2.64039 -5.937237,-5.84192 -7.726955,-9.56426 -2.918437,-6.0699 -3.065946,-13.28435 -1.01015,-19.69798 2.356096,-7.3505 7.433283,-13.62393 13.510896,-18.38247 6.077612,-4.75855 13.137384,-8.1086 20.329214,-10.91194 11.08136,-4.31945 22.60251,-7.42706 33.71159,-11.67469 11.10908,-4.24764 21.97295,-9.76539 30.4331,-18.12481 4.52729,-4.47338 8.31977,-9.74715 10.72574,-15.63941 2.40597,-5.89227 3.38931,-12.41761 2.40624,-18.70578 -0.73601,-4.70784 -2.56898,-9.24067 -5.31223,-13.13683"
       id="path14292"
       inkscape:path-effect="#path-effect14294"
       inkscape:original-d="m 144,321.64788 c -11.54344,6.70371 -22.77743,-10.08273 -32.87307,-12.96719 -7.96383,-2.27538 -16.9967,-4.54004 -23.73858,-9.59645 -5.72967,-4.29726 -14.99836,-9.79366 -18.18275,-16.16244 -2.07949,-4.15899 -2.16556,-15.07633 -1.01015,-19.69798 1.92773,-7.71093 26.577,-26.87338 33.84011,-29.29441 12.79286,-4.26429 57.29382,-19.5232 64.14469,-29.7995 5.1736,-7.76041 16.50262,-24.23326 13.13198,-34.34519 -1.17071,-3.51214 -5.68808,-10.01237 -5.31223,-13.13683"
       inkscape:connector-curvature="0" />
  </g>
</svg>
