<?xml version="1.0" encoding="UTF-8" standalone="no"?>
<!-- Created with Inkscape (http://www.inkscape.org/) -->

<svg
   xmlns:ns0="http://www.iki.fi/pav/software/textext/"
   xmlns:dc="http://purl.org/dc/elements/1.1/"
   xmlns:cc="http://creativecommons.org/ns#"
   xmlns:rdf="http://www.w3.org/1999/02/22-rdf-syntax-ns#"
   xmlns:svg="http://www.w3.org/2000/svg"
   xmlns="http://www.w3.org/2000/svg"
   xmlns:sodipodi="http://sodipodi.sourceforge.net/DTD/sodipodi-0.dtd"
   xmlns:inkscape="http://www.inkscape.org/namespaces/inkscape"
   width="210mm"
   height="297mm"
   viewBox="0 0 744.09448819 1052.3622047"
   id="svg2"
   version="1.1"
   inkscape:version="0.48.4 r9939"
   sodipodi:docname="pipe.svg">
  <sodipodi:namedview
     id="base"
     pagecolor="#ffffff"
     bordercolor="#666666"
     borderopacity="1.0"
     inkscape:pageopacity="0.0"
     inkscape:pageshadow="2"
     inkscape:zoom="1.4"
     inkscape:cx="26.362115"
     inkscape:cy="824.56906"
     inkscape:document-units="px"
     inkscape:current-layer="layer1"
     showgrid="true"
     inkscape:window-width="1653"
     inkscape:window-height="926"
     inkscape:window-x="1473"
     inkscape:window-y="47"
     inkscape:window-maximized="0">
    <inkscape:grid
       type="xygrid"
       id="grid4153" />
  </sodipodi:namedview>
  <defs
     id="defs4">
    <marker
       inkscape:isstock="true"
       style="overflow:visible;"
       id="marker8026"
       refX="0.0"
       refY="0.0"
       orient="auto"
       inkscape:stockid="Arrow2Mend">
      <path
         transform="scale(0.6) rotate(180) translate(0,0)"
         d="M 8.7185878,4.0337352 L -2.2072895,0.016013256 L 8.7185884,-4.0017078 C 6.9730900,-1.6296469 6.9831476,1.6157441 8.7185878,4.0337352 z "
         style="fill-rule:evenodd;stroke-width:0.625;stroke-linejoin:round;stroke:#0000c8;stroke-opacity:1;fill:#0000c8;fill-opacity:1"
         id="path8028" />
    </marker>
    <marker
       inkscape:stockid="Arrow2Mend"
       orient="auto"
       refY="0.0"
       refX="0.0"
       id="marker7992"
       style="overflow:visible;"
       inkscape:isstock="true">
      <path
         id="path7994"
         style="fill-rule:evenodd;stroke-width:0.625;stroke-linejoin:round;stroke:#c80000;stroke-opacity:1;fill:#c80000;fill-opacity:1"
         d="M 8.7185878,4.0337352 L -2.2072895,0.016013256 L 8.7185884,-4.0017078 C 6.9730900,-1.6296469 6.9831476,1.6157441 8.7185878,4.0337352 z "
         transform="scale(0.6) rotate(180) translate(0,0)" />
    </marker>
    <inkscape:path-effect
       effect="spiro"
       id="path-effect7090"
       is_visible="true" />
    <marker
       inkscape:collect="always"
       inkscape:isstock="true"
       style="overflow:visible;"
       id="marker6681"
       refX="0.0"
       refY="0.0"
       orient="auto"
       inkscape:stockid="Arrow2Mend">
      <path
         transform="scale(0.6) rotate(180) translate(0,0)"
         d="M 8.7185878,4.0337352 L -2.2072895,0.016013256 L 8.7185884,-4.0017078 C 6.9730900,-1.6296469 6.9831476,1.6157441 8.7185878,4.0337352 z "
         style="fill-rule:evenodd;stroke-width:0.625;stroke-linejoin:round;stroke:#00c800;stroke-opacity:1;fill:#00c800;fill-opacity:1"
         id="path6683" />
    </marker>
    <marker
       inkscape:collect="always"
       inkscape:stockid="Arrow2Mend"
       orient="auto"
       refY="0.0"
       refX="0.0"
       id="Arrow2Mend"
       style="overflow:visible;"
       inkscape:isstock="true">
      <path
         id="path4251"
         style="fill-rule:evenodd;stroke-width:0.625;stroke-linejoin:round;stroke:#00c800;stroke-opacity:1;fill:#00c800;fill-opacity:1"
         d="M 8.7185878,4.0337352 L -2.2072895,0.016013256 L 8.7185884,-4.0017078 C 6.9730900,-1.6296469 6.9831476,1.6157441 8.7185878,4.0337352 z "
         transform="scale(0.6) rotate(180) translate(0,0)" />
    </marker>
    <marker
       inkscape:stockid="Arrow2Lend"
       orient="auto"
       refY="0.0"
       refX="0.0"
       id="Arrow2Lend"
       style="overflow:visible;"
       inkscape:isstock="true">
      <path
         id="path4245"
         style="fill-rule:evenodd;stroke-width:0.625;stroke-linejoin:round;stroke:#00c800;stroke-opacity:1;fill:#00c800;fill-opacity:1"
         d="M 8.7185878,4.0337352 L -2.2072895,0.016013256 L 8.7185884,-4.0017078 C 6.9730900,-1.6296469 6.9831476,1.6157441 8.7185878,4.0337352 z "
         transform="scale(1.1) rotate(180) translate(1,0)" />
    </marker>
    <marker
       inkscape:stockid="Arrow1Lend"
       orient="auto"
       refY="0.0"
       refX="0.0"
       id="Arrow1Lend"
       style="overflow:visible;"
       inkscape:isstock="true">
      <path
         id="path4227"
         d="M 0.0,0.0 L 5.0,-5.0 L -12.5,0.0 L 5.0,5.0 L 0.0,0.0 z "
         style="fill-rule:evenodd;stroke:#00c800;stroke-width:1pt;stroke-opacity:1;fill:#00c800;fill-opacity:1"
         transform="scale(0.8) rotate(180) translate(12.5,0)" />
    </marker>
    <clipPath
       clipPathUnits="userSpaceOnUse"
       id="clipPath4178">
      <rect
         style="fill:#ffff00;fill-opacity:1;stroke:#000000;stroke-width:2;stroke-miterlimit:4;stroke-dasharray:none;stroke-dashoffset:0;stroke-opacity:1"
         id="rect4180"
         width="95"
         height="185"
         x="395.45941"
         y="22.412968" />
    </clipPath>
    <clipPath
       clipPathUnits="userSpaceOnUse"
       id="clipPath7096">
      <path
         style="fill:none;fill-rule:evenodd;stroke:#000000;stroke-width:1px;stroke-linecap:butt;stroke-linejoin:miter;stroke-opacity:1"
         d="m 105,99.362183 0,12.999997 9,-10 -3,-3.999997 -6,0 z"
         id="path7098"
         inkscape:connector-curvature="0" />
    </clipPath>
    <marker
       inkscape:isstock="true"
       style="overflow:visible"
       id="marker6681-7"
       refX="0"
       refY="0"
       orient="auto"
       inkscape:stockid="Arrow2Mend">
      <path
         inkscape:connector-curvature="0"
         transform="scale(-0.6,-0.6)"
         d="M 8.7185878,4.0337352 -2.2072895,0.01601326 8.7185884,-4.0017078 c -1.7454984,2.3720609 -1.7354408,5.6174519 -6e-7,8.035443 z"
         style="fill:#00c800;fill-opacity:1;fill-rule:evenodd;stroke:#00c800;stroke-width:0.625;stroke-linejoin:round;stroke-opacity:1"
         id="path6683-4" />
    </marker>
    <clipPath
       clipPathUnits="userSpaceOnUse"
       id="clipPath4178-6">
      <rect
         style="fill:#ffff00;fill-opacity:1;stroke:#000000;stroke-width:2;stroke-miterlimit:4;stroke-dasharray:none;stroke-dashoffset:0;stroke-opacity:1"
         id="rect4180-1"
         width="95"
         height="185"
         x="395.45941"
         y="22.412968" />
    </clipPath>
    <marker
       inkscape:isstock="true"
       style="overflow:visible"
       id="marker8026-2"
       refX="0"
       refY="0"
       orient="auto"
       inkscape:stockid="Arrow2Mend">
      <path
         transform="scale(-0.6,-0.6)"
         d="M 8.7185878,4.0337352 -2.2072895,0.01601326 8.7185884,-4.0017078 c -1.7454984,2.3720609 -1.7354408,5.6174519 -6e-7,8.035443 z"
         style="fill:#0000c8;fill-opacity:1;fill-rule:evenodd;stroke:#0000c8;stroke-width:0.625;stroke-linejoin:round;stroke-opacity:1"
         id="path8028-3"
         inkscape:connector-curvature="0" />
    </marker>
    <marker
       inkscape:isstock="true"
       style="overflow:visible"
       id="marker8026-7"
       refX="0"
       refY="0"
       orient="auto"
       inkscape:stockid="Arrow2Mend">
      <path
         transform="scale(-0.6,-0.6)"
         d="M 8.7185878,4.0337352 -2.2072895,0.01601326 8.7185884,-4.0017078 c -1.7454984,2.3720609 -1.7354408,5.6174519 -6e-7,8.035443 z"
         style="fill:#0000c8;fill-opacity:1;fill-rule:evenodd;stroke:#0000c8;stroke-width:0.625;stroke-linejoin:round;stroke-opacity:1"
         id="path8028-1"
         inkscape:connector-curvature="0" />
    </marker>
    <marker
       inkscape:isstock="true"
       style="overflow:visible"
       id="marker8026-6"
       refX="0"
       refY="0"
       orient="auto"
       inkscape:stockid="Arrow2Mend">
      <path
         transform="scale(-0.6,-0.6)"
         d="M 8.7185878,4.0337352 -2.2072895,0.01601326 8.7185884,-4.0017078 c -1.7454984,2.3720609 -1.7354408,5.6174519 -6e-7,8.035443 z"
         style="fill:#0000c8;fill-opacity:1;fill-rule:evenodd;stroke:#0000c8;stroke-width:0.625;stroke-linejoin:round;stroke-opacity:1"
         id="path8028-34"
         inkscape:connector-curvature="0" />
    </marker>
    <marker
       inkscape:isstock="true"
       style="overflow:visible"
       id="marker8026-8"
       refX="0"
       refY="0"
       orient="auto"
       inkscape:stockid="Arrow2Mend">
      <path
         transform="scale(-0.6,-0.6)"
         d="M 8.7185878,4.0337352 -2.2072895,0.01601326 8.7185884,-4.0017078 c -1.7454984,2.3720609 -1.7354408,5.6174519 -6e-7,8.035443 z"
         style="fill:#0000c8;fill-opacity:1;fill-rule:evenodd;stroke:#0000c8;stroke-width:0.625;stroke-linejoin:round;stroke-opacity:1"
         id="path8028-8"
         inkscape:connector-curvature="0" />
    </marker>
    <marker
       inkscape:isstock="true"
       style="overflow:visible"
       id="marker8026-4"
       refX="0"
       refY="0"
       orient="auto"
       inkscape:stockid="Arrow2Mend">
      <path
         transform="scale(-0.6,-0.6)"
         d="M 8.7185878,4.0337352 -2.2072895,0.01601326 8.7185884,-4.0017078 c -1.7454984,2.3720609 -1.7354408,5.6174519 -6e-7,8.035443 z"
         style="fill:#0000c8;fill-opacity:1;fill-rule:evenodd;stroke:#0000c8;stroke-width:0.625;stroke-linejoin:round;stroke-opacity:1"
         id="path8028-2"
         inkscape:connector-curvature="0" />
    </marker>
    <marker
       inkscape:isstock="true"
       style="overflow:visible"
       id="marker8026-3"
       refX="0"
       refY="0"
       orient="auto"
       inkscape:stockid="Arrow2Mend">
      <path
         transform="scale(-0.6,-0.6)"
         d="M 8.7185878,4.0337352 -2.2072895,0.01601326 8.7185884,-4.0017078 c -1.7454984,2.3720609 -1.7354408,5.6174519 -6e-7,8.035443 z"
         style="fill:#0000c8;fill-opacity:1;fill-rule:evenodd;stroke:#0000c8;stroke-width:0.625;stroke-linejoin:round;stroke-opacity:1"
         id="path8028-17"
         inkscape:connector-curvature="0" />
    </marker>
    <marker
       inkscape:isstock="true"
       style="overflow:visible"
       id="marker8026-45"
       refX="0"
       refY="0"
       orient="auto"
       inkscape:stockid="Arrow2Mend">
      <path
         transform="scale(-0.6,-0.6)"
         d="M 8.7185878,4.0337352 -2.2072895,0.01601326 8.7185884,-4.0017078 c -1.7454984,2.3720609 -1.7354408,5.6174519 -6e-7,8.035443 z"
         style="fill:#0000c8;fill-opacity:1;fill-rule:evenodd;stroke:#0000c8;stroke-width:0.625;stroke-linejoin:round;stroke-opacity:1"
         id="path8028-80"
         inkscape:connector-curvature="0" />
    </marker>
    <marker
       inkscape:isstock="true"
       style="overflow:visible"
       id="marker8026-8-1"
       refX="0"
       refY="0"
       orient="auto"
       inkscape:stockid="Arrow2Mend">
      <path
         transform="scale(-0.6,-0.6)"
         d="M 8.7185878,4.0337352 -2.2072895,0.01601326 8.7185884,-4.0017078 c -1.7454984,2.3720609 -1.7354408,5.6174519 -6e-7,8.035443 z"
         style="fill:#0000c8;fill-opacity:1;fill-rule:evenodd;stroke:#0000c8;stroke-width:0.625;stroke-linejoin:round;stroke-opacity:1"
         id="path8028-8-5"
         inkscape:connector-curvature="0" />
    </marker>
    <marker
       inkscape:isstock="true"
       style="overflow:visible"
       id="marker8026-6-9"
       refX="0"
       refY="0"
       orient="auto"
       inkscape:stockid="Arrow2Mend">
      <path
         transform="scale(-0.6,-0.6)"
         d="M 8.7185878,4.0337352 -2.2072895,0.01601326 8.7185884,-4.0017078 c -1.7454984,2.3720609 -1.7354408,5.6174519 -6e-7,8.035443 z"
         style="fill:#0000c8;fill-opacity:1;fill-rule:evenodd;stroke:#0000c8;stroke-width:0.625;stroke-linejoin:round;stroke-opacity:1"
         id="path8028-34-0"
         inkscape:connector-curvature="0" />
    </marker>
    <marker
       inkscape:isstock="true"
       style="overflow:visible"
       id="marker8026-7-1"
       refX="0"
       refY="0"
       orient="auto"
       inkscape:stockid="Arrow2Mend">
      <path
         transform="scale(-0.6,-0.6)"
         d="M 8.7185878,4.0337352 -2.2072895,0.01601326 8.7185884,-4.0017078 c -1.7454984,2.3720609 -1.7354408,5.6174519 -6e-7,8.035443 z"
         style="fill:#0000c8;fill-opacity:1;fill-rule:evenodd;stroke:#0000c8;stroke-width:0.625;stroke-linejoin:round;stroke-opacity:1"
         id="path8028-1-7"
         inkscape:connector-curvature="0" />
    </marker>
    <marker
       inkscape:isstock="true"
       style="overflow:visible"
       id="marker8026-6-5"
       refX="0"
       refY="0"
       orient="auto"
       inkscape:stockid="Arrow2Mend">
      <path
         transform="scale(-0.6,-0.6)"
         d="M 8.7185878,4.0337352 -2.2072895,0.01601326 8.7185884,-4.0017078 c -1.7454984,2.3720609 -1.7354408,5.6174519 -6e-7,8.035443 z"
         style="fill:#0000c8;fill-opacity:1;fill-rule:evenodd;stroke:#0000c8;stroke-width:0.625;stroke-linejoin:round;stroke-opacity:1"
         id="path8028-34-6"
         inkscape:connector-curvature="0" />
    </marker>
    <marker
       inkscape:isstock="true"
       style="overflow:visible"
       id="marker8026-7-0"
       refX="0"
       refY="0"
       orient="auto"
       inkscape:stockid="Arrow2Mend">
      <path
         transform="scale(-0.6,-0.6)"
         d="M 8.7185878,4.0337352 -2.2072895,0.01601326 8.7185884,-4.0017078 c -1.7454984,2.3720609 -1.7354408,5.6174519 -6e-7,8.035443 z"
         style="fill:#0000c8;fill-opacity:1;fill-rule:evenodd;stroke:#0000c8;stroke-width:0.625;stroke-linejoin:round;stroke-opacity:1"
         id="path8028-1-8"
         inkscape:connector-curvature="0" />
    </marker>
    <marker
       inkscape:isstock="true"
       style="overflow:visible"
       id="marker8026-2-0"
       refX="0"
       refY="0"
       orient="auto"
       inkscape:stockid="Arrow2Mend">
      <path
         transform="scale(-0.6,-0.6)"
         d="M 8.7185878,4.0337352 -2.2072895,0.01601326 8.7185884,-4.0017078 c -1.7454984,2.3720609 -1.7354408,5.6174519 -6e-7,8.035443 z"
         style="fill:#0000c8;fill-opacity:1;fill-rule:evenodd;stroke:#0000c8;stroke-width:0.625;stroke-linejoin:round;stroke-opacity:1"
         id="path8028-3-6"
         inkscape:connector-curvature="0" />
    </marker>
    <marker
       inkscape:isstock="true"
       style="overflow:visible"
       id="marker8026-37"
       refX="0"
       refY="0"
       orient="auto"
       inkscape:stockid="Arrow2Mend">
      <path
         transform="scale(-0.6,-0.6)"
         d="M 8.7185878,4.0337352 -2.2072895,0.01601326 8.7185884,-4.0017078 c -1.7454984,2.3720609 -1.7354408,5.6174519 -6e-7,8.035443 z"
         style="fill:#0000c8;fill-opacity:1;fill-rule:evenodd;stroke:#0000c8;stroke-width:0.625;stroke-linejoin:round;stroke-opacity:1"
         id="path8028-88"
         inkscape:connector-curvature="0" />
    </marker>
  </defs>
  <metadata
     id="metadata7">
    <rdf:RDF>
      <cc:Work
         rdf:about="">
        <dc:format>image/svg+xml</dc:format>
        <dc:type
           rdf:resource="http://purl.org/dc/dcmitype/StillImage" />
        <dc:title></dc:title>
      </cc:Work>
    </rdf:RDF>
  </metadata>
  <g
     inkscape:label="Layer 1"
     inkscape:groupmode="layer"
     id="layer1">
    <ellipse
       style="fill:none;fill-opacity:1;stroke:#000000;stroke-width:1.309;stroke-miterlimit:4;stroke-dasharray:none;stroke-dashoffset:0;stroke-opacity:1"
       id="path4136"
       cx="105.02613"
       cy="112.0318"
       rx="44.433216"
       ry="69.177612" />
    <ellipse
       transform="translate(-65.475446,0)"
       style="fill:none;fill-opacity:1;stroke:#000000;stroke-width:1.30909479;stroke-miterlimit:4;stroke-dasharray:none;stroke-dashoffset:0;stroke-opacity:1"
       id="path4136-2"
       cx="395.74039"
       cy="112.0318"
       rx="44.433216"
       ry="69.177612"
       clip-path="url(#clipPath4178)" />
    <path
       style="fill:none;fill-rule:evenodd;stroke:#000000;stroke-width:1.14410257;stroke-linecap:butt;stroke-linejoin:miter;stroke-miterlimit:4;stroke-dasharray:none;stroke-opacity:1"
       d="m 105.06193,42.854868 224.92747,0"
       id="path4182"
       inkscape:connector-curvature="0" />
    <path
       style="fill:none;fill-rule:evenodd;stroke:#000000;stroke-width:1.14411974;stroke-linecap:butt;stroke-linejoin:miter;stroke-miterlimit:4;stroke-dasharray:none;stroke-opacity:1"
       d="m 105.05782,181.20594 224.93423,0"
       id="path4182-4"
       inkscape:connector-curvature="0" />
    <path
       style="fill:none;fill-rule:evenodd;stroke:#00c800;stroke-width:1.4;stroke-linecap:butt;stroke-linejoin:miter;stroke-miterlimit:4;stroke-dasharray:none;stroke-opacity:1;marker-end:url(#Arrow2Mend)"
       d="m 105.00782,112.37527 0,-66.390751"
       id="path4218"
       inkscape:connector-curvature="0" />
    <path
       style="fill:none;fill-rule:evenodd;stroke:#00c800;stroke-width:1.35877466;stroke-linecap:butt;stroke-linejoin:miter;stroke-miterlimit:4;stroke-dasharray:none;stroke-opacity:1;marker-end:url(#marker6681)"
       d="m 104.30552,112.3622 42.38882,0"
       id="path4768"
       inkscape:connector-curvature="0" />
    <g
       style="font-style:normal;font-variant:normal;font-weight:normal;font-stretch:normal;letter-spacing:normal;word-spacing:normal;text-anchor:start;fill:none;fill-opacity:1;fill-rule:evenodd;stroke:#000000;stroke-linecap:butt;stroke-linejoin:miter;stroke-miterlimit:10.43299961;stroke-dasharray:none;stroke-dashoffset:0;stroke-opacity:1"
       id="content"
       transform="matrix(2,0,0,-2,-444.46702,1432.5723)"
       xml:space="preserve"
       stroke-miterlimit="10.433"
       font-style="normal"
       font-variant="normal"
       font-weight="normal"
       font-stretch="normal"
       font-size-adjust="none"
       letter-spacing="normal"
       word-spacing="normal"
       ns0:text="$x$"
       ns0:preamble="/usr/local/home/burak/svn/siminos/budanur/presentations/DDays15/inkscape/ks1.ini"><path
         style="fill:#00c800;fill-opacity:1;stroke-width:0"
         inkscape:connector-curvature="0"
         d="m 271.14714,688.5 -0.04,-0.08 -0.05,-0.08 -0.04,-0.08 -0.04,-0.07 -0.05,-0.08 -0.04,-0.08 -0.02,-0.03 -0.03,-0.04 -0.02,-0.03 -0.02,-0.03 -0.02,-0.04 -0.03,-0.03 -0.02,-0.02 -0.02,-0.03 -0.03,-0.03 -0.02,-0.02 -0.02,-0.03 -0.03,-0.02 -0.02,-0.01 -0.02,-0.02 -0.03,-0.01 -0.02,-0.02 -0.03,-0.01 -0.02,0 -0.02,-0.01 -0.03,0 c -0.17,0 -0.25,0.21 -0.45,1.03 l -0.29,1.2 c 0.33,0.59 0.8,1.32 1.06,1.32 0.09,0 0.16,-0.02 0.26,-0.07 0.09,-0.04 0.18,-0.08 0.29,-0.08 0.21,0 0.4,0.2 0.4,0.44 0,0.29 -0.21,0.4 -0.47,0.4 -0.49,0 -0.9,-0.44 -1.22,-0.95 l -0.4,-0.63 -0.02,0 -0.37,1.54 -0.06,0.04 -1.51,-0.46 0.03,-0.22 0.68,0.05 c 0.17,0 0.24,-0.04 0.34,-0.46 l 0.33,-1.33 -0.26,-0.44 c -0.4,-0.67 -0.74,-1.15 -0.96,-1.15 -0.09,0 -0.18,0.04 -0.26,0.08 -0.09,0.05 -0.21,0.14 -0.37,0.14 -0.24,0 -0.39,-0.24 -0.39,-0.46 0,-0.26 0.22,-0.47 0.58,-0.47 0.63,0 0.99,0.63 1.36,1.24 l 0.37,0.61 0.02,0 0.16,-0.72 c 0.18,-0.73 0.35,-1.13 0.82,-1.13 0.67,0 1.02,0.69 1.3,1.25 z"
         id="path6992" /></g>    <g
       style="font-style:normal;font-variant:normal;font-weight:normal;font-stretch:normal;letter-spacing:normal;word-spacing:normal;text-anchor:start;fill:#00c800;fill-opacity:1;fill-rule:evenodd;stroke:#00c800;stroke-linecap:butt;stroke-linejoin:miter;stroke-miterlimit:10.43299961;stroke-dasharray:none;stroke-dashoffset:0;stroke-opacity:1"
       ns0:preamble="/usr/local/home/burak/svn/siminos/budanur/presentations/DDays15/inkscape/ks1.ini"
       ns0:text="$y$"
       word-spacing="normal"
       letter-spacing="normal"
       font-size-adjust="none"
       font-stretch="normal"
       font-weight="normal"
       font-variant="normal"
       font-style="normal"
       stroke-miterlimit="10.433"
       xml:space="preserve"
       transform="matrix(2,0,0,-2,-311.12868,1081.3033)"
       id="g7058"><path
         id="path7060"
         d="m 224.58,481.4 0.03,-0.23 0.62,0.02 c 0.21,0.01 0.25,-0.15 0.33,-0.63 0.1,-0.71 0.3,-2.47 0.3,-3.21 0,-0.27 -0.02,-0.65 -0.22,-1.13 -0.17,-0.39 -0.41,-0.65 -0.59,-0.65 -0.14,0 -0.24,0.1 -0.38,0.28 -0.11,0.15 -0.18,0.22 -0.32,0.22 -0.24,-0.01 -0.47,-0.28 -0.47,-0.55 0,-0.25 0.27,-0.5 0.67,-0.5 0.79,0 1.13,0.57 1.93,1.97 0.19,0.31 0.74,1.28 1.31,2.22 0.52,0.86 1.1,1.75 1.1,2.12 0,0.32 -0.1,0.51 -0.17,0.51 -0.17,0 -0.48,-0.07 -0.71,-0.23 0.01,-0.32 -0.01,-0.88 -0.12,-1.27 -0.15,-0.51 -0.69,-1.5 -1.3,-2.55 l -0.02,0 c -0.07,1.41 -0.24,3.34 -0.37,4.01 l -0.08,0.04 z"
         inkscape:connector-curvature="0"
         style="fill:#00c800;fill-opacity:1;stroke:#00c800;stroke-width:0;stroke-opacity:1" /></g>    <path
       style="fill:#ff6600;fill-rule:evenodd;stroke:#ff6400;stroke-width:1.19660497px;stroke-linecap:butt;stroke-linejoin:miter;stroke-opacity:1"
       d="m 104.61809,112.55611 37.71791,-27.032695 0,0"
       id="path7086"
       inkscape:connector-curvature="0" />
    <ellipse
       style="fill:none;fill-opacity:1;stroke:#ff6400;stroke-width:1.39999998;stroke-miterlimit:4;stroke-dasharray:none;stroke-dashoffset:0;stroke-opacity:1"
       id="path7092"
       cx="104.75"
       cy="112.59433"
       rx="12"
       ry="13"
       clip-path="url(#clipPath7096)"
       transform="matrix(1.4464286,0,0,1,-46.875,0)" />
    <g
       style="font-style:normal;font-variant:normal;font-weight:normal;font-stretch:normal;letter-spacing:normal;word-spacing:normal;text-anchor:start;fill:#ff6400;fill-opacity:1;fill-rule:evenodd;stroke:#000000;stroke-linecap:butt;stroke-linejoin:miter;stroke-miterlimit:10.43299961;stroke-dasharray:none;stroke-dashoffset:0;stroke-opacity:1"
       id="g7139"
       transform="matrix(2,0,0,-2,-317.17833,1057.5159)"
       xml:space="preserve"
       stroke-miterlimit="10.433"
       font-style="normal"
       font-variant="normal"
       font-weight="normal"
       font-stretch="normal"
       font-size-adjust="none"
       letter-spacing="normal"
       word-spacing="normal"
       ns0:text="$r$"
       ns0:preamble="/usr/local/home/burak/svn/siminos/budanur/presentations/DDays15/inkscape/ks1.ini"><path
         style="fill:#ff6400;fill-opacity:1;stroke-width:0"
         inkscape:connector-curvature="0"
         d="m 225.18,477.23 0.03,0.12 0.03,0.11 0.03,0.12 0.03,0.12 0.06,0.25 0.06,0.24 0.03,0.13 0.03,0.12 0.03,0.12 0.03,0.11 0.03,0.12 0.03,0.11 0.03,0.1 0.02,0.11 c 0.34,1.2 0.79,1.99 1.14,1.99 0.29,0 0.35,-0.23 0.65,-0.23 0.23,0 0.43,0.3 0.43,0.56 0.01,0.25 -0.12,0.41 -0.41,0.41 -0.52,0 -1.15,-0.58 -1.65,-1.57 l -0.02,0 0.42,1.52 -0.05,0.05 -1.58,-0.26 -0.06,-0.22 0.57,-0.04 c 0.23,-0.02 0.21,-0.15 0.14,-0.44 l -0.84,-3.76 z"
         id="path7141" /></g>    <path
       style="fill:#00c800;fill-rule:evenodd;stroke:#00c800;stroke-width:1.4;stroke-linecap:butt;stroke-linejoin:miter;stroke-miterlimit:4;stroke-dasharray:none;stroke-opacity:1;marker-end:url(#marker6681-7);fill-opacity:1"
       d="m 104.96623,192.27291 202.14664,0"
       id="path4768-2"
       inkscape:connector-curvature="0" />
    <g
       id="g7919"
       transform="matrix(2,0,0,-2,-148.47023,1160.7982)"
       xml:space="preserve"
       stroke-miterlimit="10.433"
       font-style="normal"
       font-variant="normal"
       font-weight="normal"
       font-stretch="normal"
       font-size-adjust="none"
       letter-spacing="normal"
       word-spacing="normal"
       ns0:text="$z$"
       ns0:preamble="/usr/local/home/burak/svn/siminos/budanur/presentations/DDays15/inkscape/ks1.ini"
       style="font-style:normal;font-variant:normal;font-weight:normal;font-stretch:normal;letter-spacing:normal;word-spacing:normal;text-anchor:start;fill:#00c800;fill-opacity:1;fill-rule:evenodd;stroke:#00c800;stroke-linecap:butt;stroke-linejoin:miter;stroke-miterlimit:10.43299961;stroke-dasharray:none;stroke-dashoffset:0;stroke-opacity:1"><path
         inkscape:connector-curvature="0"
         style="fill:#00c800;fill-opacity:1;stroke-width:0;stroke:#00c800;stroke-opacity:1"
         d="m 225.33,481.73 -0.01,-0.02 -0.02,-0.02 -0.01,-0.02 -0.02,-0.02 -0.01,-0.02 -0.02,-0.03 -0.01,-0.03 -0.02,-0.03 -0.02,-0.03 -0.02,-0.03 -0.02,-0.03 -0.02,-0.04 -0.02,-0.04 -0.02,-0.04 -0.02,-0.04 -0.02,-0.04 -0.02,-0.04 -0.02,-0.04 -0.02,-0.05 -0.03,-0.05 -0.02,-0.05 -0.02,-0.04 -0.02,-0.06 -0.02,-0.05 -0.04,-0.1 -0.05,-0.11 -0.04,-0.12 -0.04,-0.11 0.23,-0.1 c 0.3,0.53 0.44,0.81 0.88,0.81 l 1.61,0 c -1.16,-1.17 -2.23,-2.24 -3.22,-3.25 -0.15,-0.14 -0.22,-0.34 -0.22,-0.49 0,-0.12 0.05,-0.28 0.21,-0.28 0.13,0 0.43,0.07 0.43,0.23 l 0,0.4 c 0,0.1 0.05,0.16 0.12,0.16 0.15,0 0.47,-0.21 1.01,-0.42 0.49,-0.19 0.92,-0.37 1.35,-0.37 0.6,0 0.87,0.81 1.12,1.77 l -0.25,0.07 c -0.24,-0.57 -0.46,-1.12 -0.87,-1.12 -0.28,0 -0.7,0.14 -1.04,0.27 -0.3,0.11 -0.62,0.22 -0.86,0.25 1.02,1.07 2.07,2.16 3.18,3.24 l -0.07,0.13 z"
         id="path7921" /></g>    <ellipse
       style="fill:none;fill-opacity:1;stroke:#c80000;stroke-width:1.30900002;stroke-miterlimit:4;stroke-dasharray:none;stroke-dashoffset:0;stroke-opacity:1"
       id="path4136-2-6"
       cx="395.74039"
       cy="112.0318"
       rx="44.433216"
       ry="69.177612"
       clip-path="url(#clipPath4178-6)"
       transform="translate(-145.3956,-0.02680783)" />
    <path
       inkscape:connector-curvature="0"
       id="path7982"
       d="m 250,43.433611 0,137.034529"
       style="fill:none;fill-rule:evenodd;stroke:#c80000;stroke-width:1.29499996;stroke-linecap:butt;stroke-linejoin:miter;stroke-miterlimit:4;stroke-dasharray:none;stroke-dashoffset:0;stroke-opacity:1" />
    <path
       inkscape:connector-curvature="0"
       id="path7984"
       d="m 250,52.362183 20.70035,0"
       style="fill:#0000c8;fill-opacity:1;fill-rule:evenodd;stroke:#0000c8;stroke-width:0.9700129px;stroke-linecap:butt;stroke-linejoin:miter;stroke-opacity:1;marker-end:url(#marker8026)" />
    <path
       inkscape:connector-curvature="0"
       id="path7984-9"
       d="m 250,62.43901 28.60068,0"
       style="fill:#0000c8;fill-opacity:1;fill-rule:evenodd;stroke:#0000c8;stroke-width:1.14018905px;stroke-linecap:butt;stroke-linejoin:miter;stroke-opacity:1;marker-end:url(#marker8026-2)" />
    <path
       inkscape:connector-curvature="0"
       id="path7984-4"
       d="m 250,72.664253 33.90688,0"
       style="fill:#0000c8;fill-opacity:1;fill-rule:evenodd;stroke:#0000c8;stroke-width:1.24145949px;stroke-linecap:butt;stroke-linejoin:miter;stroke-opacity:1;marker-end:url(#marker8026-7)" />
    <path
       inkscape:connector-curvature="0"
       id="path7984-2"
       d="m 250,82.336209 37.79809,0"
       style="fill:#0000c8;fill-opacity:1;fill-rule:evenodd;stroke:#0000c8;stroke-width:1.31076121px;stroke-linecap:butt;stroke-linejoin:miter;stroke-opacity:1;marker-end:url(#marker8026-6)" />
    <path
       inkscape:connector-curvature="0"
       id="path7984-5"
       d="m 250,92.513243 40.52344,0"
       style="fill:#0000c8;fill-opacity:1;fill-rule:evenodd;stroke:#0000c8;stroke-width:1.35719359px;stroke-linecap:butt;stroke-linejoin:miter;stroke-opacity:1;marker-end:url(#marker8026-8)" />
    <path
       inkscape:connector-curvature="0"
       id="path7984-95"
       d="m 250,102.38697 41.80721,0"
       style="fill:#0000c8;fill-opacity:1;fill-rule:evenodd;stroke:#0000c8;stroke-width:1.37852383px;stroke-linecap:butt;stroke-linejoin:miter;stroke-opacity:1;marker-end:url(#marker8026-4)" />
    <path
       inkscape:connector-curvature="0"
       id="path7984-1"
       d="m 250,112.33621 42.27887,0"
       style="fill:#0000c8;fill-opacity:1;fill-rule:evenodd;stroke:#0000c8;stroke-width:1.38627815px;stroke-linecap:butt;stroke-linejoin:miter;stroke-opacity:1;marker-end:url(#marker8026-3)" />
    <path
       inkscape:connector-curvature="0"
       id="path7984-5-4"
       d="m 250,122.69182 41.88262,0"
       style="fill:#0000c8;fill-opacity:1;fill-rule:evenodd;stroke:#0000c8;stroke-width:1.37976635px;stroke-linecap:butt;stroke-linejoin:miter;stroke-opacity:1;marker-end:url(#marker8026-8-1)" />
    <path
       inkscape:connector-curvature="0"
       id="path7984-2-0"
       d="m 250,132.87191 40.85225,0"
       style="fill:#0000c8;fill-opacity:1;fill-rule:evenodd;stroke:#0000c8;stroke-width:1.36268878px;stroke-linecap:butt;stroke-linejoin:miter;stroke-opacity:1;marker-end:url(#marker8026-6-9)" />
    <path
       inkscape:connector-curvature="0"
       id="path7984-4-1"
       d="m 250,142.12854 37.96781,0"
       style="fill:#0000c8;fill-opacity:1;fill-rule:evenodd;stroke:#0000c8;stroke-width:1.31370056px;stroke-linecap:butt;stroke-linejoin:miter;stroke-opacity:1;marker-end:url(#marker8026-7-1)" />
    <path
       inkscape:connector-curvature="0"
       id="path7984-4-6"
       d="m 250,152.66425 33.90688,0"
       style="fill:#0000c8;fill-opacity:1;fill-rule:evenodd;stroke:#0000c8;stroke-width:1.24145949px;stroke-linecap:butt;stroke-linejoin:miter;stroke-opacity:1;marker-end:url(#marker8026-7-0)" />
    <path
       inkscape:connector-curvature="0"
       id="path7984-9-3"
       d="m 250,162.61758 28.60068,0"
       style="fill:#0000c8;fill-opacity:1;fill-rule:evenodd;stroke:#0000c8;stroke-width:1.14018905px;stroke-linecap:butt;stroke-linejoin:miter;stroke-opacity:1;marker-end:url(#marker8026-2-0)" />
    <path
       inkscape:connector-curvature="0"
       id="path7984-17"
       d="m 250,172.36223 20.70035,0"
       style="fill:#0000c8;fill-opacity:1;fill-rule:evenodd;stroke:#0000c8;stroke-width:0.9700129px;stroke-linecap:butt;stroke-linejoin:miter;stroke-opacity:1;marker-end:url(#marker8026-37)" />
    <g
       id="g3155"
       style="fill:#ff6400;fill-opacity:1"
       transform="matrix(0.35078326,0,0,0.35078326,4.8172994,-26.996949)">
      <g
         word-spacing="normal"
         letter-spacing="normal"
         font-size-adjust="none"
         font-stretch="normal"
         font-weight="normal"
         font-variant="normal"
         font-style="normal"
         stroke-miterlimit="10.433"
         xml:space="preserve"
         transform="matrix(1.0629921,0,0,-1.0629921,-186.02362,789.27165)"
         id="g3157"
         style="font-style:normal;font-variant:normal;font-weight:normal;font-stretch:normal;letter-spacing:normal;word-spacing:normal;text-anchor:start;fill:#ff6400;fill-opacity:1;fill-rule:evenodd;stroke:#000000;stroke-linecap:butt;stroke-linejoin:miter;stroke-miterlimit:10.43299961;stroke-opacity:1;stroke-dasharray:none;stroke-dashoffset:0"><path
           id="path3159"
           d="m 478.19,431.11 0,0.31 -0.01,0.34 -0.02,0.36 -0.02,0.37 -0.03,0.39 -0.04,0.39 -0.04,0.41 -0.06,0.41 -0.07,0.42 -0.07,0.43 -0.09,0.42 -0.1,0.43 -0.12,0.42 -0.12,0.42 -0.14,0.41 -0.16,0.41 -0.17,0.4 -0.18,0.38 -0.2,0.37 -0.22,0.36 -0.23,0.34 -0.25,0.32 -0.28,0.3 -0.29,0.27 -0.31,0.25 -0.16,0.12 -0.17,0.1 -0.17,0.1 -0.18,0.1 -0.18,0.08 -0.19,0.08 -0.19,0.07 -0.2,0.06 -0.21,0.05 -0.21,0.05 -0.22,0.03 -0.22,0.02 -0.23,0.02 -0.23,0 -0.05,-1.09 c 2.44,0 2.73,-3.19 2.73,-6.03 0,-2.44 -0.39,-4.99 -1.59,-9.92 h -10.41 c 0.85,3.2 1.85,7.18 3.83,10.72 1.36,2.43 3.19,5.23 5.44,5.23 l 0.05,1.09 c -6.92,0 -14.6,-14.04 -14.6,-25.45 0,-4.69 1.44,-10.22 5.99,-10.22 v 1.1 c -1.66,0 -2.71,1.45 -2.71,6.07 0,2.1 0.3,4.99 1.6,9.86 h 10.37 c -0.54,-2.28 -1.59,-6.51 -3.5,-10.11 -1.73,-3.39 -3.62,-5.82 -5.76,-5.82 v -1.1 c 7.01,0 14.59,14.3 14.59,25.46 z"
           style="fill:#ff6400;fill-opacity:1;stroke-width:0"
           inkscape:connector-curvature="0" /></g>    </g>
    <flowRoot
       xml:space="preserve"
       id="flowRoot3251"
       style="font-size:40px;font-style:normal;font-weight:normal;line-height:125%;letter-spacing:0px;word-spacing:0px;fill:#000000;fill-opacity:1;stroke:none;font-family:Sans"
       transform="translate(-4.9229925e-6,0)"><flowRegion
         id="flowRegion3253"><rect
           id="rect3255"
           width="53.538086"
           height="42.931484"
           x="58.083771"
           y="-86.584801" /></flowRegion><flowPara
         id="flowPara3257">θθ</flowPara></flowRoot>    <flowRoot
       xml:space="preserve"
       id="flowRoot4176"
       style="fill:black;stroke:none;stroke-opacity:1;stroke-width:1px;stroke-linejoin:miter;stroke-linecap:butt;fill-opacity:1;font-family:Sans;font-style:normal;font-weight:normal;font-size:20px;line-height:125%;letter-spacing:0px;word-spacing:0px"><flowRegion
         id="flowRegion4178"><rect
           id="rect4181"
           width="67.932755"
           height="43.184021"
           x="34.345188"
           y="-15.874127"
           style="font-size:20px" /></flowRegion><flowPara
         id="flowPara4183"></flowPara></flowRoot>  </g>
</svg>
