<?xml version="1.0" encoding="UTF-8" standalone="no"?>
<!-- Created with Inkscape (http://www.inkscape.org/) -->

<svg
   xmlns:ns0="http://www.iki.fi/pav/software/textext/"
   xmlns:dc="http://purl.org/dc/elements/1.1/"
   xmlns:cc="http://creativecommons.org/ns#"
   xmlns:rdf="http://www.w3.org/1999/02/22-rdf-syntax-ns#"
   xmlns:svg="http://www.w3.org/2000/svg"
   xmlns="http://www.w3.org/2000/svg"
   xmlns:sodipodi="http://sodipodi.sourceforge.net/DTD/sodipodi-0.dtd"
   xmlns:inkscape="http://www.inkscape.org/namespaces/inkscape"
   width="210mm"
   height="297mm"
   viewBox="0 0 744.09448819 1052.3622047"
   id="svg13946"
   version="1.1"
   inkscape:version="0.91 r"
   sodipodi:docname="planecouette.svg">
  <sodipodi:namedview
     id="base"
     pagecolor="#ffffff"
     bordercolor="#666666"
     borderopacity="1.0"
     inkscape:pageopacity="0.0"
     inkscape:pageshadow="2"
     inkscape:zoom="2.8"
     inkscape:cx="166.10803"
     inkscape:cy="923.67497"
     inkscape:document-units="px"
     inkscape:current-layer="layer1"
     showgrid="true"
     inkscape:window-width="1920"
     inkscape:window-height="1148"
     inkscape:window-x="0"
     inkscape:window-y="0"
     inkscape:window-maximized="1">
    <inkscape:grid
       type="xygrid"
       id="grid14494" />
  </sodipodi:namedview>
  <defs
     id="defs13948">
    <marker
       inkscape:stockid="Arrow2Lstart"
       orient="auto"
       refY="0.0"
       refX="0.0"
       id="Arrow2Lstart"
       style="overflow:visible"
       inkscape:isstock="true">
      <path
         id="path4242"
         style="fill-rule:evenodd;stroke-width:0.625;stroke-linejoin:round;stroke:#c80000;stroke-opacity:1;fill:#c80000;fill-opacity:1"
         d="M 8.7185878,4.0337352 L -2.2072895,0.016013256 L 8.7185884,-4.0017078 C 6.9730900,-1.6296469 6.9831476,1.6157441 8.7185878,4.0337352 z "
         transform="scale(1.1) translate(1,0)" />
    </marker>
    <marker
       inkscape:stockid="Arrow2Lend"
       orient="auto"
       refY="0.0"
       refX="0.0"
       id="Arrow2Lend"
       style="overflow:visible;"
       inkscape:isstock="true">
      <path
         id="path4245"
         style="fill-rule:evenodd;stroke-width:0.625;stroke-linejoin:round;stroke:#c80000;stroke-opacity:1;fill:#c80000;fill-opacity:1"
         d="M 8.7185878,4.0337352 L -2.2072895,0.016013256 L 8.7185884,-4.0017078 C 6.9730900,-1.6296469 6.9831476,1.6157441 8.7185878,4.0337352 z "
         transform="scale(1.1) rotate(180) translate(1,0)" />
    </marker>
    <inkscape:path-effect
       effect="spiro"
       id="path-effect14516"
       is_visible="true" />
    <marker
       inkscape:stockid="Arrow2Lend"
       orient="auto"
       refY="0"
       refX="0"
       id="Arrow2Lend-9"
       style="overflow:visible"
       inkscape:isstock="true">
      <path
         inkscape:connector-curvature="0"
         id="path4245-5"
         style="fill:#000000;fill-opacity:1;fill-rule:evenodd;stroke:#000000;stroke-width:0.625;stroke-linejoin:round;stroke-opacity:1"
         d="M 8.7185878,4.0337352 -2.2072895,0.01601326 8.7185884,-4.0017078 c -1.7454984,2.3720609 -1.7354408,5.6174519 -6e-7,8.035443 z"
         transform="matrix(-1.1,0,0,-1.1,-1.1,0)" />
    </marker>
    <inkscape:path-effect
       effect="spiro"
       id="path-effect14516-4"
       is_visible="true" />
    <marker
       inkscape:stockid="Arrow2Lend"
       orient="auto"
       refY="0"
       refX="0"
       id="Arrow2Lend-6"
       style="overflow:visible"
       inkscape:isstock="true">
      <path
         inkscape:connector-curvature="0"
         id="path4245-3"
         style="fill:#000000;fill-opacity:1;fill-rule:evenodd;stroke:#000000;stroke-width:0.625;stroke-linejoin:round;stroke-opacity:1"
         d="M 8.7185878,4.0337352 -2.2072895,0.01601326 8.7185884,-4.0017078 c -1.7454984,2.3720609 -1.7354408,5.6174519 -6e-7,8.035443 z"
         transform="matrix(-1.1,0,0,-1.1,-1.1,0)" />
    </marker>
    <inkscape:path-effect
       effect="spiro"
       id="path-effect14516-49"
       is_visible="true" />
    <marker
       inkscape:stockid="Arrow2Mend"
       orient="auto"
       refY="0"
       refX="0"
       id="marker6681"
       style="overflow:visible"
       inkscape:isstock="true"
       inkscape:collect="always">
      <path
         inkscape:connector-curvature="0"
         id="path6683"
         style="fill:#00c800;fill-opacity:1;fill-rule:evenodd;stroke:#00c800;stroke-width:0.625;stroke-linejoin:round;stroke-opacity:1"
         d="M 8.7185878,4.0337352 -2.2072895,0.01601326 8.7185884,-4.0017078 c -1.7454984,2.3720609 -1.7354408,5.6174519 -6e-7,8.035443 z"
         transform="scale(-0.6,-0.6)" />
    </marker>
    <marker
       inkscape:isstock="true"
       style="overflow:visible"
       id="Arrow2Mend"
       refX="0"
       refY="0"
       orient="auto"
       inkscape:stockid="Arrow2Mend"
       inkscape:collect="always">
      <path
         inkscape:connector-curvature="0"
         transform="scale(-0.6,-0.6)"
         d="M 8.7185878,4.0337352 -2.2072895,0.01601326 8.7185884,-4.0017078 c -1.7454984,2.3720609 -1.7354408,5.6174519 -6e-7,8.035443 z"
         style="fill:#00c800;fill-opacity:1;fill-rule:evenodd;stroke:#00c800;stroke-width:0.625;stroke-linejoin:round;stroke-opacity:1"
         id="path4251" />
    </marker>
    <marker
       inkscape:stockid="Arrow2Mend"
       orient="auto"
       refY="0"
       refX="0"
       id="marker8026-2"
       style="overflow:visible"
       inkscape:isstock="true">
      <path
         inkscape:connector-curvature="0"
         id="path8028-3"
         style="fill:#0000c8;fill-opacity:1;fill-rule:evenodd;stroke:#0000c8;stroke-width:0.625;stroke-linejoin:round;stroke-opacity:1"
         d="M 8.7185878,4.0337352 -2.2072895,0.01601326 8.7185884,-4.0017078 c -1.7454984,2.3720609 -1.7354408,5.6174519 -6e-7,8.035443 z"
         transform="scale(-0.6,-0.6)" />
    </marker>
    <marker
       inkscape:stockid="Arrow2Mend"
       orient="auto"
       refY="0"
       refX="0"
       id="marker8026-2-2"
       style="overflow:visible"
       inkscape:isstock="true">
      <path
         inkscape:connector-curvature="0"
         id="path8028-3-7"
         style="fill:#0000c8;fill-opacity:1;fill-rule:evenodd;stroke:#0000c8;stroke-width:0.625;stroke-linejoin:round;stroke-opacity:1"
         d="M 8.7185878,4.0337352 -2.2072895,0.01601326 8.7185884,-4.0017078 c -1.7454984,2.3720609 -1.7354408,5.6174519 -6e-7,8.035443 z"
         transform="scale(-0.6,-0.6)" />
    </marker>
    <marker
       inkscape:stockid="Arrow2Mend"
       orient="auto"
       refY="0"
       refX="0"
       id="marker8026-2-1"
       style="overflow:visible"
       inkscape:isstock="true">
      <path
         inkscape:connector-curvature="0"
         id="path8028-3-9"
         style="fill:#0000c8;fill-opacity:1;fill-rule:evenodd;stroke:#0000c8;stroke-width:0.625;stroke-linejoin:round;stroke-opacity:1"
         d="M 8.7185878,4.0337352 -2.2072895,0.01601326 8.7185884,-4.0017078 c -1.7454984,2.3720609 -1.7354408,5.6174519 -6e-7,8.035443 z"
         transform="scale(-0.6,-0.6)" />
    </marker>
    <marker
       inkscape:stockid="Arrow2Mend"
       orient="auto"
       refY="0"
       refX="0"
       id="marker8026-2-9"
       style="overflow:visible"
       inkscape:isstock="true">
      <path
         inkscape:connector-curvature="0"
         id="path8028-3-1"
         style="fill:#0000c8;fill-opacity:1;fill-rule:evenodd;stroke:#0000c8;stroke-width:0.625;stroke-linejoin:round;stroke-opacity:1"
         d="M 8.7185878,4.0337352 -2.2072895,0.01601326 8.7185884,-4.0017078 c -1.7454984,2.3720609 -1.7354408,5.6174519 -6e-7,8.035443 z"
         transform="scale(-0.6,-0.6)" />
    </marker>
    <marker
       inkscape:stockid="Arrow2Mend"
       orient="auto"
       refY="0"
       refX="0"
       id="marker8026-2-26"
       style="overflow:visible"
       inkscape:isstock="true">
      <path
         inkscape:connector-curvature="0"
         id="path8028-3-2"
         style="fill:#0000c8;fill-opacity:1;fill-rule:evenodd;stroke:#0000c8;stroke-width:0.625;stroke-linejoin:round;stroke-opacity:1"
         d="M 8.7185878,4.0337352 -2.2072895,0.01601326 8.7185884,-4.0017078 c -1.7454984,2.3720609 -1.7354408,5.6174519 -6e-7,8.035443 z"
         transform="scale(-0.6,-0.6)" />
    </marker>
    <marker
       inkscape:stockid="Arrow2Mend"
       orient="auto"
       refY="0"
       refX="0"
       id="marker8026-2-4"
       style="overflow:visible"
       inkscape:isstock="true">
      <path
         inkscape:connector-curvature="0"
         id="path8028-3-5"
         style="fill:#0000c8;fill-opacity:1;fill-rule:evenodd;stroke:#0000c8;stroke-width:0.625;stroke-linejoin:round;stroke-opacity:1"
         d="M 8.7185878,4.0337352 -2.2072895,0.01601326 8.7185884,-4.0017078 c -1.7454984,2.3720609 -1.7354408,5.6174519 -6e-7,8.035443 z"
         transform="scale(-0.6,-0.6)" />
    </marker>
    <marker
       inkscape:stockid="Arrow2Mend"
       orient="auto"
       refY="0"
       refX="0"
       id="marker8026-2-4-1"
       style="overflow:visible"
       inkscape:isstock="true">
      <path
         inkscape:connector-curvature="0"
         id="path8028-3-5-4"
         style="fill:#0000c8;fill-opacity:1;fill-rule:evenodd;stroke:#0000c8;stroke-width:0.625;stroke-linejoin:round;stroke-opacity:1"
         d="M 8.7185878,4.0337352 -2.2072895,0.01601326 8.7185884,-4.0017078 c -1.7454984,2.3720609 -1.7354408,5.6174519 -6e-7,8.035443 z"
         transform="scale(-0.6,-0.6)" />
    </marker>
    <marker
       inkscape:stockid="Arrow2Mend"
       orient="auto"
       refY="0"
       refX="0"
       id="marker8026-2-26-7"
       style="overflow:visible"
       inkscape:isstock="true">
      <path
         inkscape:connector-curvature="0"
         id="path8028-3-2-9"
         style="fill:#0000c8;fill-opacity:1;fill-rule:evenodd;stroke:#0000c8;stroke-width:0.625;stroke-linejoin:round;stroke-opacity:1"
         d="M 8.7185878,4.0337352 -2.2072895,0.01601326 8.7185884,-4.0017078 c -1.7454984,2.3720609 -1.7354408,5.6174519 -6e-7,8.035443 z"
         transform="scale(-0.6,-0.6)" />
    </marker>
    <marker
       inkscape:stockid="Arrow2Mend"
       orient="auto"
       refY="0"
       refX="0"
       id="marker8026-2-9-0"
       style="overflow:visible"
       inkscape:isstock="true">
      <path
         inkscape:connector-curvature="0"
         id="path8028-3-1-1"
         style="fill:#0000c8;fill-opacity:1;fill-rule:evenodd;stroke:#0000c8;stroke-width:0.625;stroke-linejoin:round;stroke-opacity:1"
         d="M 8.7185878,4.0337352 -2.2072895,0.01601326 8.7185884,-4.0017078 c -1.7454984,2.3720609 -1.7354408,5.6174519 -6e-7,8.035443 z"
         transform="scale(-0.6,-0.6)" />
    </marker>
    <marker
       inkscape:stockid="Arrow2Mend"
       orient="auto"
       refY="0"
       refX="0"
       id="marker8026-2-1-0"
       style="overflow:visible"
       inkscape:isstock="true">
      <path
         inkscape:connector-curvature="0"
         id="path8028-3-9-3"
         style="fill:#0000c8;fill-opacity:1;fill-rule:evenodd;stroke:#0000c8;stroke-width:0.625;stroke-linejoin:round;stroke-opacity:1"
         d="M 8.7185878,4.0337352 -2.2072895,0.01601326 8.7185884,-4.0017078 c -1.7454984,2.3720609 -1.7354408,5.6174519 -6e-7,8.035443 z"
         transform="scale(-0.6,-0.6)" />
    </marker>
    <marker
       inkscape:stockid="Arrow2Mend"
       orient="auto"
       refY="0"
       refX="0"
       id="marker8026-2-2-2"
       style="overflow:visible"
       inkscape:isstock="true">
      <path
         inkscape:connector-curvature="0"
         id="path8028-3-7-0"
         style="fill:#0000c8;fill-opacity:1;fill-rule:evenodd;stroke:#0000c8;stroke-width:0.625;stroke-linejoin:round;stroke-opacity:1"
         d="M 8.7185878,4.0337352 -2.2072895,0.01601326 8.7185884,-4.0017078 c -1.7454984,2.3720609 -1.7354408,5.6174519 -6e-7,8.035443 z"
         transform="scale(-0.6,-0.6)" />
    </marker>
    <marker
       inkscape:stockid="Arrow2Mend"
       orient="auto"
       refY="0"
       refX="0"
       id="marker8026-2-6"
       style="overflow:visible"
       inkscape:isstock="true">
      <path
         inkscape:connector-curvature="0"
         id="path8028-3-3"
         style="fill:#0000c8;fill-opacity:1;fill-rule:evenodd;stroke:#0000c8;stroke-width:0.625;stroke-linejoin:round;stroke-opacity:1"
         d="M 8.7185878,4.0337352 -2.2072895,0.01601326 8.7185884,-4.0017078 c -1.7454984,2.3720609 -1.7354408,5.6174519 -6e-7,8.035443 z"
         transform="scale(-0.6,-0.6)" />
    </marker>
  </defs>
  <metadata
     id="metadata13951">
    <rdf:RDF>
      <cc:Work
         rdf:about="">
        <dc:format>image/svg+xml</dc:format>
        <dc:type
           rdf:resource="http://purl.org/dc/dcmitype/StillImage" />
        <dc:title />
      </cc:Work>
    </rdf:RDF>
  </metadata>
  <g
     inkscape:label="Layer 1"
     inkscape:groupmode="layer"
     id="layer1">
    <path
       inkscape:connector-curvature="0"
       id="path4182"
       d="m 79.459028,43.408193 290.401792,0"
       style="fill:none;fill-rule:evenodd;stroke:#000000;stroke-width:1.29999995;stroke-linecap:butt;stroke-linejoin:miter;stroke-miterlimit:4;stroke-dasharray:none;stroke-opacity:1" />
    <path
       inkscape:connector-curvature="0"
       id="path4182-4"
       d="m 79.453718,181.75926 290.401792,0"
       style="fill:none;fill-rule:evenodd;stroke:#000000;stroke-width:1.29999995;stroke-linecap:butt;stroke-linejoin:miter;stroke-miterlimit:4;stroke-dasharray:none;stroke-opacity:1" />
    <path
       style="fill:#c80000;fill-opacity:1;fill-rule:evenodd;stroke:#c80000;stroke-width:0.98907739px;stroke-linecap:butt;stroke-linejoin:miter;stroke-opacity:1;marker-end:url(#Arrow2Lend)"
       d="m 223.4,27.362205 34.23959,0"
       id="path14514"
       inkscape:path-effect="#path-effect14516"
       inkscape:original-d="m 223.4,27.362205 34.23959,0"
       inkscape:connector-curvature="0" />
    <path
       style="fill:#c80000;fill-opacity:1;fill-rule:evenodd;stroke:#c80000;stroke-width:0.99260694px;stroke-linecap:butt;stroke-linejoin:miter;stroke-opacity:1;marker-start:url(#Arrow2Lstart)"
       d="m 190.11561,197.48541 34.48439,0"
       id="path14514-1"
       inkscape:path-effect="#path-effect14516-49"
       inkscape:original-d="m 190.11561,197.48541 34.48439,0"
       inkscape:connector-curvature="0" />
    <path
       style="fill:none;fill-rule:evenodd;stroke:#c80000;stroke-width:0.903;stroke-linecap:butt;stroke-linejoin:miter;stroke-miterlimit:4;stroke-dasharray:none;stroke-dashoffset:0;stroke-opacity:1"
       d="M 259.02907,43.362702 188.97093,181.95344"
       id="path15534"
       inkscape:connector-curvature="0" />
    <path
       inkscape:connector-curvature="0"
       id="path4218"
       d="m 79.649318,112.43651 0,-66.390756"
       style="fill:none;fill-rule:evenodd;stroke:#00c800;stroke-width:1.39999998;stroke-linecap:butt;stroke-linejoin:miter;stroke-miterlimit:4;stroke-dasharray:none;stroke-opacity:1;marker-end:url(#Arrow2Mend)" />
    <path
       inkscape:connector-curvature="0"
       id="path4768"
       d="m 78.947018,112.42344 42.388822,0"
       style="fill:none;fill-rule:evenodd;stroke:#00c800;stroke-width:1.35877466;stroke-linecap:butt;stroke-linejoin:miter;stroke-miterlimit:4;stroke-dasharray:none;stroke-opacity:1;marker-end:url(#marker6681)" />
    <g
       ns0:preamble="/usr/local/home/burak/svn/siminos/budanur/presentations/DDays15/inkscape/ks1.ini"
       ns0:text="$x$"
       word-spacing="normal"
       letter-spacing="normal"
       font-size-adjust="none"
       font-stretch="normal"
       font-weight="normal"
       font-variant="normal"
       font-style="normal"
       stroke-miterlimit="10.433"
       xml:space="preserve"
       transform="matrix(2,0,0,-2,-419.06535,1499.3036)"
       id="content"
       style="font-style:normal;font-variant:normal;font-weight:normal;font-stretch:normal;letter-spacing:normal;word-spacing:normal;text-anchor:start;fill:none;fill-opacity:1;fill-rule:evenodd;stroke:#000000;stroke-linecap:butt;stroke-linejoin:miter;stroke-miterlimit:10.43299961;stroke-dasharray:none;stroke-dashoffset:0;stroke-opacity:1"><path
         id="path6992"
         d="m 271.14714,688.5 -0.04,-0.08 -0.05,-0.08 -0.04,-0.08 -0.04,-0.07 -0.05,-0.08 -0.04,-0.08 -0.02,-0.03 -0.03,-0.04 -0.02,-0.03 -0.02,-0.03 -0.02,-0.04 -0.03,-0.03 -0.02,-0.02 -0.02,-0.03 -0.03,-0.03 -0.02,-0.02 -0.02,-0.03 -0.03,-0.02 -0.02,-0.01 -0.02,-0.02 -0.03,-0.01 -0.02,-0.02 -0.03,-0.01 -0.02,0 -0.02,-0.01 -0.03,0 c -0.17,0 -0.25,0.21 -0.45,1.03 l -0.29,1.2 c 0.33,0.59 0.8,1.32 1.06,1.32 0.09,0 0.16,-0.02 0.26,-0.07 0.09,-0.04 0.18,-0.08 0.29,-0.08 0.21,0 0.4,0.2 0.4,0.44 0,0.29 -0.21,0.4 -0.47,0.4 -0.49,0 -0.9,-0.44 -1.22,-0.95 l -0.4,-0.63 -0.02,0 -0.37,1.54 -0.06,0.04 -1.51,-0.46 0.03,-0.22 0.68,0.05 c 0.17,0 0.24,-0.04 0.34,-0.46 l 0.33,-1.33 -0.26,-0.44 c -0.4,-0.67 -0.74,-1.15 -0.96,-1.15 -0.09,0 -0.18,0.04 -0.26,0.08 -0.09,0.05 -0.21,0.14 -0.37,0.14 -0.24,0 -0.39,-0.24 -0.39,-0.46 0,-0.26 0.22,-0.47 0.58,-0.47 0.63,0 0.99,0.63 1.36,1.24 l 0.37,0.61 0.02,0 0.16,-0.72 c 0.18,-0.73 0.35,-1.13 0.82,-1.13 0.67,0 1.02,0.69 1.3,1.25 z"
         inkscape:connector-curvature="0"
         style="fill:#00c800;fill-opacity:1;stroke-width:0" /></g>    <g
       id="g7058"
       transform="matrix(2,0,0,-2,-381.94404,1009.3911)"
       xml:space="preserve"
       stroke-miterlimit="10.433"
       font-style="normal"
       font-variant="normal"
       font-weight="normal"
       font-stretch="normal"
       font-size-adjust="none"
       letter-spacing="normal"
       word-spacing="normal"
       ns0:text="$y$"
       ns0:preamble="/usr/local/home/burak/svn/siminos/budanur/presentations/DDays15/inkscape/ks1.ini"
       style="font-style:normal;font-variant:normal;font-weight:normal;font-stretch:normal;letter-spacing:normal;word-spacing:normal;text-anchor:start;fill:#00c800;fill-opacity:1;fill-rule:evenodd;stroke:#00c800;stroke-linecap:butt;stroke-linejoin:miter;stroke-miterlimit:10.43299961;stroke-dasharray:none;stroke-dashoffset:0;stroke-opacity:1"><path
         style="fill:#00c800;fill-opacity:1;stroke:#00c800;stroke-width:0;stroke-opacity:1"
         inkscape:connector-curvature="0"
         d="m 224.58,481.4 0.03,-0.23 0.62,0.02 c 0.21,0.01 0.25,-0.15 0.33,-0.63 0.1,-0.71 0.3,-2.47 0.3,-3.21 0,-0.27 -0.02,-0.65 -0.22,-1.13 -0.17,-0.39 -0.41,-0.65 -0.59,-0.65 -0.14,0 -0.24,0.1 -0.38,0.28 -0.11,0.15 -0.18,0.22 -0.32,0.22 -0.24,-0.01 -0.47,-0.28 -0.47,-0.55 0,-0.25 0.27,-0.5 0.67,-0.5 0.79,0 1.13,0.57 1.93,1.97 0.19,0.31 0.74,1.28 1.31,2.22 0.52,0.86 1.1,1.75 1.1,2.12 0,0.32 -0.1,0.51 -0.17,0.51 -0.17,0 -0.48,-0.07 -0.71,-0.23 0.01,-0.32 -0.01,-0.88 -0.12,-1.27 -0.15,-0.51 -0.69,-1.5 -1.3,-2.55 l -0.02,0 c -0.07,1.41 -0.24,3.34 -0.37,4.01 l -0.08,0.04 z"
         id="path7060" /></g>    <circle
       style="fill:none;fill-opacity:1;stroke:#00c800;stroke-width:1.4;stroke-miterlimit:4;stroke-dasharray:none;stroke-dashoffset:0;stroke-opacity:1"
       id="path16631"
       cx="72.678574"
       cy="120.04079"
       r="7.5019579" />
    <circle
       style="fill:#00c800;fill-opacity:1;stroke:#00c800;stroke-width:1.39999998;stroke-miterlimit:4;stroke-dasharray:none;stroke-dashoffset:0;stroke-opacity:1"
       id="path16635"
       cx="72.678574"
       cy="120.04079"
       r="1.5" />
    <g
       id="g16689"
       transform="matrix(2,0,0,-2,-391.68295,1087.8671)"
       xml:space="preserve"
       stroke-miterlimit="10.433"
       font-style="normal"
       font-variant="normal"
       font-weight="normal"
       font-stretch="normal"
       font-size-adjust="none"
       letter-spacing="normal"
       word-spacing="normal"
       ns0:text="$z$"
       ns0:preamble="/usr/local/home/burak/svn/siminos/budanur/presentations/DDays15/inkscape/ks1.ini"
       style="font-style:normal;font-variant:normal;font-weight:normal;font-stretch:normal;letter-spacing:normal;word-spacing:normal;text-anchor:start;fill:#00c800;fill-opacity:1;fill-rule:evenodd;stroke:#000000;stroke-linecap:butt;stroke-linejoin:miter;stroke-miterlimit:10.43299961;stroke-dasharray:none;stroke-dashoffset:0;stroke-opacity:1"><path
         style="fill:#00c800;stroke-width:0;fill-opacity:1"
         inkscape:connector-curvature="0"
         d="m 225.33,481.73 -0.01,-0.02 -0.02,-0.02 -0.01,-0.02 -0.02,-0.02 -0.01,-0.02 -0.02,-0.03 -0.01,-0.03 -0.02,-0.03 -0.02,-0.03 -0.02,-0.03 -0.02,-0.03 -0.02,-0.04 -0.02,-0.04 -0.02,-0.04 -0.02,-0.04 -0.02,-0.04 -0.02,-0.04 -0.02,-0.04 -0.02,-0.05 -0.03,-0.05 -0.02,-0.05 -0.02,-0.04 -0.02,-0.06 -0.02,-0.05 -0.04,-0.1 -0.05,-0.11 -0.04,-0.12 -0.04,-0.11 0.23,-0.1 c 0.3,0.53 0.44,0.81 0.88,0.81 l 1.61,0 c -1.16,-1.17 -2.23,-2.24 -3.22,-3.25 -0.15,-0.14 -0.22,-0.34 -0.22,-0.49 0,-0.12 0.05,-0.28 0.21,-0.28 0.13,0 0.43,0.07 0.43,0.23 l 0,0.4 c 0,0.1 0.05,0.16 0.12,0.16 0.15,0 0.47,-0.21 1.01,-0.42 0.49,-0.19 0.92,-0.37 1.35,-0.37 0.6,0 0.87,0.81 1.12,1.77 l -0.25,0.07 c -0.24,-0.57 -0.46,-1.12 -0.87,-1.12 -0.28,0 -0.7,0.14 -1.04,0.27 -0.3,0.11 -0.62,0.22 -0.86,0.25 1.02,1.07 2.07,2.16 3.18,3.24 l -0.07,0.13 z"
         id="path16691" /></g>    <g
       style="font-style:normal;font-variant:normal;font-weight:normal;font-stretch:normal;letter-spacing:normal;word-spacing:normal;text-anchor:start;fill:#c80000;fill-opacity:1;fill-rule:evenodd;stroke:#000000;stroke-linecap:butt;stroke-linejoin:miter;stroke-miterlimit:10.43299961;stroke-dasharray:none;stroke-dashoffset:0;stroke-opacity:1"
       ns0:preamble="/usr/local/home/burak/svn/siminos/budanur/presentations/DDays15/inkscape/ks1.ini"
       ns0:text="$v$"
       word-spacing="normal"
       letter-spacing="normal"
       font-size-adjust="none"
       font-stretch="normal"
       font-weight="normal"
       font-variant="normal"
       font-style="normal"
       stroke-miterlimit="10.433"
       xml:space="preserve"
       transform="matrix(2,0,0,-2,-212.66668,974.96709)"
       id="g16781"><path
         id="path16783"
         d="m 224.78,481.58 -0.06,-0.22 0.57,-0.04 c 0.21,-0.02 0.2,-0.14 0.14,-0.44 l -0.56,-2.55 c -0.18,-0.84 0.11,-1.21 0.63,-1.21 0.79,0 1.59,0.74 2.23,1.59 0.62,0.84 1.06,1.84 1.07,2.41 0,0.36 -0.21,0.72 -0.28,0.72 -0.22,0 -0.48,-0.07 -0.67,-0.19 0.09,-0.32 0.11,-0.67 0.11,-1.15 -0.08,-1.26 -1.26,-2.93 -2.01,-2.9 -0.23,0 -0.4,0.2 -0.3,0.64 l 0.8,3.55 -0.05,0.05 z"
         inkscape:connector-curvature="0"
         style="fill:#c80000;fill-opacity:1;stroke-width:0" /></g>    <g
       style="font-style:normal;font-variant:normal;font-weight:normal;font-stretch:normal;letter-spacing:normal;word-spacing:normal;text-anchor:start;fill:#c80000;fill-opacity:1;fill-rule:evenodd;stroke:#000000;stroke-linecap:butt;stroke-linejoin:miter;stroke-miterlimit:10.43299961;stroke-dasharray:none;stroke-dashoffset:0;stroke-opacity:1"
       ns0:preamble="/usr/local/home/burak/svn/siminos/budanur/presentations/DDays15/inkscape/ks1.ini"
       ns0:text="$-\\!v$"
       word-spacing="normal"
       letter-spacing="normal"
       font-size-adjust="none"
       font-stretch="normal"
       font-weight="normal"
       font-variant="normal"
       font-style="normal"
       stroke-miterlimit="10.433"
       xml:space="preserve"
       transform="matrix(2,0,0,-2,-252.10187,1169.9671)"
       id="g16972"><polygon
         id="polygon16974"
         points="224.21,480.09 224.21,479.55 229.26,479.55 229.26,480.09 "
         style="fill:#c80000;fill-opacity:1;stroke-width:0" /><path
         id="path16976"
         d="m 230.4,481.58 -0.05,-0.22 0.56,-0.04 c 0.22,-0.02 0.21,-0.14 0.14,-0.44 l -0.56,-2.55 c -0.18,-0.84 0.11,-1.21 0.64,-1.21 0.79,0 1.58,0.74 2.22,1.59 0.62,0.84 1.06,1.84 1.07,2.41 0,0.36 -0.21,0.72 -0.28,0.72 -0.22,0 -0.48,-0.07 -0.67,-0.19 0.09,-0.32 0.11,-0.67 0.11,-1.15 -0.07,-1.26 -1.26,-2.93 -2.01,-2.9 -0.23,0 -0.4,0.2 -0.3,0.64 l 0.8,3.55 -0.04,0.05 z"
         style="fill:#c80000;fill-opacity:1;stroke-width:0"
         inkscape:connector-curvature="0" /></g>    <path
       style="fill:none;fill-rule:evenodd;stroke:#c80000;stroke-width:1.2;stroke-linecap:butt;stroke-linejoin:miter;stroke-miterlimit:4;stroke-dasharray:3.6,1.2;stroke-dashoffset:0;stroke-opacity:1"
       d="m 224,42.362183 0,139.999997"
       id="path17041"
       inkscape:connector-curvature="0" />
    <path
       style="fill:#0000c8;fill-opacity:1;fill-rule:evenodd;stroke:#0000c8;stroke-width:1.14018905px;stroke-linecap:butt;stroke-linejoin:miter;stroke-opacity:1;marker-end:url(#marker8026-2)"
       d="m 224.28571,52.43901 28.60068,0"
       id="path7984-9"
       inkscape:connector-curvature="0" />
    <path
       style="fill:#0000c8;fill-opacity:1;fill-rule:evenodd;stroke:#0000c8;stroke-width:1.0357002px;stroke-linecap:butt;stroke-linejoin:miter;stroke-opacity:1;marker-end:url(#marker8026-2-2)"
       d="m 224.28571,62.437724 23.59884,0"
       id="path7984-9-8"
       inkscape:connector-curvature="0" />
    <path
       style="fill:#0000c8;fill-opacity:1;fill-rule:evenodd;stroke:#0000c8;stroke-width:0.92528105px;stroke-linecap:butt;stroke-linejoin:miter;stroke-opacity:1;marker-end:url(#marker8026-2-1)"
       d="m 224.28571,72.53925 18.83519,0"
       id="path7984-9-9"
       inkscape:connector-curvature="0" />
    <path
       style="fill:#0000c8;fill-opacity:1;fill-rule:evenodd;stroke:#0000c8;stroke-width:0.79296201px;stroke-linecap:butt;stroke-linejoin:miter;stroke-opacity:1;marker-end:url(#marker8026-2-9)"
       d="m 224.28571,81.932648 13.83335,0"
       id="path7984-9-5"
       inkscape:connector-curvature="0" />
    <path
       style="fill:#0000c8;fill-opacity:1;fill-rule:evenodd;stroke:#0000c8;stroke-width:0.65045023px;stroke-linecap:butt;stroke-linejoin:miter;stroke-opacity:1;marker-end:url(#marker8026-2-26)"
       d="m 224.28571,92.488487 9.30788,0"
       id="path7984-9-0"
       inkscape:connector-curvature="0" />
    <path
       style="fill:#0000c8;fill-opacity:1;fill-rule:evenodd;stroke:#0000c8;stroke-width:0.41469088px;stroke-linecap:butt;stroke-linejoin:miter;stroke-opacity:1;marker-end:url(#marker8026-2-4)"
       d="m 224.28571,102.38931 3.78331,0"
       id="path7984-9-05"
       inkscape:connector-curvature="0" />
    <path
       style="fill:#0000c8;fill-opacity:1;fill-rule:evenodd;stroke:#0000c8;stroke-width:1.14018905px;stroke-linecap:butt;stroke-linejoin:miter;stroke-opacity:1;marker-end:url(#marker8026-2-6)"
       d="m 224.00081,172.34438 -28.60068,0"
       id="path7984-9-2"
       inkscape:connector-curvature="0" />
    <path
       style="fill:#0000c8;fill-opacity:1;fill-rule:evenodd;stroke:#0000c8;stroke-width:1.0357002px;stroke-linecap:butt;stroke-linejoin:miter;stroke-opacity:1;marker-end:url(#marker8026-2-2-2)"
       d="m 224.00081,162.34567 -23.59884,0"
       id="path7984-9-8-0"
       inkscape:connector-curvature="0" />
    <path
       style="fill:#0000c8;fill-opacity:1;fill-rule:evenodd;stroke:#0000c8;stroke-width:0.92528105px;stroke-linecap:butt;stroke-linejoin:miter;stroke-opacity:1;marker-end:url(#marker8026-2-1-0)"
       d="m 224.00081,152.24414 -18.83519,0"
       id="path7984-9-9-8"
       inkscape:connector-curvature="0" />
    <path
       style="fill:#0000c8;fill-opacity:1;fill-rule:evenodd;stroke:#0000c8;stroke-width:0.79296201px;stroke-linecap:butt;stroke-linejoin:miter;stroke-opacity:1;marker-end:url(#marker8026-2-9-0)"
       d="m 224.00081,142.85074 -13.83335,0"
       id="path7984-9-5-1"
       inkscape:connector-curvature="0" />
    <path
       style="fill:#0000c8;fill-opacity:1;fill-rule:evenodd;stroke:#0000c8;stroke-width:0.65045023px;stroke-linecap:butt;stroke-linejoin:miter;stroke-opacity:1;marker-end:url(#marker8026-2-26-7)"
       d="m 224.00081,132.2949 -9.30788,0"
       id="path7984-9-0-9"
       inkscape:connector-curvature="0" />
    <path
       style="fill:#0000c8;fill-opacity:1;fill-rule:evenodd;stroke:#0000c8;stroke-width:0.41469088px;stroke-linecap:butt;stroke-linejoin:miter;stroke-opacity:1;marker-end:url(#marker8026-2-4-1)"
       d="m 224.00081,122.3599 -3.78331,0"
       id="path7984-9-05-1"
       inkscape:connector-curvature="0" />
  </g>
</svg>
