<?xml version="1.0" encoding="UTF-8" standalone="no"?>
<!-- Creator: fig2dev Version 3.2 Patchlevel 5-alpha7 -->

<!-- CreationDate: Sun Feb 15 14:21:04 2009 -->

<!-- Magnification: 1.000 -->

<svg
   xmlns:dc="http://purl.org/dc/elements/1.1/"
   xmlns:cc="http://creativecommons.org/ns#"
   xmlns:rdf="http://www.w3.org/1999/02/22-rdf-syntax-ns#"
   xmlns:svg="http://www.w3.org/2000/svg"
   xmlns="http://www.w3.org/2000/svg"
   xmlns:sodipodi="http://sodipodi.sourceforge.net/DTD/sodipodi-0.dtd"
   xmlns:inkscape="http://www.inkscape.org/namespaces/inkscape"
   width="3.6in"
   height="4.0in"
   viewBox="31 33 4285 4782"
   id="svg4110"
   version="1.1"
   inkscape:version="0.48.4 r9939"
   sodipodi:docname="TentPart.svg">
  <metadata
     id="metadata4196">
    <rdf:RDF>
      <cc:Work
         rdf:about="">
        <dc:format>image/svg+xml</dc:format>
        <dc:type
           rdf:resource="http://purl.org/dc/dcmitype/StillImage" />
        <dc:title></dc:title>
      </cc:Work>
    </rdf:RDF>
  </metadata>
  <defs
     id="defs4194" />
  <sodipodi:namedview
     pagecolor="#ffffff"
     bordercolor="#666666"
     borderopacity="1"
     objecttolerance="10"
     gridtolerance="10"
     guidetolerance="10"
     inkscape:pageopacity="0"
     inkscape:pageshadow="2"
     inkscape:window-width="1142"
     inkscape:window-height="889"
     id="namedview4192"
     showgrid="false"
     inkscape:zoom="0.65555556"
     inkscape:cx="162"
     inkscape:cy="180"
     inkscape:window-x="1666"
     inkscape:window-y="98"
     inkscape:window-maximized="0"
     inkscape:current-layer="svg4110" />
  <g
     style="stroke-width:.025in; stroke:black; fill:none"
     id="g4112">
    <!-- Line -->
    <!--  polyline  -->
    <polyline
       points="78,48 4298,48 4298,4268 78,4268 78,48 "
       style="stroke:#ffffff;stroke-width:0; stroke-linejoin:miter; stroke-linecap:butt; fill:#ffffff; "
       id="polyline4114" />
    <!-- Line -->
    <!--  polyline  -->
    <polyline
       points="78,48 4298,48 4298,4268 78,4268 78,48 "
       style="stroke:#000000;stroke-width:7; stroke-linejoin:miter; stroke-linecap:butt; "
       id="polyline4116" />
    <!-- Line -->
    <!--  polyline  -->
    <polyline
       points="91,4262 2175,75 "
       style="stroke:#000000;stroke-width:15; stroke-linejoin:miter; stroke-linecap:butt; fill:#000000; "
       id="polyline4118" />
    <!-- Line -->
    <!--  polyline  -->
    <polyline
       points="91,4262 2188,61 "
       style="stroke:#000000;stroke-width:15; stroke-linejoin:miter; stroke-linecap:butt; "
       id="polyline4120" />
    <!-- Line -->
    <!--  polyline  -->
    <polyline
       points="4290,4240 2202,55 "
       style="stroke:#000000;stroke-width:15; stroke-linejoin:miter; stroke-linecap:butt; fill:#000000; "
       id="polyline4122" />
    <!-- Line -->
    <!--  polyline  -->
    <polyline
       points="4290,4240 2202,55 "
       style="stroke:#000000;stroke-width:15; stroke-linejoin:miter; stroke-linecap:butt; "
       id="polyline4124" />
    <!-- Line -->
    <!--  polyline  -->
    <polyline
       points="85,4264 4295,56 "
       style="stroke:#ffffff;stroke-width:0; stroke-linejoin:miter; stroke-linecap:butt; fill:#ffffff; "
       id="polyline4126" />
    <!-- Line -->
    <!--  polyline  -->
    <polyline
       points="85,4264 4295,56 "
       style="stroke:#000000;stroke-width:7; stroke-linejoin:miter; stroke-linecap:butt; stroke-dasharray:50 10 10; "
       id="polyline4128" />
    <!-- Line -->
    <!--  polyline  -->
    <polyline
       points="2196,45 2182,2130 1183,2118 1200,4270 "
       style="stroke:#000000;stroke-width:7; stroke-linejoin:miter; stroke-linecap:butt; stroke-dasharray:10 10 10; "
       id="polyline4130" />
    <!-- Line -->
    <!--  polyline  -->
    <polyline
       points="2189,2129 3241,2136 3241,4269 "
       style="stroke:#000000;stroke-width:7; stroke-linejoin:miter; stroke-linecap:butt; stroke-dasharray:10 10 10; "
       id="polyline4132" />
    <!-- Line -->
    <!--  polyline  -->
    <polyline
       points="2192,2134 2195,4287 "
       style="stroke:#000000;stroke-width:7; stroke-linejoin:miter; stroke-linecap:butt; stroke-dasharray:10 10 10; "
       id="polyline4134" />
    <!-- Line -->
    <!--  spline  -->
    <polyline
       points="2975,1443 2975,1444 2974,1449 2973,1457 2972,1462 2972,1463 2971,1466 2969,1470 2967,1474 2963,1480 2959,1485 2957,1487 2955,1489 2950,1493 2945,1497 2942,1498 2941,1499 2939,1500 2933,1502 2926,1504 2921,1505 2917,1505 2915,1505 2914,1505 2913,1505 2908,1504 2900,1503 2895,1502 2894,1502 2891,1501 2887,1499 2883,1497 2877,1493 2872,1489 2870,1487 2868,1485 2864,1480 2860,1475 2859,1473 2858,1472 2857,1469 2855,1463 2853,1456 2852,1451 2852,1446 2852,1444 2852,1443 2852,1442 2853,1437 2854,1430 2855,1425 2855,1424 2856,1421 2858,1417 2860,1413 2864,1407 2868,1402 2870,1400 2872,1398 2877,1394 2882,1390 2884,1389 2885,1388 2888,1387 2894,1385 2901,1383 2906,1382 2911,1382 2913,1382 2914,1382 2915,1382 2920,1383 2927,1384 2932,1385 2933,1385 2936,1386 2940,1388 2944,1390 2950,1394 2955,1398 2957,1400 2959,1402 2963,1407 2967,1412 2968,1415 2969,1416 2970,1418 2972,1424 2974,1431 2975,1436 2975,1440 2975,1442 2975,1443 "
       style="stroke:#ffffff;stroke-width:0; stroke-linejoin:bevel; stroke-linecap:butt; stroke-dasharray:10 10 10; fill:#ffffff; "
       id="polyline4136" />
    <!-- Line -->
    <!--  spline  -->
    <polyline
       points="2975,1443 2975,1444 2974,1449 2973,1457 2972,1462 2972,1463 2971,1466 2969,1470 2967,1474 2963,1480 2959,1485 2957,1487 2955,1489 2950,1493 2945,1497 2942,1498 2941,1499 2939,1500 2933,1502 2926,1504 2921,1505 2917,1505 2915,1505 2914,1505 2913,1505 2908,1504 2900,1503 2895,1502 2894,1502 2891,1501 2887,1499 2883,1497 2877,1493 2872,1489 2870,1487 2868,1485 2864,1480 2860,1475 2859,1473 2858,1472 2857,1469 2855,1463 2853,1456 2852,1451 2852,1446 2852,1444 2852,1443 2852,1442 2853,1437 2854,1430 2855,1425 2855,1424 2856,1421 2858,1417 2860,1413 2864,1407 2868,1402 2870,1400 2872,1398 2877,1394 2882,1390 2884,1389 2885,1388 2888,1387 2894,1385 2901,1383 2906,1382 2911,1382 2913,1382 2914,1382 2915,1382 2920,1383 2927,1384 2932,1385 2933,1385 2936,1386 2940,1388 2944,1390 2950,1394 2955,1398 2957,1400 2959,1402 2963,1407 2967,1412 2968,1415 2969,1416 2970,1418 2972,1424 2974,1431 2975,1436 2975,1440 2975,1442 2975,1443 "
       style="stroke:#000000;stroke-width:7; stroke-linejoin:bevel; stroke-linecap:butt; "
       id="polyline4138" />
    <!-- Line -->
    <!--  spline  -->
    <polyline
       points="166,4251 166,4252 165,4257 164,4264 163,4269 163,4270 162,4273 160,4277 158,4281 154,4287 150,4292 148,4294 146,4296 141,4300 136,4304 134,4305 133,4306 130,4307 124,4309 117,4311 112,4312 107,4312 105,4312 104,4312 103,4312 98,4311 91,4310 86,4309 85,4309 82,4308 78,4306 74,4304 68,4300 63,4296 61,4294 59,4292 55,4287 51,4282 50,4279 49,4278 48,4276 46,4270 44,4263 43,4258 43,4254 43,4252 43,4251 43,4250 44,4245 45,4237 46,4232 46,4231 47,4228 49,4224 51,4220 55,4214 59,4209 61,4207 63,4205 68,4201 73,4197 76,4196 77,4195 79,4194 85,4192 92,4190 97,4189 101,4189 103,4189 104,4189 105,4189 110,4190 118,4191 123,4192 124,4192 127,4193 131,4195 135,4197 141,4201 146,4205 148,4207 150,4209 154,4214 158,4219 159,4221 160,4222 161,4225 163,4231 165,4238 166,4243 166,4248 166,4250 166,4251 "
       style="stroke:#ffffff;stroke-width:0; stroke-linejoin:bevel; stroke-linecap:butt; stroke-dasharray:10 10 10; fill:#ffffff; "
       id="polyline4140" />
    <!-- Line -->
    <!--  spline  -->
    <polyline
       points="166,4251 166,4252 165,4257 164,4264 163,4269 163,4270 162,4273 160,4277 158,4281 154,4287 150,4292 148,4294 146,4296 141,4300 136,4304 134,4305 133,4306 130,4307 124,4309 117,4311 112,4312 107,4312 105,4312 104,4312 103,4312 98,4311 91,4310 86,4309 85,4309 82,4308 78,4306 74,4304 68,4300 63,4296 61,4294 59,4292 55,4287 51,4282 50,4279 49,4278 48,4276 46,4270 44,4263 43,4258 43,4254 43,4252 43,4251 43,4250 44,4245 45,4237 46,4232 46,4231 47,4228 49,4224 51,4220 55,4214 59,4209 61,4207 63,4205 68,4201 73,4197 76,4196 77,4195 79,4194 85,4192 92,4190 97,4189 101,4189 103,4189 104,4189 105,4189 110,4190 118,4191 123,4192 124,4192 127,4193 131,4195 135,4197 141,4201 146,4205 148,4207 150,4209 154,4214 158,4219 159,4221 160,4222 161,4225 163,4231 165,4238 166,4243 166,4248 166,4250 166,4251 "
       style="stroke:#000000;stroke-width:7; stroke-linejoin:bevel; stroke-linecap:butt; "
       id="polyline4142" />
    <!-- Line -->
    <!--  polyline  -->
    <polyline
       points="78,4397 1176,4397 1176,4464 78,4464 78,4397 "
       style="stroke:#ffffbd;stroke-width:0; stroke-linejoin:miter; stroke-linecap:butt; stroke-dasharray:10 10 10; fill:#ffffbd; "
       id="polyline4144" />
    <!-- Line -->
    <!--  polyline  -->
    <polyline
       points="78,4397 1176,4397 1176,4464 78,4464 78,4397 "
       style="stroke:#39385a;stroke-width:7; stroke-linejoin:miter; stroke-linecap:butt; "
       id="polyline4146" />
    <!-- Line -->
    <!--  polyline  -->
    <polyline
       points="1197,4397 2208,4397 2208,4464 1197,4464 1197,4397 "
       style="stroke:#ffffbd;stroke-width:0; stroke-linejoin:miter; stroke-linecap:butt; fill:#ffffbd; "
       id="polyline4148" />
    <!-- Line -->
    <!--  polyline  -->
    <polyline
       points="1197,4397 2208,4397 2208,4464 1197,4464 1197,4397 "
       style="stroke:#39385a;stroke-width:7; stroke-linejoin:miter; stroke-linecap:butt; "
       id="polyline4150" />
    <!-- Line -->
    <!--  polyline  -->
    <polyline
       points="2235,4397 3252,4397 3252,4464 2235,4464 2235,4397 "
       style="stroke:#ffffbd;stroke-width:0; stroke-linejoin:miter; stroke-linecap:butt; fill:#ffffbd; "
       id="polyline4152" />
    <!-- Line -->
    <!--  polyline  -->
    <polyline
       points="2235,4397 3252,4397 3252,4464 2235,4464 2235,4397 "
       style="stroke:#39385a;stroke-width:7; stroke-linejoin:miter; stroke-linecap:butt; "
       id="polyline4154" />
    <!-- Line -->
    <!--  polyline  -->
    <polyline
       points="3280,4397 4304,4397 4304,4464 3280,4464 3280,4397 "
       style="stroke:#ffffbd;stroke-width:0; stroke-linejoin:miter; stroke-linecap:butt; fill:#ffffbd; "
       id="polyline4156" />
    <!-- Line -->
    <!--  polyline  -->
    <polyline
       points="3280,4397 4304,4397 4304,4464 3280,4464 3280,4397 "
       style="stroke:#39385a;stroke-width:7; stroke-linejoin:miter; stroke-linecap:butt; "
       id="polyline4158" />
    <!-- Text -->
    <text
       xml:space="preserve"
       x="3675"
       y="2550"
       stroke="#000000"
       fill="#000000"
       font-family="Helvetica"
       font-style="normal"
       font-weight="normal"
       font-size="192"
       text-anchor="start"
       id="text4160">1</text>
    <!-- Text -->
    <text
       xml:space="preserve"
       x="3525"
       y="2475"
       stroke="#000000"
       fill="#000000"
       font-family="Helvetica"
       font-style="normal"
       font-weight="normal"
       font-size="312"
       text-anchor="start"
       id="text4162">f</text>
    <!-- Text -->
    <text
       xml:space="preserve"
       x="1125"
       y="1725"
       stroke="#000000"
       fill="#000000"
       font-family="Helvetica"
       font-style="normal"
       font-weight="normal"
       font-size="192"
       text-anchor="start"
       id="text4164">0</text>
    <!-- Text -->
    <text
       xml:space="preserve"
       x="975"
       y="1650"
       stroke="#000000"
       fill="#000000"
       font-family="Helvetica"
       font-style="normal"
       font-weight="normal"
       font-size="312"
       text-anchor="start"
       id="text4166">f</text>
    <!-- Text -->
    <text
       xml:space="preserve"
       x="450"
       y="4800"
       stroke="#000000"
       fill="#000000"
       font-family="Helvetica"
       font-style="normal"
       font-weight="normal"
       font-size="240"
       text-anchor="start"
       id="text4168">00</text>
    <!-- Text -->
    <text
       xml:space="preserve"
       x="1500"
       y="4800"
       stroke="#000000"
       fill="#000000"
       font-family="Helvetica"
       font-style="normal"
       font-weight="normal"
       font-size="240"
       text-anchor="start"
       id="text4170">01</text>
    <!-- Text -->
    <text
       xml:space="preserve"
       x="3600"
       y="4800"
       stroke="#000000"
       fill="#000000"
       font-family="Helvetica"
       font-style="normal"
       font-weight="normal"
       font-size="240"
       text-anchor="start"
       id="text4172">10</text>
    <!-- Text -->
    <text
       xml:space="preserve"
       x="2550"
       y="4800"
       stroke="#000000"
       fill="#000000"
       font-family="Helvetica"
       font-style="normal"
       font-weight="normal"
       font-size="240"
       text-anchor="start"
       id="text4174">11</text>
    <!-- Text -->
    <text
       xml:space="preserve"
       x="300"
       y="4200"
       stroke="#000000"
       fill="#000000"
       font-family="Helvetica"
       font-style="normal"
       font-weight="normal"
       font-size="240"
       text-anchor="start"
       id="text4176">0</text>
    <!-- Text -->
    <text
       xml:space="preserve"
       x="3075"
       y="1650"
       stroke="#000000"
       fill="#000000"
       font-family="Helvetica"
       font-style="normal"
       font-weight="normal"
       font-size="240"
       text-anchor="start"
       id="text4178">1</text>
    <!-- Text -->
    <text
       xml:space="preserve"
       x="375"
       y="450"
       stroke="#000000"
       fill="#000000"
       font-family="Helvetica"
       font-style="normal"
       font-weight="normal"
       font-size="192"
       text-anchor="start"
       id="text4180">n+1</text>
    <!-- Text -->
    <text
       xml:space="preserve"
       x="150"
       y="375"
       stroke="#000000"
       fill="#000000"
       font-family="Times,Symbol"
       font-style="normal"
       font-weight="normal"
       font-size="288"
       text-anchor="start"
       id="text4182">γ</text>
    <!-- Text -->
    <text
       xml:space="preserve"
       x="3675"
       y="4125"
       stroke="#000000"
       fill="#000000"
       font-family="Times,Symbol"
       font-style="normal"
       font-weight="normal"
       font-size="288"
       text-anchor="start"
       id="text4184">γ</text>
    <!-- Text -->
    <text
       xml:space="preserve"
       x="3900"
       y="4200"
       stroke="#000000"
       fill="#000000"
       font-family="Helvetica"
       font-style="normal"
       font-weight="normal"
       font-size="192"
       text-anchor="start"
       id="text4186">n</text>
    <!-- Text -->
    <text
       xml:space="preserve"
       x="2250"
       y="4125"
       stroke="#000000"
       fill="#000000"
       font-family="Times,Symbol"
       font-style="normal"
       font-weight="normal"
       font-size="288"
       text-anchor="start"
       id="text4188">γ</text>
    <!-- Text -->
    <text
       xml:space="preserve"
       x="2475"
       y="4200"
       stroke="#000000"
       fill="#000000"
       font-family="Helvetica"
       font-style="normal"
       font-weight="normal"
       font-size="192"
       text-anchor="start"
       id="text4190">c</text>
  </g>
</svg>
