<?xml version="1.0" encoding="UTF-8" standalone="no"?>
<!-- Created with Inkscape (http://www.inkscape.org/) -->

<svg
   xmlns:dc="http://purl.org/dc/elements/1.1/"
   xmlns:cc="http://creativecommons.org/ns#"
   xmlns:rdf="http://www.w3.org/1999/02/22-rdf-syntax-ns#"
   xmlns:svg="http://www.w3.org/2000/svg"
   xmlns="http://www.w3.org/2000/svg"
   xmlns:sodipodi="http://sodipodi.sourceforge.net/DTD/sodipodi-0.dtd"
   xmlns:inkscape="http://www.inkscape.org/namespaces/inkscape"
   width="134.34076"
   height="70.467438"
   id="svg3480"
   version="1.1"
   inkscape:version="0.48.1 "
   sodipodi:docname="A27b-pipeSymms.svg">
  <defs
     id="defs3482" />
  <sodipodi:namedview
     id="base"
     pagecolor="#ffffff"
     bordercolor="#666666"
     borderopacity="1.0"
     inkscape:pageopacity="0.0"
     inkscape:pageshadow="2"
     inkscape:zoom="5.6"
     inkscape:cx="50.170217"
     inkscape:cy="40.550114"
     inkscape:document-units="px"
     inkscape:current-layer="g3435"
     showgrid="false"
     fit-margin-top="0"
     fit-margin-left="0"
     fit-margin-right="0"
     fit-margin-bottom="0"
     inkscape:window-width="1658"
     inkscape:window-height="986"
     inkscape:window-x="1547"
     inkscape:window-y="74"
     inkscape:window-maximized="0" />
  <metadata
     id="metadata3485">
    <rdf:RDF>
      <cc:Work
         rdf:about="">
        <dc:format>image/svg+xml</dc:format>
        <dc:type
           rdf:resource="http://purl.org/dc/dcmitype/StillImage" />
        <dc:title></dc:title>
      </cc:Work>
    </rdf:RDF>
  </metadata>
  <g
     inkscape:label="Layer 1"
     inkscape:groupmode="layer"
     id="layer1"
     transform="translate(-305.13181,-477.60735)">
    <g
       transform="translate(160.88401,391.22218)"
       id="g3435">
      <g
         id="g4385">
        <path
           sodipodi:nodetypes="ccccccccccc"
           style="fill:none;stroke:#000000;stroke-width:1;stroke-linecap:round;stroke-linejoin:round"
           d="m 152.2655,124.70616 c -5.7477,3.1251 -6.7994,8.10783 -7.52669,13.69988 0.17042,4.09053 -0.37774,7.51919 2.93427,12.89122 2.29827,3.38766 3.46684,3.95882 5.4,4.58813 1.607,0.73418 3.4264,0.48733 5.25599,0.0521 2.95661,-0.42337 5.81289,-2.8644 7.07374,-5.21946 1.5176,-2.26239 1.86294,-3.89362 2.28518,-5.14745 0.91638,-2.8341 0.61041,-4.82919 0.46854,-7.46597 -0.37091,-3.40913 -0.61145,-5.37562 -2.10572,-8.19458 -1.70939,-3.09034 -3.74667,-5.30972 -5.84865,-5.47199 -2.25707,-1.3894 -6.40262,-0.90887 -7.75935,0.072"
           id="polyline4"
           inkscape:connector-curvature="0" />
        <path
           sodipodi:nodetypes="cc"
           style="fill:none;stroke:#000000;stroke-width:1;stroke-linecap:round;stroke-linejoin:round"
           d="M 155.0117,123.68042 257.73422,88.270924"
           id="polyline6"
           inkscape:connector-curvature="0" />
        <path
           sodipodi:nodetypes="cc"
           style="fill:none;stroke:#000000;stroke-width:1;stroke-linecap:round;stroke-linejoin:round"
           d="m 160.56,155.304 c 35.46574,-13.1326 71.87672,-29.5897 106.45039,-41.97709"
           id="polyline8"
           inkscape:connector-curvature="0" />
        <path
           sodipodi:nodetypes="cc"
           style="fill:none;stroke:#000000;stroke-width:0.69999999;stroke-linecap:round;stroke-linejoin:round;stroke-miterlimit:4;stroke-opacity:0.62433861;stroke-dasharray:none"
           d="m 253.43999,92.068113 c -1.50528,0.914493 -1.60845,2.51274 -1.87199,3.763887"
           id="polyline12"
           inkscape:connector-curvature="0" />
        <path
           style="fill:none;stroke:#000000;stroke-width:0.69999999;stroke-linecap:round;stroke-linejoin:round;stroke-miterlimit:4;stroke-opacity:0.62433861;stroke-dasharray:none"
           d="m 251.13599,98.568 c -0.0192,-1.234074 0.0745,0.905746 -0.072,1.296 -0.0107,1.23252 -0.1194,1.97321 0.36,2.95199"
           id="polyline14"
           inkscape:connector-curvature="0" />
        <path
           sodipodi:nodetypes="ccc"
           style="fill:none;stroke:#000000;stroke-width:0.69999999;stroke-linecap:round;stroke-linejoin:round;stroke-miterlimit:4;stroke-opacity:0.62433861;stroke-dasharray:none"
           d="m 252.288,105.912 c 0.78765,1.24468 1.35896,2.54918 1.944,2.73599 l 1.13642,1.4067"
           id="polyline16"
           inkscape:connector-curvature="0" />
        <path
           sodipodi:nodetypes="cc"
           style="fill:none;stroke:#000000;stroke-width:0.69999999;stroke-linecap:round;stroke-linejoin:round;stroke-miterlimit:4;stroke-opacity:0.62433861;stroke-dasharray:none"
           d="m 257.93837,111.4028 c 1.43452,1.03259 4.9076,1.56326 6.28282,1.85534"
           id="polyline18"
           inkscape:connector-curvature="0" />
        <g
           style="stroke:#0000c4;stroke-width:1.5;stroke-miterlimit:4;stroke-opacity:1;stroke-dasharray:none"
           id="g3611">
          <path
             sodipodi:nodetypes="ccccccccccccccccccc"
             inkscape:connector-curvature="0"
             id="polyline30"
             d="m 194.68799,134.64 c 0.75957,-0.93727 1.34731,-1.22569 1.705,-3.145 0.67643,-1.4819 0.34564,-2.38108 0.29957,-5.25029 -0.43457,-1.50793 -0.88317,-2.68504 -2.48842,-4.14729 -1.75263,-2.7337 -1.72761,-2.96923 -0.84973,-4.79799 2.2462,-1.50963 2.94169,-2.12124 4.75788,-2.183 2.36645,0.33425 4.02036,0.24317 4.85307,-0.57607 1.625,-1.85094 2.23693,-2.94007 4.12993,-2.98093 0.91964,-0.20915 2.23966,0.16464 1.69056,1.49186 -0.63935,3.47205 -2.22645,4.79426 -5.57292,5.37278 -2.71886,0.11918 -5.43402,0.82951 -5.38592,1.07863 -0.86098,2.54486 1.4221,3.18183 4.35499,3.46729 2.5479,2.09173 -4.138,2.80687 -2.97529,6.2153 0.73956,1.2575 0.8649,2.72912 0.44929,4.01471 -0.76322,2.43119 -2.09337,4.07627 -4.968,5.39999 -1.41826,0.46195 -3.04409,0.38914 -4.53599,0.28801 -0.43336,-0.3831 -1.24151,-0.48673 -1.29601,-1.08 -0.0391,-0.57884 0.1072,-1.38504 1.11599,-1.98 2.4113,-0.18016 3.56358,-0.80603 4.716,-1.188 z"
             style="fill:none;stroke:#0000c4;stroke-width:1.5;stroke-linecap:round;stroke-linejoin:round;stroke-miterlimit:4;stroke-opacity:1;stroke-dasharray:none" />
          <path
             sodipodi:nodetypes="ccccccccccccccccccc"
             inkscape:connector-curvature="0"
             id="polyline32"
             d="m 175.248,147.888 c -1.28949,1.19749 -4.58799,0.70953 -4.35757,-0.49814 -0.37857,-1.40656 1.79051,-1.16311 3.07592,-1.55959 1.60118,-0.40218 1.29904,-0.7477 2.96365,-1.71798 1.25991,-0.86796 2.54247,-1.59118 3.68071,-3.07872 0.24012,-2.47678 -1.38815,-1.35089 -3.71557,-4.42643 -1.45859,-2.96388 -0.82569,-4.30668 0.406,-5.83785 2.10653,-1.92144 2.88315,-2.31339 5.53557,-3.49058 2.45863,-1.17557 3.71839,-1.4614 6.81129,-1.63871 2.25715,-0.25261 3.4393,0.25196 4.31999,1.224 0.34929,0.81327 0.31593,1.45584 0.36,2.37599 0.011,1.35943 0.15277,2.30899 -1.584,3.45601 -0.88101,0.43335 -2.64278,1.33055 -3.43885,-0.36286 -0.56408,-1.35449 2.23219,-1.49587 2.07086,-3.30914 -1.03673,-1.26665 -2.81545,-0.43401 -4.33157,0.88129 -1.88323,1.3892 -1.40821,3.48997 -1.93242,5.45471 -0.1432,1.5399 1.21627,4.24777 0.60485,5.57286 -0.25467,2.08073 -2.69317,1.78088 -5.54114,3.30043 -1.74418,1.34054 -3.24579,2.73621 -4.92772,3.65471 z"
             style="fill:none;stroke:#0000c4;stroke-width:1.5;stroke-linecap:round;stroke-linejoin:round;stroke-miterlimit:4;stroke-opacity:1;stroke-dasharray:none" />
        </g>
        <path
           sodipodi:nodetypes="ccccccc"
           style="fill:none;stroke:#000000;stroke-width:0.89137137;stroke-linecap:round;stroke-linejoin:round"
           d="m 268.81655,112.72409 c 1.94646,-0.96773 4.80274,-1.39201 6.06359,-3.2632 1.5176,-1.79757 2.11548,-3.09365 2.53772,-4.08987 0.91638,-2.25182 0.73667,-4.72088 0.5948,-6.815909 -0.37091,-2.708708 -1.6216,-5.155052 -3.11587,-7.394836 -1.70939,-2.455408 -4.50428,-3.713725 -6.60626,-3.842655 -2.25707,-1.103938 -8.5492,-0.09079 -9.90593,0.688555"
           id="polyline4-1"
           inkscape:connector-curvature="0" />
      </g>
    </g>
    <text
       xml:space="preserve"
       style="font-size:10px;font-style:normal;font-variant:normal;font-weight:normal;font-stretch:normal;line-height:125%;letter-spacing:0px;word-spacing:0px;fill:#000000;fill-opacity:1;stroke:none;font-family:Georgia;-inkscape-font-specification:Georgia"
       x="387.86319"
       y="529.69293"
       id="text3527"
       sodipodi:linespacing="125%"><tspan
         sodipodi:role="line"
         id="tspan3529"
         x="387.86319"
         y="529.69293">z</tspan></text>
    <text
       xml:space="preserve"
       style="font-size:10px;font-style:normal;font-variant:normal;font-weight:normal;font-stretch:normal;line-height:125%;letter-spacing:0px;word-spacing:0px;fill:#000000;fill-opacity:1;stroke:none;font-family:Georgia;-inkscape-font-specification:Georgia"
       x="305.95374"
       y="511.51065"
       id="text3531"
       sodipodi:linespacing="125%"><tspan
         sodipodi:role="line"
         id="tspan3533"
         x="305.95374"
         y="511.51065">T</tspan></text>
  </g>
</svg>
