<?xml version="1.0" encoding="UTF-8" standalone="no"?>
<!-- Created with Inkscape (http://www.inkscape.org/) -->

<svg
   xmlns:dc="http://purl.org/dc/elements/1.1/"
   xmlns:cc="http://creativecommons.org/ns#"
   xmlns:rdf="http://www.w3.org/1999/02/22-rdf-syntax-ns#"
   xmlns:svg="http://www.w3.org/2000/svg"
   xmlns="http://www.w3.org/2000/svg"
   xmlns:sodipodi="http://sodipodi.sourceforge.net/DTD/sodipodi-0.dtd"
   xmlns:inkscape="http://www.inkscape.org/namespaces/inkscape"
   width="191.58228"
   height="114.53551"
   id="svg5870"
   version="1.1"
   inkscape:version="0.48.1 "
   sodipodi:docname="A27groupTan.svg">
  <defs
     id="defs5872" />
  <sodipodi:namedview
     id="base"
     pagecolor="#ffffff"
     bordercolor="#666666"
     borderopacity="1.0"
     inkscape:pageopacity="0.0"
     inkscape:pageshadow="2"
     inkscape:zoom="1.979899"
     inkscape:cx="70.658412"
     inkscape:cy="51.873785"
     inkscape:document-units="px"
     inkscape:current-layer="layer1"
     showgrid="false"
     inkscape:window-width="695"
     inkscape:window-height="679"
     inkscape:window-x="2351"
     inkscape:window-y="154"
     inkscape:window-maximized="0"
     fit-margin-top="0"
     fit-margin-left="0"
     fit-margin-right="0"
     fit-margin-bottom="0" />
  <metadata
     id="metadata5875">
    <rdf:RDF>
      <cc:Work
         rdf:about="">
        <dc:format>image/svg+xml</dc:format>
        <dc:type
           rdf:resource="http://purl.org/dc/dcmitype/StillImage" />
        <dc:title />
      </cc:Work>
    </rdf:RDF>
  </metadata>
  <g
     inkscape:label="Layer 1"
     inkscape:groupmode="layer"
     id="layer1"
     transform="translate(-409.902,-369.3609)">
    <path
       style="fill:none;stroke:#000000;stroke-width:1;stroke-linecap:round;stroke-linejoin:round"
       d="m 465.43027,387.83992 c -1.7946,-0.50866 -2.00257,2.11846 -3.31198,3.024 -2.13956,2.32451 -3.98913,5.09152 -5.76,7.56 -2.29835,1.57483 -3.65885,4.40361 -5.47203,6.552 -1.73645,2.55002 -3.74372,4.93344 -5.98161,7.08386 -1.42531,2.80141 -2.88152,4.80682 -5.10636,6.88414 -1.46671,1.92104 -3.92542,4.34817 -5.112,5.688 l 0.14397,0"
       id="polyline418"
       inkscape:connector-curvature="0" />
    <path
       style="fill:none;stroke:#000000;stroke-width:1;stroke-linecap:round;stroke-linejoin:round"
       d="m 434.83026,425.71192 c -0.42445,-1.69726 2.55192,-0.28359 3.52803,0.072 3.69894,1.44714 7.62923,1.78509 11.376,3.096 4.74781,0.22353 9.08669,2.3916 13.75198,3.16804 4.36148,1.01256 8.58141,2.28713 12.888,2.95196 7.90006,2.61387 16.29031,2.95264 24.336,5.04004 5.45128,0.83047 10.88505,1.76106 16.12802,3.6 2.86123,1.71569 6.47482,1.66958 9.64798,2.664 0.68126,0.36148 2.05496,0.10583 1.29599,0.648"
       id="polyline420"
       inkscape:connector-curvature="0" />
    <path
       style="fill:none;stroke:#000000;stroke-width:1;stroke-linecap:round;stroke-linejoin:round"
       d="m 466.43827,386.68792 c -0.78715,-1.19544 1.87036,-0.21225 2.73602,0.144 4.88935,2.05467 10.27555,2.37506 15.192,4.39196 6.80971,1.80454 13.70979,3.93108 20.10121,6.65894 5.36556,1.15705 10.87007,2.95637 16.13785,4.80294 4.23313,1.98076 8.91639,2.83678 13.375,4.24975 4.38762,0.71856 9.18378,2.04618 13.16992,2.86441 0.27607,0.0418 -2.22544,0.99283 -2.16,2.448 -1.22063,1.57812 -1.90846,3.38688 -3.23998,4.464 -2.72279,3.65486 -5.05199,7.81459 -7.272,11.808 -0.84327,1.96481 -1.68525,3.97999 -2.59203,5.904 -1.23489,0.93568 -2.37995,3.5848 -3.81597,5.11197 -1.03676,2.48563 -2.32113,5.05674 -3.384,7.48803 0,-0.072 0,-0.144 0,-0.216"
       id="polyline422"
       inkscape:connector-curvature="0" />
    <path
       style="fill:none;stroke:#000000;stroke-width:1;stroke-linecap:round;stroke-linejoin:round"
       d="m 490.12629,416.92792 c -0.59257,-1.22372 1.15374,-1.30233 1.656,-2.59204 1.02784,-0.84337 1.99256,0.10637 1.65598,1.44 1.21753,1.00309 -2.54932,1.36979 -3.81598,0.86404 -1.86815,0.48753 -2.13337,-3.79454 0.216,-2.952 1.63956,-0.069 3.78893,-0.23406 3.24,1.65595 0.11878,0.75697 -1.82752,1.83188 -3.168,0.79205 -2.28901,-0.96411 0.57636,-3.27861 2.08797,-2.232 2.26764,1.39049 -2.90294,3.50526 -3.168,1.87196 l 0.36003,-0.216"
       id="polyline424"
       inkscape:connector-curvature="0" />
    <path
       style="fill:none;stroke:#000000;stroke-width:1;stroke-linecap:round;stroke-linejoin:round"
       d="m 490.99027,417.57592 c -1.01181,-0.91391 -0.48296,-0.79454 0.36002,-0.72 2.82154,0.50494 4.94409,3.38068 8.064,3.456 4.23992,2.11387 9.09581,2.86247 13.46398,4.824 3.26337,0.93833 6.3173,2.06943 9.36002,3.09595 1.13345,0.72802 0.23305,-1.59464 -0.432,-2.37595 -1.25895,-1.24716 -2.63153,-2.98555 -4.24803,-3.31204 2.02033,1.60534 5.18472,4.41077 5.61603,6.19204 -2.63263,0.27767 -6.74241,0.1903 -8.496,1.36796 0.82038,-2.52422 3.69668,-4.68708 3.96,-7.05596 -0.57179,-0.004 -0.36963,2.93701 -0.288,4.032 -0.31611,0.58117 0.32021,-1.93385 1.512,-1.656 3.12675,-0.64046 -0.14173,1.4845 -1.08,2.16 -2.31253,1.75557 -1.08746,1.22289 0.53452,-0.14498 2.95994,-1.77985 -1.04799,-0.68593 -1.54254,0.86498 -0.10805,0.79867 2.69989,0.0211 2.59202,0 -1.28152,-0.73501 -3.27361,-2.6593 -3.60002,-3.74404 l 0.14402,0.072 0.14397,0.288"
       id="polyline426"
       inkscape:connector-curvature="0" />
    <path
       style="fill:none;stroke:#000000;stroke-width:1;stroke-linecap:round;stroke-linejoin:round"
       d="m 492.35829,412.10388 c -0.004,1.18062 -0.27548,0.85688 0.14397,0.64804 1.73945,-1.39541 3.35844,-3.40834 5.04001,-5.04 1.7238,-2.23897 3.78552,-4.14023 5.112,-6.48005 1.27016,-1.18534 2.02605,-2.43641 2.80802,-2.59195 -0.0191,-0.27989 0.69098,-0.75068 0.216,-0.504 -2.39934,0.33196 -5.33522,-0.38193 -7.056,1.87195 -1.44769,0.96009 2.17868,-0.33734 3.04311,-0.27982 1.04169,-0.72785 3.70175,-1.02529 3.29289,-0.72817 -0.0125,-0.37141 0.52532,2.22604 1.008,3.09601 1.50149,2.37287 -0.29866,0.65174 -1.86383,0.72276 -1.71745,-0.002 -4.17754,-1.22306 -5.12019,-1.58678 1.70672,-0.43579 3.9397,1.11919 5.112,-0.28795 -0.80679,-1.126 -3.14899,-2.72644 -1.1844,-1.52823 0.55287,0.31655 0.84265,0.67474 1.1844,1.16823"
       id="polyline428"
       inkscape:connector-curvature="0" />
    <path
       style="fill:none;stroke:#000000;stroke-width:1;stroke-linecap:round;stroke-linejoin:round"
       d="m 445.84629,411.09589 c 1.0204,-0.43775 0.0532,-0.73124 0,-0.86402 -3.54151,0.48184 -7.54614,2.23744 -10.728,4.32001 -1.83946,1.35681 -3.68574,1.69835 -5.544,2.59204 -0.0755,0.82078 -3.99713,2.95229 -2.16,2.448"
       id="polyline430"
       inkscape:connector-curvature="0" />
    <path
       style="fill:none;stroke:#000000;stroke-width:1;stroke-linecap:round;stroke-linejoin:round"
       d="m 451.46229,409.79992 c 0.28346,-1.55158 2.50304,-0.26724 3.384,-1.58404 0.56906,-0.2928 1.00733,-0.58514 1.44,-0.50396"
       id="polyline432"
       inkscape:connector-curvature="0" />
    <path
       style="fill:none;stroke:#000000;stroke-width:1;stroke-linecap:round;stroke-linejoin:round"
       d="m 463.99027,405.62392 c 2.14521,0.0112 3.86899,-0.73403 5.39999,-1.29604"
       id="polyline434"
       inkscape:connector-curvature="0" />
    <path
       style="fill:none;stroke:#000000;stroke-width:1;stroke-linecap:round;stroke-linejoin:round"
       d="m 476.37427,403.89587 c 1.48578,-0.21775 3.34198,0.0778 4.75202,-0.14395"
       id="polyline436"
       inkscape:connector-curvature="0" />
    <path
       style="fill:none;stroke:#000000;stroke-width:1;stroke-linecap:round;stroke-linejoin:round"
       d="m 486.67029,405.40792 c 0.82639,-0.39178 2.67225,-0.51298 3.88797,-0.504"
       id="polyline438"
       inkscape:connector-curvature="0" />
    <path
       style="fill:none;stroke:#000000;stroke-width:1;stroke-linecap:round;stroke-linejoin:round"
       d="m 506.68629,404.83192 c -0.205,-1.39591 3.05602,-0.25785 3.672,-0.50404"
       id="polyline440"
       inkscape:connector-curvature="0" />
    <path
       style="fill:none;stroke:#000000;stroke-width:1;stroke-linecap:round;stroke-linejoin:round"
       d="m 518.27826,404.83192 c 2.15826,0.0655 4.12406,0.0615 6.26401,0"
       id="polyline442"
       inkscape:connector-curvature="0" />
    <path
       style="fill:none;stroke:#000000;stroke-width:1;stroke-linecap:round;stroke-linejoin:round"
       d="m 525.91029,405.04792 c -2.30293,0.0662 0.18347,-0.0726 1.07998,-0.144 6.40671,-0.0674 12.83745,-0.23322 19.09911,1.35986 5.66749,1.11165 11.23344,2.65229 16.97702,3.41705 5.65642,1.32852 11.31769,2.76644 16.81143,4.63883 2.6097,1.3764 6.44248,2.45787 8.67246,3.11223 0.27029,-0.23698 -0.39862,-0.20733 -0.504,-0.21601"
       id="polyline444"
       inkscape:connector-curvature="0" />
    <path
       style="fill:none;stroke:#000000;stroke-width:1;stroke-linecap:round;stroke-linejoin:round"
       d="m 427.55829,421.03192 c 0.075,-0.56235 -1.3073,0.57659 -1.08,1.368 -2.27601,3.26231 -3.27962,7.32284 -4.248,11.232 -2.57989,6.7619 -3.05433,14.17718 -4.88719,21.17826 -1.09014,7.77074 -3.97271,15.20014 -4.54481,22.9577 -0.83027,1.80253 -1.53128,3.59286 -2.232,5.25604 -0.45998,0.74536 0.20615,0.12633 0.072,0.216 2.14651,-2.90312 4.96904,-6.13848 8.208,-8.35204 1.81996,-1.71838 3.34745,-3.78777 5.688,-4.67999 6.1476,-5.23082 14.12276,-7.44235 21.744,-9.64801 9.26588,-2.25058 18.84336,-3.16592 28.33399,-1.95886 13.80811,1.99003 27.95746,3.16662 41.1311,8.00916 3.07377,1.87667 6.44963,3.0479 9.19225,5.32153 1.34864,0.90968 3.53598,2.29801 3.63866,3.10021 0.51989,1.55825 2.57917,3.2355 2.952,4.104"
       id="polyline446"
       inkscape:connector-curvature="0" />
    <path
       style="fill:none;stroke:#000000;stroke-width:1;stroke-linecap:round;stroke-linejoin:round"
       d="m 534.33426,476.32788 c 0.0937,-0.75143 -0.71338,-1.74069 -0.14397,-3.09601 0.8041,-5.14052 1.74436,-10.78697 4.75197,-15.552 2.73791,-5.23892 7.59326,-8.90477 11.59203,-13.24798 4.4049,-3.21524 8.46652,-7.09611 12.74397,-10.29597 5.89565,-1.59773 10.32015,-6.53232 16.48803,-7.48803 4.59189,-1.14589 9.43697,-1.31174 13.82395,-2.95197 0.95966,-0.0225 1.54676,-0.39146 0.50405,0"
       id="polyline448"
       inkscape:connector-curvature="0" />
    <path
       style="fill:none;stroke:#000000;stroke-width:1;stroke-linecap:round;stroke-linejoin:round"
       d="m 587.32629,414.62392 c 0.51299,-0.2072 1.88168,1.89426 3.02396,1.512 2.05223,1.23884 5.51087,-0.30607 6.84004,2.448 1.71058,0.65734 2.41947,1.80653 3.59997,2.30396 0.96349,0.16079 -1.94704,0.92698 -2.48759,1.42382 -2.19007,1.15822 -4.62073,1.87395 -6.80038,3.04022"
       id="polyline450"
       inkscape:connector-curvature="0" />
    <path
       style="fill:none;stroke:#000000;stroke-width:1;stroke-linecap:round;stroke-linejoin:round"
       d="m 493.43827,412.60792 c -0.0366,-0.78421 -0.37317,2.28092 -0.43198,0.144 -0.0268,-0.76854 0.067,-0.12087 -0.072,0.216 -0.0788,-1.1395 0.94841,-3.34266 1.08002,-4.96804 0.54823,-2.81679 1.0033,-6.9117 1.656,-9 0.6057,-3.87413 1.49679,-7.89645 1.94397,-11.88001 0.75661,-3.81126 1.41208,-7.68233 1.72803,-11.44799 0.92381,-1.45625 -0.0739,-2.74481 0.86398,-4.17596 0.0895,-0.62613 0.55329,-2.76681 0.21602,-0.864 -0.99329,1.66007 -2.75646,3.8508 -3.38402,5.112 -0.11712,1.00816 -1.71762,1.95797 -0.35998,1.36796 0.6382,-1.72832 1.96238,-3.70054 2.59198,-5.18396 0.58216,0.89444 1.7254,3.1451 2.376,4.60797 0.38583,1.46267 1.3362,2.53103 -0.432,1.51203 -1.53515,-0.88487 -3.8039,-1.2159 -5.03998,-0.36 0.11215,-1.11001 1.35951,-3.8766 2.304,-5.47204 0.005,-0.84061 0.63088,-0.34785 1.22398,-1.656 0.10071,-0.95991 0.34774,2.24621 0.36002,2.95204 0.46888,1.47522 0.86524,3.5643 1.296,4.536"
       id="polyline452"
       inkscape:connector-curvature="0" />
  </g>
</svg>
