<?xml version="1.0" encoding="UTF-8" standalone="no"?>
<svg
   xmlns:dc="http://purl.org/dc/elements/1.1/"
   xmlns:cc="http://creativecommons.org/ns#"
   xmlns:rdf="http://www.w3.org/1999/02/22-rdf-syntax-ns#"
   xmlns:svg="http://www.w3.org/2000/svg"
   xmlns="http://www.w3.org/2000/svg"
   xmlns:sodipodi="http://sodipodi.sourceforge.net/DTD/sodipodi-0.dtd"
   xmlns:inkscape="http://www.inkscape.org/namespaces/inkscape"
   width="172.75285"
   height="190.05438"
   version="1.1"
   id="svg2"
   sodipodi:version="0.32"
   inkscape:version="0.48.1 "
   sodipodi:docname="A27gOrbit.svg"
   inkscape:output_extension="org.inkscape.output.svg.inkscape">
  <metadata
     id="metadata459">
    <rdf:RDF>
      <cc:Work
         rdf:about="">
        <dc:format>image/svg+xml</dc:format>
        <dc:type
           rdf:resource="http://purl.org/dc/dcmitype/StillImage" />
        <dc:title />
      </cc:Work>
    </rdf:RDF>
  </metadata>
  <defs
     id="defs457">
    <inkscape:perspective
       sodipodi:type="inkscape:persp3d"
       inkscape:vp_x="0 : 0.5 : 1"
       inkscape:vp_y="0 : 1000 : 0"
       inkscape:vp_z="1 : 0.5 : 1"
       inkscape:persp3d-origin="0.5 : 0.33333333 : 1"
       id="perspective461" />
  </defs>
  <sodipodi:namedview
     inkscape:window-height="1103"
     inkscape:window-width="950"
     inkscape:pageshadow="2"
     inkscape:pageopacity="0.0"
     guidetolerance="10.0"
     gridtolerance="10.0"
     objecttolerance="10.0"
     borderopacity="1.0"
     bordercolor="#666666"
     pagecolor="#ffffff"
     id="base"
     showgrid="false"
     inkscape:zoom="4.317905"
     inkscape:cx="93.074979"
     inkscape:cy="95.993053"
     inkscape:window-x="2245"
     inkscape:window-y="39"
     inkscape:current-layer="svg2"
     fit-margin-top="0"
     fit-margin-left="0"
     fit-margin-right="0"
     fit-margin-bottom="0"
     inkscape:window-maximized="0" />
  <path
     style="fill:none;stroke:#000000;stroke-width:1"
     d=""
     id="path4"
     inkscape:connector-curvature="0" />
  <path
     style="fill:none;stroke:#000000;stroke-width:1"
     d="m 49.707198,117.495 c 10.66257,-2.19549 -5.27216,5.51137 2.66666,-1.66662"
     id="path132"
     inkscape:connector-curvature="0" />
  <path
     style="fill:none;stroke:#000000;stroke-width:1"
     d="m 50.587045,117.80791 c -12.95747,15.0833 -48.4681666,65.12728 -44.9135597,52.66814 -7.1388114,10.85149 -7.5654982,10.56101 3.1896531,2.7603"
     id="path134"
     inkscape:connector-curvature="0"
     sodipodi:nodetypes="ccc" />
  <g
     id="g3208"
     transform="translate(3.7055007,-8.3373765)">
    <path
       inkscape:connector-curvature="0"
       id="path136"
       d="m 48.909666,126.44185 c 33.41631,16.97607 69.320964,29.51858 100.018284,51.39863 5.15724,3.27642 11.64917,5.35329 16.39838,8.68468"
       style="fill:none;stroke:#000000;stroke-width:1" />
    <path
       inkscape:connector-curvature="0"
       id="path138"
       d="m 150.57633,182.75572 c 5.22178,-1.38197 9.70389,2.73529 14.58331,3.75"
       style="fill:none;stroke:#000000;stroke-width:1" />
    <path
       inkscape:connector-curvature="0"
       id="path140"
       d="m 152.98326,174.68113 c 2.84058,5.09928 8.74392,7.21147 12.08338,12.08331"
       style="fill:none;stroke:#000000;stroke-width:1" />
  </g>
  <path
     style="fill:none;stroke:#000000;stroke-width:0.69450438"
     d="m 55.58907,87.536824 c 5.326691,1.48405 -3.432792,6.32245 -2.211,1.023848 0.323185,-0.890551 1.3884,-1.053961 2.211,-1.023848 z"
     id="path142"
     inkscape:connector-curvature="0" />
  <path
     style="fill:none;stroke:#000000;stroke-width:1"
     d="m 18.576326,98.191849 c 7.657,-11.56597 5.08234,22.310561 10.83334,-3.33338 l 0.10983,6.289881 1.22349,5.5435"
     id="path144"
     inkscape:connector-curvature="0" />
  <path
     style="fill:none;stroke:#000000;stroke-width:1"
     d="m 36.659666,95.358469 c -6.14278,2.06818 -6.87029,12.821331 0,14.250001"
     id="path148"
     inkscape:connector-curvature="0" />
  <path
     style="fill:none;stroke:#000000;stroke-width:1"
     d="m 40.492986,97.025159 c 7.33032,-1.48778 5.4367,10.434421 2.08334,13.333311"
     id="path150"
     inkscape:connector-curvature="0" />
  <path
     style="fill:none;stroke:#000000;stroke-width:1"
     d="m 53.401308,88.265827 c 0,0 -50.050402,-35.979388 -19.715272,-49.943898 30.32885,6.74759 53.10859,-52.00589 81.342834,-18.99124 12.07625,18.40993 50.1864,-18.0465004 56.38337,18.61219 5.55463,26.1599 -16.82814,49.47011 -38.34083,44.19866 -9.41388,30.189591 -56.226272,26.782491 -76.502472,8.344809"
     id="path152"
     inkscape:connector-curvature="0"
     sodipodi:nodetypes="cccccc" />
  <path
     style="fill:none;stroke:#000000;stroke-width:1"
     d="m 27.319644,60.217912 c 3.670209,-0.706338 7.835892,-1.510424 10.16668,-4.75"
     id="path156"
     inkscape:connector-curvature="0" />
  <path
     style="fill:none;stroke:#000000;stroke-width:1"
     d="m 29.01342,65.116186 c 3.723164,0.799198 7.010689,-1.743502 9.91666,-3.66668"
     id="path158"
     inkscape:connector-curvature="0" />
  <path
     style="fill:none;stroke:#000000;stroke-width:1"
     d="m 46.888614,83.215286 c 3.243034,-1.377584 6.493401,-2.738114 9.75,-4.08331"
     id="path160"
     inkscape:connector-curvature="0" />
  <path
     style="fill:none;stroke:#000000;stroke-width:1"
     d="m 35.246989,71.818012 c 3.478375,1.770055 5.015021,-3.649977 8,-4.08338"
     id="path162"
     inkscape:connector-curvature="0" />
  <path
     style="fill:none;stroke:#000000;stroke-width:1"
     d="m 41.924368,78.326663 c -0.447578,-2.796684 3.282581,-2.668761 4.58334,-4.25"
     id="path164"
     inkscape:connector-curvature="0" />
  <path
     style="fill:none;stroke:#000000;stroke-width:1"
     d="m 57.922041,89.494388 c 3.080786,-2.058903 7.664577,-1.278712 9.820945,-4.802539"
     id="path166"
     inkscape:connector-curvature="0" />
  <path
     style="fill:none;stroke:#000000;stroke-width:1"
     d="m 64.742986,95.775159 c 5.268863,0.27042 7.901319,-5.247049 11.91668,-7.58331"
     id="path168"
     inkscape:connector-curvature="0" />
  <path
     style="fill:none;stroke:#000000;stroke-width:1"
     d="m 76.409666,102.35847 c 3.980845,-3.124795 9.315045,-4.281612 12.66666,-8.250001"
     id="path170"
     inkscape:connector-curvature="0" />
  <path
     style="fill:none;stroke:#000000;stroke-width:1"
     d="m 117.05265,95.659697 c 4.55555,-4.051964 12.68341,-5.331577 13.50003,-12.500006"
     id="path172"
     inkscape:connector-curvature="0" />
  <path
     style="fill:none;stroke:#000000;stroke-width:1"
     d="m 100.06561,104.93113 c 6.33539,-3.71605 10.17926,-10.194809 15,-15.500001"
     id="path174"
     inkscape:connector-curvature="0" />
  <path
     style="fill:none;stroke:#000000;stroke-width:1"
     d="m 91.145512,104.18417 c 5.33756,-3.60883 8.821353,-9.274547 11.666688,-14.916698"
     id="path176"
     inkscape:connector-curvature="0" />
  <path
     style="fill:none;stroke:#000000;stroke-width:1"
     d="m 135.07633,82.635596 c -0.0297,-3.416814 -0.001,-6.834108 0.0833,-10.25"
     id="path178"
     inkscape:connector-curvature="0" />
  <path
     style="fill:none;stroke:#000000;stroke-width:1"
     d="m 138.74302,83.091097 c 0.44532,-3.910138 4.94114,-8.385199 1.33331,-12"
     id="path180"
     inkscape:connector-curvature="0" />
  <path
     style="fill:none;stroke:#000000;stroke-width:1"
     d="m 145.47461,82.690815 c 1.97601,-5.120816 8.57614,-9.663177 5.41662,-15.75"
     id="path182"
     inkscape:connector-curvature="0" />
  <path
     style="fill:none;stroke:#000000;stroke-width:1"
     d="m 157.74398,76.633598 c 0.8004,-3.521531 1.43701,-7.087474 1.91669,-10.66669"
     id="path184"
     inkscape:connector-curvature="0" />
  <path
     style="fill:none;stroke:#000000;stroke-width:1"
     d="m 62.992986,35.608499 c 3.077643,-4.548467 5.519131,-10.437502 11.25,-12.16668"
     id="path186"
     inkscape:connector-curvature="0" />
  <path
     style="fill:none;stroke:#000000;stroke-width:1"
     d="m 68.576326,36.941819 c 1.189108,-4.461646 5.717798,-6.745532 9.58334,-8.5"
     id="path188"
     inkscape:connector-curvature="0" />
  <path
     style="fill:none;stroke:#000000;stroke-width:1"
     d="m 74.909666,38.441819 c 2.312981,-1.642435 4.785087,-3.088164 7.33332,-4.33332"
     id="path190"
     inkscape:connector-curvature="0" />
  <path
     style="fill:none;stroke:#000000;stroke-width:1"
     d="m 82.826326,41.191819 c -0.90129,-2.081989 2.563793,-1.491023 3.08334,-2.83332"
     id="path192"
     inkscape:connector-curvature="0" />
  <path
     style="fill:none;stroke:#000000;stroke-width:1"
     d="m 110.82633,14.775159 c 0.21269,3.940683 -0.0996,8.777259 -3.75,11.16666"
     id="path194"
     inkscape:connector-curvature="0" />
  <path
     style="fill:none;stroke:#000000;stroke-width:1"
     d="m 114.15964,22.025159 c 1.75659,-3.259524 -0.6871,5.146569 -1.31621,6.332701 -1.04265,2.07267 -1.89907,5.699126 -4.68379,5.833959"
     id="path196"
     inkscape:connector-curvature="0" />
  <path
     style="fill:none;stroke:#000000;stroke-width:1"
     d="m 120.62283,23.560967 c -0.1941,4.130809 -3.85314,6.77869 -5.91662,10"
     id="path198"
     inkscape:connector-curvature="0" />
  <path
     style="fill:none;stroke:#000000;stroke-width:1"
     d="m 136.74302,64.191819 c -2.37714,2.481652 -3.50468,7.02606 -7.58338,7.16665"
     id="path200"
     inkscape:connector-curvature="0" />
  <path
     style="fill:none;stroke:#000000;stroke-width:1"
     d="m 132.65964,62.858499 c -2.96311,2.169477 -4.72554,6.428406 -8.83331,6.66666"
     id="path202"
     inkscape:connector-curvature="0" />
  <path
     style="fill:none;stroke:#000000;stroke-width:1"
     d="m 128.07633,61.775159 c -1.66817,1.899855 -3.25415,3.878428 -4.75,5.91666"
     id="path204"
     inkscape:connector-curvature="0" />
  <path
     style="fill:none;stroke:#000000;stroke-width:1"
     d="m 52.159666,117.10847 c 1.08754,-8.49832 2.590587,-23.001095 2.699117,-26.554185"
     id="path206"
     inkscape:connector-curvature="0"
     sodipodi:nodetypes="cc" />
  <path
     style="fill:none;stroke:#000000;stroke-width:1"
     d="m 56.363139,76.967943 c 0.256946,-1.438607 0.532329,-2.876703 0.66666,-4.3334"
     id="path208"
     inkscape:connector-curvature="0" />
  <path
     style="fill:none;stroke:#000000;stroke-width:1"
     d="m 58.242986,67.608499 c 0.368682,-2.025423 0.539098,-4.108365 0.5,-6.16668"
     id="path210"
     inkscape:connector-curvature="0" />
  <path
     style="fill:none;stroke:#000000;stroke-width:1"
     d="m 59.548205,52.690815 c 0.375643,-1.406062 0.708112,-2.82422 1,-4.25"
     id="path212"
     inkscape:connector-curvature="0" />
  <path
     style="fill:none;stroke:#000000;stroke-width:1"
     d="m 61.742986,42.775159 c 0.08333,-0.77778 0.166667,-1.55556 0.25,-2.33334"
     id="path214"
     inkscape:connector-curvature="0" />
  <path
     style="fill:none;stroke:#000000;stroke-width:1"
     d="m 63.409666,28.608499 c -0.97327,-6.75899 6.49822,-41.81213 -1.16668,-21.5000004 2.21608,-13.52335 5.86553,-3.23979 6.75,3.8333204"
     id="path216"
     inkscape:connector-curvature="0" />
  <path
     style="fill:none;stroke:#000000;stroke-width:1"
     d="m 38.28752,99.002653 c 2.006596,0.03836 3.257857,1.709467 2.031446,3.847147 -0.934924,1.62961 -5.67449,1.94516 -5.503549,-1.2159 0.09766,-1.805874 1.021552,-2.678094 3.472103,-2.631247 z"
     id="path142-3"
     inkscape:connector-curvature="0"
     sodipodi:nodetypes="ssss" />
</svg>
