<?xml version="1.0" encoding="UTF-8" standalone="no"?>
<!-- Created with Inkscape (http://www.inkscape.org/) -->

<svg
   xmlns:dc="http://purl.org/dc/elements/1.1/"
   xmlns:cc="http://creativecommons.org/ns#"
   xmlns:rdf="http://www.w3.org/1999/02/22-rdf-syntax-ns#"
   xmlns:svg="http://www.w3.org/2000/svg"
   xmlns="http://www.w3.org/2000/svg"
   xmlns:sodipodi="http://sodipodi.sourceforge.net/DTD/sodipodi-0.dtd"
   xmlns:inkscape="http://www.inkscape.org/namespaces/inkscape"
   width="183.00291"
   height="173.22192"
   id="svg3481"
   version="1.1"
   inkscape:version="0.48.1 "
   sodipodi:docname="A27movFrame.svg">
  <defs
     id="defs3483">
    <marker
       inkscape:stockid="Arrow1Mend"
       orient="auto"
       refY="0.0"
       refX="0.0"
       id="Arrow1Mend"
       style="overflow:visible;">
      <path
         id="path4437"
         d="M 0.0,0.0 L 5.0,-5.0 L -12.5,0.0 L 5.0,5.0 L 0.0,0.0 z "
         style="fill-rule:evenodd;stroke:#000000;stroke-width:1.0pt;marker-start:none;"
         transform="scale(0.4) rotate(180) translate(10,0)" />
    </marker>
    <marker
       inkscape:stockid="Arrow1Lend"
       orient="auto"
       refY="0.0"
       refX="0.0"
       id="Arrow1Lend"
       style="overflow:visible;">
      <path
         id="path4431"
         d="M 0.0,0.0 L 5.0,-5.0 L -12.5,0.0 L 5.0,5.0 L 0.0,0.0 z "
         style="fill-rule:evenodd;stroke:#000000;stroke-width:1.0pt;marker-start:none;"
         transform="scale(0.8) rotate(180) translate(12.5,0)" />
    </marker>
  </defs>
  <sodipodi:namedview
     id="base"
     pagecolor="#ffffff"
     bordercolor="#666666"
     borderopacity="1.0"
     inkscape:pageopacity="0.0"
     inkscape:pageshadow="2"
     inkscape:zoom="3.959798"
     inkscape:cx="78.603533"
     inkscape:cy="86.610962"
     inkscape:document-units="px"
     inkscape:current-layer="layer1"
     showgrid="false"
     fit-margin-top="0"
     fit-margin-left="0"
     fit-margin-right="0"
     fit-margin-bottom="0"
     inkscape:window-width="1310"
     inkscape:window-height="949"
     inkscape:window-x="1810"
     inkscape:window-y="50"
     inkscape:window-maximized="0" />
  <metadata
     id="metadata3486">
    <rdf:RDF>
      <cc:Work
         rdf:about="">
        <dc:format>image/svg+xml</dc:format>
        <dc:type
           rdf:resource="http://purl.org/dc/dcmitype/StillImage" />
        <dc:title></dc:title>
      </cc:Work>
    </rdf:RDF>
  </metadata>
  <g
     inkscape:label="Layer 1"
     inkscape:groupmode="layer"
     id="layer1"
     transform="translate(-142.77482,-331.45952)">
    <path
       style="fill:none;stroke:#181c83;stroke-width:1;stroke-linecap:round;stroke-linejoin:round;stroke-opacity:1"
       d="m 146.80569,470.99648 c 4.02017,-7.19399 7.44204,-14.51448 13.392,-19.44001 3.79869,-3.84259 7.95626,-7.51616 12.70799,-11.52001 3.19772,-0.3501 7.69956,0.9458 9.82803,1.944 3.42898,1.99251 6.99737,4.11057 11.16,3.67201 7.64377,0.15944 15.05792,-2.11512 22.6064,-3.07992 3.8369,-0.64358 7.34506,-1.88227 11.16157,-2.53609 8.62753,-2.66629 17.34619,-6.48657 26.63887,-5.49605 10.84268,0.62718 23.05933,1.90191 30.94568,10.096 5.75176,6.46062 11.22284,11.70891 12.03946,13.50805 0,0 2.73643,1.85696 3.31202,2.556 -1.45884,3.96311 -4.44043,12.29219 -9.864,16.34401 -3.26405,4.31516 -6.47297,8.77124 -10.44,12.528 -3.73421,4.2666 -8.36924,7.3688 -12.384,11.232 -1.09355,0.95883 -3.27753,3.3348 -3.888,3.384 -2.20142,-3.10756 -5.75374,-6.3544 -8.87987,-9.07478 -4.50588,-3.55616 -10.05576,-6.462 -15.09616,-9.57322 -4.97278,-2.05242 -9.93933,-4.12227 -14.86805,-6.22083 -5.52064,-1.50966 -11.47272,-1.04906 -17.17192,-0.90717 -8.18255,-0.28077 -16.25322,1.25231 -24.21142,3.02954 -7.31802,1.26203 -14.66905,3.20043 -22.15658,2.65844 -2.88442,0.94795 -17.34623,-6.12034 -17.92802,-5.97599 0.48215,-0.43961 1.86255,-5.97713 3.096,-7.12798 z"
       id="polyline346"
       inkscape:connector-curvature="0"
       sodipodi:nodetypes="ccccccccccccccccccccccc" />
    <path
       style="fill:none;stroke:#414db8;stroke-width:1;stroke-linecap:round;stroke-linejoin:round;stroke-opacity:1"
       d="m 180.94663,387.46571 c 3.53376,-1.6907 9.11753,-5.92519 11.96403,-9.5614 5.14935,-6.80793 2.22558,-3.7851 5.33904,-10.15583 7.9781,-0.44104 12.46423,-1.62955 15.8137,-3.02613 7.08223,-2.67345 10.11779,-3.60535 16.11831,-8.42185 7.34652,-5.13759 16.20159,-13.95377 23.51067,-17.06724 7.66003,-4.69747 13.08565,-7.33171 21.38133,-6.90876 3.87757,0.0389 6.93608,0.50173 10.18798,0.72 3.55749,1.8903 7.90542,1.79564 11.08802,4.464 6.4879,3.75316 13.78762,6.08748 19.152,11.376 5.81441,5.28278 9.094,8.46133 7.416,7.70399 -0.0913,0.0735 -0.1575,-0.13437 -0.144,0.14401 -5.21033,15.25052 -6.32097,17.13222 -13.53604,26.85596 -2.57999,3.22345 -5.08609,6.25443 -7.48796,9.64801 -0.71804,1.06367 -2.47458,3.85984 -2.30403,3.456 -5.83048,-5.6446 -13.12999,-10.88257 -20.83384,-14.96062 -7.81867,-4.15811 -17.78721,-7.61632 -27.26213,-8.51138 -4.01908,-0.32097 -7.95612,0.005 -11.80802,0.936 -7.10822,0.57508 -14.17487,2.6105 -21.09598,4.67999 -4.84197,1.09145 -9.25763,3.31428 -13.75202,5.32801 -6.16293,2.92725 -10.92641,5.92618 -16.86945,6.87223 -6.93003,2.56686 -19.09453,5.61976 -19.09453,5.61976 0.85578,-2.17163 5.1542,-6.31649 12.21692,-9.19075 z"
       id="polyline356"
       inkscape:connector-curvature="0"
       sodipodi:nodetypes="ccccccccccccccccccccccc" />
    <path
       style="fill:none;stroke:#000000;stroke-width:1.50000000000000000;stroke-linecap:butt;stroke-linejoin:round;stroke-miterlimit:4;stroke-dasharray:none;marker-end:url(#Arrow1Mend)"
       d="m 210.02171,452.63647 c -0.20437,-2.09212 -1.66088,-6.88506 -2.70379,-12.39584 -1.20251,-5.28313 -0.66353,-8.9815 -0.25254,-14.98031 1.2165,-7.04283 3.78974,-8.10917 5.40433,-15.17586 0.96865,-7.3163 1.1457,-6.14732 1.72798,-12.888 0.49573,-4.29487 0.68414,-13.28234 0.86402,-15.9926"
       id="polyline364"
       inkscape:connector-curvature="0"
       sodipodi:nodetypes="cccccc" />
    <path
       style="fill:none;stroke:#000000;stroke-width:1.50000000000000000;stroke-linecap:butt;stroke-linejoin:round;stroke-miterlimit:4;stroke-dasharray:none;marker-mid:none;marker-end:url(#Arrow1Mend)"
       d="m 215.34971,372.42847 c 8.77884,-2.87187 15.21489,-7.61235 20.15352,-10.50662 7.0745,-6.34463 6.59769,-6.40843 10.61301,-9.89731 6.18305,-6.26885 16.88266,-8.17409 24.60144,-5.30007 9.15648,3.55874 8.02244,3.43847 13.17495,7.61263 5.30095,4.03688 9.75153,9.86583 14.18508,15.42737"
       id="polyline390"
       inkscape:connector-curvature="0"
       sodipodi:nodetypes="cccccc" />
    <text
       xml:space="preserve"
       style="font-size:12px;font-style:normal;font-variant:normal;font-weight:normal;font-stretch:normal;line-height:125%;letter-spacing:0px;word-spacing:0px;fill:#000000;fill-opacity:1;stroke:none;font-family:Arial;-inkscape-font-specification:Arial"
       x="69.396065"
       y="498.2356"
       id="text3602"
       sodipodi:linespacing="125%"
       transform="matrix(0.97152578,-0.23693389,0.23693389,0.97152578,0,0)"><tspan
         sodipodi:role="line"
         id="tspan3604"
         x="69.396065"
         y="498.2356">x(0)</tspan></text>
    <text
       xml:space="preserve"
       style="font-size:12px;font-style:normal;font-variant:normal;font-weight:normal;font-stretch:normal;line-height:125%;letter-spacing:0px;word-spacing:0px;fill:#000000;fill-opacity:1;stroke:none;font-family:Arial;-inkscape-font-specification:Arial"
       x="26.472515"
       y="416.85437"
       id="text3602-0"
       sodipodi:linespacing="125%"
       transform="matrix(0.90317154,-0.42927983,0.42927983,0.90317154,0,0)"><tspan
         sodipodi:role="line"
         id="tspan3604-4"
         x="26.472515"
         y="416.85437">x(t)</tspan></text>
    <text
       xml:space="preserve"
       style="font-size:12px;font-style:normal;font-variant:normal;font-weight:normal;font-stretch:normal;line-height:125%;letter-spacing:0px;word-spacing:0px;fill:#000000;fill-opacity:1;stroke:none;font-family:Arial;-inkscape-font-specification:Arial"
       x="452.9747"
       y="120.08456"
       id="text3602-06"
       sodipodi:linespacing="125%"
       transform="matrix(0.8136935,0.58129415,-0.58129415,0.8136935,0,0)"><tspan
         sodipodi:role="line"
         id="tspan3604-1"
         x="452.9747"
         y="120.08456">x(t)</tspan></text>
    <text
       xml:space="preserve"
       style="font-size:12px;font-style:normal;font-variant:normal;font-weight:normal;font-stretch:normal;line-height:125%;letter-spacing:0px;word-spacing:0px;fill:#000000;fill-opacity:1;stroke:none;font-family:Arial;-inkscape-font-specification:Arial"
       x="254.83434"
       y="359.79956"
       id="text3602-06-0"
       sodipodi:linespacing="125%"><tspan
         sodipodi:role="line"
         id="tspan3604-1-5"
         x="254.83434"
         y="359.79956">g(t)</tspan></text>
    <path
       sodipodi:type="arc"
       style="fill:none;stroke:#000000;stroke-width:0.5;stroke-linecap:butt;stroke-linejoin:miter;stroke-miterlimit:4;stroke-opacity:1;stroke-dasharray:none"
       id="path5791"
       sodipodi:cx="105.93975"
       sodipodi:cy="69.428749"
       sodipodi:rx="2.1465743"
       sodipodi:ry="2.0203052"
       d="m 108.08632,69.428749 a 2.1465743,2.0203052 0 1 1 -4.29314,0 2.1465743,2.0203052 0 1 1 4.29314,0 z"
       transform="translate(104.64156,384.9976)" />
    <path
       transform="translate(107.29321,303.93286)"
       sodipodi:type="arc"
       style="fill:none;stroke:#000000;stroke-width:0.5;stroke-linecap:butt;stroke-linejoin:miter;stroke-miterlimit:4;stroke-opacity:1;stroke-dasharray:none"
       id="path5791-5"
       sodipodi:cx="105.93975"
       sodipodi:cy="69.428749"
       sodipodi:rx="2.1465743"
       sodipodi:ry="2.0203052"
       d="m 108.08632,69.428749 a 2.1465743,2.0203052 0 1 1 -4.29314,0 2.1465743,2.0203052 0 1 1 4.29314,0 z" />
    <path
       transform="translate(194.41886,303.42778)"
       sodipodi:type="arc"
       style="fill:none;stroke:#000000;stroke-width:0.5;stroke-linecap:butt;stroke-linejoin:miter;stroke-miterlimit:4;stroke-opacity:1;stroke-dasharray:none"
       id="path5791-2"
       sodipodi:cx="105.93975"
       sodipodi:cy="69.428749"
       sodipodi:rx="2.1465743"
       sodipodi:ry="2.0203052"
       d="m 108.08632,69.428749 a 2.1465743,2.0203052 0 1 1 -4.29314,0 2.1465743,2.0203052 0 1 1 4.29314,0 z" />
  </g>
</svg>
