<?xml version="1.0" encoding="UTF-8" standalone="no"?>
<!-- Created with Inkscape (http://www.inkscape.org/) -->

<svg
   xmlns:dc="http://purl.org/dc/elements/1.1/"
   xmlns:cc="http://creativecommons.org/ns#"
   xmlns:rdf="http://www.w3.org/1999/02/22-rdf-syntax-ns#"
   xmlns:svg="http://www.w3.org/2000/svg"
   xmlns="http://www.w3.org/2000/svg"
   xmlns:sodipodi="http://sodipodi.sourceforge.net/DTD/sodipodi-0.dtd"
   xmlns:inkscape="http://www.inkscape.org/namespaces/inkscape"
   width="110.46656"
   height="94.951637"
   id="svg3465"
   version="1.1"
   inkscape:version="0.48.1 "
   sodipodi:docname="A27RoFire.svg">
  <defs
     id="defs3467" />
  <sodipodi:namedview
     id="base"
     pagecolor="#ffffff"
     bordercolor="#666666"
     borderopacity="1.0"
     inkscape:pageopacity="0.0"
     inkscape:pageshadow="2"
     inkscape:zoom="5.6"
     inkscape:cx="-1.0443029"
     inkscape:cy="64.094881"
     inkscape:document-units="px"
     inkscape:current-layer="layer1"
     showgrid="false"
     inkscape:window-width="1920"
     inkscape:window-height="1178"
     inkscape:window-x="1358"
     inkscape:window-y="-8"
     inkscape:window-maximized="1"
     fit-margin-top="0"
     fit-margin-left="0"
     fit-margin-right="0"
     fit-margin-bottom="0" />
  <metadata
     id="metadata3470">
    <rdf:RDF>
      <cc:Work
         rdf:about="">
        <dc:format>image/svg+xml</dc:format>
        <dc:type
           rdf:resource="http://purl.org/dc/dcmitype/StillImage" />
        <dc:title />
      </cc:Work>
    </rdf:RDF>
  </metadata>
  <g
     inkscape:label="Layer 1"
     inkscape:groupmode="layer"
     id="layer1"
     transform="translate(-398.35015,-288.03101)">
    <path
       style="fill:none;stroke:#000000;stroke-width:1;stroke-linecap:round;stroke-linejoin:round"
       d="m 492.55457,377.76389 c 1.22385,-0.0321 2.86426,-1.12058 4.15998,-1.70056 2.56101,-1.07038 4.33468,-3.65524 5.41602,-5.93144 -1.50039,0.36415 -3.70516,1.47409 -5.04,1.584 1.75542,-0.44789 4.16735,-0.75451 5.472,-1.44 -0.17171,1.55947 -0.43933,3.7142 0.288,5.25598 l 0.144,0.072"
       id="polyline56"
       inkscape:connector-curvature="0" />
    <path
       style="fill:none;stroke:#ff3620;stroke-width:1;stroke-linecap:round;stroke-linejoin:round;stroke-opacity:1"
       d="m 507.59298,348.15274 c -0.20549,-3.67326 -1.90973,-5.44134 -0.54954,-11.27015 1.50891,-3.5974 0.50121,-6.53354 1.21913,-9.79244 0.41133,-3.59468 -1.40003,-6.81235 -1.31363,-10.42207 -0.41784,-5.66794 -1.2889,-9.11523 -1.15646,-14.83462 -0.46351,-3.57224 -1.25823,-6.09607 -1.44433,-8.07835"
       id="polyline60"
       inkscape:connector-curvature="0"
       sodipodi:nodetypes="cccccc" />
    <path
       style="fill:none;stroke:#e6b33b;stroke-width:1;stroke-linecap:round;stroke-linejoin:round;stroke-opacity:1"
       d="m 504.20315,297.25717 c -0.002,2.06443 -1.82427,-5.03123 -2.74626,-0.7038 -1.42183,7.45741 0.28234,19.65827 -0.67233,25.38536 0.0751,3.56757 -1.90719,4.92305 -2.48561,1.67373 -0.83052,-3.02782 -1.64116,-6.45653 -3.74398,-7.06137 -1.68299,-0.47374 -2.42459,0.81635 -3.3077,4.39523 -0.52235,3.31464 -0.21166,7.14861 -1.89081,10.27682 -1.76132,-2.75993 -1.76757,-8.0505 -3.49361,-9.69607 -2.18991,-0.47947 -0.38267,7.43422 -5.37208,11.40937 -6.66594,-3.96729 -1.92188,-16.12314 -4.76327,-20.14986 -3.50275,-2.57819 -4.20245,15.53705 -7.6422,15.97759 -2.81239,-5.63875 -2.95182,5.09562 -4.77176,-1.81537 -4.67447,-13.39398 -3.85267,-0.46604 -4.3744,1.53921 -0.71678,1.36724 -0.47953,2.81098 -4.31373,5.20375 -4.34713,1.381 -5.31936,0.80907 -8.94823,-2.87545 -2.13157,-3.37099 -1.1278,-8.75653 -3.80633,-11.16232 -4.10923,-1.50593 -3.7386,14.09903 -4.82509,15.20442 -2.00597,1.04915 -4.17031,-8.26283 -6.60842,-8.23383 -1.85028,6.52893 -3.15373,9.89214 -4.82871,4.06474 -1.08838,-7.0962 -1.42811,-12.11835 -2.9382,-19.42972 -1.21058,-6.61113 -4.57646,-5.71865 -5.53427,-0.7866 -0.87498,3.42421 -0.0935,2.31526 -1.30944,8.47504 -1.33999,7.02233 -3.65758,0.37531 -4.45057,0.32131 -1.65555,3.77883 -3.26035,2.58476 -2.89558,-0.7146 0.0299,-1.88729 0.28723,-4.01942 -0.072,-5.61601 -0.0583,-1.45869 -0.4968,-2.87873 -1.51201,-3.88799 -1.35835,-0.45951 -2.46503,0.42575 -3.45599,1.368 -1.26452,1.30651 -2.85466,2.81279 -2.66404,6.58799 -2.21349,5.81253 0.5493,12.55234 -1.4613,16.6557 0.0374,2.45099 0.0163,4.94298 0.0213,7.41043 0.0422,4.02645 -0.0904,8.06532 0.0779,12.08281 1.04807,3.9932 -1.23335,8.87867 -0.36586,13.13507"
       id="polyline72"
       inkscape:connector-curvature="0"
       sodipodi:nodetypes="cccccccccccccccccccccccccccccccc" />
    <text
       xml:space="preserve"
       style="font-size:12px;font-style:normal;font-variant:normal;font-weight:normal;font-stretch:normal;line-height:125%;letter-spacing:0px;word-spacing:0px;fill:#000000;fill-opacity:1;stroke:none;font-family:Arial;-inkscape-font-specification:Arial"
       x="482.81546"
       y="382.62531"
       id="text3518"
       sodipodi:linespacing="125%"><tspan
         sodipodi:role="line"
         id="tspan3520"
         x="482.81546"
         y="382.62531">x</tspan></text>
    <path
       sodipodi:type="arc"
       style="opacity:0.06637166000000000;fill:#aa4400;stroke:#7f7958;stroke-width:1.50000000000000000;stroke-miterlimit:4;stroke-opacity:1;stroke-dasharray:none"
       id="path3524"
       sodipodi:cx="8.8392859"
       sodipodi:cy="72.535393"
       sodipodi:rx="0.26785713"
       sodipodi:ry="4.1964288"
       d="m 9.107143,72.535393 c 0,0.0024 -2e-7,0.0049 -4e-7,0.0073 l -0.2678567,-0.0073 z"
       transform="translate(393.35118,289.10777)"
       sodipodi:start="0"
       sodipodi:end="0.0017477826" />
    <g
       id="g4361"
       transform="translate(-9.1071429,70.714286)">
      <path
         sodipodi:open="true"
         sodipodi:end="6.3822354"
         sodipodi:start="3.103024"
         transform="matrix(2.1021003,-0.37483007,0.41507981,2.2121975,316.83023,304.05257)"
         d="m 43.054635,4.4181841 c -0.541897,-5.22309354 10.403091,-9.6206341 24.446313,-9.8221817 14.043223,-0.2015477 25.866799,3.8692196 26.408696,9.0923132 0.04503,0.4340027 0.0097,0.8686436 -0.105801,1.3008405"
         sodipodi:ry="9.4642859"
         sodipodi:rx="25.446428"
         sodipodi:cy="4.0532498"
         sodipodi:cx="68.48214"
         id="path4316"
         style="fill:none;stroke:#faa151;stroke-width:1.19822085000000000;stroke-linecap:butt;stroke-linejoin:miter;stroke-miterlimit:4;stroke-opacity:0.35978836;stroke-dasharray:none"
         sodipodi:type="arc" />
      <path
         sodipodi:open="true"
         sodipodi:end="6.3822354"
         sodipodi:start="3.103024"
         transform="matrix(-2.1021003,0.37483007,-0.41507981,-2.2121975,608.09467,271.19296)"
         d="m 43.054635,4.4181841 c -0.541897,-5.22309354 10.403091,-9.6206341 24.446313,-9.8221817 14.043223,-0.2015477 25.866799,3.8692196 26.408696,9.0923132 0.04503,0.4340027 0.0097,0.8686436 -0.105801,1.3008405"
         sodipodi:ry="9.4642859"
         sodipodi:rx="25.446428"
         sodipodi:cy="4.0532498"
         sodipodi:cx="68.48214"
         id="path4316-4"
         style="fill:none;stroke:#842a2a;stroke-width:1.19822085000000000;stroke-linecap:butt;stroke-linejoin:miter;stroke-miterlimit:4;stroke-opacity:1;stroke-dasharray:none"
         sodipodi:type="arc" />
    </g>
    <path
       style="fill:none;stroke:#e50000;stroke-width:1;stroke-linecap:round;stroke-linejoin:round;stroke-opacity:1"
       d="m 409.30006,317.99742 c 1.08907,-3.07038 3.60874,-5.99387 3.8122,-9.30155 0.16496,-1.23614 -0.45821,-3.40741 0.0403,-4.683 0.67447,-0.79201 1.52229,-7.27499 2.38471,-7.96356 1.11427,-1.01852 2.1704,-2.81681 3.888,-2.304 0.79676,-0.42139 1.48128,0.87656 2.59199,0.79199 1.25914,0.76087 2.50207,1.82453 2.73601,3.45601 0.6121,3.92133 1.62524,7.04534 3.23976,10.43908 0.37632,1.75847 1.49357,3.30038 5.22024,4.71692 5.30429,-1.26691 5.75902,-2.82299 5.28328,-6.00901 0.20869,-1.07977 2.17955,-5.56776 3.21129,-6.00213 3.15586,-0.87324 4.36611,2.62183 6.30143,4.41514 1.09148,1.59356 3.40417,1.04751 3.384,4.968 0.92199,16.17657 6.42269,11.95888 8.59637,0.70825 0.83932,-1.25113 1.43117,-2.24426 1.46375,-4.99172 0.46748,-2.12159 2.83979,0.20487 3.64873,-2.38368 1.89303,-3.59692 0.11767,-6.29219 1.98715,-6.50886 2.84373,1.58498 1.3674,-2.6635 2.59199,-2.51999 2.35472,0.0319 3.85744,2.25991 4.392,4.24799 1.62261,3.43706 1.16663,7.93126 3.46424,10.62175 0.87985,1.4417 4.39244,-1.98271 5.91781,-2.3869 3.46133,-0.80529 4.02084,11.17698 5.11399,8.37285 1.2612,-1.85281 4.38224,-15.78194 5.51995,-17.68769 0.87429,-1.56104 1.22916,-5.80846 2.77041,-6.70139 1.43169,-0.17322 2.44486,-2.85892 4.4977,-2.74655 1.16605,-0.53811 2.06163,5.12493 2.88392,5.12793 0.0873,0.9265 0.26407,2.03204 0,2.80799"
       id="polyline72-0"
       inkscape:connector-curvature="0"
       sodipodi:nodetypes="ccccccccccccccccccccccccccc" />
  </g>
</svg>
