<?xml version="1.0" encoding="UTF-8" standalone="no"?>
<!-- Created with Inkscape (http://www.inkscape.org/) -->

<svg
   xmlns:dc="http://purl.org/dc/elements/1.1/"
   xmlns:cc="http://creativecommons.org/ns#"
   xmlns:rdf="http://www.w3.org/1999/02/22-rdf-syntax-ns#"
   xmlns:svg="http://www.w3.org/2000/svg"
   xmlns="http://www.w3.org/2000/svg"
   xmlns:sodipodi="http://sodipodi.sourceforge.net/DTD/sodipodi-0.dtd"
   xmlns:inkscape="http://www.inkscape.org/namespaces/inkscape"
   width="191.43712"
   height="184.45357"
   id="svg3245"
   version="1.1"
   inkscape:version="0.48.1 "
   sodipodi:docname="A27traj.svg">
  <defs
     id="defs3247" />
  <sodipodi:namedview
     id="base"
     pagecolor="#ffffff"
     bordercolor="#666666"
     borderopacity="1.0"
     inkscape:pageopacity="0.0"
     inkscape:pageshadow="2"
     inkscape:zoom="2.8"
     inkscape:cx="94.278985"
     inkscape:cy="84.079046"
     inkscape:document-units="px"
     inkscape:current-layer="layer1"
     showgrid="false"
     fit-margin-top="0"
     fit-margin-left="0"
     fit-margin-right="0"
     fit-margin-bottom="0"
     inkscape:window-width="1132"
     inkscape:window-height="1028"
     inkscape:window-x="1988"
     inkscape:window-y="68"
     inkscape:window-maximized="0" />
  <metadata
     id="metadata3250">
    <rdf:RDF>
      <cc:Work
         rdf:about="">
        <dc:format>image/svg+xml</dc:format>
        <dc:type
           rdf:resource="http://purl.org/dc/dcmitype/StillImage" />
        <dc:title />
      </cc:Work>
    </rdf:RDF>
  </metadata>
  <g
     inkscape:label="Layer 1"
     inkscape:groupmode="layer"
     id="layer1"
     transform="translate(-190.09303,-331.42143)">
    <path
       style="fill:none;stroke:#000000;stroke-width:1"
       d="m 254.82101,333.73949 c -1.7545,34.70539 -0.2834,72.36766 0.35717,107.30951"
       id="path78"
       inkscape:connector-curvature="0"
       sodipodi:nodetypes="cc" />
    <path
       style="fill:none;stroke:#000000;stroke-width:1"
       d="m 253.15434,444.23952 c 7.96926,-10.75 0.97269,11.22987 -0.14126,-2.364 l 0.55793,-0.38601"
       id="path80"
       inkscape:connector-curvature="0" />
    <path
       style="fill:none;stroke:#000000;stroke-width:1"
       d="m 253.89244,445.65614 c -21.32143,14.81734 -41.41872,37.52439 -62.7381,53.16669"
       id="path82"
       inkscape:connector-curvature="0"
       sodipodi:nodetypes="cc" />
    <path
       style="fill:none;stroke:#000000;stroke-width:1"
       d="m 257.17815,445.07283 c 15.71582,6.81704 43.97208,17.80622 62.7262,27.33331 17.29968,6.37591 34.56102,14.0799 51.08336,21.5"
       id="path84"
       inkscape:connector-curvature="0"
       sodipodi:nodetypes="ccc" />
    <path
       style="fill:none;stroke:#000000;stroke-width:1"
       d="m 250.66625,346.29903 c 6.1298,-17.23229 0.95222,-20.38431 8.30952,0.11903"
       id="path86"
       inkscape:connector-curvature="0"
       sodipodi:nodetypes="cc" />
    <path
       style="fill:none;stroke:#000000;stroke-width:1"
       d="m 190.40434,500.73952 c 0.8552,-0.63909 12.52621,-14.46329 8,-10.41669"
       id="path88"
       inkscape:connector-curvature="0" />
    <path
       style="fill:none;stroke:#000000;stroke-width:1"
       d="m 190.98768,499.73952 c 4.45914,-3.02452 9.29452,-6.11163 14.75,-6.83338"
       id="path90"
       inkscape:connector-curvature="0" />
    <path
       style="fill:none;stroke:#000000;stroke-width:1"
       d="m 353.90435,491.65614 c 5.69061,-0.27595 11.20549,1.51545 16.66666,2.83338"
       id="path92"
       inkscape:connector-curvature="0" />
    <path
       style="fill:none;stroke:#000000;stroke-width:1"
       d="m 358.15435,483.57283 c 2.77335,5.47328 8.14034,7.31106 12.5,10.91669"
       id="path94"
       inkscape:connector-curvature="0" />
    <path
       style="fill:none;stroke:#000000;stroke-width:1"
       d="m 234.32101,431.82283 c 6.29677,-5.07153 -3.24262,3.3302 2.51831,-1.55508 -3.99428,3.23392 -0.52611,2.39681 -0.68498,1.05508"
       id="path96"
       inkscape:connector-curvature="0" />
    <path
       style="fill:none;stroke:#0000ca;stroke-width:2;stroke-opacity:1;stroke-miterlimit:4;stroke-dasharray:none"
       d="m 236.32101,432.32283 c 42.80769,19.08534 71.26761,-22.12322 51.45635,-25.93424 -13.09284,-0.0196 -9.15064,15.00331 -3.03968,18.26755"
       id="path98"
       inkscape:connector-curvature="0"
       sodipodi:nodetypes="ccc" />
    <path
       style="fill:none;stroke:#0000c2;stroke-width:2;stroke-miterlimit:4;stroke-opacity:1;stroke-dasharray:none"
       d="m 287.97577,428.10854 c 31.63437,12.60694 48.89598,-34.40195 51.01775,-47.99686"
       id="path100"
       inkscape:connector-curvature="0"
       sodipodi:nodetypes="cc" />
    <g
       id="g3063"
       transform="translate(-18.214286,-2.8571429)">
      <path
         inkscape:connector-curvature="0"
         id="path110"
         d="m 348.65435,369.32283 c 3.16688,-15.566 5.1974,17.05113 8.22226,-2.38452 0.69808,2.33737 -0.0282,7.69165 3.1944,7.88452"
         style="fill:none;stroke:#000000;stroke-width:1" />
      <path
         inkscape:connector-curvature="0"
         id="path112"
         d="m 367.32101,364.57283 c -4.72709,0.39932 -2.7283,8.6081 1.08334,9.08334"
         style="fill:none;stroke:#000000;stroke-width:1" />
      <path
         inkscape:connector-curvature="0"
         id="path114"
         d="m 372.23767,365.15617 c 0.0721,1.76403 -1.35197,7.52321 1.83334,7.16666"
         style="fill:none;stroke:#000000;stroke-width:1" />
      <path
         inkscape:connector-curvature="0"
         id="path116"
         d="m 368.48767,369.15617 c 1.2029,-0.29579 5.98069,-1.79579 7.16668,-2.25"
         style="fill:none;stroke:#000000;stroke-width:1" />
      <path
         inkscape:connector-curvature="0"
         id="path118"
         d="m 377.32101,361.90617 c 4.38438,3.638 5.2069,11.27137 0.66666,15.16666"
         style="fill:none;stroke:#000000;stroke-width:1" />
    </g>
    <g
       id="g3018"
       transform="translate(2.1428571,-15.357143)">
      <path
         sodipodi:nodetypes="ccc"
         inkscape:connector-curvature="0"
         id="path238-17"
         d="m 270.07519,351.50056 c -9.97715,5.21812 -3.64481,10.02414 2.27369,8.17897 -0.32024,-7.10771 -0.53488,-11.3563 -8.63261,-11.11361"
         style="fill:none;stroke:#000000;stroke-width:1" />
      <path
         sodipodi:nodetypes="ccc"
         inkscape:connector-curvature="0"
         id="path240-4"
         d="m 274.85038,357.09637 c 4.35111,-3.1049 7.7638,1.98611 2.56987,3.23683 3.86409,0.27729 3.86997,6.23913 -2.96041,5.68104"
         style="fill:none;stroke:#000000;stroke-width:1" />
    </g>
    <g
       id="g3031"
       transform="translate(9.2857143,49.285714)">
      <path
         sodipodi:nodetypes="ccc"
         inkscape:connector-curvature="0"
         id="path238"
         d="m 341.16945,448.3241 c -9.97715,5.21812 -3.64481,10.02414 2.27369,8.17897 -0.32024,-7.10771 -0.53488,-11.3563 -8.63261,-11.11361"
         style="fill:none;stroke:#000000;stroke-width:1" />
      <path
         sodipodi:nodetypes="ccc"
         inkscape:connector-curvature="0"
         id="path240"
         d="m 345.94464,453.91991 c 6.13682,-3.64061 4.90666,4.12897 0.96273,7.87969 3.50694,-0.79414 2.4414,1.4177 7.03959,-0.56896"
         style="fill:none;stroke:#000000;stroke-width:1" />
    </g>
    <g
       id="g3044"
       transform="translate(-45.714286,13.571429)">
      <path
         sodipodi:nodetypes="ccc"
         inkscape:connector-curvature="0"
         id="path238-1"
         d="m 255.62445,487.14454 c -9.97715,5.21812 -3.64481,10.02414 2.27369,8.17897 -0.32024,-7.10771 -0.53488,-11.3563 -8.63261,-11.11361"
         style="fill:none;stroke:#000000;stroke-width:1" />
      <path
         sodipodi:nodetypes="cc"
         inkscape:connector-curvature="0"
         id="path240-5"
         d="m 259.89456,492.109 c 6.13682,-3.64061 1.24486,-3.57344 2.47796,6.86954"
         style="fill:none;stroke:#000000;stroke-width:1" />
    </g>
    <g
       id="g3106"
       transform="translate(-137.32719,119.46068)">
      <path
         sodipodi:nodetypes="ccc"
         inkscape:connector-curvature="0"
         id="path332-1"
         d="m 340.77385,305.09883 c 0.0126,-11.37395 4.60533,18.4248 6.40262,-3.53909 -0.13874,3.01654 -0.94481,7.95515 2.51404,9.45578"
         style="fill:none;stroke:#000000;stroke-width:1" />
      <path
         inkscape:connector-curvature="0"
         id="path334-7"
         d="m 354.77385,301.93214 c -2.33749,2.13423 -3.23925,11.13947 2.16666,8.66669"
         style="fill:none;stroke:#000000;stroke-width:1" />
      <path
         inkscape:connector-curvature="0"
         id="path340-9"
         d="m 364.94051,298.84883 c 4.98678,3.33629 1.71622,9.97003 0.75,14.41669"
         style="fill:none;stroke:#000000;stroke-width:1" />
      <path
         sodipodi:nodetypes="cc"
         inkscape:connector-curvature="0"
         id="path250-4"
         d="m 356.82275,307.91838 c 13.86482,6.89947 3.51986,-13.69679 0.0909,-0.25508"
         style="fill:none;stroke:#000000;stroke-width:1" />
    </g>
    <path
       style="fill:none;stroke:#000000;stroke-width:1"
       d="m 331.10805,390.54176 c 11.31063,-13.72679 7.08431,-17.3577 9.44505,2.1905"
       id="path86-4"
       inkscape:connector-curvature="0"
       sodipodi:nodetypes="cc" />
  </g>
</svg>
