<?xml version="1.0" encoding="UTF-8" standalone="no"?>
<!-- Created with Inkscape (http://www.inkscape.org/) -->

<svg
   xmlns:dc="http://purl.org/dc/elements/1.1/"
   xmlns:cc="http://creativecommons.org/ns#"
   xmlns:rdf="http://www.w3.org/1999/02/22-rdf-syntax-ns#"
   xmlns:svg="http://www.w3.org/2000/svg"
   xmlns="http://www.w3.org/2000/svg"
   xmlns:sodipodi="http://sodipodi.sourceforge.net/DTD/sodipodi-0.dtd"
   xmlns:inkscape="http://www.inkscape.org/namespaces/inkscape"
   width="190.98682"
   height="192.24724"
   id="svg3515"
   version="1.1"
   inkscape:version="0.48.1 "
   sodipodi:docname="A27wurst.svg">
  <defs
     id="defs3517" />
  <sodipodi:namedview
     id="base"
     pagecolor="#ffffff"
     bordercolor="#666666"
     borderopacity="1.0"
     inkscape:pageopacity="0.0"
     inkscape:pageshadow="2"
     inkscape:zoom="5.6"
     inkscape:cx="64.18673"
     inkscape:cy="65.468566"
     inkscape:document-units="px"
     inkscape:current-layer="layer1"
     showgrid="false"
     inkscape:window-width="1305"
     inkscape:window-height="1131"
     inkscape:window-x="1724"
     inkscape:window-y="31"
     inkscape:window-maximized="0"
     fit-margin-top="0"
     fit-margin-left="0"
     fit-margin-right="0"
     fit-margin-bottom="0" />
  <metadata
     id="metadata3520">
    <rdf:RDF>
      <cc:Work
         rdf:about="">
        <dc:format>image/svg+xml</dc:format>
        <dc:type
           rdf:resource="http://purl.org/dc/dcmitype/StillImage" />
        <dc:title />
      </cc:Work>
    </rdf:RDF>
  </metadata>
  <g
     inkscape:label="Layer 1"
     inkscape:groupmode="layer"
     id="layer1"
     transform="translate(-344.35694,-213.5625)">
    <path
       style="fill:none;stroke:#000000;stroke-width:1"
       d="m 411.26697,219.0788 c 0.79386,6.73266 0.24258,18.12597 -0.25,22.33331"
       id="path220"
       inkscape:connector-curvature="0" />
    <path
       style="fill:none;stroke:#000000;stroke-width:1"
       d="m 410.59015,216.31357 c -8.8164,16.16507 0.0558,-10.84555 4.08333,6.25"
       id="path222"
       inkscape:connector-curvature="0" />
    <path
       style="fill:none;stroke:#000000;stroke-width:1"
       d="m 408.63076,329.03819 c 7.2158,-8.02754 4.98575,9.06264 0.91667,-0.83338"
       id="path224"
       inkscape:connector-curvature="0" />
    <path
       style="fill:none;stroke:#000000;stroke-width:1"
       d="m 408.88076,331.1215 c -18.42812,13.16726 -57.72245,45.65516 -63.98357,47.42613 -0.60401,4.29002 8.81575,-13.42827 5.90024,-7.00944"
       id="path226"
       inkscape:connector-curvature="0" />
    <path
       style="fill:none;stroke:#000000;stroke-width:1"
       d="m 345.20901,378.90912 c -3.12566,-0.45502 15.06294,-5.2951 13.75508,-3.28763"
       id="path228"
       inkscape:connector-curvature="0"
       sodipodi:nodetypes="cc" />
    <path
       style="fill:none;stroke:#000000;stroke-width:1"
       d="m 412.71409,330.78819 c 36.98453,20.72378 78.51392,33.28163 116.41666,52.33331"
       id="path234"
       inkscape:connector-curvature="0" />
    <path
       style="fill:none;stroke:#000000;stroke-width:1"
       d="m 520.71409,375.70481 c 13.24635,15.30895 5.79763,1.8145 -7.41668,6.00001"
       id="path236"
       inkscape:connector-curvature="0" />
    <path
       style="fill:none;stroke:#000000;stroke-width:1"
       d="m 520.20667,389.61896 c -9.97715,5.21812 -3.64481,10.02414 2.27369,8.17897 -0.32024,-7.10771 -0.53488,-11.3563 -8.63261,-11.11361"
       id="path238"
       inkscape:connector-curvature="0"
       sodipodi:nodetypes="ccc" />
    <path
       style="fill:none;stroke:#000000;stroke-width:1"
       d="m 524.98186,395.21477 c 6.13682,-3.64061 4.90666,4.12897 0.96273,7.87969 3.50694,-0.79414 2.4414,1.4177 7.03959,-0.56896"
       id="path240"
       inkscape:connector-curvature="0"
       sodipodi:nodetypes="ccc" />
    <path
       style="fill:none;stroke:#000000;stroke-width:1"
       d="m 392.5929,307.54073 c -1.54677,8.96124 6.53265,-0.84462 0.22737,-0.78807"
       id="path242"
       inkscape:connector-curvature="0"
       sodipodi:nodetypes="cc" />
    <path
       style="fill:none;stroke:#000000;stroke-width:1"
       d="m 395.46409,308.1215 c 13.38226,-16.13429 -5.25471,-34.02458 -11.9839,-14.31658 -1.18255,7.01853 4.41048,12.70289 9.17341,14.49088"
       id="path244"
       inkscape:connector-curvature="0"
       sodipodi:nodetypes="ccc" />
    <path
       style="fill:none;stroke:#000000;stroke-width:1"
       d="m 394.88076,308.95481 c 20.35563,-7.36097 74.64952,-5.5657 61.85311,-33.98287 -12.34569,-25.79004 -36.67877,-4.42668 -28.60311,14.48287"
       id="path254"
       inkscape:connector-curvature="0"
       sodipodi:nodetypes="ccc" />
    <path
       style="fill:none;stroke:#000000;stroke-width:1"
       d="m 391.38076,285.1215 c 11.30172,-7.46108 26.68456,3.87378 38.5,5.33331"
       id="path256"
       inkscape:connector-curvature="0" />
    <path
       style="fill:none;stroke:#000000;stroke-width:1"
       d="m 426.29743,288.03819 c 7.81192,3.33205 28.13209,-3.78052 17.08333,-13.16669"
       id="path258"
       inkscape:connector-curvature="0" />
    <path
       style="fill:none;stroke:#000000;stroke-width:1"
       d="m 445.29742,276.28819 c -13.49149,-11.86192 -9.49606,7.46629 -7.66666,13.33331"
       id="path262"
       inkscape:connector-curvature="0" />
    <path
       style="fill:none;stroke:#000000;stroke-width:1"
       d="m 428.71409,294.28819 0.83334,2.08331"
       id="path264"
       inkscape:connector-curvature="0" />
    <path
       style="fill:none;stroke:#000000;stroke-width:1"
       d="m 430.79743,299.3715 c 0.21185,0.25828 0.98962,1.64716 1.16666,2.08331"
       id="path266"
       inkscape:connector-curvature="0" />
    <path
       style="fill:none;stroke:#000000;stroke-width:1"
       d="m 440.04743,291.95481 1.5,3.41669"
       id="path268"
       inkscape:connector-curvature="0" />
    <path
       style="fill:none;stroke:#000000;stroke-width:1"
       d="m 442.88076,297.95481 c 24.53183,12.13817 43.56627,-13.00652 42.08333,-37.25"
       id="path270"
       inkscape:connector-curvature="0" />
    <path
       style="fill:none;stroke:#000000;stroke-width:1"
       d="m 432.46409,302.26027 c 16.8484,12.9621 52.17787,16.51494 70.67044,-0.43329 29.99059,-13.61282 0.63462,-61.61123 -18.72911,-40.61271 l 0.34566,2.07325 1.29633,1.25067"
       id="path272"
       inkscape:connector-curvature="0"
       sodipodi:nodetypes="ccccc" />
    <path
       style="fill:none;stroke:#000000;stroke-width:1"
       d="m 491.38075,265.20481 c 0.25289,1.20826 0.37675,2.74976 1.66666,3.33338"
       id="path274"
       inkscape:connector-curvature="0" />
    <path
       style="fill:none;stroke:#000000;stroke-width:1"
       d="m 495.46409,271.3715 c 0.57974,1.45962 2.95786,1.20799 3,3"
       id="path276"
       inkscape:connector-curvature="0" />
    <path
       style="fill:none;stroke:#000000;stroke-width:1"
       d="m 502.96409,276.78819 c 0.90626,-0.0277 4.18404,0.69446 4.91666,1.08331"
       id="path278"
       inkscape:connector-curvature="0" />
    <path
       style="fill:none;stroke:#000000;stroke-width:1"
       d="m 510.38075,278.45481 c 4.52481,0.0506 -0.22997,1.20812 4.15609,-0.23985"
       id="path280"
       inkscape:connector-curvature="0"
       sodipodi:nodetypes="cc" />
    <path
       style="fill:none;stroke:#000000;stroke-width:1"
       d="m 503.96409,263.78819 c 2.44648,-1.38371 2.64921,5.23569 4.58332,4.5"
       id="path282"
       inkscape:connector-curvature="0" />
    <path
       style="fill:none;stroke:#000000;stroke-width:1"
       d="m 502.29741,268.6215 c 2.38386,-0.76804 3.06617,3.15954 4.25,4"
       id="path284"
       inkscape:connector-curvature="0" />
    <path
       style="fill:none;stroke:#000000;stroke-width:1"
       d="m 501.38075,274.53819 3.5,4.5"
       id="path286"
       inkscape:connector-curvature="0" />
    <path
       style="fill:none;stroke:#000000;stroke-width:1"
       d="m 497.96409,282.20481 c -0.80025,-4.12619 4.29136,7.52395 3.41666,4.58338"
       id="path288"
       inkscape:connector-curvature="0" />
    <path
       style="fill:none;stroke:#000000;stroke-width:1"
       d="m 494.88075,289.20481 c 0.4098,0.89863 2.90455,2.25561 1.91666,3.66669"
       id="path290"
       inkscape:connector-curvature="0" />
    <path
       style="fill:none;stroke:#000000;stroke-width:1"
       d="m 399.83021,307.13419 c 2.38493,-2.29794 3.46788,-5.28714 4.83334,-8.08331"
       id="path292"
       inkscape:connector-curvature="0" />
    <path
       style="fill:none;stroke:#000000;stroke-width:1"
       d="m 409.46409,305.28819 c 0.69573,-1.26799 3.80684,-6.37911 4.66667,-7.66669"
       id="path294"
       inkscape:connector-curvature="0" />
    <path
       style="fill:none;stroke:#000000;stroke-width:1"
       d="m 417.91862,303.50031 c 0.84287,-0.96244 4.06509,-4.85131 4.83333,-5.83331"
       id="path296"
       inkscape:connector-curvature="0" />
    <path
       style="fill:none;stroke:#000000;stroke-width:1"
       d="m 428.96663,302.15177 c 0.54435,-1.19878 2.82213,-5.86545 3.41667,-7"
       id="path298"
       inkscape:connector-curvature="0" />
    <path
       style="fill:none;stroke:#000000;stroke-width:1"
       d="m 446.54742,294.6215 c -3.58121,-4.2289 3.06626,-5.39431 1.9167,-1.58332"
       id="path300"
       inkscape:connector-curvature="0" />
    <path
       style="fill:none;stroke:#000000;stroke-width:1"
       d="m 453.38075,283.70481 c 0.47602,0.11592 2.14269,1.39371 2.5,1.91669"
       id="path302"
       inkscape:connector-curvature="0" />
    <path
       style="fill:none;stroke:#000000;stroke-width:1"
       d="m 435.16608,269.49015 c 0.0911,1.2625 0.33262,3.93583 2.41666,3.08331"
       id="path304"
       inkscape:connector-curvature="0" />
    <path
       style="fill:none;stroke:#000000;stroke-width:1"
       d="m 442.04743,267.6215 -0.25,5.5"
       id="path306"
       inkscape:connector-curvature="0" />
    <path
       style="fill:none;stroke:#000000;stroke-width:1"
       d="m 442.14091,307.56839 3.74999,-2.83331"
       id="path308"
       inkscape:connector-curvature="0" />
    <path
       style="fill:none;stroke:#000000;stroke-width:1"
       d="m 448.50702,309.7755 c 2.7813,-1.24906 6.11385,-1.26651 8.25,-4.08338"
       id="path310"
       inkscape:connector-curvature="0" />
    <path
       style="fill:none;stroke:#000000;stroke-width:1"
       d="m 461.54741,313.8715 c 1.11348,-0.84712 4.66904,-4.62491 5.33334,-5.66669"
       id="path312"
       inkscape:connector-curvature="0" />
    <path
       style="fill:none;stroke:#000000;stroke-width:1"
       d="m 472.88075,313.20481 3.16666,-5.5"
       id="path314"
       inkscape:connector-curvature="0" />
    <path
       style="fill:none;stroke:#000000;stroke-width:1"
       d="m 484.04741,311.70481 c 0.48302,-0.96948 2.03858,-4.74722 2.33334,-5.66662"
       id="path316"
       inkscape:connector-curvature="0" />
    <path
       style="fill:none;stroke:#000000;stroke-width:1"
       d="m 495.13075,306.95481 c 0.21129,-1.17219 1.65573,-5.61661 2.16666,-6.66662"
       id="path318"
       inkscape:connector-curvature="0" />
    <path
       style="fill:none;stroke:#000000;stroke-width:1"
       d="m 505.88075,300.03819 -1.33334,-5"
       id="path320"
       inkscape:connector-curvature="0" />
    <path
       style="fill:none;stroke:#000000;stroke-width:1"
       d="m 510.38075,292.53819 -0.16666,-6.25"
       id="path322"
       inkscape:connector-curvature="0" />
    <path
       style="fill:none;stroke:#000000;stroke-width:1"
       d="m 514.54741,285.45481 -0.33332,-4.75"
       id="path324"
       inkscape:connector-curvature="0" />
    <path
       style="fill:none;stroke:#000000;stroke-width:1"
       d="m 499.12821,253.13419 c -6.92483,11.58123 8.18905,-0.86814 -2.16666,1.33331"
       id="path330"
       inkscape:connector-curvature="0" />
    <g
       id="g3112"
       transform="translate(-4.0406102,1.0101525)">
      <path
         sodipodi:nodetypes="ccc"
         inkscape:connector-curvature="0"
         id="path332"
         d="m 506.46409,244.6215 c 0.0126,-11.37395 4.60533,18.4248 6.40262,-3.53909 -0.13874,3.01654 -0.94481,7.95515 2.51404,9.45578"
         style="fill:none;stroke:#000000;stroke-width:1" />
      <path
         inkscape:connector-curvature="0"
         id="path334"
         d="m 520.46409,241.45481 c -2.33749,2.13423 -3.23925,11.13947 2.16666,8.66669"
         style="fill:none;stroke:#000000;stroke-width:1" />
      <path
         inkscape:connector-curvature="0"
         id="path336"
         d="m 525.63075,241.03819 c 0.17026,0.75306 -1.27586,8.87556 2.5,6.75"
         style="fill:none;stroke:#000000;stroke-width:1" />
      <path
         inkscape:connector-curvature="0"
         id="path338"
         d="m 523.04741,245.28819 c 1.68051,-1.66667 4.64547,0.64089 6.16668,-1.58338"
         style="fill:none;stroke:#000000;stroke-width:1" />
      <path
         inkscape:connector-curvature="0"
         id="path340"
         d="m 530.63075,238.3715 c 4.98678,3.33629 1.71622,9.97003 0.75,14.41669"
         style="fill:none;stroke:#000000;stroke-width:1" />
    </g>
    <path
       style="fill:none;stroke:#000000;stroke-width:1"
       d="m 412.17348,240.91211 c -1.08756,11.55496 1.17623,31.51219 0.25,43"
       id="path342"
       inkscape:connector-curvature="0" />
    <path
       style="fill:none;stroke:#000000;stroke-width:1"
       d="m 416.38076,288.70481 c 0.79992,-4.62153 0.34825,2.79113 0.66667,2.83338"
       id="path344"
       inkscape:connector-curvature="0" />
    <path
       style="fill:none;stroke:#000000;stroke-width:1"
       d="m 411.2619,304.86642 c -0.14296,6.96448 0.16402,13.95078 0.41666,20.91669"
       id="path346"
       inkscape:connector-curvature="0" />
    <g
       id="g3106"
       transform="translate(18.94036,8.8388348)">
      <path
         sodipodi:nodetypes="ccc"
         inkscape:connector-curvature="0"
         id="path332-1"
         d="m 340.77385,305.09883 c 0.0126,-11.37395 4.60533,18.4248 6.40262,-3.53909 -0.13874,3.01654 -0.94481,7.95515 2.51404,9.45578"
         style="fill:none;stroke:#000000;stroke-width:1" />
      <path
         inkscape:connector-curvature="0"
         id="path334-7"
         d="m 354.77385,301.93214 c -2.33749,2.13423 -3.23925,11.13947 2.16666,8.66669"
         style="fill:none;stroke:#000000;stroke-width:1" />
      <path
         inkscape:connector-curvature="0"
         id="path340-9"
         d="m 364.94051,298.84883 c 4.98678,3.33629 1.71622,9.97003 0.75,14.41669"
         style="fill:none;stroke:#000000;stroke-width:1" />
      <path
         sodipodi:nodetypes="cc"
         inkscape:connector-curvature="0"
         id="path250-4"
         d="m 356.82275,307.91838 c 13.86482,6.89947 3.51986,-13.69679 0.0909,-0.25508"
         style="fill:none;stroke:#000000;stroke-width:1" />
    </g>
    <path
       style="fill:none;stroke:#000000;stroke-width:1"
       d="m 351.75425,390.42644 c -9.97715,5.21812 -3.64481,10.02414 2.27369,8.17897 -0.32024,-7.10771 -0.53488,-11.3563 -8.63261,-11.11361"
       id="path238-1"
       inkscape:connector-curvature="0"
       sodipodi:nodetypes="ccc" />
    <path
       style="fill:none;stroke:#000000;stroke-width:1"
       d="m 356.02436,395.3909 c 6.13682,-3.64061 1.24486,-3.57344 2.47796,6.86954"
       id="path240-5"
       inkscape:connector-curvature="0"
       sodipodi:nodetypes="cc" />
    <path
       style="fill:none;stroke:#000000;stroke-width:1"
       d="m 430.07622,218.25884 c -9.97715,5.21812 -3.64481,10.02414 2.27369,8.17897 -0.32024,-7.10771 -0.53488,-11.3563 -8.63261,-11.11361"
       id="path238-17"
       inkscape:connector-curvature="0"
       sodipodi:nodetypes="ccc" />
    <path
       style="fill:none;stroke:#000000;stroke-width:1"
       d="m 434.85141,223.85465 c 4.35111,-3.1049 7.7638,1.98611 2.56987,3.23683 3.86409,0.27729 3.86997,6.23913 -2.96041,5.68104"
       id="path240-4"
       inkscape:connector-curvature="0"
       sodipodi:nodetypes="ccc" />
  </g>
</svg>
