<?xml version="1.0" encoding="UTF-8" standalone="no"?>
<!-- Created with Inkscape (http://www.inkscape.org/) -->

<svg
   xmlns:dc="http://purl.org/dc/elements/1.1/"
   xmlns:cc="http://creativecommons.org/ns#"
   xmlns:rdf="http://www.w3.org/1999/02/22-rdf-syntax-ns#"
   xmlns:svg="http://www.w3.org/2000/svg"
   xmlns="http://www.w3.org/2000/svg"
   xmlns:sodipodi="http://sodipodi.sourceforge.net/DTD/sodipodi-0.dtd"
   xmlns:inkscape="http://www.inkscape.org/namespaces/inkscape"
   width="185.34375"
   height="104.10028"
   id="svg3431"
   version="1.1"
   inkscape:version="0.48.1 "
   sodipodi:docname="A28extremum.svg">
  <defs
     id="defs3433" />
  <sodipodi:namedview
     id="base"
     pagecolor="#ffffff"
     bordercolor="#666666"
     borderopacity="1.0"
     inkscape:pageopacity="0.0"
     inkscape:pageshadow="2"
     inkscape:zoom="3.959798"
     inkscape:cx="92.875"
     inkscape:cy="51.950354"
     inkscape:document-units="px"
     inkscape:current-layer="layer1"
     showgrid="false"
     fit-margin-top="0"
     fit-margin-left="0"
     fit-margin-right="0"
     fit-margin-bottom="0"
     inkscape:window-width="994"
     inkscape:window-height="1080"
     inkscape:window-x="2168"
     inkscape:window-y="59"
     inkscape:window-maximized="0" />
  <metadata
     id="metadata3436">
    <rdf:RDF>
      <cc:Work
         rdf:about="">
        <dc:format>image/svg+xml</dc:format>
        <dc:type
           rdf:resource="http://purl.org/dc/dcmitype/StillImage" />
        <dc:title />
      </cc:Work>
    </rdf:RDF>
  </metadata>
  <g
     inkscape:label="Layer 1"
     inkscape:groupmode="layer"
     id="layer1"
     transform="translate(-282.125,-480.21225)">
    <path
       style="fill:none;stroke:#000000;stroke-width:1"
       d="m 284.16666,560.67152 c 2.94694,-4.72147 6.83291,2.0491 0.99722,2.35084 -5.62086,-2.89296 6.3033,-5.51476 1.09978,-1.20997 -0.79667,1.32837 -2.5118,-1.27135 -0.9303,-0.80756"
       id="path200"
       inkscape:connector-curvature="0" />
    <g
       id="g3026"
       transform="translate(6.3134534,-4.2931483)">
      <path
         id="path202"
         d="m 282.75,574.33821 c -0.25444,-1.38173 3.8365,5.90373 5.5,6.49999 0.0971,0.48696 4.58738,4.25968 1.66666,2.5"
         style="fill:none;stroke:#000000;stroke-width:1"
         inkscape:connector-curvature="0" />
      <path
         id="path204"
         d="m 289.91666,573.58821 c -3.13921,0.284 -5.97273,7.57224 -7.33333,10.41661"
         style="fill:none;stroke:#000000;stroke-width:1"
         inkscape:connector-curvature="0" />
      <path
         id="path206"
         d="m 295,570.67152 c 1.259,-3.66227 -1.41859,6.15179 -0.83334,6.33331"
         style="fill:none;stroke:#000000;stroke-width:1"
         inkscape:connector-curvature="0" />
    </g>
    <path
       style="fill:none;stroke:#000000;stroke-width:1"
       d="m 375.49999,481.17152 c -1.0573,3.84391 -2.76067,11.81273 -1.62115,17.34815 2.43869,19.47127 18.8947,35.45533 37.93905,39.02355 15.57569,3.70349 32.27215,3.00131 47.51448,-1.78655 2.65949,-1.09142 5.18639,-2.70301 8.0843,-3.08515"
       id="path208"
       inkscape:connector-curvature="0" />
    <path
       style="fill:none;stroke:#000000;stroke-width:1"
       d="m 373.24999,497.75483 c 3.05049,-2.97938 4.97246,-7.27551 9,-9.16662"
       id="path210"
       inkscape:connector-curvature="0" />
    <path
       style="fill:none;stroke:#000000;stroke-width:1"
       d="m 376.16667,508.33821 c 1.79004,-3.25106 4.8986,-5.48021 7,-8.5"
       id="path212"
       inkscape:connector-curvature="0" />
    <path
       style="fill:none;stroke:#000000;stroke-width:1"
       d="m 379.49999,518.50483 c 2.57487,-3.64635 4.99939,-7.60968 8.83334,-10.08331"
       id="path214"
       inkscape:connector-curvature="0" />
    <path
       style="fill:none;stroke:#000000;stroke-width:1"
       d="m 387.24999,524.17152 c -0.90885,-3.92686 7.23286,-6.66528 9.58334,-9.33331"
       id="path216"
       inkscape:connector-curvature="0" />
    <path
       style="fill:none;stroke:#000000;stroke-width:1"
       d="m 397.24999,531.50483 c 1.37148,-3.35669 4.20637,-5.79903 6.41668,-8.58331"
       id="path218"
       inkscape:connector-curvature="0" />
    <path
       style="fill:none;stroke:#000000;stroke-width:1"
       d="m 406.08333,537.17152 c 5.57882,-4.0188 11.87161,-7.88675 14.91666,-14.33331"
       id="path220"
       inkscape:connector-curvature="0" />
    <path
       style="fill:none;stroke:#000000;stroke-width:1"
       d="m 419.91667,539.25483 c 5.37464,-0.88822 7.30028,-7.20313 9.75,-11.25"
       id="path222"
       inkscape:connector-curvature="0" />
    <path
       style="fill:none;stroke:#000000;stroke-width:1"
       d="m 436.58333,540.33821 c 4.89145,-2.34328 7.88844,-8.11164 8.41666,-13.33338"
       id="path224"
       inkscape:connector-curvature="0" />
    <path
       style="fill:none;stroke:#000000;stroke-width:1"
       d="m 452.08333,537.92152 c 4.36416,-2.79611 6.57938,-8.04484 7.66666,-12.91669"
       id="path226"
       inkscape:connector-curvature="0" />
    <path
       style="fill:none;stroke:#000000;stroke-width:1"
       d="m 284.39382,562.60344 c 7.29654,-3.77342 14.34573,-8.08985 22.29851,-10.37142 10.19638,-4.28735 19.80906,-10.41663 30.86816,-12.29527 13.27163,-5.82916 25.96582,-12.85154 38.83334,-19.5 3.56994,0.23607 8.6853,-1.50668 5.19662,-3.71667 6.16723,-2.55508 0.85185,8.3119 -2.30346,2.00581 2.10157,-5.8991 7.61,0.98742 2.01054,1.87925 -2.79187,-3.05025 4.11522,-4.41016 0.0963,-0.002"
       id="path228"
       inkscape:connector-curvature="0" />
    <path
       style="fill:none;stroke:#000000;stroke-width:1"
       d="m 384.2851,520.39152 c -2.09717,-1.0942 3.77759,6.8429 3.81303,9.29188 4.2649,10.21818 11.67536,18.78373 15.68697,29.12474 -2.40721,-1.97035 -11.24643,-10.41997 -4.36098,-4.33981 2.79082,2.39678 5.55655,5.89677 0.87878,1.34235 -2.78053,-2.25954 -6.22572,-4.55464 -0.72836,-5.21254 6.10347,-5.11369 3.33753,3.82593 3.7939,7.29338 0.95732,-2.90006 -4.02895,-9.86275 -2.66668,-3.16669 -2.39689,3.63686 0.68319,-6.67893 -0.0833,-1.33331 -4.30316,0.34108 -6.70439,-2.34237 0.0833,-1.49999"
       id="path230"
       inkscape:connector-curvature="0" />
    <g
       id="g3016"
       transform="translate(-6.3134534,6.5659916)">
      <path
         id="path232"
         d="m 419.99999,555.00483 c 1.1834,-4.21916 0.70047,5.62084 0.75,6.75 -0.73571,4.74471 0.35332,6.6271 4.91668,4"
         style="fill:none;stroke:#000000;stroke-width:1"
         inkscape:connector-curvature="0" />
      <path
         id="path234"
         d="m 413.66667,558.75483 c -1.59838,-0.46888 8.93977,-0.56213 10.5,-1.25"
         style="fill:none;stroke:#000000;stroke-width:1"
         inkscape:connector-curvature="0" />
      <path
         id="path236"
         d="m 428.91667,550.08821 c 0.23197,-3.55544 -0.0999,4.43129 0,4.25"
         style="fill:none;stroke:#000000;stroke-width:1"
         inkscape:connector-curvature="0" />
      <path
         id="path238"
         d="m 435.91667,557.08821 c -1.67339,-3.24339 -6.78841,4.47875 -4.08334,6.75 0.7446,1.8535 1.88348,3.29554 3.91666,3.75"
         style="fill:none;stroke:#000000;stroke-width:1"
         inkscape:connector-curvature="0" />
      <path
         id="path240"
         d="m 438.08333,559.92152 c 0.19485,-0.10173 5.69459,3.84758 6.58334,5.25"
         style="fill:none;stroke:#000000;stroke-width:1"
         inkscape:connector-curvature="0" />
      <path
         id="path242"
         d="m 444.08333,559.17152 c -0.9028,-1.43586 -6.11402,6.31026 -6.16666,7.08331"
         style="fill:none;stroke:#000000;stroke-width:1"
         inkscape:connector-curvature="0" />
      <path
         id="path244"
         d="m 439.91667,557.33821 c 2.58903,-2.37157 4.50453,-4.58689 5.91666,-0.0834 0.0821,0.24155 0.48082,0.0647 0.16666,-0.0833"
         style="fill:none;stroke:#000000;stroke-width:1"
         inkscape:connector-curvature="0" />
      <path
         id="path246"
         d="m 448.74999,555.75483 c 1.91285,1.90773 6.1418,9.28116 2,13.16669 -0.62563,1.3819 -2.01965,2.25672 -2.75,3.41669"
         style="fill:none;stroke:#000000;stroke-width:1"
         inkscape:connector-curvature="0" />
    </g>
    <path
       style="fill:none;stroke:#000000;stroke-width:1"
       d="m 294.91666,553.92152 c 4.2664,-0.90188 7.20149,-4.4692 10.83334,-6.58331"
       id="path248"
       inkscape:connector-curvature="0" />
    <path
       style="fill:none;stroke:#000000;stroke-width:1"
       d="m 317.16666,540.42152 c 3.70807,-0.95321 7.17684,-2.78969 10.16667,-5.16669"
       id="path250"
       inkscape:connector-curvature="0" />
    <path
       style="fill:none;stroke:#000000;stroke-width:1"
       d="m 339.75,529.67152 c 3.42123,-1.90221 7.00746,-3.51234 10.33333,-5.58331"
       id="path252"
       inkscape:connector-curvature="0" />
    <path
       style="fill:none;stroke:#000000;stroke-width:1"
       d="m 359.24999,518.50483 c 1.81568,-0.94524 3.68035,-1.89508 5.16668,-3.33331"
       id="path254"
       inkscape:connector-curvature="0" />
    <path
       style="fill:none;stroke:#000000;stroke-width:1"
       d="m 372.49999,511.50483 c 2.44652,-1.87394 5.58959,-2.53371 8.08334,-4.33331"
       id="path256"
       inkscape:connector-curvature="0" />
    <path
       style="fill:none;stroke:#000000;stroke-width:1"
       d="m 302.91666,558.67152 c 3.36548,1.14032 6.69525,-2.3302 10.16667,-1.66669"
       id="path258"
       inkscape:connector-curvature="0" />
    <path
       style="fill:none;stroke:#000000;stroke-width:1"
       d="m 327.25,552.67152 c 3.62612,0.38962 7.06645,-1.1323 10.25,-2.66669"
       id="path260"
       inkscape:connector-curvature="0" />
    <path
       style="fill:none;stroke:#000000;stroke-width:1"
       d="m 348.66667,544.42152 c 3.66442,-2.59969 8.51269,-2.69469 12.25,-5.16669"
       id="path262"
       inkscape:connector-curvature="0" />
    <path
       style="fill:none;stroke:#000000;stroke-width:1"
       d="m 372.16667,536.50483 c 3.58791,-0.79148 6.79971,-2.89108 10.5,-3.25"
       id="path264"
       inkscape:connector-curvature="0" />
    <path
       style="fill:none;stroke:#000000;stroke-width:1"
       d="m 388.91667,529.67152 c 2.58989,0.0948 4.97593,-1.4746 7.58332,-1.08331"
       id="path266"
       inkscape:connector-curvature="0" />
  </g>
</svg>
