<?xml version="1.0" encoding="UTF-8" standalone="no"?>
<!-- Created with Inkscape (http://www.inkscape.org/) -->

<svg
   xmlns:dc="http://purl.org/dc/elements/1.1/"
   xmlns:cc="http://creativecommons.org/ns#"
   xmlns:rdf="http://www.w3.org/1999/02/22-rdf-syntax-ns#"
   xmlns:svg="http://www.w3.org/2000/svg"
   xmlns="http://www.w3.org/2000/svg"
   xmlns:sodipodi="http://sodipodi.sourceforge.net/DTD/sodipodi-0.dtd"
   xmlns:inkscape="http://www.inkscape.org/namespaces/inkscape"
   width="205.44275"
   height="141.54424"
   id="svg3300"
   version="1.1"
   inkscape:version="0.48.1 "
   sodipodi:docname="A28mConnect.svg">
  <defs
     id="defs3302" />
  <sodipodi:namedview
     id="base"
     pagecolor="#ffffff"
     bordercolor="#666666"
     borderopacity="1.0"
     inkscape:pageopacity="0.0"
     inkscape:pageshadow="2"
     inkscape:zoom="3.959798"
     inkscape:cx="94.885448"
     inkscape:cy="67.514126"
     inkscape:document-units="px"
     inkscape:current-layer="layer1"
     showgrid="false"
     fit-margin-top="0"
     fit-margin-left="0"
     fit-margin-right="0"
     fit-margin-bottom="0"
     inkscape:window-width="1349"
     inkscape:window-height="994"
     inkscape:window-x="1777"
     inkscape:window-y="90"
     inkscape:window-maximized="0" />
  <metadata
     id="metadata3305">
    <rdf:RDF>
      <cc:Work
         rdf:about="">
        <dc:format>image/svg+xml</dc:format>
        <dc:type
           rdf:resource="http://purl.org/dc/dcmitype/StillImage" />
        <dc:title />
      </cc:Work>
    </rdf:RDF>
  </metadata>
  <g
     inkscape:label="Layer 1"
     inkscape:groupmode="layer"
     id="layer1"
     transform="translate(-270.526,-458.33207)">
    <g
       id="g3041" />
    <path
       inkscape:connector-curvature="0"
       style="fill:none;stroke:#000000;stroke-width:1"
       d="m 311.625,553.03639 c 0.59651,-1.39579 3.27953,-3.76114 3.41665,-0.25 0.40114,3.7366 -7.39235,3.1221 -2.91665,-0.91666 0.56863,-0.41872 1.08891,-0.51894 1.66665,-0.83334"
       id="path114" />
    <g
       id="g3047"
       transform="matrix(0.9504925,0.3107475,-0.3107475,0.9504925,187.08112,-71.020883)">
      <path
         inkscape:connector-curvature="0"
         style="fill:none;stroke:#000000;stroke-width:1"
         d="m 295.20831,540.86973 c -3.60467,1.26859 -7.85049,7.67233 -12,10 -3.51867,2.92316 -9.96475,9.44733 -10.66666,11.75 19.89792,1.55467 40.12716,4.12057 59.5,6.5 1.3771,-0.20889 4.43753,0.42708 4.16666,0.83334"
         id="path102" />
      <path
         inkscape:connector-curvature="0"
         style="fill:none;stroke:#000000;stroke-width:1"
         d="m 294.79165,541.03639 c -0.54327,-0.0537 7.20455,0.26845 9.08335,1.25 15.22849,2.47753 34.85635,5.78945 47.83331,7.08334 -2.45735,1.74363 -6.21989,8.73139 -9.5,12.08334 -3.14163,1.73927 -6.72831,8.16477 -6.66666,9.58332 l 0.25,-0.0833 0.25,0"
         id="path104" />
      <path
         id="path116"
         d="m 313.125,554.45307 c 0.8781,-7.56968 2.02253,-17.2675 1.83331,-25.66668 0.33685,-2.58628 1.05138,-9.55731 1,-9.83332 -0.75306,1.94769 -3.90263,7.22211 -3.33331,7.58332 0.99542,-1.90488 3.49068,-11.71079 3.25,-4.91666 0.82519,2.87816 3.56461,5.77627 -1.16669,4.33334 -3.72412,1.14984 1.26773,-4.59157 2,-2.25"
         style="fill:none;stroke:#000000;stroke-width:1"
         inkscape:connector-curvature="0" />
    </g>
    <path
       inkscape:connector-curvature="0"
       style="fill:none;stroke:#0000c1;stroke-width:2;stroke-miterlimit:4;stroke-opacity:1;stroke-dasharray:none"
       d="m 313.20831,554.28639 c 1.19716,-1.33459 0.0289,-4.60864 1.75,-5.58332 4.02973,-6.85481 7.63191,-14.91704 12.91669,-20.41668 5.72969,-7.68822 19.93908,-21.82016 27.49026,-27.06599"
       id="path118"
       sodipodi:nodetypes="cccc" />
    <g
       id="g3029"
       transform="matrix(0.89357263,0.44891865,-0.44891865,0.89357263,254.24242,-114.00392)">
      <g
         id="g3019">
        <path
           inkscape:connector-curvature="0"
           style="fill:none;stroke:#000000;stroke-width:1"
           d="m 378.20831,494.70307 c -0.81022,-2.63624 0.14169,-4.23796 1.16669,-0.5 -3.1372,4.72332 -5.01646,-4.05954 -1,-2.83334 1.27934,1.67031 0.40524,2.47339 -0.83335,3.16666"
           id="path122" />
        <path
           inkscape:connector-curvature="0"
           style="fill:none;stroke:#000000;stroke-width:1"
           d="m 377.20831,495.20307 c 1.04602,-0.75634 1.31083,-1.15042 1.33334,-1.33334"
           id="path124" />
        <path
           inkscape:connector-curvature="0"
           style="fill:none;stroke:#000000;stroke-width:1"
           d="m 378.875,493.78639 c -0.16065,-0.25379 -2.06581,0.0343 -1.25,-0.0833"
           id="path126" />
        <g
           id="g3053"
           transform="matrix(0.98098583,0.19407937,-0.19407937,0.98098583,101.93444,-63.120062)">
          <path
             inkscape:connector-curvature="0"
             style="fill:none;stroke:#000000;stroke-width:1"
             d="m 354.625,466.95306 c 11.34734,8.52228 39.46153,23.2897 49.74996,31.83333 l -19.10875,14.5473"
             id="path110"
             sodipodi:nodetypes="ccc" />
          <path
             id="path106"
             d="m 331.13837,481.98261 53.32599,31.50128"
             style="fill:none;stroke:#000000;stroke-width:1"
             inkscape:connector-curvature="0"
             sodipodi:nodetypes="cc" />
          <path
             id="path108"
             d="m 330.97315,481.77874 23.92202,-15.45875"
             style="fill:none;stroke:#000000;stroke-width:1"
             inkscape:connector-curvature="0"
             sodipodi:nodetypes="cc" />
          <path
             inkscape:transform-center-y="3.5355339"
             id="path128"
             d="m 377.77953,493.30321 c 0.99942,-3.44912 3.03446,-8.95774 6.12061,-12.50096 4.09739,-6.43186 7.47965,-14.68983 10.95557,-20.53681 2.20694,-2.57856 2.61212,-3.37658 -0.62709,-0.9442 -2.16852,-0.17463 -4.97889,4.50006 -4.25371,4.12685 2.92888,-1.58867 6.41928,-7.84847 6.29476,-1.34157 0.31112,3.06975 2.79539,4.89084 -0.57226,3.64564 -1.02349,-0.64505 -5.96196,-1.15883 -5.32046,-0.94564"
             style="fill:none;stroke:#000000;stroke-width:1"
             inkscape:connector-curvature="0" />
        </g>
      </g>
    </g>
    <path
       inkscape:connector-curvature="0"
       style="fill:none;stroke:#0000ba;stroke-width:2;stroke-miterlimit:4;stroke-opacity:1;stroke-dasharray:none"
       d="m 370.07633,496.82192 c -2.61929,1.17557 14.92472,-6.9946 17.82405,-6.05584 11.14156,-1.34246 17.7236,-1.58663 27.80796,0.77032 8.7656,2.29626 15.63342,9.42668 17.5,16.08333 4.18198,9.43518 1.42757,18.34155 -5.25,27.58334 -6.21415,8.16137 -13.08242,15.61018 -24.40908,17.77031 -9.60661,2.43199 -23.80376,-4.66635 -21.92426,-16.60365 0.009,-6.30406 9.46192,-13.70358 15.11884,-14.46996 7.52633,-2.47455 14.12237,-1.2714 20.08693,3.49894 3.44989,3.64652 4.67768,4.14249 7.47611,8.90037"
       id="path130"
       sodipodi:nodetypes="cccccccccc" />
    <path
       inkscape:connector-curvature="0"
       style="fill:none;stroke:#0000c6;stroke-width:2;stroke-miterlimit:4;stroke-opacity:1;stroke-dasharray:none"
       d="m 426.70073,539.93276 c 1.52758,1.40876 3.20544,9.37032 4.59092,12.68697 0.24389,1.22958 3.73738,12.92267 3.36377,12.65948"
       id="path134"
       sodipodi:nodetypes="ccc" />
    <path
       inkscape:connector-curvature="0"
       style="fill:none;stroke:#000000;stroke-width:1"
       d="m 433.62496,550.61973 18.75,-8"
       id="path142"
       sodipodi:nodetypes="cc" />
    <path
       inkscape:connector-curvature="0"
       style="fill:none;stroke:#000000;stroke-width:1"
       d="m 431.62496,514.20307 c -0.87163,-3.16873 4.40165,5.11757 4,4.41666 0.39747,-1.06458 1.98651,-6.70612 2.66923,-6.26777"
       id="path144"
       sodipodi:nodetypes="ccc" />
    <path
       inkscape:connector-curvature="0"
       style="fill:none;stroke:#000000;stroke-width:1"
       d="m 428.58055,552.44756 c -10.05748,4.21592 -28.64979,12.04141 -30.2889,12.25551 9.25742,6.40728 15.94476,14.89912 24.66669,22.16666"
       id="path146"
       sodipodi:nodetypes="ccc" />
    <path
       inkscape:connector-curvature="0"
       style="fill:none;stroke:#000000;stroke-width:1"
       d="m 423.29165,587.03639 c 1.51442,-1.58122 8.82619,-3.79242 12.08331,-5.66666 12.80052,-7.41575 27.2506,-15.64114 40.41669,-20.16666 -0.30097,-0.0516 -0.55536,0.20099 -0.83331,0.25"
       id="path148" />
    <path
       inkscape:connector-curvature="0"
       style="fill:none;stroke:#000000;stroke-width:1"
       d="m 452.79165,542.20307 22.64638,18.14382"
       id="path150"
       sodipodi:nodetypes="cc" />
    <path
       inkscape:connector-curvature="0"
       style="fill:none;stroke:#000000;stroke-width:1"
       d="m 435.04165,563.78639 c 0.25691,-2.82618 -7.09618,1.45682 -2.33331,3.66668 4.07212,4.55604 7.36041,-4.13566 2.16662,-4.25 -0.75847,0.10044 -1.30576,0.66195 -2,0.91666"
       id="path152" />
    <path
       inkscape:connector-curvature="0"
       style="fill:none;stroke:#000000;stroke-width:1"
       d="m 434.70834,571.28639 c 0,-1.47526 0,0.82048 0,1.33334"
       id="path154" />
    <path
       inkscape:connector-curvature="0"
       style="fill:none;stroke:#000000;stroke-width:1"
       d="m 435.04165,577.36973 c -0.3903,0.0748 -0.0157,1.06181 0.33331,1.41666"
       id="path156" />
    <path
       inkscape:connector-curvature="0"
       style="fill:none;stroke:#000000;stroke-width:1"
       d="m 435.04165,581.86973 c 0.44015,-0.52829 -0.0728,0.12548 -0.25,0.25"
       id="path158" />
    <path
       inkscape:connector-curvature="0"
       style="fill:none;stroke:#000000;stroke-width:1"
       d="m 436.70834,570.70307 c 0.13358,0.97901 0.10369,1.85056 -0.0834,2.83332"
       id="path164" />
    <path
       inkscape:connector-curvature="0"
       style="fill:none;stroke:#000000;stroke-width:1"
       d="m 437.20834,576.36973 c 0.58657,-0.47927 0.0155,1.53547 0.33331,1.75"
       id="path166" />
    <path
       inkscape:connector-curvature="0"
       style="fill:none;stroke:#000000;stroke-width:1"
       d="m 437.95834,579.70307 c 0.29179,1.28239 2.19262,6.9387 2.25,10 -0.19167,2.36319 2.23065,8.08719 1.33331,8.75 -1.52908,-2.48178 -7.06408,-9.64627 -3.08331,-4.08334 3.38934,2.37333 3.62828,4.6203 3.16662,-0.33334 1.04017,-3.16381 3.68719,-5.88665 -0.66662,-3 -4.07627,0.52571 -4.12557,1.05785 0.33331,-0.0833 4.07482,0.19039 -3.20642,-0.59996 -2.91669,1.5 l 0.0834,0.16666"
       id="path168" />
    <path
       inkscape:connector-curvature="0"
       style="fill:none;stroke:#000000;stroke-width:1"
       d="m 310.29165,559.70307 c -0.20065,-0.015 -0.0953,1.04428 -0.25,1.33332"
       id="path170" />
    <path
       inkscape:connector-curvature="0"
       style="fill:none;stroke:#000000;stroke-width:1"
       d="m 308.54165,566.61973 c 0,0.11111 0,0.22223 0,0.33334"
       id="path172" />
    <path
       inkscape:connector-curvature="0"
       style="fill:none;stroke:#0000cc;stroke-width:2;stroke-miterlimit:4;stroke-opacity:1;stroke-dasharray:none"
       d="m 307.19308,564.40485 c -3.19577,9.92687 -3.139,22.45668 -0.0478,34.17259"
       id="path174"
       sodipodi:nodetypes="cc" />
    <path
       inkscape:connector-curvature="0"
       style="fill:none;stroke:#0000c6;stroke-width:2;stroke-miterlimit:4;stroke-opacity:1;stroke-dasharray:none"
       d="m 435.56488,581.84216 c 0.0109,8.04856 -2.46312,17.41418 -2.70871,17.02877"
       id="path134-8"
       sodipodi:nodetypes="cc" />
  </g>
</svg>
