<?xml version="1.0" encoding="UTF-8" standalone="no"?>
<!-- Created with Inkscape (http://www.inkscape.org/) -->

<svg
   xmlns:osb="http://www.openswatchbook.org/uri/2009/osb"
   xmlns:dc="http://purl.org/dc/elements/1.1/"
   xmlns:cc="http://creativecommons.org/ns#"
   xmlns:rdf="http://www.w3.org/1999/02/22-rdf-syntax-ns#"
   xmlns:svg="http://www.w3.org/2000/svg"
   xmlns="http://www.w3.org/2000/svg"
   xmlns:xlink="http://www.w3.org/1999/xlink"
   xmlns:sodipodi="http://sodipodi.sourceforge.net/DTD/sodipodi-0.dtd"
   xmlns:inkscape="http://www.inkscape.org/namespaces/inkscape"
   width="214.96875"
   height="186.09375"
   id="svg5320"
   version="1.1"
   inkscape:version="0.48.1 "
   sodipodi:docname="A29-2slices.pdf">
  <defs
     id="defs5322">
    <linearGradient
       id="linearGradient5655"
       osb:paint="solid">
      <stop
         style="stop-color:#ffffff;stop-opacity:1;"
         offset="0"
         id="stop5657" />
    </linearGradient>
    <pattern
       inkscape:collect="always"
       xlink:href="#Strips2_1"
       id="pattern5651"
       patternTransform="matrix(10,0,0,10,175.40625,-409.09375)" />
    <pattern
       inkscape:stockid="Stripes 2:1"
       id="Strips2_1"
       patternTransform="translate(0,0) scale(10,10)"
       height="1"
       width="1.5"
       patternUnits="userSpaceOnUse"
       inkscape:collect="always">
      <rect
         id="rect4978"
         height="2"
         width="1"
         y="-0.5"
         x="0"
         style="fill:black;stroke:none" />
    </pattern>
    <marker
       inkscape:stockid="Arrow1Mend"
       orient="auto"
       refY="0"
       refX="0"
       id="Arrow1Mend"
       style="overflow:visible">
      <path
         inkscape:connector-curvature="0"
         id="path4437"
         d="M 0,0 5,-5 -12.5,0 5,5 0,0 z"
         style="fill-rule:evenodd;stroke:#000000;stroke-width:1pt;marker-start:none"
         transform="matrix(-0.4,0,0,-0.4,-4,0)" />
    </marker>
    <marker
       inkscape:stockid="Arrow1Mend"
       orient="auto"
       refY="0"
       refX="0"
       id="Arrow1Mend-3"
       style="overflow:visible">
      <path
         inkscape:connector-curvature="0"
         id="path4437-9"
         d="M 0,0 5,-5 -12.5,0 5,5 0,0 z"
         style="fill-rule:evenodd;stroke:#000000;stroke-width:1pt;marker-start:none"
         transform="matrix(-0.4,0,0,-0.4,-4,0)" />
    </marker>
    <pattern
       patternUnits="userSpaceOnUse"
       width="132.1875"
       height="65.25"
       patternTransform="translate(-175.40625,409.09375)"
       id="pattern5648">
      <path
         sodipodi:nodetypes="ccccc"
         inkscape:connector-curvature="0"
         id="path3933-7-1-9"
         d="m 1.04727,36.72698 85.163763,27.93786 44.999997,-50 -84.0952,-14.14213 z"
         style="fill:url(#pattern5651);fill-opacity:1;stroke:#000056;stroke-width:1px;stroke-linecap:butt;stroke-linejoin:miter;stroke-opacity:1" />
    </pattern>
    <marker
       inkscape:stockid="Arrow1Mend"
       orient="auto"
       refY="0"
       refX="0"
       id="Arrow1Mend-9"
       style="overflow:visible">
      <path
         inkscape:connector-curvature="0"
         id="path4437-2"
         d="M 0,0 5,-5 -12.5,0 5,5 0,0 z"
         style="fill-rule:evenodd;stroke:#000000;stroke-width:1pt;marker-start:none"
         transform="matrix(-0.4,0,0,-0.4,-4,0)" />
    </marker>
    <marker
       inkscape:stockid="Arrow1Mend"
       orient="auto"
       refY="0"
       refX="0"
       id="Arrow1Mend-9-3"
       style="overflow:visible">
      <path
         inkscape:connector-curvature="0"
         id="path4437-2-7"
         d="M 0,0 5,-5 -12.5,0 5,5 0,0 z"
         style="fill-rule:evenodd;stroke:#000000;stroke-width:1pt;marker-start:none"
         transform="matrix(-0.4,0,0,-0.4,-4,0)" />
    </marker>
    <marker
       inkscape:stockid="Arrow1Mend"
       orient="auto"
       refY="0"
       refX="0"
       id="Arrow1Mend-9-0"
       style="overflow:visible">
      <path
         inkscape:connector-curvature="0"
         id="path4437-2-2"
         d="M 0,0 5,-5 -12.5,0 5,5 0,0 z"
         style="fill-rule:evenodd;stroke:#000000;stroke-width:1pt;marker-start:none"
         transform="matrix(-0.4,0,0,-0.4,-4,0)" />
    </marker>
    <marker
       inkscape:stockid="Arrow1Mend"
       orient="auto"
       refY="0"
       refX="0"
       id="Arrow1Mend-9-38"
       style="overflow:visible">
      <path
         inkscape:connector-curvature="0"
         id="path4437-2-22"
         d="M 0,0 5,-5 -12.5,0 5,5 0,0 z"
         style="fill-rule:evenodd;stroke:#000000;stroke-width:1pt;marker-start:none"
         transform="matrix(-0.4,0,0,-0.4,-4,0)" />
    </marker>
    <marker
       inkscape:stockid="Arrow1Mend"
       orient="auto"
       refY="0"
       refX="0"
       id="Arrow1Mend-9-385"
       style="overflow:visible">
      <path
         inkscape:connector-curvature="0"
         id="path4437-2-8"
         d="M 0,0 5,-5 -12.5,0 5,5 0,0 z"
         style="fill-rule:evenodd;stroke:#000000;stroke-width:1pt;marker-start:none"
         transform="matrix(-0.4,0,0,-0.4,-4,0)" />
    </marker>
    <marker
       inkscape:stockid="Arrow1Mend"
       orient="auto"
       refY="0"
       refX="0"
       id="Arrow1Mend-9-02"
       style="overflow:visible">
      <path
         inkscape:connector-curvature="0"
         id="path4437-2-6"
         d="M 0,0 5,-5 -12.5,0 5,5 0,0 z"
         style="fill-rule:evenodd;stroke:#000000;stroke-width:1pt;marker-start:none"
         transform="matrix(-0.4,0,0,-0.4,-4,0)" />
    </marker>
    <marker
       inkscape:stockid="Arrow1Mend"
       orient="auto"
       refY="0"
       refX="0"
       id="marker6501"
       style="overflow:visible">
      <path
         inkscape:connector-curvature="0"
         id="path6503"
         d="M 0,0 5,-5 -12.5,0 5,5 0,0 z"
         style="fill-rule:evenodd;stroke:#000000;stroke-width:1pt;marker-start:none"
         transform="matrix(-0.4,0,0,-0.4,-4,0)" />
    </marker>
    <marker
       inkscape:stockid="Arrow1Mend"
       orient="auto"
       refY="0"
       refX="0"
       id="marker6505"
       style="overflow:visible">
      <path
         inkscape:connector-curvature="0"
         id="path6507"
         d="M 0,0 5,-5 -12.5,0 5,5 0,0 z"
         style="fill-rule:evenodd;stroke:#000000;stroke-width:1pt;marker-start:none"
         transform="matrix(-0.4,0,0,-0.4,-4,0)" />
    </marker>
    <marker
       inkscape:stockid="Arrow1Mend"
       orient="auto"
       refY="0"
       refX="0"
       id="Arrow1Mend-9-2"
       style="overflow:visible">
      <path
         inkscape:connector-curvature="0"
         id="path4437-2-5"
         d="M 0,0 5,-5 -12.5,0 5,5 0,0 z"
         style="fill-rule:evenodd;stroke:#000000;stroke-width:1pt;marker-start:none"
         transform="matrix(-0.4,0,0,-0.4,-4,0)" />
    </marker>
    <marker
       inkscape:stockid="Arrow1Mend"
       orient="auto"
       refY="0"
       refX="0"
       id="Arrow1Mend-9-1"
       style="overflow:visible">
      <path
         inkscape:connector-curvature="0"
         id="path4437-2-71"
         d="M 0,0 5,-5 -12.5,0 5,5 0,0 z"
         style="fill-rule:evenodd;stroke:#000000;stroke-width:1pt;marker-start:none"
         transform="matrix(-0.4,0,0,-0.4,-4,0)" />
    </marker>
    <marker
       inkscape:stockid="Arrow1Mend"
       orient="auto"
       refY="0"
       refX="0"
       id="Arrow1Mend-9-1-0"
       style="overflow:visible">
      <path
         inkscape:connector-curvature="0"
         id="path4437-2-71-4"
         d="M 0,0 5,-5 -12.5,0 5,5 0,0 z"
         style="fill-rule:evenodd;stroke:#000000;stroke-width:1pt;marker-start:none"
         transform="matrix(-0.4,0,0,-0.4,-4,0)" />
    </marker>
  </defs>
  <sodipodi:namedview
     id="base"
     pagecolor="#ffffff"
     bordercolor="#666666"
     borderopacity="1.0"
     inkscape:pageopacity="0.0"
     inkscape:pageshadow="2"
     inkscape:zoom="2.8"
     inkscape:cx="110.46163"
     inkscape:cy="76.657905"
     inkscape:document-units="px"
     inkscape:current-layer="layer1"
     showgrid="false"
     fit-margin-top="0"
     fit-margin-left="0"
     fit-margin-right="0"
     fit-margin-bottom="0"
     inkscape:window-width="816"
     inkscape:window-height="789"
     inkscape:window-x="12"
     inkscape:window-y="176"
     inkscape:window-maximized="0">
    <inkscape:grid
       type="xygrid"
       id="grid4083"
       empspacing="5"
       visible="true"
       enabled="true"
       snapvisiblegridlinesonly="true" />
  </sodipodi:namedview>
  <metadata
     id="metadata5325">
    <rdf:RDF>
      <cc:Work
         rdf:about="">
        <dc:format>image/svg+xml</dc:format>
        <dc:type
           rdf:resource="http://purl.org/dc/dcmitype/StillImage" />
        <dc:title></dc:title>
      </cc:Work>
    </rdf:RDF>
  </metadata>
  <g
     inkscape:label="Layer 1"
     inkscape:groupmode="layer"
     id="layer1"
     transform="translate(-108.5,-347.375)">
    <path
       style="fill:none;stroke:#000056;stroke-width:0.5;stroke-linecap:butt;stroke-linejoin:miter;stroke-miterlimit:4;stroke-opacity:1;stroke-dasharray:none"
       d="m 239.44227,415.87426 21.61165,58.68017 -36.87057,57.57868 -29.74108,-66.25885 z"
       id="path3933-5"
       inkscape:connector-curvature="0"
       sodipodi:nodetypes="ccccc" />
    <path
       style="fill:none;stroke:#000056;stroke-width:0.5;stroke-linecap:butt;stroke-linejoin:miter;stroke-miterlimit:4;stroke-opacity:1;stroke-dasharray:none"
       d="m 109.27851,437.9364 85.16376,27.93786 45,-50 -84.0952,-14.14213 z"
       id="path3933-7-1"
       inkscape:connector-curvature="0"
       sodipodi:nodetypes="ccccc" />
    <path
       style="fill:#ffffff;fill-opacity:0.76190479;stroke:#000056;stroke-width:0.5;stroke-linecap:butt;stroke-linejoin:miter;stroke-miterlimit:4;stroke-opacity:1;stroke-dasharray:none"
       d="m 194.44227,465.87426 82.32743,24.74875 46.26269,-61.1117 -83.59012,-13.63705 z"
       id="path3933-7"
       inkscape:connector-curvature="0"
       sodipodi:nodetypes="ccccc" />
    <path
       style="fill:#df3131;fill-opacity:0.79894182;stroke:#000056;stroke-width:0.5;stroke-linecap:butt;stroke-linejoin:miter;stroke-miterlimit:4;stroke-opacity:1;stroke-dasharray:none"
       d="m 109.00325,437.86461 11.59233,4.00929 61.42857,-35.71429 -26.95234,-4.49927 z"
       id="path3933-7-1-2"
       inkscape:connector-curvature="0"
       sodipodi:nodetypes="ccccc" />
    <path
       style="fill:#ffffff;fill-opacity:0.88888891;stroke:#000056;stroke-width:0.5;stroke-linecap:butt;stroke-linejoin:miter;stroke-miterlimit:4;stroke-opacity:1;stroke-dasharray:none"
       d="m 212.5666,347.78029 26.87567,68.09397 -45,50 -35.56455,-76.8762 z"
       id="path3933"
       inkscape:connector-curvature="0"
       sodipodi:nodetypes="ccccc" />
    <g
       id="g3966"
       transform="translate(-9.6428567,10.714286)">
      <path
         transform="matrix(0,-1,-1,0,284.18139,549.26989)"
         d="m 108.08632,69.428749 c 0,1.115784 -0.96105,2.020305 -2.14657,2.020305 -1.18552,0 -2.14657,-0.904521 -2.14657,-2.020305 0,-1.115784 0.96105,-2.020305 2.14657,-2.020305 1.18552,0 2.14657,0.904521 2.14657,2.020305 z"
         sodipodi:ry="2.0203052"
         sodipodi:rx="2.1465743"
         sodipodi:cy="69.428749"
         sodipodi:cx="105.93975"
         id="path5791-5-7-5"
         style="fill:#faefef;fill-opacity:1;stroke:#000000;stroke-width:0.5;stroke-linecap:butt;stroke-linejoin:miter;stroke-miterlimit:4;stroke-opacity:1;stroke-dasharray:none"
         sodipodi:type="arc" />
      <path
         sodipodi:nodetypes="cc"
         inkscape:connector-curvature="0"
         id="polyline364-5-4-3"
         d="m 214.77475,443.38466 25.95037,-8.81013"
         style="fill:none;stroke:#000000;stroke-width:1.5;stroke-linecap:round;stroke-linejoin:round;stroke-miterlimit:4;stroke-dasharray:none;marker-end:url(#Arrow1Mend)" />
    </g>
    <text
       xml:space="preserve"
       style="font-size:12px;font-style:normal;font-variant:normal;font-weight:normal;font-stretch:normal;line-height:125%;letter-spacing:0px;word-spacing:0px;fill:#000000;fill-opacity:1;stroke:none;font-family:Arial;-inkscape-font-specification:Arial"
       x="191.27191"
       y="450.22116"
       id="text3029"
       sodipodi:linespacing="125%"><tspan
         sodipodi:role="line"
         id="tspan3031"
         x="191.27191"
         y="450.22116">x'1</tspan></text>
    <path
       style="fill:none;stroke:#0000cd;stroke-width:1;stroke-linecap:butt;stroke-linejoin:round;stroke-miterlimit:4;stroke-opacity:1;stroke-dasharray:none;marker-mid:url(#Arrow1Mend-9);marker-end:none"
       d="m 194.61883,379.56292 c -11.35829,12.72593 -17.40984,34.70614 -6.37657,47.62659 2.27286,5.43477 19.96533,10.13079 36.20203,4.91342"
       id="polyline364-9"
       inkscape:connector-curvature="0"
       sodipodi:nodetypes="ccc" />
    <path
       sodipodi:type="arc"
       style="fill:#fdefef;fill-opacity:1;stroke:#000000;stroke-width:0.5;stroke-linecap:butt;stroke-linejoin:miter;stroke-miterlimit:4;stroke-opacity:1;stroke-dasharray:none"
       id="path5791-5-7-5-5"
       sodipodi:cx="105.93975"
       sodipodi:cy="69.428749"
       sodipodi:rx="2.1465743"
       sodipodi:ry="2.0203052"
       d="m 108.08632,69.428749 a 2.1465743,2.0203052 0 1 1 -4.29314,0 2.1465743,2.0203052 0 1 1 4.29314,0 z"
       transform="matrix(0,-1,-1,0,264.58531,485.38544)" />
    <path
       style="fill:none;stroke:#0000cd;stroke-width:1;stroke-linecap:butt;stroke-linejoin:round;stroke-miterlimit:4;stroke-opacity:1;stroke-dasharray:none;marker-mid:url(#Arrow1Mend-9);marker-end:none"
       d="m 225.69025,433.13437 c 3.82029,13.08306 34.91159,2.56326 35.05201,29.41228 6.05422,21.33526 45.61175,2.1879 19.59488,-35.62228"
       id="polyline364-8"
       inkscape:connector-curvature="0"
       sodipodi:nodetypes="ccc" />
    <path
       sodipodi:type="arc"
       style="fill:#8d3333;fill-opacity:1;stroke:#000000;stroke-width:0.5;stroke-linecap:butt;stroke-linejoin:miter;stroke-miterlimit:4;stroke-opacity:1;stroke-dasharray:none"
       id="path5791-5-7-5-5-0"
       sodipodi:cx="105.93975"
       sodipodi:cy="69.428749"
       sodipodi:rx="2.1465743"
       sodipodi:ry="2.0203052"
       d="m 108.08632,69.428749 a 2.1465743,2.0203052 0 1 1 -4.29314,0 2.1465743,2.0203052 0 1 1 4.29314,0 z"
       transform="matrix(0,-1,-1,0,294.58531,538.24258)" />
    <path
       style="fill:#df3131;fill-opacity:0.8;stroke:#000056;stroke-width:0.5;stroke-linecap:butt;stroke-linejoin:miter;stroke-miterlimit:4;stroke-opacity:1;stroke-dasharray:none"
       d="m 251.31952,490.35357 -27.22771,42.57868 -20.09823,-45.54456 z"
       id="path3933-5-3"
       inkscape:connector-curvature="0"
       sodipodi:nodetypes="cccc" />
    <path
       sodipodi:type="arc"
       style="fill:#fdefef;fill-opacity:1;stroke:#000000;stroke-width:0.5;stroke-linecap:butt;stroke-linejoin:miter;stroke-miterlimit:4;stroke-opacity:1;stroke-dasharray:none"
       id="path5791-5-7-5-5-4"
       sodipodi:cx="105.93975"
       sodipodi:cy="69.428749"
       sodipodi:rx="2.1465743"
       sodipodi:ry="2.0203052"
       d="m 108.08632,69.428749 a 2.1465743,2.0203052 0 1 1 -4.29314,0 2.1465743,2.0203052 0 1 1 4.29314,0 z"
       transform="matrix(0,-1,-1,0,349.94245,532.5283)" />
    <text
       xml:space="preserve"
       style="font-size:12px;font-style:normal;font-variant:normal;font-weight:normal;font-stretch:normal;line-height:125%;letter-spacing:0px;word-spacing:0px;fill:#000000;fill-opacity:1;stroke:none;font-family:Arial;-inkscape-font-specification:Arial"
       x="237.89832"
       y="430.25705"
       id="text3029-5"
       sodipodi:linespacing="125%"><tspan
         sodipodi:role="line"
         id="tspan3031-8"
         x="237.89832"
         y="430.25705">x'2</tspan></text>
    <g
       id="g3962"
       transform="translate(-3.2142857,3.5714286)">
      <path
         transform="translate(131.35258,349.42259)"
         d="m 108.08632,69.428749 c 0,1.115784 -0.96105,2.020305 -2.14657,2.020305 -1.18552,0 -2.14657,-0.904521 -2.14657,-2.020305 0,-1.115784 0.96105,-2.020305 2.14657,-2.020305 1.18552,0 2.14657,0.904521 2.14657,2.020305 z"
         sodipodi:ry="2.0203052"
         sodipodi:rx="2.1465743"
         sodipodi:cy="69.428749"
         sodipodi:cx="105.93975"
         id="path5791-5-7"
         style="fill:#faefef;fill-opacity:1;stroke:#000000;stroke-width:0.5;stroke-linecap:round;stroke-linejoin:miter;stroke-miterlimit:4;stroke-opacity:1;stroke-dasharray:none"
         sodipodi:type="arc" />
      <path
         inkscape:transform-center-y="0.46116269"
         inkscape:transform-center-x="-3.9396598"
         sodipodi:nodetypes="cc"
         inkscape:connector-curvature="0"
         id="polyline364-5-4"
         d="m 237.19281,418.16347 0.2493,-29.47058"
         style="fill:none;stroke:#000000;stroke-width:1.5;stroke-linecap:round;stroke-linejoin:round;stroke-miterlimit:4;stroke-dasharray:none;marker-end:url(#Arrow1Mend)" />
    </g>
    <text
       xml:space="preserve"
       style="font-size:12px;font-style:normal;font-variant:normal;font-weight:normal;font-stretch:normal;line-height:125%;letter-spacing:0px;word-spacing:0px;fill:#000000;fill-opacity:1;stroke:none;font-family:Arial;-inkscape-font-specification:Arial"
       x="195.41118"
       y="373.50439"
       id="text3029-8"
       sodipodi:linespacing="125%"><tspan
         sodipodi:role="line"
         id="tspan3031-4"
         x="195.41118"
         y="373.50439">x(0)</tspan></text>
    <text
       xml:space="preserve"
       style="font-size:12px;font-style:normal;font-variant:normal;font-weight:normal;font-stretch:normal;line-height:125%;letter-spacing:0px;word-spacing:0px;fill:#000000;fill-opacity:1;stroke:none;font-family:Arial;-inkscape-font-specification:Arial"
       x="279.7171"
       y="416.03595"
       id="text3029-8-3"
       sodipodi:linespacing="125%"><tspan
         sodipodi:role="line"
         id="tspan3031-4-1"
         x="279.7171"
         y="416.03595">x(t)</tspan></text>
  </g>
</svg>
