<?xml version="1.0" encoding="UTF-8" standalone="no"?>
<!-- Created with Inkscape (http://www.inkscape.org/) -->

<svg
   xmlns:osb="http://www.openswatchbook.org/uri/2009/osb"
   xmlns:dc="http://purl.org/dc/elements/1.1/"
   xmlns:cc="http://creativecommons.org/ns#"
   xmlns:rdf="http://www.w3.org/1999/02/22-rdf-syntax-ns#"
   xmlns:svg="http://www.w3.org/2000/svg"
   xmlns="http://www.w3.org/2000/svg"
   xmlns:xlink="http://www.w3.org/1999/xlink"
   xmlns:sodipodi="http://sodipodi.sourceforge.net/DTD/sodipodi-0.dtd"
   xmlns:inkscape="http://www.inkscape.org/namespaces/inkscape"
   width="214.96875"
   height="186.09375"
   id="svg5320"
   version="1.1"
   inkscape:version="0.48.1 "
   sodipodi:docname="A29-1ridge.pdf">
  <defs
     id="defs5322">
    <linearGradient
       id="linearGradient5655"
       osb:paint="solid">
      <stop
         style="stop-color:#ffffff;stop-opacity:1;"
         offset="0"
         id="stop5657" />
    </linearGradient>
    <pattern
       inkscape:collect="always"
       xlink:href="#Strips2_1"
       id="pattern5651"
       patternTransform="matrix(10,0,0,10,175.40625,-409.09375)" />
    <pattern
       inkscape:stockid="Stripes 2:1"
       id="Strips2_1"
       patternTransform="translate(0,0) scale(10,10)"
       height="1"
       width="1.5"
       patternUnits="userSpaceOnUse"
       inkscape:collect="always">
      <rect
         id="rect4978"
         height="2"
         width="1"
         y="-0.5"
         x="0"
         style="fill:black;stroke:none" />
    </pattern>
    <marker
       inkscape:stockid="Arrow1Mend"
       orient="auto"
       refY="0"
       refX="0"
       id="Arrow1Mend"
       style="overflow:visible">
      <path
         inkscape:connector-curvature="0"
         id="path4437"
         d="M 0,0 5,-5 -12.5,0 5,5 0,0 z"
         style="fill-rule:evenodd;stroke:#000000;stroke-width:1pt;marker-start:none"
         transform="matrix(-0.4,0,0,-0.4,-4,0)" />
    </marker>
    <marker
       inkscape:stockid="Arrow1Mend"
       orient="auto"
       refY="0"
       refX="0"
       id="Arrow1Mend-3"
       style="overflow:visible">
      <path
         inkscape:connector-curvature="0"
         id="path4437-9"
         d="M 0,0 5,-5 -12.5,0 5,5 0,0 z"
         style="fill-rule:evenodd;stroke:#000000;stroke-width:1pt;marker-start:none"
         transform="matrix(-0.4,0,0,-0.4,-4,0)" />
    </marker>
    <pattern
       patternUnits="userSpaceOnUse"
       width="132.1875"
       height="65.25"
       patternTransform="translate(-175.40625,409.09375)"
       id="pattern5648">
      <path
         sodipodi:nodetypes="ccccc"
         inkscape:connector-curvature="0"
         id="path3933-7-1-9"
         d="m 1.04727,36.72698 85.163763,27.93786 44.999997,-50 -84.0952,-14.14213 z"
         style="fill:url(#pattern5651);fill-opacity:1;stroke:#000056;stroke-width:1px;stroke-linecap:butt;stroke-linejoin:miter;stroke-opacity:1" />
    </pattern>
    <marker
       inkscape:stockid="Arrow1Mend"
       orient="auto"
       refY="0"
       refX="0"
       id="Arrow1Mend-9"
       style="overflow:visible">
      <path
         inkscape:connector-curvature="0"
         id="path4437-2"
         d="M 0,0 5,-5 -12.5,0 5,5 0,0 z"
         style="fill-rule:evenodd;stroke:#000000;stroke-width:1pt;marker-start:none"
         transform="matrix(-0.4,0,0,-0.4,-4,0)" />
    </marker>
    <marker
       inkscape:stockid="Arrow1Mend"
       orient="auto"
       refY="0"
       refX="0"
       id="Arrow1Mend-9-3"
       style="overflow:visible">
      <path
         inkscape:connector-curvature="0"
         id="path4437-2-7"
         d="M 0,0 5,-5 -12.5,0 5,5 0,0 z"
         style="fill-rule:evenodd;stroke:#000000;stroke-width:1pt;marker-start:none"
         transform="matrix(-0.4,0,0,-0.4,-4,0)" />
    </marker>
    <marker
       inkscape:stockid="Arrow1Mend"
       orient="auto"
       refY="0"
       refX="0"
       id="Arrow1Mend-9-0"
       style="overflow:visible">
      <path
         inkscape:connector-curvature="0"
         id="path4437-2-2"
         d="M 0,0 5,-5 -12.5,0 5,5 0,0 z"
         style="fill-rule:evenodd;stroke:#000000;stroke-width:1pt;marker-start:none"
         transform="matrix(-0.4,0,0,-0.4,-4,0)" />
    </marker>
    <marker
       inkscape:stockid="Arrow1Mend"
       orient="auto"
       refY="0"
       refX="0"
       id="Arrow1Mend-9-38"
       style="overflow:visible">
      <path
         inkscape:connector-curvature="0"
         id="path4437-2-22"
         d="M 0,0 5,-5 -12.5,0 5,5 0,0 z"
         style="fill-rule:evenodd;stroke:#000000;stroke-width:1pt;marker-start:none"
         transform="matrix(-0.4,0,0,-0.4,-4,0)" />
    </marker>
    <marker
       inkscape:stockid="Arrow1Mend"
       orient="auto"
       refY="0"
       refX="0"
       id="Arrow1Mend-9-385"
       style="overflow:visible">
      <path
         inkscape:connector-curvature="0"
         id="path4437-2-8"
         d="M 0,0 5,-5 -12.5,0 5,5 0,0 z"
         style="fill-rule:evenodd;stroke:#000000;stroke-width:1pt;marker-start:none"
         transform="matrix(-0.4,0,0,-0.4,-4,0)" />
    </marker>
    <marker
       inkscape:stockid="Arrow1Mend"
       orient="auto"
       refY="0"
       refX="0"
       id="Arrow1Mend-9-02"
       style="overflow:visible">
      <path
         inkscape:connector-curvature="0"
         id="path4437-2-6"
         d="M 0,0 5,-5 -12.5,0 5,5 0,0 z"
         style="fill-rule:evenodd;stroke:#000000;stroke-width:1pt;marker-start:none"
         transform="matrix(-0.4,0,0,-0.4,-4,0)" />
    </marker>
    <marker
       inkscape:stockid="Arrow1Mend"
       orient="auto"
       refY="0"
       refX="0"
       id="marker6501"
       style="overflow:visible">
      <path
         inkscape:connector-curvature="0"
         id="path6503"
         d="M 0,0 5,-5 -12.5,0 5,5 0,0 z"
         style="fill-rule:evenodd;stroke:#000000;stroke-width:1pt;marker-start:none"
         transform="matrix(-0.4,0,0,-0.4,-4,0)" />
    </marker>
    <marker
       inkscape:stockid="Arrow1Mend"
       orient="auto"
       refY="0"
       refX="0"
       id="marker6505"
       style="overflow:visible">
      <path
         inkscape:connector-curvature="0"
         id="path6507"
         d="M 0,0 5,-5 -12.5,0 5,5 0,0 z"
         style="fill-rule:evenodd;stroke:#000000;stroke-width:1pt;marker-start:none"
         transform="matrix(-0.4,0,0,-0.4,-4,0)" />
    </marker>
    <marker
       inkscape:stockid="Arrow1Mend"
       orient="auto"
       refY="0"
       refX="0"
       id="Arrow1Mend-9-2"
       style="overflow:visible">
      <path
         inkscape:connector-curvature="0"
         id="path4437-2-5"
         d="M 0,0 5,-5 -12.5,0 5,5 0,0 z"
         style="fill-rule:evenodd;stroke:#000000;stroke-width:1pt;marker-start:none"
         transform="matrix(-0.4,0,0,-0.4,-4,0)" />
    </marker>
    <marker
       inkscape:stockid="Arrow1Mend"
       orient="auto"
       refY="0"
       refX="0"
       id="Arrow1Mend-9-1"
       style="overflow:visible">
      <path
         inkscape:connector-curvature="0"
         id="path4437-2-71"
         d="M 0,0 5,-5 -12.5,0 5,5 0,0 z"
         style="fill-rule:evenodd;stroke:#000000;stroke-width:1pt;marker-start:none"
         transform="matrix(-0.4,0,0,-0.4,-4,0)" />
    </marker>
    <marker
       inkscape:stockid="Arrow1Mend"
       orient="auto"
       refY="0"
       refX="0"
       id="Arrow1Mend-9-1-0"
       style="overflow:visible">
      <path
         inkscape:connector-curvature="0"
         id="path4437-2-71-4"
         d="M 0,0 5,-5 -12.5,0 5,5 0,0 z"
         style="fill-rule:evenodd;stroke:#000000;stroke-width:1pt;marker-start:none"
         transform="matrix(-0.4,0,0,-0.4,-4,0)" />
    </marker>
    <marker
       inkscape:stockid="Arrow1Mend"
       orient="auto"
       refY="0"
       refX="0"
       id="Arrow1Mend-9-6"
       style="overflow:visible">
      <path
         inkscape:connector-curvature="0"
         id="path4437-2-84"
         d="M 0,0 5,-5 -12.5,0 5,5 0,0 z"
         style="fill-rule:evenodd;stroke:#000000;stroke-width:1pt;marker-start:none"
         transform="matrix(-0.4,0,0,-0.4,-4,0)" />
    </marker>
    <marker
       inkscape:stockid="Arrow1Mend"
       orient="auto"
       refY="0"
       refX="0"
       id="Arrow1Mend-9-64"
       style="overflow:visible">
      <path
         inkscape:connector-curvature="0"
         id="path4437-2-20"
         d="M 0,0 5,-5 -12.5,0 5,5 0,0 z"
         style="fill-rule:evenodd;stroke:#000000;stroke-width:1pt;marker-start:none"
         transform="matrix(-0.4,0,0,-0.4,-4,0)" />
    </marker>
  </defs>
  <sodipodi:namedview
     id="base"
     pagecolor="#ffffff"
     bordercolor="#666666"
     borderopacity="1.0"
     inkscape:pageopacity="0.0"
     inkscape:pageshadow="2"
     inkscape:zoom="3.959798"
     inkscape:cx="181.51716"
     inkscape:cy="85.222525"
     inkscape:document-units="px"
     inkscape:current-layer="layer1"
     showgrid="false"
     fit-margin-top="0"
     fit-margin-left="0"
     fit-margin-right="0"
     fit-margin-bottom="0"
     inkscape:window-width="1920"
     inkscape:window-height="1058"
     inkscape:window-x="1358"
     inkscape:window-y="-8"
     inkscape:window-maximized="1">
    <inkscape:grid
       type="xygrid"
       id="grid4083"
       empspacing="5"
       visible="true"
       enabled="true"
       snapvisiblegridlinesonly="true" />
  </sodipodi:namedview>
  <metadata
     id="metadata5325">
    <rdf:RDF>
      <cc:Work
         rdf:about="">
        <dc:format>image/svg+xml</dc:format>
        <dc:type
           rdf:resource="http://purl.org/dc/dcmitype/StillImage" />
        <dc:title></dc:title>
      </cc:Work>
    </rdf:RDF>
  </metadata>
  <g
     inkscape:label="Layer 1"
     inkscape:groupmode="layer"
     id="layer1"
     transform="translate(-108.5,-347.375)">
    <path
       style="fill:#ffffff;fill-opacity:0.76190479;stroke:#000056;stroke-width:0.5;stroke-linecap:butt;stroke-linejoin:miter;stroke-miterlimit:4;stroke-opacity:1;stroke-dasharray:none"
       d="m 179.20494,495.73723 97.78918,29.71593 46.41062,-63.8568 -99.1998,-15.85913 z"
       id="path3933-7-1"
       inkscape:connector-curvature="0"
       sodipodi:nodetypes="ccccc" />
    <path
       style="fill:#ffffff;fill-opacity:0.88888891;stroke:#000056;stroke-width:0.5;stroke-linecap:butt;stroke-linejoin:miter;stroke-miterlimit:4;stroke-opacity:1;stroke-dasharray:none"
       d="m 179.95501,351.02366 44.1844,94.34922 -45,50 -53.12582,-106.61622 z"
       id="path3933-74"
       inkscape:connector-curvature="0"
       sodipodi:nodetypes="ccccc" />
    <path
       style="fill:#dcdeef;fill-opacity:0.88888891;stroke:#000056;stroke-width:0.5;stroke-linecap:butt;stroke-linejoin:miter;stroke-miterlimit:4;stroke-opacity:1;stroke-dasharray:none"
       d="m 194.37912,465.01574 -15.08997,30.8346 45.35715,-50.71429 14.85026,-28.83807 z"
       id="path3933-1-2-6"
       inkscape:connector-curvature="0"
       sodipodi:nodetypes="ccccc" />
    <path
       style="fill:#ffffff;fill-opacity:0.76190479;stroke:#000056;stroke-width:0.5;stroke-linecap:butt;stroke-linejoin:miter;stroke-miterlimit:4;stroke-opacity:1;stroke-dasharray:none"
       d="m 194.44227,465.87426 82.32743,24.74875 46.26269,-61.1117 -83.59012,-13.63705 z"
       id="path3933-7"
       inkscape:connector-curvature="0"
       sodipodi:nodetypes="ccccc" />
    <path
       style="fill:#ffffff;fill-opacity:0.88888891000000003;stroke:#000056;stroke-width:0.50000000000000000;stroke-linecap:butt;stroke-linejoin:miter;stroke-miterlimit:4;stroke-opacity:1;stroke-dasharray:none;opacity:0.87168142"
       d="m 212.5666,347.78029 26.87567,68.09397 -45,50 -35.56455,-76.8762 z"
       id="path3933"
       inkscape:connector-curvature="0"
       sodipodi:nodetypes="ccccc" />
    <path
       style="opacity:0.6460177;fill:#ffffff;fill-opacity:0.88888891;stroke:#000056;stroke-width:0.5;stroke-linecap:butt;stroke-linejoin:miter;stroke-miterlimit:4;stroke-opacity:1;stroke-dasharray:none"
       d="m 323.33517,429.06462 -0.0146,32.4589 -46.68111,63.52068 -0.20741,-34.04753 z"
       id="path3933-1"
       inkscape:connector-curvature="0"
       sodipodi:nodetypes="ccccc" />
    <text
       xml:space="preserve"
       style="font-size:12px;font-style:normal;font-variant:normal;font-weight:normal;font-stretch:normal;line-height:125%;letter-spacing:0px;word-spacing:0px;fill:#000000;fill-opacity:1;stroke:none;font-family:Arial;-inkscape-font-specification:Arial"
       x="127.1505"
       y="363.29517"
       id="text3029-8"
       sodipodi:linespacing="125%"><tspan
         sodipodi:role="line"
         id="tspan3031-4"
         x="127.1505"
         y="363.29517">x(0)</tspan></text>
    <text
       xml:space="preserve"
       style="font-size:12px;font-style:normal;font-variant:normal;font-weight:normal;font-stretch:normal;line-height:125%;letter-spacing:0px;word-spacing:0px;fill:#000000;fill-opacity:1;stroke:none;font-family:Arial;-inkscape-font-specification:Arial"
       x="301.50281"
       y="515.67883"
       id="text3029-8-3"
       sodipodi:linespacing="125%"><tspan
         sodipodi:role="line"
         id="tspan3031-4-1"
         x="301.50281"
         y="515.67883">x(t)</tspan></text>
    <path
       style="fill:#ffffff;fill-opacity:0.88888891000000003;stroke:#000056;stroke-width:0.50000000000000000;stroke-linecap:butt;stroke-linejoin:miter;stroke-miterlimit:4;stroke-opacity:1;stroke-dasharray:none;opacity:0.70353982"
       d="m 158.79842,389.12288 -32.65124,-0.43861 53.71937,-37.98713 32.2636,-2.43488 z"
       id="path3933-1-2"
       inkscape:connector-curvature="0"
       sodipodi:nodetypes="ccccc" />
    <path
       style="fill:none;stroke:#0000cd;stroke-width:1;stroke-linecap:butt;stroke-linejoin:round;stroke-miterlimit:4;stroke-opacity:1;stroke-dasharray:none;marker-mid:url(#Arrow1Mend-9);marker-end:none"
       d="m 157.83312,370.99149 c 21.164,15.61897 15.37417,32.35057 24.76229,53.31984 9.38812,20.96927 12.54891,20.06517 28.93481,31.22868"
       id="polyline364-9"
       inkscape:connector-curvature="0"
       sodipodi:nodetypes="czc" />
    <path
       sodipodi:type="arc"
       style="fill:#fdefef;fill-opacity:1;stroke:#000000;stroke-width:0.5;stroke-linecap:butt;stroke-linejoin:miter;stroke-miterlimit:4;stroke-opacity:1;stroke-dasharray:none"
       id="path5791-5-7-5-5"
       sodipodi:cx="105.93975"
       sodipodi:cy="69.428749"
       sodipodi:rx="2.1465743"
       sodipodi:ry="2.0203052"
       d="m 108.08632,69.428749 c 0,1.115784 -0.96105,2.020305 -2.14657,2.020305 -1.18552,0 -2.14657,-0.904521 -2.14657,-2.020305 0,-1.115784 0.96105,-2.020305 2.14657,-2.020305 1.18552,0 2.14657,0.904521 2.14657,2.020305 z"
       transform="matrix(0,-1,-1,0,227.44245,476.45687)" />
    <path
       style="fill:none;stroke:#0000cd;stroke-width:1;stroke-linecap:butt;stroke-linejoin:round;stroke-miterlimit:4;stroke-opacity:1;stroke-dasharray:none;marker-mid:url(#Arrow1Mend-9);marker-end:none"
       d="m 196.25662,471.70868 c 21.69229,22.50432 28.68236,29.32785 45.33301,34.25579 16.65065,4.92794 34.64928,-0.19861 44.40361,-2.48995"
       id="polyline364-8"
       inkscape:connector-curvature="0"
       sodipodi:nodetypes="czc" />
    <path
       sodipodi:type="arc"
       style="fill:#8d3333;fill-opacity:1;stroke:#000000;stroke-width:0.5;stroke-linecap:butt;stroke-linejoin:miter;stroke-miterlimit:4;stroke-opacity:1;stroke-dasharray:none"
       id="path5791-5-7-5-5-0"
       sodipodi:cx="105.93975"
       sodipodi:cy="69.428749"
       sodipodi:rx="2.1465743"
       sodipodi:ry="2.0203052"
       d="m 108.08632,69.428749 c 0,1.115784 -0.96105,2.020305 -2.14657,2.020305 -1.18552,0 -2.14657,-0.904521 -2.14657,-2.020305 0,-1.115784 0.96105,-2.020305 2.14657,-2.020305 1.18552,0 2.14657,0.904521 2.14657,2.020305 z"
       transform="matrix(0,-1,-1,0,265.2996,577.88544)" />
    <path
       sodipodi:type="arc"
       style="fill:#fdefef;fill-opacity:1;stroke:#000000;stroke-width:0.5;stroke-linecap:butt;stroke-linejoin:miter;stroke-miterlimit:4;stroke-opacity:1;stroke-dasharray:none"
       id="path5791-5-7-5-5-4"
       sodipodi:cx="105.93975"
       sodipodi:cy="69.428749"
       sodipodi:rx="2.1465743"
       sodipodi:ry="2.0203052"
       d="m 108.08632,69.428749 a 2.1465743,2.0203052 0 1 1 -4.29314,0 2.1465743,2.0203052 0 1 1 4.29314,0 z"
       transform="matrix(0,-1,-1,0,356.65202,609.46938)" />
    <text
       xml:space="preserve"
       style="font-size:12px;font-style:normal;font-variant:normal;font-weight:normal;font-stretch:normal;line-height:125%;letter-spacing:0px;word-spacing:0px;fill:#000000;fill-opacity:1;stroke:none;font-family:Arial;-inkscape-font-specification:Arial"
       x="444.48895"
       y="273.59824"
       id="text3029-8-3-6"
       sodipodi:linespacing="125%"
       transform="matrix(0.90061162,0.43462479,-0.43462479,0.90061162,0,0)"><tspan
         sodipodi:role="line"
         id="tspan3031-4-1-4"
         x="444.48895"
         y="273.59824">M1</tspan></text>
    <text
       xml:space="preserve"
       style="font-size:12px;font-style:normal;font-variant:normal;font-weight:normal;font-stretch:normal;line-height:125%;letter-spacing:0px;word-spacing:0px;fill:#000000;fill-opacity:1;stroke:none;font-family:Arial;-inkscape-font-specification:Arial"
       x="418.36389"
       y="1.4565474"
       id="text3029-8-3-6-6"
       sodipodi:linespacing="125%"
       transform="matrix(0.47849389,0.87809088,-0.87809088,0.47849389,0,0)"><tspan
         sodipodi:role="line"
         id="tspan3031-4-1-4-6"
         x="418.36389"
         y="1.4565474">M1</tspan></text>
    <text
       xml:space="preserve"
       style="font-size:12px;font-style:normal;font-variant:normal;font-weight:normal;font-stretch:normal;line-height:125%;letter-spacing:0px;word-spacing:0px;fill:#000000;fill-opacity:1;stroke:none;font-family:Arial;-inkscape-font-specification:Arial"
       x="173.59102"
       y="470.84198"
       id="text3029-8-9"
       sodipodi:linespacing="125%"><tspan
         sodipodi:role="line"
         id="tspan3031-4-9"
         x="173.59102"
         y="470.84198">x2</tspan></text>
    <path
       style="fill:none;stroke:#0000cd;stroke-width:1;stroke-linecap:butt;stroke-linejoin:round;stroke-miterlimit:4;stroke-opacity:1;stroke-dasharray:none;marker-mid:url(#Arrow1Mend-9);marker-end:none"
       d="m 212.41454,455.83418 c 15.18072,23.46005 40.11725,45.56022 61.02482,19.82666 20.90758,-25.73357 -11.31029,-38.08169 -50.47219,-34.64081"
       id="polyline364-8-1"
       inkscape:connector-curvature="0"
       sodipodi:nodetypes="czc" />
    <path
       style="fill:none;stroke:#0000cd;stroke-width:1;stroke-linecap:butt;stroke-linejoin:round;stroke-miterlimit:4;stroke-opacity:1;stroke-dasharray:none;marker-mid:url(#Arrow1Mend-9);marker-end:none"
       d="m 222.28636,439.74154 c -5.1969,-28.32401 -27.97527,-73.31961 -55.46897,-41.03987 -27.4937,32.27974 17.87626,50.96116 28.50135,71.25885"
       id="polyline364-8-1-5"
       inkscape:connector-curvature="0"
       sodipodi:nodetypes="czc" />
    <path
       sodipodi:type="arc"
       style="fill:#fdef83;fill-opacity:1;stroke:#000000;stroke-width:0.5;stroke-linecap:butt;stroke-linejoin:miter;stroke-miterlimit:4;stroke-opacity:1;stroke-dasharray:none"
       id="path5791-5-7-5-5-4-3"
       sodipodi:cx="105.93975"
       sodipodi:cy="69.428749"
       sodipodi:rx="2.1465743"
       sodipodi:ry="2.0203052"
       d="m 108.08632,69.428749 a 2.1465743,2.0203052 0 1 1 -4.29314,0 2.1465743,2.0203052 0 1 1 4.29314,0 z"
       transform="matrix(0,-1,-1,0,291.82344,546.47447)" />
    <path
       sodipodi:type="arc"
       style="fill:#8d3333;fill-opacity:1;stroke:#000000;stroke-width:0.5;stroke-linecap:butt;stroke-linejoin:miter;stroke-miterlimit:4;stroke-opacity:1;stroke-dasharray:none"
       id="path5791-5-7-5-5-0-0"
       sodipodi:cx="105.93975"
       sodipodi:cy="69.428749"
       sodipodi:rx="2.1465743"
       sodipodi:ry="2.0203052"
       d="m 108.08632,69.428749 a 2.1465743,2.0203052 0 1 1 -4.29314,0 2.1465743,2.0203052 0 1 1 4.29314,0 z"
       transform="matrix(0,-1,-1,0,280.9643,561.12168)" />
    <text
       xml:space="preserve"
       style="font-size:12px;font-style:normal;font-variant:normal;font-weight:normal;font-stretch:normal;line-height:125%;letter-spacing:0px;word-spacing:0px;fill:#000000;fill-opacity:1;stroke:none;font-family:Arial;-inkscape-font-specification:Arial"
       x="220.30696"
       y="459.29755"
       id="text3029-8-9-0"
       sodipodi:linespacing="125%"><tspan
         sodipodi:role="line"
         id="tspan3031-4-9-6"
         x="220.30696"
         y="459.29755">x1</tspan></text>
  </g>
</svg>
