<?xml version="1.0" encoding="UTF-8" standalone="no"?>
<!-- Created with Inkscape (http://www.inkscape.org/) -->

<svg
   xmlns:osb="http://www.openswatchbook.org/uri/2009/osb"
   xmlns:dc="http://purl.org/dc/elements/1.1/"
   xmlns:cc="http://creativecommons.org/ns#"
   xmlns:rdf="http://www.w3.org/1999/02/22-rdf-syntax-ns#"
   xmlns:svg="http://www.w3.org/2000/svg"
   xmlns="http://www.w3.org/2000/svg"
   xmlns:xlink="http://www.w3.org/1999/xlink"
   xmlns:sodipodi="http://sodipodi.sourceforge.net/DTD/sodipodi-0.dtd"
   xmlns:inkscape="http://www.inkscape.org/namespaces/inkscape"
   width="209.21887"
   height="138.65625"
   id="svg5320"
   version="1.1"
   inkscape:version="0.48.1 "
   sodipodi:docname="A29-2charts.pdf">
  <defs
     id="defs5322">
    <linearGradient
       id="linearGradient5655"
       osb:paint="solid">
      <stop
         style="stop-color:#ffffff;stop-opacity:1;"
         offset="0"
         id="stop5657" />
    </linearGradient>
    <pattern
       inkscape:collect="always"
       xlink:href="#Strips2_1"
       id="pattern5651"
       patternTransform="matrix(10,0,0,10,175.40625,-409.09375)" />
    <pattern
       inkscape:stockid="Stripes 2:1"
       id="Strips2_1"
       patternTransform="translate(0,0) scale(10,10)"
       height="1"
       width="1.5"
       patternUnits="userSpaceOnUse"
       inkscape:collect="always">
      <rect
         id="rect4978"
         height="2"
         width="1"
         y="-0.5"
         x="0"
         style="fill:black;stroke:none" />
    </pattern>
    <marker
       inkscape:stockid="Arrow1Mend"
       orient="auto"
       refY="0"
       refX="0"
       id="Arrow1Mend"
       style="overflow:visible">
      <path
         inkscape:connector-curvature="0"
         id="path4437"
         d="M 0,0 5,-5 -12.5,0 5,5 0,0 z"
         style="fill-rule:evenodd;stroke:#000000;stroke-width:1pt;marker-start:none"
         transform="matrix(-0.4,0,0,-0.4,-4,0)" />
    </marker>
    <marker
       inkscape:stockid="Arrow1Mend"
       orient="auto"
       refY="0"
       refX="0"
       id="Arrow1Mend-3"
       style="overflow:visible">
      <path
         inkscape:connector-curvature="0"
         id="path4437-9"
         d="M 0,0 5,-5 -12.5,0 5,5 0,0 z"
         style="fill-rule:evenodd;stroke:#000000;stroke-width:1pt;marker-start:none"
         transform="matrix(-0.4,0,0,-0.4,-4,0)" />
    </marker>
    <pattern
       patternUnits="userSpaceOnUse"
       width="132.1875"
       height="65.25"
       patternTransform="translate(-175.40625,409.09375)"
       id="pattern5648">
      <path
         sodipodi:nodetypes="ccccc"
         inkscape:connector-curvature="0"
         id="path3933-7-1-9"
         d="m 1.04727,36.72698 85.163763,27.93786 44.999997,-50 -84.0952,-14.14213 z"
         style="fill:url(#pattern5651);fill-opacity:1;stroke:#000056;stroke-width:1px;stroke-linecap:butt;stroke-linejoin:miter;stroke-opacity:1" />
    </pattern>
    <marker
       inkscape:stockid="Arrow1Mend"
       orient="auto"
       refY="0"
       refX="0"
       id="Arrow1Mend-9"
       style="overflow:visible">
      <path
         inkscape:connector-curvature="0"
         id="path4437-2"
         d="M 0,0 5,-5 -12.5,0 5,5 0,0 z"
         style="fill-rule:evenodd;stroke:#000000;stroke-width:1pt;marker-start:none"
         transform="matrix(-0.4,0,0,-0.4,-4,0)" />
    </marker>
    <marker
       inkscape:stockid="Arrow1Mend"
       orient="auto"
       refY="0"
       refX="0"
       id="Arrow1Mend-9-3"
       style="overflow:visible">
      <path
         inkscape:connector-curvature="0"
         id="path4437-2-7"
         d="M 0,0 5,-5 -12.5,0 5,5 0,0 z"
         style="fill-rule:evenodd;stroke:#000000;stroke-width:1pt;marker-start:none"
         transform="matrix(-0.4,0,0,-0.4,-4,0)" />
    </marker>
    <marker
       inkscape:stockid="Arrow1Mend"
       orient="auto"
       refY="0"
       refX="0"
       id="Arrow1Mend-9-0"
       style="overflow:visible">
      <path
         inkscape:connector-curvature="0"
         id="path4437-2-2"
         d="M 0,0 5,-5 -12.5,0 5,5 0,0 z"
         style="fill-rule:evenodd;stroke:#000000;stroke-width:1pt;marker-start:none"
         transform="matrix(-0.4,0,0,-0.4,-4,0)" />
    </marker>
    <marker
       inkscape:stockid="Arrow1Mend"
       orient="auto"
       refY="0"
       refX="0"
       id="Arrow1Mend-9-38"
       style="overflow:visible">
      <path
         inkscape:connector-curvature="0"
         id="path4437-2-22"
         d="M 0,0 5,-5 -12.5,0 5,5 0,0 z"
         style="fill-rule:evenodd;stroke:#000000;stroke-width:1pt;marker-start:none"
         transform="matrix(-0.4,0,0,-0.4,-4,0)" />
    </marker>
    <marker
       inkscape:stockid="Arrow1Mend"
       orient="auto"
       refY="0"
       refX="0"
       id="Arrow1Mend-9-385"
       style="overflow:visible">
      <path
         inkscape:connector-curvature="0"
         id="path4437-2-8"
         d="M 0,0 5,-5 -12.5,0 5,5 0,0 z"
         style="fill-rule:evenodd;stroke:#000000;stroke-width:1pt;marker-start:none"
         transform="matrix(-0.4,0,0,-0.4,-4,0)" />
    </marker>
    <marker
       inkscape:stockid="Arrow1Mend"
       orient="auto"
       refY="0"
       refX="0"
       id="Arrow1Mend-9-02"
       style="overflow:visible">
      <path
         inkscape:connector-curvature="0"
         id="path4437-2-6"
         d="M 0,0 5,-5 -12.5,0 5,5 0,0 z"
         style="fill-rule:evenodd;stroke:#000000;stroke-width:1pt;marker-start:none"
         transform="matrix(-0.4,0,0,-0.4,-4,0)" />
    </marker>
    <marker
       inkscape:stockid="Arrow1Mend"
       orient="auto"
       refY="0"
       refX="0"
       id="marker6501"
       style="overflow:visible">
      <path
         inkscape:connector-curvature="0"
         id="path6503"
         d="M 0,0 5,-5 -12.5,0 5,5 0,0 z"
         style="fill-rule:evenodd;stroke:#000000;stroke-width:1pt;marker-start:none"
         transform="matrix(-0.4,0,0,-0.4,-4,0)" />
    </marker>
    <marker
       inkscape:stockid="Arrow1Mend"
       orient="auto"
       refY="0"
       refX="0"
       id="marker6505"
       style="overflow:visible">
      <path
         inkscape:connector-curvature="0"
         id="path6507"
         d="M 0,0 5,-5 -12.5,0 5,5 0,0 z"
         style="fill-rule:evenodd;stroke:#000000;stroke-width:1pt;marker-start:none"
         transform="matrix(-0.4,0,0,-0.4,-4,0)" />
    </marker>
    <marker
       inkscape:stockid="Arrow1Mend"
       orient="auto"
       refY="0"
       refX="0"
       id="Arrow1Mend-9-2"
       style="overflow:visible">
      <path
         inkscape:connector-curvature="0"
         id="path4437-2-5"
         d="M 0,0 5,-5 -12.5,0 5,5 0,0 z"
         style="fill-rule:evenodd;stroke:#000000;stroke-width:1pt;marker-start:none"
         transform="matrix(-0.4,0,0,-0.4,-4,0)" />
    </marker>
    <marker
       inkscape:stockid="Arrow1Mend"
       orient="auto"
       refY="0"
       refX="0"
       id="Arrow1Mend-9-1"
       style="overflow:visible">
      <path
         inkscape:connector-curvature="0"
         id="path4437-2-71"
         d="M 0,0 5,-5 -12.5,0 5,5 0,0 z"
         style="fill-rule:evenodd;stroke:#000000;stroke-width:1pt;marker-start:none"
         transform="matrix(-0.4,0,0,-0.4,-4,0)" />
    </marker>
    <marker
       inkscape:stockid="Arrow1Mend"
       orient="auto"
       refY="0"
       refX="0"
       id="Arrow1Mend-9-1-0"
       style="overflow:visible">
      <path
         inkscape:connector-curvature="0"
         id="path4437-2-71-4"
         d="M 0,0 5,-5 -12.5,0 5,5 0,0 z"
         style="fill-rule:evenodd;stroke:#000000;stroke-width:1pt;marker-start:none"
         transform="matrix(-0.4,0,0,-0.4,-4,0)" />
    </marker>
    <marker
       inkscape:stockid="Arrow1Mend"
       orient="auto"
       refY="0"
       refX="0"
       id="Arrow1Mend-9-8"
       style="overflow:visible">
      <path
         inkscape:connector-curvature="0"
         id="path4437-2-1"
         d="M 0,0 5,-5 -12.5,0 5,5 0,0 z"
         style="fill-rule:evenodd;stroke:#000000;stroke-width:1pt;marker-start:none"
         transform="matrix(-0.4,0,0,-0.4,-4,0)" />
    </marker>
    <marker
       inkscape:stockid="Arrow1Mend"
       orient="auto"
       refY="0"
       refX="0"
       id="Arrow1Mend-9-9"
       style="overflow:visible">
      <path
         inkscape:connector-curvature="0"
         id="path4437-2-83"
         d="M 0,0 5,-5 -12.5,0 5,5 0,0 z"
         style="fill-rule:evenodd;stroke:#000000;stroke-width:1pt;marker-start:none"
         transform="matrix(-0.4,0,0,-0.4,-4,0)" />
    </marker>
  </defs>
  <sodipodi:namedview
     id="base"
     pagecolor="#ffffff"
     bordercolor="#666666"
     borderopacity="1.0"
     inkscape:pageopacity="0.0"
     inkscape:pageshadow="2"
     inkscape:zoom="2.8"
     inkscape:cx="100.53753"
     inkscape:cy="64.127255"
     inkscape:document-units="px"
     inkscape:current-layer="layer1"
     showgrid="false"
     fit-margin-top="0"
     fit-margin-left="0"
     fit-margin-right="0"
     fit-margin-bottom="0"
     inkscape:window-width="804"
     inkscape:window-height="805"
     inkscape:window-x="682"
     inkscape:window-y="66"
     inkscape:window-maximized="0">
    <inkscape:grid
       type="xygrid"
       id="grid4083"
       empspacing="5"
       visible="true"
       enabled="true"
       snapvisiblegridlinesonly="true" />
  </sodipodi:namedview>
  <metadata
     id="metadata5325">
    <rdf:RDF>
      <cc:Work
         rdf:about="">
        <dc:format>image/svg+xml</dc:format>
        <dc:type
           rdf:resource="http://purl.org/dc/dcmitype/StillImage" />
        <dc:title></dc:title>
      </cc:Work>
    </rdf:RDF>
  </metadata>
  <g
     inkscape:label="Layer 1"
     inkscape:groupmode="layer"
     id="layer1"
     transform="translate(-300.74988,-283.09375)">
    <rect
       style="fill:none;stroke:#000056;stroke-width:0.5;stroke-miterlimit:4;stroke-opacity:1;stroke-dasharray:none"
       id="rect3111"
       width="84.34774"
       height="73.741135"
       x="331.01801"
       y="347.75894" />
    <rect
       style="fill:none;stroke:#000056;stroke-width:0.5;stroke-miterlimit:4;stroke-opacity:1;stroke-dasharray:none"
       id="rect3111-1"
       width="84.34774"
       height="73.741135"
       x="425.36575"
       y="347.75894" />
    <text
       xml:space="preserve"
       style="font-size:12px;font-style:normal;font-variant:normal;font-weight:normal;font-stretch:normal;line-height:125%;letter-spacing:0px;word-spacing:0px;fill:#000000;fill-opacity:1;stroke:none;font-family:Arial;-inkscape-font-specification:Arial"
       x="335.87082"
       y="413.7691"
       id="text3899"
       sodipodi:linespacing="125%"><tspan
         sodipodi:role="line"
         id="tspan3901"
         x="335.87082"
         y="413.7691">(1)</tspan></text>
    <text
       xml:space="preserve"
       style="font-size:12px;font-style:normal;font-variant:normal;font-weight:normal;font-stretch:normal;line-height:125%;letter-spacing:0px;word-spacing:0px;fill:#000000;fill-opacity:1;stroke:none;font-family:Arial;-inkscape-font-specification:Arial"
       x="433.20801"
       y="413.9783"
       id="text3903"
       sodipodi:linespacing="125%"><tspan
         sodipodi:role="line"
         id="tspan3905"
         x="433.20801"
         y="413.9783">(2)</tspan></text>
    <path
       style="fill:none;stroke:#0000cd;stroke-width:1;stroke-linecap:butt;stroke-linejoin:round;stroke-miterlimit:4;stroke-opacity:1;stroke-dasharray:none;marker-mid:url(#Arrow1Mend-9);marker-end:none"
       d="m 343.48104,369.72028 c 1.31433,26.65054 16.18471,38.62737 33.08496,37.7762 20.6128,-0.3186 29.04969,-14.46143 37.89071,-30.4775"
       id="polyline364-9"
       inkscape:connector-curvature="0"
       sodipodi:nodetypes="ccc" />
    <path
       sodipodi:type="arc"
       style="fill:#8d3333;fill-opacity:1;stroke:#000000;stroke-width:0.5;stroke-linecap:butt;stroke-linejoin:miter;stroke-miterlimit:4;stroke-opacity:1;stroke-dasharray:none"
       id="path5791-5-7-5-5-3"
       sodipodi:cx="105.93975"
       sodipodi:cy="69.428749"
       sodipodi:rx="2.1465743"
       sodipodi:ry="2.0203052"
       d="m 108.08632,69.428749 a 2.1465743,2.0203052 0 1 1 -4.29314,0 2.1465743,2.0203052 0 1 1 4.29314,0 z"
       transform="matrix(0,-1,-1,0,484.43737,482.63099)" />
    <path
       style="fill:none;stroke:#0000cd;stroke-width:1;stroke-linecap:butt;stroke-linejoin:round;stroke-miterlimit:4;stroke-opacity:1;stroke-dasharray:none;marker-mid:url(#Arrow1Mend-9);marker-end:none"
       d="m 425.59727,377.62743 c 4.78729,15.15398 45.34821,-0.80163 46.32187,24.30336 16.976,35.58037 54.9966,-13.13693 2.45393,-48.67291"
       id="polyline364-8"
       inkscape:connector-curvature="0"
       sodipodi:nodetypes="ccc" />
    <path
       sodipodi:type="arc"
       style="fill:#8d3333;fill-opacity:1;stroke:#000000;stroke-width:0.5;stroke-linecap:butt;stroke-linejoin:miter;stroke-miterlimit:4;stroke-opacity:1;stroke-dasharray:none"
       id="path5791-5-7-5-5-8"
       sodipodi:cx="105.93975"
       sodipodi:cy="69.428749"
       sodipodi:rx="2.1465743"
       sodipodi:ry="2.0203052"
       d="m 108.08632,69.428749 a 2.1465743,2.0203052 0 1 1 -4.29314,0 2.1465743,2.0203052 0 1 1 4.29314,0 z"
       transform="matrix(0,-1,-1,0,495.15165,482.98814)" />
    <path
       sodipodi:type="arc"
       style="fill:#fdefef;fill-opacity:1;stroke:#000000;stroke-width:0.5;stroke-linecap:butt;stroke-linejoin:miter;stroke-miterlimit:4;stroke-opacity:1;stroke-dasharray:none"
       id="path5791-5-7-5-5-1"
       sodipodi:cx="105.93975"
       sodipodi:cy="69.428749"
       sodipodi:rx="2.1465743"
       sodipodi:ry="2.0203052"
       d="m 108.08632,69.428749 a 2.1465743,2.0203052 0 1 1 -4.29314,0 2.1465743,2.0203052 0 1 1 4.29314,0 z"
       transform="matrix(-0.83556682,-0.54938883,-0.54938883,0.83556682,470.49292,369.04141)" />
    <path
       sodipodi:type="arc"
       style="fill:#fdefef;fill-opacity:1;stroke:#000000;stroke-width:0.5;stroke-linecap:butt;stroke-linejoin:miter;stroke-miterlimit:4;stroke-opacity:1;stroke-dasharray:none"
       id="path5791-5-7-5-5-4-7"
       sodipodi:cx="105.93975"
       sodipodi:cy="69.428749"
       sodipodi:rx="2.1465743"
       sodipodi:ry="2.0203052"
       d="m 108.08632,69.428749 a 2.1465743,2.0203052 0 1 1 -4.29314,0 2.1465743,2.0203052 0 1 1 4.29314,0 z"
       transform="matrix(-0.83556682,-0.54938883,-0.54938883,0.83556682,602.51082,354.56375)" />
    <text
       xml:space="preserve"
       style="font-size:12px;font-style:normal;font-variant:normal;font-weight:normal;font-stretch:normal;line-height:125%;letter-spacing:0px;word-spacing:0px;fill:#000000;fill-opacity:1;stroke:none;font-family:Arial;-inkscape-font-specification:Arial"
       x="346.91916"
       y="361.94305"
       id="text3029-8-5"
       sodipodi:linespacing="125%"><tspan
         sodipodi:role="line"
         id="tspan3031-4-2"
         x="346.91916"
         y="361.94305">x(0)</tspan></text>
    <text
       xml:space="preserve"
       style="font-size:12px;font-style:normal;font-variant:normal;font-weight:normal;font-stretch:normal;line-height:125%;letter-spacing:0px;word-spacing:0px;fill:#000000;fill-opacity:1;stroke:none;font-family:Arial;-inkscape-font-specification:Arial"
       x="459.94556"
       y="369.78278"
       id="text3029-8-3-9"
       sodipodi:linespacing="125%"><tspan
         sodipodi:role="line"
         id="tspan3031-4-1-9"
         x="459.94556"
         y="369.78278">x(t)</tspan></text>
    <path
       sodipodi:type="arc"
       style="fill:#fdefef;fill-opacity:1;stroke:#000000;stroke-width:0.5;stroke-linecap:butt;stroke-linejoin:miter;stroke-miterlimit:4;stroke-opacity:1;stroke-dasharray:none"
       id="path5791-5-7-5-5-1-6"
       sodipodi:cx="105.93975"
       sodipodi:cy="69.428749"
       sodipodi:rx="2.1465743"
       sodipodi:ry="2.0203052"
       d="m 108.08632,69.428749 a 2.1465743,2.0203052 0 1 1 -4.29314,0 2.1465743,2.0203052 0 1 1 4.29314,0 z"
       transform="matrix(-0.83556682,-0.54938883,-0.54938883,0.83556682,542.19828,403.461)" />
    <path
       sodipodi:type="arc"
       style="fill:#fdefef;fill-opacity:1;stroke:#000000;stroke-width:0.5;stroke-linecap:butt;stroke-linejoin:miter;stroke-miterlimit:4;stroke-opacity:1;stroke-dasharray:none"
       id="path5791-5-7-5-5-1-61"
       sodipodi:cx="105.93975"
       sodipodi:cy="69.428749"
       sodipodi:rx="2.1465743"
       sodipodi:ry="2.0203052"
       d="m 108.08632,69.428749 a 2.1465743,2.0203052 0 1 1 -4.29314,0 2.1465743,2.0203052 0 1 1 4.29314,0 z"
       transform="matrix(-0.83556682,-0.54938883,-0.54938883,0.83556682,552.35131,355.45157)" />
    <text
       xml:space="preserve"
       style="font-size:12px;font-style:normal;font-variant:normal;font-weight:normal;font-stretch:normal;line-height:125%;letter-spacing:0px;word-spacing:0px;fill:#000000;fill-opacity:1;stroke:none;font-family:Arial;-inkscape-font-specification:Arial"
       x="428.84732"
       y="366.67075"
       id="text3029-5-8"
       sodipodi:linespacing="125%"><tspan
         sodipodi:role="line"
         id="tspan3031-8-2"
         x="428.84732"
         y="366.67075">x'2</tspan></text>
    <text
       xml:space="preserve"
       style="font-size:12px;font-style:normal;font-variant:normal;font-weight:normal;font-stretch:normal;line-height:125%;letter-spacing:0px;word-spacing:0px;fill:#000000;fill-opacity:1;stroke:none;font-family:Arial;-inkscape-font-specification:Arial"
       x="397.42322"
       y="415.52319"
       id="text3029-6"
       sodipodi:linespacing="125%"><tspan
         sodipodi:role="line"
         id="tspan3031-81"
         x="397.42322"
         y="415.52319">x'1</tspan></text>
    <path
       style="fill:none;stroke:#272f5b;stroke-width:2;stroke-linecap:butt;stroke-linejoin:round;stroke-miterlimit:4;stroke-opacity:1;stroke-dasharray:none;marker-mid:none;marker-end:url(#Arrow1Mend-9-1)"
       d="m 499.99258,315.26717 c -0.36905,8.7984 -2.33942,15.73663 -5.37637,27.60113"
       id="polyline364-9-5-5-9"
       inkscape:connector-curvature="0"
       sodipodi:nodetypes="cc" />
    <path
       style="fill:none;stroke:#272f5b;stroke-width:1.8982619;stroke-linecap:butt;stroke-linejoin:round;stroke-miterlimit:4;stroke-opacity:1;stroke-dasharray:none;marker-mid:none;marker-end:url(#Arrow1Mend-9-1)"
       d="m 322.53939,316.86706 c -11.2788,9.49305 -19.52669,22.34552 -19.37153,38.48873 1.10168,15.34594 7.30806,20.52192 23.39449,27.95252"
       id="polyline364-9-5-5-9-1"
       inkscape:connector-curvature="0"
       sodipodi:nodetypes="ccc" />
    <path
       sodipodi:type="arc"
       style="fill:#fdefef;fill-opacity:1;stroke:#000000;stroke-width:0.5;stroke-linecap:butt;stroke-linejoin:miter;stroke-miterlimit:4;stroke-opacity:1;stroke-dasharray:none"
       id="path5791-5-7-5-5-1-6-7"
       sodipodi:cx="105.93975"
       sodipodi:cy="69.428749"
       sodipodi:rx="2.1465743"
       sodipodi:ry="2.0203052"
       d="m 108.08632,69.428749 a 2.1465743,2.0203052 0 1 1 -4.29314,0 2.1465743,2.0203052 0 1 1 4.29314,0 z"
       transform="matrix(-0.83556682,-0.54938883,-0.54938883,0.83556682,542.05585,355.51119)" />
    <path
       sodipodi:type="arc"
       style="fill:#fdefef;fill-opacity:1;stroke:#000000;stroke-width:0.5;stroke-linecap:butt;stroke-linejoin:miter;stroke-miterlimit:4;stroke-opacity:1;stroke-dasharray:none"
       id="path5791-5-7-5-5-1-6-3"
       sodipodi:cx="105.93975"
       sodipodi:cy="69.428749"
       sodipodi:rx="2.1465743"
       sodipodi:ry="2.0203052"
       d="m 108.08632,69.428749 a 2.1465743,2.0203052 0 1 1 -4.29314,0 2.1465743,2.0203052 0 1 1 4.29314,0 z"
       transform="matrix(-0.83556682,-0.54938883,-0.54938883,0.83556682,552.05586,403.72548)" />
  </g>
</svg>
