<?xml version="1.0" encoding="UTF-8" standalone="no"?>
<!-- Created with Inkscape (http://www.inkscape.org/) -->

<svg
   xmlns:dc="http://purl.org/dc/elements/1.1/"
   xmlns:cc="http://creativecommons.org/ns#"
   xmlns:rdf="http://www.w3.org/1999/02/22-rdf-syntax-ns#"
   xmlns:svg="http://www.w3.org/2000/svg"
   xmlns="http://www.w3.org/2000/svg"
   xmlns:sodipodi="http://sodipodi.sourceforge.net/DTD/sodipodi-0.dtd"
   xmlns:inkscape="http://www.inkscape.org/namespaces/inkscape"
   width="166.78"
   height="190.31"
   id="svg5086"
   version="1.1"
   inkscape:version="0.48.1 "
   sodipodi:docname="A29-2tmplSl.svg">
  <defs
     id="defs5088">
    <marker
       inkscape:stockid="Arrow1Mend"
       orient="auto"
       refY="0"
       refX="0"
       id="Arrow1Mend"
       style="overflow:visible">
      <path
         inkscape:connector-curvature="0"
         id="path4437"
         d="M 0,0 5,-5 -12.5,0 5,5 0,0 z"
         style="fill-rule:evenodd;stroke:#000000;stroke-width:1pt;marker-start:none"
         transform="matrix(-0.4,0,0,-0.4,-4,0)" />
    </marker>
    <marker
       inkscape:stockid="Arrow1Mend"
       orient="auto"
       refY="0"
       refX="0"
       id="Arrow1Mend-6"
       style="overflow:visible">
      <path
         inkscape:connector-curvature="0"
         id="path4437-9"
         d="M 0,0 5,-5 -12.5,0 5,5 0,0 z"
         style="fill-rule:evenodd;stroke:#000000;stroke-width:1pt;marker-start:none"
         transform="matrix(-0.4,0,0,-0.4,-4,0)" />
    </marker>
    <marker
       inkscape:stockid="Arrow1Mend"
       orient="auto"
       refY="0"
       refX="0"
       id="Arrow1Mend-0"
       style="overflow:visible">
      <path
         inkscape:connector-curvature="0"
         id="path4437-7"
         d="M 0,0 5,-5 -12.5,0 5,5 0,0 z"
         style="fill-rule:evenodd;stroke:#000000;stroke-width:1pt;marker-start:none"
         transform="matrix(-0.4,0,0,-0.4,-4,0)" />
    </marker>
    <marker
       inkscape:stockid="Arrow1Mend"
       orient="auto"
       refY="0"
       refX="0"
       id="Arrow1Mend-7"
       style="overflow:visible">
      <path
         inkscape:connector-curvature="0"
         id="path4437-71"
         d="M 0,0 5,-5 -12.5,0 5,5 0,0 z"
         style="fill-rule:evenodd;stroke:#000000;stroke-width:1pt;marker-start:none"
         transform="matrix(-0.4,0,0,-0.4,-4,0)" />
    </marker>
  </defs>
  <sodipodi:namedview
     id="base"
     pagecolor="#ffffff"
     bordercolor="#666666"
     borderopacity="1.0"
     inkscape:pageopacity="0.0"
     inkscape:pageshadow="2"
     inkscape:zoom="1.979899"
     inkscape:cx="80.853704"
     inkscape:cy="10.707855"
     inkscape:document-units="px"
     inkscape:current-layer="layer1"
     showgrid="false"
     inkscape:window-width="1242"
     inkscape:window-height="1093"
     inkscape:window-x="1452"
     inkscape:window-y="21"
     inkscape:window-maximized="0"
     fit-margin-top="0"
     fit-margin-left="0"
     fit-margin-right="0"
     fit-margin-bottom="0"
     inkscape:snap-to-guides="true">
    <inkscape:grid
       type="xygrid"
       id="grid3977"
       empspacing="5"
       visible="true"
       enabled="true"
       snapvisiblegridlinesonly="true" />
  </sodipodi:namedview>
  <metadata
     id="metadata5091">
    <rdf:RDF>
      <cc:Work
         rdf:about="">
        <dc:format>image/svg+xml</dc:format>
        <dc:type
           rdf:resource="http://purl.org/dc/dcmitype/StillImage" />
        <dc:title />
      </cc:Work>
    </rdf:RDF>
  </metadata>
  <g
     inkscape:label="Layer 1"
     inkscape:groupmode="layer"
     id="layer1"
     transform="translate(-301.22457,-257.40875)">
    <path
       style="fill:none;stroke:#a30000;stroke-width:1;stroke-linecap:round;stroke-linejoin:round;stroke-miterlimit:4;stroke-opacity:1;stroke-dasharray:1, 2;stroke-dashoffset:0"
       d="m 371.47325,418.04941 c 12.50821,-2.16265 9.54024,-2.65166 15.43882,-5.30848"
       id="path3888"
       inkscape:connector-curvature="0"
       sodipodi:nodetypes="cc" />
    <path
       inkscape:connector-curvature="0"
       style="fill:none;stroke:#a30000;stroke-width:1;stroke-linecap:round;stroke-linejoin:round;stroke-miterlimit:4;stroke-opacity:1;stroke-dasharray:1, 2;stroke-dashoffset:0"
       d="m 361.94205,364.89791 c -6.51298,2.05776 -4.89834,0.66934 -13.23615,4.44893"
       id="path3894"
       sodipodi:nodetypes="cc"
       inkscape:transform-center-x="0.7576144" />
    <path
       inkscape:connector-curvature="0"
       style="fill:none;stroke:#a30000;stroke-width:1;stroke-linecap:round;stroke-linejoin:round;stroke-miterlimit:4;stroke-opacity:1;stroke-dasharray:1, 2;stroke-dashoffset:0"
       d="m 406.0919,349.85146 c -7.86637,-1.45845 -13.51022,-5.415 -12.09042,-16.16178"
       id="path3894-1"
       sodipodi:nodetypes="cc"
       inkscape:transform-center-y="-0.51274"
       inkscape:transform-center-x="0.557745" />
    <path
       style="opacity:0.63274387;fill:#ffffff;fill-opacity:1;stroke:#000056;stroke-width:0.5;stroke-linecap:butt;stroke-linejoin:miter;stroke-miterlimit:4;stroke-opacity:1;stroke-dasharray:none"
       d="m 421.69421,389.22095 -36.87057,57.57868 -31.5268,-68.58028 -37.35026,-79.19763 53.68888,-41.21777 28.66139,70.4154 z"
       id="path3933-5"
       inkscape:connector-curvature="0"
       sodipodi:nodetypes="ccccccc" />
    <path
       style="opacity:0.63274387;fill:#e30017;fill-opacity:0.96825412;stroke:#000056;stroke-width:0.5;stroke-linecap:butt;stroke-linejoin:miter;stroke-miterlimit:4;stroke-opacity:1;stroke-dasharray:none"
       d="m 411.88583,404.61961 -27.22771,42.57868 -20.09823,-45.54456 z"
       id="path3933-5-3"
       inkscape:connector-curvature="0"
       sodipodi:nodetypes="cccc" />
    <path
       sodipodi:type="arc"
       style="fill:#faefef;fill-opacity:1;stroke:#000000;stroke-width:0.5;stroke-linecap:butt;stroke-linejoin:miter;stroke-miterlimit:4;stroke-opacity:1;stroke-dasharray:none"
       id="path5791-5-7-3"
       sodipodi:cx="105.93975"
       sodipodi:cy="69.428749"
       sodipodi:rx="2.1465743"
       sodipodi:ry="2.0203052"
       d="m 108.08632,69.428749 c 0,1.115784 -0.96105,2.020305 -2.14657,2.020305 -1.18552,0 -2.14657,-0.904521 -2.14657,-2.020305 0,-1.115784 0.96105,-2.020305 2.14657,-2.020305 1.18552,0 2.14657,0.904521 2.14657,2.020305 z"
       transform="matrix(0.98724556,-0.15920491,0.15920491,0.98724556,272.95489,359.89193)" />
    <path
       style="fill:none;stroke:#a30000;stroke-width:1;stroke-linecap:round;stroke-linejoin:round;stroke-opacity:1"
       d="m 388.94857,411.33439 c 4.77845,-4.20173 8.12664,-4.03595 10.60471,-9.53259 2.47807,-5.49663 2.73705,-9.74713 -2.81328,-16.07025 -5.55033,-6.32312 -1.82035,-12.95667 -8.62187,-18.32262 -6.80151,-5.36595 -12.85739,-5.22018 -21.23077,-3.88819"
       id="polyline4211-3"
       inkscape:connector-curvature="0"
       sodipodi:nodetypes="czzzc" />
    <g
       id="g3041"
       transform="translate(159.72669,-90.306735)">
      <g
         transform="translate(-9.6428567,10.714286)"
         id="g3966">
        <path
           sodipodi:type="arc"
           style="fill:#faefef;fill-opacity:1;stroke:#000000;stroke-width:0.5;stroke-linecap:butt;stroke-linejoin:miter;stroke-miterlimit:4;stroke-opacity:1;stroke-dasharray:none"
           id="path5791-5-7-5"
           sodipodi:cx="105.93975"
           sodipodi:cy="69.428749"
           sodipodi:rx="2.1465743"
           sodipodi:ry="2.0203052"
           d="m 108.08632,69.428749 c 0,1.115784 -0.96105,2.020305 -2.14657,2.020305 -1.18552,0 -2.14657,-0.904521 -2.14657,-2.020305 0,-1.115784 0.96105,-2.020305 2.14657,-2.020305 1.18552,0 2.14657,0.904521 2.14657,2.020305 z"
           transform="matrix(0,-1,-1,0,284.18139,549.26989)" />
        <path
           style="fill:none;stroke:#000000;stroke-width:1.5;stroke-linecap:round;stroke-linejoin:round;stroke-miterlimit:4;stroke-dasharray:none;marker-end:url(#Arrow1Mend)"
           d="m 214.77475,443.38466 25.95037,-8.81013"
           id="polyline364-5-4-3"
           inkscape:connector-curvature="0"
           sodipodi:nodetypes="cc" />
      </g>
    </g>
    <path
       inkscape:connector-curvature="0"
       style="fill:none;stroke:#a30000;stroke-width:1;stroke-linecap:round;stroke-linejoin:round;stroke-opacity:1"
       d="m 348.60545,369.62381 c -12.00353,7.47693 -30.39804,5.82959 -36.02101,8.2916 -5.62297,2.46201 -8.91778,6.09896 -10.368,12.96001 -1.45022,6.86105 0.33218,12.07593 5.256,23.184 4.92382,11.10807 22.6522,20.84328 30.14489,19.74681 7.49269,-1.09647 9.52858,-3.64074 15.35911,-9.59481 5.83053,-5.95407 10.58612,-6.72007 17.99173,-6.41454"
       id="path3892"
       sodipodi:nodetypes="czzzzzc" />
    <text
       xml:space="preserve"
       style="font-size:12px;font-style:normal;font-variant:normal;font-weight:normal;font-stretch:normal;line-height:125%;letter-spacing:0px;word-spacing:0px;fill:#000000;fill-opacity:1;stroke:none;font-family:Arial;-inkscape-font-specification:Arial"
       x="392.02557"
       y="366.24252"
       id="text3029-7"
       sodipodi:linespacing="125%"><tspan
         sodipodi:role="line"
         id="tspan3031-0"
         x="392.02557"
         y="366.24252">t'1</tspan></text>
    <text
       xml:space="preserve"
       style="font-size:12px;font-style:normal;font-variant:normal;font-weight:normal;font-stretch:normal;line-height:125%;letter-spacing:0px;word-spacing:0px;fill:#000000;fill-opacity:1;stroke:none;font-family:Arial;-inkscape-font-specification:Arial"
       x="357.34628"
       y="378.54578"
       id="text3029"
       sodipodi:linespacing="125%"><tspan
         sodipodi:role="line"
         id="tspan3031"
         x="357.34628"
         y="378.54578">x'1</tspan></text>
    <path
       style="fill:none;stroke:#a30000;stroke-width:1;stroke-linecap:round;stroke-linejoin:round;stroke-opacity:1"
       d="m 460.1821,317.87159 c 0.41282,-6.76845 -2.61672,-14.55499 -6.00478,-19.38245 -3.56863,-7.3748 -11.79183,-10.34225 -17.73327,-13.18494 -5.94144,-2.84269 -12.07922,-3.86746 -20.96054,-2.8028 -8.88131,1.06467 -19.23409,7.41814 -22.34154,11.71241 -3.10745,4.29427 -7.23313,8.86755 -3.70491,17.68922 3.52823,8.82168 5.84319,14.41436 4.79914,21.54412 m 12.99249,16.50759 c 5.80351,1.8898 11.26684,-1.12498 16.22394,1.76889 7.40009,1.53675 9.89822,11.78285 16.88953,11.57068 9.05256,0.90772 20.92854,-4.70521 24.43251,-12.03223 3.79428,-7.34422 3.1338,-15.68991 1.08209,-22.85883 -1.50861,-2.38346 -2.36455,-5.43134 -4.91924,-7.14632 -3.98263,-3.48215 -10.25389,-5.53956 -14.60343,-5.34858 -4.34954,0.19098 -6.65339,0.34905 -6.91255,6.4018 -0.25916,6.05275 6.49326,10.40472 12.43212,8.35127 3.60504,-1.58089 6.47727,-4.31661 7.01094,-8.31695"
       id="polyline4229"
       inkscape:connector-curvature="0"
       sodipodi:nodetypes="cczzzzccccccczzcc" />
    <text
       xml:space="preserve"
       style="font-size:12px;font-style:normal;font-variant:normal;font-weight:normal;font-stretch:normal;line-height:125%;letter-spacing:0px;word-spacing:0px;fill:#000000;fill-opacity:1;stroke:none;font-family:Arial;-inkscape-font-specification:Arial"
       x="366.16681"
       y="347.49518"
       id="text3029-5"
       sodipodi:linespacing="125%"
       transform="matrix(0.99991445,-0.01308055,0.01308055,0.99991445,0,0)"><tspan
         sodipodi:role="line"
         id="tspan3031-8"
         x="366.16681"
         y="347.49518">x''2</tspan></text>
    <text
       xml:space="preserve"
       style="font-size:12px;font-style:normal;font-variant:normal;font-weight:normal;font-stretch:normal;line-height:125%;letter-spacing:0px;word-spacing:0px;fill:#000000;fill-opacity:1;stroke:none;font-family:Arial;-inkscape-font-specification:Arial"
       x="403.58826"
       y="307.12036"
       id="text3029-9"
       sodipodi:linespacing="125%"
       transform="matrix(0.99999876,-0.00157293,0.00157293,0.99999876,0,0)"><tspan
         sodipodi:role="line"
         id="tspan3031-07"
         x="403.58826"
         y="307.12036">t'2</tspan></text>
    <path
       sodipodi:type="arc"
       style="fill:#faefef;fill-opacity:1;stroke:#000000;stroke-width:0.5;stroke-linecap:butt;stroke-linejoin:miter;stroke-miterlimit:4;stroke-opacity:1;stroke-dasharray:none"
       id="path5791-5-7"
       sodipodi:cx="105.93975"
       sodipodi:cy="69.428749"
       sodipodi:rx="2.1465743"
       sodipodi:ry="2.0203052"
       d="m 108.08632,69.428749 c 0,1.115784 -0.96105,2.020305 -2.14657,2.020305 -1.18552,0 -2.14657,-0.904521 -2.14657,-2.020305 0,-1.115784 0.96105,-2.020305 2.14657,-2.020305 1.18552,0 2.14657,0.904521 2.14657,2.020305 z"
       transform="matrix(0.98724556,-0.15920491,0.15920491,0.98724556,278.47252,281.70599)" />
    <path
       style="fill:none;stroke:#000000;stroke-width:1.5;stroke-linecap:round;stroke-linejoin:round;stroke-miterlimit:4;stroke-dasharray:none;marker-end:url(#Arrow1Mend)"
       d="m 394.13067,333.11305 3.39484,-25.50817"
       id="polyline364-5-4"
       inkscape:connector-curvature="0"
       sodipodi:nodetypes="cc" />
    <path
       sodipodi:type="arc"
       style="fill:#faefef;fill-opacity:1;stroke:#000000;stroke-width:0.5;stroke-linecap:butt;stroke-linejoin:miter;stroke-miterlimit:4;stroke-opacity:1;stroke-dasharray:none"
       id="path5791-5-7-1"
       sodipodi:cx="105.93975"
       sodipodi:cy="69.428749"
       sodipodi:rx="2.1465743"
       sodipodi:ry="2.0203052"
       d="m 108.08632,69.428749 c 0,1.115784 -0.96105,2.020305 -2.14657,2.020305 -1.18552,0 -2.14657,-0.904521 -2.14657,-2.020305 0,-1.115784 0.96105,-2.020305 2.14657,-2.020305 1.18552,0 2.14657,0.904521 2.14657,2.020305 z"
       transform="matrix(0.98724556,-0.15920491,0.15920491,0.98724556,337.22182,309.59576)"
       inkscape:transform-center-x="2.3660102"
       inkscape:transform-center-y="0.3815428" />
    <text
       xml:space="preserve"
       style="font-size:12px;font-style:normal;font-variant:normal;font-weight:normal;font-stretch:normal;line-height:125%;letter-spacing:0px;word-spacing:0px;fill:#000000;fill-opacity:1;stroke:none;font-family:Arial;-inkscape-font-specification:Arial"
       x="444.3858"
       y="380.92679"
       id="text3029-5-3"
       sodipodi:linespacing="125%"
       transform="matrix(0.99995388,-0.00960396,0.00960396,0.99995388,0,0)"><tspan
         sodipodi:role="line"
         id="tspan3031-8-0"
         x="444.3858"
         y="380.92679">x'2</tspan></text>
    <text
       xml:space="preserve"
       style="font-size:12px;font-style:normal;font-variant:normal;font-weight:normal;font-stretch:normal;line-height:125%;letter-spacing:0px;word-spacing:0px;fill:#000000;fill-opacity:1;stroke:none;font-family:Arial;-inkscape-font-specification:Arial"
       x="349.91678"
       y="288.17554"
       id="text3029-5-3-2"
       sodipodi:linespacing="125%"><tspan
         sodipodi:role="line"
         id="tspan3031-8-0-1"
         x="349.91678"
         y="288.17554">x'2</tspan></text>
  </g>
</svg>
