<?xml version="1.0" encoding="UTF-8" standalone="no"?>
<!-- Created with Inkscape (http://www.inkscape.org/) -->

<svg
   xmlns:dc="http://purl.org/dc/elements/1.1/"
   xmlns:cc="http://creativecommons.org/ns#"
   xmlns:rdf="http://www.w3.org/1999/02/22-rdf-syntax-ns#"
   xmlns:svg="http://www.w3.org/2000/svg"
   xmlns="http://www.w3.org/2000/svg"
   xmlns:sodipodi="http://sodipodi.sourceforge.net/DTD/sodipodi-0.dtd"
   xmlns:inkscape="http://www.inkscape.org/namespaces/inkscape"
   width="318.18777"
   height="185.80211"
   id="svg3285"
   version="1.1"
   inkscape:version="0.48.1 "
   sodipodi:docname="A2FSframe.svg">
  <defs
     id="defs3287" />
  <sodipodi:namedview
     id="base"
     pagecolor="#ffffff"
     bordercolor="#666666"
     borderopacity="1.0"
     inkscape:pageopacity="0.0"
     inkscape:pageshadow="2"
     inkscape:zoom="2.8"
     inkscape:cx="159.09013"
     inkscape:cy="92.902808"
     inkscape:document-units="px"
     inkscape:current-layer="layer1"
     showgrid="false"
     inkscape:window-width="1168"
     inkscape:window-height="1031"
     inkscape:window-x="1774"
     inkscape:window-y="47"
     inkscape:window-maximized="0"
     fit-margin-top="0"
     fit-margin-left="0"
     fit-margin-right="0"
     fit-margin-bottom="0" />
  <metadata
     id="metadata3290">
    <rdf:RDF>
      <cc:Work
         rdf:about="">
        <dc:format>image/svg+xml</dc:format>
        <dc:type
           rdf:resource="http://purl.org/dc/dcmitype/StillImage" />
        <dc:title></dc:title>
      </cc:Work>
    </rdf:RDF>
  </metadata>
  <g
     inkscape:label="Layer 1"
     inkscape:groupmode="layer"
     id="layer1"
     transform="translate(-215.90987,-439.46289)">
    <path
       style="fill:none;stroke:#000000;stroke-width:1"
       d="m 293.59749,554.85408 c 10.11099,-18.15352 -16.1647,-27.31056 -27.193,-14.95049 -10.56816,13.00952 -0.5645,32.39436 11.78112,40.49983 9.01605,8.29952 21.85587,5.92928 32.74887,4.14231 18.21467,-4.76222 39.44144,-6.83713 55.38008,5.3254 19.90376,13.50912 38.08927,33.77119 63.78507,34.74696 16.92443,1.13789 36.79959,-3.48409 44.94808,-20.03143 11.30826,-20.64319 18.91216,-45.02044 14.95155,-68.69504 -3.88247,-19.97269 -20.72173,-39.46992 -42.29501,-39.23408 -10.85033,-2.04536 -23.72494,-2.19102 -31.06549,7.65342 -8.23436,12.76979 -24.55484,13.54643 -35.90383,4.55705 -24.887,-14.47281 -46.01177,-37.90799 -76.09047,-41.22913 -24.1565,-3.02918 -50.42949,3.35155 -68.88255,19.53073 -10.67017,12.59484 -16.07118,28.98508 -18.85428,44.98335 -2.70054,22.17178 2.36771,45.61868 16.75104,63.04124 8.30512,11.89524 25.56733,13.21318 35.54059,2.86614 4.33352,-3.22781 5.69334,-8.48324 8.73157,-12.62295"
       id="path376"
       inkscape:connector-curvature="0" />
    <path
       style="fill:none;stroke:#000000;stroke-width:1"
       d="m 282.26416,577.93739 c 5.23093,-9.95075 12.29174,-18.81474 12.83333,-30.41662"
       id="path378"
       inkscape:connector-curvature="0" />
    <path
       style="fill:none;stroke:#000000;stroke-width:1"
       d="m 287.93083,465.27077 c 3.42623,-2.15496 -14.68462,4.46267 -4.25,4.91662 7.23858,4.90735 9.11909,-0.0272 5.38637,-6.52134 2.25391,0.67802 -1.60275,4.67522 0.19696,4.27134"
       id="path380"
       inkscape:connector-curvature="0" />
    <path
       style="fill:none;stroke:#000000;stroke-width:1"
       d="m 258.34749,448.93739 c -6.65277,-4.99911 -8.52847,10.82738 -1.84975,1.57479 3.07538,-5.23416 -1.93986,25.5492 -2.92419,9.61706 l 1.64075,-2.19496 2.21653,-1.66351"
       id="path382"
       inkscape:connector-curvature="0" />
    <path
       style="fill:none;stroke:#000000;stroke-width:1"
       d="m 266.76416,448.35408 c 0.53942,1.82761 5.72265,7.10648 6,9.41669"
       id="path384"
       inkscape:connector-curvature="0" />
    <path
       style="fill:none;stroke:#000000;stroke-width:1"
       d="m 274.68083,449.43739 c -4.74473,-0.71487 -7.96139,8.41873 -8.66667,9.33338"
       id="path386"
       inkscape:connector-curvature="0" />
    <path
       style="fill:none;stroke:#000000;stroke-width:1"
       d="m 281.43083,441.77077 c 0.73052,-5.90853 0.50722,5.89801 -0.25,6.16662"
       id="path388"
       inkscape:connector-curvature="0" />
    <path
       style="fill:none;stroke:#000000;stroke-width:1"
       d="m 489.76416,569.85408 c -6.19884,-7.79464 9.57622,0.096 0.16666,1.75 -1.25452,-0.53437 -2.86122,-4.78022 -0.0833,-3.75"
       id="path390"
       inkscape:connector-curvature="0" />
    <path
       style="fill:none;stroke:#000000;stroke-width:1"
       d="m 491.93082,569.18739 c 2.35464,-15.36644 10.01274,-32.26999 16,-47.58331 2.2038,-5.47788 5.65321,-12.57408 -0.72506,-4.93318 0.46431,-0.61366 -5.57332,5.34384 -1.60826,1.93318"
       id="path392"
       inkscape:connector-curvature="0" />
    <path
       style="fill:none;stroke:#000000;stroke-width:1"
       d="m 511.3475,514.77077 c -1.08529,-1.74011 -0.93118,7.95557 0.0833,9.25"
       id="path394"
       inkscape:connector-curvature="0" />
    <path
       style="fill:none;stroke:#000000;stroke-width:1"
       d="m 522.51416,509.43739 c 3.09043,-8.73058 -4.93031,16.79249 5,9.83338"
       id="path396"
       inkscape:connector-curvature="0" />
    <path
       style="fill:none;stroke:#000000;stroke-width:1"
       d="m 518.0975,513.10408 c 3.15129,-1.08747 7.35964,0.4185 10.66666,-1.08331"
       id="path398"
       inkscape:connector-curvature="0" />
    <path
       style="fill:none;stroke:#000000;stroke-width:1"
       d="m 533.18082,497.60408 c 0.73245,5.43769 0.49862,11.07184 -0.75,16.41669"
       id="path400"
       inkscape:connector-curvature="0" />
    <path
       style="fill:none;stroke:#000000;stroke-width:1"
       d="m 485.93082,572.93739 c -7.05664,-3.60628 -28.09198,-8.97285 -40.54602,-11.82989 -4.33818,-1.78213 -17.38449,-3.01381 -5.74699,-2.89872 14.80234,0.85834 -13.83211,-2.80871 -0.18539,4.09722 -0.62194,0.75884 6.777,3.36465 4.14508,2.71479"
       id="path402"
       inkscape:connector-curvature="0" />
    <path
       style="fill:none;stroke:#000000;stroke-width:1"
       d="m 425.8475,544.27077 c 5.32622,-9.58349 10.61337,0.33913 4.25,6.41662"
       id="path404"
       inkscape:connector-curvature="0" />
    <path
       style="fill:none;stroke:#000000;stroke-width:1"
       d="m 431.68082,545.60408 c 2.33663,2.15442 14.82352,-4.21122 9.16668,-4.5"
       id="path406"
       inkscape:connector-curvature="0" />
    <path
       style="fill:none;stroke:#000000;stroke-width:1"
       d="m 433.5975,544.60408 c 2.62971,1.53312 5.79694,2.42952 7.75,4.91669"
       id="path408"
       inkscape:connector-curvature="0" />
    <path
       style="fill:none;stroke:#000000;stroke-width:1"
       d="m 447.18082,535.52077 c 2.33863,-5.35994 -0.19215,7.23193 0,7.41662"
       id="path410"
       inkscape:connector-curvature="0" />
    <path
       style="fill:none;stroke:#000000;stroke-width:1"
       d="m 498.93082,576.10408 c 2.47831,2.2455 9.33706,6.99432 8.41668,9.66669"
       id="path412"
       inkscape:connector-curvature="0" />
    <path
       style="fill:none;stroke:#000000;stroke-width:1"
       d="m 507.43082,576.43739 c 4.83813,-7.19004 -9.39984,6.45707 -8.08332,8.16669"
       id="path414"
       inkscape:connector-curvature="0" />
    <path
       style="fill:none;stroke:#000000;stroke-width:1"
       d="m 517.26416,568.52077 c -0.10774,-0.98089 -1.92407,5.81755 -2.66666,6.83331"
       id="path416"
       inkscape:connector-curvature="0" />
  </g>
</svg>
