<?xml version="1.0" encoding="UTF-8" standalone="no"?>
<!-- Created with Inkscape (http://www.inkscape.org/) -->

<svg
   xmlns:dc="http://purl.org/dc/elements/1.1/"
   xmlns:cc="http://creativecommons.org/ns#"
   xmlns:rdf="http://www.w3.org/1999/02/22-rdf-syntax-ns#"
   xmlns:svg="http://www.w3.org/2000/svg"
   xmlns="http://www.w3.org/2000/svg"
   xmlns:sodipodi="http://sodipodi.sourceforge.net/DTD/sodipodi-0.dtd"
   xmlns:inkscape="http://www.inkscape.org/namespaces/inkscape"
   width="161.19579"
   height="157.43619"
   id="svg5643"
   version="1.1"
   inkscape:version="0.48.1 "
   sodipodi:docname="A29PoincBad.svg">
  <defs
     id="defs5645" />
  <sodipodi:namedview
     id="base"
     pagecolor="#ffffff"
     bordercolor="#666666"
     borderopacity="1.0"
     inkscape:pageopacity="0.0"
     inkscape:pageshadow="2"
     inkscape:zoom="2.8"
     inkscape:cx="149.89481"
     inkscape:cy="65.813635"
     inkscape:document-units="px"
     inkscape:current-layer="layer1"
     showgrid="false"
     inkscape:window-width="1314"
     inkscape:window-height="879"
     inkscape:window-x="1665"
     inkscape:window-y="75"
     inkscape:window-maximized="0"
     fit-margin-top="0"
     fit-margin-left="0"
     fit-margin-right="0"
     fit-margin-bottom="0" />
  <metadata
     id="metadata5648">
    <rdf:RDF>
      <cc:Work
         rdf:about="">
        <dc:format>image/svg+xml</dc:format>
        <dc:type
           rdf:resource="http://purl.org/dc/dcmitype/StillImage" />
        <dc:title />
      </cc:Work>
    </rdf:RDF>
  </metadata>
  <g
     inkscape:label="Layer 1"
     inkscape:groupmode="layer"
     id="layer1"
     transform="translate(-225.1052,-236.48235)">
    <path
       style="fill:none;stroke:#000000;stroke-width:1;stroke-linecap:round;stroke-linejoin:round"
       d="m 285.80629,353.19933 c 0.28127,-1.76134 2.83212,-1.65578 2.16,0.432 -1.20179,2.19031 -1.80795,-2.54726 -0.57603,-2.88 0.28695,1.46195 0.50196,4.57159 0.2963,1.13785 -0.51542,-2.68276 -0.17654,-1.56384 0.4237,0.37412 -0.15956,1.37164 0.0765,3.00862 -0.21597,1.36803 -0.0884,-0.60062 0.60978,0.67738 0.504,0.072 -1.00027,0.0633 -0.91384,-2.32134 0.216,-2.448 1.02395,-0.41581 2.56895,1.00264 2.66397,1.224 -0.6557,0.58674 -1.01059,0.87991 -1.15197,0.936 -0.47652,0.70254 -1.94253,1.78191 -2.01603,0.576 -0.0526,-1.76948 -0.39814,-3.40125 -0.21597,-5.472 -0.65143,-5.15857 -1.85954,-10.41836 -2.44803,-15.64268 -0.0284,-5.49655 -2.0605,-10.82457 -2.80797,-16.10932 -0.18142,-3.83473 -0.40618,-7.7404 -1.296,-11.448 -0.23755,-1.61322 -0.64683,-3.26605 -0.504,-4.46402 -0.16616,2.57285 -0.79363,7.69546 -1.944,9.216 1.29206,-2.00013 1.88569,-5.27368 1.87198,-7.91998 -0.0669,1.22961 0.96382,3.51562 2.30402,4.60797 0.68981,0.76806 2.35817,2.53515 2.30398,2.88001 -0.87781,-0.2219 -4.21022,-0.0181 -4.75198,0.28802 0.0328,-1.40081 3.42035,-1.47764 3.456,-1.29602 -0.94231,-0.12355 -3.86013,2.07659 -1.944,0.43202 1.15688,-1.76199 -0.9493,0.40885 -1.728,0.432 -0.49962,0.30031 -0.23286,-0.39184 0,-0.432"
       id="polyline4857"
       inkscape:connector-curvature="0" />
    <path
       style="fill:none;stroke:#000000;stroke-width:1;stroke-linecap:round;stroke-linejoin:round"
       d="m 277.67029,294.01531 c 0.0775,-1.3823 -0.30786,-2.22034 0.504,-0.432 0.73798,1.09767 2.11848,3.57497 2.736,3.81602 1.1145,-1.19994 0.71735,-3.9373 1.944,-5.472 -0.20782,-0.93517 2.38825,-4.22646 0.79198,-2.01602"
       id="polyline4859"
       inkscape:connector-curvature="0" />
    <path
       style="fill:none;stroke:#000000;stroke-width:1;stroke-linecap:round;stroke-linejoin:round"
       d="m 280.33426,290.84731 c 0.48363,-3.17454 0.14776,0.99562 0.50403,2.16002 0.50466,5.52478 1.4177,11.02551 2.37598,16.488 -0.29669,0.0151 -0.0501,0.12797 0,0.14398"
       id="polyline4861"
       inkscape:connector-curvature="0" />
    <path
       style="fill:none;stroke:#000000;stroke-width:1;stroke-linecap:round;stroke-linejoin:round"
       d="m 264.56629,281.84731 c 0.15239,-0.46585 3.00633,-0.0253 4.19466,-0.35998 2.83088,0.66739 4.84843,-4.32866 1.56532,-4.536 -2.52383,-0.0584 -3.98878,3.89947 -2.80798,5.61598 2.10649,0.92844 4.61916,0.8065 6.624,1.15202"
       id="polyline4863"
       inkscape:connector-curvature="0" />
    <path
       style="fill:none;stroke:#000000;stroke-width:1;stroke-linecap:round;stroke-linejoin:round"
       d="m 275.22226,273.27933 c 0.0794,0.85084 -1.46303,5.21609 1.29603,4.824"
       id="polyline4865"
       inkscape:connector-curvature="0" />
    <path
       style="fill:none;stroke:#000000;stroke-width:1;stroke-linecap:round;stroke-linejoin:round"
       d="m 278.31827,274.28733 c -0.72257,-1.7163 1.529,-1.00271 2.88002,-1.15202 0.62593,1.07069 -1.84044,3.23672 -1.87202,2.80802 1.24149,-0.43041 3.87458,-0.60841 3.6,1.29598 -0.48579,1.49363 -1.48251,1.94127 -3.02398,1.728"
       id="polyline4867"
       inkscape:connector-curvature="0" />
    <path
       style="fill:none;stroke:#000000;stroke-width:1;stroke-linecap:round;stroke-linejoin:round"
       d="m 284.51029,273.13531 c 2.06923,-0.34627 2.93683,2.41969 3.384,3.96002 -0.0269,1.13081 -0.51073,2.26965 -1.08002,3.24"
       id="polyline4869"
       inkscape:connector-curvature="0" />
    <path
       style="fill:none;stroke:#000000;stroke-width:1;stroke-linecap:round;stroke-linejoin:round"
       d="m 251.10227,338.07931 c -1.97018,2.6715 -3.1503,5.72384 -5.4,8.28002 -2.18244,2.93378 -2.45096,6.94257 -5.18398,9.504 -1.82653,2.99864 -3.66719,6.17479 -6.26402,8.63996 -1.95712,2.70804 -4.1286,5.50128 -5.832,8.35204 -1.17752,1.7394 -2.46648,4.54061 -2.59201,6.264 4.04902,0.5573 8.60081,0.79754 12.83121,1.4959 8.60849,1.2652 17.24763,2.29087 25.79322,3.92646 9.11614,1.64287 18.31717,2.40205 27.47158,3.72161 4.19449,1.2824 8.82437,0.37764 13.10402,1.51203 3.96325,0.63916 7.67701,1.00929 11.664,0.93597 3.34499,0.26787 6.64049,1.36441 9.864,2.01599 1.62947,-0.32926 2.20027,1.80702 1.944,-0.35996 2.78934,-5.64741 6.08769,-11.75445 8.94315,-17.62483 1.67313,-4.19402 4.9236,-7.8168 5.31285,-12.39917 1.43855,-2.94274 2.02115,-7.08214 4.536,-9 0.53083,-0.5416 0.83056,-1.32745 0.864,-1.872 0.002,0.57144 -0.35948,1.05567 -0.216,1.656"
       id="polyline4871"
       inkscape:connector-curvature="0" />
    <path
       style="fill:none;stroke:#000000;stroke-width:1;stroke-linecap:round;stroke-linejoin:round"
       d="m 252.32627,338.29531 c 0.11,-2.95623 3.02156,-4.81686 4.33351,-7.319 1.49874,-1.40424 2.14335,-3.96915 3.37051,-5.13698"
       id="polyline4873"
       inkscape:connector-curvature="0" />
    <path
       style="fill:none;stroke:#000000;stroke-width:1;stroke-linecap:round;stroke-linejoin:round"
       d="m 244.62229,369.54333 c 0.0257,0.93549 -0.33261,3.32108 1.008,4.248 0.54255,1.00695 0.65826,5.45861 -0.14402,1.94395"
       id="polyline4875"
       inkscape:connector-curvature="0" />
    <path
       style="fill:none;stroke:#000000;stroke-width:1;stroke-linecap:round;stroke-linejoin:round"
       d="m 244.11829,369.97533 c 0.79331,-1.22039 3.6054,-1.85963 4.68,-0.864 1.10579,2.36876 -0.79866,3.78132 -2.952,3.456 -2.35951,-0.31972 1.33844,0.22013 1.07998,1.656 0.88048,2.20603 3.29051,3.68605 5.328,3.81597 l -0.14401,0.14403"
       id="polyline4877"
       inkscape:connector-curvature="0" />
    <path
       style="fill:none;stroke:#000000;stroke-width:1;stroke-linecap:round;stroke-linejoin:round"
       d="m 252.97429,375.59133 c 1.42705,-0.10606 4.44327,-1.0661 3.23998,-2.448 -0.92594,-1.4536 -4.37227,-0.38009 -2.66549,1.86756 0.8929,0.69719 1.65324,3.37433 3.09749,2.1644"
       id="polyline4879"
       inkscape:connector-curvature="0" />
    <path
       style="fill:none;stroke:#000000;stroke-width:1;stroke-linecap:round;stroke-linejoin:round"
       d="m 261.47029,374.94329 c 0.93848,-0.93608 3.64127,-0.91564 3.168,-2.23199 -1.74099,-1.5552 -4.74858,0.29542 -2.77401,2.31902 0.77284,1.44021 2.61861,2.00611 3.99801,1.20901"
       id="polyline4881"
       inkscape:connector-curvature="0" />
    <path
       style="fill:none;stroke:#000000;stroke-width:1;stroke-linecap:round;stroke-linejoin:round"
       d="m 266.36627,368.46333 c -0.61795,0.30906 -0.45591,3.1377 -0.57598,4.392 0.0436,-0.29888 0.6772,0.484 1.008,0.36"
       id="polyline4883"
       inkscape:connector-curvature="0" />
    <path
       style="fill:none;stroke:#000000;stroke-width:1;stroke-linecap:round;stroke-linejoin:round"
       d="m 268.52629,370.04729 c 0.91985,-0.23554 0.031,2.6915 1.07997,2.52004"
       id="polyline4885"
       inkscape:connector-curvature="0" />
    <path
       style="fill:none;stroke:#000000;stroke-width:1;stroke-linecap:round;stroke-linejoin:round"
       d="m 270.75827,368.96733 c 2.02281,0.0882 3.24098,2.88553 3.60002,4.608 -0.0631,0.67723 -0.18268,1.3268 -0.72,1.79997"
       id="polyline4887"
       inkscape:connector-curvature="0" />
    <path
       style="fill:none;stroke:#000000;stroke-width:1;stroke-linecap:round;stroke-linejoin:round"
       d="m 322.81429,359.75133 c -0.98717,2.50921 1.28889,5.3045 0.64796,7.704"
       id="polyline4889"
       inkscape:connector-curvature="0" />
    <path
       style="fill:none;stroke:#000000;stroke-width:1;stroke-linecap:round;stroke-linejoin:round"
       d="m 325.69425,363.78333 c 0.4787,-1.43484 1.678,0.90601 1.80004,1.72795 0.77136,1.95418 -0.27091,3.18659 0.072,0.36005 -0.98765,-2.22331 1.67026,-3.45651 1.87203,-0.792 -0.29171,2.43475 1.32311,1.64142 1.58396,-0.216 0.41043,-1.72063 1.84011,2.11152 2.13985,2.88134 l 0.0202,0.0707 0.0719,0.432"
       id="polyline4891"
       inkscape:connector-curvature="0" />
    <path
       style="fill:none;stroke:#000000;stroke-width:1;stroke-linecap:round;stroke-linejoin:round"
       d="m 288.47029,355.43133 c 0,-0.048 0,-0.19201 0,-0.216"
       id="polyline4893"
       inkscape:connector-curvature="0" />
    <path
       style="fill:none;stroke:#000000;stroke-width:1;stroke-linecap:round;stroke-linejoin:round"
       d="m 288.11026,355.86333 c 0.25236,-1.12789 0.76423,-0.88361 0.50403,0 -1.59484,3.14227 -2.39009,6.9011 -4.68002,9.792 -1.59438,3.3091 -2.7921,6.72353 -4.48738,9.99444 -0.967,2.65876 -2.92906,6.04873 -3.28862,8.22156 0,-0.46892 0,-0.52862 0,-1.08"
       id="polyline4895"
       inkscape:connector-curvature="0" />
    <path
       style="fill:none;stroke:#000000;stroke-width:1;stroke-linecap:round;stroke-linejoin:round"
       d="m 277.09427,381.56733 c 0.75831,-1.62652 -1.79407,0.94677 -1.51198,1.872 -0.87092,2.46996 -2.75027,4.59451 -3.168,7.2 -0.18695,-0.81261 -1.12192,1.36369 -1.296,0.72 -0.63644,-0.0237 -0.9593,-3.47999 -1.29602,-2.30404 0.29407,1.35973 1.14032,4.4396 3.24002,3.02404 1.30695,-1.32972 3.24741,-0.83389 4.82397,-1.36803"
       id="polyline4897"
       inkscape:connector-curvature="0" />
    <path
       style="fill:none;stroke:#000000;stroke-width:1;stroke-linecap:round;stroke-linejoin:round"
       d="m 336.85429,362.41533 c 0.0742,-0.51094 0.26453,-0.74908 0.144,-0.14404"
       id="polyline4899"
       inkscape:connector-curvature="0" />
    <path
       style="fill:none;stroke:#000000;stroke-width:1;stroke-linecap:round;stroke-linejoin:round"
       d="m 337.28629,366.23133 c 1.77067,0.42614 4.86907,1.28099 5.976,-0.50404 -0.0823,-3.52718 -6.20119,-1.92148 -4.46404,1.29604 1.08654,2.74218 4.69145,4.42761 7.34399,2.80796"
       id="polyline4901"
       inkscape:connector-curvature="0" />
    <path
       style="fill:none;stroke:#000000;stroke-width:1;stroke-linecap:round;stroke-linejoin:round"
       d="m 350.46225,361.47933 c -2.72414,-1.48542 -4.88942,5.11731 -1.00799,4.32"
       id="polyline4903"
       inkscape:connector-curvature="0" />
    <path
       style="fill:none;stroke:#000000;stroke-width:1;stroke-linecap:round;stroke-linejoin:round"
       d="m 352.33429,363.35133 c 0.14503,-0.94045 0.72855,2.53322 0.288,2.088"
       id="polyline4905"
       inkscape:connector-curvature="0" />
    <path
       style="fill:none;stroke:#000000;stroke-width:1;stroke-linecap:round;stroke-linejoin:round"
       d="m 355.07029,362.27129 c 1.56487,-1.21551 1.89118,2.54071 1.29595,3.60004 -0.52428,1.40504 -2.02703,2.27501 -2.73595,3.6"
       id="polyline4907"
       inkscape:connector-curvature="0" />
    <path
       style="fill:none;stroke:#000000;stroke-width:1;stroke-linecap:round;stroke-linejoin:round"
       d="m 287.96629,355.21533 c -0.11507,-0.89656 2.21361,0.4479 3.52797,-0.144 4.39708,-0.0278 8.88184,-0.22271 12.96003,1.512 3.75476,0.62262 7.93356,2.08101 11.232,2.232 -0.28948,0.006 -0.58246,-0.0298 -0.86402,0.072"
       id="polyline4909"
       inkscape:connector-curvature="0" />
    <path
       style="fill:none;stroke:#000000;stroke-width:1;stroke-linecap:round;stroke-linejoin:round"
       d="m 358.95829,368.17529 c 4.7518,-0.004 10.01239,1.22678 14.256,2.08801 -0.0554,-2.12499 -3.00618,-2.55747 -4.032,-3.45597 1.02453,1.17005 3.29357,2.28789 3.672,3.528 -1.35127,1.14938 -2.68602,2.24249 -3.744,3.528"
       id="polyline4911"
       inkscape:connector-curvature="0" />
    <path
       style="fill:none;stroke:#000000;stroke-width:1;stroke-linecap:round;stroke-linejoin:round"
       d="m 295.38227,351.75933 c -0.55286,-0.0441 -0.75723,-0.34444 -1.008,-0.864 -0.31381,-0.99644 -0.94229,-1.834 -1.65601,-2.52003 -0.3314,-1.28387 -2.06714,-0.69899 -3.09597,-1.51197 -1.51925,-0.6664 -3.13815,-1.07412 -4.96802,-0.288 -1.88263,0.35423 -3.86711,1.09622 -4.392,3.096 -1.17576,1.20723 -1.05205,3.22411 -1.728,4.752 -0.23541,0.2111 0.70273,2.79624 1.512,3.672 1.15415,4.06891 5.21017,6.13486 9.216,6.336 3.90736,0.71898 8.35601,0.90587 11.664,-1.512 2.34441,-1.4147 3.43459,-4.35076 4.24802,-6.912 0.67447,-1.61918 0.87064,-4.07958 -0.072,-6.192 -0.85161,-2.38017 -2.00084,-4.86733 -4.68,-5.688 -2.38468,-2.37275 -6.09077,-2.3657 -8.63998,-4.39202 -5.10547,-0.60372 -10.62611,0.0826 -15.12003,2.88002 -4.18041,1.33362 -7.43789,5.22913 -6.69597,9.792 0.17231,3.63883 3.46261,5.90661 5.04,9.072 2.28103,3.40265 5.21701,6.25885 8.136,9 2.46106,1.07278 5.1697,2.3867 7.776,2.088 2.78985,-0.12008 6.01957,-0.12486 8.35198,-2.232 3.79603,-2.71351 8.0879,-4.78545 11.52002,-7.92 2.23066,-2.18748 4.14742,-4.873 5.03997,-7.776 1.74447,-1.42095 1.64147,-4.31828 2.88001,-6.192 0.40993,-1.21733 0.96395,-2.66616 0.72,-2.016 -0.0955,-0.16228 0.21409,0.10404 0,0.144"
       id="polyline4913"
       inkscape:connector-curvature="0" />
    <path
       style="fill:none;stroke:#000000;stroke-width:1;stroke-linecap:round;stroke-linejoin:round"
       d="m 320.07829,347.29533 c -0.34705,-3.37915 0.51285,-6.93187 -0.72,-10.15203 -0.89023,-1.56137 -0.15568,0.94261 0.48955,2.41912 1.07303,2.59153 1.2107,5.23848 0.66245,7.94886 0.0896,0.3464 -0.17654,0.87996 0.144,0.64801"
       id="polyline4915"
       inkscape:connector-curvature="0" />
    <path
       style="fill:none;stroke:#000000;stroke-width:1;stroke-linecap:round;stroke-linejoin:round"
       d="m 352.19029,350.53533 c -2.11753,0.0456 -2.6145,-2.76042 -4.82405,-3.24 -3.80025,-2.09415 -7.64979,-4.23677 -11.37595,-6.192 -2.401,-1.883 -5.26823,-2.32119 -7.992,-3.52802 -0.71553,-0.6029 -3.14593,-0.97886 -1.296,-0.57598"
       id="polyline4917"
       inkscape:connector-curvature="0" />
    <path
       style="fill:none;stroke:#000000;stroke-width:1;stroke-linecap:round;stroke-linejoin:round"
       d="m 259.67029,327.63931 c 2.43969,-2.98654 2.4058,-7.46568 4.82397,-10.65598 0.18109,-0.61833 0.17091,-0.74899 0.21601,-0.072"
       id="polyline4919"
       inkscape:connector-curvature="0" />
    <path
       style="fill:none;stroke:#000000;stroke-width:1;stroke-linecap:round;stroke-linejoin:round"
       d="m 262.33426,318.35131 c -0.0545,-0.75623 -0.32521,-0.44526 1.08003,-0.072 2.94058,0.22433 6.10823,1.39734 8.712,3.096 3.36838,2.24301 7.57437,3.31006 11.016,5.03998 0.59388,0.34832 0.10752,0.78783 1.00798,1.08002"
       id="polyline4921"
       inkscape:connector-curvature="0" />
    <path
       style="fill:none;stroke:#000000;stroke-width:1;stroke-linecap:round;stroke-linejoin:round"
       d="m 283.79029,328.07131 c 0.54427,-1.37458 3.36111,0.34622 4.608,0.504 4.15761,1.71932 8.67372,2.63878 12.96,3.74402 4.21204,1.50988 7.60817,4.78056 12.15443,5.13537 1.75015,0.58574 3.88818,1.06434 5.19755,2.3526"
       id="polyline4923"
       inkscape:connector-curvature="0" />
    <path
       style="fill:none;stroke:#000000;stroke-width:1;stroke-linecap:round;stroke-linejoin:round"
       d="m 354.20629,348.15929 c 0.11528,-1.55311 1.02512,-4.2474 1.944,-6.26396 2.31501,-7.60937 4.06468,-15.38489 6.55487,-22.92998 3.03721,-7.02891 5.71695,-14.23566 8.70913,-21.27804 2.23329,-5.52707 2.5831,-11.66207 5.328,-16.992 1.77645,-6.23559 4.24026,-12.38355 6.83996,-18.35998 0.71502,-0.50815 0.30286,-2.36203 1.15204,-2.16"
       id="polyline4925"
       inkscape:connector-curvature="0" />
    <path
       style="fill:none;stroke:#000000;stroke-width:1;stroke-linecap:round;stroke-linejoin:round"
       d="m 267.30229,313.95931 c -1.13253,-0.48826 0.97553,-2.53497 0.86397,-3.888 0.90966,-3.21736 1.70974,-7.02359 3.81601,-9.216 1.17933,-1.15692 1.75979,-3.09397 2.08802,-4.75198 0.058,-0.2008 1.62257,-2.48147 1.44,-1.80002"
       id="polyline4927"
       inkscape:connector-curvature="0" />
    <path
       style="fill:none;stroke:#000000;stroke-width:1;stroke-linecap:round;stroke-linejoin:round"
       d="m 289.40629,283.35931 c 1.15687,-0.6633 2.61224,-3.17508 3.79686,-4.81276 3.73647,-5.34989 5.42338,-11.734 6.49912,-18.08324 1.17859,-3.38261 3.17548,-6.57036 4.53602,-9.79198 -0.0126,-0.62199 -0.0284,-1.67029 0.64797,-1.44"
       id="polyline4929"
       inkscape:connector-curvature="0" />
    <path
       style="fill:none;stroke:#000000;stroke-width:1;stroke-linecap:round;stroke-linejoin:round"
       d="m 300.42227,236.99133 c 5.3705,2.03648 10.69337,4.47568 16.41569,5.6735 7.1993,1.942 13.82175,5.21295 20.90436,7.59051 7.37317,2.66873 14.44707,6.09599 21.75127,8.91958 4.02922,2.37775 7.98389,4.76264 12.45845,6.18568 4.14143,1.85708 8.23787,3.43469 12.71816,3.76848 1.57607,0.36054 2.14943,0.28667 -1.15991,-0.0978"
       id="polyline4931"
       inkscape:connector-curvature="0" />
    <path
       style="fill:none;stroke:#000000;stroke-width:1;stroke-linecap:round;stroke-linejoin:round"
       d="m 302.07829,237.92733 c 0.75608,-1.85447 -0.25091,0.35936 -0.792,0.93597 -1.22595,1.9377 -2.44703,3.87577 -2.88,6.19203 -1.72241,3.11886 -3.39023,6.43889 -5.05425,9.63798 -0.75245,2.25161 -1.55932,4.41277 -3.08177,6.34602 -0.85812,1.74093 -1.23917,2.99805 -2.16001,4.10397 0.12494,0.11636 -0.16851,0.50325 0.14401,0.50403"
       id="polyline4933"
       inkscape:connector-curvature="0" />
    <path
       style="fill:none;stroke:#000000;stroke-width:1;stroke-linecap:round;stroke-linejoin:round"
       d="m 349.88629,353.05529 c -0.49929,0.88996 -0.55006,0.96858 -0.792,1.87204"
       id="polyline4935"
       inkscape:connector-curvature="0" />
    <path
       style="fill:none;stroke:#000000;stroke-width:1;stroke-linecap:round;stroke-linejoin:round"
       d="m 363.56626,271.4793 c 0.15657,-0.85592 -0.29495,2.72886 -0.14397,3.45603 -0.17772,2.54019 -1.72278,4.67241 -3.024,6.69598 -0.24792,-0.33136 -0.366,0.0452 -0.576,0"
       id="polyline4937"
       inkscape:connector-curvature="0" />
    <path
       style="fill:none;stroke:#000000;stroke-width:1;stroke-linecap:round;stroke-linejoin:round"
       d="m 357.66229,271.26333 c -0.14965,-1.61762 2.91492,-0.40848 4.05068,-0.79202 2.63969,0.20492 6.09586,-0.96916 7.46932,2.08802 1.51033,1.52753 0.46985,3.39312 -1.59819,3.23172 -1.05575,0.43707 -3.79505,-0.2191 -4.08981,0.72826"
       id="polyline4939"
       inkscape:connector-curvature="0" />
  </g>
</svg>
