<?xml version="1.0" encoding="UTF-8" standalone="no"?>
<!-- Created with Inkscape (http://www.inkscape.org/) -->

<svg
   xmlns:dc="http://purl.org/dc/elements/1.1/"
   xmlns:cc="http://creativecommons.org/ns#"
   xmlns:rdf="http://www.w3.org/1999/02/22-rdf-syntax-ns#"
   xmlns:svg="http://www.w3.org/2000/svg"
   xmlns="http://www.w3.org/2000/svg"
   xmlns:sodipodi="http://sodipodi.sourceforge.net/DTD/sodipodi-0.dtd"
   xmlns:inkscape="http://www.inkscape.org/namespaces/inkscape"
   width="133.28149"
   height="148.23285"
   id="svg5846"
   version="1.1"
   inkscape:version="0.48.1 "
   sodipodi:docname="A29PoincGood.svg">
  <defs
     id="defs5848" />
  <sodipodi:namedview
     id="base"
     pagecolor="#ffffff"
     bordercolor="#666666"
     borderopacity="1.0"
     inkscape:pageopacity="0.0"
     inkscape:pageshadow="2"
     inkscape:zoom="1.979899"
     inkscape:cx="55.676997"
     inkscape:cy="73.04053"
     inkscape:document-units="px"
     inkscape:current-layer="layer1"
     showgrid="false"
     fit-margin-top="0"
     fit-margin-left="0"
     fit-margin-right="0"
     fit-margin-bottom="0"
     inkscape:window-width="792"
     inkscape:window-height="679"
     inkscape:window-x="2286"
     inkscape:window-y="147"
     inkscape:window-maximized="0" />
  <metadata
     id="metadata5851">
    <rdf:RDF>
      <cc:Work
         rdf:about="">
        <dc:format>image/svg+xml</dc:format>
        <dc:type
           rdf:resource="http://purl.org/dc/dcmitype/StillImage" />
        <dc:title />
      </cc:Work>
    </rdf:RDF>
  </metadata>
  <g
     inkscape:label="Layer 1"
     inkscape:groupmode="layer"
     id="layer1"
     transform="translate(-147.63975,-381.09059)">
    <path
       style="fill:none;stroke:#000000;stroke-width:1;stroke-linecap:round;stroke-linejoin:round"
       d="m 203.08974,427.67934 c -1.11073,-2.03018 0.10046,1.61815 0.432,2.304 1.26991,4.66277 2.30801,9.35475 3.07806,14.13017 0.76657,5.90946 2.77027,11.76975 3.61792,17.47783 0.82054,2.91321 1.38842,6.0348 2.30402,8.92796 0.26984,1.14803 0.96096,1.84029 0.35998,2.95204"
       id="polyline4941"
       inkscape:connector-curvature="0" />
    <path
       style="fill:none;stroke:#000000;stroke-width:1;stroke-linecap:round;stroke-linejoin:round"
       d="m 212.16172,474.83931 c -0.5588,-1.45118 -1.57998,1.30215 -2.08798,1.87203 -3.73234,4.74321 -6.78133,10.32594 -11.41246,14.42054 -1.7454,1.7043 -2.6273,3.91428 -4.13954,5.73941 -2.65686,4.19763 -5.99876,7.86061 -9.432,11.37605 -0.91628,0.86322 -2.37518,2.29308 -2.736,3.24 0.0678,-0.39681 -0.33346,-0.0416 0.072,-0.216"
       id="polyline4943"
       inkscape:connector-curvature="0" />
    <path
       style="fill:none;stroke:#000000;stroke-width:1;stroke-linecap:round;stroke-linejoin:round"
       d="m 184.36974,507.09529 c 0.34515,0.70757 -0.11044,3.02826 -0.94904,4.03849 -1.65233,1.81387 0.37293,0.98249 1.59704,0.85756 1.99302,-0.30545 3.99482,-0.82607 5.616,-2.01605"
       id="polyline4945"
       inkscape:connector-curvature="0" />
    <path
       style="fill:none;stroke:#000000;stroke-width:1;stroke-linecap:round;stroke-linejoin:round"
       d="m 213.81772,476.35134 c 0.79845,-1.5491 -2.67997,-0.53394 -2.23198,-0.792 3.71857,-0.4224 7.03516,1.70977 10.49385,2.29307 2.54409,0.14302 4.90264,1.57157 7.32681,2.3546 4.39101,1.2743 8.7111,2.87367 13.28334,3.41629 5.5047,1.24677 11.10382,2.73556 16.56,3.81604 -0.86413,-0.21874 -2.31996,-2.11945 -3.18627,-3.20722 -0.83203,-1.00666 -2.86601,-3.24659 -0.5716,-1.20297 1.35842,1.00483 2.57485,2.44663 3.46984,3.76219 -2.08521,1.37586 -4.55569,3.10953 -6.62397,3.888 l -0.072,0.216"
       id="polyline4947"
       inkscape:connector-curvature="0" />
    <path
       style="fill:none;stroke:#000000;stroke-width:1;stroke-linecap:round;stroke-linejoin:round"
       d="m 201.14574,421.8473 c -0.82053,-1.3374 1.12753,0.49207 1.656,0.86404 1.24026,0.57749 2.91136,2.69517 3.456,2.952 0.14588,0.19501 0.0545,-3.30468 0.432,-4.392 0.39876,-0.91949 -0.0326,-3.47586 0.64797,-3.6"
       id="polyline4949"
       inkscape:connector-curvature="0" />
    <path
       style="fill:none;stroke:#000000;stroke-width:1;stroke-linecap:round;stroke-linejoin:round"
       d="m 195.24174,414.14334 c -0.21898,-1.27614 2.26946,0.28974 3.168,-0.864 1.77033,-0.67817 3.11237,-2.36729 2.16,-4.32004 -0.95222,-1.49946 -3.79604,-0.2989 -3.74402,1.65601 -0.26637,1.89887 -0.28532,4.35844 2.01599,4.896 1.39293,0.91939 3.19704,0.54702 4.75203,0.50403"
       id="polyline4951"
       inkscape:connector-curvature="0" />
    <path
       style="fill:none;stroke:#000000;stroke-width:1;stroke-linecap:round;stroke-linejoin:round"
       d="m 205.89771,404.71134 c -1.93234,0.10626 -0.62442,3.11057 -0.28799,4.32 0.32515,0.96083 1.07621,2.60481 2.30402,2.232"
       id="polyline4953"
       inkscape:connector-curvature="0" />
    <path
       style="fill:none;stroke:#000000;stroke-width:1;stroke-linecap:round;stroke-linejoin:round"
       d="m 208.56171,406.51131 c -1.14923,-2.17353 1.39765,-2.51774 2.52003,-1.29597 1.88933,0.85605 -0.19566,2.71105 1.152,0.504 2.47818,-0.75342 2.97922,1.92589 1.64666,3.60796 -0.30815,0.77832 -0.75152,1.49083 -0.99868,2.296"
       id="polyline4955"
       inkscape:connector-curvature="0" />
    <path
       style="fill:none;stroke:#000000;stroke-width:1;stroke-linecap:round;stroke-linejoin:round"
       d="m 183.00171,480.31129 c -0.53005,-0.89083 1.0093,-0.45181 1.65601,-0.79199 0.98319,-0.0218 0.72588,-0.76952 2.01599,-0.43201 2.58711,-0.41832 5.48496,0.007 7.99201,-0.93595 3.57826,-0.0238 7.24662,-0.11783 10.55067,-1.008 2.30784,-0.13836 5.33246,0.41067 6.87335,-1.224 5.3305,0.12769 10.39235,-1.50889 15.69597,-2.016 3.93277,-0.98782 8.18025,-0.66206 12.09603,-1.94404 5.12817,-0.98662 10.3292,-1.30785 15.48,-1.94396 2.72806,-0.18432 5.48364,-0.10936 8.208,-0.576 1.31457,-0.42701 4.48792,-0.50775 4.896,-0.504 -0.144,0 -0.288,0 -0.432,0"
       id="polyline4957"
       inkscape:connector-curvature="0" />
    <path
       style="fill:none;stroke:#000000;stroke-width:1;stroke-linecap:round;stroke-linejoin:round"
       d="m 187.17774,474.55134 c 0.16663,-0.19338 -0.47274,0.45641 -0.936,0.144 0.29695,-1.47522 -1.35509,-3.61667 -1.656,-5.472 -1.11405,-2.25702 -0.47111,-4.94025 -1.80003,-7.056 0.14386,-2.94656 -1.67212,-5.47861 -2.30397,-8.136 -0.16847,-2.34931 -1.43173,-4.39603 -1.36733,-6.80028 -0.83179,-3.01534 -0.20997,-6.1953 -1.72869,-9.03976 -2.95363,-7.45161 -2.29092,-15.77223 -5.32801,-23.18396 -1.0678,-2.88992 -1.15115,-5.98115 -2.01599,-8.856 -1.18333,-2.9034 -2.03539,-5.90697 -1.79998,-9.11067 0.14825,-2.23193 -0.51953,-5.36406 -1.224,-6.72938 0.14397,0.21602 0.28798,0.43201 0.43197,0.64801"
       id="polyline4959"
       inkscape:connector-curvature="0" />
    <path
       style="fill:none;stroke:#000000;stroke-width:1;stroke-linecap:round;stroke-linejoin:round"
       d="m 166.29774,397.15134 c 0.13351,-1.19143 2.97802,-0.12514 4.07067,-0.50405 7.91698,-0.79884 15.68412,-2.71928 23.64948,-3.20678 9.30881,-1.29095 18.71992,-1.81768 27.91783,-3.86235 8.04457,-1.54756 16.08401,-2.7038 24.28732,-2.57882 2.85823,-0.14142 6.02409,0.29431 8.7067,-0.288 0.18902,-0.11614 2.00064,-1.07321 0.792,-0.86404"
       id="polyline4961"
       inkscape:connector-curvature="0" />
    <path
       style="fill:none;stroke:#000000;stroke-width:1;stroke-linecap:round;stroke-linejoin:round"
       d="m 259.46574,382.03134 c -1.38265,-1.09199 0.15214,0.48458 -0.288,1.58397 0.96224,4.35004 0.89101,8.82399 1.48253,13.19789 0.92964,4.09372 1.2018,8.27537 1.75743,12.43414 0.38197,5.99929 1.88635,11.80775 3.52804,17.49596 1.2472,6.40559 2.79961,12.67858 4.49709,18.90133 0.36941,3.61591 1.50869,6.99514 2.10894,10.56492 0.61548,1.83143 1.01252,3.69581 1.52993,5.38179 -0.005,0.24905 -0.10063,3.17002 0.14404,3.24"
       id="polyline4963"
       inkscape:connector-curvature="0" />
    <path
       style="fill:none;stroke:#000000;stroke-width:1;stroke-linecap:round;stroke-linejoin:round"
       d="m 181.27372,478.22334 c -0.61634,-0.97953 -0.72028,1.72986 -1.58398,2.448 -3.10409,4.71289 -6.75244,9.09919 -9.432,14.112 -2.28794,3.07662 -3.82607,6.85127 -7.128,9.07196 -2.55593,2.57957 -5.30496,5.10307 -7.488,7.92004 -0.76985,2.06706 -2.60077,3.16843 -3.47174,5.2204 -1.45173,1.62898 -2.53566,3.53375 -4.01628,4.85956 -0.10328,-0.0466 0.0994,-0.0838 0.288,-0.072"
       id="polyline4965"
       inkscape:connector-curvature="0" />
    <path
       style="fill:none;stroke:#000000;stroke-width:1;stroke-linecap:round;stroke-linejoin:round"
       d="m 151.53774,522.43129 c -0.26557,-0.94111 2.66489,-0.17624 3.528,-0.43195 4.99835,-0.58523 10.01676,-0.86631 15.04797,-0.36004 6.59703,0.66196 13.29794,0.54171 19.82808,1.74732 8.35511,2.2606 17.19052,1.31683 25.56285,3.5149 5.02328,0.76715 10.30079,1.02584 15.1611,1.79382 -0.13199,-0.06 -0.048,0.096 -0.072,0.14397"
       id="polyline4967"
       inkscape:connector-curvature="0" />
    <path
       style="fill:none;stroke:#000000;stroke-width:1;stroke-linecap:round;stroke-linejoin:round"
       d="m 232.32174,526.46334 c 0.65788,-0.69065 1.08197,-2.5957 2.376,-3.456 2.2677,-2.06218 3.85911,-4.67231 5.976,-6.91205 1.53652,-2.22512 3.93907,-3.79023 5.43302,-6.14325 2.22265,-3.60146 5.26654,-6.61813 7.30899,-10.32107 1.8403,-3.19644 4.96736,-5.18939 6.98596,-8.30363 2.56734,-3.2239 5.01932,-6.57262 7.20003,-10.08 1.38317,-1.24244 1.72202,-3.10081 3.38395,-3.888 0.86114,-0.94001 2.29747,-1.8587 2.16005,-2.664 1.60945,-1.42983 2.80642,-3.51544 4.032,-4.96803 0.80098,-1.04635 2.59566,-2.50531 2.736,-3.67197 0.0649,-0.0587 0.52508,-0.97775 0.432,-0.64804"
       id="polyline4969"
       inkscape:connector-curvature="0" />
    <path
       style="fill:none;stroke:#000000;stroke-width:1;stroke-linecap:round;stroke-linejoin:round"
       d="m 267.38574,467.35134 c 3.43604,-2.65578 8.02033,-1.73532 12.06267,-2.16004 0.24925,0.098 0.87028,-0.37358 0.96929,-0.14396"
       id="polyline4971"
       inkscape:connector-curvature="0" />
    <path
       style="fill:none;stroke:#000000;stroke-width:1;stroke-linecap:round;stroke-linejoin:round"
       d="m 221.16172,472.89534 c -0.18364,-0.81847 -2.25364,-1.29114 -3.23998,-1.58405"
       id="polyline4973"
       inkscape:connector-curvature="0" />
    <path
       style="fill:none;stroke:#000000;stroke-width:1;stroke-linecap:round;stroke-linejoin:round"
       d="m 216.19374,470.80734 c -0.0512,-0.89182 -1.0167,-0.90908 -1.58402,-0.792"
       id="polyline4975"
       inkscape:connector-curvature="0" />
    <path
       style="fill:none;stroke:#000000;stroke-width:1;stroke-linecap:round;stroke-linejoin:round"
       d="m 209.56974,470.5193 c 0.21448,-1.2777 -0.33458,-0.39385 -0.936,0"
       id="polyline4977"
       inkscape:connector-curvature="0" />
    <path
       style="fill:none;stroke:#000000;stroke-width:1;stroke-linecap:round;stroke-linejoin:round"
       d="m 202.15372,476.78334 c -0.78559,-1.95732 1.91276,-1.4083 2.16002,-1.296 0.36009,-0.0734 -0.10342,-0.21702 -0.072,-0.144"
       id="polyline4979"
       inkscape:connector-curvature="0" />
    <path
       style="fill:none;stroke:#000000;stroke-width:1;stroke-linecap:round;stroke-linejoin:round"
       d="m 203.37772,475.70334 c -0.0653,-1.31785 -0.22409,0.98431 -1.00798,1.15196 -1.36982,1.51571 -0.72158,4.79967 0.79198,6.40804 2.00921,2.01757 3.76725,3.68157 6.62399,4.176 3.31363,0.25999 6.61011,-0.47804 9.52735,-1.90953 3.38236,-1.6022 6.34897,-4.31285 8.76068,-7.0185 0.52127,-0.75122 1.88547,-1.57086 1.8,-3.38397 0.16,-1.13625 1.01537,-3.02704 0.936,-3.16804 0.21777,0.14998 -0.24175,-0.116 -0.216,0.50404"
       id="polyline4981"
       inkscape:connector-curvature="0" />
    <path
       style="fill:none;stroke:#000000;stroke-width:1;stroke-linecap:round;stroke-linejoin:round"
       d="m 231.24174,471.59934 c -0.2892,0.11916 0.53409,1.08304 -0.576,1.944 -1.79713,1.63588 -2.8109,-1.48523 -0.792,-2.088 0.28115,-0.0551 1.01619,0.0504 0.576,0.432"
       id="polyline4983"
       inkscape:connector-curvature="0" />
    <path
       style="fill:none;stroke:#000000;stroke-width:1;stroke-linecap:round;stroke-linejoin:round"
       d="m 229.00971,470.01534 c -0.66278,-0.43417 -0.0433,-2.45821 -1.79999,-2.37604"
       id="polyline4985"
       inkscape:connector-curvature="0" />
    <path
       style="fill:none;stroke:#000000;stroke-width:1;stroke-linecap:round;stroke-linejoin:round"
       d="m 226.12974,467.20734 c -0.38547,-0.89808 -1.82496,-0.78344 -2.448,-1.512"
       id="polyline4987"
       inkscape:connector-curvature="0" />
    <path
       style="fill:none;stroke:#000000;stroke-width:1;stroke-linecap:round;stroke-linejoin:round"
       d="m 223.03374,465.4073 c -0.87674,-0.99371 -1.83816,-1.01277 -3.09602,-0.79199"
       id="polyline4989"
       inkscape:connector-curvature="0" />
    <path
       style="fill:none;stroke:#000000;stroke-width:1;stroke-linecap:round;stroke-linejoin:round"
       d="m 215.61771,465.04734 c -0.70763,-1.78932 -2.62095,-0.44109 -3.74399,-0.144"
       id="polyline4991"
       inkscape:connector-curvature="0" />
    <path
       style="fill:none;stroke:#000000;stroke-width:1;stroke-linecap:round;stroke-linejoin:round"
       d="m 207.26572,465.83931 c -0.20391,-0.24281 -0.80648,-0.10645 -1.15201,-0.14397"
       id="polyline4993"
       inkscape:connector-curvature="0" />
    <path
       style="fill:none;stroke:#000000;stroke-width:1;stroke-linecap:round;stroke-linejoin:round"
       d="m 199.63374,467.6393 c -0.85875,0.12921 -1.45737,0.54484 -1.512,0.93604"
       id="polyline4995"
       inkscape:connector-curvature="0" />
    <path
       style="fill:none;stroke:#000000;stroke-width:1;stroke-linecap:round;stroke-linejoin:round"
       d="m 195.52974,471.38334 c -0.75569,0.12493 -2.08962,1.05246 -1.65602,1.872"
       id="polyline4997"
       inkscape:connector-curvature="0" />
    <path
       style="fill:none;stroke:#000000;stroke-width:1;stroke-linecap:round;stroke-linejoin:round"
       d="m 193.44172,476.06331 c 0.22634,0.50804 -0.48159,0.90946 -0.43201,1.44003"
       id="polyline4999"
       inkscape:connector-curvature="0" />
    <path
       style="fill:none;stroke:#000000;stroke-width:1;stroke-linecap:round;stroke-linejoin:round"
       d="m 194.01774,478.43934 c -0.12392,-1.75695 -0.0572,1.8165 -0.072,2.448 -0.3573,2.52483 0.38258,4.9668 2.16,6.768 1.64284,2.73109 4.39182,4.25689 7.41602,5.112 3.98353,1.02538 8.09424,2.59274 12.23998,1.584 5.06351,-0.42167 10.17172,-1.54964 14.56224,-4.15809 3.70984,-1.44097 6.01694,-4.70385 8.33378,-7.64991 0.51053,-1.74498 1.81534,-3.10693 2.08796,-4.968 1.08591,-1.84027 1.8608,-4.10686 2.52004,-6.26405 -0.0264,-1.01124 0.18476,-1.03273 0.072,-0.50395 -0.20304,1.34503 -3.75325,1.86039 -1.59495,0.30613 1.03381,-1.72343 2.56226,-1.59857 2.60295,0.55787 -0.62192,2.29785 -2.69619,-0.52808 -3.38403,-1.512 -0.39536,-0.4766 1.22706,0.0764 1.36803,0.14396"
       id="polyline5001"
       inkscape:connector-curvature="0" />
    <path
       style="fill:none;stroke:#000000;stroke-width:1;stroke-linecap:round;stroke-linejoin:round"
       d="m 242.83374,469.00734 c -0.20037,-1.07339 0.0219,-2.38134 -0.792,-3.16803"
       id="polyline5003"
       inkscape:connector-curvature="0" />
    <path
       style="fill:none;stroke:#000000;stroke-width:1;stroke-linecap:round;stroke-linejoin:round"
       d="m 240.60174,464.1833 c -0.16373,-0.86486 -0.97506,-1.47754 -1.656,-1.656"
       id="polyline5005"
       inkscape:connector-curvature="0" />
    <path
       style="fill:none;stroke:#000000;stroke-width:1;stroke-linecap:round;stroke-linejoin:round"
       d="m 235.84971,462.09529 c -0.23931,-1.36151 -0.77253,-2.21917 -2.01597,-2.08795"
       id="polyline5007"
       inkscape:connector-curvature="0" />
    <path
       style="fill:none;stroke:#000000;stroke-width:1;stroke-linecap:round;stroke-linejoin:round"
       d="m 230.95374,459.64729 c -0.22823,-0.35004 -0.7486,-0.67341 -1.224,-1.07995"
       id="polyline5009"
       inkscape:connector-curvature="0" />
    <path
       style="fill:none;stroke:#000000;stroke-width:1;stroke-linecap:round;stroke-linejoin:round"
       d="m 220.08174,458.20734 c -0.97766,0.21669 -2.08195,-0.23251 -3.168,-0.072"
       id="polyline5011"
       inkscape:connector-curvature="0" />
    <path
       style="fill:none;stroke:#000000;stroke-width:1;stroke-linecap:round;stroke-linejoin:round"
       d="m 210.00171,457.4153 c -1.24211,-0.10963 -2.83505,1.01154 -4.104,0.57604 -0.11999,0 -0.23998,0 -0.35997,0"
       id="polyline5013"
       inkscape:connector-curvature="0" />
    <path
       style="fill:none;stroke:#000000;stroke-width:1;stroke-linecap:round;stroke-linejoin:round"
       d="m 196.96974,462.31129 c -1.09198,-0.0359 -0.33573,2.50263 -1.944,2.80805 -0.11968,0.2707 -0.77947,0.30248 -0.72,0.648"
       id="polyline5015"
       inkscape:connector-curvature="0" />
    <path
       style="fill:none;stroke:#000000;stroke-width:1;stroke-linecap:round;stroke-linejoin:round"
       d="m 193.65772,466.34334 c -0.44166,0.50742 -1.9522,1.96962 -2.448,2.808"
       id="polyline5017"
       inkscape:connector-curvature="0" />
    <path
       style="fill:none;stroke:#000000;stroke-width:1;stroke-linecap:round;stroke-linejoin:round"
       d="m 187.75374,472.10334 c -0.47991,2.01175 -2.45094,3.52025 -3.456,5.4 -0.31528,0.72075 0.23971,0.31717 0.504,0.864"
       id="polyline5019"
       inkscape:connector-curvature="0" />
    <path
       style="fill:none;stroke:#000000;stroke-width:1;stroke-linecap:round;stroke-linejoin:round"
       d="m 185.37772,481.7513 c -0.2342,-1.6326 -0.12754,1.21166 -0.14398,1.72804 -0.12404,2.18773 -0.20227,4.58772 1.8,5.976 2.62502,3.00002 4.98839,6.36411 8.85598,7.776 3.67855,1.9257 7.88991,2.57397 11.73602,4.17596 4.01362,1.34354 8.40777,0.84049 12.47784,0.0295 4.3644,-0.90777 7.85862,-3.83695 11.82315,-5.46553 3.39619,-0.58462 5.80864,-3.18072 8.83369,-4.6154 4.0111,-3.04058 8.96763,-5.38277 11.07332,-10.25251 1.03137,-2.18355 2.90328,-3.3969 3.6,-5.68804 0.88982,-1.53874 1.68422,-2.7582 2.448,-4.03196 0.73084,-0.7101 0.75613,-1.80916 0.64796,-2.376 0.048,-0.024 0.20405,0.06 0.14404,-0.072"
       id="polyline5021"
       inkscape:connector-curvature="0" />
    <path
       style="fill:none;stroke:#000000;stroke-width:1;stroke-linecap:round;stroke-linejoin:round"
       d="m 261.91374,462.67134 c -0.14953,-1.67728 0.13643,-2.71228 -0.648,-3.81604 0.002,-0.66851 -0.72205,-1.77042 -0.576,-2.15996"
       id="polyline5023"
       inkscape:connector-curvature="0" />
    <path
       style="fill:none;stroke:#000000;stroke-width:1;stroke-linecap:round;stroke-linejoin:round"
       d="m 261.62571,453.59934 c -0.0209,-0.75758 -0.33773,-1.42181 -0.64801,-2.08803"
       id="polyline5025"
       inkscape:connector-curvature="0" />
    <path
       style="fill:none;stroke:#000000;stroke-width:1;stroke-linecap:round;stroke-linejoin:round"
       d="m 258.7457,468.93534 c 1.0995,-1.53838 -1.82339,-0.80078 -2.51996,0 -0.35574,2.64184 4.0441,2.72166 5.472,1.224 1.18852,-1.57716 -1.99615,-2.70636 -3.024,-3.168"
       id="polyline5027"
       inkscape:connector-curvature="0" />
  </g>
</svg>
