<?xml version="1.0" encoding="UTF-8" standalone="no"?>
<!-- Created with Inkscape (http://www.inkscape.org/) -->

<svg
   xmlns:dc="http://purl.org/dc/elements/1.1/"
   xmlns:cc="http://creativecommons.org/ns#"
   xmlns:rdf="http://www.w3.org/1999/02/22-rdf-syntax-ns#"
   xmlns:svg="http://www.w3.org/2000/svg"
   xmlns="http://www.w3.org/2000/svg"
   xmlns:sodipodi="http://sodipodi.sourceforge.net/DTD/sodipodi-0.dtd"
   xmlns:inkscape="http://www.inkscape.org/namespaces/inkscape"
   width="253.04507"
   height="167"
   id="svg6090"
   version="1.1"
   inkscape:version="0.48.2 r9819"
   sodipodi:docname="A29sliceWurst.svg">
  <defs
     id="defs6092" />
  <sodipodi:namedview
     id="base"
     pagecolor="#ffffff"
     bordercolor="#666666"
     borderopacity="1.0"
     inkscape:pageopacity="0.0"
     inkscape:pageshadow="2"
     inkscape:zoom="2.8284271"
     inkscape:cx="104.81533"
     inkscape:cy="126.64506"
     inkscape:document-units="px"
     inkscape:current-layer="g3115"
     showgrid="false"
     showborder="true"
     fit-margin-top="0"
     fit-margin-left="0"
     fit-margin-right="0"
     fit-margin-bottom="0"
     inkscape:window-width="1920"
     inkscape:window-height="1011"
     inkscape:window-x="-4"
     inkscape:window-y="-4"
     inkscape:window-maximized="1"
     showguides="true"
     inkscape:guide-bbox="true" />
  <metadata
     id="metadata6095">
    <rdf:RDF>
      <cc:Work
         rdf:about="">
        <dc:format>image/svg+xml</dc:format>
        <dc:type
           rdf:resource="http://purl.org/dc/dcmitype/StillImage" />
        <dc:title />
      </cc:Work>
    </rdf:RDF>
  </metadata>
  <g
     inkscape:label="Layer 1"
     inkscape:groupmode="layer"
     id="layer1"
     transform="translate(-147.54649,-284.2925)">
    <g
       id="g3115">
      <path
         inkscape:connector-curvature="0"
         id="polyline4597"
         d="m 227.59371,356.97704 c 2.50823,-1.15292 5.9775,0.0333 9.07201,-0.072 4.86943,1.62982 10.95057,0.37571 14.54399,4.68 7.38564,5.27967 16.63787,6.42998 25.34401,7.70395 7.7664,2.15971 15.76766,4.66416 23.97598,4.17605 7.01101,-0.0731 13.94427,-2.08466 19.53672,-6.40838 4.42903,-2.3919 7.87601,-6.0525 10.1993,-10.51162 2.23598,-4.68349 5.84636,-9.58693 4.464,-14.976 -1.81519,-3.65812 -3.0252,-7.91759 -6.98402,-9.936 -4.38826,-2.04018 -7.86324,-3.17031 -12.6,-3.02404 -2.26939,-0.36322 -5.55005,0.39741 -6.47998,1.72804 -3.47639,5.52352 -5.44839,6.69235 -8.05783,9.03761 -2.86841,1.50155 -3.27773,5.82546 -3.78618,8.31439 -0.50845,2.48893 -0.52601,12.55268 -3.34801,13.752 -0.56894,1.68224 -3.0369,3.44157 -3.52798,4.896"
         style="fill:none;stroke:#000000;stroke-width:1;stroke-linecap:round;stroke-linejoin:round"
         sodipodi:nodetypes="cccccccccccczcc" />
      <path
         inkscape:connector-curvature="0"
         id="polyline4601"
         d="m 229.03371,356.833 c -1.00561,-1.54335 -4.10541,-0.31097 -6.192,-0.71996 -4.78748,0.43897 -12.01859,6.03639 -13.67999,9.50396 -2.02655,2.48753 -4.05688,5.35162 -3.528,8.78399 0.40187,0.10888 1.11593,3.19561 1.584,4.53601 2.3848,3.65229 1.7216,9.84476 0.216,13.10401 -2.87984,2.7507 -4.88514,6.68392 -7.92001,9.57599 -2.87585,3.8963 -4.526,8.22645 -3.74399,12.74404 1.38784,3.9008 4.49219,7.7202 8.35199,9.288 4.46048,0.29061 8.51294,-1.77389 12.672,-2.952"
         style="fill:none;stroke:#00009f;stroke-width:2;stroke-linecap:round;stroke-linejoin:round;stroke-miterlimit:4;stroke-opacity:1;stroke-dasharray:none"
         sodipodi:nodetypes="cccccccccc" />
      <path
         inkscape:connector-curvature="0"
         id="polyline4603"
         d="m 206.0813,423.93381 c 2.52448,0.10665 5.40913,-2.24787 8.22896,-2.35612 5.57604,-1.17932 11.01549,-1.72231 16.54969,-2.89665 8.56683,-1.11229 17.14763,1.21427 25.74977,0.432 4.83903,-0.40215 10.18012,1.10079 14.328,-2.088 4.33187,-1.71831 7.55259,-5.2973 11.52,-7.20004 5.10518,-4.28014 9.11948,-10.89631 16.34398,-11.73596 12.92354,-1.13471 28.04612,3.23609 38.448,3.09595 10.40188,-0.14014 15.90093,0.38298 23.616,-1.43995 6.90727,-1.61597 14.00382,-4.16822 19.87202,-7.632 5.68144,-4.25993 10.46944,-11.30383 13.032,-16.704 2.56256,-5.40017 4.6188,-9.10989 5.21709,-14.1116 1.38676,-5.61804 1.13787,-11.31688 0.97491,-17.2084 -0.16296,-5.89152 -2.52076,-10.66342 -3.81602,-16.056 -0.65201,-0.94633 -0.91664,-3.3295 -1.29598,-3.816 l -8.00857,-10.80514 c -2.81416,-1.39831 -16.62156,-11.90023 -19.55353,-13.53105 -6.6667,-3.70815 -14.75662,-2.94014 -22.1899,-3.67181 -5.76314,0.0646 -11.39671,0.94783 -17.09024,1.656 -5.73678,0.25053 -11.25834,2.69866 -16.31778,4.53595 -5.77867,2.40917 -10.77606,6.85289 -15.048,11.44805 -2.71316,4.88368 -5.24282,10.05397 -6.47998,15.55195 0.19018,5.46849 -1.50997,10.66351 -1.368,16.12805 -0.5867,3.49219 -0.84099,7.08344 -0.72,10.584"
         style="fill:none;stroke:#000000;stroke-width:1;stroke-linecap:round;stroke-linejoin:round"
         sodipodi:nodetypes="ccccccczcczczcccsccccccc" />
      <path
         inkscape:connector-curvature="0"
         id="polyline4609"
         d="m 288.64972,356.11304 c -2.15189,-0.20865 -4.36004,3.3998 -7.2,3.528 -3.02102,1.74078 -5.48375,0.20503 -8.71201,0.432 -1.86036,-0.51332 -3.66957,-1.17399 -4.608,-2.73601 -0.84925,-0.98879 -1.04271,-1.72801 -1.43999,-3.45599 -0.26034,-2.04269 -0.53651,-3.90833 -2.37601,-5.112 -0.73276,-0.82831 -5.60439,-2.41579 -5.20819,-3.13254"
         style="fill:none;stroke:#000000;stroke-width:1;stroke-linecap:round;stroke-linejoin:round"
         sodipodi:nodetypes="ccccccc" />
      <path
         inkscape:connector-curvature="0"
         id="polyline4611"
         d="m 290.3057,366.33704 c -3.2273,1.4078 -9.41376,2.25785 -13.89598,2.52 -0.1302,-0.18969 -1.16095,-0.11815 -1.22401,-0.14404"
         style="fill:none;stroke:#000000;stroke-width:1;stroke-linecap:round;stroke-linejoin:round"
         sodipodi:nodetypes="ccc" />
      <path
         inkscape:connector-curvature="0"
         id="polyline4613"
         d="m 265.70912,367.16876 c -0.0917,-1.27813 -7.36589,-5.85441 -6.59822,-7.51645"
         style="fill:none;stroke:#000000;stroke-width:1;stroke-linecap:round;stroke-linejoin:round"
         sodipodi:nodetypes="cc" />
      <path
         inkscape:connector-curvature="0"
         id="polyline4619"
         d="m 197.77271,422.10504 c 1.5449,0.96689 -3.3302,-2.65144 -4.239,-2.56104"
         style="fill:none;stroke:#7f7f7f;stroke-width:1;stroke-linecap:round;stroke-linejoin:round;stroke-opacity:1"
         sodipodi:nodetypes="cc" />
      <path
         inkscape:connector-curvature="0"
         id="polyline4621"
         d="m 190.68974,417.90374 c -1.26376,-1.63452 -3.43011,-3.02057 -5.68301,-3.62504 l 0.0826,-0.0595 0.28424,0.0463"
         style="fill:none;stroke:#7f7f7f;stroke-width:1;stroke-linecap:round;stroke-linejoin:round;stroke-opacity:1" />
      <path
         inkscape:connector-curvature="0"
         id="polyline4623"
         d="m 181.92925,411.48971 c -1.20732,-1.18108 -2.74603,-2.28814 -4.06137,-3.47553"
         style="fill:none;stroke:#7f7f7f;stroke-width:1;stroke-linecap:round;stroke-linejoin:round;stroke-opacity:1" />
      <path
         inkscape:connector-curvature="0"
         id="polyline4625"
         d="m 228.88972,353.95299 c -1.49489,-0.81732 -2.14161,-1.54676 -3.74401,-2.664 -1.09105,-0.28764 -2.13469,-0.60133 -3.16799,-0.93595"
         style="fill:none;stroke:#7f7f7f;stroke-width:1;stroke-linecap:round;stroke-linejoin:round;stroke-opacity:1" />
      <path
         inkscape:connector-curvature="0"
         id="polyline4627"
         d="m 218.44972,346.96904 c -0.34524,-2.03344 -3.27645,-1.84972 -4.82401,-2.37603 -2.48223,-0.40302 -5.46538,1.92798 -7.63199,0.93603"
         style="fill:none;stroke:#7f7f7f;stroke-width:1;stroke-linecap:round;stroke-linejoin:round;stroke-opacity:1" />
      <path
         inkscape:connector-curvature="0"
         id="polyline4629"
         d="m 204.80626,343.37012 c -0.64326,-2.516 -4.15638,-0.77156 -5.40001,-2.88 -0.55492,-0.86028 -4.17556,-1.43937 -3.38399,-0.792"
         style="fill:none;stroke:#7f7f7f;stroke-width:1;stroke-linecap:round;stroke-linejoin:round;stroke-opacity:1" />
      <path
         inkscape:connector-curvature="0"
         id="polyline4631"
         d="m 194.04171,337.68104 c -2.25157,-1.16338 -5.69752,-0.27661 -7.416,-2.664 -1.19491,0.40888 -2.43207,-0.57435 -3.672,-0.36"
         style="fill:none;stroke:#7f7f7f;stroke-width:1;stroke-linecap:round;stroke-linejoin:round;stroke-opacity:1" />
      <path
         inkscape:connector-curvature="0"
         id="polyline4633"
         d="m 180.79372,334.15301 c -1.40225,0.4114 -2.53147,-0.55306 -3.888,-0.64801"
         style="fill:none;stroke:#7f7f7f;stroke-width:1;stroke-linecap:round;stroke-linejoin:round;stroke-opacity:1" />
      <path
         inkscape:connector-curvature="0"
         id="polyline4635"
         d="m 176.32757,404.78391 c -1.53248,-0.8169 -1.20388,-1.30758 -2.30185,-2.37487 -3.81162,-2.44263 -7.09122,-5.92564 -10.008,-9.216 -2.84436,-2.65883 -4.2291,-7.21774 -6.48001,-10.728 -1.99289,-4.54719 -2.67418,-9.54872 -4.31999,-14.18404 -2.47577,-4.15117 -2.00967,-9.26606 -3.67201,-13.68 -1.72292,-8.10977 -2.33553,-16.77019 0.21601,-24.69596 1.46877,-4.23024 1.37511,-9.2172 3.816,-13.17605 1.52269,-4.42544 3.90909,-7.30579 9.36,-13.64395 5.45091,-6.33816 13.60152,-10.82669 22.06947,-11.18227 8.54877,-0.94835 21.94846,0.94801 29.76192,3.76466 7.81346,2.81664 7.19009,3.14219 7.20861,3.13361"
         style="fill:none;stroke:#000000;stroke-width:1;stroke-linecap:round;stroke-linejoin:round"
         sodipodi:nodetypes="cccccccczczc" />
      <path
         inkscape:connector-curvature="0"
         id="polyline4639"
         d="m 175.75156,333.03543 c -0.84821,-0.86818 -2.15391,-2.06462 -3.81384,-2.41044 -4.14075,-0.85747 -6.20364,-5.98551 -4.464,-9.57599 0.86829,-0.37965 1.90918,-2.50105 2.376,-3.888 1.60004,-4.24173 6.97255,-6.27811 11.232,-8.35196 4.51819,-2.06323 9.59541,-2.80224 13.968,-4.32004 1.99358,-0.45726 5.11053,-0.32471 6.48,0.072 0.0926,-0.38846 1.18927,0.63901 1.34865,0.69717"
         style="fill:none;stroke:#000000;stroke-width:1;stroke-linecap:round;stroke-linejoin:round"
         sodipodi:nodetypes="cccccccc" />
      <path
         inkscape:connector-curvature="0"
         id="polyline4641"
         d="m 205.31671,305.96665 c -1.5752,0.50073 1.88884,-0.36842 2.088,0.072"
         style="fill:none;stroke:#7f7f7f;stroke-width:1;stroke-linecap:round;stroke-linejoin:round;stroke-opacity:1" />
      <path
         inkscape:connector-curvature="0"
         id="polyline4643"
         d="m 211.76125,307.29163 c 1.26595,0.23704 3.55616,0.90288 5.25599,0.93603"
         style="fill:none;stroke:#7f7f7f;stroke-width:1;stroke-linecap:round;stroke-linejoin:round;stroke-opacity:1" />
      <path
         inkscape:connector-curvature="0"
         id="polyline4645"
         d="m 219.81771,312.76904 c 1.36633,0.84053 1.28117,2.79115 2.52001,3.74395 1.29733,0.59794 1.84742,3.83032 2.23199,3.67205 -0.1619,0.35305 1.33473,1.76873 0.79201,2.736"
         style="fill:none;stroke:#7f7f7f;stroke-width:1;stroke-linecap:round;stroke-linejoin:round;stroke-opacity:1" />
      <path
         inkscape:connector-curvature="0"
         id="polyline4647"
         d="m 226.08172,303.91304 c -0.15143,-2.96357 1.95554,0.75593 3.42736,1.16172 0.80466,0.95788 3.8388,0.72835 3.70063,1.79028"
         style="fill:none;stroke:#7f7f7f;stroke-width:1;stroke-linecap:round;stroke-linejoin:round;stroke-opacity:1" />
      <path
         inkscape:connector-curvature="0"
         id="polyline4649"
         d="m 238.42583,311.77181 c 0.25819,2.21831 2.35736,3.58593 2.34528,5.99764"
         style="fill:none;stroke:#7f7f7f;stroke-width:1;stroke-linecap:round;stroke-linejoin:round;stroke-opacity:1" />
      <path
         inkscape:connector-curvature="0"
         id="polyline4651"
         d="m 243.18225,323.55669 c 0.60834,0.89641 0.0636,3.67271 0.216,5.184"
         style="fill:none;stroke:#7f7f7f;stroke-width:1;stroke-linecap:round;stroke-linejoin:round;stroke-opacity:1" />
      <path
         inkscape:connector-curvature="0"
         id="polyline4653"
         d="m 245.66572,333.07304 c -0.84815,1.05636 0.59205,5.29005 1.8,5.472"
         style="fill:none;stroke:#7f7f7f;stroke-width:1;stroke-linecap:round;stroke-linejoin:round;stroke-opacity:1" />
      <path
         inkscape:connector-curvature="0"
         id="polyline4655"
         d="m 249.74552,342.79089 c 1.11439,3.18932 3.79662,1.8834 5.82878,2.98854"
         style="fill:none;stroke:#7f7f7f;stroke-width:1;stroke-linecap:round;stroke-linejoin:round;stroke-opacity:1"
         sodipodi:nodetypes="cc" />
      <path
         inkscape:connector-curvature="0"
         id="polyline4657"
         d="m 226.29772,325.945 c 0.31793,2.13048 -1.22737,5.87122 2.15999,5.76001"
         style="fill:none;stroke:#7f7f7f;stroke-width:1;stroke-linecap:round;stroke-linejoin:round;stroke-opacity:1" />
      <path
         inkscape:connector-curvature="0"
         id="polyline4659"
         d="m 231.94595,334.31262 c 2.53375,1.003 4.00724,1.67544 5.54399,2.448"
         style="fill:none;stroke:#7f7f7f;stroke-width:1;stroke-linecap:round;stroke-linejoin:round;stroke-opacity:1"
         sodipodi:nodetypes="cc" />
      <path
         inkscape:connector-curvature="0"
         id="polyline4661"
         d="m 241.41772,340.41704 c 0.78556,-1.31421 2.19146,1.73673 0.72,2.448 -1.37458,1.47885 -2.16473,4.32191 -0.64801,5.832 1.51672,1.51009 1.92911,2.02667 4.42317,3.04062 2.49406,1.01396 3.40159,2.05613 4.37211,1.46096"
         style="fill:none;stroke:#7f7f7f;stroke-width:1;stroke-linecap:round;stroke-linejoin:round;stroke-opacity:1"
         sodipodi:nodetypes="cczzc" />
      <path
         inkscape:connector-curvature="0"
         id="polyline4663"
         d="m 251.81828,355.03713 c 1.65329,1.24648 3.63999,0.3871 5.54657,2.84601"
         style="fill:none;stroke:#7f7f7f;stroke-width:1;stroke-linecap:round;stroke-linejoin:round;stroke-opacity:1"
         sodipodi:nodetypes="cc" />
      <path
         inkscape:connector-curvature="0"
         id="polyline4665"
         d="m 232.9944,358.335 c 2.43052,0.86028 2.21038,1.89302 3.67677,2.86177"
         style="fill:none;stroke:#00009f;stroke-width:2;stroke-linecap:round;stroke-linejoin:round;stroke-miterlimit:4;stroke-opacity:1;stroke-dasharray:none"
         sodipodi:nodetypes="cc" />
      <path
         inkscape:connector-curvature="0"
         id="polyline4667"
         d="m 239.18572,365.18504 c -0.0626,-3.16523 1.7713,0.6224 2.30399,1.65595 0.91331,1.41874 1.32662,3.56826 1.22401,4.96805"
         style="fill:none;stroke:#00009f;stroke-width:2;stroke-linecap:round;stroke-linejoin:round;stroke-miterlimit:4;stroke-opacity:1;stroke-dasharray:none" />
      <path
         inkscape:connector-curvature="0"
         id="polyline4669"
         d="m 242.42571,377.64104 c 0.87758,-1.07852 0.0472,3.0449 0.28801,3.888 0.075,1.02379 -0.028,1.99386 0.36,2.88"
         style="fill:none;stroke:#00009f;stroke-width:2;stroke-linecap:round;stroke-linejoin:round;stroke-miterlimit:4;stroke-opacity:1;stroke-dasharray:none" />
      <path
         inkscape:connector-curvature="0"
         id="polyline4671"
         d="m 243.43371,389.66504 c -0.0489,0.26727 -0.25867,3.14564 -0.648,2.95196 -0.91829,1.56282 -0.21942,4.05787 -0.86399,5.328"
         style="fill:none;stroke:#00009f;stroke-width:2;stroke-linecap:round;stroke-linejoin:round;stroke-miterlimit:4;stroke-opacity:1;stroke-dasharray:none" />
      <path
         inkscape:connector-curvature="0"
         id="polyline4673"
         d="m 240.23171,402.73101 c -1.95664,-0.46455 -2.29088,1.18358 -3.854,1.76599 -1.55271,1.1421 -2.18322,3.16108 -3.24799,4.71004"
         style="fill:none;stroke:#00009f;stroke-width:2;stroke-linecap:round;stroke-linejoin:round;stroke-miterlimit:4;stroke-opacity:1;stroke-dasharray:none"
         sodipodi:nodetypes="ccc" />
      <path
         inkscape:connector-curvature="0"
         id="polyline4675"
         d="m 224.8471,417.75622 c 2.22005,0.92689 4.42474,-1.48828 4.896,-3.312 0.61733,-0.64808 1.43567,-2.69369 0.936,-2.67595"
         style="fill:none;stroke:#00009f;stroke-width:2;stroke-linecap:round;stroke-linejoin:round;stroke-miterlimit:4;stroke-opacity:1;stroke-dasharray:none"
         sodipodi:nodetypes="ccc" />
      <path
         inkscape:connector-curvature="0"
         id="polyline4677"
         d="m 210.95149,363.2328 c -2.80474,2.8048 -4.66281,2.19366 -7.92427,3.43454 4.90954,-0.0989 2.98094,2.05003 4.9672,0.73153 l 1.16582,5.1132 c 0.3945,-3.98802 -0.44068,-4.79056 1.79125,-9.27927 z"
         style="fill:#00009f;fill-opacity:1;stroke:#00009f;stroke-width:1.09794092;stroke-linecap:round;stroke-linejoin:round;stroke-opacity:1"
         sodipodi:nodetypes="ccccc" />
      <path
         inkscape:connector-curvature="0"
         id="polyline4701"
         d="m 272.95371,393.049 c 6.3419,-2.20629 17.39107,-4.64312 22.03201,-5.39996 4.64094,-0.75684 9.24522,-1.04449 13.464,-2.736 4.23911,-2.11437 4.8535,-5.33375 5.03714,-7.82471 0.18364,-2.49097 -0.76427,-4.43857 -2.00157,-5.38572"
         style="fill:none;stroke:#000000;stroke-width:2;stroke-linecap:round;stroke-linejoin:round;stroke-miterlimit:4;stroke-dasharray:none"
         sodipodi:nodetypes="czczc" />
      <path
         inkscape:connector-curvature="0"
         id="polyline4715"
         d="m 310.79113,371.78318 c -0.80871,0.20541 -0.89539,0.89073 -1.60698,1.59257 -0.0344,0.51219 -0.55308,0.93786 -0.71429,1.68486"
         style="fill:none;stroke:#000000;stroke-width:1;stroke-linecap:round;stroke-linejoin:round"
         sodipodi:nodetypes="ccc" />
      <path
         inkscape:connector-curvature="0"
         id="polyline4717"
         d="m 308.25958,377.21472 c -0.30587,1.98656 1.30243,3.89451 1.97,4.76661"
         style="fill:none;stroke:#000000;stroke-width:1;stroke-linecap:round;stroke-linejoin:round"
         sodipodi:nodetypes="cc" />
      <path
         inkscape:connector-curvature="0"
         id="polyline4719"
         d="m 314.10598,386.87147 c 1.14863,1.90742 4.54893,4.11919 3.37829,3.32928 -1.17064,-0.78991 2.1115,1.22184 2.71014,1.41983"
         style="fill:none;stroke:#000000;stroke-width:1;stroke-linecap:round;stroke-linejoin:round"
         sodipodi:nodetypes="czc" />
      <path
         inkscape:connector-curvature="0"
         id="polyline4721"
         d="m 324.05899,394.24418 c 3.29159,1.7618 5.14144,2.36065 6.98402,2.92026"
         style="fill:none;stroke:#000000;stroke-width:1;stroke-linecap:round;stroke-linejoin:round"
         sodipodi:nodetypes="cc" />
      <path
         inkscape:connector-curvature="0"
         id="polyline4723"
         d="m 352.00972,399.601 c 4.76352,-1.43325 9.02613,-4.44804 12.096,-6.62396 3.77951,-2.73999 6.81681,-6.47729 8.784,-10.944 1.96719,-4.46671 3.11758,-10.36511 4.03198,-15.048 0.9144,-4.68289 0.9649,-8.78636 -1.07998,-12.81604 -1.25962,-5.12663 -3.66589,-10.09681 -5.832,-14.75996 -0.11224,-0.12002 -0.0918,-0.80969 0.35998,0.288"
         style="fill:none;stroke:#000000;stroke-width:2;stroke-linecap:round;stroke-linejoin:round;stroke-miterlimit:4;stroke-dasharray:none"
         sodipodi:nodetypes="cczzccc" />
      <path
         inkscape:connector-curvature="0"
         id="polyline4747"
         d="m 206.42571,409.24904 c -0.30414,2.55713 0.1127,6.34439 2.88001,8.208 1.41028,1.27574 2.59414,3.00296 4.392,3.744"
         style="fill:none;stroke:#000000;stroke-width:1;stroke-linecap:round;stroke-linejoin:round" />
      <path
         inkscape:connector-curvature="0"
         id="polyline4749"
         d="m 215.06679,410.47412 c -0.10508,2.77212 3.32138,7.52995 5.68909,9.43308"
         style="fill:none;stroke:#000000;stroke-width:1;stroke-linecap:round;stroke-linejoin:round"
         sodipodi:nodetypes="cc" />
      <path
         inkscape:connector-curvature="0"
         id="polyline4751"
         d="m 222.80841,410.4408 c 0.85441,2.65233 4.1892,7.36964 7.77599,7.70396"
         style="fill:none;stroke:#000000;stroke-width:1;stroke-linecap:round;stroke-linejoin:round" />
      <path
         inkscape:connector-curvature="0"
         id="polyline4753"
         d="m 237.23029,411.09533 c -0.90971,0.0924 0.89278,2.99372 2.088,3.38397 0.76282,1.04297 1.45899,2.11569 2.304,3.09603"
         style="fill:none;stroke:#000000;stroke-width:1;stroke-linecap:round;stroke-linejoin:round" />
      <path
         inkscape:connector-curvature="0"
         id="polyline4755"
         d="m 247.10037,413.12491 c 1.98322,1.89009 4.1243,5.44222 7.416,6.04796"
         style="fill:none;stroke:#000000;stroke-width:1;stroke-linecap:round;stroke-linejoin:round" />
      <path
         inkscape:connector-curvature="0"
         id="polyline4757"
         d="m 258.96858,412.53242 c 0.34834,2.24179 3.12534,4.54184 5.256,5.90405"
         style="fill:none;stroke:#000000;stroke-width:1;stroke-linecap:round;stroke-linejoin:round" />
      <path
         inkscape:connector-curvature="0"
         id="polyline4759"
         d="m 268.84971,408.88904 c -0.10908,2.47557 2.80049,4.60398 4.824,5.544"
         style="fill:none;stroke:#000000;stroke-width:1;stroke-linecap:round;stroke-linejoin:round" />
      <path
         inkscape:connector-curvature="0"
         id="polyline4761"
         d="m 279.05057,407.14658 c 0.89766,0.93231 1.42889,2.09797 3.25158,2.30971"
         style="fill:none;stroke:#000000;stroke-width:0.5;stroke-linecap:round;stroke-linejoin:round;stroke-miterlimit:4;stroke-dasharray:none"
         sodipodi:nodetypes="cc" />
      <path
         inkscape:connector-curvature="0"
         id="polyline4763"
         d="m 219.16972,382.96904 c 0.28873,-3.55659 -3.07356,-6.55525 -1.44001,-10.224 0.0172,-0.62471 -0.0516,-1.25319 0.072,-1.872"
         style="fill:none;stroke:#000000;stroke-width:1;stroke-linecap:round;stroke-linejoin:round" />
      <path
         inkscape:connector-curvature="0"
         id="polyline4765"
         d="m 223.20171,380.377 c -0.2253,-3.36771 -2.30704,-6.91441 0.504,-9.93596"
         style="fill:none;stroke:#000000;stroke-width:1;stroke-linecap:round;stroke-linejoin:round" />
      <path
         inkscape:connector-curvature="0"
         id="polyline4767"
         d="m 230.18572,379.51299 c -0.15174,-3.01287 -0.89482,-6.52929 2.088,-8.49595"
         style="fill:none;stroke:#000000;stroke-width:1;stroke-linecap:round;stroke-linejoin:round" />
      <path
         inkscape:connector-curvature="0"
         id="polyline4769"
         d="m 237.96171,381.45704 c 0.81265,-2.2446 1.53999,-5.6638 3.16801,-6.912"
         style="fill:none;stroke:#000000;stroke-width:1;stroke-linecap:round;stroke-linejoin:round" />
      <path
         inkscape:connector-curvature="0"
         id="polyline4771"
         d="m 247.17771,380.01704 c 0.27706,-0.59528 0.59712,-1.16621 0.93601,-1.72805"
         style="fill:none;stroke:#000000;stroke-width:1;stroke-linecap:round;stroke-linejoin:round" />
      <path
         inkscape:connector-curvature="0"
         id="polyline4773"
         d="m 288.28972,398.377 c 1.06051,0.60913 0.64269,2.60603 1.79998,3.31204"
         style="fill:none;stroke:#000000;stroke-width:0.5;stroke-linecap:round;stroke-linejoin:round;stroke-miterlimit:4;stroke-dasharray:none" />
      <path
         inkscape:connector-curvature="0"
         id="polyline4775"
         d="m 300.0257,392.617 c 1.60318,2.08158 1.05348,4.09051 1.51202,4.89599"
         style="fill:none;stroke:#000000;stroke-width:0.5;stroke-linecap:round;stroke-linejoin:round;stroke-miterlimit:4;stroke-dasharray:none"
         sodipodi:nodetypes="cc" />
      <path
         inkscape:connector-curvature="0"
         id="polyline4777"
         d="m 312.20801,392.77833 c -0.25118,0.20651 -0.3948,3.58571 -0.72,4.82395"
         style="fill:none;stroke:#000000;stroke-width:0.5;stroke-linecap:round;stroke-linejoin:round;stroke-miterlimit:4;stroke-dasharray:none" />
      <path
         inkscape:connector-curvature="0"
         id="polyline4779"
         d="m 327.80343,393.3889 c 0.20619,1.28566 -0.30568,4.65476 -1.368,6.408"
         style="fill:none;stroke:#000000;stroke-width:0.5;stroke-linecap:round;stroke-linejoin:round;stroke-miterlimit:4;stroke-dasharray:none" />
      <path
         inkscape:connector-curvature="0"
         id="polyline4781"
         d="m 335.64076,398.28936 c 0.45074,-0.73874 2.79176,1.38716 4.03205,0.648"
         style="fill:none;stroke:#000000;stroke-width:1;stroke-linecap:round;stroke-linejoin:round" />
      <path
         inkscape:connector-curvature="0"
         id="polyline4787"
         d="m 294.07871,334.68604 c 0.94678,1.02863 2.52107,5.63525 4.96802,5.832"
         style="fill:none;stroke:#000000;stroke-width:0.5;stroke-linecap:round;stroke-linejoin:round;stroke-miterlimit:4;stroke-dasharray:none" />
      <path
         inkscape:connector-curvature="0"
         id="polyline4789"
         d="m 297.79047,329.90289 c 0.69177,2.63187 2.2378,5.62468 4.32002,7.344"
         style="fill:none;stroke:#000000;stroke-width:0.5;stroke-linecap:round;stroke-linejoin:round;stroke-miterlimit:4;stroke-dasharray:none" />
      <path
         inkscape:connector-curvature="0"
         id="polyline4791"
         d="m 301.69082,326.74243 c -0.37426,1.96566 1.51201,6.52592 3.96002,7.48797"
         style="fill:none;stroke:#000000;stroke-width:0.5;stroke-linecap:round;stroke-linejoin:round;stroke-miterlimit:4;stroke-dasharray:none" />
      <path
         inkscape:connector-curvature="0"
         id="polyline4795"
         d="m 315.84476,323.74476 c -0.47804,2.9737 2.89735,3.25355 4.608,4.96796"
         style="fill:none;stroke:#000000;stroke-width:1;stroke-linecap:round;stroke-linejoin:round" />
      <path
         inkscape:connector-curvature="0"
         id="polyline4797"
         d="m 325.02314,326.60919 c -0.16328,2.03909 1.12399,4.0951 2.736,5.328"
         style="fill:none;stroke:#000000;stroke-width:1;stroke-linecap:round;stroke-linejoin:round" />
      <path
         inkscape:connector-curvature="0"
         id="polyline4799"
         d="m 333.2908,330.88081 c 1.4254,1.54427 3.01794,3.61348 4.608,5.25597"
         style="fill:none;stroke:#000000;stroke-width:1;stroke-linecap:round;stroke-linejoin:round" />
      <path
         inkscape:connector-curvature="0"
         id="polyline4803"
         d="m 287.92972,363.81701 c 0.003,-2.47942 -0.1302,-1.50735 0.504,0.50403 0.55891,1.56318 1.81685,0.75847 2.304,-0.36005"
         style="fill:none;stroke:#000000;stroke-width:1;stroke-linecap:round;stroke-linejoin:round" />
      <path
         inkscape:connector-curvature="0"
         id="polyline4805"
         d="m 281.37772,363.52904 c 0.91504,-0.24918 1.57505,3.42158 3.384,3.31195"
         style="fill:none;stroke:#000000;stroke-width:1;stroke-linecap:round;stroke-linejoin:round" />
      <path
         inkscape:connector-curvature="0"
         id="polyline4807"
         d="m 290.66572,359.42504 c -0.0305,-0.65146 2.58514,0.3561 2.448,1.368"
         style="fill:none;stroke:#000000;stroke-width:1;stroke-linecap:round;stroke-linejoin:round" />
      <path
         inkscape:connector-curvature="0"
         id="polyline4809"
         d="m 273.45771,364.609 c -0.87663,-0.13082 0.44934,-0.0682 0.64801,-0.14396"
         style="fill:none;stroke:#000000;stroke-width:1;stroke-linecap:round;stroke-linejoin:round" />
      <path
         inkscape:connector-curvature="0"
         id="polyline4811"
         d="m 176.07503,404.42177 c 0.48277,-1.93927 -0.87346,-2.71729 -1.36252,-4.93699 -1.90982,-3.19092 -3.43394,-7.66103 -2.05479,-11.33177"
         style="fill:none;stroke:#000000;stroke-width:1;stroke-linecap:round;stroke-linejoin:round"
         sodipodi:nodetypes="ccc" />
      <path
         inkscape:connector-curvature="0"
         id="polyline4815"
         d="m 172.73371,389.359 c -0.0518,-3.19286 1.70271,-5.2214 2.3,-7.68596 l 0,0.216"
         style="fill:none;stroke:#000000;stroke-width:1;stroke-linecap:round;stroke-linejoin:round"
         sodipodi:nodetypes="ccc" />
      <path
         inkscape:connector-curvature="0"
         id="polyline4817"
         d="m 172.08172,400.68104 c -0.51309,0.91923 -1.98104,-2.47994 -2.37601,-3.456 -0.45116,-3.82268 -0.69427,-7.64057 -0.57599,-11.52003"
         style="fill:none;stroke:#000000;stroke-width:1;stroke-linecap:round;stroke-linejoin:round" />
      <path
         inkscape:connector-curvature="0"
         id="polyline4819"
         d="m 165.60172,394.56104 c -2.3335,-1.65689 -1.17988,-6.23092 -2.088,-9.07204 -0.13975,-1.00133 -0.0425,-2.01686 -0.072,-3.02396"
         style="fill:none;stroke:#000000;stroke-width:1;stroke-linecap:round;stroke-linejoin:round" />
      <path
         inkscape:connector-curvature="0"
         id="polyline4821"
         d="m 158.54572,385.20104 c -1.51786,-3.80329 -1.22128,-8.43995 -0.576,-12.60004 0.31295,-1.2291 0.29601,-2.50494 0.576,-3.74396"
         style="fill:none;stroke:#000000;stroke-width:1;stroke-linecap:round;stroke-linejoin:round" />
      <path
         inkscape:connector-curvature="0"
         id="polyline4823"
         d="m 154.00971,371.44904 c -1.24581,-2.65232 -2.09277,-8.22373 -0.14399,-11.16005"
         style="fill:none;stroke:#000000;stroke-width:1;stroke-linecap:round;stroke-linejoin:round" />
      <path
         inkscape:connector-curvature="0"
         id="polyline4825"
         d="m 150.48172,361.22504 c 0.0148,-4.38074 -1.16552,-9.26087 2.952,-12.38405"
         style="fill:none;stroke:#000000;stroke-width:1;stroke-linecap:round;stroke-linejoin:round" />
      <path
         inkscape:connector-curvature="0"
         id="polyline4827"
         d="m 151.20172,348.33704 c 0.59848,-0.5666 1.31765,-0.97894 1.94399,-1.51204"
         style="fill:none;stroke:#000000;stroke-width:1;stroke-linecap:round;stroke-linejoin:round" />
      <path
         inkscape:connector-curvature="0"
         id="polyline4829"
         d="m 162.59664,315.61079 c 1.76667,-2.98789 3.49064,1.88305 4.80937,3.0134 0.50917,0.53421 0.7818,1.45182 1.45463,1.73864"
         style="fill:none;stroke:#000000;stroke-width:1;stroke-linecap:round;stroke-linejoin:round" />
      <path
         inkscape:connector-curvature="0"
         id="polyline4831"
         d="m 168.01032,308.48349 c 1.29352,-1.04472 2.87227,2.42154 3.38399,3.67205 0.34215,0.72789 0.84958,1.22272 0.86401,2.08796"
         style="fill:none;stroke:#000000;stroke-width:1;stroke-linecap:round;stroke-linejoin:round" />
      <path
         inkscape:connector-curvature="0"
         id="polyline4833"
         d="m 172.58787,306.28366 c 2.60116,-1.80779 3.89118,2.61893 5.18399,4.03195"
         style="fill:none;stroke:#000000;stroke-width:1;stroke-linecap:round;stroke-linejoin:round" />
      <path
         inkscape:connector-curvature="0"
         id="polyline4835"
         d="m 186.1103,302.55932 c -0.35686,-3.47719 1.26216,3.66758 0.57599,3.744"
         style="fill:none;stroke:#000000;stroke-width:1;stroke-linecap:round;stroke-linejoin:round" />
      <path
         inkscape:connector-curvature="0"
         id="polyline4837"
         d="m 181.87479,303.87865 c -0.0247,-1.15251 -0.42556,2.83082 0.504,3.672"
         style="fill:none;stroke:#000000;stroke-width:1;stroke-linecap:round;stroke-linejoin:round" />
      <path
         inkscape:connector-curvature="0"
         id="polyline4839"
         d="m 192.31371,304.77704 c -0.53583,-2.60346 1.67889,-1.89733 2.37601,-4.32"
         style="fill:none;stroke:#000000;stroke-width:1;stroke-linecap:round;stroke-linejoin:round" />
      <path
         inkscape:connector-curvature="0"
         id="polyline4841"
         d="m 197.64172,303.44558 c 1.15679,-0.65251 2.60928,-2.2759 2.95199,-4.32 0.41102,-0.28216 0.49287,-0.77873 0.57601,-1.224"
         style="fill:none;stroke:#000000;stroke-width:1;stroke-linecap:round;stroke-linejoin:round" />
      <path
         inkscape:connector-curvature="0"
         id="polyline4843"
         d="m 205.48972,302.47304 c 1.18286,-0.56682 1.45164,-2.53894 2.952,-2.88003"
         style="fill:none;stroke:#000000;stroke-width:1;stroke-linecap:round;stroke-linejoin:round" />
      <path
         inkscape:connector-curvature="0"
         id="polyline4793-2"
         d="m 305.96313,324.57686 c 0.18696,1.4441 1.44178,3.98548 2.88,5.25596"
         style="fill:none;stroke:#000000;stroke-width:0.5;stroke-linecap:round;stroke-linejoin:round;stroke-miterlimit:4;stroke-dasharray:none" />
      <path
         style="fill:none;stroke:#9f0000;stroke-width:2;stroke-linecap:round;stroke-linejoin:round;stroke-miterlimit:4;stroke-opacity:1;stroke-dasharray:none"
         d="m 300.40268,310.11743 c -1.90958,2.45262 -2.61458,3.66422 -3.12277,6.61469 -0.50819,2.95048 0.92874,6.2469 2.59979,9.93483 2.91313,2.64831 3.37496,3.24303 9.59236,2.64048"
         id="polyline4601-1"
         inkscape:connector-curvature="0"
         sodipodi:nodetypes="czcc" />
      <path
         inkscape:connector-curvature="0"
         id="polyline4677-7"
         d="m 299.88786,327.21428 c -0.40602,-3.59583 -0.31576,-5.29891 -0.70681,-8.95128 -0.84231,5.7826 -0.3905,2.33397 -0.57404,4.53532 l -3.33915,-2.40377 c -1.79487,-1.47728 2.70501,2.79189 4.62001,6.81972 z"
         style="fill:none;stroke:#9f0000;stroke-width:1;stroke-linecap:round;stroke-linejoin:round;stroke-opacity:1"
         sodipodi:nodetypes="ccccc" />
      <path
         inkscape:connector-curvature="0"
         id="polyline4669-2"
         d="m 305.39369,308.69049 c 1.70363,0.0385 0.77463,-0.0917 1.60243,0.19739 0.96915,0.3384 2.11032,1.0416 2.8775,2.04062"
         style="fill:none;stroke:#9f0000;stroke-width:2;stroke-linecap:round;stroke-linejoin:round;stroke-miterlimit:4;stroke-opacity:1;stroke-dasharray:none"
         sodipodi:nodetypes="csc"
         inkscape:transform-center-y="2.344335"
         inkscape:transform-center-x="-0.788445" />
      <path
         inkscape:connector-curvature="0"
         id="polyline4669-2-0"
         d="m 312.88022,313.89649 c 1.04726,1.34428 0.64212,0.79917 0.94154,1.62327 0.35061,0.9648 1.02721,1.66857 0.73824,2.89458"
         style="fill:none;stroke:#9f0000;stroke-width:2;stroke-linecap:round;stroke-linejoin:round;stroke-miterlimit:4;stroke-opacity:1;stroke-dasharray:none"
         sodipodi:nodetypes="csc"
         inkscape:transform-center-y="2.093045"
         inkscape:transform-center-x="1.2454374" />
      <path
         inkscape:connector-curvature="0"
         id="polyline4669-2-7"
         d="m 314.2045,322.94941 c -0.26493,1.68335 -0.25263,1.63051 -0.64929,2.41247 -0.46438,0.91548 0.0618,0.5779 -1.03048,1.20527"
         style="fill:none;stroke:#9f0000;stroke-width:2;stroke-linecap:round;stroke-linejoin:round;stroke-miterlimit:4;stroke-opacity:1;stroke-dasharray:none"
         sodipodi:nodetypes="csc"
         inkscape:transform-center-x="2.428425"
         inkscape:transform-center-y="0.46938" />
      <path
         inkscape:connector-curvature="0"
         id="polyline4793"
         d="m 311.20238,323.25311 c 0.18696,1.4441 1.44178,3.98548 2.88,5.25596"
         style="fill:none;stroke:#000000;stroke-width:0.5;stroke-linecap:round;stroke-linejoin:round;stroke-miterlimit:4;stroke-dasharray:none" />
      <path
         inkscape:connector-curvature="0"
         id="polyline4677-0"
         d="m 307.63712,385.36814 c -3.31159,1.45887 -4.73782,2.394 -8.09073,3.89426 4.57295,-3.63814 1.82031,-1.51209 3.63017,-2.77859 l -3.75769,-1.67566 c -2.17988,-0.80749 3.77393,0.93235 8.21824,0.56 z"
         style="fill:none;stroke:#000000;stroke-width:1;stroke-linecap:round;stroke-linejoin:round"
         sodipodi:nodetypes="ccccc" />
      <path
         inkscape:connector-curvature="0"
         id="polyline4711-0-1"
         d="m 209.37449,390.47604 c 0.77028,-1.7633 -1.85714,-3.57741 -2.8654,-1.56127 -1.00826,2.01613 2.09512,3.32457 2.8654,1.56127 z"
         style="fill:#ffffff;fill-opacity:1;stroke:#000000;stroke-width:1;stroke-linecap:round;stroke-linejoin:round"
         sodipodi:nodetypes="zzz" />
      <path
         inkscape:connector-curvature="0"
         id="polyline4711-0-1-4"
         d="m 272.36361,394.44925 c 1.02282,-1.25822 -0.59445,-2.94606 -1.60271,-1.68754 -1.00827,1.25852 0.57989,2.94576 1.60271,1.68754 z"
         style="fill:none;stroke:#000000;stroke-width:1;stroke-linecap:round;stroke-linejoin:round"
         sodipodi:nodetypes="zzz" />
      <path
         inkscape:connector-curvature="0"
         id="polyline4711-0-1-47"
         d="m 370.48861,339.0921 c 1.02282,-1.25822 -0.59445,-2.94606 -1.60271,-1.68754 -1.00827,1.25852 0.57989,2.94576 1.60271,1.68754 z"
         style="fill:none;stroke:#000000;stroke-width:1;stroke-linecap:round;stroke-linejoin:round"
         sodipodi:nodetypes="zzz" />
      <path
         inkscape:connector-curvature="0"
         id="polyline4677-0-0"
         d="m 375.4898,352.33864 c 1.70159,3.19367 4.16896,5.26054 5.9149,8.49234 -3.96879,-4.28914 -3.0721,-2.41687 -4.46994,-4.12732 l -3.53385,4.5864 c -0.64281,2.23399 2.79139,-4.54721 2.08886,-8.95141 z"
         style="fill:#000000;fill-opacity:1;stroke:#000000;stroke-width:1;stroke-linecap:round;stroke-linejoin:round"
         sodipodi:nodetypes="cccccc"
         inkscape:transform-center-y="1.6071428" />
      <path
         inkscape:connector-curvature="0"
         id="polyline4779-5"
         d="m 348.74375,394.77643 c 0.20619,1.28566 -0.30568,4.65476 -1.368,6.408"
         style="fill:none;stroke:#000000;stroke-width:0.5;stroke-linecap:round;stroke-linejoin:round;stroke-miterlimit:4;stroke-dasharray:none" />
      <path
         inkscape:connector-curvature="0"
         id="polyline4779-0"
         d="m 341.95803,394.68715 c 0.20619,1.28566 -0.30568,4.65476 -1.368,6.408"
         style="fill:none;stroke:#000000;stroke-width:0.5;stroke-linecap:round;stroke-linejoin:round;stroke-miterlimit:4;stroke-dasharray:none" />
      <path
         inkscape:connector-curvature="0"
         id="polyline4779-2"
         d="m 369.19017,391.65143 c 0.20619,1.28566 -0.30568,4.65476 -1.368,6.408"
         style="fill:none;stroke:#000000;stroke-width:0.5;stroke-linecap:round;stroke-linejoin:round;stroke-miterlimit:4;stroke-dasharray:none" />
      <path
         inkscape:connector-curvature="0"
         id="polyline4779-6"
         d="m 380.4796,385.78116 c 0.43351,1.22781 0.5344,4.63407 -0.19613,6.54946"
         style="fill:none;stroke:#000000;stroke-width:0.5;stroke-linecap:round;stroke-linejoin:round;stroke-miterlimit:4;stroke-dasharray:none" />
      <path
         inkscape:connector-curvature="0"
         id="polyline4779-9"
         d="m 375.44017,388.97286 c 0.20619,1.28566 -0.30568,4.65476 -1.368,6.408"
         style="fill:none;stroke:#000000;stroke-width:0.5;stroke-linecap:round;stroke-linejoin:round;stroke-miterlimit:4;stroke-dasharray:none" />
      <path
         inkscape:connector-curvature="0"
         id="polyline4779-2-6"
         d="m 384.17786,381.52192 c 0.61515,1.14762 1.23276,4.49895 0.80195,6.50314"
         style="fill:none;stroke:#000000;stroke-width:0.5;stroke-linecap:round;stroke-linejoin:round;stroke-miterlimit:4;stroke-dasharray:none"
         inkscape:transform-center-x="-1.6964286"
         inkscape:transform-center-y="1.875" />
      <path
         inkscape:connector-curvature="0"
         id="polyline4779-2-4"
         d="m 361.60089,393.61572 c 0.20619,1.28566 -0.30568,4.65476 -1.368,6.408"
         style="fill:none;stroke:#000000;stroke-width:0.5;stroke-linecap:round;stroke-linejoin:round;stroke-miterlimit:4;stroke-dasharray:none" />
      <path
         inkscape:connector-curvature="0"
         id="polyline4779-2-8"
         d="m 354.81517,394.68715 c 0.20619,1.28566 -0.30568,4.65476 -1.368,6.408"
         style="fill:none;stroke:#000000;stroke-width:0.5;stroke-linecap:round;stroke-linejoin:round;stroke-miterlimit:4;stroke-dasharray:none" />
      <path
         inkscape:connector-curvature="0"
         id="polyline4779-2-7"
         d="m 334.54731,394.15144 c 0.20619,1.28566 -0.30568,4.65476 -1.368,6.408"
         style="fill:none;stroke:#000000;stroke-width:0.5;stroke-linecap:round;stroke-linejoin:round;stroke-miterlimit:4;stroke-dasharray:none" />
      <path
         inkscape:connector-curvature="0"
         id="polyline4779-2-60"
         d="m 319.90446,392.72286 c 0.20619,1.28566 -0.30568,4.65476 -1.368,6.408"
         style="fill:none;stroke:#000000;stroke-width:0.5;stroke-linecap:round;stroke-linejoin:round;stroke-miterlimit:4;stroke-dasharray:none" />
      <flowRoot
         xml:space="preserve"
         id="flowRoot3131"
         style="font-size:14px;font-style:normal;font-weight:normal;line-height:125%;letter-spacing:0px;word-spacing:0px;fill:#000000;fill-opacity:1;stroke:none;font-family:Sans"
         transform="translate(168.75969,297.44637)"><flowRegion
           id="flowRegion3133"><rect
             id="rect3135"
             width="9.8489876"
             height="18.182747"
             x="122.73354"
             y="-3.1977565" /></flowRegion><flowPara
           id="flowPara3137">p</flowPara></flowRoot>      <flowRoot
         xml:space="preserve"
         id="flowRoot3131-1"
         style="font-size:14px;font-style:normal;font-weight:normal;line-height:125%;letter-spacing:0px;word-spacing:0px;fill:#000000;fill-opacity:1;stroke:none;font-family:Sans"
         transform="translate(71.261148,351.95104)"><flowRegion
           id="flowRegion3133-7"><rect
             id="rect3135-4"
             width="9.8489876"
             height="18.182747"
             x="122.73354"
             y="-3.1977565" /></flowRegion><flowPara
           id="flowPara3137-0">p</flowPara></flowRoot>      <flowRoot
         xml:space="preserve"
         id="flowRoot3131-9"
         style="font-size:14px;font-style:normal;font-weight:normal;line-height:125%;letter-spacing:0px;word-spacing:0px;fill:#000000;fill-opacity:1;stroke:none;font-family:Sans"
         transform="translate(58.10886,382.25561)"><flowRegion
           id="flowRegion3133-4"><rect
             id="rect3135-8"
             width="33.335033"
             height="18.687822"
             x="122.73354"
             y="-3.1977565" /></flowRegion><flowPara
           id="flowPara3137-8">x(0)</flowPara></flowRoot>      <flowRoot
         xml:space="preserve"
         id="flowRoot3131-9-2"
         style="font-size:14px;font-style:normal;font-weight:normal;line-height:125%;letter-spacing:0px;word-spacing:0px;fill:#000000;fill-opacity:1;stroke:none;font-family:Sans"
         transform="translate(126.60613,396.68984)"><flowRegion
           id="flowRegion3133-4-4"><rect
             id="rect3135-8-5"
             width="33.335033"
             height="18.687822"
             x="122.73354"
             y="-3.1977565" /></flowRegion><flowPara
           id="flowPara3137-8-5">x(0)</flowPara></flowRoot>      <flowRoot
         xml:space="preserve"
         id="flowRoot3131-9-1"
         style="font-size:14px;font-style:normal;font-weight:normal;line-height:125%;letter-spacing:0px;word-spacing:0px;fill:#000000;fill-opacity:1;stroke:none;font-family:Sans"
         transform="translate(231.662,323.70632)"><flowRegion
           id="flowRegion3133-4-7"><rect
             id="rect3135-8-1"
             width="33.335033"
             height="18.687822"
             x="122.73354"
             y="-3.1977565" /></flowRegion><flowPara
           id="flowPara3137-8-1">x(0)</flowPara></flowRoot>      <path
         style="fill:none;stroke:#000000;stroke-width:1px;stroke-linecap:butt;stroke-linejoin:miter;stroke-opacity:1"
         d="M 28.789347,162.46726 111.39813,131.54199"
         id="path3221"
         inkscape:connector-curvature="0"
         transform="translate(147.54649,288.355)"
         sodipodi:nodetypes="cc" />
      <path
         style="fill:none;stroke:#000000;stroke-width:1px;stroke-linecap:butt;stroke-linejoin:miter;stroke-opacity:1"
         d="M 29.041885,162.21472 28.031733,26.854282"
         id="path3223"
         inkscape:connector-curvature="0"
         transform="translate(147.54649,288.355)" />
      <path
         style="fill:none;stroke:#000000;stroke-width:1px;stroke-linecap:butt;stroke-linejoin:miter;stroke-opacity:1"
         d="M 27.779195,26.854282 110.87687,-2.3517536 111.5,77.0625"
         id="path3225"
         inkscape:connector-curvature="0"
         sodipodi:nodetypes="cc"
         transform="translate(147.54649,288.355)" />
      <path
         style="fill:none;stroke:#7f7f7f;stroke-width:1;stroke-linecap:butt;stroke-linejoin:miter;stroke-miterlimit:4;stroke-opacity:1;stroke-dasharray:6, 6;stroke-dashoffset:0"
         d="m 259.04649,365.81972 0.33575,53.55635"
         id="path3997"
         inkscape:connector-curvature="0"
         sodipodi:nodetypes="cc" />
    </g>
  </g>
</svg>
