<?xml version="1.0" encoding="UTF-8" standalone="no"?>
<!-- Created with Inkscape (http://www.inkscape.org/) -->

<svg
   xmlns:dc="http://purl.org/dc/elements/1.1/"
   xmlns:cc="http://creativecommons.org/ns#"
   xmlns:rdf="http://www.w3.org/1999/02/22-rdf-syntax-ns#"
   xmlns:svg="http://www.w3.org/2000/svg"
   xmlns="http://www.w3.org/2000/svg"
   xmlns:sodipodi="http://sodipodi.sourceforge.net/DTD/sodipodi-0.dtd"
   xmlns:inkscape="http://www.inkscape.org/namespaces/inkscape"
   width="367.375"
   height="394.25"
   id="svg5428"
   sodipodi:version="0.32"
   inkscape:version="0.48.1 "
   version="1.0"
   sodipodi:docname="BeThMovFr.svg"
   inkscape:output_extension="org.inkscape.output.svg.inkscape">
  <defs
     id="defs5430">
    <marker
       inkscape:stockid="DotM"
       orient="auto"
       refY="0"
       refX="0"
       id="DotM"
       style="overflow:visible">
      <path
         id="path4269"
         d="m -2.5,-1 c 0,2.76 -2.24,5 -5,5 -2.76,0 -5,-2.24 -5,-5 0,-2.76 2.24,-5 5,-5 2.76,0 5,2.24 5,5 z"
         style="fill-rule:evenodd;stroke:#000000;stroke-width:1pt;marker-start:none;marker-end:none"
         transform="matrix(0.4,0,0,0.4,2.96,0.4)"
         inkscape:connector-curvature="0" />
    </marker>
    <marker
       inkscape:stockid="Arrow2Lstart"
       orient="auto"
       refY="0"
       refX="0"
       id="Arrow2Lstart"
       style="overflow:visible">
      <path
         id="path3795"
         style="font-size:12px;fill-rule:evenodd;stroke-width:0.625;stroke-linejoin:round"
         d="M 8.7185878,4.0337352 -2.2072895,0.01601326 8.7185884,-4.0017078 c -1.7454984,2.3720609 -1.7354408,5.6174519 -6e-7,8.035443 z"
         transform="matrix(1.1,0,0,1.1,1.1,0)"
         inkscape:connector-curvature="0" />
    </marker>
    <marker
       inkscape:stockid="Arrow2Mend"
       orient="auto"
       refY="0"
       refX="0"
       id="Arrow2Mend"
       style="overflow:visible">
      <path
         id="path4010"
         style="font-size:12px;fill-rule:evenodd;stroke-width:0.625;stroke-linejoin:round"
         d="M 8.7185878,4.0337352 -2.2072895,0.01601326 8.7185884,-4.0017078 c -1.7454984,2.3720609 -1.7354408,5.6174519 -6e-7,8.035443 z"
         transform="scale(-0.6,-0.6)"
         inkscape:connector-curvature="0" />
    </marker>
    <marker
       inkscape:stockid="Arrow1Lend"
       orient="auto"
       refY="0"
       refX="0"
       id="Arrow1Lend"
       style="overflow:visible">
      <path
         id="path3986"
         d="M 0,0 5,-5 -12.5,0 5,5 0,0 z"
         style="fill-rule:evenodd;stroke:#000000;stroke-width:1pt;marker-start:none"
         transform="matrix(-0.8,0,0,-0.8,-10,0)"
         inkscape:connector-curvature="0" />
    </marker>
    <inkscape:perspective
       sodipodi:type="inkscape:persp3d"
       inkscape:vp_x="0 : 495 : 1"
       inkscape:vp_y="0 : 1000 : 0"
       inkscape:vp_z="765 : 495 : 1"
       inkscape:persp3d-origin="382.5 : 330 : 1"
       id="perspective2515" />
    <marker
       inkscape:stockid="Arrow1Mend"
       orient="auto"
       refY="0"
       refX="0"
       id="Arrow1Mend"
       style="overflow:visible">
      <path
         id="path7524"
         d="M 0,0 5,-5 -12.5,0 5,5 0,0 z"
         style="fill-rule:evenodd;stroke:#000000;stroke-width:1pt;marker-start:none"
         transform="matrix(-0.4,0,0,-0.4,-4,0)"
         inkscape:connector-curvature="0" />
    </marker>
    <marker
       inkscape:stockid="Dot_m"
       orient="auto"
       refY="0"
       refX="0"
       id="Dot_m"
       style="overflow:visible">
      <path
         id="path7580"
         d="m -2.5,-1 c 0,2.76 -2.24,5 -5,5 -2.76,0 -5,-2.24 -5,-5 0,-2.76 2.24,-5 5,-5 2.76,0 5,2.24 5,5 z"
         style="fill-rule:evenodd;stroke:#000000;stroke-width:1pt;marker-start:none;marker-end:none"
         transform="matrix(0.4,0,0,0.4,2.96,0.4)"
         inkscape:connector-curvature="0" />
    </marker>
    <linearGradient
       id="linearGradient6520">
      <stop
         style="stop-color:#000080;stop-opacity:1;"
         offset="0"
         id="stop6522" />
      <stop
         id="stop6534"
         offset="0.23999999"
         style="stop-color:#000080;stop-opacity:0.49803922;" />
      <stop
         style="stop-color:#000080;stop-opacity:0;"
         offset="1"
         id="stop6524" />
    </linearGradient>
    <marker
       inkscape:stockid="Dot_m"
       orient="auto"
       refY="0"
       refX="0"
       id="Dot_m-1"
       style="overflow:visible">
      <path
         id="path7580-7"
         d="m -2.5,-1 c 0,2.76 -2.24,5 -5,5 -2.76,0 -5,-2.24 -5,-5 0,-2.76 2.24,-5 5,-5 2.76,0 5,2.24 5,5 z"
         style="fill-rule:evenodd;stroke:#000000;stroke-width:1pt;marker-start:none;marker-end:none"
         transform="matrix(0.4,0,0,0.4,2.96,0.4)"
         inkscape:connector-curvature="0" />
    </marker>
    <marker
       inkscape:stockid="Arrow1Mend"
       orient="auto"
       refY="0"
       refX="0"
       id="Arrow1Mend-4"
       style="overflow:visible">
      <path
         id="path7524-0"
         d="M 0,0 5,-5 -12.5,0 5,5 0,0 z"
         style="fill-rule:evenodd;stroke:#000000;stroke-width:1pt;marker-start:none"
         transform="matrix(-0.4,0,0,-0.4,-4,0)"
         inkscape:connector-curvature="0" />
    </marker>
    <marker
       inkscape:stockid="Dot_m"
       orient="auto"
       refY="0"
       refX="0"
       id="marker4069"
       style="overflow:visible">
      <path
         id="path4071"
         d="m -2.5,-1 c 0,2.76 -2.24,5 -5,5 -2.76,0 -5,-2.24 -5,-5 0,-2.76 2.24,-5 5,-5 2.76,0 5,2.24 5,5 z"
         style="fill-rule:evenodd;stroke:#000000;stroke-width:1pt;marker-start:none;marker-end:none"
         transform="matrix(0.4,0,0,0.4,2.96,0.4)"
         inkscape:connector-curvature="0" />
    </marker>
    <marker
       inkscape:stockid="Arrow1Mend"
       orient="auto"
       refY="0"
       refX="0"
       id="marker4073"
       style="overflow:visible">
      <path
         id="path4075"
         d="M 0,0 5,-5 -12.5,0 5,5 0,0 z"
         style="fill-rule:evenodd;stroke:#000000;stroke-width:1pt;marker-start:none"
         transform="matrix(-0.4,0,0,-0.4,-4,0)"
         inkscape:connector-curvature="0" />
    </marker>
    <marker
       inkscape:stockid="Dot_m"
       orient="auto"
       refY="0"
       refX="0"
       id="Dot_m-3"
       style="overflow:visible">
      <path
         id="path7580-8"
         d="m -2.5,-1 c 0,2.76 -2.24,5 -5,5 -2.76,0 -5,-2.24 -5,-5 0,-2.76 2.24,-5 5,-5 2.76,0 5,2.24 5,5 z"
         style="fill-rule:evenodd;stroke:#000000;stroke-width:1pt;marker-start:none;marker-end:none"
         transform="matrix(0.4,0,0,0.4,2.96,0.4)"
         inkscape:connector-curvature="0" />
    </marker>
    <marker
       inkscape:stockid="Arrow1Mend"
       orient="auto"
       refY="0"
       refX="0"
       id="Arrow1Mend-9"
       style="overflow:visible">
      <path
         id="path7524-7"
         d="M 0,0 5,-5 -12.5,0 5,5 0,0 z"
         style="fill-rule:evenodd;stroke:#000000;stroke-width:1pt;marker-start:none"
         transform="matrix(-0.4,0,0,-0.4,-4,0)"
         inkscape:connector-curvature="0" />
    </marker>
    <marker
       inkscape:stockid="Arrow1Mend"
       orient="auto"
       refY="0"
       refX="0"
       id="Arrow1Mend-1"
       style="overflow:visible">
      <path
         id="path7524-74"
         d="M 0,0 5,-5 -12.5,0 5,5 0,0 z"
         style="fill-rule:evenodd;stroke:#000000;stroke-width:1pt;marker-start:none"
         transform="matrix(-0.4,0,0,-0.4,-4,0)"
         inkscape:connector-curvature="0" />
    </marker>
    <marker
       inkscape:stockid="Arrow1Mend"
       orient="auto"
       refY="0"
       refX="0"
       id="Arrow1Mend-8"
       style="overflow:visible">
      <path
         id="path7524-8"
         d="M 0,0 5,-5 -12.5,0 5,5 0,0 z"
         style="fill-rule:evenodd;stroke:#000000;stroke-width:1pt;marker-start:none"
         transform="matrix(-0.4,0,0,-0.4,-4,0)"
         inkscape:connector-curvature="0" />
    </marker>
  </defs>
  <sodipodi:namedview
     id="base"
     pagecolor="#ffffff"
     bordercolor="#666666"
     borderopacity="1.0"
     gridtolerance="10000"
     guidetolerance="10"
     objecttolerance="10"
     inkscape:pageopacity="0.0"
     inkscape:pageshadow="2"
     inkscape:zoom="1"
     inkscape:cx="126.65126"
     inkscape:cy="155.82119"
     inkscape:document-units="px"
     inkscape:current-layer="layer2"
     width="765px"
     height="990px"
     inkscape:window-width="1150"
     inkscape:window-height="742"
     inkscape:window-x="1527"
     inkscape:window-y="184"
     showgrid="false"
     inkscape:window-maximized="0"
     fit-margin-top="0"
     fit-margin-left="0"
     fit-margin-right="0"
     fit-margin-bottom="0" />
  <metadata
     id="metadata5433">
    <rdf:RDF>
      <cc:Work
         rdf:about="">
        <dc:format>image/svg+xml</dc:format>
        <dc:type
           rdf:resource="http://purl.org/dc/dcmitype/StillImage" />
        <dc:title />
      </cc:Work>
    </rdf:RDF>
  </metadata>
  <g
     inkscape:label="Layer 1"
     inkscape:groupmode="layer"
     id="layer1"
     style="display:inline"
     transform="translate(-13.5625,-163.4375)">
    <flowRoot
       xml:space="preserve"
       id="flowRoot10639"><flowRegion
         id="flowRegion10641"><rect
           id="rect10643"
           width="38.57832"
           height="40.121452"
           x="196.74944"
           y="474.59363" /></flowRegion><flowPara
         id="flowPara10645" /></flowRoot>  </g>
  <g
     inkscape:groupmode="layer"
     id="layer2"
     inkscape:label="pos"
     style="display:inline"
     transform="translate(-13.5625,-163.4375)">
    <path
       style="fill:none;stroke:#000000;stroke-width:1px;stroke-linecap:butt;stroke-linejoin:miter;stroke-opacity:1;display:inline"
       d="m -18.68662,274.46413 0,0 z"
       id="path5549"
       inkscape:connector-curvature="0" />
    <path
       inkscape:connector-curvature="0"
       style="fill:none;stroke:#000000;stroke-width:3;stroke-linecap:butt;stroke-linejoin:miter;stroke-miterlimit:4;stroke-opacity:1;stroke-dasharray:6, 12;stroke-dashoffset:0;marker-start:none;marker-mid:none;display:inline"
       d="m 233.98211,226.90731 c -45.73183,28.28536 -75.15624,70.84015 -81.261,125.72621"
       id="path2657-2"
       sodipodi:nodetypes="cc" />
    <path
       inkscape:connector-curvature="0"
       style="fill:none;stroke:#000000;stroke-width:3;stroke-linecap:butt;stroke-linejoin:miter;stroke-miterlimit:4;stroke-opacity:1;stroke-dasharray:6, 12;stroke-dashoffset:0;marker-start:none;marker-mid:none;display:inline;opacity:1"
       d="m 54.46239,270.13689 c -11.73183,25.28536 -16.15624,50.84015 -12.261,74.72621"
       id="path2657"
       sodipodi:nodetypes="cc" />
    <path
       inkscape:connector-curvature="0"
       style="opacity:0.78;fill:#ffffff;fill-opacity:1;fill-rule:evenodd;stroke:#000000;stroke-width:1.50000000000000000;stroke-linecap:butt;stroke-linejoin:miter;stroke-opacity:1;display:inline;stroke-miterlimit:4;stroke-dasharray:none"
       d="M 311.55863,230.41396 C 256.21203,276.02908 231.52496,307.26518 199.34526,372.04249 131.00677,342.3716 91.23032,343.62695 14.13873,355.70073 24.48496,274.91599 67.83826,207.5066 137.2466,163.95751 c 87.73981,12.88314 145.30894,20.05153 174.31203,66.45645"
       id="path5547"
       sodipodi:nodetypes="ccccc" />
    <path
       inkscape:connector-curvature="0"
       style="opacity:0.78000000000000003;fill:#ffffff;fill-opacity:1;fill-rule:evenodd;stroke:#000000;stroke-width:1.5;stroke-linecap:butt;stroke-linejoin:miter;stroke-opacity:1;display:inline;stroke-miterlimit:4;stroke-dasharray:none"
       d="M 380.52412,461.05677 C 321.51945,487.84083 292.76076,509.03365 249.88256,557.08751 196.29515,517.14586 160.95378,509.62674 90.297778,503.23924 117.51797,436.88193 170.83465,389.0049 241.77081,367.00995 c 74.44977,29.8754 123.5867,48.38692 138.75331,94.04682"
       id="path2517"
       sodipodi:nodetypes="ccccc" />
    <g
       style="display:inline"
       id="g11942"
       transform="translate(297.93993,-174.40081)" />
    <text
       sodipodi:linespacing="125%"
       xml:space="preserve"
       style="font-size:28px;font-style:italic;font-variant:normal;font-weight:normal;font-stretch:normal;text-align:start;line-height:125%;writing-mode:lr-tb;text-anchor:start;fill:#000000;fill-opacity:1;stroke:none;display:inline;font-family:DejaVu Serif;-inkscape-font-specification:DejaVu Serif Italic"
       x="68.490524"
       y="279.10239"
       id="text2659"
       transform="matrix(0.92451679,-5.0614001e-4,5.9214045e-4,1.0816458,0,0)"><tspan
         sodipodi:role="line"
         id="tspan2663"
         x="68.490524"
         y="279.10239">x(t)</tspan></text>
    <text
       sodipodi:linespacing="125%"
       xml:space="preserve"
       style="font-size:28px;font-style:italic;font-variant:normal;font-weight:normal;font-stretch:normal;text-align:start;line-height:125%;writing-mode:lr-tb;text-anchor:start;fill:#000000;fill-opacity:1;stroke:none;display:inline;font-family:DejaVu Serif;-inkscape-font-specification:DejaVu Serif Italic"
       x="270.84927"
       y="383.55862"
       id="text2647-8"
       transform="matrix(0.92451679,-5.0614001e-4,5.9214045e-4,1.0816458,0,0)"><tspan
         y="383.55862"
         x="270.84927"
         id="tspan2649-8"
         sodipodi:role="line">x(0)</tspan></text>
    <text
       sodipodi:linespacing="125%"
       xml:space="preserve"
       style="font-size:28px;font-style:italic;font-variant:normal;font-weight:normal;font-stretch:normal;text-align:start;line-height:125%;writing-mode:lr-tb;text-anchor:start;fill:#000000;fill-opacity:1;stroke:none;display:inline;font-family:DejaVu Serif;-inkscape-font-specification:DejaVu Serif Italic"
       x="244.30431"
       y="240.1427"
       id="text2659-4"
       transform="matrix(0.92451679,-5.0614001e-4,5.9214045e-4,1.0816458,0,0)"><tspan
         sodipodi:role="line"
         id="tspan2663-5"
         x="244.30431"
         y="240.1427">x(t)</tspan></text>
    <path
       inkscape:connector-curvature="0"
       style="fill:none;stroke:#c92947;stroke-width:3;stroke-linecap:butt;stroke-linejoin:miter;stroke-miterlimit:4;stroke-opacity:1;stroke-dasharray:none;marker-start:none;marker-mid:url(#Arrow1Mend);display:inline"
       d="m 57.64733,271.87889 c 26.60557,-17.64738 40.58049,-24.53425 78.96687,-35.73888 38.38638,-11.20463 56.50755,-11.82027 97.2835,-10.55119"
       id="path2645-4-0"
       sodipodi:nodetypes="czc" />
    <path
       inkscape:connector-curvature="0"
       style="fill:none;stroke:#000000;stroke-width:3;stroke-linecap:butt;stroke-linejoin:miter;stroke-miterlimit:4;stroke-opacity:1;stroke-dasharray:none;marker-start:url(#Dot_m);marker-mid:url(#Arrow1Mend);display:inline"
       d="M 54.90701,269.68981 C 65.3015,248.70592 67.656885,231.29785 61.25947,212.69273 56.109648,197.71589 46.96089,187.04893 31.88417,175.50135"
       id="path2655"
       sodipodi:nodetypes="csc" />
    <path
       inkscape:connector-curvature="0"
       style="fill:none;stroke:#000000;stroke-width:3;stroke-linecap:butt;stroke-linejoin:miter;stroke-miterlimit:4;stroke-opacity:1;stroke-dasharray:none;marker-start:url(#Dot_m);marker-mid:url(#Arrow1Mend);display:inline"
       d="m 237.42673,224.46023 c 32.44276,-15.58191 43.97286,-18.42851 63.13181,-27.78085 18.21477,-8.89144 40.99794,-12.43228 65.84535,-16.40761"
       id="path2655-5"
       sodipodi:nodetypes="csc" />
    <text
       sodipodi:linespacing="125%"
       xml:space="preserve"
       style="font-size:28px;font-style:italic;font-variant:normal;font-weight:normal;font-stretch:normal;text-align:start;line-height:125%;writing-mode:lr-tb;text-anchor:start;fill:#000000;fill-opacity:1;stroke:none;display:inline;font-family:DejaVu Serif;-inkscape-font-specification:DejaVu Serif Italic"
       x="134.26225"
       y="195.6344"
       id="text2659-4-3"
       transform="matrix(0.92451679,-5.0614001e-4,5.9214045e-4,1.0816458,0,0)"><tspan
         sodipodi:role="line"
         id="tspan2663-5-5"
         x="134.26225"
         y="195.6344">g(t)</tspan></text>
    <path
       inkscape:connector-curvature="0"
       style="fill:none;stroke:#c92947;stroke-width:3;stroke-linecap:butt;stroke-linejoin:miter;stroke-miterlimit:4;stroke-opacity:1;stroke-dasharray:none;marker-start:none;marker-mid:url(#Arrow1Mend);display:inline"
       d="m 148.43731,488.06819 c 30.60557,-6.64738 56.58049,-14.53425 70.96687,-22.73888 14.38638,-8.20463 26.50756,-14.82027 41.2835,-29.55119"
       id="path2645-4-0-0"
       sodipodi:nodetypes="czc" />
    <path
       inkscape:connector-curvature="0"
       style="fill:none;stroke:#000000;stroke-width:3;stroke-linecap:butt;stroke-linejoin:miter;stroke-miterlimit:4;stroke-opacity:1;stroke-dasharray:none;marker-start:url(#DotM);marker-mid:url(#Arrow1Mend);display:inline"
       d="M 149.96479,487.54011 C 106.35922,474.18749 86.32143,465.43448 66.99792,437.27899 47.67441,409.1235 50.49037,384.09926 43.71442,352.83018"
       id="path2645"
       sodipodi:nodetypes="czc" />
    <path
       inkscape:connector-curvature="0"
       style="fill:none;stroke:#000000;stroke-width:3;stroke-linecap:butt;stroke-linejoin:miter;stroke-miterlimit:4;stroke-opacity:1;stroke-dasharray:none;marker-start:url(#Dot_m);marker-mid:url(#Arrow1Mend);display:inline"
       d="m 261.48451,435.31053 c -43.60557,-7.35262 -56.58049,-14.46575 -72.96687,-25.26112 -16.38638,-10.79537 -31.50755,-25.17973 -36.2835,-55.44881"
       id="path2645-4"
       sodipodi:nodetypes="czc" />
    <text
       sodipodi:linespacing="125%"
       xml:space="preserve"
       style="font-size:28px;font-style:italic;font-variant:normal;font-weight:normal;font-stretch:normal;text-align:start;line-height:125%;writing-mode:lr-tb;text-anchor:start;fill:#000000;fill-opacity:1;stroke:none;display:inline;font-family:DejaVu Serif;-inkscape-font-specification:DejaVu Serif Italic"
       x="189.24855"
       y="473.01526"
       id="text2659-3"
       transform="matrix(0.92451679,-5.0614001e-4,5.9214045e-4,1.0816458,0,0)"><tspan
         sodipodi:role="line"
         id="tspan2663-8"
         x="189.24855"
         y="473.01526">x(0)</tspan></text>
    <text
       sodipodi:linespacing="125%"
       xml:space="preserve"
       style="font-size:28px;font-style:italic;font-variant:normal;font-weight:normal;font-stretch:normal;text-align:start;line-height:125%;writing-mode:lr-tb;text-anchor:start;fill:#000000;fill-opacity:1;stroke:none;display:inline;font-family:DejaVu Serif;-inkscape-font-specification:DejaVu Serif Italic"
       x="262.76013"
       y="442.53748"
       id="text2659-4-3-1"
       transform="matrix(0.92451679,-5.0614001e-4,5.9214045e-4,1.0816458,0,0)"><tspan
         sodipodi:role="line"
         id="tspan2663-5-5-7"
         x="262.76013"
         y="442.53748">g(0)</tspan></text>
  </g>
</svg>
