<?xml version="1.0" encoding="UTF-8" standalone="no"?>
<!-- Created with Inkscape (http://www.inkscape.org/) -->

<svg
   xmlns:dc="http://purl.org/dc/elements/1.1/"
   xmlns:cc="http://creativecommons.org/ns#"
   xmlns:rdf="http://www.w3.org/1999/02/22-rdf-syntax-ns#"
   xmlns:svg="http://www.w3.org/2000/svg"
   xmlns="http://www.w3.org/2000/svg"
   xmlns:sodipodi="http://sodipodi.sourceforge.net/DTD/sodipodi-0.dtd"
   xmlns:inkscape="http://www.inkscape.org/namespaces/inkscape"
   width="367.375"
   height="394.25"
   id="svg5428"
   sodipodi:version="0.32"
   inkscape:version="0.48.1 "
   version="1.0"
   sodipodi:docname="BeThMconnect.svg"
   inkscape:output_extension="org.inkscape.output.svg.inkscape">
  <defs
     id="defs5430">
    <marker
       inkscape:stockid="DotM"
       orient="auto"
       refY="0"
       refX="0"
       id="DotM"
       style="overflow:visible">
      <path
         id="path4269"
         d="m -2.5,-1 c 0,2.76 -2.24,5 -5,5 -2.76,0 -5,-2.24 -5,-5 0,-2.76 2.24,-5 5,-5 2.76,0 5,2.24 5,5 z"
         style="fill-rule:evenodd;stroke:#000000;stroke-width:1pt;marker-start:none;marker-end:none"
         transform="matrix(0.4,0,0,0.4,2.96,0.4)"
         inkscape:connector-curvature="0" />
    </marker>
    <marker
       inkscape:stockid="Arrow2Lstart"
       orient="auto"
       refY="0"
       refX="0"
       id="Arrow2Lstart"
       style="overflow:visible">
      <path
         id="path3795"
         style="font-size:12px;fill-rule:evenodd;stroke-width:0.625;stroke-linejoin:round"
         d="M 8.7185878,4.0337352 -2.2072895,0.01601326 8.7185884,-4.0017078 c -1.7454984,2.3720609 -1.7354408,5.6174519 -6e-7,8.035443 z"
         transform="matrix(1.1,0,0,1.1,1.1,0)"
         inkscape:connector-curvature="0" />
    </marker>
    <marker
       inkscape:stockid="Arrow2Mend"
       orient="auto"
       refY="0"
       refX="0"
       id="Arrow2Mend"
       style="overflow:visible">
      <path
         id="path4010"
         style="font-size:12px;fill-rule:evenodd;stroke-width:0.625;stroke-linejoin:round"
         d="M 8.7185878,4.0337352 -2.2072895,0.01601326 8.7185884,-4.0017078 c -1.7454984,2.3720609 -1.7354408,5.6174519 -6e-7,8.035443 z"
         transform="scale(-0.6,-0.6)"
         inkscape:connector-curvature="0" />
    </marker>
    <marker
       inkscape:stockid="Arrow1Lend"
       orient="auto"
       refY="0"
       refX="0"
       id="Arrow1Lend"
       style="overflow:visible">
      <path
         id="path3986"
         d="M 0,0 5,-5 -12.5,0 5,5 0,0 z"
         style="fill-rule:evenodd;stroke:#000000;stroke-width:1pt;marker-start:none"
         transform="matrix(-0.8,0,0,-0.8,-10,0)"
         inkscape:connector-curvature="0" />
    </marker>
    <inkscape:perspective
       sodipodi:type="inkscape:persp3d"
       inkscape:vp_x="0 : 495 : 1"
       inkscape:vp_y="0 : 1000 : 0"
       inkscape:vp_z="765 : 495 : 1"
       inkscape:persp3d-origin="382.5 : 330 : 1"
       id="perspective2515" />
    <marker
       inkscape:stockid="Arrow1Mend"
       orient="auto"
       refY="0"
       refX="0"
       id="Arrow1Mend"
       style="overflow:visible">
      <path
         id="path7524"
         d="M 0,0 5,-5 -12.5,0 5,5 0,0 z"
         style="fill-rule:evenodd;stroke:#000000;stroke-width:1pt;marker-start:none"
         transform="matrix(-0.4,0,0,-0.4,-4,0)"
         inkscape:connector-curvature="0" />
    </marker>
    <marker
       inkscape:stockid="Dot_m"
       orient="auto"
       refY="0"
       refX="0"
       id="Dot_m"
       style="overflow:visible">
      <path
         id="path7580"
         d="m -2.5,-1 c 0,2.76 -2.24,5 -5,5 -2.76,0 -5,-2.24 -5,-5 0,-2.76 2.24,-5 5,-5 2.76,0 5,2.24 5,5 z"
         style="fill-rule:evenodd;stroke:#000000;stroke-width:1pt;marker-start:none;marker-end:none"
         transform="matrix(0.4,0,0,0.4,2.96,0.4)"
         inkscape:connector-curvature="0" />
    </marker>
    <linearGradient
       id="linearGradient6520">
      <stop
         style="stop-color:#000080;stop-opacity:1;"
         offset="0"
         id="stop6522" />
      <stop
         id="stop6534"
         offset="0.23999999"
         style="stop-color:#000080;stop-opacity:0.49803922;" />
      <stop
         style="stop-color:#000080;stop-opacity:0;"
         offset="1"
         id="stop6524" />
    </linearGradient>
    <marker
       inkscape:stockid="Dot_m"
       orient="auto"
       refY="0"
       refX="0"
       id="Dot_m-1"
       style="overflow:visible">
      <path
         id="path7580-7"
         d="m -2.5,-1 c 0,2.76 -2.24,5 -5,5 -2.76,0 -5,-2.24 -5,-5 0,-2.76 2.24,-5 5,-5 2.76,0 5,2.24 5,5 z"
         style="fill-rule:evenodd;stroke:#000000;stroke-width:1pt;marker-start:none;marker-end:none"
         transform="matrix(0.4,0,0,0.4,2.96,0.4)"
         inkscape:connector-curvature="0" />
    </marker>
    <marker
       inkscape:stockid="Arrow1Mend"
       orient="auto"
       refY="0"
       refX="0"
       id="Arrow1Mend-4"
       style="overflow:visible">
      <path
         id="path7524-0"
         d="M 0,0 5,-5 -12.5,0 5,5 0,0 z"
         style="fill-rule:evenodd;stroke:#000000;stroke-width:1pt;marker-start:none"
         transform="matrix(-0.4,0,0,-0.4,-4,0)"
         inkscape:connector-curvature="0" />
    </marker>
    <marker
       inkscape:stockid="Dot_m"
       orient="auto"
       refY="0"
       refX="0"
       id="marker4069"
       style="overflow:visible">
      <path
         id="path4071"
         d="m -2.5,-1 c 0,2.76 -2.24,5 -5,5 -2.76,0 -5,-2.24 -5,-5 0,-2.76 2.24,-5 5,-5 2.76,0 5,2.24 5,5 z"
         style="fill-rule:evenodd;stroke:#000000;stroke-width:1pt;marker-start:none;marker-end:none"
         transform="matrix(0.4,0,0,0.4,2.96,0.4)"
         inkscape:connector-curvature="0" />
    </marker>
    <marker
       inkscape:stockid="Arrow1Mend"
       orient="auto"
       refY="0"
       refX="0"
       id="marker4073"
       style="overflow:visible">
      <path
         id="path4075"
         d="M 0,0 5,-5 -12.5,0 5,5 0,0 z"
         style="fill-rule:evenodd;stroke:#000000;stroke-width:1pt;marker-start:none"
         transform="matrix(-0.4,0,0,-0.4,-4,0)"
         inkscape:connector-curvature="0" />
    </marker>
    <marker
       inkscape:stockid="Dot_m"
       orient="auto"
       refY="0"
       refX="0"
       id="Dot_m-3"
       style="overflow:visible">
      <path
         id="path7580-8"
         d="m -2.5,-1 c 0,2.76 -2.24,5 -5,5 -2.76,0 -5,-2.24 -5,-5 0,-2.76 2.24,-5 5,-5 2.76,0 5,2.24 5,5 z"
         style="fill-rule:evenodd;stroke:#000000;stroke-width:1pt;marker-start:none;marker-end:none"
         transform="matrix(0.4,0,0,0.4,2.96,0.4)"
         inkscape:connector-curvature="0" />
    </marker>
    <marker
       inkscape:stockid="Arrow1Mend"
       orient="auto"
       refY="0"
       refX="0"
       id="Arrow1Mend-9"
       style="overflow:visible">
      <path
         id="path7524-7"
         d="M 0,0 5,-5 -12.5,0 5,5 0,0 z"
         style="fill-rule:evenodd;stroke:#000000;stroke-width:1pt;marker-start:none"
         transform="matrix(-0.4,0,0,-0.4,-4,0)"
         inkscape:connector-curvature="0" />
    </marker>
    <marker
       inkscape:stockid="Arrow1Mend"
       orient="auto"
       refY="0"
       refX="0"
       id="Arrow1Mend-1"
       style="overflow:visible">
      <path
         id="path7524-74"
         d="M 0,0 5,-5 -12.5,0 5,5 0,0 z"
         style="fill-rule:evenodd;stroke:#000000;stroke-width:1pt;marker-start:none"
         transform="matrix(-0.4,0,0,-0.4,-4,0)"
         inkscape:connector-curvature="0" />
    </marker>
    <marker
       inkscape:stockid="Arrow1Mend"
       orient="auto"
       refY="0"
       refX="0"
       id="Arrow1Mend-2"
       style="overflow:visible">
      <path
         inkscape:connector-curvature="0"
         id="path4437"
         d="M 0,0 5,-5 -12.5,0 5,5 0,0 z"
         style="fill-rule:evenodd;stroke:#000000;stroke-width:1pt;marker-start:none"
         transform="matrix(-0.4,0,0,-0.4,-4,0)" />
    </marker>
  </defs>
  <sodipodi:namedview
     id="base"
     pagecolor="#ffffff"
     bordercolor="#666666"
     borderopacity="1.0"
     gridtolerance="10000"
     guidetolerance="10"
     objecttolerance="10"
     inkscape:pageopacity="0.0"
     inkscape:pageshadow="2"
     inkscape:zoom="1"
     inkscape:cx="52.25"
     inkscape:cy="155.82119"
     inkscape:document-units="px"
     inkscape:current-layer="layer2"
     width="765px"
     height="990px"
     inkscape:window-width="1150"
     inkscape:window-height="742"
     inkscape:window-x="90"
     inkscape:window-y="15"
     showgrid="false"
     inkscape:window-maximized="0"
     fit-margin-top="0"
     fit-margin-left="0"
     fit-margin-right="0"
     fit-margin-bottom="0" />
  <metadata
     id="metadata5433">
    <rdf:RDF>
      <cc:Work
         rdf:about="">
        <dc:format>image/svg+xml</dc:format>
        <dc:type
           rdf:resource="http://purl.org/dc/dcmitype/StillImage" />
        <dc:title></dc:title>
      </cc:Work>
    </rdf:RDF>
  </metadata>
  <g
     inkscape:label="Layer 1"
     inkscape:groupmode="layer"
     id="layer1"
     style="display:inline"
     transform="translate(-13.5625,-163.4375)">
    <flowRoot
       xml:space="preserve"
       id="flowRoot10639"><flowRegion
         id="flowRegion10641"><rect
           id="rect10643"
           width="38.57832"
           height="40.121452"
           x="196.74944"
           y="474.59363" /></flowRegion><flowPara
         id="flowPara10645" /></flowRoot>  </g>
  <g
     inkscape:groupmode="layer"
     id="layer2"
     inkscape:label="pos"
     style="display:inline"
     transform="translate(-13.5625,-163.4375)">
    <path
       style="fill:none;stroke:#000000;stroke-width:1px;stroke-linecap:butt;stroke-linejoin:miter;stroke-opacity:1;display:inline"
       d="m -18.68662,274.46413 0,0 z"
       id="path5549"
       inkscape:connector-curvature="0" />
    <path
       inkscape:connector-curvature="0"
       style="opacity:0.61504425;fill:#fffeff;fill-opacity:1;fill-rule:evenodd;stroke:#000000;stroke-width:1px;stroke-linecap:butt;stroke-linejoin:miter;stroke-opacity:1;display:inline"
       d="M 311.55863,230.41396 C 256.21203,276.02908 231.52496,307.26518 199.34526,372.04249 131.00677,342.3716 91.23032,343.62695 14.13873,355.70073 24.48496,274.91599 67.83826,207.5066 137.2466,163.95751 c 87.73981,12.88314 145.30894,20.05153 174.31203,66.45645"
       id="path5547"
       sodipodi:nodetypes="ccccc" />
    <path
       inkscape:connector-curvature="0"
       style="fill:none;stroke:#000000;stroke-width:3;stroke-linecap:butt;stroke-linejoin:miter;stroke-miterlimit:4;stroke-opacity:1;stroke-dasharray:6, 12;stroke-dashoffset:0;marker-start:none;marker-mid:none;display:inline"
       d="m 236.98211,226.90731 c -1.73183,22.28536 -6.15624,38.84015 -0.261,73.72621"
       id="path2657-2"
       sodipodi:nodetypes="cc" />
    <path
       inkscape:connector-curvature="0"
       style="fill:none;stroke:#000000;stroke-width:3;stroke-linecap:butt;stroke-linejoin:miter;stroke-miterlimit:4;stroke-opacity:1;stroke-dasharray:6, 12;stroke-dashoffset:0;marker-start:none;marker-mid:none;display:inline;opacity:1"
       d="m 54.46239,270.13689 c -11.73183,25.28536 -16.15624,50.84015 -12.261,74.72621"
       id="path2657"
       sodipodi:nodetypes="cc" />
    <path
       inkscape:connector-curvature="0"
       style="opacity:1;fill:#ffffff;fill-opacity:1;fill-rule:evenodd;stroke:#000000;stroke-width:1;stroke-linecap:butt;stroke-linejoin:miter;stroke-opacity:1;display:inline;stroke-miterlimit:4;stroke-dasharray:none"
       d="M 380.52412,461.05677 C 321.51945,487.84083 292.76076,509.03365 249.88256,557.08751 196.29515,517.14586 160.95378,509.62674 90.297778,503.23924 117.51797,436.88193 170.83465,389.0049 241.77081,367.00995 c 74.44977,29.8754 123.5867,48.38692 138.75331,94.04682"
       id="path2517"
       sodipodi:nodetypes="ccccc" />
    <g
       style="display:inline"
       id="g11942"
       transform="translate(297.93993,-174.40081)" />
    <text
       sodipodi:linespacing="125%"
       xml:space="preserve"
       style="font-size:28px;font-style:italic;font-variant:normal;font-weight:normal;font-stretch:normal;text-align:start;line-height:125%;writing-mode:lr-tb;text-anchor:start;fill:#000000;fill-opacity:1;stroke:none;display:inline;font-family:DejaVu Serif;-inkscape-font-specification:DejaVu Serif Italic"
       x="68.490524"
       y="279.10239"
       id="text2659"
       transform="matrix(0.92451679,-5.0614001e-4,5.9214045e-4,1.0816458,0,0)"><tspan
         sodipodi:role="line"
         id="tspan2663"
         x="68.490524"
         y="279.10239">x(t)</tspan></text>
    <text
       sodipodi:linespacing="125%"
       xml:space="preserve"
       style="font-size:28px;font-style:italic;font-variant:normal;font-weight:normal;font-stretch:normal;text-align:start;line-height:125%;writing-mode:lr-tb;text-anchor:start;fill:#000000;fill-opacity:1;stroke:none;display:inline;font-family:DejaVu Serif;-inkscape-font-specification:DejaVu Serif Italic"
       x="275.13974"
       y="439.95618"
       id="text2647-8"
       transform="matrix(0.92451679,-5.0614001e-4,5.9214045e-4,1.0816458,0,0)"><tspan
         y="439.95618"
         x="275.13974"
         id="tspan2649-8"
         sodipodi:role="line">x(0)</tspan></text>
    <text
       sodipodi:linespacing="125%"
       xml:space="preserve"
       style="font-size:28px;font-style:italic;font-variant:normal;font-weight:normal;font-stretch:normal;text-align:start;line-height:125%;writing-mode:lr-tb;text-anchor:start;fill:#000000;fill-opacity:1;stroke:none;display:inline;font-family:DejaVu Serif;-inkscape-font-specification:DejaVu Serif Italic"
       x="271.36084"
       y="216.11792"
       id="text2659-4"
       transform="matrix(0.92451679,-5.0614001e-4,5.9214045e-4,1.0816458,0,0)"><tspan
         sodipodi:role="line"
         id="tspan2663-5"
         x="271.36084"
         y="216.11792">x(t)</tspan></text>
    <path
       inkscape:connector-curvature="0"
       style="fill:none;stroke:#c92947;stroke-width:3;stroke-linecap:butt;stroke-linejoin:miter;stroke-miterlimit:4;stroke-opacity:1;stroke-dasharray:none;marker-start:none;marker-mid:url(#Arrow1Mend);display:inline"
       d="m 57.64733,271.87889 c 26.60557,-17.64738 40.58049,-24.53425 78.96687,-35.73888 38.38638,-11.20463 56.50755,-11.82027 97.2835,-10.55119"
       id="path2645-4-0"
       sodipodi:nodetypes="czc" />
    <path
       inkscape:connector-curvature="0"
       style="fill:none;stroke:#0000b7;stroke-width:3;stroke-linecap:butt;stroke-linejoin:miter;stroke-miterlimit:4;stroke-opacity:1;stroke-dasharray:none;marker-start:url(#Dot_m);marker-mid:url(#Arrow1Mend);display:inline"
       d="m 54.90701,269.68981 c 10.39449,-20.98389 12.749875,-26.39196 15.35246,-53.99708 1.486553,-15.76758 -3.29858,-25.6438 -11.3753,-45.19138"
       id="path2655"
       sodipodi:nodetypes="csc" />
    <path
       inkscape:connector-curvature="0"
       style="fill:none;stroke:#0000b7;stroke-width:3;stroke-linecap:butt;stroke-linejoin:miter;stroke-miterlimit:4;stroke-opacity:1;stroke-dasharray:none;marker-start:url(#Dot_m);marker-mid:url(#Arrow1Mend);display:inline"
       d="m 237.42673,224.46023 c 4.44276,-34.58191 4.97286,-27.42851 7.13181,-43.78085 2.65304,-20.0947 1.99794,-1.43228 0.84535,-15.40761"
       id="path2655-5"
       sodipodi:nodetypes="csc" />
    <text
       sodipodi:linespacing="125%"
       xml:space="preserve"
       style="font-size:28px;font-style:italic;font-variant:normal;font-weight:normal;font-stretch:normal;text-align:start;line-height:125%;writing-mode:lr-tb;text-anchor:start;fill:#000000;fill-opacity:1;stroke:none;display:inline;font-family:DejaVu Serif;-inkscape-font-specification:DejaVu Serif Italic"
       x="134.26225"
       y="195.6344"
       id="text2659-4-3"
       transform="matrix(0.92451679,-5.0614001e-4,5.9214045e-4,1.0816458,0,0)"><tspan
         sodipodi:role="line"
         id="tspan2663-5-5"
         x="134.26225"
         y="195.6344">g(t)</tspan></text>
    <path
       inkscape:connector-curvature="0"
       style="fill:none;stroke:#0000b7;stroke-width:3;stroke-linecap:butt;stroke-linejoin:miter;stroke-miterlimit:4;stroke-opacity:1;stroke-dasharray:none;marker-start:none;marker-mid:url(#Arrow1Mend);display:inline"
       d="M 264.96479,434.54011 C 195.35922,448.18749 138.25355,448.43448 98.99792,423.27899 59.74229,398.1235 55.49037,386.09926 43.71442,352.83018"
       id="path2645"
       sodipodi:nodetypes="czc" />
    <path
       inkscape:connector-curvature="0"
       style="fill:none;stroke:#0000b7;stroke-width:3;stroke-linecap:butt;stroke-linejoin:miter;stroke-miterlimit:4;stroke-opacity:1;stroke-dasharray:none;marker-start:url(#Dot_m);marker-mid:url(#Arrow1Mend);display:inline"
       d="m 263.48451,434.31053 c 0.39443,-25.35262 -2.58049,-52.46575 -8.96687,-72.26112 -6.38638,-19.79537 -10.50755,-31.17973 -16.2835,-56.44881"
       id="path2645-4"
       sodipodi:nodetypes="czc" />
    <rect
       style="fill:none;stroke:#000000;stroke-width:1;stroke-miterlimit:4;stroke-opacity:1;stroke-dasharray:none;stroke-dashoffset:0"
       id="rect4094"
       width="33"
       height="32"
       x="251"
       y="239.25"
       transform="translate(13.5625,163.4375)"
       ry="2" />
    <path
       sodipodi:type="arc"
       style="fill:#000000;stroke:#000000;stroke-width:1;stroke-miterlimit:4;stroke-opacity:1;stroke-dasharray:none;stroke-dashoffset:0;fill-opacity:1"
       id="path4096"
       sodipodi:cx="269.5"
       sodipodi:cy="255.25"
       sodipodi:rx="3.5"
       sodipodi:ry="3"
       d="m 273,255.25 a 3.5,3 0 1 1 -7,0 3.5,3 0 1 1 7,0 z"
       transform="translate(13.5625,163.4375)" />
    <path
       style="fill:none;stroke:#000000;stroke-width:3;stroke-linecap:round;stroke-linejoin:round;stroke-miterlimit:4;stroke-dasharray:none;marker-end:url(#Arrow1Mend)"
       d="M 264.37823,430.64625 263.41324,323.2471"
       id="polyline364-5-4"
       inkscape:connector-curvature="0"
       sodipodi:nodetypes="cc"
       inkscape:transform-center-x="-3.9396598"
       inkscape:transform-center-y="0.46116269" />
    <text
       sodipodi:linespacing="125%"
       xml:space="preserve"
       style="font-size:28px;font-style:italic;font-variant:normal;font-weight:normal;font-stretch:normal;text-align:start;line-height:125%;writing-mode:lr-tb;text-anchor:start;fill:#000000;fill-opacity:1;stroke:none;display:inline;font-family:DejaVu Serif;-inkscape-font-specification:DejaVu Serif Italic"
       x="286.05048"
       y="287.23444"
       id="text2647-8-2"
       transform="matrix(0.92451679,-5.0614001e-4,5.9214045e-4,1.0816458,0,0)"><tspan
         y="287.23444"
         x="286.05048"
         id="tspan2649-8-6"
         sodipodi:role="line">vt</tspan></text>
  </g>
</svg>
