<?xml version="1.0" encoding="UTF-8" standalone="no"?>
<!-- Created with Inkscape (http://www.inkscape.org/) -->

<svg
   xmlns:dc="http://purl.org/dc/elements/1.1/"
   xmlns:cc="http://creativecommons.org/ns#"
   xmlns:rdf="http://www.w3.org/1999/02/22-rdf-syntax-ns#"
   xmlns:svg="http://www.w3.org/2000/svg"
   xmlns="http://www.w3.org/2000/svg"
   xmlns:sodipodi="http://sodipodi.sourceforge.net/DTD/sodipodi-0.dtd"
   xmlns:inkscape="http://www.inkscape.org/namespaces/inkscape"
   width="395.59647"
   height="362.35236"
   id="svg5428"
   sodipodi:version="0.32"
   inkscape:version="0.48.1 "
   version="1.0"
   sodipodi:docname="chartBord-m1.svg"
   inkscape:output_extension="org.inkscape.output.svg.inkscape"
   inkscape:export-filename="C:\Documents and Settings\Predrag\My Documents\dasbuch\book\FigSrc\inkscape\ReducTraj2.png"
   inkscape:export-xdpi="90"
   inkscape:export-ydpi="90">
  <defs
     id="defs5430">
    <marker
       inkscape:stockid="Arrow2Mend"
       orient="auto"
       refY="0"
       refX="0"
       id="Arrow2Mend"
       style="overflow:visible">
      <path
         id="path4257"
         style="font-size:12px;fill-rule:evenodd;stroke-width:0.625;stroke-linejoin:round"
         d="M 8.7185878,4.0337352 -2.2072895,0.01601326 8.7185884,-4.0017078 c -1.7454984,2.3720609 -1.7354408,5.6174519 -6e-7,8.035443 z"
         transform="scale(-0.6,-0.6)"
         inkscape:connector-curvature="0" />
    </marker>
    <inkscape:perspective
       sodipodi:type="inkscape:persp3d"
       inkscape:vp_x="0 : 495 : 1"
       inkscape:vp_y="0 : 1000 : 0"
       inkscape:vp_z="765 : 495 : 1"
       inkscape:persp3d-origin="382.5 : 330 : 1"
       id="perspective62" />
    <marker
       inkscape:stockid="DotS"
       orient="auto"
       refY="0"
       refX="0"
       id="DotS"
       style="overflow:visible">
      <path
         id="path8285"
         d="m -2.5,-1 c 0,2.76 -2.24,5 -5,5 -2.76,0 -5,-2.24 -5,-5 0,-2.76 2.24,-5 5,-5 2.76,0 5,2.24 5,5 z"
         style="fill-rule:evenodd;stroke:#000000;stroke-width:1pt;marker-start:none;marker-end:none"
         transform="matrix(0.2,0,0,0.2,1.48,0.2)"
         inkscape:connector-curvature="0" />
    </marker>
    <marker
       inkscape:stockid="Arrow2Mstart"
       orient="auto"
       refY="0"
       refX="0"
       id="Arrow2Mstart"
       style="overflow:visible">
      <path
         id="path8241"
         style="font-size:12px;fill-rule:evenodd;stroke-width:0.625;stroke-linejoin:round"
         d="M 8.7185878,4.0337352 -2.2072895,0.01601326 8.7185884,-4.0017078 c -1.7454984,2.3720609 -1.7354408,5.6174519 -6e-7,8.035443 z"
         transform="scale(0.6,0.6)"
         inkscape:connector-curvature="0" />
    </marker>
    <marker
       inkscape:stockid="DotM"
       orient="auto"
       refY="0"
       refX="0"
       id="DotM"
       style="overflow:visible">
      <path
         id="path8282"
         d="m -2.5,-1 c 0,2.76 -2.24,5 -5,5 -2.76,0 -5,-2.24 -5,-5 0,-2.76 2.24,-5 5,-5 2.76,0 5,2.24 5,5 z"
         style="fill-rule:evenodd;stroke:#000000;stroke-width:1pt;marker-start:none;marker-end:none"
         transform="matrix(0.4,0,0,0.4,2.96,0.4)"
         inkscape:connector-curvature="0" />
    </marker>
    <marker
       inkscape:stockid="Arrow1Mend"
       orient="auto"
       refY="0"
       refX="0"
       id="Arrow1Mend"
       style="overflow:visible">
      <path
         id="path7524"
         d="M 0,0 5,-5 -12.5,0 5,5 0,0 z"
         style="fill-rule:evenodd;stroke:#000000;stroke-width:1pt;marker-start:none"
         transform="matrix(-0.4,0,0,-0.4,-4,0)"
         inkscape:connector-curvature="0" />
    </marker>
    <marker
       inkscape:stockid="Dot_m"
       orient="auto"
       refY="0"
       refX="0"
       id="Dot_m"
       style="overflow:visible">
      <path
         id="path7580"
         d="m -2.5,-1 c 0,2.76 -2.24,5 -5,5 -2.76,0 -5,-2.24 -5,-5 0,-2.76 2.24,-5 5,-5 2.76,0 5,2.24 5,5 z"
         style="fill-rule:evenodd;stroke:#000000;stroke-width:1pt;marker-start:none;marker-end:none"
         transform="matrix(0.4,0,0,0.4,2.96,0.4)"
         inkscape:connector-curvature="0" />
    </marker>
    <marker
       inkscape:stockid="Arrow2Mstart"
       orient="auto"
       refY="0"
       refX="0"
       id="Arrow2Mstart-2"
       style="overflow:visible">
      <path
         id="path8241-2"
         style="font-size:12px;fill-rule:evenodd;stroke-width:0.625;stroke-linejoin:round"
         d="M 8.7185878,4.0337352 -2.2072895,0.01601326 8.7185884,-4.0017078 c -1.7454984,2.3720609 -1.7354408,5.6174519 -6e-7,8.035443 z"
         transform="scale(0.6,0.6)"
         inkscape:connector-curvature="0" />
    </marker>
    <marker
       inkscape:stockid="Arrow2Mend"
       orient="auto"
       refY="0"
       refX="0"
       id="Arrow2Mend-8"
       style="overflow:visible">
      <path
         inkscape:connector-curvature="0"
         id="path4257-6"
         style="font-size:12px;fill-rule:evenodd;stroke-width:0.625;stroke-linejoin:round"
         d="M 8.7185878,4.0337352 -2.2072895,0.01601326 8.7185884,-4.0017078 c -1.7454984,2.3720609 -1.7354408,5.6174519 -6e-7,8.035443 z"
         transform="scale(-0.6,-0.6)" />
    </marker>
    <marker
       inkscape:stockid="Arrow1Mend"
       orient="auto"
       refY="0"
       refX="0"
       id="Arrow1Mend-9"
       style="overflow:visible">
      <path
         id="path7524-4"
         d="M 0,0 5,-5 -12.5,0 5,5 0,0 z"
         style="fill-rule:evenodd;stroke:#000000;stroke-width:1pt;marker-start:none"
         transform="matrix(-0.4,0,0,-0.4,-4,0)"
         inkscape:connector-curvature="0" />
    </marker>
    <marker
       inkscape:stockid="Arrow2Mend"
       orient="auto"
       refY="0"
       refX="0"
       id="Arrow2Mend-0"
       style="overflow:visible">
      <path
         inkscape:connector-curvature="0"
         id="path4257-2"
         style="font-size:12px;fill-rule:evenodd;stroke-width:0.625;stroke-linejoin:round"
         d="M 8.7185878,4.0337352 -2.2072895,0.01601326 8.7185884,-4.0017078 c -1.7454984,2.3720609 -1.7354408,5.6174519 -6e-7,8.035443 z"
         transform="scale(-0.6,-0.6)" />
    </marker>
    <marker
       inkscape:stockid="Arrow1Mend"
       orient="auto"
       refY="0"
       refX="0"
       id="Arrow1Mend-90"
       style="overflow:visible">
      <path
         id="path7524-5"
         d="M 0,0 5,-5 -12.5,0 5,5 0,0 z"
         style="fill-rule:evenodd;stroke:#000000;stroke-width:1pt;marker-start:none"
         transform="matrix(-0.4,0,0,-0.4,-4,0)"
         inkscape:connector-curvature="0" />
    </marker>
    <marker
       inkscape:stockid="Dot_m"
       orient="auto"
       refY="0"
       refX="0"
       id="Dot_m-7"
       style="overflow:visible">
      <path
         id="path7580-2"
         d="m -2.5,-1 c 0,2.76 -2.24,5 -5,5 -2.76,0 -5,-2.24 -5,-5 0,-2.76 2.24,-5 5,-5 2.76,0 5,2.24 5,5 z"
         style="fill-rule:evenodd;stroke:#000000;stroke-width:1pt;marker-start:none;marker-end:none"
         transform="matrix(0.4,0,0,0.4,2.96,0.4)"
         inkscape:connector-curvature="0" />
    </marker>
    <marker
       inkscape:stockid="Arrow1Mend"
       orient="auto"
       refY="0"
       refX="0"
       id="Arrow1Mend-8"
       style="overflow:visible">
      <path
         id="path7524-9"
         d="M 0,0 5,-5 -12.5,0 5,5 0,0 z"
         style="fill-rule:evenodd;stroke:#000000;stroke-width:1pt;marker-start:none"
         transform="matrix(-0.4,0,0,-0.4,-4,0)"
         inkscape:connector-curvature="0" />
    </marker>
    <marker
       inkscape:stockid="Arrow2Mend"
       orient="auto"
       refY="0"
       refX="0"
       id="Arrow2Mend-81"
       style="overflow:visible">
      <path
         inkscape:connector-curvature="0"
         id="path4257-1"
         style="font-size:12px;fill-rule:evenodd;stroke-width:0.625;stroke-linejoin:round"
         d="M 8.7185878,4.0337352 -2.2072895,0.01601326 8.7185884,-4.0017078 c -1.7454984,2.3720609 -1.7354408,5.6174519 -6e-7,8.035443 z"
         transform="scale(-0.6,-0.6)" />
    </marker>
    <marker
       inkscape:stockid="Arrow1Mend"
       orient="auto"
       refY="0"
       refX="0"
       id="Arrow1Mend-96"
       style="overflow:visible">
      <path
         id="path7524-2"
         d="M 0,0 5,-5 -12.5,0 5,5 0,0 z"
         style="fill-rule:evenodd;stroke:#000000;stroke-width:1pt;marker-start:none"
         transform="matrix(-0.4,0,0,-0.4,-4,0)"
         inkscape:connector-curvature="0" />
    </marker>
    <marker
       inkscape:stockid="Arrow1Mend"
       orient="auto"
       refY="0"
       refX="0"
       id="Arrow1Mend-96-8"
       style="overflow:visible">
      <path
         id="path7524-2-8"
         d="M 0,0 5,-5 -12.5,0 5,5 0,0 z"
         style="fill-rule:evenodd;stroke:#000000;stroke-width:1pt;marker-start:none"
         transform="matrix(-0.4,0,0,-0.4,-4,0)"
         inkscape:connector-curvature="0" />
    </marker>
    <marker
       inkscape:stockid="Arrow1Mend"
       orient="auto"
       refY="0"
       refX="0"
       id="Arrow1Mend-96-0"
       style="overflow:visible">
      <path
         id="path7524-2-0"
         d="M 0,0 5,-5 -12.5,0 5,5 0,0 z"
         style="fill-rule:evenodd;stroke:#000000;stroke-width:1pt;marker-start:none"
         transform="matrix(-0.4,0,0,-0.4,-4,0)"
         inkscape:connector-curvature="0" />
    </marker>
    <marker
       inkscape:stockid="Dot_m"
       orient="auto"
       refY="0"
       refX="0"
       id="Dot_m-1"
       style="overflow:visible">
      <path
         id="path7580-8"
         d="m -2.5,-1 c 0,2.76 -2.24,5 -5,5 -2.76,0 -5,-2.24 -5,-5 0,-2.76 2.24,-5 5,-5 2.76,0 5,2.24 5,5 z"
         style="fill-rule:evenodd;stroke:#000000;stroke-width:1pt;marker-start:none;marker-end:none"
         transform="matrix(0.4,0,0,0.4,2.96,0.4)"
         inkscape:connector-curvature="0" />
    </marker>
    <marker
       inkscape:stockid="Arrow1Mend"
       orient="auto"
       refY="0"
       refX="0"
       id="Arrow1Mend-80"
       style="overflow:visible">
      <path
         id="path7524-3"
         d="M 0,0 5,-5 -12.5,0 5,5 0,0 z"
         style="fill-rule:evenodd;stroke:#000000;stroke-width:1pt;marker-start:none"
         transform="matrix(-0.4,0,0,-0.4,-4,0)"
         inkscape:connector-curvature="0" />
    </marker>
    <marker
       inkscape:stockid="Dot_m"
       orient="auto"
       refY="0"
       refX="0"
       id="Dot_m-15"
       style="overflow:visible">
      <path
         id="path7580-9"
         d="m -2.5,-1 c 0,2.76 -2.24,5 -5,5 -2.76,0 -5,-2.24 -5,-5 0,-2.76 2.24,-5 5,-5 2.76,0 5,2.24 5,5 z"
         style="fill-rule:evenodd;stroke:#000000;stroke-width:1pt;marker-start:none;marker-end:none"
         transform="matrix(0.4,0,0,0.4,2.96,0.4)"
         inkscape:connector-curvature="0" />
    </marker>
    <marker
       inkscape:stockid="Arrow1Mend"
       orient="auto"
       refY="0"
       refX="0"
       id="Arrow1Mend-2"
       style="overflow:visible">
      <path
         id="path7524-90"
         d="M 0,0 5,-5 -12.5,0 5,5 0,0 z"
         style="fill-rule:evenodd;stroke:#000000;stroke-width:1pt;marker-start:none"
         transform="matrix(-0.4,0,0,-0.4,-4,0)"
         inkscape:connector-curvature="0" />
    </marker>
    <marker
       inkscape:stockid="Dot_m"
       orient="auto"
       refY="0"
       refX="0"
       id="Dot_m-6"
       style="overflow:visible">
      <path
         id="path7580-3"
         d="m -2.5,-1 c 0,2.76 -2.24,5 -5,5 -2.76,0 -5,-2.24 -5,-5 0,-2.76 2.24,-5 5,-5 2.76,0 5,2.24 5,5 z"
         style="fill-rule:evenodd;stroke:#000000;stroke-width:1pt;marker-start:none;marker-end:none"
         transform="matrix(0.4,0,0,0.4,2.96,0.4)"
         inkscape:connector-curvature="0" />
    </marker>
    <marker
       inkscape:stockid="Arrow1Mend"
       orient="auto"
       refY="0"
       refX="0"
       id="Arrow1Mend-3"
       style="overflow:visible">
      <path
         id="path7524-55"
         d="M 0,0 5,-5 -12.5,0 5,5 0,0 z"
         style="fill-rule:evenodd;stroke:#000000;stroke-width:1pt;marker-start:none"
         transform="matrix(-0.4,0,0,-0.4,-4,0)"
         inkscape:connector-curvature="0" />
    </marker>
    <marker
       inkscape:stockid="Dot_m"
       orient="auto"
       refY="0"
       refX="0"
       id="marker4160"
       style="overflow:visible">
      <path
         id="path4162"
         d="m -2.5,-1 c 0,2.76 -2.24,5 -5,5 -2.76,0 -5,-2.24 -5,-5 0,-2.76 2.24,-5 5,-5 2.76,0 5,2.24 5,5 z"
         style="fill-rule:evenodd;stroke:#000000;stroke-width:1pt;marker-start:none;marker-end:none"
         transform="matrix(0.4,0,0,0.4,2.96,0.4)"
         inkscape:connector-curvature="0" />
    </marker>
    <marker
       inkscape:stockid="Arrow1Mend"
       orient="auto"
       refY="0"
       refX="0"
       id="marker4164"
       style="overflow:visible">
      <path
         id="path4166"
         d="M 0,0 5,-5 -12.5,0 5,5 0,0 z"
         style="fill-rule:evenodd;stroke:#000000;stroke-width:1pt;marker-start:none"
         transform="matrix(-0.4,0,0,-0.4,-4,0)"
         inkscape:connector-curvature="0" />
    </marker>
    <marker
       inkscape:stockid="Dot_m"
       orient="auto"
       refY="0"
       refX="0"
       id="marker4168"
       style="overflow:visible">
      <path
         id="path4170"
         d="m -2.5,-1 c 0,2.76 -2.24,5 -5,5 -2.76,0 -5,-2.24 -5,-5 0,-2.76 2.24,-5 5,-5 2.76,0 5,2.24 5,5 z"
         style="fill-rule:evenodd;stroke:#000000;stroke-width:1pt;marker-start:none;marker-end:none"
         transform="matrix(0.4,0,0,0.4,2.96,0.4)"
         inkscape:connector-curvature="0" />
    </marker>
    <marker
       inkscape:stockid="Arrow1Mend"
       orient="auto"
       refY="0"
       refX="0"
       id="marker4172"
       style="overflow:visible">
      <path
         id="path4174"
         d="M 0,0 5,-5 -12.5,0 5,5 0,0 z"
         style="fill-rule:evenodd;stroke:#000000;stroke-width:1pt;marker-start:none"
         transform="matrix(-0.4,0,0,-0.4,-4,0)"
         inkscape:connector-curvature="0" />
    </marker>
    <marker
       inkscape:stockid="Arrow1Mend"
       orient="auto"
       refY="0"
       refX="0"
       id="marker4172-3"
       style="overflow:visible">
      <path
         id="path4174-4"
         d="M 0,0 5,-5 -12.5,0 5,5 0,0 z"
         style="fill-rule:evenodd;stroke:#000000;stroke-width:1pt;marker-start:none"
         transform="matrix(-0.4,0,0,-0.4,-4,0)"
         inkscape:connector-curvature="0" />
    </marker>
    <marker
       inkscape:stockid="Dot_m"
       orient="auto"
       refY="0"
       refX="0"
       id="Dot_m-2"
       style="overflow:visible">
      <path
         id="path7580-1"
         d="m -2.5,-1 c 0,2.76 -2.24,5 -5,5 -2.76,0 -5,-2.24 -5,-5 0,-2.76 2.24,-5 5,-5 2.76,0 5,2.24 5,5 z"
         style="fill-rule:evenodd;stroke:#000000;stroke-width:1pt;marker-start:none;marker-end:none"
         transform="matrix(0.4,0,0,0.4,2.96,0.4)"
         inkscape:connector-curvature="0" />
    </marker>
    <marker
       inkscape:stockid="Arrow1Mend"
       orient="auto"
       refY="0"
       refX="0"
       id="Arrow1Mend-5"
       style="overflow:visible">
      <path
         id="path7524-28"
         d="M 0,0 5,-5 -12.5,0 5,5 0,0 z"
         style="fill-rule:evenodd;stroke:#000000;stroke-width:1pt;marker-start:none"
         transform="matrix(-0.4,0,0,-0.4,-4,0)"
         inkscape:connector-curvature="0" />
    </marker>
    <marker
       inkscape:stockid="Dot_m"
       orient="auto"
       refY="0"
       refX="0"
       id="marker4772"
       style="overflow:visible">
      <path
         id="path4774"
         d="m -2.5,-1 c 0,2.76 -2.24,5 -5,5 -2.76,0 -5,-2.24 -5,-5 0,-2.76 2.24,-5 5,-5 2.76,0 5,2.24 5,5 z"
         style="fill-rule:evenodd;stroke:#000000;stroke-width:1pt;marker-start:none;marker-end:none"
         transform="matrix(0.4,0,0,0.4,2.96,0.4)"
         inkscape:connector-curvature="0" />
    </marker>
    <marker
       inkscape:stockid="Arrow1Mend"
       orient="auto"
       refY="0"
       refX="0"
       id="marker4776"
       style="overflow:visible">
      <path
         id="path4778"
         d="M 0,0 5,-5 -12.5,0 5,5 0,0 z"
         style="fill-rule:evenodd;stroke:#000000;stroke-width:1pt;marker-start:none"
         transform="matrix(-0.4,0,0,-0.4,-4,0)"
         inkscape:connector-curvature="0" />
    </marker>
    <marker
       inkscape:stockid="Arrow1Mend"
       orient="auto"
       refY="0"
       refX="0"
       id="marker4172-31"
       style="overflow:visible">
      <path
         id="path4174-8"
         d="M 0,0 5,-5 -12.5,0 5,5 0,0 z"
         style="fill-rule:evenodd;stroke:#000000;stroke-width:1pt;marker-start:none"
         transform="matrix(-0.4,0,0,-0.4,-4,0)"
         inkscape:connector-curvature="0" />
    </marker>
    <marker
       inkscape:stockid="Dot_m"
       orient="auto"
       refY="0"
       refX="0"
       id="Dot_m-0"
       style="overflow:visible">
      <path
         id="path7580-4"
         d="m -2.5,-1 c 0,2.76 -2.24,5 -5,5 -2.76,0 -5,-2.24 -5,-5 0,-2.76 2.24,-5 5,-5 2.76,0 5,2.24 5,5 z"
         style="fill-rule:evenodd;stroke:#000000;stroke-width:1pt;marker-start:none;marker-end:none"
         transform="matrix(0.4,0,0,0.4,2.96,0.4)"
         inkscape:connector-curvature="0" />
    </marker>
    <marker
       inkscape:stockid="Arrow1Mend"
       orient="auto"
       refY="0"
       refX="0"
       id="Arrow1Mend-83"
       style="overflow:visible">
      <path
         id="path7524-6"
         d="M 0,0 5,-5 -12.5,0 5,5 0,0 z"
         style="fill-rule:evenodd;stroke:#000000;stroke-width:1pt;marker-start:none"
         transform="matrix(-0.4,0,0,-0.4,-4,0)"
         inkscape:connector-curvature="0" />
    </marker>
    <marker
       inkscape:stockid="Dot_m"
       orient="auto"
       refY="0"
       refX="0"
       id="marker4855"
       style="overflow:visible">
      <path
         id="path4857"
         d="m -2.5,-1 c 0,2.76 -2.24,5 -5,5 -2.76,0 -5,-2.24 -5,-5 0,-2.76 2.24,-5 5,-5 2.76,0 5,2.24 5,5 z"
         style="fill-rule:evenodd;stroke:#000000;stroke-width:1pt;marker-start:none;marker-end:none"
         transform="matrix(0.4,0,0,0.4,2.96,0.4)"
         inkscape:connector-curvature="0" />
    </marker>
    <marker
       inkscape:stockid="Arrow1Mend"
       orient="auto"
       refY="0"
       refX="0"
       id="marker4859"
       style="overflow:visible">
      <path
         id="path4861"
         d="M 0,0 5,-5 -12.5,0 5,5 0,0 z"
         style="fill-rule:evenodd;stroke:#000000;stroke-width:1pt;marker-start:none"
         transform="matrix(-0.4,0,0,-0.4,-4,0)"
         inkscape:connector-curvature="0" />
    </marker>
    <marker
       inkscape:stockid="Arrow1Mend"
       orient="auto"
       refY="0"
       refX="0"
       id="marker4172-9"
       style="overflow:visible">
      <path
         id="path4174-46"
         d="M 0,0 5,-5 -12.5,0 5,5 0,0 z"
         style="fill-rule:evenodd;stroke:#000000;stroke-width:1pt;marker-start:none"
         transform="matrix(-0.4,0,0,-0.4,-4,0)"
         inkscape:connector-curvature="0" />
    </marker>
  </defs>
  <sodipodi:namedview
     id="base"
     pagecolor="#ffffff"
     bordercolor="#666666"
     borderopacity="1.0"
     gridtolerance="10000"
     guidetolerance="10"
     objecttolerance="10"
     inkscape:pageopacity="0.0"
     inkscape:pageshadow="2"
     inkscape:zoom="1.4142136"
     inkscape:cx="282.59048"
     inkscape:cy="147.38503"
     inkscape:document-units="px"
     inkscape:current-layer="g7364"
     width="765px"
     height="990px"
     inkscape:window-width="1281"
     inkscape:window-height="911"
     inkscape:window-x="1463"
     inkscape:window-y="70"
     showgrid="false"
     inkscape:window-maximized="0"
     borderlayer="true"
     showguides="false"
     inkscape:guide-bbox="true"
     fit-margin-top="0"
     fit-margin-left="0"
     fit-margin-right="0"
     fit-margin-bottom="0"
     showborder="true"
     inkscape:showpageshadow="true">
    <sodipodi:guide
       position="161.3007,-33.124553"
       orientation="0,765"
       id="guide3038" />
    <sodipodi:guide
       position="558.69471,637.21268"
       orientation="-990,0"
       id="guide3040" />
    <sodipodi:guide
       position="796.69915,355.83468"
       orientation="0,-765"
       id="guide3042" />
    <sodipodi:guide
       position="51.699143,355.83468"
       orientation="990,0"
       id="guide3044" />
    <sodipodi:guide
       position="51.699143,-634.16532"
       orientation="0,765"
       id="guide3046" />
    <sodipodi:guide
       position="816.69915,-634.16532"
       orientation="-990,0"
       id="guide3048" />
    <sodipodi:guide
       position="816.69915,355.83468"
       orientation="0,-765"
       id="guide3050" />
    <sodipodi:guide
       position="51.699143,355.83468"
       orientation="990,0"
       id="guide3052" />
    <sodipodi:guide
       position="53.167893,-78.708686"
       orientation="0,478.375"
       id="guide7410" />
    <sodipodi:guide
       position="531.5429,-78.708686"
       orientation="-400,0"
       id="guide7412" />
    <sodipodi:guide
       position="531.5429,321.29131"
       orientation="0,-478.375"
       id="guide7414" />
    <sodipodi:guide
       position="53.167893,321.29131"
       orientation="400,0"
       id="guide7416" />
  </sodipodi:namedview>
  <metadata
     id="metadata5433">
    <rdf:RDF>
      <cc:Work
         rdf:about="">
        <dc:format>image/svg+xml</dc:format>
        <dc:type
           rdf:resource="http://purl.org/dc/dcmitype/StillImage" />
        <dc:title></dc:title>
      </cc:Work>
    </rdf:RDF>
  </metadata>
  <g
     inkscape:label="Layer 1"
     inkscape:groupmode="layer"
     id="layer1"
     style="display:inline"
     transform="translate(51.699143,6.517676)" />
  <g
     inkscape:groupmode="layer"
     id="layer2"
     inkscape:label="pos"
     style="display:inline"
     transform="translate(51.699143,6.517676)">
    <g
       id="g2939"
       transform="translate(-49,-9)">
      <g
         id="g2890"
         transform="translate(97,-51)">
        <g
           id="g3093"
           transform="translate(0.70710678,41.147662)">
          <g
             id="g7364">
            <path
               inkscape:connector-curvature="0"
               style="opacity:0.57777782000000000;fill:#ffffff;fill-opacity:1;fill-rule:evenodd;stroke:#000000;stroke-width:0.89260136999999984px;stroke-linecap:butt;stroke-linejoin:miter;stroke-opacity:1;display:inline"
               d="M 293.74394,352.57353 72.208149,299.49874 72.625156,37.743395 292.99451,70.332423 z"
               id="path2517"
               sodipodi:nodetypes="ccccc" />
            <path
               sodipodi:type="arc"
               style="opacity:0.97345132000000001;fill:none;stroke:#acd0ad;stroke-width:3.5;stroke-miterlimit:4;stroke-opacity:1;stroke-dasharray:3.5,3.5;stroke-dashoffset:0;marker-mid:none;display:inline"
               id="path3087-9-6"
               sodipodi:cx="-228.39548"
               sodipodi:cy="85.518967"
               sodipodi:rx="149.90665"
               sodipodi:ry="85.20636"
               d="m -97.46678,127.01453 c -40.31935,41.10068 -131.62342,55.84117 -203.93335,32.9238 -72.30992,-22.91736 -98.2434,-74.814244 -57.92404,-115.914925 0.48492,-0.494322 0.9785,-0.985885 1.48065,-1.474616"
               transform="matrix(-1,0,0,-1,-153.82517,272.0952)"
               sodipodi:start="0.50865247"
               sodipodi:end="3.6701721"
               sodipodi:open="true" />
            <path
               sodipodi:nodetypes="cc"
               id="path2437-9-1-3-1"
               d="M -5.5942,248.70062 31.57597,216.90246"
               style="fill:none;stroke:#64aa77;stroke-width:2.5;stroke-linecap:butt;stroke-linejoin:miter;stroke-miterlimit:4;stroke-opacity:1;stroke-dasharray:none;marker-start:url(#Dot_m);marker-mid:none;marker-end:url(#Arrow1Mend);display:inline"
               inkscape:connector-curvature="0" />
            <g
               transform="translate(-2.3458195e-7,-2.1213203)"
               id="g5577" />
            <flowRoot
               transform="translate(-48.707107,18.852338)"
               style="display:inline"
               xml:space="preserve"
               id="flowRoot10639"><flowRegion
                 id="flowRegion10641"><rect
                   id="rect10643"
                   width="38.57832"
                   height="40.121452"
                   x="196.74944"
                   y="474.59363" /></flowRegion><flowPara
                 id="flowPara10645" /></flowRoot>            <path
               style="fill:none;stroke:#000000;stroke-width:1px;stroke-linecap:butt;stroke-linejoin:miter;stroke-opacity:1;display:inline"
               d="m -67.393727,293.31647 0,0 z"
               id="path5549"
               inkscape:connector-curvature="0" />
            <g
               transform="matrix(0.9994916,-0.03188333,0.03188333,0.9994916,456.57258,-189.56297)"
               id="g8174"
               style="display:inline">
              <g
                 inkscape:transform-center-y="7"
                 style="display:inline"
                 id="g2633"
                 transform="translate(-322.32985,-174.32304)">
                <text
                   transform="matrix(0.9985533,0.2989601,-0.2751624,0.919067,0,0)"
                   sodipodi:linespacing="100%"
                   id="text2635"
                   y="435.32031"
                   x="208.61148"
                   style="font-size:40px;font-style:italic;font-variant:normal;font-weight:normal;font-stretch:normal;text-align:start;line-height:100%;writing-mode:lr-tb;text-anchor:start;fill:#000000;fill-opacity:1;stroke:none;display:inline;font-family:Times New Roman;-inkscape-font-specification:'Times New Roman, Italic'"
                   xml:space="preserve"><tspan
                     id="tspan2637"
                     sodipodi:role="line"
                     x="208.61148"
                     y="435.32031">M</tspan></text>
              </g>
            </g>
            <text
               sodipodi:linespacing="100%"
               xml:space="preserve"
               style="font-size:28px;font-style:italic;font-variant:normal;font-weight:normal;font-stretch:normal;text-align:start;line-height:100%;writing-mode:lr-tb;text-anchor:start;fill:#000000;fill-opacity:1;stroke:none;display:inline;font-family:Times New Roman;-inkscape-font-specification:'Times New Roman, Italic'"
               x="-53.877251"
               y="303.51498"
               id="text8418"
               transform="matrix(0.92451679,-5.0614001e-4,5.9214045e-4,1.0816458,0,0)"><tspan
                 sodipodi:role="line"
                 id="tspan5299"
                 x="-53.877251"
                 y="303.51498">g y'</tspan></text>
            <text
               sodipodi:linespacing="125%"
               xml:space="preserve"
               style="font-size:28px;font-style:italic;font-variant:normal;font-weight:normal;font-stretch:normal;text-align:start;line-height:125%;writing-mode:lr-tb;text-anchor:start;fill:#000000;fill-opacity:1;stroke:none;display:inline;font-family:Times New Roman;-inkscape-font-specification:'Times New Roman, Italic'"
               x="179.1902"
               y="278.65469"
               id="text8424"
               transform="matrix(0.92451679,-5.0614001e-4,5.9214045e-4,1.0816458,0,0)"
               inkscape:transform-center-x="10.156555"
               inkscape:transform-center-y="-5.6568541"><tspan
                 sodipodi:role="line"
                 id="tspan8434"
                 x="179.1902"
                 y="278.65469">y'</tspan></text>
            <text
               sodipodi:linespacing="100%"
               xml:space="preserve"
               style="font-size:28px;font-style:italic;font-variant:normal;font-weight:normal;font-stretch:normal;text-align:start;line-height:100%;writing-mode:lr-tb;text-anchor:start;fill:#000000;fill-opacity:1;stroke:none;display:inline;font-family:Times New Roman;-inkscape-font-specification:'Times New Roman, Italic'"
               x="127.99384"
               y="323.89221"
               id="text8428"
               transform="matrix(0.92451679,-5.0614001e-4,5.9214045e-4,1.0816458,0,0)"
               inkscape:transform-center-x="17.677669"
               inkscape:transform-center-y="-23.334524"><tspan
                 sodipodi:role="line"
                 id="tspan8432"
                 x="127.99384"
                 y="323.89221">t'</tspan></text>
            <path
               sodipodi:nodetypes="cc"
               id="path2437-9-4"
               d="M -55.07877,143.98321 8.25435,93.09318"
               style="fill:none;stroke:#64aa77;stroke-width:2.5;stroke-linecap:butt;stroke-linejoin:miter;stroke-miterlimit:4;stroke-opacity:1;stroke-dasharray:none;marker-start:url(#Dot_m);marker-mid:none;marker-end:url(#Arrow1Mend);display:inline"
               inkscape:connector-curvature="0" />
            <path
               sodipodi:nodetypes="cc"
               id="path2437-9-1-3"
               d="M -15.66766,87.352295 25.74515,53.432824"
               style="fill:none;stroke:#64aa77;stroke-width:2.5;stroke-linecap:butt;stroke-linejoin:miter;stroke-miterlimit:4;stroke-opacity:1;stroke-dasharray:none;marker-start:url(#Dot_m);marker-mid:none;marker-end:url(#Arrow1Mend);display:inline"
               inkscape:connector-curvature="0" />
            <path
               sodipodi:type="arc"
               style="opacity:0.97345132000000001;fill:none;stroke:#acd0ad;stroke-width:3.5;stroke-miterlimit:4;stroke-opacity:1;stroke-dasharray:3.5,3.5;stroke-dashoffset:0;marker-mid:none;display:inline"
               id="path3087-9"
               sodipodi:cx="-228.39548"
               sodipodi:cy="85.518967"
               sodipodi:rx="101.82337"
               sodipodi:ry="56.214985"
               d="m -139.46279,112.89571 c -27.38673,27.11621 -89.40458,36.84127 -138.52075,21.72151 -49.11617,-15.11975 -66.73136,-49.358776 -39.34463,-76.474993 0.32938,-0.32613 0.66465,-0.650439 1.00573,-0.97288"
               transform="matrix(-1,0,0,-1,-154.70624,200.54944)"
               sodipodi:start="0.50865247"
               sodipodi:end="3.6701721"
               sodipodi:open="true" />
            <path
               sodipodi:type="arc"
               style="opacity:0.97345132000000001;fill:none;stroke:#acd0ad;stroke-width:3.5;stroke-miterlimit:4;stroke-opacity:1;stroke-dasharray:3.5,3.5;stroke-dashoffset:0;marker-mid:none;display:inline"
               id="path3087-9-5"
               sodipodi:cx="-228.39548"
               sodipodi:cy="85.518967"
               sodipodi:rx="85.559914"
               sodipodi:ry="49.143917"
               d="m -153.66732,109.45209 c -23.01245,23.70537 -75.12468,32.20715 -116.3959,18.98925 -41.27122,-13.2179 -56.07288,-43.150126 -33.06042,-66.855498 0.27677,-0.285107 0.55849,-0.568622 0.8451,-0.850505"
               transform="matrix(-1,0,0,-1,-153.82517,354.11959)"
               sodipodi:start="0.50865247"
               sodipodi:end="3.6701721"
               sodipodi:open="true" />
            <path
               inkscape:connector-curvature="0"
               style="opacity:0.73893804;fill:#cb3427;fill-opacity:1;fill-rule:evenodd;stroke:#5a2c2c;stroke-width:0.89260137px;stroke-linecap:butt;stroke-linejoin:miter;stroke-opacity:1;display:inline"
               d="M 72.107396,36.925556 70.94262,298.88053 -98.974355,259.94787 -99.971559,12.334662"
               id="path2517-5"
               sodipodi:nodetypes="cccc" />
            <path
               sodipodi:nodetypes="cc"
               id="path2437-9"
               d="m 202.0419,232.73695 -63.33312,50.89003"
               style="fill:none;stroke:#000000;stroke-width:2.5;stroke-linecap:butt;stroke-linejoin:miter;stroke-miterlimit:4;stroke-opacity:1;stroke-dasharray:none;marker-start:url(#Dot_m);marker-mid:none;marker-end:url(#Arrow1Mend);display:inline"
               inkscape:connector-curvature="0" />
            <path
               sodipodi:nodetypes="cc"
               id="path2437-9-1-39"
               d="m 149.36973,292.32429 -42.82702,33.91947"
               style="fill:none;stroke:#000000;stroke-width:2.5;stroke-linecap:butt;stroke-linejoin:miter;stroke-miterlimit:4;stroke-opacity:1;stroke-dasharray:none;marker-start:url(#Dot_m);marker-mid:none;marker-end:url(#Arrow1Mend);display:inline"
               inkscape:connector-curvature="0" />
            <path
               sodipodi:type="arc"
               style="opacity:0.97345132000000001;fill:none;stroke:#2d4228;stroke-width:3.50000000000000000;stroke-miterlimit:4;stroke-opacity:1;stroke-dasharray:3.50000000000000000, 3.50000000000000000;stroke-dashoffset:0;marker-mid:url(#marker4172)"
               id="path3087-2"
               sodipodi:cx="-228.39548"
               sodipodi:cy="85.518967"
               sodipodi:rx="148.49242"
               sodipodi:ry="89.449005"
               d="m -98.701971,129.0807 c -39.938979,43.14719 -130.381679,58.62165 -202.009429,34.56317 -71.62774,-24.05848 -97.31656,-78.539446 -57.37758,-121.686636 0.48035,-0.518936 0.96927,-1.034975 1.46669,-1.548042"
               transform="translate(299.13522,105.21839)"
               sodipodi:start="0.50865247"
               sodipodi:end="3.6701721"
               sodipodi:open="true" />
            <path
               sodipodi:type="arc"
               style="fill:none;stroke:#3b592a;stroke-width:3.5;stroke-miterlimit:4;stroke-opacity:1;stroke-dasharray:3.5,3.5;stroke-dashoffset:0;marker-mid:url(#marker4172)"
               id="path3087"
               sodipodi:cx="-228.39548"
               sodipodi:cy="85.518967"
               sodipodi:rx="101.82337"
               sodipodi:ry="56.214985"
               d="m -139.46279,112.89571 c -27.38673,27.11621 -89.40458,36.84127 -138.52075,21.72151 -49.11617,-15.11975 -66.73136,-49.358776 -39.34463,-76.474993 0.32938,-0.32613 0.66465,-0.650439 1.00573,-0.97288"
               transform="translate(298.96126,31.551313)"
               sodipodi:start="0.50865247"
               sodipodi:end="3.6701721"
               sodipodi:open="true" />
            <path
               sodipodi:nodetypes="cc"
               id="path2437-9-1"
               d="m 161.92369,144.41099 -41.41281,33.91947"
               style="fill:none;stroke:#000000;stroke-width:2.5;stroke-linecap:butt;stroke-linejoin:miter;stroke-miterlimit:4;stroke-opacity:1;stroke-dasharray:none;marker-start:url(#Dot_m);marker-mid:none;marker-end:url(#Arrow1Mend);display:inline"
               inkscape:connector-curvature="0" />
            <path
               sodipodi:type="arc"
               style="opacity:0.97345132000000001;fill:none;stroke:#263a1f;stroke-width:3.5;stroke-miterlimit:4;stroke-opacity:1;stroke-dasharray:3.5,3.5;stroke-dashoffset:0;marker-mid:url(#marker4172)"
               id="path3087-5"
               sodipodi:cx="-228.39548"
               sodipodi:cy="85.518967"
               sodipodi:rx="87.681236"
               sodipodi:ry="45.608383"
               d="m -151.81455,107.73028 c -23.58302,21.99995 -76.98728,29.89009 -119.28176,17.62312 -42.29447,-12.26697 -57.46311,-40.045801 -33.88009,-62.04575 0.28363,-0.264596 0.57233,-0.527715 0.86604,-0.789318"
               transform="translate(299.84233,185.12146)"
               sodipodi:start="0.50865247"
               sodipodi:end="3.6701721"
               sodipodi:open="true" />
          </g>
        </g>
      </g>
    </g>
  </g>
</svg>
