<?xml version="1.0" encoding="UTF-8" standalone="no"?>
<!-- Created with Inkscape (http://www.inkscape.org/) -->

<svg
   xmlns:dc="http://purl.org/dc/elements/1.1/"
   xmlns:cc="http://creativecommons.org/ns#"
   xmlns:rdf="http://www.w3.org/1999/02/22-rdf-syntax-ns#"
   xmlns:svg="http://www.w3.org/2000/svg"
   xmlns="http://www.w3.org/2000/svg"
   xmlns:sodipodi="http://sodipodi.sourceforge.net/DTD/sodipodi-0.dtd"
   xmlns:inkscape="http://www.inkscape.org/namespaces/inkscape"
   width="395.59647"
   height="362.35236"
   id="svg5428"
   sodipodi:version="0.32"
   inkscape:version="0.48.1 "
   version="1.0"
   sodipodi:docname="chartBord-m2.svg"
   inkscape:output_extension="org.inkscape.output.svg.inkscape"
   inkscape:export-filename="C:\Documents and Settings\Predrag\My Documents\dasbuch\book\FigSrc\inkscape\ReducTraj2.png"
   inkscape:export-xdpi="90"
   inkscape:export-ydpi="90">
  <defs
     id="defs5430">
    <marker
       inkscape:stockid="Arrow2Mend"
       orient="auto"
       refY="0"
       refX="0"
       id="Arrow2Mend"
       style="overflow:visible">
      <path
         id="path4257"
         style="font-size:12px;fill-rule:evenodd;stroke-width:0.625;stroke-linejoin:round"
         d="M 8.7185878,4.0337352 -2.2072895,0.01601326 8.7185884,-4.0017078 c -1.7454984,2.3720609 -1.7354408,5.6174519 -6e-7,8.035443 z"
         transform="scale(-0.6,-0.6)"
         inkscape:connector-curvature="0" />
    </marker>
    <inkscape:perspective
       sodipodi:type="inkscape:persp3d"
       inkscape:vp_x="0 : 495 : 1"
       inkscape:vp_y="0 : 1000 : 0"
       inkscape:vp_z="765 : 495 : 1"
       inkscape:persp3d-origin="382.5 : 330 : 1"
       id="perspective62" />
    <marker
       inkscape:stockid="DotS"
       orient="auto"
       refY="0"
       refX="0"
       id="DotS"
       style="overflow:visible">
      <path
         id="path8285"
         d="m -2.5,-1 c 0,2.76 -2.24,5 -5,5 -2.76,0 -5,-2.24 -5,-5 0,-2.76 2.24,-5 5,-5 2.76,0 5,2.24 5,5 z"
         style="fill-rule:evenodd;stroke:#000000;stroke-width:1pt;marker-start:none;marker-end:none"
         transform="matrix(0.2,0,0,0.2,1.48,0.2)"
         inkscape:connector-curvature="0" />
    </marker>
    <marker
       inkscape:stockid="Arrow2Mstart"
       orient="auto"
       refY="0"
       refX="0"
       id="Arrow2Mstart"
       style="overflow:visible">
      <path
         id="path8241"
         style="font-size:12px;fill-rule:evenodd;stroke-width:0.625;stroke-linejoin:round"
         d="M 8.7185878,4.0337352 -2.2072895,0.01601326 8.7185884,-4.0017078 c -1.7454984,2.3720609 -1.7354408,5.6174519 -6e-7,8.035443 z"
         transform="scale(0.6,0.6)"
         inkscape:connector-curvature="0" />
    </marker>
    <marker
       inkscape:stockid="DotM"
       orient="auto"
       refY="0"
       refX="0"
       id="DotM"
       style="overflow:visible">
      <path
         id="path8282"
         d="m -2.5,-1 c 0,2.76 -2.24,5 -5,5 -2.76,0 -5,-2.24 -5,-5 0,-2.76 2.24,-5 5,-5 2.76,0 5,2.24 5,5 z"
         style="fill-rule:evenodd;stroke:#000000;stroke-width:1pt;marker-start:none;marker-end:none"
         transform="matrix(0.4,0,0,0.4,2.96,0.4)"
         inkscape:connector-curvature="0" />
    </marker>
    <marker
       inkscape:stockid="Arrow1Mend"
       orient="auto"
       refY="0"
       refX="0"
       id="Arrow1Mend"
       style="overflow:visible">
      <path
         id="path7524"
         d="M 0,0 5,-5 -12.5,0 5,5 0,0 z"
         style="fill-rule:evenodd;stroke:#000000;stroke-width:1pt;marker-start:none"
         transform="matrix(-0.4,0,0,-0.4,-4,0)"
         inkscape:connector-curvature="0" />
    </marker>
    <marker
       inkscape:stockid="Dot_m"
       orient="auto"
       refY="0"
       refX="0"
       id="Dot_m"
       style="overflow:visible">
      <path
         id="path7580"
         d="m -2.5,-1 c 0,2.76 -2.24,5 -5,5 -2.76,0 -5,-2.24 -5,-5 0,-2.76 2.24,-5 5,-5 2.76,0 5,2.24 5,5 z"
         style="fill-rule:evenodd;stroke:#000000;stroke-width:1pt;marker-start:none;marker-end:none"
         transform="matrix(0.4,0,0,0.4,2.96,0.4)"
         inkscape:connector-curvature="0" />
    </marker>
    <marker
       inkscape:stockid="Arrow2Mstart"
       orient="auto"
       refY="0"
       refX="0"
       id="Arrow2Mstart-2"
       style="overflow:visible">
      <path
         id="path8241-2"
         style="font-size:12px;fill-rule:evenodd;stroke-width:0.625;stroke-linejoin:round"
         d="M 8.7185878,4.0337352 -2.2072895,0.01601326 8.7185884,-4.0017078 c -1.7454984,2.3720609 -1.7354408,5.6174519 -6e-7,8.035443 z"
         transform="scale(0.6,0.6)"
         inkscape:connector-curvature="0" />
    </marker>
    <marker
       inkscape:stockid="Arrow2Mend"
       orient="auto"
       refY="0"
       refX="0"
       id="Arrow2Mend-8"
       style="overflow:visible">
      <path
         inkscape:connector-curvature="0"
         id="path4257-6"
         style="font-size:12px;fill-rule:evenodd;stroke-width:0.625;stroke-linejoin:round"
         d="M 8.7185878,4.0337352 -2.2072895,0.01601326 8.7185884,-4.0017078 c -1.7454984,2.3720609 -1.7354408,5.6174519 -6e-7,8.035443 z"
         transform="scale(-0.6,-0.6)" />
    </marker>
    <marker
       inkscape:stockid="Arrow1Mend"
       orient="auto"
       refY="0"
       refX="0"
       id="Arrow1Mend-9"
       style="overflow:visible">
      <path
         id="path7524-4"
         d="M 0,0 5,-5 -12.5,0 5,5 0,0 z"
         style="fill-rule:evenodd;stroke:#000000;stroke-width:1pt;marker-start:none"
         transform="matrix(-0.4,0,0,-0.4,-4,0)"
         inkscape:connector-curvature="0" />
    </marker>
    <marker
       inkscape:stockid="Arrow2Mend"
       orient="auto"
       refY="0"
       refX="0"
       id="Arrow2Mend-0"
       style="overflow:visible">
      <path
         inkscape:connector-curvature="0"
         id="path4257-2"
         style="font-size:12px;fill-rule:evenodd;stroke-width:0.625;stroke-linejoin:round"
         d="M 8.7185878,4.0337352 -2.2072895,0.01601326 8.7185884,-4.0017078 c -1.7454984,2.3720609 -1.7354408,5.6174519 -6e-7,8.035443 z"
         transform="scale(-0.6,-0.6)" />
    </marker>
    <marker
       inkscape:stockid="Arrow1Mend"
       orient="auto"
       refY="0"
       refX="0"
       id="Arrow1Mend-90"
       style="overflow:visible">
      <path
         id="path7524-5"
         d="M 0,0 5,-5 -12.5,0 5,5 0,0 z"
         style="fill-rule:evenodd;stroke:#000000;stroke-width:1pt;marker-start:none"
         transform="matrix(-0.4,0,0,-0.4,-4,0)"
         inkscape:connector-curvature="0" />
    </marker>
    <marker
       inkscape:stockid="Dot_m"
       orient="auto"
       refY="0"
       refX="0"
       id="Dot_m-7"
       style="overflow:visible">
      <path
         id="path7580-2"
         d="m -2.5,-1 c 0,2.76 -2.24,5 -5,5 -2.76,0 -5,-2.24 -5,-5 0,-2.76 2.24,-5 5,-5 2.76,0 5,2.24 5,5 z"
         style="fill-rule:evenodd;stroke:#000000;stroke-width:1pt;marker-start:none;marker-end:none"
         transform="matrix(0.4,0,0,0.4,2.96,0.4)"
         inkscape:connector-curvature="0" />
    </marker>
    <marker
       inkscape:stockid="Arrow1Mend"
       orient="auto"
       refY="0"
       refX="0"
       id="Arrow1Mend-8"
       style="overflow:visible">
      <path
         id="path7524-9"
         d="M 0,0 5,-5 -12.5,0 5,5 0,0 z"
         style="fill-rule:evenodd;stroke:#000000;stroke-width:1pt;marker-start:none"
         transform="matrix(-0.4,0,0,-0.4,-4,0)"
         inkscape:connector-curvature="0" />
    </marker>
    <marker
       inkscape:stockid="Arrow2Mend"
       orient="auto"
       refY="0"
       refX="0"
       id="Arrow2Mend-81"
       style="overflow:visible">
      <path
         inkscape:connector-curvature="0"
         id="path4257-1"
         style="font-size:12px;fill-rule:evenodd;stroke-width:0.625;stroke-linejoin:round"
         d="M 8.7185878,4.0337352 -2.2072895,0.01601326 8.7185884,-4.0017078 c -1.7454984,2.3720609 -1.7354408,5.6174519 -6e-7,8.035443 z"
         transform="scale(-0.6,-0.6)" />
    </marker>
    <marker
       inkscape:stockid="Arrow1Mend"
       orient="auto"
       refY="0"
       refX="0"
       id="Arrow1Mend-96"
       style="overflow:visible">
      <path
         id="path7524-2"
         d="M 0,0 5,-5 -12.5,0 5,5 0,0 z"
         style="fill-rule:evenodd;stroke:#000000;stroke-width:1pt;marker-start:none"
         transform="matrix(-0.4,0,0,-0.4,-4,0)"
         inkscape:connector-curvature="0" />
    </marker>
    <marker
       inkscape:stockid="Arrow1Mend"
       orient="auto"
       refY="0"
       refX="0"
       id="Arrow1Mend-96-8"
       style="overflow:visible">
      <path
         id="path7524-2-8"
         d="M 0,0 5,-5 -12.5,0 5,5 0,0 z"
         style="fill-rule:evenodd;stroke:#000000;stroke-width:1pt;marker-start:none"
         transform="matrix(-0.4,0,0,-0.4,-4,0)"
         inkscape:connector-curvature="0" />
    </marker>
    <marker
       inkscape:stockid="Arrow1Mend"
       orient="auto"
       refY="0"
       refX="0"
       id="Arrow1Mend-96-0"
       style="overflow:visible">
      <path
         id="path7524-2-0"
         d="M 0,0 5,-5 -12.5,0 5,5 0,0 z"
         style="fill-rule:evenodd;stroke:#000000;stroke-width:1pt;marker-start:none"
         transform="matrix(-0.4,0,0,-0.4,-4,0)"
         inkscape:connector-curvature="0" />
    </marker>
    <marker
       inkscape:stockid="Dot_m"
       orient="auto"
       refY="0"
       refX="0"
       id="Dot_m-1"
       style="overflow:visible">
      <path
         id="path7580-8"
         d="m -2.5,-1 c 0,2.76 -2.24,5 -5,5 -2.76,0 -5,-2.24 -5,-5 0,-2.76 2.24,-5 5,-5 2.76,0 5,2.24 5,5 z"
         style="fill-rule:evenodd;stroke:#000000;stroke-width:1pt;marker-start:none;marker-end:none"
         transform="matrix(0.4,0,0,0.4,2.96,0.4)"
         inkscape:connector-curvature="0" />
    </marker>
    <marker
       inkscape:stockid="Arrow1Mend"
       orient="auto"
       refY="0"
       refX="0"
       id="Arrow1Mend-80"
       style="overflow:visible">
      <path
         id="path7524-3"
         d="M 0,0 5,-5 -12.5,0 5,5 0,0 z"
         style="fill-rule:evenodd;stroke:#000000;stroke-width:1pt;marker-start:none"
         transform="matrix(-0.4,0,0,-0.4,-4,0)"
         inkscape:connector-curvature="0" />
    </marker>
    <marker
       inkscape:stockid="Dot_m"
       orient="auto"
       refY="0"
       refX="0"
       id="Dot_m-15"
       style="overflow:visible">
      <path
         id="path7580-9"
         d="m -2.5,-1 c 0,2.76 -2.24,5 -5,5 -2.76,0 -5,-2.24 -5,-5 0,-2.76 2.24,-5 5,-5 2.76,0 5,2.24 5,5 z"
         style="fill-rule:evenodd;stroke:#000000;stroke-width:1pt;marker-start:none;marker-end:none"
         transform="matrix(0.4,0,0,0.4,2.96,0.4)"
         inkscape:connector-curvature="0" />
    </marker>
    <marker
       inkscape:stockid="Arrow1Mend"
       orient="auto"
       refY="0"
       refX="0"
       id="Arrow1Mend-2"
       style="overflow:visible">
      <path
         id="path7524-90"
         d="M 0,0 5,-5 -12.5,0 5,5 0,0 z"
         style="fill-rule:evenodd;stroke:#000000;stroke-width:1pt;marker-start:none"
         transform="matrix(-0.4,0,0,-0.4,-4,0)"
         inkscape:connector-curvature="0" />
    </marker>
    <marker
       inkscape:stockid="Dot_m"
       orient="auto"
       refY="0"
       refX="0"
       id="Dot_m-6"
       style="overflow:visible">
      <path
         id="path7580-3"
         d="m -2.5,-1 c 0,2.76 -2.24,5 -5,5 -2.76,0 -5,-2.24 -5,-5 0,-2.76 2.24,-5 5,-5 2.76,0 5,2.24 5,5 z"
         style="fill-rule:evenodd;stroke:#000000;stroke-width:1pt;marker-start:none;marker-end:none"
         transform="matrix(0.4,0,0,0.4,2.96,0.4)"
         inkscape:connector-curvature="0" />
    </marker>
    <marker
       inkscape:stockid="Arrow1Mend"
       orient="auto"
       refY="0"
       refX="0"
       id="Arrow1Mend-3"
       style="overflow:visible">
      <path
         id="path7524-55"
         d="M 0,0 5,-5 -12.5,0 5,5 0,0 z"
         style="fill-rule:evenodd;stroke:#000000;stroke-width:1pt;marker-start:none"
         transform="matrix(-0.4,0,0,-0.4,-4,0)"
         inkscape:connector-curvature="0" />
    </marker>
    <marker
       inkscape:stockid="Dot_m"
       orient="auto"
       refY="0"
       refX="0"
       id="marker4160"
       style="overflow:visible">
      <path
         id="path4162"
         d="m -2.5,-1 c 0,2.76 -2.24,5 -5,5 -2.76,0 -5,-2.24 -5,-5 0,-2.76 2.24,-5 5,-5 2.76,0 5,2.24 5,5 z"
         style="fill-rule:evenodd;stroke:#000000;stroke-width:1pt;marker-start:none;marker-end:none"
         transform="matrix(0.4,0,0,0.4,2.96,0.4)"
         inkscape:connector-curvature="0" />
    </marker>
    <marker
       inkscape:stockid="Arrow1Mend"
       orient="auto"
       refY="0"
       refX="0"
       id="marker4164"
       style="overflow:visible">
      <path
         id="path4166"
         d="M 0,0 5,-5 -12.5,0 5,5 0,0 z"
         style="fill-rule:evenodd;stroke:#000000;stroke-width:1pt;marker-start:none"
         transform="matrix(-0.4,0,0,-0.4,-4,0)"
         inkscape:connector-curvature="0" />
    </marker>
    <marker
       inkscape:stockid="Dot_m"
       orient="auto"
       refY="0"
       refX="0"
       id="marker4168"
       style="overflow:visible">
      <path
         id="path4170"
         d="m -2.5,-1 c 0,2.76 -2.24,5 -5,5 -2.76,0 -5,-2.24 -5,-5 0,-2.76 2.24,-5 5,-5 2.76,0 5,2.24 5,5 z"
         style="fill-rule:evenodd;stroke:#000000;stroke-width:1pt;marker-start:none;marker-end:none"
         transform="matrix(0.4,0,0,0.4,2.96,0.4)"
         inkscape:connector-curvature="0" />
    </marker>
    <marker
       inkscape:stockid="Arrow1Mend"
       orient="auto"
       refY="0"
       refX="0"
       id="marker4172"
       style="overflow:visible">
      <path
         id="path4174"
         d="M 0,0 5,-5 -12.5,0 5,5 0,0 z"
         style="fill-rule:evenodd;stroke:#000000;stroke-width:1pt;marker-start:none"
         transform="matrix(-0.4,0,0,-0.4,-4,0)"
         inkscape:connector-curvature="0" />
    </marker>
    <marker
       inkscape:stockid="Arrow1Mend"
       orient="auto"
       refY="0"
       refX="0"
       id="marker4172-3"
       style="overflow:visible">
      <path
         id="path4174-4"
         d="M 0,0 5,-5 -12.5,0 5,5 0,0 z"
         style="fill-rule:evenodd;stroke:#000000;stroke-width:1pt;marker-start:none"
         transform="matrix(-0.4,0,0,-0.4,-4,0)"
         inkscape:connector-curvature="0" />
    </marker>
    <marker
       inkscape:stockid="Dot_m"
       orient="auto"
       refY="0"
       refX="0"
       id="Dot_m-2"
       style="overflow:visible">
      <path
         id="path7580-1"
         d="m -2.5,-1 c 0,2.76 -2.24,5 -5,5 -2.76,0 -5,-2.24 -5,-5 0,-2.76 2.24,-5 5,-5 2.76,0 5,2.24 5,5 z"
         style="fill-rule:evenodd;stroke:#000000;stroke-width:1pt;marker-start:none;marker-end:none"
         transform="matrix(0.4,0,0,0.4,2.96,0.4)"
         inkscape:connector-curvature="0" />
    </marker>
    <marker
       inkscape:stockid="Arrow1Mend"
       orient="auto"
       refY="0"
       refX="0"
       id="Arrow1Mend-5"
       style="overflow:visible">
      <path
         id="path7524-28"
         d="M 0,0 5,-5 -12.5,0 5,5 0,0 z"
         style="fill-rule:evenodd;stroke:#000000;stroke-width:1pt;marker-start:none"
         transform="matrix(-0.4,0,0,-0.4,-4,0)"
         inkscape:connector-curvature="0" />
    </marker>
    <marker
       inkscape:stockid="Dot_m"
       orient="auto"
       refY="0"
       refX="0"
       id="marker4772"
       style="overflow:visible">
      <path
         id="path4774"
         d="m -2.5,-1 c 0,2.76 -2.24,5 -5,5 -2.76,0 -5,-2.24 -5,-5 0,-2.76 2.24,-5 5,-5 2.76,0 5,2.24 5,5 z"
         style="fill-rule:evenodd;stroke:#000000;stroke-width:1pt;marker-start:none;marker-end:none"
         transform="matrix(0.4,0,0,0.4,2.96,0.4)"
         inkscape:connector-curvature="0" />
    </marker>
    <marker
       inkscape:stockid="Arrow1Mend"
       orient="auto"
       refY="0"
       refX="0"
       id="marker4776"
       style="overflow:visible">
      <path
         id="path4778"
         d="M 0,0 5,-5 -12.5,0 5,5 0,0 z"
         style="fill-rule:evenodd;stroke:#000000;stroke-width:1pt;marker-start:none"
         transform="matrix(-0.4,0,0,-0.4,-4,0)"
         inkscape:connector-curvature="0" />
    </marker>
    <marker
       inkscape:stockid="Arrow1Mend"
       orient="auto"
       refY="0"
       refX="0"
       id="marker4172-31"
       style="overflow:visible">
      <path
         id="path4174-8"
         d="M 0,0 5,-5 -12.5,0 5,5 0,0 z"
         style="fill-rule:evenodd;stroke:#000000;stroke-width:1pt;marker-start:none"
         transform="matrix(-0.4,0,0,-0.4,-4,0)"
         inkscape:connector-curvature="0" />
    </marker>
    <marker
       inkscape:stockid="Dot_m"
       orient="auto"
       refY="0"
       refX="0"
       id="Dot_m-0"
       style="overflow:visible">
      <path
         id="path7580-4"
         d="m -2.5,-1 c 0,2.76 -2.24,5 -5,5 -2.76,0 -5,-2.24 -5,-5 0,-2.76 2.24,-5 5,-5 2.76,0 5,2.24 5,5 z"
         style="fill-rule:evenodd;stroke:#000000;stroke-width:1pt;marker-start:none;marker-end:none"
         transform="matrix(0.4,0,0,0.4,2.96,0.4)"
         inkscape:connector-curvature="0" />
    </marker>
    <marker
       inkscape:stockid="Arrow1Mend"
       orient="auto"
       refY="0"
       refX="0"
       id="Arrow1Mend-83"
       style="overflow:visible">
      <path
         id="path7524-6"
         d="M 0,0 5,-5 -12.5,0 5,5 0,0 z"
         style="fill-rule:evenodd;stroke:#000000;stroke-width:1pt;marker-start:none"
         transform="matrix(-0.4,0,0,-0.4,-4,0)"
         inkscape:connector-curvature="0" />
    </marker>
    <marker
       inkscape:stockid="Dot_m"
       orient="auto"
       refY="0"
       refX="0"
       id="marker4855"
       style="overflow:visible">
      <path
         id="path4857"
         d="m -2.5,-1 c 0,2.76 -2.24,5 -5,5 -2.76,0 -5,-2.24 -5,-5 0,-2.76 2.24,-5 5,-5 2.76,0 5,2.24 5,5 z"
         style="fill-rule:evenodd;stroke:#000000;stroke-width:1pt;marker-start:none;marker-end:none"
         transform="matrix(0.4,0,0,0.4,2.96,0.4)"
         inkscape:connector-curvature="0" />
    </marker>
    <marker
       inkscape:stockid="Arrow1Mend"
       orient="auto"
       refY="0"
       refX="0"
       id="marker4859"
       style="overflow:visible">
      <path
         id="path4861"
         d="M 0,0 5,-5 -12.5,0 5,5 0,0 z"
         style="fill-rule:evenodd;stroke:#000000;stroke-width:1pt;marker-start:none"
         transform="matrix(-0.4,0,0,-0.4,-4,0)"
         inkscape:connector-curvature="0" />
    </marker>
    <marker
       inkscape:stockid="Arrow1Mend"
       orient="auto"
       refY="0"
       refX="0"
       id="marker4172-9"
       style="overflow:visible">
      <path
         id="path4174-46"
         d="M 0,0 5,-5 -12.5,0 5,5 0,0 z"
         style="fill-rule:evenodd;stroke:#000000;stroke-width:1pt;marker-start:none"
         transform="matrix(-0.4,0,0,-0.4,-4,0)"
         inkscape:connector-curvature="0" />
    </marker>
    <marker
       inkscape:stockid="Arrow1Mend"
       orient="auto"
       refY="0"
       refX="0"
       id="marker4172-2"
       style="overflow:visible">
      <path
         id="path4174-7"
         d="M 0,0 5,-5 -12.5,0 5,5 0,0 z"
         style="fill-rule:evenodd;stroke:#000000;stroke-width:1pt;marker-start:none"
         transform="matrix(-0.4,0,0,-0.4,-4,0)"
         inkscape:connector-curvature="0" />
    </marker>
  </defs>
  <sodipodi:namedview
     id="base"
     pagecolor="#ffffff"
     bordercolor="#666666"
     borderopacity="1.0"
     gridtolerance="10000"
     guidetolerance="10"
     objecttolerance="10"
     inkscape:pageopacity="0.0"
     inkscape:pageshadow="2"
     inkscape:zoom="1.4142136"
     inkscape:cx="140.68195"
     inkscape:cy="168.5389"
     inkscape:document-units="px"
     inkscape:current-layer="g7364"
     width="765px"
     height="990px"
     inkscape:window-width="1083"
     inkscape:window-height="746"
     inkscape:window-x="1581"
     inkscape:window-y="169"
     showgrid="false"
     inkscape:window-maximized="0"
     borderlayer="true"
     showguides="false"
     inkscape:guide-bbox="true"
     fit-margin-top="0"
     fit-margin-left="0"
     fit-margin-right="0"
     fit-margin-bottom="0"
     showborder="true"
     inkscape:showpageshadow="true">
    <sodipodi:guide
       position="161.3007,-33.124553"
       orientation="0,765"
       id="guide3038" />
    <sodipodi:guide
       position="558.69471,637.21268"
       orientation="-990,0"
       id="guide3040" />
    <sodipodi:guide
       position="796.69915,355.83468"
       orientation="0,-765"
       id="guide3042" />
    <sodipodi:guide
       position="51.699143,355.83468"
       orientation="990,0"
       id="guide3044" />
    <sodipodi:guide
       position="51.699143,-634.16532"
       orientation="0,765"
       id="guide3046" />
    <sodipodi:guide
       position="816.69915,-634.16532"
       orientation="-990,0"
       id="guide3048" />
    <sodipodi:guide
       position="816.69915,355.83468"
       orientation="0,-765"
       id="guide3050" />
    <sodipodi:guide
       position="51.699143,355.83468"
       orientation="990,0"
       id="guide3052" />
    <sodipodi:guide
       position="53.167893,-78.708686"
       orientation="0,478.375"
       id="guide7410" />
    <sodipodi:guide
       position="531.5429,-78.708686"
       orientation="-400,0"
       id="guide7412" />
    <sodipodi:guide
       position="531.5429,321.29131"
       orientation="0,-478.375"
       id="guide7414" />
    <sodipodi:guide
       position="53.167893,321.29131"
       orientation="400,0"
       id="guide7416" />
  </sodipodi:namedview>
  <metadata
     id="metadata5433">
    <rdf:RDF>
      <cc:Work
         rdf:about="">
        <dc:format>image/svg+xml</dc:format>
        <dc:type
           rdf:resource="http://purl.org/dc/dcmitype/StillImage" />
        <dc:title />
      </cc:Work>
    </rdf:RDF>
  </metadata>
  <g
     inkscape:label="Layer 1"
     inkscape:groupmode="layer"
     id="layer1"
     style="display:inline"
     transform="translate(51.699143,6.517676)" />
  <g
     inkscape:groupmode="layer"
     id="layer2"
     inkscape:label="pos"
     style="display:inline"
     transform="translate(51.699143,6.517676)">
    <g
       id="g2939"
       transform="translate(-49,-9)">
      <g
         id="g2890"
         transform="translate(97,-51)">
        <g
           id="g3093"
           transform="translate(0.70710678,41.147662)">
          <g
             id="g7364">
            <path
               sodipodi:type="arc"
               style="opacity:1;fill:none;stroke:#264a23;stroke-width:3.50000000000000000;stroke-miterlimit:4;stroke-opacity:1;stroke-dasharray:3.50000000000000000, 3.50000000000000000;stroke-dashoffset:0;marker-mid:none;display:inline"
               id="path3087-9"
               sodipodi:cx="-228.39548"
               sodipodi:cy="85.518967"
               sodipodi:rx="110.30865"
               sodipodi:ry="43.487064"
               d="m -118.15388,87.035018 c -2.12387,24.002642 -53.20244,42.781872 -114.08719,41.944582 -60.88475,-0.8373 -108.51986,-20.97404 -106.396,-44.976685 0.6361,-7.188863 5.78567,-14.203253 14.98739,-20.414787"
               transform="matrix(-1,0,0,-1,-152.58492,142.56668)"
               sodipodi:start="0.034869195"
               sodipodi:end="3.6701721"
               sodipodi:open="true" />
            <path
               sodipodi:nodetypes="cc"
               id="path2437-9-1-3-1"
               d="M 27.63982,226.78031 64.80999,194.98215"
               style="fill:none;stroke:#64aa77;stroke-width:2.5;stroke-linecap:butt;stroke-linejoin:miter;stroke-miterlimit:4;stroke-opacity:1;stroke-dasharray:none;marker-start:url(#Dot_m);marker-mid:none;marker-end:url(#Arrow1Mend);display:inline"
               inkscape:connector-curvature="0" />
            <g
               transform="translate(-2.3458195e-7,-2.1213203)"
               id="g5577" />
            <flowRoot
               transform="translate(-48.707107,18.852338)"
               style="display:inline"
               xml:space="preserve"
               id="flowRoot10639"><flowRegion
                 id="flowRegion10641"><rect
                   id="rect10643"
                   width="38.57832"
                   height="40.121452"
                   x="196.74944"
                   y="474.59363" /></flowRegion><flowPara
                 id="flowPara10645" /></flowRoot>            <path
               style="fill:none;stroke:#000000;stroke-width:1px;stroke-linecap:butt;stroke-linejoin:miter;stroke-opacity:1;display:inline"
               d="m -67.393727,293.31647 0,0 z"
               id="path5549"
               inkscape:connector-curvature="0" />
            <path
               sodipodi:nodetypes="cc"
               id="path2437-9-1-3"
               d="M 169.59431,80.988336 213.12844,70.403389"
               style="fill:none;stroke:#64aa77;stroke-width:2.5;stroke-linecap:butt;stroke-linejoin:miter;stroke-miterlimit:4;stroke-opacity:1;stroke-dasharray:none;marker-start:url(#Dot_m);marker-mid:none;marker-end:url(#Arrow1Mend);display:inline"
               inkscape:connector-curvature="0" />
            <path
               inkscape:connector-curvature="0"
               style="opacity:0.57777782000000000;fill:#ffffff;fill-opacity:1;fill-rule:evenodd;stroke:#000000;stroke-width:0.89260136999999984px;stroke-linecap:butt;stroke-linejoin:miter;stroke-opacity:1;display:inline"
               d="M 293.74394,352.57353 72.208149,299.49874 228.89575,61.077918 l 64.09876,9.254505 z"
               id="path2517"
               sodipodi:nodetypes="ccccc" />
            <g
               transform="matrix(0.9994916,-0.03188333,0.03188333,0.9994916,449.50151,-156.32895)"
               id="g8174"
               style="display:inline"
               inkscape:transform-center-x="-3.5355338"
               inkscape:transform-center-y="-28.991377">
              <g
                 inkscape:transform-center-y="7"
                 style="display:inline"
                 id="g2633"
                 transform="translate(-322.32985,-174.32304)">
                <text
                   transform="matrix(0.9985533,0.2989601,-0.2751624,0.919067,0,0)"
                   sodipodi:linespacing="100%"
                   id="text2635"
                   y="435.32031"
                   x="208.61148"
                   style="font-size:40px;font-style:italic;font-variant:normal;font-weight:normal;font-stretch:normal;text-align:start;line-height:100%;writing-mode:lr-tb;text-anchor:start;fill:#000000;fill-opacity:1;stroke:none;display:inline;font-family:Times New Roman;-inkscape-font-specification:'Times New Roman, Italic'"
                   xml:space="preserve"><tspan
                     id="tspan2637"
                     sodipodi:role="line"
                     x="208.61148"
                     y="435.32031">M</tspan></text>
              </g>
            </g>
            <text
               sodipodi:linespacing="125%"
               xml:space="preserve"
               style="font-size:28px;font-style:italic;font-variant:normal;font-weight:normal;font-stretch:normal;text-align:start;line-height:125%;writing-mode:lr-tb;text-anchor:start;fill:#000000;fill-opacity:1;stroke:none;display:inline;font-family:Times New Roman;-inkscape-font-specification:'Times New Roman, Italic'"
               x="235.79166"
               y="273.45132"
               id="text8424"
               transform="matrix(0.92451679,-5.0614001e-4,5.9214045e-4,1.0816458,0,0)"
               inkscape:transform-center-x="10.156555"
               inkscape:transform-center-y="-5.6568541"><tspan
                 sodipodi:role="line"
                 id="tspan8434"
                 x="235.79166"
                 y="273.45132">y'</tspan></text>
            <text
               sodipodi:linespacing="100%"
               xml:space="preserve"
               style="font-size:28px;font-style:italic;font-variant:normal;font-weight:normal;font-stretch:normal;text-align:start;line-height:100%;writing-mode:lr-tb;text-anchor:start;fill:#000000;fill-opacity:1;stroke:none;display:inline;font-family:Times New Roman;-inkscape-font-specification:'Times New Roman, Italic'"
               x="138.7066"
               y="316.05243"
               id="text8428"
               transform="matrix(0.92451679,-5.0614001e-4,5.9214045e-4,1.0816458,0,0)"
               inkscape:transform-center-x="17.677669"
               inkscape:transform-center-y="-23.334524"><tspan
                 sodipodi:role="line"
                 id="tspan8432"
                 x="138.7066"
                 y="316.05243">t'</tspan></text>
            <path
               sodipodi:type="arc"
               style="opacity:0.97345132000000001;fill:none;stroke:#acd0ad;stroke-width:3.5;stroke-miterlimit:4;stroke-opacity:1;stroke-dasharray:3.5,3.5;stroke-dashoffset:0;marker-mid:none;display:inline"
               id="path3087-9-4"
               sodipodi:cx="-228.39548"
               sodipodi:cy="85.518967"
               sodipodi:rx="97.580727"
               sodipodi:ry="54.093662"
               d="m -139.77424,108.16103 c -22.55779,27.13209 -80.52158,38.98979 -129.46574,26.48493 -48.94416,-12.50487 -70.33454,-44.636969 -47.77674,-71.769057 0.0607,-0.07303 0.12172,-0.145975 0.18302,-0.218849"
               transform="matrix(-1,0,0,-1,-115.34607,335.55082)"
               sodipodi:start="0.43187179"
               sodipodi:end="3.5779238"
               sodipodi:open="true" />
            <path
               inkscape:connector-curvature="0"
               style="opacity:0.73893804;fill:#cb3427;fill-opacity:1;fill-rule:evenodd;stroke:#5a2c2c;stroke-width:0.89260137px;stroke-linecap:butt;stroke-linejoin:miter;stroke-opacity:1;display:inline"
               d="M 229.0851,60.260076 70.942628,299.58764 -98.974362,260.65498 -99.971562,13.04177"
               id="path2517-5"
               sodipodi:nodetypes="cccc" />
            <text
               sodipodi:linespacing="100%"
               xml:space="preserve"
               style="font-size:28px;font-style:italic;font-variant:normal;font-weight:normal;font-stretch:normal;text-align:start;line-height:100%;writing-mode:lr-tb;text-anchor:start;fill:#000000;fill-opacity:1;stroke:none;display:inline;font-family:Times New Roman;-inkscape-font-specification:'Times New Roman, Italic'"
               x="155.74017"
               y="223.20401"
               id="text8418"
               transform="matrix(0.92451679,-5.0614001e-4,5.9214045e-4,1.0816458,0,0)"><tspan
                 sodipodi:role="line"
                 id="tspan5299"
                 x="155.74017"
                 y="223.20401">g y'</tspan></text>
            <path
               sodipodi:nodetypes="cc"
               id="path2437-9-1-39"
               d="m -35.892239,59.686161 -42.82702,33.919477"
               style="fill:none;stroke:#000000;stroke-width:2.5;stroke-linecap:butt;stroke-linejoin:miter;stroke-miterlimit:4;stroke-opacity:1;stroke-dasharray:none;marker-start:url(#Dot_m);marker-mid:none;marker-end:url(#Arrow1Mend);display:inline"
               inkscape:connector-curvature="0" />
            <path
               sodipodi:type="arc"
               style="fill:none;stroke:#1c1f33;stroke-width:3.5;stroke-miterlimit:4;stroke-opacity:1;stroke-dasharray:3.5, 3.5;stroke-dashoffset:0;marker-mid:url(#marker4172)"
               id="path3087"
               sodipodi:cx="-228.39548"
               sodipodi:cy="85.518967"
               sodipodi:rx="108.89442"
               sodipodi:ry="53.386559"
               d="m -164.25824,128.66297 c -48.60235,17.36599 -116.71755,12.12768 -152.13956,-11.70009 -22.50634,-15.13963 -27.17955,-34.954981 -12.31382,-52.21303"
               transform="matrix(0,-1,-1,0,91.053933,-102.1098)"
               sodipodi:start="0.94099341"
               sodipodi:end="3.541174"
               sodipodi:open="true" />
            <path
               sodipodi:type="arc"
               style="fill:none;stroke:#1c331e;stroke-width:3.50000000000000000;stroke-miterlimit:4;stroke-opacity:1;stroke-dasharray:3.50000000000000000, 3.50000000000000000;stroke-dashoffset:0;marker-mid:url(#marker4172);display:inline"
               id="path3087-8"
               sodipodi:cx="-228.39548"
               sodipodi:cy="85.518967"
               sodipodi:rx="101.82337"
               sodipodi:ry="56.214985"
               d="m -134.03194,64.39846 c 21.12821,28.77212 -3.99198,61.55251 -56.10752,73.21704 -52.11554,11.66453 -111.49134,-2.20391 -132.61955,-30.97603 -3.56578,-4.85582 -5.88436,-9.963029 -6.88842,-15.173322"
               transform="matrix(0,1,-1,0,262.74231,409.7652)"
               sodipodi:start="5.898023"
               sodipodi:end="9.3187861"
               sodipodi:open="true" />
            <path
               sodipodi:nodetypes="cc"
               id="path2437-9-1"
               d="m 197.27903,276.63995 -41.41281,33.91947"
               style="fill:none;stroke:#000000;stroke-width:2.5;stroke-linecap:butt;stroke-linejoin:miter;stroke-miterlimit:4;stroke-opacity:1;stroke-dasharray:none;marker-start:url(#Dot_m);marker-mid:none;marker-end:url(#Arrow1Mend);display:inline"
               inkscape:connector-curvature="0" />
          </g>
        </g>
      </g>
    </g>
  </g>
</svg>
