<?xml version="1.0" encoding="UTF-8" standalone="no"?>
<!-- Created with Inkscape (http://www.inkscape.org/) -->

<svg
   xmlns:dc="http://purl.org/dc/elements/1.1/"
   xmlns:cc="http://creativecommons.org/ns#"
   xmlns:rdf="http://www.w3.org/1999/02/22-rdf-syntax-ns#"
   xmlns:svg="http://www.w3.org/2000/svg"
   xmlns="http://www.w3.org/2000/svg"
   xmlns:sodipodi="http://sodipodi.sourceforge.net/DTD/sodipodi-0.dtd"
   xmlns:inkscape="http://www.inkscape.org/namespaces/inkscape"
   id="svg2"
   sodipodi:version="0.32"
   inkscape:version="0.48.1 "
   width="1134.8865"
   height="611.90363"
   version="1.0"
   sodipodi:docname="Conic_sections_with_plane.svg"
   inkscape:output_extension="org.inkscape.output.svg.inkscape">
  <metadata
     id="metadata7">
    <rdf:RDF>
      <cc:Work
         rdf:about="">
        <dc:format>image/svg+xml</dc:format>
        <dc:type
           rdf:resource="http://purl.org/dc/dcmitype/StillImage" />
        <dc:title></dc:title>
      </cc:Work>
    </rdf:RDF>
  </metadata>
  <defs
     id="defs5">
    <filter
       inkscape:collect="always"
       id="filter3612"
       x="-0.54787749"
       width="2.0957551"
       y="-0.072073944"
       height="1.1441479"
       color-interpolation-filters="sRGB">
      <feGaussianBlur
         inkscape:collect="always"
         stdDeviation="8.0711867"
         id="feGaussianBlur3614" />
    </filter>
    <filter
       inkscape:collect="always"
       id="filter3690"
       x="-0.27854717"
       width="1.5570943"
       y="-0.036643215"
       height="1.0732864"
       color-interpolation-filters="sRGB">
      <feGaussianBlur
         inkscape:collect="always"
         stdDeviation="4.1034835"
         id="feGaussianBlur3692" />
    </filter>
    <clipPath
       clipPathUnits="userSpaceOnUse"
       id="clipPath3700">
      <path
         transform="translate(-2.036405,82.1825)"
         d="m 112.0098,-508.3125 a 118.2598,49.785213 0 1 1 -236.5196,0 118.2598,49.785213 0 1 1 236.5196,0 z"
         sodipodi:ry="49.785213"
         sodipodi:rx="118.2598"
         sodipodi:cy="-508.3125"
         sodipodi:cx="-6.25"
         id="path3702"
         style="fill:#17313b;fill-opacity:1;fill-rule:evenodd;stroke:none"
         sodipodi:type="arc" />
    </clipPath>
    <filter
       inkscape:collect="always"
       id="filter3766"
       x="-0.3107174"
       width="1.6214348"
       y="-0.11512245"
       height="1.2302449"
       color-interpolation-filters="sRGB">
      <feGaussianBlur
         inkscape:collect="always"
         stdDeviation="9.0404419"
         id="feGaussianBlur3768" />
    </filter>
    <clipPath
       clipPathUnits="userSpaceOnUse"
       id="clipPath3772">
      <path
         sodipodi:nodetypes="ccc"
         d="M 42.835522,-413.51642 -8.3824484,-225.047 -59.756062,-413.51642"
         style="fill:#0a151a;fill-opacity:1;fill-rule:evenodd;stroke:none"
         id="path3774"
         inkscape:connector-curvature="0" />
    </clipPath>
    <filter
       inkscape:collect="always"
       id="filter3830"
       x="-0.43305343"
       width="1.8661067"
       y="-0.069650091"
       height="1.1393002"
       color-interpolation-filters="sRGB">
      <feGaussianBlur
         inkscape:collect="always"
         stdDeviation="9.9934576"
         id="feGaussianBlur3832" />
    </filter>
    <clipPath
       clipPathUnits="userSpaceOnUse"
       id="clipPath3838">
      <path
         id="path3840"
         d="m -8.28125,-225.0625 -114.78125,188.5 0.34375,0 c -2.49317,4.022346 -3.8125,8.244081 -3.8125,12.59375 0,27.4814385 52.970588,49.78125 118.25,49.78125 65.279411,1e-6 118.25,-22.2998122 118.25,-49.78125 0,-4.349669 -1.31933,-8.571404 -3.8125,-12.59375 l -114.4375,-188.5 z"
         style="fill:#0b181d;fill-opacity:1;fill-rule:evenodd;stroke:none"
         inkscape:connector-curvature="0" />
    </clipPath>
    <clipPath
       clipPathUnits="userSpaceOnUse"
       id="clipPath3842">
      <path
         id="path3844"
         d="m -8.2812501,-225.0625 -38.2056499,188.5 0.114419,0 c -0.829867,4.022346 -1.269014,8.244081 -1.269014,12.59375 0,27.4814385 17.631588,49.78125 39.3602449,49.78125 21.7286561,1e-6 39.3602451,-22.2998122 39.3602451,-49.78125 0,-4.349669 -0.439147,-8.571404 -1.269014,-12.59375 l -38.0912311,-188.5 z"
         style="fill:#0b181d;fill-opacity:1;fill-rule:evenodd;stroke:none"
         inkscape:connector-curvature="0" />
    </clipPath>
  </defs>
  <sodipodi:namedview
     inkscape:window-height="968"
     inkscape:window-width="1280"
     inkscape:pageshadow="2"
     inkscape:pageopacity="0.0"
     guidetolerance="10.0"
     gridtolerance="10.0"
     objecttolerance="10.0"
     borderopacity="1.0"
     bordercolor="#666666"
     pagecolor="#ffffff"
     id="base"
     inkscape:zoom="0.7071068"
     inkscape:cx="609.44267"
     inkscape:cy="135.699"
     inkscape:window-x="1492"
     inkscape:window-y="87"
     inkscape:current-layer="g4138"
     showgrid="false"
     showguides="true"
     inkscape:guide-bbox="true"
     fit-margin-top="0"
     fit-margin-left="0"
     fit-margin-right="0"
     fit-margin-bottom="0"
     inkscape:window-maximized="0" />
  <g
     id="g4138"
     transform="translate(0,-64)">
    <g
       id="g3046">
      <g
         id="g4073"
         transform="translate(1055.1189,-756.71686)">
        <path
           style="fill:#0b181d;fill-opacity:1;fill-rule:evenodd;stroke:none"
           d="m -438.70959,1150.8337 -114.78125,188.5 0.34375,0 c -2.49317,4.0223 -3.8125,8.244 -3.8125,12.5937 0,27.4815 52.97059,49.7813 118.25,49.7813 65.27941,0 118.25,-22.2998 118.25,-49.7813 0,-4.3497 -1.31933,-8.5714 -3.8125,-12.5937 l -114.4375,-188.5 z"
           id="path3921"
           inkscape:connector-curvature="0" />
        <path
           style="fill:#2e6074;fill-opacity:1;fill-rule:evenodd;stroke:none;filter:url(#filter3830)"
           d="m -8.28125,-225.0625 -26.879758,258.737444 0.0805,0 c -0.583857,5.521123 -0.892821,11.315929 -0.892821,17.286338 0,37.721365 12.404784,68.330368 27.692078,68.330368 15.2872942,0 27.692078,-30.609004 27.692078,-68.330368 0,-5.970409 -0.308964,-11.765215 -0.892821,-17.286338 L -8.28125,-225.0625 z"
           id="path3923"
           transform="matrix(3.0043004,0,0,1,-413.83023,1375.8962)"
           clip-path="url(#clipPath3842)"
           inkscape:connector-curvature="0" />
        <path
           id="path3927"
           d="m -8.28125,-225.0625 -26.879758,258.737444 0.0805,0 c -0.583857,5.521123 -0.892821,11.315929 -0.892821,17.286338 0,37.721365 12.404784,68.330368 27.692078,68.330368 15.2872942,0 27.692078,-30.609004 27.692078,-68.330368 0,-5.970409 -0.308964,-11.765215 -0.892821,-17.286338 L -8.28125,-225.0625 z"
           style="fill:#ffffff;fill-opacity:0.64534882;fill-rule:evenodd;stroke:none;filter:url(#filter3830)"
           clip-path="url(#clipPath3838)"
           transform="translate(-430.42834,1375.8962)"
           inkscape:connector-curvature="0" />
        <path
           id="path3929"
           style="fill:#0a151a;fill-opacity:1;fill-rule:evenodd;stroke:none"
           d="M -324.28665,962.37975 -438.71474,1150.8492 -553.49057,962.37975"
           sodipodi:nodetypes="ccc"
           inkscape:connector-curvature="0" />
        <path
           sodipodi:nodetypes="ccc"
           d="M 26.45419,-413.51642 -8.4073006,-225.047 -43.37473,-413.51642"
           style="fill:#1d3b47;fill-opacity:1;fill-rule:evenodd;stroke:none;filter:url(#filter3766)"
           id="path3931"
           transform="matrix(2.2341396,0,0,1,-419.98718,1375.8962)"
           clip-path="url(#clipPath3772)"
           inkscape:connector-curvature="0" />
        <path
           sodipodi:type="arc"
           style="fill:#17313b;fill-opacity:1;fill-rule:evenodd;stroke:none"
           id="path3933"
           sodipodi:cx="-6.25"
           sodipodi:cy="-508.3125"
           sodipodi:rx="118.2598"
           sodipodi:ry="49.785213"
           d="m 112.0098,-508.3125 c 0,27.49561 -52.946714,49.78521 -118.2598,49.78521 -65.313086,0 -118.2598,-22.2896 -118.2598,-49.78521 0,-27.49561 52.946714,-49.78521 118.2598,-49.78521 65.313086,0 118.2598,22.2896 118.2598,49.78521 z"
           transform="translate(-432.46474,1458.0787)" />
        <g
           id="g3935"
           clip-path="url(#clipPath3700)"
           transform="translate(-430.42834,1375.8962)">
          <path
             sodipodi:nodetypes="ccc"
             d="M 9.217814,-525.7241 -8.4334502,-256.96056 -26.138354,-525.7241"
             style="fill:#2e6074;fill-opacity:1;fill-rule:evenodd;stroke:none;filter:url(#filter3690)"
             id="path3937"
             transform="matrix(5.4193138,0,0,1,37.388588,0)"
             inkscape:connector-curvature="0" />
          <path
             transform="matrix(1.6187039,0,0,1,5.2344023,0)"
             id="path3939"
             style="fill:#ffffff;fill-opacity:0.75;fill-rule:evenodd;stroke:none;filter:url(#filter3612)"
             d="M 9.217814,-525.7241 -8.4334502,-256.96056 -26.138354,-525.7241"
             sodipodi:nodetypes="ccc"
             inkscape:connector-curvature="0" />
        </g>
        <path
           id="rect3943"
           d="m -385.3125,1159.0938 -42.1875,10.2187 42.46875,70 c 3.27357,3.082 5.125,6.47 5.125,10.0625 0,13.6672 -26.34731,24.7813 -58.8125,24.7812 -32.46517,0 -58.81249,-11.1139 -58.8125,-24.7812 0,-3.4463 1.69254,-6.7052 4.71875,-9.6875 l 0.0312,-0.062 38.9375,-63.9375 -187.59375,45.375 148.71875,144.2187 256.125,-61.9374 -148.71875,-144.25 z m -68.09375,66.3124 c -1.87753,0.2026 -3.73114,0.4421 -5.53125,0.7188 1.80131,-0.2778 3.65251,-0.5151 5.53125,-0.7188 z m 29.375,0 c 1.87874,0.2037 3.72994,0.441 5.53125,0.7188 -1.80011,-0.2767 -3.65372,-0.5162 -5.53125,-0.7188 z m -40.625,1.75 c -2.40547,0.4981 -4.73359,1.0606 -6.9375,1.6876 2.21183,-0.6293 4.52566,-1.1875 6.9375,-1.6876 z m -6.9375,1.6876 c -1.56453,0.445 -3.08317,0.931 -4.53125,1.4374 1.45254,-0.5047 2.96671,-0.9924 4.53125,-1.4374 z m 58.8125,-1.6876 c 2.41184,0.5001 4.72567,1.0583 6.9375,1.6876 -2.20391,-0.6271 -4.53203,-1.1895 -6.9375,-1.6876 z m 6.9375,1.6876 c 1.56454,0.445 3.07871,0.9327 4.53125,1.4374 -1.45589,-0.5064 -2.96672,-0.9924 -4.53125,-1.4374 z m 8.71875,3.0312 c 1.33066,0.5602 2.58235,1.1385 3.78125,1.75 -1.1927,-0.6049 -2.45958,-1.1936 -3.78125,-1.75 z"
           style="fill:#0000ff;fill-opacity:0.26842107;fill-rule:evenodd;stroke:none"
           inkscape:connector-curvature="0" />
        <path
           inkscape:transform-center-y="99.516896"
           transform="matrix(0.4973264,0,0,-0.4973264,-435.60645,996.58967)"
           d="m 112.0098,-508.3125 c 0,27.49561 -52.946714,49.78521 -118.2598,49.78521 -65.313086,0 -118.2598,-22.2896 -118.2598,-49.78521 0,-27.49561 52.946714,-49.78521 118.2598,-49.78521 65.313086,0 118.2598,22.2896 118.2598,49.78521 z"
           sodipodi:ry="49.785213"
           sodipodi:rx="118.2598"
           sodipodi:cy="-508.3125"
           sodipodi:cx="-6.25"
           id="path3947"
           style="fill:none;stroke:#00ffff;stroke-width:2;stroke-linecap:round;stroke-linejoin:round;stroke-miterlimit:4;stroke-opacity:1;stroke-dasharray:none;stroke-dashoffset:0"
           sodipodi:type="arc" />
        <path
           id="rect3964"
           d="M -308.90625,899.59375 -339.25,922.875 c 11.87249,7.76061 18.78125,16.99567 18.78125,26.90625 0,4.35072 -1.31817,8.57053 -3.8125,12.59375 l -49.5625,81.625 c 0.0406,-0.071 0.0547,-0.1481 0.0937,-0.2188 -6.7964,12.1544 -27.64731,27.3391 -52.3125,37.125 -26.97484,10.7024 -49.39,11.3392 -53.84375,2.2813 l -21.75,-35.6875 -81.21875,62.3438 63.4375,94.9687 274,-210.21875 -63.46875,-95 z M -381.5,1026.9062 c 0.41182,0.08 0.82927,0.1543 1.21875,0.25 -0.39116,-0.097 -0.80504,-0.169 -1.21875,-0.25 z m 4.125,1.1876 c 0.388,0.1649 0.77196,0.3754 1.125,0.5624 -0.35871,-0.1916 -0.73001,-0.394 -1.125,-0.5624 z m 1.15625,0.5624 c 0.36157,0.1927 0.70763,0.3777 1.03125,0.5938 -0.31842,-0.2135 -0.676,-0.4029 -1.03125,-0.5938 z m 2.9375,2.2813 c 0.15178,0.1765 0.27218,0.376 0.40625,0.5625 -0.13366,-0.1865 -0.25495,-0.3859 -0.40625,-0.5625 z m 1.1875,1.8437 c 0.10287,0.2288 0.16963,0.478 0.25,0.7188 -0.0813,-0.2436 -0.14569,-0.4873 -0.25,-0.7188 z m 0.59375,2.1876 c 0.0532,0.3949 0.0937,0.7969 0.0937,1.2187 0,-0.421 -0.0407,-0.8245 -0.0937,-1.2187 z"
           style="fill:#0000ff;fill-opacity:0.26842107;fill-rule:evenodd;stroke:none"
           inkscape:connector-curvature="0" />
        <path
           transform="matrix(0.4622562,-0.1834011,0,0.4622562,-423.17375,1291.7115)"
           d="m 112.0098,-508.3125 c 0,27.49561 -52.946714,49.78521 -118.2598,49.78521 -65.313086,0 -118.2598,-22.2896 -118.2598,-49.78521 0,-27.49561 52.946714,-49.78521 118.2598,-49.78521 65.313086,0 118.2598,22.2896 118.2598,49.78521 z"
           sodipodi:ry="49.785213"
           sodipodi:rx="118.2598"
           sodipodi:cy="-508.3125"
           sodipodi:cx="-6.25"
           id="path3962"
           style="fill:none;stroke:#00ffff;stroke-width:2;stroke-linecap:round;stroke-linejoin:round;stroke-miterlimit:4;stroke-opacity:1;stroke-dasharray:none;stroke-dashoffset:0"
           sodipodi:type="arc" />
      </g>
      <g
         id="g4060"
         transform="translate(673.9806,13.98501)">
        <path
           id="path3778"
           d="m -438.70959,379.63072 -114.78125,188.5 0.34375,0 c -2.49317,4.02235 -3.8125,8.24408 -3.8125,12.59375 0,27.48144 52.97059,49.78125 118.25,49.78125 65.27941,0 118.25,-22.29981 118.25,-49.78125 0,-4.34967 -1.31933,-8.5714 -3.8125,-12.59375 l -114.4375,-188.5 z"
           style="fill:#0b181d;fill-opacity:1;fill-rule:evenodd;stroke:none"
           inkscape:connector-curvature="0" />
        <path
           clip-path="url(#clipPath3842)"
           transform="matrix(3.0043004,0,0,1,-413.83023,604.69322)"
           id="path3834"
           d="m -8.28125,-225.0625 -26.879758,258.737444 0.0805,0 c -0.583857,5.521123 -0.892821,11.315929 -0.892821,17.286338 0,37.721365 12.404784,68.330368 27.692078,68.330368 15.2872942,0 27.692078,-30.609004 27.692078,-68.330368 0,-5.970409 -0.308964,-11.765215 -0.892821,-17.286338 L -8.28125,-225.0625 z"
           style="fill:#2e6074;fill-opacity:1;fill-rule:evenodd;stroke:none;filter:url(#filter3830)"
           inkscape:connector-curvature="0" />
        <path
           sodipodi:nodetypes="cccccccsccc"
           id="path3919"
           d="m -545.35069,123.42857 -128.62991,98.16913 238.88685,423.6523 22.25,-17.84375 C -476.48413,516.69526 -488.77771,446.29912 -469.0625,429.46875 L -438.71875,379.625 -341,540.65625 c 0.0494,0.0765 0.10684,0.14212 0.15625,0.21875 3.95817,6.13797 7.94144,12.52889 12,19.1875 l 17.19241,-20.13788 -233.69935,-416.49605 z"
           style="fill:#0000ff;fill-opacity:0.26842107;fill-rule:evenodd;stroke:none"
           inkscape:connector-curvature="0" />
        <path
           transform="translate(-430.42834,604.69322)"
           clip-path="url(#clipPath3838)"
           style="fill:#ffffff;fill-opacity:0.64534882;fill-rule:evenodd;stroke:none;filter:url(#filter3830)"
           d="m -8.28125,-225.0625 -26.879758,258.737444 0.0805,0 c -0.583857,5.521123 -0.892821,11.315929 -0.892821,17.286338 0,37.721365 12.404784,68.330368 27.692078,68.330368 15.2872942,0 27.692078,-30.609004 27.692078,-68.330368 0,-5.970409 -0.308964,-11.765215 -0.892821,-17.286338 L -8.28125,-225.0625 z"
           id="path3792"
           inkscape:connector-curvature="0" />
        <path
           sodipodi:nodetypes="ccc"
           d="M -324.28665,191.1768 -438.71474,379.64622 -553.49057,191.1768"
           style="fill:#0a151a;fill-opacity:1;fill-rule:evenodd;stroke:none"
           id="path3509"
           inkscape:connector-curvature="0" />
        <path
           clip-path="url(#clipPath3772)"
           transform="matrix(2.2341396,0,0,1,-419.98718,604.69322)"
           id="path3704"
           style="fill:#1d3b47;fill-opacity:1;fill-rule:evenodd;stroke:none;filter:url(#filter3766)"
           d="M 26.45419,-413.51642 -8.4073006,-225.047 -43.37473,-413.51642"
           sodipodi:nodetypes="ccc"
           inkscape:connector-curvature="0" />
        <path
           transform="translate(-432.46474,686.87572)"
           d="m 112.0098,-508.3125 c 0,27.49561 -52.946714,49.78521 -118.2598,49.78521 -65.313086,0 -118.2598,-22.2896 -118.2598,-49.78521 0,-27.49561 52.946714,-49.78521 118.2598,-49.78521 65.313086,0 118.2598,22.2896 118.2598,49.78521 z"
           sodipodi:ry="49.785213"
           sodipodi:rx="118.2598"
           sodipodi:cy="-508.3125"
           sodipodi:cx="-6.25"
           id="path3524"
           style="fill:#17313b;fill-opacity:1;fill-rule:evenodd;stroke:none"
           sodipodi:type="arc" />
        <g
           transform="translate(-430.42834,604.69322)"
           clip-path="url(#clipPath3700)"
           id="g3694">
          <path
             transform="matrix(5.4193138,0,0,1,37.388588,0)"
             id="path3616"
             style="fill:#2e6074;fill-opacity:1;fill-rule:evenodd;stroke:none;filter:url(#filter3690)"
             d="M 9.217814,-525.7241 -8.4334502,-256.96056 -26.138354,-525.7241"
             sodipodi:nodetypes="ccc"
             inkscape:connector-curvature="0" />
          <path
             sodipodi:nodetypes="ccc"
             d="M 9.217814,-525.7241 -8.4334502,-256.96056 -26.138354,-525.7241"
             style="fill:#ffffff;fill-opacity:0.75;fill-rule:evenodd;stroke:none;filter:url(#filter3612)"
             id="path3542"
             transform="matrix(1.6187039,0,0,1,5.2344023,0)"
             inkscape:connector-curvature="0" />
        </g>
        <path
           sodipodi:nodetypes="cc"
           id="path3887"
           d="M -328.64768,560.38355 C -460.52452,343.83313 -542.01771,403.66624 -411.90255,629.0323"
           style="fill:none;stroke:#00ffff;stroke-width:2;stroke-linecap:butt;stroke-linejoin:miter;stroke-miterlimit:4;stroke-opacity:1;stroke-dasharray:none"
           inkscape:connector-curvature="0" />
      </g>
      <g
         id="g4088"
         transform="translate(915.11177,-758.0625)">
        <path
           id="path4004"
           d="m 101.51999,1150.8337 -114.781252,188.5 0.34375,0 c -2.49317,4.0223 -3.8125,8.244 -3.8125,12.5937 0,27.4815 52.97059,49.7813 118.250002,49.7813 65.27941,0 118.25,-22.2998 118.25,-49.7813 0,-4.3497 -1.31933,-8.5714 -3.8125,-12.5937 l -114.4375,-188.5 z"
           style="fill:#0b181d;fill-opacity:1;fill-rule:evenodd;stroke:none"
           inkscape:connector-curvature="0" />
        <path
           clip-path="url(#clipPath3842)"
           transform="matrix(3.0043004,0,0,1,126.39935,1375.8962)"
           id="path4006"
           d="m -8.28125,-225.0625 -26.879758,258.737444 0.0805,0 c -0.583857,5.521123 -0.892821,11.315929 -0.892821,17.286338 0,37.721365 12.404784,68.330368 27.692078,68.330368 15.2872942,0 27.692078,-30.609004 27.692078,-68.330368 0,-5.970409 -0.308964,-11.765215 -0.892821,-17.286338 L -8.28125,-225.0625 z"
           style="fill:#2e6074;fill-opacity:1;fill-rule:evenodd;stroke:none;filter:url(#filter3830)"
           inkscape:connector-curvature="0" />
        <path
           transform="translate(109.80124,1375.8962)"
           clip-path="url(#clipPath3838)"
           style="fill:#ffffff;fill-opacity:0.64534882;fill-rule:evenodd;stroke:none;filter:url(#filter3830)"
           d="m -8.28125,-225.0625 -26.879758,258.737444 0.0805,0 c -0.583857,5.521123 -0.892821,11.315929 -0.892821,17.286338 0,37.721365 12.404784,68.330368 27.692078,68.330368 15.2872942,0 27.692078,-30.609004 27.692078,-68.330368 0,-5.970409 -0.308964,-11.765215 -0.892821,-17.286338 L -8.28125,-225.0625 z"
           id="path4008"
           inkscape:connector-curvature="0" />
        <path
           sodipodi:nodetypes="ccc"
           d="M 215.94293,962.37975 101.51484,1150.8492 -13.260992,962.37975"
           style="fill:#0a151a;fill-opacity:1;fill-rule:evenodd;stroke:none"
           id="path4010"
           inkscape:connector-curvature="0" />
        <path
           clip-path="url(#clipPath3772)"
           transform="matrix(2.2341396,0,0,1,120.2424,1375.8962)"
           id="path4012"
           style="fill:#1d3b47;fill-opacity:1;fill-rule:evenodd;stroke:none;filter:url(#filter3766)"
           d="M 26.45419,-413.51642 -8.4073006,-225.047 -43.37473,-413.51642"
           sodipodi:nodetypes="ccc"
           inkscape:connector-curvature="0" />
        <path
           transform="translate(107.76484,1458.0787)"
           d="m 112.0098,-508.3125 c 0,27.49561 -52.946714,49.78521 -118.2598,49.78521 -65.313086,0 -118.2598,-22.2896 -118.2598,-49.78521 0,-27.49561 52.946714,-49.78521 118.2598,-49.78521 65.313086,0 118.2598,22.2896 118.2598,49.78521 z"
           sodipodi:ry="49.785213"
           sodipodi:rx="118.2598"
           sodipodi:cy="-508.3125"
           sodipodi:cx="-6.25"
           id="path4014"
           style="fill:#17313b;fill-opacity:1;fill-rule:evenodd;stroke:none"
           sodipodi:type="arc" />
        <g
           transform="translate(109.80124,1375.8962)"
           clip-path="url(#clipPath3700)"
           id="g4016">
          <path
             transform="matrix(5.4193138,0,0,1,37.388588,0)"
             id="path4018"
             style="fill:#2e6074;fill-opacity:1;fill-rule:evenodd;stroke:none;filter:url(#filter3690)"
             d="M 9.217814,-525.7241 -8.4334502,-256.96056 -26.138354,-525.7241"
             sodipodi:nodetypes="ccc"
             inkscape:connector-curvature="0" />
          <path
             sodipodi:nodetypes="ccc"
             d="M 9.217814,-525.7241 -8.4334502,-256.96056 -26.138354,-525.7241"
             style="fill:#ffffff;fill-opacity:0.75;fill-rule:evenodd;stroke:none;filter:url(#filter3612)"
             id="path4020"
             transform="matrix(1.6187039,0,0,1,5.2344023,0)"
             inkscape:connector-curvature="0" />
        </g>
        <path
           sodipodi:nodetypes="ccccccccc"
           id="rect4030"
           d="m 202.8125,822.0625 -102.78671,115.09111 0,496.81249 30.66171,-34.3411 c 0,-60.3724 -7.98378,-205.915 72.125,-83.4062 l 0,-494.1563 z M 202,982 c -46,91 -69,88 -70,17 l 70,-17 z"
           style="fill:#0000ff;fill-opacity:0.26842107;fill-rule:evenodd;stroke:none"
           inkscape:connector-curvature="0" />
        <path
           id="path4047"
           d="m 130.69893,1399.624 c 0,-60.624 -8.06261,-207.163 73.11923,-81.8935"
           style="fill:none;stroke:#00ffff;stroke-width:1px;stroke-linecap:butt;stroke-linejoin:miter;stroke-opacity:1"
           inkscape:connector-curvature="0" />
        <path
           id="path4049"
           d="m 132,999 c 1,71 24,74 70,-17"
           style="fill:none;stroke:#00ffff;stroke-width:1px;stroke-linecap:butt;stroke-linejoin:miter;stroke-opacity:1"
           inkscape:connector-curvature="0" />
      </g>
    </g>
  </g>
</svg>
