<?xml version="1.0" encoding="UTF-8" standalone="no"?>
<svg
   xmlns:dc="http://purl.org/dc/elements/1.1/"
   xmlns:cc="http://creativecommons.org/ns#"
   xmlns:rdf="http://www.w3.org/1999/02/22-rdf-syntax-ns#"
   xmlns:svg="http://www.w3.org/2000/svg"
   xmlns="http://www.w3.org/2000/svg"
   xmlns:sodipodi="http://sodipodi.sourceforge.net/DTD/sodipodi-0.dtd"
   xmlns:inkscape="http://www.inkscape.org/namespaces/inkscape"
   version="1.1"
   width="1906.9856"
   height="1337.3885"
   viewBox="0 0 1906.9856 1337.3885"
   id="svg2"
   inkscape:version="0.48.4 r9939"
   sodipodi:docname="vectors.svg">
  <metadata
     id="metadata125">
    <rdf:RDF>
      <cc:Work
         rdf:about="">
        <dc:format>image/svg+xml</dc:format>
        <dc:type
           rdf:resource="http://purl.org/dc/dcmitype/StillImage" />
      </cc:Work>
    </rdf:RDF>
  </metadata>
  <defs
     id="defs123" />
  <sodipodi:namedview
     pagecolor="#ffffff"
     bordercolor="#666666"
     borderopacity="1"
     objecttolerance="10"
     gridtolerance="10"
     guidetolerance="10"
     inkscape:pageopacity="0"
     inkscape:pageshadow="2"
     inkscape:window-width="1920"
     inkscape:window-height="1057"
     id="namedview121"
     showgrid="false"
     fit-margin-top="0"
     fit-margin-left="0"
     fit-margin-right="0"
     fit-margin-bottom="0"
     inkscape:zoom="0.31598834"
     inkscape:cx="1169.5266"
     inkscape:cy="557.14693"
     inkscape:window-x="-8"
     inkscape:window-y="-8"
     inkscape:window-maximized="1"
     inkscape:current-layer="layer1" />
  <g
     id="layer1"
     transform="translate(-227.02154,36.670865)">
    <path
       style="fill:#1e61e8;fill-opacity:0.99607843;stroke-linejoin:miter"
       inkscape:connector-curvature="0"
       id="path7"
       d="m 762.7018,1015.4781 -0.0255,0 0.008,0 q -0.069,0.5061 -0.006,1.0668 -0.0434,-0.5404 0.0316,-1.0712 z" />
    <path
       style="fill:#1e61e8;fill-opacity:1;stroke-linejoin:miter"
       sodipodi:nodetypes="ccscccccccccccccccccccccccccccccccccccccccccccccccccccc"
       inkscape:connector-curvature="0"
       id="path11"
       d="m 2095.3628,186.65462 c -15.2917,1.92774 -12.1307,7.81894 -31.658,12.9266 -87.0367,23.66142 -150.8501,53.56886 -192.011,93.57185 -88.1875,85.70663 -95.2109,128.0444 -102.8234,174.72889 -0.4807,15.42883 2.0878,29.23457 7.7055,41.41724 29.6391,49.87398 48.6375,86.92501 56.9954,111.1531 6.5643,18.9678 7.2704,37.67603 2.1182,56.1247 -5.4452,58.96433 -39.8606,109.53833 -103.2461,151.722 -13.5612,6.09393 -29.048,7.96005 -46.4605,5.59834 L 1520.1636,802.3545 c -13.7959,-4.12867 -27.1298,-10.6017 -40.0017,-19.4191 -29.955,-30.49847 -48.8543,-46.9648 -56.6978,-49.399 -16.7657,-9.15993 -34.0548,-15.34862 -51.8675,-18.56606 -79.5845,-11.44616 -146.4754,-10.54532 -200.6726,2.70251 -18.6783,5.8013 -34.7806,14.84395 -48.3069,27.12795 l -81.7779,94.2416 c -16.2092,21.42229 -25.2451,62.89183 -27.1076,124.4086 -4.4084,13.56553 -11.4568,23.23258 -21.1452,29.00115 -4.88304,3.25761 -11.40964,5.83858 -19.5798,7.74295 -36.24733,2.8703 -61.277,7.8571 -75.089,14.9602 -10.06007,2.2977 -30.43238,17.3104 -61.11694,45.0382 -12.79177,6.9265 -25.48933,11.4891 -38.09266,13.6878 -8.96453,2.337 -27.26133,3.7121 -54.8904,4.1254 -61.098,1.9422 -142.45417,3.5719 -244.06852,4.8892 -20.28475,1.1255 -38.3245,4.9999 -54.11926,11.6234 -103.60021,71.5421 -145.95584,134.931 -127.06689,190.1667 2.76813,1.1063 4.88018,-0.424 6.33615,-4.591 0.068,-20.5567 2.4492,-38.1134 7.14349,-52.6703 3.13825,-10.4603 8.09958,-20.4626 14.884,-30.007 l 74.94613,-76.2961 c 9.1802,-8.2368 19.12335,-14.4028 29.82945,-18.4979 12.3953,-5.3572 29.36789,-8.713 50.91778,-10.0673 204.32308,-2.9483 302.6024,-5.7707 294.83797,-8.4672 15.53071,-2.4709 30.59528,-7.7855 45.1937,-15.9439 30.53933,-27.8239 50.97593,-42.7876 61.3098,-44.8909 15.7108,-6.7829 39.67048,-11.3041 71.87905,-13.5636 7.22877,-1.3078 14.84897,-4.315 22.8606,-9.0216 11.33625,-6.93323 19.42335,-17.97572 24.26135,-33.12745 2.8905,-65.11683 11.4082,-105.88935 25.5532,-122.31755 l 79.7387,-92.274 c 10.6941,-10.60427 25.7059,-19.1839 45.0354,-25.7389 49.9952,-12.89727 115.5002,-13.76545 196.515,-2.60455 17.8757,3.22823 34.9735,9.53473 51.2933,18.9195 l 53.8878,47.76645 c 11.6594,8.37807 26.0969,15.29505 43.3124,20.75094 l 165.8632,31.49876 c 25.1697,2.53037 44.0826,-0.39303 56.7386,-8.7702 49.0927,-41.7008 74.2255,-66.43285 75.3986,-74.19615 10.0715,-13.42377 20.7303,-45.76172 31.9764,-97.01385 2.162,-16.73804 -0.8946,-35.63364 -9.1697,-56.6868 l -58.6955,-117.45316 c -4.8683,-19.99959 -0.3084,-43.79004 13.6797,-71.37134 36.6303,-104.79315 147.9501,-186.46439 268.2925,-209.41112 23.4304,-7.10234 11.4732,2.12366 32.169,-0.80407 l 39.4561,-13.07444" />
    <path
       style="fill:#fa5422;fill-opacity:1;stroke-linejoin:miter"
       inkscape:connector-curvature="0"
       id="path15"
       d="m 1028.467,778.42656 q -3.6705,-0.72322 -5.5862,2.39351 L 894.20441,1010.9585 q -2.17009,4.9609 2.88024,7.2397 3.64636,0.7407 5.57165,-2.2755 l 128.8776,-230.50193 q 1.8179,-4.8698 -2.9771,-6.96893" />
    <path
       style="fill:#fa5422;fill-opacity:1;stroke-linejoin:miter"
       inkscape:connector-curvature="0"
       id="path23"
       d="m 552.75946,813.35898 q -3.53622,1.16501 -3.66996,4.85957 l 2.05056,263.59935 q 0.72262,5.6165 6.16445,4.886 3.54328,-1.1786 3.6353,-4.9209 l -2.05242,-263.60215 q -0.84857,-5.53156 -6.02882,-4.8452" />
    <path
       style="fill:#fa5422;fill-opacity:1;stroke-linejoin:miter"
       inkscape:connector-curvature="0"
       id="path27"
       d="m 1909.7737,396.67096 q -3.709,0.24231 -4.7657,3.77771 l -63.9018,255.60498 q -0.7502,5.82485 4.6846,6.4104 3.7185,-0.22888 4.7646,-3.80835 l 63.9002,-255.60132 q 0.6333,-5.83014 -4.5689,-6.37982" />
    <path
       style="fill:#fa5422;fill-opacity:1;stroke-linejoin:miter"
       inkscape:connector-curvature="0"
       id="path31"
       d="m 745.66874,833.80189 q -3.71316,-0.19685 -5.17911,3.19451 l -93.43599,245.9794 q -1.72048,5.8939 3.68381,7.2132 3.96062,0.2324 5.32683,-3.3422 l 93.43581,-245.98052 q 1.44672,-5.89549 -3.69274,-7.04137 l -0.13856,-0.0235 z" />
    <path
       style="fill:#fa5422;fill-opacity:1;stroke-linejoin:miter"
       inkscape:connector-curvature="0"
       id="path35"
       d="m 1499.9993,482.97943 q -3.7105,0.24177 -4.7669,3.78217 l -63.8182,255.2712 q -1.0144,6.0555 4.5076,6.7292 3.9604,-0.2356 4.8962,-3.94627 l 63.8177,-255.27227 q 0.7425,-6.02484 -4.4961,-6.5575" />
    <path
       style="fill:#fa5422;fill-opacity:1;stroke-linejoin:miter"
       inkscape:connector-curvature="0"
       id="path39"
       d="m 417.05234,824.82173 q -3.418,1.46396 -3.23469,5.15405 l 24.86281,261.95042 q 1.0607,6.0475 6.49179,4.8433 3.65578,-1.5415 3.30196,-5.3519 l -24.8635,-261.95132 q -1.30697,-5.92805 -6.42386,-4.68518 l -0.13435,0.0411 z" />
    <path
       style="fill:#fa5422;fill-opacity:1;stroke-linejoin:miter"
       inkscape:connector-curvature="0"
       id="path43"
       d="m 228.71675,930.73257 q -2.65648,2.6018 -1.15013,5.9754 L 345.5444,1171.9045 q 3.17747,5.2537 7.80456,2.1655 2.85012,-2.76 1.14126,-6.1841 L 236.51155,932.68887 q -3.36384,-5.0533 -7.68408,-2.0428 l -0.11103,0.086 z" />
    <path
       style="fill:#fa5422;fill-opacity:1;stroke-linejoin:miter"
       inkscape:connector-curvature="0"
       id="path47"
       d="m 897.86353,838.00272 q -3.66254,-0.64193 -5.52567,2.54854 L 770.00245,1073.5106 q -2.41674,5.6445 2.78975,7.6039 3.9039,0.707 5.69004,-2.6774 L 900.81761,845.47654 q 2.14515,-5.67878 -2.81925,-7.43431 l -0.13472,-0.04 z" />
    <path
       style="fill:#fa5422;fill-opacity:1;stroke-linejoin:miter"
       inkscape:connector-curvature="0"
       id="path51"
       d="m 1845.4851,176.06892 q -3.7273,0.23898 -4.7768,3.82245 l -63.8116,255.25127 q -0.8908,6.12916 4.4068,6.69556 3.9721,-0.18103 4.9472,-3.73328 l 63.8067,-255.21483 q 0.9414,-6.21573 -4.3745,-6.80862" />
    <path
       style="fill:#fa5422;fill-opacity:1;stroke-linejoin:miter"
       inkscape:connector-curvature="0"
       id="path55"
       d="m 2046.4444,-36.670895 q -3.7252,0.235962 -4.7777,3.826294 l -63.8139,255.269771 q -0.7603,6.20752 4.3002,6.66082 4.1883,-0.17315 5.0745,-3.79107 l 63.7201,-254.86767 q 1.1597,-6.381592 -4.22,-7.075623" />
    <path
       style="fill:#fa5422;fill-opacity:1;stroke-linejoin:miter"
       inkscape:connector-curvature="0"
       id="path59"
       d="m 1085.538,633.74664 q -3.7105,0.24176 -4.7669,3.78216 l -63.8182,255.27125 q -1.0144,6.05565 4.5077,6.72925 3.9604,-0.2356 4.8961,-3.9463 l 63.8179,-255.27233 q 0.7424,-6.02487 -4.4963,-6.55747 l -0.1403,-0.007 z" />
    <path
       style="fill:#fa5422;fill-opacity:1;stroke-linejoin:miter"
       inkscape:connector-curvature="0"
       id="path63"
       d="m 1255.3506,454.94031 q -3.7104,0.24176 -4.7668,3.78216 l -63.8183,255.27102 q -1.0144,6.05564 4.5077,6.7292 3.9605,-0.23557 4.8961,-3.94626 l 63.8179,-255.2721 q 0.7423,-6.02484 -4.4962,-6.55749 l -0.1404,-0.007 z" />
    <path
       style="fill:#fa5422;fill-opacity:1;stroke-linejoin:miter"
       inkscape:connector-curvature="0"
       id="path67"
       d="m 1708.582,561.28937 q -3.7104,0.24173 -4.7668,3.78216 l -63.8182,255.27112 q -1.0145,6.05565 4.5076,6.72925 3.9605,-0.2356 4.8962,-3.9463 l 63.8178,-255.2722 q 0.7424,-6.02485 -4.4962,-6.5575 l -0.1404,-0.007 z" />
    <path
       style="fill:#14fa2c;fill-opacity:1;stroke-linejoin:miter"
       inkscape:connector-curvature="0"
       id="path71"
       d="m 628.09563,1237.4749 q -0.82638,-0.4768 -1.70364,-0.6297 l -260.15122,-58.7604 q -3.56298,-0.4551 -5.33478,3.0153 -1.1858,3.6256 1.87334,5.9279 0.80407,0.5183 1.71731,0.7006 l 260.16518,58.7703 q 3.62628,0.5446 5.44784,-2.9158 1.21038,-3.5888 -1.67762,-5.889" />
    <path
       style="fill:#14fa2c;fill-opacity:1;stroke-linejoin:miter"
       inkscape:connector-curvature="0"
       id="path75"
       d="m 452.27164,1098.4286 q -4.28759,-0.1667 -5.42512,3.9531 -0.44699,4.2603 3.6352,5.6649 l 223.20707,40.1801 q 4.42119,0.299 5.59371,-3.9819 0.36533,-4.4094 -3.83742,-5.6569 l -222.85995,-40.1098" />
    <path
       style="fill:#14fa2c;fill-opacity:1;stroke-linejoin:miter"
       inkscape:connector-curvature="0"
       id="path87"
       d="m 999.30092,965.88368 q -2.54466,-1.68543 -5.12158,-0.44994 L 777.7542,1077.4954 q -4.94099,3.3883 -0.84607,8.2482 2.34436,1.8065 5.3567,0.452 L 998.70158,974.12681 q 4.78842,-3.53408 0.61806,-8.22909" />
    <path
       style="fill:#14fa2c;fill-opacity:1;stroke-linejoin:miter"
       inkscape:connector-curvature="0"
       id="path99"
       d="m 1271.2758,463.26002 q -2.112,1.15988 -2.5946,2.95328 l -79.9998,247.10742 q -0.6121,7.15489 6.544,6.01892 2.0978,-0.88669 2.8388,-3.18398 l 79.9996,-247.11697 q 0.3706,-7.16745 -6.7212,-5.8093" />
    <path
       style="fill:#14fa2c;fill-opacity:1;stroke-linejoin:miter"
       inkscape:connector-curvature="0"
       id="path107"
       d="m 1591.069,598.01883 q -3.7114,1.5204 -3.2766,5.56257 l 46.7726,215.86877 q 0.4065,2.12164 2.306,3.32665 1.8621,1.09712 4.0273,0.45807 3.8725,-1.64653 3.2775,-5.70751 l -46.7797,-215.89402 q -1.5674,-4.6315 -6.3208,-3.61665" />
    <path
       style="fill:#14fa2c;fill-opacity:1;stroke-linejoin:miter"
       inkscape:connector-curvature="0"
       id="path111"
       d="m 1822.1788,409.26949 q -4.7322,0.6321 -4.7557,5.37477 l 19.1888,245.11167 q 0.7241,4.12842 4.9918,4.41326 4.7287,-0.64117 4.765,-5.3324 L 1827.18,413.71745 q -0.7212,-4.17069 -4.989,-4.44828" />
    <path
       style="fill:#14fa2c;fill-opacity:1;stroke-linejoin:miter"
       inkscape:connector-curvature="0"
       id="path71-1"
       d="m 816.05923,1026.4881 q -0.95018,-0.086 -1.81062,0.1434 l -260.79549,55.8314 q -3.4251,1.082 -3.57703,4.9756 0.44503,3.7885 4.18794,4.5946 0.94736,0.133 1.85278,-0.085 l 260.81236,-55.8282 q 3.52005,-1.0274 3.72141,-4.9327 -0.40733,-3.7655 -3.99399,-4.6415" />
    <path
       style="fill:#14fa2c;fill-opacity:1;stroke-linejoin:miter"
       inkscape:connector-curvature="0"
       id="path71-7"
       d="m 908.30373,989.50535 q -0.95335,0.037 -1.7771,0.3752 l -251.44126,88.93115 q -3.25736,1.5138 -2.90693,5.3946 0.92893,3.6997 4.74445,4.0174 0.95658,0.01 1.82644,-0.3225 l 251.45839,-88.93015 q 3.35856,-1.4719 3.0556,-5.3707 -0.88854,-3.6817 -4.55811,-4.0888" />
    <path
       style="fill:#14fa2c;fill-opacity:1;stroke-linejoin:miter"
       inkscape:connector-curvature="0"
       id="path71-4"
       d="m 1120.3212,853.61919 q -0.9059,0.29933 -1.6039,0.85227 L 901.70068,1009.5044 q -2.71131,2.3561 -1.30074,5.9884 1.91637,3.2982 5.67083,2.5477 0.92199,-0.2551 1.66589,-0.8153 L 1124.77,862.18847 q 2.8202,-2.34376 1.4502,-6.0065 -1.8725,-3.2921 -5.5115,-2.66792" />
    <path
       style="fill:#14fa2c;fill-opacity:1;stroke-linejoin:miter"
       inkscape:connector-curvature="0"
       id="path71-0"
       d="m 1172.7905,673.13452 q -0.7387,0.60368 -1.1927,1.36981 L 1024.4345,896.9327 q -1.6886,3.17029 0.9285,6.05721 2.9697,2.39399 6.2069,0.34965 0.7697,-0.56814 1.2638,-1.35743 L 1180.0113,679.5442 q 1.7947,-3.19779 -0.7953,-6.12769 -2.9267,-2.40396 -6.1013,-0.51885" />
    <path
       style="fill:#14fa2c;fill-opacity:1;stroke-linejoin:miter"
       inkscape:connector-curvature="0"
       id="path71-9"
       d="m 1487.9151,477.60825 q -0.4801,0.82452 -0.6365,1.7011 l -59.8027,259.91364 q -0.4695,3.56105 2.9938,5.34678 3.6208,1.20036 5.9353,-1.84952 0.5216,-0.802 0.7075,-1.71451 l 59.8129,-259.92753 q 0.559,-3.62402 -2.894,-5.45948 -3.584,-1.22472 -5.8957,1.65399" />
    <path
       style="fill:#14fa2c;fill-opacity:1;stroke-linejoin:miter"
       inkscape:connector-curvature="0"
       id="path111-4"
       d="m 1674.2077,209.50908 q -4.2419,2.1907 -2.6649,6.66356 l 100.7123,224.28772 q 2.0737,3.64251 6.1875,2.47168 4.2356,-2.19806 2.688,-6.62681 L 1680.4158,212.01025 q -2.0852,-3.68327 -6.1967,-2.50558" />
    <path
       style="fill:#14fa2c;fill-opacity:1;stroke-linejoin:miter"
       inkscape:connector-curvature="0"
       id="path111-8"
       d="m 1860.2518,2.8258884 q -4.1178,2.41597 -2.3022,6.797408 L 1970.5949,228.16156 q 2.2669,3.52553 6.3117,2.13485 4.1111,-2.42298 2.3272,-6.76195 L 1866.5856,4.9890884 q -2.2806,-3.565629 -6.3227,-2.168221" />
    <text
       xml:space="preserve"
       style="font-size:40px;font-style:normal;font-weight:normal;line-height:125%;letter-spacing:0px;word-spacing:0px;fill:#000000;fill-opacity:1;stroke:none;font-family:Sans"
       x="379.30069"
       y="1314.6853"
       id="text3222"
       sodipodi:linespacing="125%"
       transform="translate(-40.34959,-14.241032)"><tspan
         sodipodi:role="line"
         id="tspan3224"
         x="379.30069"
         y="1314.6853">t= -  inft</tspan></text>
    <text
       xml:space="preserve"
       style="font-size:40px;font-style:normal;font-weight:normal;line-height:125%;letter-spacing:0px;word-spacing:0px;fill:#000080;fill-opacity:1;stroke:none;font-family:Sans"
       x="1983.3978"
       y="288.85413"
       id="text3222-8"
       sodipodi:linespacing="125%"><tspan
         sodipodi:role="line"
         id="tspan3224-2"
         x="1983.3978"
         y="288.85413">t= + inft</tspan></text>
    <path
       sodipodi:type="arc"
       style="fill:#ffff00;fill-opacity:0.93121697;stroke:#000000;stroke-width:0.1;stroke-linecap:butt;stroke-miterlimit:4;stroke-opacity:1;stroke-dasharray:none;stroke-dashoffset:0"
       id="path3247"
       sodipodi:cx="1349.3706"
       sodipodi:cy="727.83215"
       sodipodi:rx="15.664335"
       sodipodi:ry="13.986014"
       d="m 1365.0349,727.83215 c 0,7.72427 -7.0131,13.98602 -15.6643,13.98602 -8.6512,0 -15.6643,-6.26175 -15.6643,-13.98602 0,-7.72426 7.0131,-13.98601 15.6643,-13.98601 8.6512,0 15.6643,6.26175 15.6643,13.98601 z"
       transform="translate(-40.34959,-14.241032)" />
    <text
       xml:space="preserve"
       style="font-size:40px;font-style:normal;font-weight:normal;line-height:125%;letter-spacing:0px;word-spacing:0px;fill:#000000;fill-opacity:1;stroke:none;font-family:Sans"
       x="1274.5723"
       y="781.93188"
       id="text4017"
       sodipodi:linespacing="125%"><tspan
         sodipodi:role="line"
         id="tspan4019"
         x="1274.5723"
         y="781.93188">blip!</tspan></text>
    <path
       sodipodi:type="star"
       style="fill:#00ff1d;fill-opacity:0.93121697;stroke:#000000;stroke-width:0.1;stroke-linecap:butt;stroke-miterlimit:4;stroke-opacity:1;stroke-dasharray:none;stroke-dashoffset:0"
       id="path4021"
       sodipodi:sides="5"
       sodipodi:cx="1344.9863"
       sodipodi:cy="669.58594"
       sodipodi:r1="27.634325"
       sodipodi:r2="13.817163"
       sodipodi:arg1="1.3397057"
       sodipodi:arg2="1.9680242"
       inkscape:flatsided="false"
       inkscape:rounded="0"
       inkscape:randomized="0"
       d="m 1351.3157,696.48566 -11.6747,-14.15841 -18.282,1.59073 9.8578,-15.4785 -7.1623,-16.89558 17.7672,4.59217 13.8553,-12.03276 1.123,18.31661 15.7254,9.45892 -17.0732,6.72812 z"
       transform="translate(-40.34959,-14.241032)"
       inkscape:transform-center-x="-1.9558759"
       inkscape:transform-center-y="0.70854678" />
    <path
       sodipodi:type="star"
       style="fill:#ff2e00;fill-opacity:0.93121697;stroke:#000000;stroke-width:0.1;stroke-linecap:butt;stroke-miterlimit:4;stroke-opacity:1;stroke-dasharray:none;stroke-dashoffset:0"
       id="path4023"
       sodipodi:sides="5"
       sodipodi:cx="1389.2917"
       sodipodi:cy="698.06799"
       sodipodi:r1="21.229277"
       sodipodi:r2="10.614639"
       sodipodi:arg1="-0.46364761"
       sodipodi:arg2="0.16467092"
       inkscape:flatsided="false"
       inkscape:rounded="0"
       inkscape:randomized="0"
       d="m 1408.2798,688.57397 -8.517,11.23406 4.4259,13.38485 -13.3161,-4.62863 -11.3621,8.34546 0.2872,-14.09471 -11.448,-8.22707 13.4936,-4.08238 4.2867,-13.43007 8.0524,11.57165 z"
       transform="translate(-40.34959,-14.241032)"
       inkscape:transform-center-x="0.97702611"
       inkscape:transform-center-y="-1.0753998" />
  </g>
</svg>
