<?xml version="1.0" encoding="UTF-8" standalone="no"?>
<!-- Generator: Adobe Illustrator 14.0.0, SVG Export Plug-In . SVG Version: 6.00 Build 43363)  -->

<svg
   xmlns:dc="http://purl.org/dc/elements/1.1/"
   xmlns:cc="http://creativecommons.org/ns#"
   xmlns:rdf="http://www.w3.org/1999/02/22-rdf-syntax-ns#"
   xmlns:svg="http://www.w3.org/2000/svg"
   xmlns="http://www.w3.org/2000/svg"
   xmlns:sodipodi="http://sodipodi.sourceforge.net/DTD/sodipodi-0.dtd"
   xmlns:inkscape="http://www.inkscape.org/namespaces/inkscape"
   version="1.1"
   id="Layer_1"
   x="0px"
   y="0px"
   width="201.77962"
   height="90.490173"
   viewBox="0 0 201.77962 90.490173"
   enable-background="new 0 0 800 600"
   xml:space="preserve"
   inkscape:version="0.48.4 r9939"
   sodipodi:docname="DiscrLagrVar.svg"><metadata
   id="metadata127"><rdf:RDF><cc:Work
       rdf:about=""><dc:format>image/svg+xml</dc:format><dc:type
         rdf:resource="http://purl.org/dc/dcmitype/StillImage" /><dc:title></dc:title></cc:Work></rdf:RDF></metadata><defs
   id="defs125" /><sodipodi:namedview
   pagecolor="#ffffff"
   bordercolor="#666666"
   borderopacity="1"
   objecttolerance="10"
   gridtolerance="10"
   guidetolerance="10"
   inkscape:pageopacity="0"
   inkscape:pageshadow="2"
   inkscape:window-width="1920"
   inkscape:window-height="1057"
   id="namedview123"
   showgrid="false"
   inkscape:zoom="5.72"
   inkscape:cx="80.281894"
   inkscape:cy="47.83088"
   inkscape:window-x="-8"
   inkscape:window-y="-8"
   inkscape:window-maximized="1"
   inkscape:current-layer="Layer_1"
   fit-margin-top="0"
   fit-margin-left="0"
   fit-margin-right="0"
   fit-margin-bottom="0" />















<g
   id="g3104"
   transform="matrix(0.98125854,-0.19269583,-0.19269583,-0.98125854,-482.82065,376.42919)"><polyline
     id="polyline5"
     points="548,243 646,207 740,226.059 "
     style="fill:none;stroke:#000000;stroke-width:2;stroke-dasharray:2, 2" /><line
     id="line7"
     y2="175"
     x2="645"
     y1="197"
     x1="645"
     style="fill:none;stroke:#000000;stroke-width:2;stroke-dasharray:2, 2" /><polygon
     id="polygon9"
     points="649.8,194.6 645,197 640.2,194.6 645,204.2 " /><polyline
     id="polyline11"
     points="546,245 645,173 736,225 "
     style="fill:none;stroke:#000000;stroke-width:2"
     transform="translate(-1.1609945,-0.7798574)" /><path
     id="path117"
     d="m 649.389,203.611 c 2.148,2.148 2.148,5.63 0,7.778 -2.147,2.148 -5.63,2.148 -7.777,0 -2.148,-2.148 -2.148,-5.63 0,-7.778 2.147,-2.148 5.629,-2.148 7.777,0"
     inkscape:connector-curvature="0"
     style="fill:#ffffff" /></g>

<path
   d="m 10.388,27.909056 c 2.148,2.148 2.148,5.63 0,7.778 -2.147,2.148 -5.63,2.148 -7.777,0 -2.148,-2.148 -2.148,-5.63 0,-7.778 2.147,-2.148 5.629,-2.148 7.777,0"
   id="path107"
   inkscape:connector-curvature="0"
   style="fill:#ffffff;fill-opacity:1;stroke:#000000;stroke-width:2" /><path
   d="m 120.54625,78.336806 c 2.148,2.148 2.148,5.63 0,7.778 -2.147,2.148 -5.63,2.148 -7.777,0 -2.148,-2.148 -2.148,-5.63 0,-7.778 2.147,-2.148 5.629,-2.148 7.777,0"
   id="path107-1"
   inkscape:connector-curvature="0"
   style="fill:#ffffff;fill-opacity:1;stroke:#000000;stroke-width:2" /><path
   d="m 199.16862,9.6040562 c 2.148,2.1479998 2.148,5.6299998 0,7.7779998 -2.147,2.148 -5.63,2.148 -7.777,0 -2.148,-2.148 -2.148,-5.63 0,-7.7779998 2.147,-2.148 5.629,-2.148 7.777,0"
   id="path107-7"
   inkscape:connector-curvature="0"
   style="fill:#ffffff;fill-opacity:1;stroke:#000000;stroke-width:2" /><path
   d="m 114.11801,44.217676 c 2.148,2.148 2.148,5.63 0,7.778 -2.147,2.148 -5.63,2.148 -7.777,0 -2.148,-2.148 -2.148,-5.63 0,-7.778 2.147,-2.148 5.629,-2.148 7.777,0"
   id="path107-1-4"
   inkscape:connector-curvature="0"
   style="fill:#ffffff;fill-opacity:1;stroke:#000000;stroke-width:2;stroke-miterlimit:4;stroke-dasharray:2, 2;stroke-dashoffset:0" /><text
   xml:space="preserve"
   style="font-size:16px;font-style:normal;font-weight:normal;line-height:125%;letter-spacing:0px;word-spacing:0px;fill:#000000;fill-opacity:1;stroke:none;font-family:Times New Roman;-inkscape-font-specification:Times New Roman"
   x="53.156628"
   y="5.3159475"
   id="text3046"
   sodipodi:linespacing="125%"><tspan
     sodipodi:role="line"
     id="tspan3048"></tspan></text>
<text
   xml:space="preserve"
   style="font-size:16px;font-style:normal;font-weight:normal;line-height:125%;letter-spacing:0px;word-spacing:0px;fill:#000000;fill-opacity:1;stroke:none;font-family:Times New Roman;-inkscape-font-specification:Times New Roman"
   x="155.59441"
   y="13.567094"
   id="text3050"
   sodipodi:linespacing="125%"><tspan
     sodipodi:role="line"
     id="tspan3052"
     x="155.59441"
     y="13.567094">qk+1</tspan></text>
<text
   xml:space="preserve"
   style="font-size:16px;font-style:normal;font-weight:normal;line-height:125%;letter-spacing:0px;word-spacing:0px;fill:#000000;fill-opacity:1;stroke:none;font-family:Times New Roman;-inkscape-font-specification:Times New Roman"
   x="18.111397"
   y="22.30595"
   id="text3050-1"
   sodipodi:linespacing="125%"><tspan
     sodipodi:role="line"
     id="tspan3052-7"
     x="18.111397"
     y="22.30595">qk-1</tspan></text>
<text
   xml:space="preserve"
   style="font-size:16px;font-style:normal;font-weight:normal;line-height:125%;letter-spacing:0px;word-spacing:0px;fill:#000000;fill-opacity:1;stroke:none;font-family:Times New Roman;-inkscape-font-specification:Times New Roman"
   x="128.25125"
   y="84.194061"
   id="text3050-4"
   sodipodi:linespacing="125%"><tspan
     sodipodi:role="line"
     id="tspan3052-0"
     x="128.25125"
     y="84.194061">qk</tspan></text>
</svg>