<?xml version="1.0" encoding="UTF-8" standalone="no"?>
<!-- Generator: Adobe Illustrator 14.0.0, SVG Export Plug-In . SVG Version: 6.00 Build 43363)  -->

<svg
   xmlns:dc="http://purl.org/dc/elements/1.1/"
   xmlns:cc="http://creativecommons.org/ns#"
   xmlns:rdf="http://www.w3.org/1999/02/22-rdf-syntax-ns#"
   xmlns:svg="http://www.w3.org/2000/svg"
   xmlns="http://www.w3.org/2000/svg"
   xmlns:xlink="http://www.w3.org/1999/xlink"
   xmlns:sodipodi="http://sodipodi.sourceforge.net/DTD/sodipodi-0.dtd"
   xmlns:inkscape="http://www.inkscape.org/namespaces/inkscape"
   version="1.1"
   id="Layer_1"
   x="0px"
   y="0px"
   width="698.3252"
   height="576.15857"
   viewBox="0 0 698.3252 576.15857"
   enable-background="new 0 0 700 600"
   xml:space="preserve"
   inkscape:version="0.48.4 r9939"
   sodipodi:docname="LiTom17bHorseshoe2.svg"><metadata
   id="metadata563"><rdf:RDF><cc:Work
       rdf:about=""><dc:format>image/svg+xml</dc:format><dc:type
         rdf:resource="http://purl.org/dc/dcmitype/StillImage" /><dc:title /></cc:Work></rdf:RDF></metadata><defs
   id="defs561" /><sodipodi:namedview
   pagecolor="#ffffff"
   bordercolor="#666666"
   borderopacity="1"
   objecttolerance="10"
   gridtolerance="10"
   guidetolerance="10"
   inkscape:pageopacity="0"
   inkscape:pageshadow="2"
   inkscape:window-width="1920"
   inkscape:window-height="1080"
   id="namedview559"
   showgrid="false"
   inkscape:zoom="1.1125147"
   inkscape:cx="87.768984"
   inkscape:cy="210.20938"
   inkscape:window-x="1920"
   inkscape:window-y="0"
   inkscape:window-maximized="0"
   inkscape:current-layer="g301"
   fit-margin-top="0"
   fit-margin-left="0"
   fit-margin-right="0"
   fit-margin-bottom="0" />





















































































































































<g
   id="g301"
   transform="translate(79.558072,107.63774)">
	<defs
   id="defs303">
		<rect
   id="SVGID_1_"
   width="700"
   height="600"
   x="0"
   y="0" />
	</defs>
	<clipPath
   id="SVGID_2_">
		<use
   xlink:href="#SVGID_1_"
   overflow="visible"
   id="use307"
   style="overflow:visible"
   x="0"
   y="0"
   width="700"
   height="600" />
	</clipPath>
	
	
	
	
	
	
	
	
	
	
	
	
	
	
	
	
	
	
	
	
	
	
	
	
	
	
	
	
	
	
	
	
	
	
	
	
	
	
	
	
	
	
	
	
	
	
	
	
	
	
	
	
	
	
	
	
	
	
	
	
	
	
	
	
	
	
	
	
	
	
	
	
	
	
	
	
	
	
	
	
	
	
	
	
	
	
	
	
	<path
   clip-path="url(#SVGID_2_)"
   d="m 21.208,538.399 c 7.721,0 7.734,-12 0,-12 -7.723,0 -7.734,12 0,12"
   id="path485"
   inkscape:connector-curvature="0"
   transform="translate(-84.493266,-108.76261)" />
	<path
   clip-path="url(#SVGID_2_)"
   d="m 436.361,217.769 c 7.722,0 7.734,-12 0,-12 -7.721,0 -7.734,12 0,12"
   id="path487"
   inkscape:connector-curvature="0"
   transform="translate(-9.8875104,123.14443)" />
	<path
   clip-path="url(#SVGID_2_)"
   d="m 507.857,446.322 c 7.722,0 7.734,-12 0,-12 -7.721,0 -7.734,12 0,12"
   id="path489"
   inkscape:connector-curvature="0"
   transform="translate(-149.21151,-329.88328)" />
	<path
   clip-path="url(#SVGID_2_)"
   d="m 140.972,161.29 c 7.721,0 7.734,-12 0,-12 -7.722,0 -7.734,12 0,12"
   id="path491"
   inkscape:connector-curvature="0"
   transform="translate(-88.987588,-102.47056)" />
	<path
   clip-path="url(#SVGID_2_)"
   d="m 106.38,245.658 c 7.721,0 7.734,-12 0,-12 -7.722,0 -7.734,12 0,12"
   id="path493"
   inkscape:connector-curvature="0"
   transform="translate(-85.39213,-108.76261)" />
	<path
   clip-path="url(#SVGID_2_)"
   d="m 53.342,416.288 c 7.722,0 7.734,-12 0,-12 -7.721,0 -7.734,12 0,12"
   id="path495"
   inkscape:connector-curvature="0"
   transform="translate(-85.39213,-106.96488)" />
<path
   style="fill:none;stroke:#000000;stroke-width:2;stroke-linecap:butt;stroke-linejoin:round;stroke-miterlimit:4;stroke-opacity:1;stroke-dasharray:none"
   d="m -20.673884,42.70399 c 0,0 139.388274,18.794135 208.536564,31.460262 68.44188,12.536732 136.74879,26.351078 204.04224,44.044368 40.96879,10.7718 121.34672,37.7523 121.34672,37.7523 0,0 53.94544,21.71617 76.40348,39.55004 10.48551,8.32652 21.84394,17.85542 26.06707,30.5614 2.93568,8.83248 3.02125,19.90186 -1.79773,27.8648 -12.5309,20.70618 -40.22497,27.23216 -62.02165,37.75231 -30.47716,14.70978 -62.83336,25.43939 -95.27964,35.05571 -55.68154,16.5027 -113.02754,26.82079 -169.88539,38.65118 -58.50992,12.17413 -117.26815,23.19242 -176.17745,33.25798 -18.308034,3.12821 -42.388066,6.93608 -66.841668,10.69289 -53.76495,8.25993 -109.335772,16.27305 -109.335772,16.27305"
   id="path4031"
   inkscape:connector-curvature="0"
   sodipodi:nodetypes="caacssssssssc" /><path
   style="fill:none;stroke:#000000;stroke-width:2;stroke-linecap:butt;stroke-linejoin:round;stroke-miterlimit:4;stroke-opacity:1;stroke-dasharray:none"
   d="m -41.471353,121.35463 c 0,0 110.561973,14.51874 156.402423,20.67389 45.84046,6.15514 79.52628,9.4264 118.65011,16.17957 39.12384,6.75316 115.95354,24.26933 115.95354,24.26933 0,0 53.65565,12.2789 79.10008,22.47162 8.64683,3.46381 18.17661,6.40287 24.71877,13.03354 8.09879,8.20835 3.62131,19.04692 -5.84262,23.81991 -18.88084,9.52226 -40.06613,13.72586 -60.67335,18.42672 -31.48166,7.1815 -53.42756,9.3345 -95.72907,14.83126 -42.30152,5.49675 -105.39185,11.85237 -158.20017,16.629 -31.57193,2.85575 -57.17921,3.00325 -94.830213,7.19091 -65.36441,7.27002 -93.93134,4.94375 -93.93134,4.94375"
   id="path4031-1"
   inkscape:connector-curvature="0"
   sodipodi:nodetypes="czzcassasssc" /><path
   style="fill:none;stroke:#000000;stroke-width:2;stroke-linecap:butt;stroke-linejoin:round;stroke-miterlimit:4;stroke-opacity:1;stroke-dasharray:6, 6;stroke-dashoffset:0"
   d="m -63.828402,423.05633 c 0,0 35.25847,-136.37914 56.317161,-203.5571 16.22236,-51.74991 32.434389,-103.70693 53.894989,-153.51316 13.1486,-30.515569 27.85637,-60.5581896 45.68205,-88.59978 14.599412,-22.966349 28.933432,-47.235827 49.826322,-64.673811 9.93597,-8.292927 21.76751,-15.484549 34.49816,-17.814089 16.75152,-3.06529 35.51382,-1.75362 50.75332,5.846865 23.27704,11.609101 38.14599,35.755297 53.77187,56.550099 14.95584,19.903115 25.11586,40.0823694 37.6679,64.493642 21.54072,41.892541 38.60424,80.543034 54.04627,123.320584 18.92734,65.53331 36.8755,124.27345 52.87407,183.73666 10.78156,40.45058 29.33075,120.911 29.33075,120.911"
   id="path4031-15"
   inkscape:connector-curvature="0"
   sodipodi:nodetypes="caasaaassccc" /></g>
<text
   transform="scale(0.94911524,1.0536128)"
   font-size="49.5429"
   id="text497"
   style="font-size:52.19903564px;font-family:Arial-It"
   x="59.266216"
   y="199.63478">h</text>



<text
   transform="scale(0.9490725,1.0536603)"
   font-size="28.8832"
   id="text499"
   style="font-size:30.43308067px;font-family:Arial"
   x="87.144524"
   y="217.00797">1</text>



<text
   transform="scale(0.94911524,1.0536128)"
   font-size="49.5429"
   id="text501"
   style="font-size:52.19903564px;font-family:Arial-It"
   x="6.2604284"
   y="358.1152">g</text>



<text
   transform="scale(0.9490725,1.0536603)"
   font-size="28.8832"
   id="text503"
   style="font-size:30.43308067px;font-family:Arial"
   x="33.613625"
   y="375.48181">1</text>



<text
   font-size="55"
   id="text505"
   style="font-size:55px;font-family:Arial-It"
   x="-0.40283203"
   y="576.15857">x</text>



<text
   transform="scale(0.94911524,1.0536128)"
   font-size="49.5429"
   id="text507"
   style="font-size:52.19903564px;font-family:Arial-It"
   x="97.349052"
   y="117.85607">g</text>



<text
   transform="scale(0.9490725,1.0536603)"
   font-size="28.8832"
   id="text509"
   style="font-size:30.43308067px;font-family:Arial"
   x="124.70646"
   y="135.23293">0</text>



<text
   transform="scale(0.94911524,1.0536128)"
   font-size="49.5429"
   id="text511"
   style="font-size:52.19903564px;font-family:Arial-It"
   x="469.75641"
   y="177.5484">h</text>



<text
   transform="scale(0.9490725,1.0536603)"
   font-size="28.8832"
   id="text513"
   style="font-size:30.43308067px;font-family:Arial"
   x="497.65427"
   y="194.92256">0</text>



<text
   transform="scale(0.94911524,1.0536128)"
   font-size="49.5429"
   id="text515"
   style="font-size:52.19903564px;font-family:Arial-It"
   x="229.74161"
   y="430.82541">H</text>



<text
   transform="scale(0.9490725,1.0536603)"
   font-size="28.8832"
   id="text517"
   style="font-size:30.43308067px;font-family:Arial"
   x="262.48224"
   y="448.18872">0</text>



<text
   transform="scale(0.94911524,1.0536128)"
   font-size="49.5429"
   id="text519"
   style="font-size:52.19903564px;font-family:Arial-It"
   x="273.7937"
   y="225.30351">H</text>



<text
   transform="scale(0.9490725,1.0536603)"
   font-size="28.8832"
   id="text521"
   style="font-size:30.43308067px;font-family:Arial"
   x="306.53641"
   y="242.67554">1</text>



<g
   id="g523"
   transform="translate(-1.7891675,-0.6754317)">
	<defs
   id="defs525">
		<rect
   id="SVGID_3_"
   width="700"
   height="600"
   x="0"
   y="0" />
	</defs>
	<clipPath
   id="SVGID_4_">
		<use
   xlink:href="#SVGID_3_"
   overflow="visible"
   id="use529"
   style="overflow:visible"
   x="0"
   y="0"
   width="700"
   height="600" />
	</clipPath>
	<path
   clip-path="url(#SVGID_4_)"
   d="m 467.059,306.191 c 7.722,0 7.734,-12 0,-12 -7.722,0 -7.735,12 0,12"
   id="path531"
   inkscape:connector-curvature="0" />
	<path
   clip-path="url(#SVGID_4_)"
   d="m 486.103,369.084 c 7.722,0 7.734,-12 0,-12 -7.722,0 -7.735,12 0,12"
   id="path533"
   inkscape:connector-curvature="0" />
</g>
<text
   transform="scale(0.94911524,1.0536128)"
   id="text535"
   x="500.29886"
   y="272.7699"
   style="font-size:12.64335442px"><tspan
     x="500.29886"
     y="272.7699"
     font-size="49.5429"
     letter-spacing="-1"
     id="tspan537"
     style="font-size:52.19903564px;letter-spacing:-1.05361283;font-family:Arial-It">h</tspan><tspan
     x="526.45056"
     y="272.7699"
     font-size="49.5429"
     id="tspan539"
     style="font-size:52.19903564px;font-family:Arial-It">’</tspan></text>



<text
   transform="scale(0.9490725,1.0536603)"
   font-size="28.8832"
   id="text541"
   style="font-size:30.43308067px;font-family:Arial"
   x="536.34033"
   y="290.14035">0</text>



<text
   transform="scale(0.94911524,1.0536128)"
   id="text543"
   x="528.55188"
   y="371.63364"
   style="font-size:12.64335442px"><tspan
     x="528.55188"
     y="371.63364"
     font-size="49.5429"
     letter-spacing="-1"
     id="tspan545"
     style="font-size:52.19903564px;letter-spacing:-1.05361283;font-family:Arial-It">g</tspan><tspan
     x="554.80688"
     y="371.63364"
     font-size="49.5429"
     id="tspan547"
     style="font-size:52.19903564px;font-family:Arial-It">’</tspan></text>



<text
   transform="scale(0.9490725,1.0536603)"
   font-size="28.8832"
   id="text549"
   style="font-size:30.43308067px;font-family:Arial"
   x="565.37671"
   y="388.99954">0</text>



<text
   transform="scale(0.94911524,1.0536128)"
   font-size="49.5429"
   id="text551"
   style="font-size:52.19903564px;font-family:Arial-It"
   x="557.67651"
   y="445.63037">g</text>



<text
   transform="scale(0.9490725,1.0536603)"
   font-size="28.8832"
   id="text553"
   style="font-size:30.43308067px;font-family:Arial"
   x="585.05463"
   y="462.99292">-1</text>



<text
   transform="scale(0.94911524,1.0536128)"
   font-size="49.5429"
   id="text555"
   style="font-size:52.19903564px;font-family:Arial-It"
   x="617.4906"
   y="323.43918">E</text>



<text
   transform="scale(0.9490725,1.0536603)"
   font-size="28.8832"
   id="text557"
   style="font-size:30.43308067px;font-family:Arial"
   x="642.0531"
   y="340.8063">1</text>



</svg>